<svg xmlns="http://www.w3.org/2000/svg" viewBox="0 0 161.49 145"><defs><style>.a{fill:#549e9e;}.b{fill:#457f7e;}.c{fill:#b8d1e6;}.d{fill:#e1effa;}.e{fill:#ff6d3b;}.f{fill:#21d8de;}.g{fill:#2a445e;}.h{fill:#f2f9ff;}.i{fill:#cee2f2;}</style></defs><title>img-reporting-teal</title><circle class="a" cx="72.5" cy="72.5" r="72.5"/><path class="b" d="M942.5,870a72.49,72.49,0,0,1-112.63,60.37c-0.49-.31-1-0.64-1.44-1q-1.51-1-3-2.19a72.44,72.44,0,0,1-16.33-17.83h19.3V841.26a10.5,10.5,0,0,1,10.5-10.49h31.49v-7.44a10.5,10.5,0,0,1,10.5-10.5h33.66A72.34,72.34,0,0,1,942.5,870Z" transform="translate(-797.5 -797.5)"/><path class="c" d="M948.5,812.83a10.5,10.5,0,0,0-10.5,10.5v7.79h21v-7.79A10.5,10.5,0,0,0,948.5,812.83Z" transform="translate(-797.5 -797.5)"/><path class="d" d="M880.92,812.83a10.5,10.5,0,0,0-10.5,10.5v43.5H927.5a10.5,10.5,0,0,0,10.5-10.5v-33a10.5,10.5,0,0,1,10.5-10.5H880.92Z" transform="translate(-797.5 -797.5)"/><path class="e" d="M890.22,831.9l-7.65,9.45a12.16,12.16,0,0,1-1.8-17.11,11.85,11.85,0,0,1,9.45-4.51V831.9Z" transform="translate(-797.5 -797.5)"/><path class="c" d="M890.22,831.9L889.16,844a11.72,11.72,0,0,1-6.59-2.66Z" transform="translate(-797.5 -797.5)"/><path class="f" d="M890.22,831.9l10.84-5.52a12.16,12.16,0,0,1-5.32,16.36,11.68,11.68,0,0,1-6.58,1.28Z" transform="translate(-797.5 -797.5)"/><path class="g" d="M890.22,831.9V819.74a11.77,11.77,0,0,1,10.84,6.64Z" transform="translate(-797.5 -797.5)"/><rect class="c" x="120.46" y="23.51" width="7.86" height="1.67"/><rect class="c" x="129.56" y="23.51" width="3.3" height="1.67"/><rect class="c" x="120.46" y="36.92" width="12.4" height="1.67"/><rect class="c" x="130.9" y="43.63" width="1.96" height="1.67"/><rect class="c" x="120.46" y="43.63" width="9.4" height="1.67"/><rect class="c" x="120.46" y="30.22" width="2.3" height="1.67"/><rect class="c" x="124.35" y="30.22" width="3.49" height="1.67"/><rect class="c" x="129.37" y="30.22" width="3.49" height="1.67"/><circle class="g" cx="116.04" cy="24.35" r="2.11"/><circle class="c" cx="116.04" cy="31.05" r="2.11"/><circle class="e" cx="116.04" cy="37.76" r="2.11"/><circle class="f" cx="116.04" cy="44.46" r="2.11"/><path class="h" d="M906.51,830.77a10.5,10.5,0,0,0-10.5,10.5v78.61a10.5,10.5,0,0,1-10.5,10.5H828.43V841.26a10.5,10.5,0,0,1,10.5-10.5h67.58Z" transform="translate(-797.5 -797.5)"/><rect class="i" x="38.55" y="77.5" width="6.65" height="7.02"/><rect class="i" x="49.97" y="65.63" width="6.65" height="18.88"/><rect class="i" x="61.39" y="70.81" width="6.65" height="13.7"/><rect class="i" x="72.82" y="56.34" width="6.65" height="28.17"/><rect class="i" x="84.24" y="60.47" width="6.65" height="24.04"/><rect class="e" x="38.55" y="82.86" width="6.65" height="1.65"/><rect class="e" x="49.97" y="80.06" width="6.65" height="4.45"/><rect class="e" x="61.39" y="81.29" width="6.65" height="3.23"/><rect class="e" x="72.82" y="77.88" width="6.65" height="6.64"/><rect class="e" x="84.24" y="78.85" width="6.65" height="5.66"/><rect class="f" x="38.55" y="74.64" width="6.65" height="2.86"/><rect class="f" x="49.97" y="56.74" width="6.65" height="8.89"/><rect class="f" x="61.39" y="68.99" width="6.65" height="1.82"/><rect class="f" x="72.82" y="52.11" width="6.65" height="4.23"/><rect class="f" x="84.24" y="49.56" width="6.65" height="10.91"/><rect class="g" x="38.55" y="87.69" width="52.34" height="2.6"/><rect class="c" x="53.92" y="98" width="36.92" height="1.52"/><rect class="c" x="38.55" y="98" width="12.48" height="1.52"/><rect class="c" x="38.55" y="102.7" width="52.28" height="1.52"/><rect class="c" x="38.55" y="107.39" width="26.14" height="1.52"/><path class="c" d="M917,856.33V841.26a10.5,10.5,0,0,0-21,0v25.56H927.5A10.5,10.5,0,0,1,917,856.33Z" transform="translate(-797.5 -797.5)"/><path class="i" d="M828.43,919.87v10.5h-10.5A10.49,10.49,0,0,0,828.43,919.87Z" transform="translate(-797.5 -797.5)"/><path class="i" d="M885.52,930.37H817.94a10.49,10.49,0,0,1-10.5-10.5V909.37H875v10.51A10.49,10.49,0,0,0,885.52,930.37Z" transform="translate(-797.5 -797.5)"/></svg>