<svg xmlns="http://www.w3.org/2000/svg" viewBox="0 0 93.1 81.22"><defs><style>.a{fill:#102947;}.b{fill:#d0d7d8;}.c{fill:#fff;}.d{fill:#efc64c;}.e{fill:#77b3d5;}.f{opacity:0.1;}.g{fill:#e85100;}.h{fill:#c44500;}.i{opacity:0.07;}.j{fill:#752900;}.k{fill:#943400;}.l{fill:#e6e6e6;}.m{fill:#f7f7f7;}</style></defs><title>img-ID-card</title><path class="a" d="M184.06,345.2a4.54,4.54,0,0,0-4.46,4.63v58.6a4.54,4.54,0,0,0,4.46,4.63h84.19a4.54,4.54,0,0,0,4.46-4.63v-58.6a4.54,4.54,0,0,0-4.46-4.63H184.06Zm50,7.11a1.26,1.26,0,0,1-1.24,1.29H219.47a1.26,1.26,0,0,1-1.24-1.29v-2.74a1.26,1.26,0,0,1,1.24-1.29h13.37a1.26,1.26,0,0,1,1.24,1.29v2.74Z" transform="translate(-179.61 -331.82)"/><rect class="b" x="5.69" y="24.99" width="82.46" height="50.85"/><path class="c" d="M268.63,408.54h-84.2V356h84.2v52.59Zm-82.46-1.73H266.9V357.68H186.17V406.8Z" transform="translate(-179.61 -331.82)"/><rect class="d" x="21.9" y="48.47" width="7.71" height="4.62"/><path class="a" d="M190.43,391.27l-1,12.08H205.5l-7.36-18.79C193.54,385.88,190.43,388.39,190.43,391.27Z" transform="translate(-179.61 -331.82)"/><path class="a" d="M221.53,403.35l-1-12.08c0-2.84-3-5.33-7.52-6.66l-7.33,18.73h15.85Z" transform="translate(-179.61 -331.82)"/><polygon class="e" points="26.07 71.53 25.89 71.53 25.98 71.76 26.07 71.53"/><path class="c" d="M213,384.62a24.66,24.66,0,0,1-3.81-2.18s-2.27,2.48-3.71,2.48-4-2.48-4-2.48a18.2,18.2,0,0,1-3.36,2.12l7.36,18.79h0.18Z" transform="translate(-179.61 -331.82)"/><path class="f" d="M221.12,398l0.4,5.35H205.59l-2.83-8.15,2.17-6.87,3.23-4.87C208,383.73,215.85,392.37,221.12,398Z" transform="translate(-179.61 -331.82)"/><polygon class="g" points="23.16 51.72 25.32 56.59 23.15 63.6 25.88 71.32 25.97 52.7 23.16 51.72"/><polygon class="h" points="26.51 56.59 28.55 51.63 25.97 52.7 25.88 71.32 28.6 63.6 26.51 56.59"/><path class="i" d="M209.21,380.3v1c-1.11,1-2.21,2.11-3.63,2.11s-3-1.1-4.07-2.11v-1h7.71Z" transform="translate(-179.61 -331.82)"/><path class="d" d="M205.85,365.89a30.1,30.1,0,0,1-5.3-.47,12,12,0,0,0-2.26,7.27c0,5.48,3.16,9.92,7.06,9.92s7.06-4.44,7.06-9.92a12.11,12.11,0,0,0-2.15-7.12A30.13,30.13,0,0,1,205.85,365.89Z" transform="translate(-179.61 -331.82)"/><path class="j" d="M212.87,363.23a0.92,0.92,0,0,0-1.32.5c-0.06-1.33-1.91-1.83-7-.61-2.27.54-4.8-2.61-7.35-1.88-2.36.67-3.73,6.86-.31,8,1.13,0.38.52,2.08,1.85,6.34l0.76-5.77a33.76,33.76,0,0,0,6.49-.57c1.22-.15,4.85-0.37,5.25-2.27l1,8.28C212.83,369.46,216.12,364.62,212.87,363.23Z" transform="translate(-179.61 -331.82)"/><path class="k" d="M199.61,367.11l-1.31-.09a3.08,3.08,0,0,0-.76-0.37,1,1,0,0,1-.56-1,3.91,3.91,0,0,1,.83-2.9c1.41-.51,1.53.41,2.33,0.81a8,8,0,0,0,3.75,1l6.52-.81C205.79,365.73,203.18,367.36,199.61,367.11Z" transform="translate(-179.61 -331.82)"/><path class="c" d="M232.85,353.9H219.47a1.86,1.86,0,0,1-1.86-1.86v-2.64a1.86,1.86,0,0,1,1.86-1.86h13.37a1.86,1.86,0,0,1,1.86,1.86V352A1.86,1.86,0,0,1,232.85,353.9Zm-13.37-5.12a0.62,0.62,0,0,0-.62.62V352a0.62,0.62,0,0,0,.62.62h13.37a0.62,0.62,0,0,0,.62-0.62v-2.64a0.62,0.62,0,0,0-.62-0.62H219.47Z" transform="translate(-179.61 -331.82)"/><path class="l" d="M230.5,331.82h-8.69a1.59,1.59,0,0,0-1.5,1.67v16.92a1.59,1.59,0,0,0,1.5,1.67h8.69a1.59,1.59,0,0,0,1.5-1.67V333.49A1.59,1.59,0,0,0,230.5,331.82Zm-4.34,9.45a3.07,3.07,0,1,1,3-3.07A3,3,0,0,1,226.16,341.28Z" transform="translate(-179.61 -331.82)"/><path class="c" d="M226.16,341.36A3.34,3.34,0,1,1,229.5,338,3.35,3.35,0,0,1,226.16,341.36Zm0-5.94a2.6,2.6,0,1,0,2.6,2.6A2.6,2.6,0,0,0,226.16,335.42Z" transform="translate(-179.61 -331.82)"/><rect class="m" x="40.71" y="15" width="11.7" height="3.53"/><path class="a" d="M252.41,388.88v9.9h9.91v-9.9h-9.91Zm1.42,8.49V390.3h7.08v7.07h-7.08Z" transform="translate(-179.61 -331.82)"/><polygon class="a" points="75.63 59.89 75.63 64.13 79.88 64.13 79.88 59.89 79.88 59.89 75.63 59.89"/><path class="a" d="M232.6,388.88v9.9h9.9v-9.9h-9.9Zm1.42,8.49V390.3h7.08v7.07H234Z" transform="translate(-179.61 -331.82)"/><polygon class="a" points="55.82 59.89 55.82 64.13 60.06 64.13 60.06 59.89 60.06 59.89 55.82 59.89"/><path class="a" d="M232.6,369.07V379h9.9v-9.9h-9.9Zm1.42,8.49v-7.07h7.08v7.07H234Z" transform="translate(-179.61 -331.82)"/><polygon class="a" points="55.82 40.08 55.82 44.32 60.06 44.32 60.06 40.08 60.06 40.08 55.82 40.08"/><path class="a" d="M252.41,369.07V379h9.91v-9.9h-9.91Zm1.42,8.49v-7.07h7.08v7.07h-7.08Z" transform="translate(-179.61 -331.82)"/><polygon class="a" points="75.63 40.08 75.63 44.32 79.88 44.32 79.88 40.08 79.88 40.08 75.63 40.08"/><rect class="a" x="67.14" y="37.25" width="1.42" height="1.41"/><polygon class="a" points="71.39 38.66 71.39 37.25 69.97 37.25 69.97 38.66 69.97 40.08 71.39 40.08 71.39 38.66"/><rect class="a" x="64.31" y="40.08" width="1.41" height="1.42"/><rect class="a" x="67.14" y="40.08" width="1.42" height="1.42"/><polygon class="a" points="71.39 42.91 71.39 41.49 69.97 41.49 69.97 42.91 69.97 44.32 71.39 44.32 71.39 42.91"/><rect class="a" x="69.97" y="45.74" width="1.42" height="1.41"/><polygon class="a" points="62.89 49.98 62.89 48.56 61.48 48.56 60.06 48.56 58.65 48.56 58.65 49.98 60.06 49.98 60.06 51.4 61.48 51.4 61.48 49.98 62.89 49.98"/><polygon class="a" points="68.56 48.56 68.56 47.15 68.56 45.73 68.56 44.32 67.14 44.32 67.14 42.91 65.72 42.91 65.72 44.32 65.72 45.73 67.14 45.73 67.14 47.15 67.14 48.56 67.14 49.98 67.14 51.4 68.56 51.4 68.56 49.98 68.56 48.56"/><rect class="a" x="78.46" y="48.57" width="1.42" height="1.42"/><polygon class="a" points="65.72 49.98 65.72 48.56 65.72 47.15 64.31 47.15 64.31 48.56 64.31 49.98 64.31 51.4 65.72 51.4 65.72 49.98"/><polygon class="a" points="57.23 51.4 57.23 49.98 57.23 48.56 55.82 48.56 54.41 48.56 52.99 48.56 52.99 49.98 52.99 51.4 54.41 51.4 54.41 49.98 55.82 49.98 55.82 51.4 55.82 52.81 57.23 52.81 57.23 51.4"/><rect class="a" x="61.48" y="51.4" width="1.41" height="1.41"/><rect class="a" x="68.55" y="51.4" width="1.41" height="1.41"/><polygon class="a" points="54.41 54.23 52.99 54.23 52.99 55.64 54.41 55.64 55.82 55.64 55.82 54.23 55.82 52.81 54.41 52.81 54.41 54.23"/><polygon class="a" points="60.06 52.81 58.65 52.81 58.65 54.23 57.23 54.23 57.23 55.64 58.65 55.64 60.06 55.64 61.48 55.64 61.48 54.23 60.06 54.23 60.06 52.81"/><polygon class="a" points="72.8 52.81 72.8 51.4 72.8 49.98 74.22 49.98 74.22 48.56 72.8 48.56 71.39 48.56 69.97 48.56 69.97 49.98 71.39 49.98 71.39 51.4 71.39 52.81 69.97 52.81 69.97 54.23 71.39 54.23 71.39 55.64 72.8 55.64 74.22 55.64 74.22 54.23 72.8 54.23 72.8 52.81"/><polygon class="a" points="78.46 52.81 78.46 51.4 78.46 49.98 77.05 49.98 77.05 51.4 77.05 52.81 75.63 52.81 75.63 51.4 75.63 49.98 74.22 49.98 74.22 51.4 74.22 52.81 74.22 54.23 75.63 54.23 77.05 54.23 77.05 55.64 78.46 55.64 79.88 55.64 79.88 54.23 78.46 54.23 78.46 52.81"/><polygon class="a" points="81.29 52.81 81.29 51.4 81.29 49.98 79.88 49.98 79.88 51.4 79.88 52.81 79.88 54.23 81.29 54.23 82.7 54.23 82.7 52.81 81.29 52.81"/><polygon class="a" points="62.89 55.64 64.31 55.64 64.31 54.23 64.31 52.81 62.89 52.81 62.89 54.23 62.89 55.64"/><polygon class="a" points="65.72 57.06 67.14 57.06 68.56 57.06 68.56 55.64 67.14 55.64 67.14 54.23 67.14 52.81 65.72 52.81 65.72 54.23 65.72 55.64 64.31 55.64 64.31 57.06 65.72 57.06"/><rect class="a" x="69.97" y="57.06" width="1.42" height="1.42"/><polygon class="a" points="67.14 59.89 68.56 59.89 68.56 58.47 67.14 58.47 65.72 58.47 64.31 58.47 64.31 59.89 64.31 61.3 65.72 61.3 65.72 59.89 67.14 59.89"/><rect class="a" x="69.97" y="59.89" width="1.42" height="1.41"/><rect class="a" x="65.72" y="61.3" width="1.41" height="1.42"/><polygon class="a" points="64.31 64.13 64.31 65.55 65.72 65.55 65.72 64.13 65.72 62.72 64.31 62.72 64.31 64.13"/><polygon class="a" points="69.97 62.72 68.56 62.72 67.14 62.72 67.14 64.13 68.56 64.13 68.56 65.55 68.56 66.96 69.97 66.96 69.97 65.55 71.39 65.55 71.39 64.13 69.97 64.13 69.97 62.72"/><rect class="a" x="65.72" y="65.54" width="1.41" height="1.42"/></svg>