<svg xmlns="http://www.w3.org/2000/svg" xmlns:xlink="http://www.w3.org/1999/xlink" viewBox="0 0 145 151.81"><defs><style>.a{fill:none;}.b{fill:#ff6d3b;}.c{fill:#2a445e;}.d{fill:#50667e;}.e{fill:#20364d;}.f,.h{fill:#e1effa;}.g,.j{fill:#fff;}.g,.h{fill-rule:evenodd;}.i{clip-path:url(#a);}.k{fill:#b8d1e6;}</style><clipPath id="a" transform="translate(-427.5 -605.69)"><circle class="a" cx="500" cy="685" r="72.5"/></clipPath></defs><title>img-holding-briefcase</title><circle class="b" cx="72.5" cy="79.31" r="72.5"/><path class="c" d="M516.2,677.31h-3.32v-2.95a2,2,0,0,0-2-2H489.15a2,2,0,0,0-2,2v2.95H483.8v-2.95a5.35,5.35,0,0,1,5.35-5.35h21.71a5.35,5.35,0,0,1,5.35,5.35v2.95Z" transform="translate(-427.5 -605.69)"/><path class="d" d="M536.87,730.4a2.22,2.22,0,0,1-2.21,2.21H465.34a2.22,2.22,0,0,1-2.21-2.21V691.81a2.22,2.22,0,0,1,2.21-2.21h69.32a2.22,2.22,0,0,1,2.21,2.21V730.4Z" transform="translate(-427.5 -605.69)"/><path class="e" d="M37.84,85h69.32a1.11,1.11,0,0,1,1.11,1.11v38.59a1.1,1.1,0,0,1-1.1,1.1H37.84a1.11,1.11,0,0,1-1.11-1.11V86.12A1.1,1.1,0,0,1,37.84,85Z"/><path class="f" d="M533.14,730.59H530.9v-0.36h2.23v0.36Zm-4.47,0h-2.24v-0.36h2.24v0.36Zm-4.47,0H522v-0.36h2.24v0.36Zm-4.47,0H517.5v-0.36h2.23v0.36Zm-4.47,0H513v-0.36h2.24v0.36Zm-4.47,0h-2.24v-0.36h2.24v0.36Zm-4.47,0h-2.23v-0.36h2.23v0.36Zm-4.47,0h-2.24v-0.36h2.24v0.36Zm-4.47,0h-2.24v-0.36h2.24v0.36Zm-4.47,0h-2.23v-0.36h2.23v0.36Zm-4.47,0h-2.23v-0.36h2.23v0.36Zm-4.47,0h-2.24v-0.36H484v0.36Zm-4.47,0h-2.23v-0.36h2.23v0.36Zm-4.47,0H472.8v-0.36H475v0.36Zm-4.47,0h-2.24v-0.36h2.24v0.36Zm-4.47,0h0a0.92,0.92,0,0,1-.92-0.92v-1.07h0.37v1.07a0.56,0.56,0,0,0,.55.56Zm68.74-1.22h-0.37v-2.23h0.37v2.23Zm-69.31-3h-0.37v-2.24h0.37v2.24Zm69.31-1.45h-0.37v-2.23h0.37v2.23Zm-69.31-3h-0.37v-2.23h0.37v2.23Zm69.31-1.45h-0.37V718.2h0.37v2.23Zm-69.31-3h-0.37v-2.23h0.37v2.23ZM534.84,716h-0.37v-2.23h0.37V716Zm-69.31-3h-0.37v-2.24h0.37v2.24Zm69.31-1.45h-0.37v-2.24h0.37v2.24Zm-69.31-3h-0.37v-2.24h0.37v2.24ZM534.84,707h-0.37v-2.23h0.37V707Zm-69.31-3h-0.37v-2.23h0.37V704Zm69.31-1.45h-0.37v-2.23h0.37v2.23Zm-69.31-3h-0.37V697.3h0.37v2.24Zm69.31-1.45h-0.37v-2.23h0.37v2.23Zm-69.31-3h-0.37v-2.23h0.37v2.23Zm69.31-1.45h-0.37v-1.07a0.55,0.55,0,0,0-.55-0.55v-0.37h0a0.92,0.92,0,0,1,.92.92v1.07ZM531.68,692h-2.24v-0.37h2.24V692Zm-4.47,0H525v-0.37h2.23V692Zm-4.47,0H520.5v-0.37h2.23V692Zm-4.47,0H516v-0.37h2.24V692Zm-4.47,0h-2.23v-0.37h2.23V692Zm-4.47,0h-2.23v-0.37h2.23V692Zm-4.47,0h-2.23v-0.37h2.23V692Zm-4.47,0h-2.23v-0.37h2.23V692Zm-4.47,0h-2.24v-0.37h2.24V692Zm-4.47,0h-2.23v-0.37h2.23V692ZM487,692h-2.23v-0.37H487V692Zm-4.47,0h-2.23v-0.37h2.23V692ZM478,692h-2.24v-0.37H478V692Zm-4.47,0h-2.23v-0.37h2.23V692Zm-4.46,0h-2.24v-0.37h2.24V692Z" transform="translate(-427.5 -605.69)"/><rect class="d" x="34.15" y="71.62" width="76.69" height="27.66" rx="2.21" ry="2.21"/><path class="c" d="M36.37,72.73h72.27a1.1,1.1,0,0,1,1.1,1.1V97.06a1.11,1.11,0,0,1-1.11,1.11H36.37a1.1,1.1,0,0,1-1.1-1.1V73.83A1.1,1.1,0,0,1,36.37,72.73Z"/><path class="f" d="M535.21,702.94H533v-0.37h2.2v0.37Zm-4.41,0h-2.2v-0.37h2.2v0.37Zm-4.41,0h-2.2v-0.37h2.2v0.37Zm-4.41,0h-2.21v-0.37H522v0.37Zm-4.41,0h-2.2v-0.37h2.2v0.37Zm-4.41,0h-2.21v-0.37h2.21v0.37Zm-4.41,0h-2.21v-0.37h2.21v0.37Zm-4.41,0h-2.21v-0.37h2.21v0.37Zm-4.41,0h-2.2v-0.37h2.2v0.37Zm-4.41,0H493.3v-0.37h2.21v0.37Zm-4.41,0h-2.2v-0.37h2.2v0.37Zm-4.41,0h-2.21v-0.37h2.21v0.37Zm-4.41,0h-2.21v-0.37h2.21v0.37Zm-4.41,0h-2.21v-0.37h2.21v0.37Zm-4.41,0h-2.21v-0.37h2.21v0.37Zm-4.41,0h-2.2v-0.37H469v0.37Zm-4.41,0h0a0.92,0.92,0,0,1-.92-0.92v-1h0.37v1a0.55,0.55,0,0,0,.55.55Zm71.69-1.78h-0.37v-2.21h0.37v2.21Zm-72.27-2.39h-0.37v-2.21h0.37v2.21Zm72.27-2h-0.37v-2.21h0.37v2.21Zm-72.27-2.39h-0.37v-2.21h0.37v2.21Zm72.27-2h-0.37v-2.21h0.37v2.21Zm-72.27-2.39h-0.37v-2.21h0.37v2.21Zm72.27-2h-0.37v-2.2h0.37v2.2Zm-72.27-2.39h-0.37v-2.21h0.37v2.21Zm72.27-2h-0.37v-2.2h0.37v2.2Zm-72.27-2.39h-0.37v-0.85a0.92,0.92,0,0,1,.92-0.92h0.2v0.37h-0.2a0.55,0.55,0,0,0-.55.55v0.85Zm71.33-1.41h-2.2v-0.37h2.2v0.37Zm-4.41,0h-2.21v-0.37H531v0.37Zm-4.41,0h-2.21v-0.37h2.21v0.37Zm-4.41,0h-2.21v-0.37h2.21v0.37Zm-4.41,0h-2.21v-0.37h2.21v0.37Zm-4.41,0h-2.21v-0.37h2.21v0.37Zm-4.41,0h-2.21v-0.37h2.21v0.37Zm-4.41,0h-2.2v-0.37h2.2v0.37Zm-4.41,0h-2.2v-0.37h2.2v0.37Zm-4.41,0h-2.2v-0.37h2.2v0.37Zm-4.41,0h-2.21v-0.37h2.21v0.37Zm-4.41,0h-2.21v-0.37h2.21v0.37Zm-4.41,0h-2.21v-0.37h2.21v0.37Zm-4.41,0h-2.21v-0.37H478v0.37Zm-4.41,0h-2.21v-0.37h2.21v0.37Zm-4.41,0H467v-0.37h2.21v0.37Z" transform="translate(-427.5 -605.69)"/><path class="g" d="M487.74,699.58a0.46,0.46,0,0,0-.33-0.15H482a0.47,0.47,0,0,0-.35.15,0.48,0.48,0,0,0-.13.33V710a0.47,0.47,0,0,0,.13.31,0.54,0.54,0,0,0,.17.12,0.67,0.67,0,0,0,.18,0h5.36l0.17,0a0.53,0.53,0,0,0,.17-0.12,0.46,0.46,0,0,0,.13-0.31V699.91A0.47,0.47,0,0,0,487.74,699.58Zm-1.1,9.25H482.8v-1.5h3.85v1.5Z" transform="translate(-427.5 -605.69)"/><path class="h" d="M481.57,705V710a0.47,0.47,0,0,0,.13.31v0l0.17,0.1a0.67,0.67,0,0,0,.18,0h5.36l0.17,0,0.17-.1v0a0.46,0.46,0,0,0,.13-0.31V705h-6.31Zm5.08,3.86H482.8v-1.5h3.85v1.5Z" transform="translate(-427.5 -605.69)"/><path class="g" d="M518.3,699.58a0.46,0.46,0,0,0-.33-0.15H512.6a0.47,0.47,0,0,0-.35.15,0.48,0.48,0,0,0-.13.33V710a0.47,0.47,0,0,0,.13.31,0.51,0.51,0,0,0,.17.12,0.65,0.65,0,0,0,.18,0H518l0.17,0a0.54,0.54,0,0,0,.17-0.12,0.47,0.47,0,0,0,.13-0.31V699.91A0.48,0.48,0,0,0,518.3,699.58Zm-1.1,9.25h-3.85v-1.5h3.85v1.5Z" transform="translate(-427.5 -605.69)"/><path class="h" d="M512.12,705V710a0.47,0.47,0,0,0,.13.31v0l0.17,0.1a0.65,0.65,0,0,0,.18,0H518l0.17,0,0.17-.1v0a0.47,0.47,0,0,0,.13-0.31V705h-6.31Zm5.08,3.86h-3.85v-1.5h3.85v1.5Z" transform="translate(-427.5 -605.69)"/><g class="i"><path class="j" d="M506.38,664.19h6v9.67a3,3,0,0,1-3,3h0a3,3,0,0,1-3-3v-9.67Z" transform="translate(-427.5 -605.69)"/><path class="j" d="M500.08,664.19h6v9.67a3,3,0,0,1-3,3h0a3,3,0,0,1-3-3v-9.67Z" transform="translate(-427.5 -605.69)"/><path class="j" d="M493.77,664.19h6v9.67a3,3,0,0,1-3,3h0a3,3,0,0,1-3-3v-9.67Z" transform="translate(-427.5 -605.69)"/><path class="j" d="M487.47,664.19h6v8.15a3,3,0,0,1-3,3h0a3,3,0,0,1-3-3v-8.15Z" transform="translate(-427.5 -605.69)"/><rect class="j" x="64.42" y="35.46" width="18.47" height="7.4"/><path class="j" d="M512.38,647.72v16.61h-24.9V652.25a8.83,8.83,0,0,1,1.67-5.15l2.78-3.83h16Z" transform="translate(-427.5 -605.69)"/><path class="j" d="M519.14,656.1a3.8,3.8,0,0,0-.3-1.49,4,4,0,0,0-.87-1.3l-10-10-4.24,4.24,9.45,9.45v5.49a4.5,4.5,0,0,0,4.5,4.5h0.5a1,1,0,0,0,.71-0.29,1.32,1.32,0,0,0,.29-0.84V656.1Z" transform="translate(-427.5 -605.69)"/><rect class="f" x="62.83" y="30.93" width="21.25" height="4.53"/><rect class="k" x="62.83" y="30.93" width="10.63" height="4.53"/><rect class="c" x="59.98" width="26.96" height="30.93"/><rect class="d" x="73.46" width="13.48" height="28.79"/><circle class="j" cx="64.2" cy="26.7" r="0.95"/><circle class="j" cx="64.2" cy="22.52" r="0.95"/><circle class="j" cx="64.2" cy="18.35" r="0.95"/></g></svg>