<svg xmlns="http://www.w3.org/2000/svg" xmlns:xlink="http://www.w3.org/1999/xlink" viewBox="0 0 161.29 156.56"><defs><style>.a{fill:#f4dcee;}.b{isolation:isolate;}.c{clip-path:url(#a);}.d{fill:#50667e;}.e{fill:#2a445e;}.f{fill:#fff;}.g{fill:#cee2f2;}.h{fill:#f15424;}.i{fill:#d9c5c1;mix-blend-mode:multiply;}.j{fill:#ff6d3b;}.k{fill:#e64717;}</style><clipPath id="a"><rect class="a" x="7.18" width="150" height="150"/></clipPath></defs><title>img-mission-square-purple</title><g class="b"><rect class="a" x="7.18" width="150" height="150"/><g class="c"><polygon class="d" points="117.34 90.22 73.39 156.56 161.29 156.56 117.34 90.22"/><polygon class="e" points="64.27 59.54 0 156.56 128.54 156.56 64.27 59.54"/><polygon class="d" points="64.27 59.54 0 156.56 41.97 156.56 64.27 59.54"/><rect class="f" x="63.34" y="17.54" width="1.86" height="41.33"/><rect class="g" x="62.9" y="14.79" width="2.75" height="2.75"/><rect class="g" x="62.9" y="58.87" width="2.75" height="2.75"/><polygon class="h" points="95.78 37.01 78.59 37.01 78.59 21.66 95.78 21.66 90.39 29.34 95.78 37.01"/><polygon class="i" points="82.93 21.66 78.59 21.66 78.59 37.01 85.64 37.01 82.93 21.66"/><rect class="j" x="65.2" y="18.61" width="17.19" height="15.35"/><polygon class="k" points="82.39 33.96 78.59 33.96 78.59 37.02 82.39 33.96"/></g></g></svg>