<svg xmlns="http://www.w3.org/2000/svg" viewBox="0 0 123.88 70.1"><defs><style>.a{fill:#f0c770;}.a,.b,.c,.d,.e{fill-rule:evenodd;}.b{fill:#d7b065;}.c{fill:#fff;}.d{fill:#002139;}.e{fill:#003148;}</style></defs><title>img-shaking-hands</title><path class="a" d="M698.69,262l18.79-.35,27.27,29.57a3.86,3.86,0,0,1,2.38,1.6c0.25,0.68,1.15,1.54,1.26,2.21,0.68,4.24-2.08,8.64-6.86,6.65a4.94,4.94,0,0,1-6.36,4,5,5,0,0,1-7.46,3.49,4.79,4.79,0,0,1-2.8,3.08,4.91,4.91,0,0,1-6.1-2.09l-0.23-1.27h0L681,285.08Z" transform="translate(-658.53 -243.43)"/><path class="b" d="M748.3,294.75l10.32-7.13-16.54-25.9-9.71-2.63c-5.83-1.58-6.84-3.35-12.9-.42l-2.07,1-6.14,3.48a12.85,12.85,0,0,0-2.47,4.74L706.32,275c-2.06,5.88,8.49,7.21,10.67-.29,0.51-2.21,1.06-2.66,2.93-3.56,2.45-1.18,3-.2,4.85,1.47C732.66,279.83,740.48,287.34,748.3,294.75Z" transform="translate(-658.53 -243.43)"/><path class="b" d="M702,294.33a4.81,4.81,0,0,1,7,3.31c3.78-1.93,8.09,2.09,6.61,5.82,8.26,0.11,4,13.24-2.79,9.34a4.63,4.63,0,0,1-2.29-3.32,4.79,4.79,0,0,1-6.7-4.32,4.79,4.79,0,0,1-5.58-4.64c-4,1.06-7.25-2.78-5.12-6.87C695.51,289.11,701,290.18,702,294.33Z" transform="translate(-658.53 -243.43)"/><path class="c" d="M759.12,289.22l15.3-11.47a72.75,72.75,0,0,0-3.22-7.06,81.46,81.46,0,0,0-15.3-20.79l-14.7,11Z" transform="translate(-658.53 -243.43)"/><path class="d" d="M764.7,289.56l17.71-13.28a84.36,84.36,0,0,0-3.72-8.17A94.32,94.32,0,0,0,761,244l-17,12.76Z" transform="translate(-658.53 -243.43)"/><path class="e" d="M770.51,255A85.69,85.69,0,0,0,761,244l-17,12.76,7.78,12.29Z" transform="translate(-658.53 -243.43)"/><path class="c" d="M681.83,288.63l-15.3-11.47a72.54,72.54,0,0,1,3.22-7.05,81.45,81.45,0,0,1,15.3-20.8l14.7,11Z" transform="translate(-658.53 -243.43)"/><path class="d" d="M676.24,289l-17.71-13.28a84.1,84.1,0,0,1,3.72-8.17A94.33,94.33,0,0,1,680,243.43l17,12.76Z" transform="translate(-658.53 -243.43)"/><path class="e" d="M670.43,254.39a85.68,85.68,0,0,1,9.54-11l17,12.76-7.78,12.29Z" transform="translate(-658.53 -243.43)"/></svg>