<svg xmlns="http://www.w3.org/2000/svg" viewBox="0 0 145 145"><defs><style>.a{isolation:isolate;}.b{fill:#b6c4c6;}.c{fill:#21d8de;}.d{fill:#06b2b8;}.e{fill:#ffb733;}.f{fill:#ffd55c;}.g{fill:#e1effa;}.g,.i{fill-rule:evenodd;}.h{mix-blend-mode:screen;}.i{fill:#7d9db3;}.j{fill:#b8d1e6;}.k{fill:#ff6d3b;}.l{fill:#e64717;}.m{fill:#50667e;}.n{fill:#fff;}</style></defs><title>img-payment-options</title><g class="a"><circle class="b" cx="72.5" cy="72.5" r="72.5"/><rect class="c" x="43.89" y="65.86" width="76.11" height="44.12"/><path class="d" d="M694.44,871.49c-6.59,0-11.94,6.23-11.94,13.93s5.35,13.93,11.94,13.93,11.94-6.24,11.94-13.93S701,871.49,694.44,871.49Zm0.76,20.89v1.78H694v-1.78a6.54,6.54,0,0,1-4.59-2.12l1-1.3a5.48,5.48,0,0,0,3.58,1.9V886c-2-.56-4.17-1.25-4.17-3.73,0-2.08,1.75-3.55,4.17-3.73v-1.83h1.23v1.85a6.1,6.1,0,0,1,4,1.85l-1,1.23a4.94,4.94,0,0,0-3-1.55v4.4c2.08,0.58,4.29,1.36,4.29,4C699.5,890.27,698.33,892.15,695.21,892.38Z" transform="translate(-612.5 -797.5)"/><path class="d" d="M695.21,886.29v4.61c1.91-.21,2.56-1.35,2.56-2.32C697.77,887.25,696.62,886.71,695.21,886.29Z" transform="translate(-612.5 -797.5)"/><path class="d" d="M691.54,882.14c0,1.11,1.07,1.6,2.44,2V880C692.55,880.12,691.54,881,691.54,882.14Z" transform="translate(-612.5 -797.5)"/><path class="d" d="M719.7,865.65h-61V905.2h71.53V865.65H719.7Zm8.23,28.8a9.11,9.11,0,0,0-5.7,2.76,9.25,9.25,0,0,0-2.75,5.71H669.41a9.24,9.24,0,0,0-2.75-5.71,9.1,9.1,0,0,0-5.7-2.76V876.4a9.15,9.15,0,0,0,5.7-2.76,9.25,9.25,0,0,0,2.75-5.71h50.06a9.26,9.26,0,0,0,2.75,5.71,9.15,9.15,0,0,0,5.7,2.76v18.06Z" transform="translate(-612.5 -797.5)"/><path class="e" d="M664.61,893.93a13.55,13.55,0,1,1-13.55-13.55A13.55,13.55,0,0,1,664.61,893.93Z" transform="translate(-612.5 -797.5)"/><path class="f" d="M664.61,893.36a13.55,13.55,0,1,1-13.55-13.54A13.55,13.55,0,0,1,664.61,893.36Z" transform="translate(-612.5 -797.5)"/><path class="e" d="M651.05,904.75a11.39,11.39,0,1,1,11.38-11.39A11.4,11.4,0,0,1,651.05,904.75Zm0-21.69a10.3,10.3,0,1,0,10.3,10.29A10.31,10.31,0,0,0,651.05,883.06Z" transform="translate(-612.5 -797.5)"/><path class="e" d="M654.9,893.23a6.58,6.58,0,0,0-3.13-1.39V888.6a1.75,1.75,0,0,1,1.16,1.32l2.42-.28a3.34,3.34,0,0,0-1.15-2,4.45,4.45,0,0,0-2.42-.9V886h-1.38v0.81a4.29,4.29,0,0,0-2.64,1.06,3,3,0,0,0-1,2.28,3.23,3.23,0,0,0,.87,2.29,5.54,5.54,0,0,0,2.76,1.4v3.46a2.48,2.48,0,0,1-.94-0.69,2.59,2.59,0,0,1-.58-1.14l-2.5.24a4.17,4.17,0,0,0,1.32,2.53,4.73,4.73,0,0,0,2.69,1.07v1.51h1.38v-1.54a4.92,4.92,0,0,0,2.92-1.26,3.4,3.4,0,0,0,1-2.53A3,3,0,0,0,654.9,893.23Zm-4.52-1.79a2.13,2.13,0,0,1-.93-0.61,1.28,1.28,0,0,1-.31-0.82,1.36,1.36,0,0,1,.34-0.88,1.81,1.81,0,0,1,.9-0.56v2.87Zm2.56,5.37a2.05,2.05,0,0,1-1.17.58v-3.23a2.51,2.51,0,0,1,1.25.62,1.35,1.35,0,0,1,.38,1A1.51,1.51,0,0,1,652.94,896.81Z" transform="translate(-612.5 -797.5)"/><path class="g" d="M700.44,832.52a3.24,3.24,0,0,1,3.24,3.24v37.63a3.23,3.23,0,0,1-3.24,3.24h-59.7a3.24,3.24,0,0,1-3.24-3.24V835.76a3.23,3.23,0,0,1,3.24-3.24h59.7Z" transform="translate(-612.5 -797.5)"/><g class="h"><path class="i" d="M663.78,832.52H648.11l44.12,44.12h8.21a3.23,3.23,0,0,0,3.24-3.24v-1Z" transform="translate(-612.5 -797.5)"/><path class="i" d="M648.6,876.64H688l-44.12-44.12h-3.15a3.23,3.23,0,0,0-3.24,3.24v29.78Z" transform="translate(-612.5 -797.5)"/></g><path class="j" d="M688.16,862.08a7.5,7.5,0,1,1,0-15v0.46a7,7,0,1,0,0,14.09v0.45Z" transform="translate(-612.5 -797.5)"/><path class="j" d="M688.16,862.08c-1.06,0-2-.8-2.78-2.25a13.16,13.16,0,0,1,0-10.49c0.73-1.46,1.71-2.26,2.78-2.26v0.46c-0.88,0-1.72.71-2.37,2a12.73,12.73,0,0,0,0,10.08c0.65,1.29,1.49,2,2.37,2v0.45Z" transform="translate(-612.5 -797.5)"/><rect class="j" x="75.43" y="49.8" width="0.45" height="14.54"/><path class="j" d="M688.16,862.08v-0.45c0.88,0,1.72-.71,2.37-2a12.73,12.73,0,0,0,0-10.08c-0.65-1.29-1.49-2-2.37-2v-0.46c1.06,0,2,.8,2.77,2.26a13.18,13.18,0,0,1,0,10.49C690.21,861.28,689.22,862.08,688.16,862.08Z" transform="translate(-612.5 -797.5)"/><path class="j" d="M688.16,862.08v-0.45a7,7,0,0,0,0-14.09v-0.46A7.5,7.5,0,1,1,688.16,862.08Z" transform="translate(-612.5 -797.5)"/><rect class="j" x="69.36" y="53.21" width="12.6" height="0.45"/><rect class="j" x="68.39" y="56.85" width="14.55" height="0.46"/><rect class="j" x="69.36" y="60.49" width="12.6" height="0.46"/><path class="k" d="M680,854.58a8.15,8.15,0,0,1,4.62-7.34,7.64,7.64,0,0,0-1.55-.16,7.5,7.5,0,1,0,0,15,7.64,7.64,0,0,0,1.55-.16A8.15,8.15,0,0,1,680,854.58Z" transform="translate(-612.5 -797.5)"/><rect class="k" x="31.67" y="52.71" width="11" height="8.73" rx="0.88" ry="0.88"/><rect class="l" x="31.67" y="54.87" width="11" height="4.41"/><rect class="j" x="31.67" y="70.63" width="11" height="1.32"/><rect class="j" x="45.62" y="70.63" width="11" height="1.32"/><rect class="j" x="59.56" y="70.63" width="11" height="1.32"/><rect class="j" x="73.51" y="70.63" width="11" height="1.32"/><rect class="m" x="31.67" y="40.29" width="24.94" height="3.09"/><rect class="n" x="25" y="44.81" width="66.17" height="0.62"/></g></svg>