<svg xmlns="http://www.w3.org/2000/svg" xmlns:xlink="http://www.w3.org/1999/xlink" viewBox="0 0 146.7 145"><defs><style>.a{fill:none;}.b{fill:#ff6d3b;}.c{fill:#2a445e;}.d{fill:#20364d;}.e{fill:#50667e;}.f{fill:#cee2f2;}.g{fill:#fff;}.h{fill:#b8d1e6;}.i{fill:#ffd55c;}.j{fill:#ffb733;}.k{fill:#f15424;}.l{clip-path:url(#a);}</style><clipPath id="a" transform="translate(-240.8 -427.5)"><path class="a" d="M354.78,505a17.89,17.89,0,1,1,0-25.3A17.9,17.9,0,0,1,354.78,505Z"/></clipPath></defs><title>img-data-analysis</title><circle class="b" cx="74.2" cy="72.5" r="72.5"/><path class="c" d="M356.81,522.73A2.76,2.76,0,0,1,354,525.5H276a2.76,2.76,0,0,1-2.77-2.77v-49.9a2.76,2.76,0,0,1,2.77-2.77H354a2.75,2.75,0,0,1,2.77,2.77v49.9Z" transform="translate(-240.8 -427.5)"/><circle class="d" cx="74.19" cy="44.74" r="0.94"/><circle class="e" cx="74.19" cy="44.74" r="0.38"/><path class="f" d="M366.29,527.12a8.13,8.13,0,0,1-6.15,2.81H269.86a8.12,8.12,0,0,1-6.15-2.81H366.29Z" transform="translate(-240.8 -427.5)"/><path class="g" d="M366.29,527.13H263.71V526a0.48,0.48,0,0,1,.14-0.33,0.46,0.46,0,0,1,.33-0.13H365.82a0.46,0.46,0,0,1,.47.47v1.16Z" transform="translate(-240.8 -427.5)"/><path class="h" d="M324.53,525.77a0.55,0.55,0,0,1-.55.54H306a0.54,0.54,0,0,1-.39-0.16,0.55,0.55,0,0,1-.16-0.39V525.5h19.05v0.28Z" transform="translate(-240.8 -427.5)"/><rect class="f" x="36.74" y="46.83" width="74.91" height="46.82"/><rect class="i" x="38.86" y="48.95" width="70.67" height="42.57"/><path class="j" d="M350.33,519H279.67V476.45h70.66V519Zm-70.5-.16h70.34V476.61H279.83v42.25Z" transform="translate(-240.8 -427.5)"/><rect class="j" x="38.94" y="87.51" width="70.5" height="0.16"/><rect class="j" x="38.94" y="83.65" width="70.5" height="0.16"/><rect class="j" x="38.94" y="79.8" width="70.5" height="0.16"/><rect class="j" x="38.94" y="75.95" width="70.5" height="0.16"/><rect class="j" x="38.94" y="72.08" width="70.5" height="0.16"/><rect class="j" x="38.94" y="68.23" width="70.5" height="0.16"/><rect class="j" x="38.94" y="64.37" width="70.5" height="0.16"/><rect class="j" x="38.94" y="60.52" width="70.5" height="0.16"/><rect class="j" x="38.94" y="56.66" width="70.5" height="0.16"/><rect class="j" x="38.94" y="52.8" width="70.5" height="0.16"/><rect class="j" x="104.96" y="49.03" width="0.16" height="42.41"/><rect class="j" x="100.55" y="49.03" width="0.16" height="42.41"/><rect class="j" x="96.14" y="49.03" width="0.16" height="42.41"/><rect class="j" x="91.74" y="49.03" width="0.16" height="42.41"/><rect class="j" x="87.33" y="49.03" width="0.16" height="42.41"/><rect class="j" x="82.93" y="49.03" width="0.16" height="42.41"/><rect class="j" x="78.52" y="49.03" width="0.16" height="42.41"/><rect class="j" x="74.11" y="49.03" width="0.16" height="42.41"/><rect class="j" x="69.71" y="49.03" width="0.16" height="42.41"/><rect class="j" x="65.3" y="49.03" width="0.16" height="42.41"/><rect class="j" x="60.89" y="49.03" width="0.16" height="42.41"/><rect class="j" x="56.49" y="49.03" width="0.16" height="42.41"/><rect class="j" x="52.08" y="49.03" width="0.16" height="42.41"/><rect class="j" x="47.67" y="49.03" width="0.16" height="42.41"/><rect class="j" x="43.27" y="49.03" width="0.16" height="42.41"/><polygon class="g" points="109.53 64.11 100.32 60.07 91.54 74.79 82.81 71.69 74.13 83.17 65.5 75.57 56.71 79.44 38.86 67.63 38.86 68.58 56.63 80.34 65.36 76.5 74.25 84.33 83.1 72.64 91.89 75.76 100.64 61.09 109.53 64.98 109.53 64.11"/><circle class="b" cx="74.19" cy="83.75" r="1.86"/><circle class="c" cx="100.48" cy="60.58" r="1.86"/><path class="k" d="M249,529.93a72.49,72.49,0,0,0,132.06,0H249Z" transform="translate(-240.8 -427.5)"/><rect class="g" x="356.79" y="504.37" width="4.89" height="10.23" transform="translate(-495.85 -24.26) rotate(-45)"/><rect class="d" x="368.55" y="511.69" width="8.18" height="22.41" transform="translate(-501.41 -10.83) rotate(-45)"/><rect class="e" x="376.82" y="530.43" width="9.35" height="2.64" transform="translate(-505.05 -2.12) rotate(-44.99)"/><rect class="e" x="359.11" y="512.72" width="9.35" height="2.64" transform="translate(-497.74 -19.66) rotate(-45)"/><path class="d" d="M327,477.27a21.36,21.36,0,1,0,30.22,0A21.39,21.39,0,0,0,327,477.27Z" transform="translate(-240.8 -427.5)"/><g class="l"><path class="c" d="M365.15,535.13a4.11,4.11,0,0,1-4.12,4.12H244.92a4.11,4.11,0,0,1-4.11-4.12v-74.2a4.1,4.1,0,0,1,4.11-4.11H361a4.1,4.1,0,0,1,4.12,4.11v74.2Z" transform="translate(-240.8 -427.5)"/><rect class="f" x="6.47" y="35.66" width="111.4" height="69.62"/><rect class="i" x="9.63" y="38.81" width="105.08" height="63.31"/><path class="j" d="M355.51,529.62H250.44V466.31H355.51v63.31Zm-104.84-.24h104.6V466.55H250.67v62.83Z" transform="translate(-240.8 -427.5)"/><rect class="j" x="9.75" y="96.15" width="104.84" height="0.24"/><rect class="j" x="9.75" y="90.41" width="104.84" height="0.24"/><rect class="j" x="9.75" y="84.68" width="104.84" height="0.24"/><rect class="j" x="9.75" y="78.96" width="104.84" height="0.23"/><rect class="j" x="9.75" y="73.21" width="104.84" height="0.24"/><rect class="j" x="9.75" y="67.48" width="104.84" height="0.24"/><rect class="j" x="9.75" y="61.74" width="104.84" height="0.24"/><rect class="j" x="9.75" y="56.01" width="104.84" height="0.24"/><rect class="j" x="9.75" y="50.28" width="104.84" height="0.24"/><rect class="j" x="9.75" y="44.54" width="104.84" height="0.24"/><rect class="j" x="107.92" y="38.93" width="0.24" height="63.06"/><rect class="j" x="101.37" y="38.93" width="0.24" height="63.06"/><rect class="j" x="94.81" y="38.93" width="0.24" height="63.06"/><rect class="j" x="88.26" y="38.93" width="0.24" height="63.06"/><rect class="j" x="81.71" y="38.93" width="0.24" height="63.06"/><rect class="j" x="75.16" y="38.93" width="0.24" height="63.06"/><rect class="j" x="68.6" y="38.93" width="0.24" height="63.06"/><rect class="j" x="62.05" y="38.93" width="0.24" height="63.06"/><rect class="j" x="55.5" y="38.93" width="0.24" height="63.06"/><rect class="j" x="48.95" y="38.93" width="0.24" height="63.06"/><rect class="j" x="42.39" y="38.93" width="0.24" height="63.06"/><rect class="j" x="35.84" y="38.93" width="0.24" height="63.06"/><rect class="j" x="29.29" y="38.93" width="0.24" height="63.06"/><rect class="j" x="22.73" y="38.93" width="0.24" height="63.06"/><rect class="j" x="16.18" y="38.93" width="0.24" height="63.06"/><polygon class="g" points="114.71 61.35 101.02 55.35 87.97 77.24 74.99 72.63 62.08 89.7 49.25 78.39 36.17 84.15 9.63 66.59 9.63 68.01 36.05 85.5 49.03 79.78 62.26 91.43 75.41 74.04 88.49 78.67 101.5 56.86 114.71 62.64 114.71 61.35"/><circle class="b" cx="62.17" cy="90.56" r="2.76"/><circle class="c" cx="101.26" cy="56.11" r="2.76"/></g></svg>