<svg xmlns="http://www.w3.org/2000/svg" viewBox="0 0 85.25 84.34"><defs><style>.a{fill:#b3290d;}.b{fill:#d63110;}.c{fill:#a7a9ac;}.d{fill:#f1f2f2;}.e{fill:#90a3ad;}.f{fill:#ec3611;}.g{fill:#ab382d;}.h{fill:#e64c3c;}</style></defs><title>img-open-letter</title><rect class="a" y="30.97" width="83.17" height="53.37"/><polygon class="a" points="83.17 31.15 0 31.15 41.31 0 83.17 31.15"/><polygon class="b" points="78.12 31.78 5.05 31.78 41.35 2.36 78.12 31.78"/><path class="c" d="M556.54,205.66v-4.29a7.3,7.3,0,0,0-2-5,6.45,6.45,0,0,0-9.49,0,7.3,7.3,0,0,0-2,5v4.29h13.41Z" transform="translate(-471.28 -190.75)"/><path class="d" d="M543.26,201.33c0-4.53,3.1-7,7.53-7H488.63a7.64,7.64,0,0,0-4.47,2,6.89,6.89,0,0,0-2.16,4.57h-0.12V267h61.37V201.33Z" transform="translate(-471.28 -190.75)"/><rect class="e" x="22" y="15.14" width="18.41" height="4.16"/><rect class="e" x="20.34" y="28.57" width="41.1" height="2.74"/><rect class="e" x="20.34" y="34.36" width="41.1" height="2.74"/><rect class="e" x="20.34" y="40.15" width="41.1" height="2.74"/><rect class="e" x="20.34" y="45.94" width="41.1" height="2.74"/><polygon class="f" points="41.59 57.66 83.17 84.34 83.17 30.98 41.59 57.66"/><polygon class="f" points="0 30.98 0 84.34 41.59 57.66 0 30.98"/><polygon class="g" points="0 84.34 83.17 84.34 41.59 57.66 0 84.34"/><polygon class="h" points="0 84.34 83.17 84.34 41.59 60 0 84.34"/></svg>