<svg xmlns="http://www.w3.org/2000/svg" viewBox="0 0 34.68 24.26"><defs><style>.a{fill:#3c4044;}.b{fill:#6c6e70;}.c{fill:#fff;}.d{fill:#e6625c;}.e{fill:#e8e8e8;}.f{fill:#b3e9ff;}.g{fill:#d4d6d8;}.h{fill:#f9f9f9;}</style></defs><title>img-mobile-devices-1</title><rect width="31.27" height="22.9" rx="2.18" ry="2.18"/><rect class="a" x="28.27" y="9.67" width="1.26" height="3.77" rx="0.52" ry="0.52"/><circle class="a" cx="2.36" cy="11.55" r="0.63"/><circle class="b" cx="2.36" cy="11.55" r="0.3"/><rect class="c" x="4.72" y="1.23" width="21.82" height="20.58"/><rect class="d" x="6.07" y="2.39" width="4.94" height="3.88"/><rect class="e" x="6.07" y="18.88" width="6.05" height="1.67"/><rect class="e" x="19.01" y="18.88" width="6.19" height="1.67"/><rect class="e" x="12.29" y="18.88" width="6.66" height="1.67"/><rect class="f" x="6.07" y="6.63" width="9.37" height="11.6"/><rect class="f" x="15.63" y="6.63" width="9.57" height="11.6"/><rect class="g" x="11.01" y="2.39" width="14.19" height="3.88"/><rect class="c" x="10.65" y="1.23" width="0.72" height="5.54"/><rect class="c" x="15.27" y="6.27" width="0.72" height="12.61"/><rect class="c" x="18.65" y="18.46" width="0.72" height="2.97"/><rect class="c" x="11.93" y="18.46" width="0.72" height="2.97"/><rect class="c" x="728.06" y="231.92" width="0.72" height="20.72" transform="translate(258.07 -721.79) rotate(90)"/><rect class="c" x="728.06" y="243.88" width="0.72" height="20.72" transform="translate(270.03 -709.83) rotate(90)"/><rect class="h" x="24.4" y="5.36" width="10.28" height="18.9" rx="1.32" ry="1.32"/><path class="a" d="M28.72,6.4h1.65a0.31,0.31,0,0,1,.31.31V6.85a0.32,0.32,0,0,1-.32.32H28.72a0.32,0.32,0,0,1-.32-0.32V6.72a0.32,0.32,0,0,1,.32-0.32Z"/><circle class="a" cx="29.54" cy="22.83" r="0.38"/><circle class="b" cx="29.54" cy="22.83" r="0.18"/><rect class="c" x="25.14" y="8.21" width="8.79" height="13.19"/><rect class="d" x="25.82" y="8.89" width="7.44" height="1.14"/><rect class="e" x="25.82" y="19.53" width="7.44" height="0.37"/><rect class="e" x="25.82" y="20.35" width="7.44" height="0.37"/><rect class="f" x="25.82" y="13.26" width="7.44" height="5.83"/><rect class="g" x="25.82" y="10.47" width="7.44" height="2.34"/></svg>