<svg xmlns="http://www.w3.org/2000/svg" xmlns:xlink="http://www.w3.org/1999/xlink" viewBox="0 0 146.72 150.6"><defs><style>.a{fill:#21d8de;}.b{isolation:isolate;}.c{clip-path:url(#a);}.d{fill:#50667e;}.e{fill:#2a445e;}.f{fill:#fff;}.g{fill:#cee2f2;}.h{fill:#f15424;}.i{fill:#d9c5c1;mix-blend-mode:multiply;}.j{fill:#ff6d3b;}.k{fill:#e64717;}</style><clipPath id="a"><circle class="a" cx="74.22" cy="72.5" r="72.5"/></clipPath></defs><title>img-mission</title><g class="b"><circle class="a" cx="74.22" cy="72.5" r="72.5"/><g class="c"><polygon class="d" points="103.69 91.98 64.85 150.6 142.52 150.6 103.69 91.98"/><polygon class="e" points="56.79 64.87 0 150.6 113.58 150.6 56.79 64.87"/><polygon class="d" points="56.79 64.87 0 150.6 37.08 150.6 56.79 64.87"/><rect class="f" x="55.97" y="27.76" width="1.64" height="36.52"/><rect class="g" x="55.57" y="25.33" width="2.43" height="2.43"/><rect class="g" x="55.57" y="64.28" width="2.43" height="2.43"/><polygon class="h" points="84.63 44.97 69.44 44.97 69.44 31.41 84.63 31.41 79.87 38.19 84.63 44.97"/><polygon class="i" points="73.28 31.41 69.44 31.41 69.44 44.97 75.68 44.97 73.28 31.41"/><rect class="j" x="57.61" y="28.71" width="15.19" height="13.56"/><polygon class="k" points="72.8 42.27 69.44 42.27 69.44 44.97 72.8 42.27"/></g></g></svg>