<svg xmlns="http://www.w3.org/2000/svg" viewBox="0 0 34.69 19.56"><defs><style>.a{fill:#fff;}.b{fill:#efefef;}.c{fill:#e6625c;}.d{fill:#e8e8e8;}.e{fill:#b3e9ff;}.f{fill:#d4d6d8;}.g{fill:#3c4044;}.h{fill:#6c6e70;}</style></defs><title>img-mobile-devices-2-SM</title><rect class="a" x="4.72" y="1.2" width="21.87" height="18.36"/><path class="b" d="M723.28,204.72h15.89v4.15h4.73v-3.2a2.18,2.18,0,0,0-2.18-2.18H714.81a2.19,2.19,0,0,0-2.18,2.18V223h4.72V204.72h5.93ZM715,215.67a0.63,0.63,0,1,1,.63-0.63A0.63,0.63,0,0,1,715,215.67Z" transform="translate(-712.63 -203.49)"/><rect class="c" x="6.07" y="2.39" width="4.58" height="3.88"/><rect class="d" x="6.07" y="18.95" width="5.87" height="0.61"/><rect class="d" x="19.37" y="18.95" width="5.03" height="0.61"/><rect class="d" x="12.66" y="18.95" width="6" height="0.61"/><rect class="e" x="6.07" y="6.99" width="9.21" height="11.24"/><rect class="e" x="16" y="6.99" width="8.41" height="11.24"/><path class="f" d="M724,205.88v3.88h13.12a1.32,1.32,0,0,1,.71-0.78v-3.1H724Z" transform="translate(-712.63 -203.49)"/><path class="g" d="M715,214.41a0.63,0.63,0,1,0,.63.63A0.63,0.63,0,0,0,715,214.41Zm0,0.92a0.3,0.3,0,0,1-.3-0.3,0.3,0.3,0,0,1,.59,0A0.3,0.3,0,0,1,715,215.34Z" transform="translate(-712.63 -203.49)"/><circle class="h" cx="2.37" cy="11.55" r="0.3"/><rect class="a" y="19.44" width="34.69" height="0.12"/><path d="M746,208.87h-7.65a1.29,1.29,0,0,0-1.23.89,1.29,1.29,0,0,0-.09.43V223h0.75V211.73h8.79V223h0.75V210.19A1.32,1.32,0,0,0,746,208.87Zm-2.68,1.49a0.32,0.32,0,0,1-.31.32h-1.65a0.31,0.31,0,0,1-.31-0.32v-0.13a0.31,0.31,0,0,1,.31-0.32H743a0.32,0.32,0,0,1,.31.32v0.13Z" transform="translate(-712.63 -203.49)"/><path class="a" d="M737.78,211.73V223h8.79V211.73h-8.79Zm8.12,10.87h-7.44v-5.83h7.44v5.83Zm0-6.27h-7.44V214h7.44v2.34Zm-7.44-2.79V212.4h7.44v1.14h-7.44Z" transform="translate(-712.63 -203.49)"/><rect class="c" x="25.83" y="8.92" width="7.44" height="1.14"/><rect class="e" x="25.83" y="13.28" width="7.44" height="5.83"/><rect class="f" x="25.83" y="10.5" width="7.44" height="2.34"/><rect class="g" x="28.41" y="6.43" width="2.28" height="0.76" rx="0.32" ry="0.32"/></svg>