<svg xmlns="http://www.w3.org/2000/svg" viewBox="0 0 60 51.02"><defs><style>.a{isolation:isolate;}.b,.c{fill:#ff7059;}.c{mix-blend-mode:screen;}</style></defs><title>img-shiny-heart</title><g class="a"><path class="b" d="M443.17,56.81c-8.93-11.59-26.5-4.75-26.5,7,0-11.77-17.57-18.61-26.5-7-9.23,12-.13,33,26.5,45C443.3,89.8,452.4,68.8,443.17,56.81Z" transform="translate(-386.67 -50.83)"/><path class="c" d="M393.7,64.05a1.52,1.52,0,0,1-.62-0.13,1.5,1.5,0,0,1-.74-2,11.87,11.87,0,0,1,1.4-2.37A10.19,10.19,0,0,1,402,55.33a10,10,0,0,1,1.18.08,1.5,1.5,0,1,1-.33,3,7.75,7.75,0,0,0-.85-0.05,7.29,7.29,0,0,0-5.93,3.06,8.82,8.82,0,0,0-1,1.79A1.5,1.5,0,0,1,393.7,64.05Z" transform="translate(-386.67 -50.83)"/><path class="c" d="M393.21,72.87a1.5,1.5,0,0,1-1.45-1.12l-0.05-.19a17.57,17.57,0,0,1-.52-3.79,1.5,1.5,0,0,1,3-.08,14.55,14.55,0,0,0,.44,3.14l0,0.15a1.5,1.5,0,0,1-1.07,1.83A1.53,1.53,0,0,1,393.21,72.87Z" transform="translate(-386.67 -50.83)"/></g></svg>