<svg xmlns="http://www.w3.org/2000/svg" xmlns:xlink="http://www.w3.org/1999/xlink" viewBox="0 0 156.88 145"><defs><style>.a{fill:#e1effa;}.b{isolation:isolate;}.c{clip-path:url(#a);}.d{fill:#50667e;}.e{fill:#ff6d3b;}.f{fill:#ffd55c;}.g{fill:#fff;}.h{fill:#d2d6d9;mix-blend-mode:multiply;}</style><clipPath id="a" transform="translate(-57.5 -242.5)"><circle class="a" cx="130" cy="315" r="72.5"/></clipPath></defs><title>img-targeting</title><g class="b"><circle class="a" cx="72.5" cy="72.5" r="72.5"/><g class="c"><polygon class="d" points="48.42 143.21 59.45 114.71 51.48 111.62 39.24 143.21 48.42 143.21"/><polygon class="d" points="105.74 143.21 93.52 111.62 85.52 114.71 96.55 143.21 105.74 143.21"/><path class="e" d="M130,364.78A49.79,49.79,0,1,1,179.79,315,49.84,49.84,0,0,1,130,364.78Z" transform="translate(-57.5 -242.5)"/><path class="f" d="M130,348.19A33.19,33.19,0,1,1,163.19,315,33.22,33.22,0,0,1,130,348.19Z" transform="translate(-57.5 -242.5)"/><path class="g" d="M130,331.6A16.6,16.6,0,1,1,146.59,315,16.62,16.62,0,0,1,130,331.6Z" transform="translate(-57.5 -242.5)"/><path class="h" d="M131,314A1.47,1.47,0,0,0,129,316l35.16,35.16q1.07-1,2.07-2.07Z" transform="translate(-57.5 -242.5)"/></g><polygon class="e" points="155.41 79.92 148 72.5 155.42 65.09 156.88 66.55 150.93 72.5 156.88 78.45 155.41 79.92"/><polygon class="e" points="150.03 79.91 142.61 72.5 150.03 65.08 151.49 66.54 145.54 72.49 151.49 78.44 150.03 79.91"/><polygon class="e" points="144.66 79.92 137.24 72.5 144.66 65.09 146.11 66.55 140.16 72.5 146.12 78.45 144.66 79.92"/><path class="d" d="M212.68,313.54H130a1.47,1.47,0,1,0,0,2.94h82.68v-2.93Z" transform="translate(-57.5 -242.5)"/></g></svg>