<svg xmlns="http://www.w3.org/2000/svg" viewBox="0 0 86.78 80.53"><defs><style>.a{fill:#efece3;}.b{fill:#0d2038;}.c{fill:#9fdafc;}.d{fill:#a8bab9;}.e{fill:#fff;}.f{fill:#102947;}.g{opacity:0.2;}.h{fill:#e85100;}.i{fill:#c44429;}.j{fill:#e6e6e6;}.k{fill:#e64f30;}</style></defs><title>img-store-front</title><rect class="a" x="3.52" y="24.08" width="79.34" height="56.45"/><rect class="b" x="3.6" y="73.06" width="79.33" height="7.47"/><rect class="c" x="12.55" y="28.32" width="64.98" height="41.02"/><path class="d" d="M261.52,551.26H193.3V508.74h68.22v42.52Zm-64.66-1.67h62.87V510.66H196.85v38.93Z" transform="translate(-182.77 -479.85)"/><path class="e" d="M193.25,506.32v44.19h67.61V506.32H193.25Zm2.64,41.2V509.31h62.34v38.21H195.88Z" transform="translate(-182.77 -479.85)"/><path class="f" d="M199.86,525.31l21.21-19.2,26.7,5.25Zm21.52-18.13-17.69,16,41.13-11.58Z" transform="translate(-182.77 -479.85)"/><path class="g" d="M265.63,528.23v32.15H217.51c-5-4.9-9.1-8.87-9.1-8.87l-7.88-28,47.37-13.34S256.49,519,265.63,528.23Z" transform="translate(-182.77 -479.85)"/><polygon class="e" points="73.02 58.31 36.82 68.5 25.64 71.65 17.77 43.66 65.14 30.32 69.24 44.89 73.02 58.31"/><path class="d" d="M208.71,551.92l-8-28.48,47.68-13.39,8,28.47Zm-6.82-27.8,7.5,26.58,45.78-12.86-7.51-26.58Z" transform="translate(-182.77 -479.85)"/><path class="h" d="M208.07,552.13l-8.15-29,48.33-13.61,8.15,29Zm-6.92-28.27,7.61,27,46.41-13.07-7.61-27Z" transform="translate(-182.77 -479.85)"/><path class="h" d="M207.34,536.9a4.9,4.9,0,0,1,3.69-6.61,5.41,5.41,0,0,1,4.21.26,5.23,5.23,0,0,1,2.4,3.36,6.38,6.38,0,0,1,.22,3,4.36,4.36,0,0,1-1.21,2.22,5.82,5.82,0,0,1-2.59,1.4,6.61,6.61,0,0,1-2.94.25,4.37,4.37,0,0,1-2.27-1.19A5.86,5.86,0,0,1,207.34,536.9Zm3.08-.85a3.47,3.47,0,0,0,1.17,2,2.2,2.2,0,0,0,3.07-.85,3.83,3.83,0,0,0-.11-2.47,3.2,3.2,0,0,0-1.15-1.9,2,2,0,0,0-1.72-.21,2,2,0,0,0-1.31,1.08A3.48,3.48,0,0,0,210.42,536Z" transform="translate(-182.77 -479.85)"/><path class="h" d="M217.9,528.54L223,527.1a3.63,3.63,0,0,1,2.73.09,3.1,3.1,0,0,1,1.47,2,3.19,3.19,0,0,1-.24,2.61,4.09,4.09,0,0,1-2.53,1.63l-1.69.47,1,3.7-3.09.87Zm4.29,3.38,0.75-.21a2,2,0,0,0,1.16-.66,1,1,0,0,0,.14-0.89,1.15,1.15,0,0,0-.54-0.71,1.68,1.68,0,0,0-1.27,0l-0.88.25Z" transform="translate(-182.77 -479.85)"/><path class="h" d="M228,525.71l8.25-2.32,0.6,2.13L231.64,527l0.45,1.58,4.79-1.35,0.57,2-4.79,1.35,0.55,2,5.31-1.5,0.63,2.26-8.4,2.37Z" transform="translate(-182.77 -479.85)"/><path class="h" d="M238,522.87l2.88-.81,5.3,4.46L244.66,521l2.9-.82,2.81,10-2.9.82-5.27-4.42,1.54,5.47-2.9.81Z" transform="translate(-182.77 -479.85)"/><path class="g" d="M186.29,497.7v14.17a7.19,7.19,0,0,0,2.83.57c3.24,0,5.89-2.06,6.17-4.69,0.27,2.63,2.93,4.69,6.17,4.69,3.41,0,6.19-2.29,6.19-5.13,0,2.83,2.77,5.13,6.19,5.13s6.19-2.29,6.19-5.13c0,2.83,2.78,5.13,6.2,5.13s6.19-2.29,6.19-5.13c0,2.83,2.77,5.13,6.19,5.13,3.24,0,5.9-2.06,6.17-4.69,0.27,2.63,2.92,4.69,6.17,4.69,3.42,0,6.19-2.29,6.19-5.13,0,2.83,2.77,5.13,6.19,5.13a7.31,7.31,0,0,0,2.32-.37V497.7H186.29Z" transform="translate(-182.77 -479.85)"/><ellipse class="i" cx="6.21" cy="24.6" rx="6.19" ry="5.13"/><path class="j" d="M207.52,504.46c0,2.83-2.77,5.13-6.19,5.13s-6.19-2.3-6.19-5.13,2.77-5.13,6.19-5.13S207.52,501.62,207.52,504.46Z" transform="translate(-182.77 -479.85)"/><ellipse class="i" cx="30.96" cy="24.6" rx="6.19" ry="5.13"/><ellipse class="j" cx="43.39" cy="24.6" rx="6.19" ry="5.13"/><ellipse class="i" cx="55.77" cy="24.56" rx="6.19" ry="5.13"/><ellipse class="j" cx="68.16" cy="24.56" rx="6.19" ry="5.13"/><path class="i" d="M269.5,504.42c0,2.83-2.77,5.13-6.19,5.13s-6.19-2.3-6.19-5.13,2.77-5.13,6.19-5.13S269.5,501.58,269.5,504.42Z" transform="translate(-182.77 -479.85)"/><path class="k" d="M195.18,504.42H182.77c0.48-5.72,5.54-12.83,12.18-18.54h9.36C199.46,491.59,195.66,498.7,195.18,504.42Z" transform="translate(-182.77 -479.85)"/><path class="e" d="M207.53,504.42h-12.4c0.49-5.72,4.29-12.83,9.14-18.54h9.36C210.56,491.59,208,498.7,207.53,504.42Z" transform="translate(-182.77 -479.85)"/><path class="k" d="M219.94,504.42H207.53c0.5-5.72,3-12.83,6.1-18.54H223A153.93,153.93,0,0,0,219.94,504.42Z" transform="translate(-182.77 -479.85)"/><path class="e" d="M232.34,504.42h-12.4a153.93,153.93,0,0,1,3-18.54h9.36A112.61,112.61,0,0,1,232.34,504.42Z" transform="translate(-182.77 -479.85)"/><path class="k" d="M244.74,504.42h-12.4a112.61,112.61,0,0,0,0-18.54h9.36A42.76,42.76,0,0,1,244.74,504.42Z" transform="translate(-182.77 -479.85)"/><path class="e" d="M257.1,504.42h-12.4a42.91,42.91,0,0,0-3-18.54H251C255.1,491.59,257.63,498.7,257.1,504.42Z" transform="translate(-182.77 -479.85)"/><path class="k" d="M269.5,504.42H257.1c0.53-5.72-2-12.83-6.08-18.54h9.36C266.24,491.59,270,498.7,269.5,504.42Z" transform="translate(-182.77 -479.85)"/><rect class="h" x="12.18" width="9.36" height="6.02"/><rect class="e" x="21.53" width="9.36" height="6.02"/><rect class="h" x="30.86" width="9.36" height="6.02"/><rect class="e" x="40.22" width="9.35" height="6.02"/><rect class="h" x="49.53" width="9.36" height="6.02"/><rect class="h" x="68.25" width="9.36" height="6.02"/><rect class="e" x="58.89" width="9.36" height="6.02"/></svg>