<svg xmlns="http://www.w3.org/2000/svg" viewBox="0 0 133.23 133.23"><defs><style>.a{fill:#a5c3d1;}.a,.b,.c,.d,.e,.f,.g,.h,.i{fill-rule:evenodd;}.b{fill:#d1d3d4;}.c{fill:#231f20;}.d{fill:#ebc790;}.e{fill:#cf9e35;}.f{fill:#fff;}.g{fill:#e6e7e8;}.h{fill:#58595b;}.i{fill:#f7eede;}</style></defs><title>img-avatar-slug-1</title><polygon class="a" points="0 133.23 133.23 133.23 133.23 0 0 0 0 133.23 0 133.23"/><path class="b" d="M29.42,99.76h74.4a24.87,24.87,0,0,1,24.8,24.8v8.67H4.62v-8.67a24.87,24.87,0,0,1,24.8-24.8Z"/><polygon class="c" points="29.42 99.77 44.94 99.77 66.61 130.1 88.29 99.77 103.81 99.77 103.81 133.23 29.42 133.23 29.42 99.77 29.42 99.77"/><path class="d" d="M59.85,28.39A15.82,15.82,0,0,0,44.08,44.17V74A22.6,22.6,0,0,0,66.61,96.57h0A22.6,22.6,0,0,0,89.15,74V44.17A15.82,15.82,0,0,0,73.37,28.39Z"/><path class="e" d="M84.86,87.22V94.1L66.61,108.27,48.37,94.1V87.22a22.54,22.54,0,0,0,18.24,9.35h0a22.54,22.54,0,0,0,18.24-9.35Z"/><path class="e" d="M41.19,47.71h2.9V67.13A5.83,5.83,0,0,1,40,62L38.54,50.36a2.55,2.55,0,0,1,2.65-2.65Z"/><polygon class="f" points="84.86 94.09 88.29 99.77 76.65 116.06 66.61 108.27 84.86 94.09 84.86 94.09"/><polygon class="g" points="48.37 94.09 44.94 99.77 53.75 118.9 66.61 108.27 48.37 94.09 48.37 94.09"/><path class="g" d="M66.61,99.76h37.2a24.87,24.87,0,0,1,24.8,24.8v8.67h-62V99.76Z"/><polygon class="h" points="66.61 130.1 88.29 99.77 103.81 99.77 103.81 133.23 66.61 133.23 66.61 130.1 66.61 130.1"/><path class="i" d="M66.61,93.74A22.6,22.6,0,0,0,89.15,71.21v-27A15.82,15.82,0,0,0,73.37,28.39H66.61V93.74Z"/><path class="d" d="M84.86,90.06v4L66.61,108.27V99.41a22.54,22.54,0,0,0,18.24-9.35Z"/><path class="d" d="M92,47.71h-2.9V67.13A5.83,5.83,0,0,0,93.22,62l1.47-11.62A2.55,2.55,0,0,0,92,47.71Z"/><polygon class="f" points="84.86 94.09 88.29 99.77 79.48 118.9 66.61 108.27 84.86 94.09 84.86 94.09"/><polygon class="b" points="66.61 108.27 76.42 116.37 74.62 118.9 66.61 108.27 66.61 108.27"/><polygon class="c" points="76.42 116.37 79.48 118.9 74.62 118.9 76.42 116.37 76.42 116.37"/><path class="h" d="M66.61,14.22h6.76C89.87,14.22,92,27.67,92,44.17v3.54L89.15,61.88c-2.52-12.6,2.73-33.49-15.77-33.49H66.61V14.22Z"/><path class="c" d="M66.61,14.22H59.86c-16.5,0-18.61,13.45-18.61,29.94v3.54l2.83,14.17c2.52-12.6-2.73-33.49,15.77-33.49h6.76V14.22Z"/></svg>