<svg xmlns="http://www.w3.org/2000/svg" viewBox="0 0 133.23 133.23"><defs><style>.a{fill:#54808e;}.a,.b,.c,.d,.e,.f,.g,.h,.i,.j{fill-rule:evenodd;}.b{fill:#006587;}.c{fill:#009ec8;}.d{fill:#ebc790;}.e{fill:#d27431;}.f{fill:#cf9e35;}.g{fill:#f7eede;}.h{fill:#9ccde2;}.i{fill:#e2f4fd;}.j{fill:#c28f38;}</style></defs><title>img-avatar-slug-11</title><polygon class="a" points="0 133.23 133.23 133.23 133.23 0 0 0 0 133.23 0 133.23"/><path class="b" d="M39.34,99.76H93.89a24.87,24.87,0,0,1,24.8,24.8v8.67H14.54v-8.67a24.87,24.87,0,0,1,24.8-24.8Z"/><path class="c" d="M66.62,99.76H93.89a24.87,24.87,0,0,1,24.8,24.8v8.67H66.62V99.76Z"/><path class="d" d="M66.62,32.88c-14.86,0-27,10.32-27,22.93v23c0,15.45,17.82,25.76,27,25.76s27-10.37,27-25.76v-23c0-12.56-12.23-22.93-27-22.93Z"/><path class="e" d="M34.45,63.87a6.48,6.48,0,0,1,5.15.82V78.84a20,20,0,0,0,.54,4.62c-3-.12-5.91-3-7.65-7.29-2.14-5.31-1-11.18,2-12.29Z"/><path class="f" d="M83.75,97.32,66.61,115.94,49.48,97.36C55.12,102,62,104.6,66.61,104.6s11.49-2.66,17.14-7.29Z"/><path class="g" d="M66.62,101.77c9.12,0,27-10.37,27-25.76V55.8c0-12.56-12.23-22.93-27-22.93v68.89Z"/><path class="d" d="M98.78,63.87a6.48,6.48,0,0,0-5.15.82V78.84a20,20,0,0,1-.54,4.62c3-.12,5.91-3,7.65-7.29,2.14-5.31,1-11.18-2-12.29Z"/><path class="d" d="M83.75,97.32,66.62,115.94v-8.5c4.62,0,11.38-3.86,17.14-10.12Z"/><polygon class="h" points="66.61 115.94 56.3 128.41 42.17 99.77 49.48 97.36 66.61 115.94 66.61 115.94"/><polygon class="i" points="66.61 115.94 76.93 128.41 91.05 99.77 83.75 97.36 66.61 115.94 66.61 115.94 66.61 115.94"/><path class="j" d="M66.62,15.87C89.09,15.87,99.3,29.43,99.3,53V64.13a3.06,3.06,0,0,0-.52-.26,6.48,6.48,0,0,0-5.15.82V55.8c0-12.56-16.05-7.19-27-22.93C60.14,48,39.6,43.19,39.6,55.8V64.7a6.48,6.48,0,0,0-5.15-.82,3.06,3.06,0,0,0-.52.26V53c0-23.61,10.14-37.1,32.68-37.1Z"/><path class="f" d="M66.62,15.87C89.09,15.87,99.3,29.43,99.3,53V64.13a3.06,3.06,0,0,0-.52-.26,6.48,6.48,0,0,0-5.15.82V55.8c0-12.56-16.05-7.19-27-22.93v-17Z"/></svg>