<svg xmlns="http://www.w3.org/2000/svg" viewBox="0 0 133.23 133.23"><defs><style>.a{fill:#acd8cf;}.a,.b,.c,.d,.e,.f,.g,.h{fill-rule:evenodd;}.b{fill:#ebc790;}.c{fill:#cf9e35;}.d{fill:#f7eede;}.e{fill:#004c3f;}.f{fill:#006555;}.g{fill:#fff;}.h{fill:#00362a;}</style></defs><title>img-avatar-slug-7</title><polygon class="a" points="0 133.23 133.23 133.23 133.23 0 0 0 0 133.23 0 133.23"/><path class="b" d="M66.62,23.87A21.68,21.68,0,0,0,45,45.49V72.71c0,6.22,9.73,21.62,21.62,21.62S88.23,78.88,88.23,72.71V45.49A21.75,21.75,0,0,0,66.62,23.87Z"/><path class="c" d="M82.94,84.5v48.73H50.29V84.55c4,5.19,9.82,9.78,16.32,9.78S79,89.7,82.94,84.5Z"/><path class="d" d="M66.62,23.87h0V91.5C78.45,91.5,88.23,76,88.23,69.88V45.49A21.75,21.75,0,0,0,66.62,23.87Z"/><path class="b" d="M82.94,87.34v45.89H66.61V97.17c6.48,0,12.34-4.63,16.32-9.83Z"/><path class="e" d="M29.42,99.76H43.94l11.34,33.46H4.62v-8.67a24.87,24.87,0,0,1,24.8-24.8Zm59.88,0h14.52a24.87,24.87,0,0,1,24.8,24.8v8.67H78L89.29,99.76Z"/><path class="d" d="M67.29,15.13c18.88.07,32.61,14.93,32.61,31.46,0,9.07,7.43,34.7,7.43,43.77,0,7.67-4,21.35.17,42.86H87a62.67,62.67,0,0,1-4.13-22.62h0v-26c3.11-4,5.08-8.42,5.34-11.27,0-.2,0-.4,0-.61.17-4.11-7.94-11.42-9.55-18.15-3.21-13.5-10.54-28.53-24.14-27A21.64,21.64,0,0,0,45,45.49V72.71c0,3.67,3.38,10.53,8.6,15.54,5,19.54-.9,22.64,1.62,45H35.05c9.16-18.42-1.87-52.87.19-61.76,4.09-17.65-3.06-39.57,17.54-48.56,1.73-6,8.81-7.77,14.51-7.77Z"/><path class="f" d="M89.29,99.76h14.52a24.87,24.87,0,0,1,24.8,24.8v8.67H78L89.29,99.76Z"/><path class="g" d="M67.29,15.13c18.88.07,32.61,14.93,32.61,31.46,0,9.07,7.43,34.7,7.43,43.77,0,7.67-4,21.35.17,42.86H87a62.67,62.67,0,0,1-4.13-22.62h0v-26c3.11-4,5.08-8.42,5.34-11.27,0-.2,0-.4,0-.61.17-4.11-7.94-11.42-9.55-18.15-3.21-13.5-10.54-28.53-24.14-27L52.78,22.9c1.73-6,8.81-7.77,14.51-7.77Z"/><path class="h" d="M37.92,99.76c1.27,11.76,1.59,24.5-2.87,33.46H29.38c3.39-6.81,7.13-16.8,7.29-33.46Z"/></svg>