<svg xmlns="http://www.w3.org/2000/svg" viewBox="0 0 133.23 133.23"><defs><style>.a{fill:#939598;}.a,.b,.c,.d,.e,.f,.g,.h,.i,.j,.k,.l,.m,.n,.o{fill-rule:evenodd;}.b{fill:#bcbec0;}.c{fill:#e6e7e8;}.d{fill:#341113;}.e{fill:#fff;}.f{fill:#a7a9ac;}.g{fill:#551513;}.h{fill:#54808e;}.i{fill:#acd8cf;}.j{fill:#cf9e35;}.k{fill:#ebc790;}.l{fill:#c28f38;}.m{fill:#f7eede;}.n{fill:#d1d3d4;}.o{fill:#a5c3d1;}</style></defs><title>img-avatar-slug-2</title><polygon class="a" points="133.23 133.23 0 133.23 0 0 133.23 0 133.23 133.23 133.23 133.23"/><polygon class="b" points="44.94 99.77 66.61 108.27 66.61 133.23 54.68 133.23 44.94 99.77 44.94 99.77"/><polygon class="c" points="66.61 108.27 88.29 99.77 78.55 133.23 66.61 133.23 66.61 108.27 66.61 108.27"/><path class="d" d="M29.42,99.76H44.94l9.74,33.46H4.62v-8.67a24.87,24.87,0,0,1,24.8-24.8Z"/><polygon class="e" points="84.86 94.09 88.29 99.77 76.65 116.06 66.61 108.27 84.86 94.09 84.86 94.09"/><polygon class="f" points="48.37 96.93 44.94 102.6 51.33 121.73 66.61 111.1 48.37 96.93 48.37 96.93"/><path class="g" d="M88.29,99.76h15.52a24.87,24.87,0,0,1,24.8,24.8v8.67H78.55l9.74-33.46Z"/><polygon class="e" points="84.86 94.09 88.29 99.77 79.48 118.9 66.61 108.27 84.86 94.09 84.86 94.09"/><polygon class="b" points="66.61 108.27 79.48 118.9 78.12 121.86 66.61 108.27 66.61 108.27"/><polygon class="h" points="66.61 108.27 58.39 115.06 63.78 120.73 60.35 133.23 66.61 133.23 66.61 108.27 66.61 108.27"/><polygon class="i" points="66.61 108.27 74.84 115.06 69.45 120.73 72.88 133.23 66.61 133.23 66.61 108.27 66.61 108.27"/><polygon class="h" points="66.61 108.27 74.84 115.06 73.53 116.44 66.61 108.27 66.61 108.27"/><polygon class="d" points="88.29 99.77 94.6 99.77 99.86 108.34 92.43 114.46 99.57 115.11 89.41 133.23 78.55 133.23 88.29 99.77 88.29 99.77"/><polygon class="g" points="44.94 99.77 38.63 99.77 33.37 108.34 40.8 114.46 33.66 115.11 43.82 133.23 54.68 133.23 44.94 99.77 44.94 99.77"/><polygon class="c" points="48.37 94.09 44.94 99.77 53.75 118.9 66.61 108.27 48.37 94.09 48.37 94.09"/><path class="j" d="M84.86,90.71V94.1L66.61,108.27,48.37,94.1V90.71a14.23,14.23,0,0,0,8.7,3H76.16a14.23,14.23,0,0,0,8.7-3Z"/><path class="k" d="M52.29,22.37H80.93a9.58,9.58,0,0,1,9.55,9.55V79.36A14.36,14.36,0,0,1,76.16,93.68H57.07A14.36,14.36,0,0,1,42.75,79.36V31.92a9.58,9.58,0,0,1,9.55-9.55Z"/><path class="b" d="M52.29,11H80.93c11.51,0,15.22,9.38,15.22,20.89V53.45H90.48V31.92a9.58,9.58,0,0,0-9.55-9.55c-4.77,0-9.55,2.83-14.32,2.83s-9.55-2.83-14.32-2.83a9.58,9.58,0,0,0-9.55,9.55V53.45H37.08V31.92C37.08,20.41,40.78,11,52.29,11Z"/><path class="l" d="M42.75,53.45h-6a3.92,3.92,0,0,0-4,4l1.1,11.22c.27,2.76,2.48,6.09,5,5l3.94-1.62V53.45Z"/><path class="k" d="M84.86,93.55v.55L66.61,108.27V96.51h9.55a14.23,14.23,0,0,0,8.7-3Z"/><path class="m" d="M66.61,22.37H80.93a9.58,9.58,0,0,1,9.55,9.55V76.52A14.36,14.36,0,0,1,76.16,90.84H66.61V22.37Z"/><path class="n" d="M66.61,11H80.93c11.51,0,15.22,9.38,15.22,20.89V53.45H90.48V31.92a9.58,9.58,0,0,0-9.55-9.55c-4.77,0-9.55,2.83-14.32,2.83V11Z"/><path class="k" d="M90.48,53.45h6a3.92,3.92,0,0,1,4,4L99.46,68.7c-.27,2.76-2.48,6.09-5,5l-3.94-1.62V53.45Z"/><path class="d" d="M45.28,47.27H59.55a5.38,5.38,0,0,1,5.37,5.37v6.13a5.49,5.49,0,0,1-5,5.35L48.16,65.58c-4.54.57-8.25-3.5-8.25-7.88V52.63a5.38,5.38,0,0,1,5.37-5.37Zm0,2.83H59.55a2.54,2.54,0,0,1,2.53,2.53v6.13a2.67,2.67,0,0,1-2.53,2.53L47.81,62.77c-2.76.35-5.07-2.28-5.07-5.07V52.63a2.54,2.54,0,0,1,2.53-2.53Z"/><path class="g" d="M87.95,47.27H73.67a5.38,5.38,0,0,0-5.37,5.37v6.13a5.49,5.49,0,0,0,5,5.35l11.74,1.47c4.54.57,8.25-3.5,8.25-7.88V52.63a5.38,5.38,0,0,0-5.37-5.37Zm0,2.83H73.67a2.54,2.54,0,0,0-2.53,2.53v6.13a2.67,2.67,0,0,0,2.53,2.53l11.74,1.47c2.76.35,5.07-2.28,5.07-5.07V52.63a2.54,2.54,0,0,0-2.53-2.53Z"/><path class="n" d="M87.95,50.1H73.67a2.54,2.54,0,0,0-2.53,2.53v6.13a2.67,2.67,0,0,0,2.53,2.53l11.74,1.47c2.76.35,5.07-2.28,5.07-5.07V52.63a2.54,2.54,0,0,0-2.53-2.53Z"/><path class="o" d="M45.28,50.1H59.55a2.54,2.54,0,0,1,2.53,2.53v6.13a2.67,2.67,0,0,1-2.53,2.53L47.81,62.77c-2.76.35-5.07-2.28-5.07-5.07V52.63a2.54,2.54,0,0,1,2.53-2.53Z"/><path class="m" d="M59.25,52.94v5.54h0l-2.37.3-4-5.85Z"/><path class="e" d="M80.81,52.94v6.4l5,.62c1.09.14,1.88-1.31,1.88-2.25V52.94Z"/></svg>