<svg xmlns="http://www.w3.org/2000/svg" viewBox="0 0 133.23 133.23"><defs><style>.a{fill:#ebc790;}.a,.b,.c,.d,.e,.f,.g,.h,.i{fill-rule:evenodd;}.b{fill:#00192b;}.c{fill:#54808e;}.d{fill:#231f20;}.e{fill:#d27431;}.f{fill:#971421;}.g{fill:#c73326;}.h{fill:#58595b;}.i{fill:#cf9e35;}</style></defs><title>img-avatar-slug-10</title><polygon class="a" points="133.23 133.23 0 133.23 0 0 133.23 0 133.23 133.23 133.23 133.23"/><path class="b" d="M29.42,102.6h74.4a24.87,24.87,0,0,1,24.8,24.8v5.83H4.62V127.4a24.87,24.87,0,0,1,24.8-24.8Z"/><path class="c" d="M66.61,102.6h37.2a24.87,24.87,0,0,1,24.8,24.8v5.83h-62V102.6Z"/><path class="d" d="M41.25,54.85V40.33c0-13.37,5.24-27.11,18.61-27.11H73.37C86.74,13.22,92,27,92,40.33V54.85a5,5,0,0,0-2.83-.56v5.88h0V40.33A15.82,15.82,0,0,0,73.37,24.56H59.85A15.82,15.82,0,0,0,44.08,40.33v14a5,5,0,0,0-2.83.56Z"/><path class="e" d="M44.08,75.35a22.53,22.53,0,1,0,45.06,0q0-17.51,0-35A15.82,15.82,0,0,0,73.37,24.56H59.85A15.82,15.82,0,0,0,44.08,40.33v35Z"/><path class="d" d="M52,92.44a22.36,22.36,0,0,0,29.36-.11V75.89c0-5.83-4.39-10.61-9.75-10.61H61.73c-5.36,0-9.75,4.77-9.75,10.61V92.44ZM61.73,71h9.86c3.8,0,6.91,3.5,6.91,7.77v1.92c0,4.27-3.11,7.77-6.91,7.77H61.73c-3.8,0-6.91-3.5-6.91-7.77V78.73c0-4.28,3.11-7.77,6.91-7.77Z"/><path class="e" d="M89.15,54.29c4.56-.4,6.93,4.69,5.71,9.58-1.61,6.42-1.1,9.56-5.71,10.14V54.29Z"/><path class="f" d="M44.08,54.29c-4.56-.4-6.93,4.69-5.71,9.58C40,70.29,39.48,73.42,44.08,74V54.29Z"/><path class="g" d="M86,86.81c0,10.63,1.69,15.79,7.44,15.79a26.79,26.79,0,0,1-53.57,0c5.73,0,7.44-5.12,7.44-15.74a22.46,22.46,0,0,0,38.69,0Z"/><path class="h" d="M66.61,13.22h6.76C86.74,13.22,92,27,92,40.33V54.85a5,5,0,0,0-2.83-.56v5.88h0V40.33A15.82,15.82,0,0,0,73.37,24.56H66.61V13.22Z"/><path class="i" d="M66.61,95A22.67,22.67,0,0,0,89.14,72.51c0-11.67,0-20.51,0-32.18A15.82,15.82,0,0,0,73.37,24.56H66.61V95Z"/><path class="h" d="M66.61,97.88a22.4,22.4,0,0,0,14.72-5.55V75.89c0-5.83-4.39-10.61-9.75-10.61h-5V71h5c3.8,0,6.91,3.5,6.91,7.77v1.92c0,4.27-3.11,7.77-6.91,7.77h-5v9.45Z"/><path class="e" d="M86,89.64c.4,7.85,1.69,13,7.44,13a26.79,26.79,0,0,1-26.79,26.78V100.71A22.64,22.64,0,0,0,86,89.64Z"/></svg>