<svg xmlns="http://www.w3.org/2000/svg" viewBox="0 0 133.23 133.23"><defs><style>.a{fill:#ebc790;}.a,.b,.c,.d,.e,.f,.g,.h,.i,.j,.k,.l,.m,.n{fill-rule:evenodd;}.b{fill:#bcbec0;}.c{fill:#e6e7e8;}.d{fill:#231f20;}.e{fill:#cf9e35;}.f{fill:#fff;}.g{fill:#a7a9ac;}.h{fill:#58595b;}.i{fill:#f7eede;}.j{fill:#6d6e71;}.k{fill:#808285;}.l{fill:#971421;}.m{fill:#d20043;}.n{fill:#414042;}</style></defs><title>img-avatar-slug-4</title><polygon class="a" points="0 133.23 133.23 133.23 133.23 0 0 0 0 133.23 0 133.23"/><polygon class="b" points="44.94 99.77 66.61 108.27 66.61 133.23 54.68 133.23 44.94 99.77 44.94 99.77"/><polygon class="c" points="66.61 108.27 88.29 99.77 78.55 133.23 66.61 133.23 66.61 108.27 66.61 108.27"/><path class="d" d="M29.42,99.76H44.94l9.74,33.46H4.62v-8.67a24.87,24.87,0,0,1,24.8-24.8Z"/><path class="a" d="M59.85,28.39A15.82,15.82,0,0,0,44.08,44.17V74A22.6,22.6,0,0,0,66.61,96.57h0A22.6,22.6,0,0,0,89.15,74V44.17A15.82,15.82,0,0,0,73.37,28.39Z"/><path class="e" d="M84.86,87.22V94.1L66.61,108.27,48.37,94.1V87.22a22.54,22.54,0,0,0,18.24,9.35h0a22.54,22.54,0,0,0,18.24-9.35Z"/><path class="e" d="M41.19,47.71h2.9V67.13A5.83,5.83,0,0,1,40,62L38.54,50.36a2.55,2.55,0,0,1,2.65-2.65Z"/><polygon class="f" points="84.86 94.09 88.29 99.77 76.65 116.06 66.61 108.27 84.86 94.09 84.86 94.09"/><polygon class="g" points="48.37 96.93 44.94 102.6 51.33 121.73 66.61 111.1 48.37 96.93 48.37 96.93"/><path class="h" d="M88.29,99.76h15.52a24.87,24.87,0,0,1,24.8,24.8v8.67H78.55l9.74-33.46Z"/><path class="i" d="M66.61,93.74A22.6,22.6,0,0,0,89.15,71.21v-27A15.82,15.82,0,0,0,73.37,28.39H66.61V93.74Z"/><path class="a" d="M84.86,90.06v4L66.61,108.27V99.41a22.54,22.54,0,0,0,18.24-9.35Z"/><path class="i" d="M92,47.71h-2.9V67.13A5.83,5.83,0,0,0,93.22,62l1.47-11.62A2.55,2.55,0,0,0,92,47.71Z"/><polygon class="f" points="84.86 94.09 88.29 99.77 79.48 118.9 66.61 108.27 84.86 94.09 84.86 94.09"/><polygon class="b" points="66.61 108.27 79.48 118.9 78.12 121.86 66.61 108.27 66.61 108.27"/><path class="h" d="M66.61,14.22h6.76C89.87,14.22,92,27.67,92,44.17v3.54L89.15,61.88c-2.52-12.6,2.73-33.49-15.77-33.49H66.61V14.22Z"/><path class="d" d="M66.61,14.22H59.86c-16.5,0-18.61,13.45-18.61,29.94v3.54l2.83,14.17c2.52-12.6-2.73-33.49,15.77-33.49h6.76V14.22Z"/><path class="j" d="M44.08,74A22.6,22.6,0,0,0,66.61,96.57h0A22.6,22.6,0,0,0,89.15,74V67.13l-8.68,9.75-5.67-5.67H58.26l-5.67,5.67-8.5-9.75V74Z"/><path class="k" d="M89.15,71.21V67.13l-8.68,9.75-5.67-5.67H66.61V93.74A22.6,22.6,0,0,0,89.15,71.21Z"/><polygon class="l" points="66.61 108.27 58.39 115.06 63.78 120.73 60.35 133.23 66.61 133.23 66.61 108.27 66.61 108.27"/><polygon class="m" points="66.61 108.27 74.84 115.06 69.45 120.73 72.88 133.23 66.61 133.23 66.61 108.27 66.61 108.27"/><polygon class="l" points="66.61 108.27 74.84 115.06 73.53 116.44 66.61 108.27 66.61 108.27"/><polygon class="d" points="88.29 99.77 94.6 99.77 99.86 108.34 92.43 114.46 99.57 115.11 89.41 133.23 78.55 133.23 88.29 99.77 88.29 99.77"/><polygon class="n" points="44.94 99.77 38.63 99.77 33.37 108.34 40.8 114.46 33.66 115.11 43.82 133.23 54.68 133.23 44.94 99.77 44.94 99.77"/><polygon class="c" points="48.37 94.09 44.94 99.77 53.75 118.9 66.61 108.27 48.37 94.09 48.37 94.09"/></svg>