<svg xmlns="http://www.w3.org/2000/svg" viewBox="0 0 133.23 133.23"><defs><style>.a{fill:#54808e;}.a,.b,.c,.d,.e,.f,.g,.h{fill-rule:evenodd;}.b{fill:#006555;}.c{fill:#cf9e35;}.d{fill:#551513;}.e{fill:#c28f38;}.f{fill:#acd8cf;}.g{fill:#ebc790;}.h{fill:#971421;}</style></defs><title>img-avatar-slug-5</title><polygon class="a" points="0 0 133.23 0 133.23 133.23 0 133.23 0 0 0 0"/><path class="b" d="M29.42,108.43h5.88a33.31,33.31,0,0,0,62.64,0h5.88a24.87,24.87,0,0,1,24.8,24.8H4.62a24.87,24.87,0,0,1,24.8-24.8Z"/><path class="c" d="M44.08,81.35a22.53,22.53,0,1,0,45.06,0q0-17.51,0-35A15.82,15.82,0,0,0,73.37,30.56H59.85A15.82,15.82,0,0,0,44.08,46.33v35Z"/><path class="d" d="M45.46,89.09a22.51,22.51,0,0,0,42.29,0,22.51,22.51,0,0,0-42.29,0Zm21.14,0c13.12,0,11.05-6.28,0-6.28-10.88,0-13.45,6.28,0,6.28Z"/><path class="e" d="M48.67,94.93c0,9.18-4.19,13.5-13.38,13.5a33.31,33.31,0,0,0,62.64,0c-9.21,0-13.39-4.32-13.39-13.52a22.43,22.43,0,0,1-35.87,0Z"/><path class="f" d="M66.61,130.39h0a33.32,33.32,0,0,0,31.32-22h5.88a24.87,24.87,0,0,1,24.8,24.8h-62v-2.83Z"/><path class="g" d="M66.61,103.88A22.67,22.67,0,0,0,89.14,81.35q0-17.51,0-35A15.82,15.82,0,0,0,73.37,30.56H66.61v73.32Z"/><path class="h" d="M66.61,103.88A22.7,22.7,0,0,0,87.75,89.09,22.7,22.7,0,0,0,66.61,74.31v8.5c11,0,13.11,6.28,0,6.28v14.79Z"/><path class="c" d="M66.61,130.39h0c14.41,0,23.85-9.31,28.49-22.12-6.28-.77-9.61-4.22-10.42-10.67a23,23,0,0,1-18.06,9.11v23.68Z"/><path class="d" d="M35.06,36.85C35.66,18.29,49.8,14.2,65.91,17a12.32,12.32,0,0,0,7.46-.62A14.62,14.62,0,0,1,93,23.71C118.7,29,96.06,61.49,96.27,67.94c.26,8.42.47,13.56-7.12,13.41,0-11.67,0-14.84,0-26.51,0-8.67-7.12-9.41-15.77-8.86-13.77.88-10.49-6.85-15-6.85-8.67,0-14.29,7-14.29,15.7V79c-12.65-1.36-19.1-34.24-9-42.15Z"/><path class="h" d="M66.61,17.12a11.77,11.77,0,0,0,6.76-.73A14.62,14.62,0,0,1,93,23.71C118.7,29,96.06,61.49,96.27,67.94c.26,8.42.47,13.56-7.12,13.41,0-11.67,0-14.84,0-26.51,0-8.67-7.12-9.41-15.77-8.86a20.92,20.92,0,0,1-6.76-.46V17.12Z"/></svg>