<svg xmlns="http://www.w3.org/2000/svg" viewBox="0 0 133.23 133.23"><defs><style>.a{fill:#d27431;}.a,.b,.c,.d,.e,.f,.g,.h,.i{fill-rule:evenodd;}.b{fill:#ebc790;}.c{fill:#c28f38;}.d{fill:#d1d3d4;}.e{fill:#cf9e35;}.f{fill:#f7eede;}.g{fill:#e6e7e8;}.h{fill:#fff;}.i{fill:#bcbec0;}</style></defs><title>img-avatar-slug-3</title><polygon class="a" points="0 133.23 133.23 133.23 133.23 0 0 0 0 133.23 0 133.23"/><path class="b" d="M94.85,55.57h0a62.79,62.79,0,0,1-3.51,19h.74c3.36,0,5.56-2.75,5.74-6.11.28-5.23,6.08-12.87-3-12.87Z"/><path class="b" d="M66.73,96.44c34,0,40.92-80.19,0-80.19-43.13,0-32.14,80.19,0,80.19Z"/><path class="c" d="M38.45,55.57h0a64.41,64.41,0,0,0,4,19H41.23c-3.36,0-5.56-2.75-5.74-6.11-.28-5.23-6.08-12.87,3-12.87Z"/><path class="d" d="M29.42,99.76h74.4a24.87,24.87,0,0,1,24.8,24.8v8.67H4.62v-8.67a24.87,24.87,0,0,1,24.8-24.8Z"/><path class="e" d="M85.88,85.32V99.76l2.83,8.5-16.43,25H60.95l-16.43-25,2.83-8.5V84.27c4.86,7.31,11.47,12.17,19.38,12.17S81.15,92,85.88,85.32Z"/><path class="f" d="M66.73,93.61c34,0,40.92-74.52,0-74.52-.15,0-.13,74.52,0,74.52Z"/><path class="g" d="M66.61,99.76h37.2a24.87,24.87,0,0,1,24.8,24.8v8.67h-62V99.76Z"/><path class="b" d="M85.88,88.16V99.76l2.83,8.5-16.43,25H66.61v-34c8.13.08,14.76-4.71,19.26-11.12Z"/><polygon class="h" points="85.88 99.77 95.51 99.77 106.84 108.27 92.81 113.04 96.2 117.74 80.79 133.23 72.28 133.23 88.71 108.27 85.88 99.77 85.88 99.77"/><polygon class="i" points="46.41 102.6 37.72 102.6 26.38 111.1 40.42 115.88 34.19 120.57 49.62 133.23 60.95 133.23 44.52 108.27 46.41 102.6 46.41 102.6"/><polygon class="g" points="47.35 99.77 37.72 99.77 26.38 108.27 40.42 113.04 37.02 117.74 52.44 133.23 60.95 133.23 44.52 108.27 47.35 99.77 47.35 99.77"/><path class="f" d="M66.72,32.7c6.43,0,10.79,2.63,13.48,2.16,5.15-.9,4.24-5.59.07-8.78a22.79,22.79,0,0,0-13.56-4.15c-7.74,0-13.63,3.15-15.65,6.69-1.62,2.84-.75,6.57,3.66,6.83,2.65.16,6.57-2.74,12-2.74Z"/><path class="h" d="M66.72,32.7c6.43,0,10.79,2.63,13.48,2.16,5.15-.9,4.24-5.59.07-8.78a22.79,22.79,0,0,0-13.56-4.15h0c0,2.4,0,6.18,0,10.78Z"/></svg>