<svg xmlns="http://www.w3.org/2000/svg" viewBox="0 0 133.23 133.23"><defs><style>.a{fill:#a5c3d1;}.a,.b,.c,.d,.e,.f,.g,.h,.i,.j{fill-rule:evenodd;}.b{fill:#e6e7e8;}.c{fill:#ebc790;}.d{fill:#cf9e35;}.e{fill:#fff;}.f{fill:#f7eede;}.g{fill:#00192b;}.h{fill:#254056;}.i{fill:#58595b;}.j{fill:#808285;}</style></defs><title>img-avatar-slug-8</title><polygon class="a" points="0 133.23 133.23 133.23 133.23 0 0 0 0 133.23 0 133.23"/><path class="b" d="M29.42,105.43h74.4a24.87,24.87,0,0,1,24.8,24.8v3H4.62v-3a24.87,24.87,0,0,1,24.8-24.8Z"/><path class="c" d="M66.61,27.41A21.68,21.68,0,0,0,45,49V76.25c0,6.22,9.73,21.62,21.62,21.62S88.23,82.42,88.23,76.25V49A21.75,21.75,0,0,0,66.61,27.41Z"/><path class="d" d="M48.37,85.31v47.92H79.18c3.49-7,5.4-16,5.67-27.79V85.26C81,91.46,74.23,97.87,66.61,97.87S52.22,91.5,48.37,85.31Z"/><path class="e" d="M66.61,105.43h37.2a24.87,24.87,0,0,1,24.8,24.8v3h-62V105.43Z"/><path class="f" d="M66.61,95c11.84,0,21.62-15.45,21.62-21.62V49A21.75,21.75,0,0,0,66.61,27.41V95Z"/><path class="c" d="M66.61,133.23H82c6.33-7,8.23-18.86,2.83-27.79V88.09C81,94.3,74.23,100.7,66.61,100.7v32.53Z"/><path class="g" d="M66.61,18.9A30.3,30.3,0,0,1,95.78,41.53c2.62,10.09,6.33,38.57,4.42,63.9,0,.19-15.2-.13-15.35,0V85.26c2.13-3.44,3.38-6.81,3.38-9V51.86H45V76.25c0,3.36,2.84,9.41,7.33,14.25,10.6,16.6,0,28.49,0,42.73H32.39c-3.19,0-4.82-65.27,5.94-94.54A30.21,30.21,0,0,1,66.61,18.9Z"/><path class="h" d="M66.61,18.9A30.3,30.3,0,0,1,95.78,41.53c2.62,10.09,6.33,38.57,4.42,63.9,0,.19-15.2-.13-15.35,0V85.26c2.13-3.44,3.38-6.81,3.38-9V51.86H66.61v-33Z"/><path class="i" d="M91.07,54.69H42.16V62a5.8,5.8,0,0,0,5.67,5.67l12,.66a3.51,3.51,0,0,0,4-3.45V57.53h5.67V64.9a3.51,3.51,0,0,0,4,3.45l12-.66A5.8,5.8,0,0,0,91.07,62V54.69ZM45,57.53V62a3,3,0,0,0,3,2.84l12,.66c.47,0,.93-.09.93-.63V57.53Zm43.24,0V62a3,3,0,0,1-3,2.84l-12,.66c-.47,0-.93-.09-.93-.63V57.53Z"/><path class="j" d="M91.07,54.69H66.61v2.83h2.83V64.9a3.51,3.51,0,0,0,4,3.45l12-.66A5.8,5.8,0,0,0,91.07,62V54.69Zm-2.83,2.83V62a3,3,0,0,1-3,2.84l-12,.66c-.47,0-.93-.09-.93-.63V57.53Z"/><polygon class="f" points="48.03 64.87 54.59 65.23 54.59 57.53 48.03 57.53 48.03 64.87 48.03 64.87"/><path class="e" d="M88.23,57.53V62a3,3,0,0,1-3,2.84l-7.77.43V57.53Z"/></svg>