<svg xmlns="http://www.w3.org/2000/svg" viewBox="0 0 133.23 133.23"><defs><style>.a{fill:#f8aaae;}.a,.b,.c,.d,.e,.f,.g,.h,.i,.j,.k,.l{fill-rule:evenodd;}.b{fill:#786fb1;}.c{fill:#9c95c7;}.d{fill:#551513;}.e{fill:#231f20;}.f{fill:#341113;}.g{fill:#00192b;}.h{fill:#971421;}.i{fill:#414042;}.j{fill:#2b384a;}.k{fill:#c8c4e1;}.l{fill:#58595b;}</style></defs><title>img-avatar-slug-6</title><polygon class="a" points="133.23 133.23 0 133.23 0 0 133.23 0 133.23 133.23 133.23 133.23"/><polygon class="b" points="52.19 133.23 81.04 133.23 84.43 122.07 72.28 107.93 60.95 107.93 48.8 122.07 52.19 133.23 52.19 133.23"/><polygon class="c" points="66.61 133.23 81.04 133.23 84.43 122.07 72.28 107.93 66.61 107.93 66.61 133.23 66.61 133.23"/><path class="d" d="M66.62,11.78C53,11.78,38.94,23,38.94,36.62c0,7.17,2.83,20.86,2.83,28a24.84,24.84,0,1,0,49.68,0c0-7.17,2.83-20.86,2.83-28,0-13.6-14.08-24.84-27.68-24.84Z"/><path class="e" d="M36.1,36.62C36.1,21,51.77,8.95,66.62,8.95S97.13,21.1,97.13,36.62v2.95h-3C92.41,29.11,91,24.39,80.62,22.67c-3.52-.58-8.06,2.41-14,2.41-7.1,0-12.23-2.91-16-2-8.29,1.94-10,6.6-11.56,16.51h-3V36.62Z"/><path class="f" d="M87.51,78V93.76L72.28,107.93H60.95L45.72,93.76V78A24.76,24.76,0,0,0,87.51,78Z"/><path class="f" d="M39.06,39.56H36.33c-1.54,0-2.43,1.29-2.64,2.79-1,7.43-3.19,20.38,6.75,20.38h1.27c-.34-6.47-2.17-16.36-2.66-23.17Z"/><path class="g" d="M26.58,99.76H42l10.17,33.46H81L91.21,99.76h15.44a24.87,24.87,0,0,1,24.8,24.8v8.67H1.78v-8.67a24.87,24.87,0,0,1,24.8-24.8Z"/><polygon class="c" points="45.72 93.76 60.95 107.93 48.8 122.07 42.02 99.77 45.72 93.76 45.72 93.76"/><polygon class="e" points="60.95 133.23 72.28 133.23 69.45 119.27 74.72 110.77 72.28 107.93 60.95 107.93 58.51 110.77 63.78 119.27 60.95 133.23 60.95 133.23"/><path class="h" d="M66.62,11.78h0V86.66A25,25,0,0,0,91.46,61.82c0-7.17,2.83-18,2.83-25.19,0-13.6-14.08-24.84-27.68-24.84Z"/><path class="i" d="M66.61,8.95h0c14.79,0,30.51,12.15,30.51,27.68v2.95h-3C92.41,29.11,91,24.39,80.62,22.67c-3.52-.58-8.06,2.41-14,2.41h0V8.95Z"/><path class="d" d="M87.51,80.83V93.76L72.28,107.93H66.61V92.33a24.94,24.94,0,0,0,20.89-11.5Z"/><path class="j" d="M66.61,133.23H81L91.21,99.76h15.44a24.87,24.87,0,0,1,24.8,24.8v8.67Z"/><polygon class="k" points="87.51 93.76 72.28 107.93 84.43 122.07 91.21 99.77 87.51 93.76 87.51 93.76"/><polygon class="l" points="66.61 133.23 72.28 133.23 69.45 119.27 74.72 110.77 72.28 107.93 66.61 107.93 66.61 119.27 66.61 133.23 66.61 133.23"/><polygon class="b" points="72.28 107.93 84.43 122.07 83.45 125.3 72.28 107.93 72.28 107.93"/><polygon class="e" points="74.42 111.25 74.72 110.77 72.28 107.93 74.42 111.25 74.42 111.25"/><path class="d" d="M94.17,39.56h2.73c1.54,0,2.43,1.29,2.64,2.79,1,7.43,3.19,20.38-6.75,20.38H91.51c.34-6.47,2.17-16.36,2.66-23.17Z"/></svg>