<svg xmlns="http://www.w3.org/2000/svg" viewBox="0 0 133.23 133.23"><defs><style>.a{fill:#acd8cf;}.a,.b,.c,.d,.e,.f,.g,.h,.i,.j,.k,.l,.m,.n,.o{fill-rule:evenodd;}.b{fill:#ebc790;}.c{fill:#3d3458;}.d{fill:#c28f38;}.e{fill:#f7eede;}.f{fill:#9c95c7;}.g{fill:#c8c4e1;}.h{fill:#cf9e35;}.i{fill:#615776;}.j{fill:#d1d3d4;}.k{fill:#e6e7e8;}.l{fill:#bcbec0;}.m{fill:#fff;}.n{fill:#231f20;}.o{fill:#58595b;}</style></defs><title>img-avatar-slug-9</title><polygon class="a" points="0 133.23 133.23 133.23 133.23 0 0 0 0 133.23 0 133.23"/><path class="b" d="M66.62,21.57c-13.93,0-25.33,10.06-25.33,22.36V69.15c0,12.3,11.39,22.36,25.33,22.36S91.94,81.39,91.94,69.15V43.92c0-12.24-11.46-22.36-25.33-22.36Z"/><path class="c" d="M29.42,99.76h9.14c4.9,15.25,14.16,24.78,28.13,33.46H4.62v-8.67a24.87,24.87,0,0,1,24.8-24.8Z"/><path class="d" d="M41.29,53.2H38.45A2.72,2.72,0,0,0,35.62,56L37,66.31a3,3,0,0,0,2.83,2.83h1.42V53.2Z"/><path class="e" d="M66.62,88.67c13.87,0,25.33-10.12,25.33-22.36V43.92c0-12.24-11.46-22.36-25.33-22.36v67.1Z"/><path class="b" d="M91.94,53.2h2.83A2.72,2.72,0,0,1,97.61,56L96.19,66.31a3,3,0,0,1-2.83,2.83H91.94V53.2Z"/><path class="f" d="M94.82,99.77H87.08c-3.32,7.92-8.68,15.13-20.47,22.26-11.78-7.13-17-14.34-20.32-22.26H38.56c4.9,15.25,14.16,24.78,28.13,33.46,14-8.68,23.23-18.21,28.13-33.46Z"/><path class="g" d="M94.82,99.77H87.08c-3.32,7.92-8.68,15.13-20.47,22.26v11.16l.07,0c14-8.68,23.23-18.21,28.13-33.46Z"/><path class="h" d="M86.05,83.39V94.1L69.52,105.43,66.62,122l-2.82-16.63L47.18,94.1V83.44a27.4,27.4,0,0,0,38.88,0Z"/><path class="b" d="M86.05,86.23V94.1L69.52,105.43,66.62,122V94.34a26.77,26.77,0,0,0,19.44-8.11Z"/><path class="i" d="M94.82,99.76h9a24.87,24.87,0,0,1,24.8,24.8v8.67H66.69c14-8.68,23.23-18.21,28.13-33.46ZM66.69,133.23h-.07v0l.07,0Z"/><path class="j" d="M56.51,114.51l7.28-9.12L66.62,122a60.24,60.24,0,0,1-10.11-7.51Z"/><path class="k" d="M69.52,105.43l7.34,9.08A61.85,61.85,0,0,1,66.62,122l2.91-16.59Z"/><path class="l" d="M76,115.29q-1.26,1.12-2.68,2.24l-3.81-12.09L76,115.29Z"/><polygon class="k" points="47.18 94.09 63.79 105.39 55.14 118.43 43.79 99.77 47.18 94.09 47.18 94.09"/><polygon class="m" points="86.05 94.09 69.52 105.43 78.09 118.43 89.44 99.77 86.05 94.09 86.05 94.09"/><path class="n" d="M66.62,15.9c15.73,0,28.16,11.53,28.16,28V53.2H91.94V43.92c0-7.65-4.48-14.47-11.22-18.51-4-2.42-8.91,1.16-14.11,1.16-5,0-9.69-3.7-13.63-1.47-7,4-11.7,10.94-11.7,18.82V53.2H38.45V43.92c0-16.55,12.37-28,28.16-28Z"/><path class="o" d="M66.62,15.9c15.73,0,28.16,11.53,28.16,28V53.2H91.94V43.92c0-7.65-4.48-14.47-11.22-18.51-4-2.42-8.91,1.16-14.11,1.16V15.9Z"/></svg>