<svg xmlns="http://www.w3.org/2000/svg" viewBox="0 0 186.75 98.46"><defs><style>.a{fill:#e58d23;}.b{fill:#fff;}.c{fill:#ccc;}.d{fill:#8cc63f;}.e{fill:#005f99;}</style></defs><title>in2m-logo-color_6</title><path class="a" d="M17.16,88.56v5.35H14.43V88.54c0-1.36-.37-2.43-1.59-2.43s-1.57,1.11-1.57,2.45v5.35H8.52v-10h2.75v1.36a3.08,3.08,0,0,1,5.43.1,3.09,3.09,0,0,1,3-1.67c2.66,0,3.38,2.24,3.38,4.77v5.43H20.32V88.54c0-1.36-.37-2.43-1.59-2.43S17.16,87.22,17.16,88.56Z"/><path class="a" d="M34.35,83.93v10H31.6V92.45a3.35,3.35,0,0,1-3,1.67c-2.88,0-4.62-2.33-4.62-5.25s1.61-5.16,4.56-5.16a3.73,3.73,0,0,1,3,1.58V83.93ZM29.2,91.77A2.44,2.44,0,0,0,31.67,89c0-1.85-1.05-3-2.55-3s-2.36,1.28-2.36,2.82S27.68,91.77,29.2,91.77Z"/><path class="a" d="M38.46,86.11a2.73,2.73,0,0,1,2.6-2.39,2.79,2.79,0,0,1,.7.08v2.86a5.45,5.45,0,0,0-1.16-.14,1.93,1.93,0,0,0-2.07,2v5.43H35.79v-10h2.68Z"/><path class="a" d="M48.6,83.93h3v.39l-3.14,4.16,1.24,2.08c.42.68.76.9,1.29.9a2,2,0,0,0,1-.35l1,2a3.45,3.45,0,0,1-2.47,1,3.14,3.14,0,0,1-2.81-1.52l-1.9-3.23v4.53H43.15V79.84H45.9V88Z"/><path class="a" d="M62.81,92.16a5.79,5.79,0,0,1-4.41,2C54.89,94.12,53,91.81,53,89a5.12,5.12,0,0,1,5.22-5.25c2.62,0,5.13,1.91,5.13,5.88H55.71c.06,1.25,1.14,2.16,2.9,2.16a3.91,3.91,0,0,0,2.62-1.19Zm-7.05-4.32h4.75a2.23,2.23,0,0,0-2.34-1.77A2.36,2.36,0,0,0,55.76,87.84Z"/><path class="a" d="M67.91,83.93h2.62V86.2H67.91v4.67c0,.43.17.88.7.88s.72-.47.72-.93A3.28,3.28,0,0,0,69.2,90h2.18a3.07,3.07,0,0,1,.22,1.19,2.88,2.88,0,0,1-3.16,3c-1.66,0-3.29-.62-3.29-3.52V86.2H63.73V83.93h1.63l.42-2.45h2.12Z"/><path class="a" d="M72.6,98.46V83.93h2.75v1.46a3.35,3.35,0,0,1,3-1.67c2.88,0,4.62,2.33,4.62,5.25s-1.61,5.16-4.56,5.16a3.73,3.73,0,0,1-3-1.58v5.91Zm5.15-12.39a2.44,2.44,0,0,0-2.47,2.72c0,1.85,1.05,3,2.55,3s2.36-1.28,2.36-2.82S79.26,86.07,77.75,86.07Z"/><path class="a" d="M84.08,93.91V79.84h2.75V93.91Z"/><path class="a" d="M98.5,83.93v10H95.74V92.45a3.35,3.35,0,0,1-3,1.67c-2.88,0-4.62-2.33-4.62-5.25s1.61-5.16,4.56-5.16a3.73,3.73,0,0,1,3,1.58V83.93Zm-5.15,7.84A2.44,2.44,0,0,0,95.82,89c0-1.85-1.05-3-2.55-3s-2.36,1.28-2.36,2.82S91.83,91.77,93.34,91.77Z"/><path class="a" d="M104.86,83.71a6,6,0,0,1,3.88,1.48l-1.25,2.12a3.67,3.67,0,0,0-2.49-1,2.59,2.59,0,1,0,0,5.17,3.67,3.67,0,0,0,2.49-1l1.25,2.12a6,6,0,0,1-3.88,1.48,5.2,5.2,0,1,1,0-10.39Z"/><path class="a" d="M118.87,92.16a5.79,5.79,0,0,1-4.41,2C111,94.12,109,91.81,109,89a5.12,5.12,0,0,1,5.22-5.25c2.62,0,5.13,1.91,5.13,5.88h-7.62c.06,1.25,1.14,2.16,2.9,2.16a3.91,3.91,0,0,0,2.62-1.19Zm-7.05-4.32h4.75a2.23,2.23,0,0,0-2.34-1.77A2.36,2.36,0,0,0,111.82,87.84Z"/><rect class="b" x="132.17" y="16.31" width="41.61" height="61.46"/><path class="c" d="M173,77.17H133V17h40V30h4.77V12.64a6.38,6.38,0,0,0-6.37-6.37H134.55a6.37,6.37,0,0,0-6.37,6.37V87.41a6.37,6.37,0,0,0,6.37,6.37h36.82a6.37,6.37,0,0,0,6.37-6.37V59.33H173Zm-5.8-66.92a1.63,1.63,0,1,1-1.63,1.63A1.63,1.63,0,0,1,167.17,10.25Zm-22.75.62h17.07v1.86H144.42ZM160.73,87H145.18V82.2h15.55Z"/><path class="d" d="M183.13,32.24H153a3,3,0,0,0-3.15,3.17v18A3.22,3.22,0,0,0,153,56.83h2.84L152.33,67l12.37-10.2h18.43a3.62,3.62,0,0,0,3.62-3.41v-18A3.43,3.43,0,0,0,183.13,32.24Zm-30,7.93h1.6v9h-1.6Zm4,13.09v.88H154.6a1.48,1.48,0,0,1-1.52-1.44V50.36h1.6v1.55a.74.74,0,0,0,.76.72h1.64Zm0-17.43v.88h-1.64a.74.74,0,0,0-.76.72V39h-1.6V36.64a1.48,1.48,0,0,1,1.52-1.44h2.48Zm5.36,18.31h-4V52.63h4Zm0-17.43h-4V35.2h4Zm5.42,17.43h-4V52.63h4Zm0-17.43h-4V35.2h4Zm5.42,17.43h-4V52.63h4Zm0-17.43h-4V35.2h4Zm5.21,17.43h-4V52.63h4Zm0-17.43h-4V35.2h4ZM183.8,51v1.72a1.48,1.48,0,0,1-1.52,1.44h-2.48V52.63h1.64a.74.74,0,0,0,.76-.72V50.36h1.6Zm0-1.78h-1.6v-9h1.6Zm0-11.7V39h-1.6V37.67c0-.55-.1-1-.76-1h-1.64V35.2h2.55a1.47,1.47,0,0,1,1.44,1.43Z"/><path class="d" d="M21.56,19.51a7.08,7.08,0,0,1-.69-.44,9.78,9.78,0,0,0-1.75-.88,5.94,5.94,0,0,0-4.45,0,9.31,9.31,0,0,0-1.76.85,4.67,4.67,0,0,1-.71.43q-.31,0-1.61-1.32T9.31,16.48a.55.55,0,0,1,.18-.4A9.46,9.46,0,0,1,12.9,14,11.06,11.06,0,0,1,21,14.1a9.46,9.46,0,0,1,3.37,2.13.55.55,0,0,1,.17.4q0,.31-1.32,1.6T21.56,19.51Zm4.78-4.66a.72.72,0,0,1-.4-.14A20.5,20.5,0,0,0,21.6,12,11.74,11.74,0,0,0,17,11.08a11.81,11.81,0,0,0-3,.35,13.69,13.69,0,0,0-2.59.89,22.19,22.19,0,0,0-2,1.05q-.87.53-1.38.9a4.44,4.44,0,0,1-.54.38q-.29,0-1.58-1.32T4.66,11.72a.53.53,0,0,1,.18-.38,15.83,15.83,0,0,1,5.58-3.49A17.76,17.76,0,0,1,23.58,8a15.83,15.83,0,0,1,5.5,3.61.53.53,0,0,1,.17.38q0,.31-1.32,1.6t-1.61,1.28Zm4.74-4.64a.6.6,0,0,1-.38-.16A23.23,23.23,0,0,0,24.3,5.89,18.92,18.92,0,0,0,17,4.43a18.87,18.87,0,0,0-7.3,1.3,23.29,23.29,0,0,0-6.48,4,.6.6,0,0,1-.38.15q-.29,0-1.59-1.32T0,7a.55.55,0,0,1,.18-.4A22.54,22.54,0,0,1,7.94,1.67a24.47,24.47,0,0,1,18.25.19,22.5,22.5,0,0,1,7.65,5.07.55.55,0,0,1,.17.4q0,.31-1.32,1.6T31.07,10.21Z"/><circle class="d" cx="16.93" cy="23.42" r="3.18"/><polygon class="e" points="8.59 54.24 8.59 54.72 8.59 75.15 25.43 75.15 25.43 59.64 25.43 59.16 25.43 31.22 8.59 31.22 8.59 54.24"/><path class="e" d="M75.09,46.58V46.1a25.83,25.83,0,0,0-.7-5.37l-6.29,0c.26-2,.67-5,1.11-8a15.43,15.43,0,0,0-9-2.52,18.73,18.73,0,0,0-8.77,1.89,23.08,23.08,0,0,0-7.11,6.25V31.22H28.68V75.15H45.52V54.06q0-6,1.89-8.33a6.09,6.09,0,0,1,5-2.33,5.52,5.52,0,0,1,4.29,1.7c1,1.15,1.52,3.11,1.52,5.85V75.11h8.29A32.34,32.34,0,0,1,70.1,63.46a40.71,40.71,0,0,1,5-7.07V47.25a4,4,0,0,0,0-.67"/><path class="e" d="M93.08,61.42c1.55-1.52,2.89-2.74,4-3.7s3.4-2.59,6.81-4.92a55.08,55.08,0,0,0,9.55-8.18,3.34,3.34,0,0,0,.33-.37,25.64,25.64,0,0,0,1.92-2.55A19.41,19.41,0,0,0,119,31.11a16.1,16.1,0,0,0-2.85-9.4,16.61,16.61,0,0,0-7.77-6.22c-3.29-1.33-7.92-2-13.84-2-5.66,0-10.14.7-13.32,2.15a17,17,0,0,0-7.48,6.11c-1.78,2.66-3,12.84-3.63,17.58L87,39.21c.48-3.4,1.37-10.88,2.74-12.21A7.08,7.08,0,0,1,95,25a7.19,7.19,0,0,1,5.14,2,6.28,6.28,0,0,1,2,4.74,9.37,9.37,0,0,1-2.07,5.4,27.05,27.05,0,0,1-4,4,6.43,6.43,0,0,0-.56.48c-1.37,1.15-3,2.44-4.89,3.85Q78.5,54.43,74.06,61a32.07,32.07,0,0,0-5.29,14.1h50.56V61.38l-26.24,0Z"/></svg>