<svg xmlns="http://www.w3.org/2000/svg" viewBox="0 0 352.1 229.04"><defs><style>.a{fill:#e58d23;}.b{fill:#fff;}</style></defs><title>in2m-logo-white-review-orange</title><rect class="a" width="352.1" height="229.04"/><path class="b" d="M65.32,174.45v7.83h-4v-7.86c0-2-.54-3.56-2.32-3.56s-2.3,1.62-2.3,3.59v7.83h-4V167.67h4v2a4.5,4.5,0,0,1,7.95.14A4.52,4.52,0,0,1,69,167.35c3.89,0,4.95,3.28,4.95,7v7.95h-4v-7.86c0-2-.54-3.56-2.32-3.56S65.32,172.48,65.32,174.45Z"/><path class="b" d="M90.48,167.67v14.61h-4v-2.14a4.91,4.91,0,0,1-4.35,2.45c-4.22,0-6.76-3.42-6.76-7.69,0-4.1,2.35-7.55,6.67-7.55a5.46,5.46,0,0,1,4.43,2.31v-2Zm-7.54,11.48c2,0,3.62-1.34,3.62-4S85,170.8,82.83,170.8s-3.46,1.88-3.46,4.13S80.72,179.15,82.94,179.15Z"/><path class="b" d="M96.51,170.86a4,4,0,0,1,3.81-3.5,4,4,0,0,1,1,.11v4.19a8,8,0,0,0-1.7-.2,2.83,2.83,0,0,0-3,2.88v7.95h-4V167.67h3.92Z"/><path class="b" d="M111.34,167.67h4.46v.57l-4.59,6.1,1.81,3c.62,1,1.11,1.31,1.89,1.31a2.86,2.86,0,0,0,1.49-.51l1.51,3a5,5,0,0,1-3.62,1.42,4.59,4.59,0,0,1-4.11-2.22l-2.78-4.73v6.64h-4v-20.6h4v11.91Z"/><path class="b" d="M132.15,179.72a8.47,8.47,0,0,1-6.46,2.88c-5.13,0-7.94-3.39-7.94-7.55a7.49,7.49,0,0,1,7.65-7.69c3.84,0,7.51,2.79,7.51,8.6H121.75c.08,1.82,1.68,3.16,4.24,3.16a5.72,5.72,0,0,0,3.84-1.74Zm-10.32-6.33h6.95a3.26,3.26,0,0,0-3.43-2.59A3.45,3.45,0,0,0,121.83,173.39Z"/><path class="b" d="M139.61,167.67h3.84V171h-3.84v6.84c0,.63.24,1.28,1,1.28s1.05-.68,1.05-1.37a4.84,4.84,0,0,0-.19-1.25h3.19a4.5,4.5,0,0,1,.32,1.74c0,2.17-1.35,4.36-4.62,4.36-2.43,0-4.81-.91-4.81-5.16V171H133.5v-3.33h2.38l.62-3.59h3.11Z"/><path class="b" d="M146.47,188.95V167.67h4v2.14a4.91,4.91,0,0,1,4.35-2.45c4.22,0,6.76,3.42,6.76,7.69,0,4.1-2.35,7.55-6.67,7.55a5.46,5.46,0,0,1-4.43-2.31v8.66ZM154,170.8c-2,0-3.62,1.34-3.62,4s1.54,4.36,3.73,4.36,3.46-1.88,3.46-4.13S156.23,170.8,154,170.8Z"/><path class="b" d="M163.28,182.28v-20.6h4v20.6Z"/><path class="b" d="M184.39,167.67v14.61h-4v-2.14A4.91,4.91,0,0,1,176,182.6c-4.22,0-6.76-3.42-6.76-7.69,0-4.1,2.35-7.55,6.67-7.55a5.46,5.46,0,0,1,4.43,2.31v-2Zm-7.54,11.48c2,0,3.62-1.34,3.62-4s-1.54-4.36-3.73-4.36-3.46,1.88-3.46,4.13S174.63,179.15,176.85,179.15Z"/><path class="b" d="M193.71,167.35a8.79,8.79,0,0,1,5.67,2.17l-1.84,3.11a5.37,5.37,0,0,0-3.65-1.45,3.79,3.79,0,1,0,0,7.58,5.37,5.37,0,0,0,3.65-1.45l1.84,3.11a8.79,8.79,0,0,1-5.67,2.17,7.61,7.61,0,1,1,0-15.21Z"/><path class="b" d="M214.23,179.72a8.47,8.47,0,0,1-6.46,2.88c-5.13,0-7.95-3.39-7.95-7.55a7.49,7.49,0,0,1,7.65-7.69c3.84,0,7.51,2.79,7.51,8.6H203.82c.08,1.82,1.68,3.16,4.24,3.16a5.72,5.72,0,0,0,3.84-1.74Zm-10.32-6.33h6.95a3.26,3.26,0,0,0-3.43-2.59A3.45,3.45,0,0,0,203.9,173.39Z"/><path class="b" d="M293.43,157.78H234.84V69.71h58.58v19h7V63.3A9.34,9.34,0,0,0,291.08,54H237.18a9.33,9.33,0,0,0-9.33,9.33V172.77a9.32,9.32,0,0,0,9.33,9.32h53.91a9.33,9.33,0,0,0,9.33-9.32v-41.1h-7Zm-8.49-98a2.39,2.39,0,1,1-2.38,2.39A2.39,2.39,0,0,1,284.93,59.81Zm-33.3.91h25v2.73h-25Zm23.88,111.43H252.75v-7h22.77Z"/><path class="b" d="M308.3,92H264.21a4.43,4.43,0,0,0-4.61,4.64V123a4.72,4.72,0,0,0,4.61,5h4.16l-5.16,14.94L281.33,128h27a5.31,5.31,0,0,0,5.29-5V96.64C313.6,93.92,311,92,308.3,92Zm-44,11.61h2.34v13.24h-2.34Zm5.84,19.16v1.29h-3.63a2.16,2.16,0,0,1-2.22-2.1v-3.44h2.34v2.27a1.08,1.08,0,0,0,1.11,1.05h2.4Zm0-25.52v1.3h-2.4a1.08,1.08,0,0,0-1.11,1.05v2.27h-2.34V98.44a2.16,2.16,0,0,1,2.22-2.1h3.63ZM278,124.07h-5.84v-2.21H278Zm0-25.52h-5.84V96.33H278Zm7.93,25.52h-5.85v-2.21h5.85Zm0-25.52h-5.85V96.33h5.85Zm7.93,25.52H288v-2.21h5.85Zm0-25.52H288V96.33h5.85Zm7.63,25.52h-5.85v-2.21h5.85Zm0-25.52h-5.85V96.33h5.85Zm7.79,20.9V122a2.16,2.16,0,0,1-2.22,2.1h-3.62v-2.21h2.4a1.08,1.08,0,0,0,1.11-1.05v-2.27h2.34Zm0-2.6h-2.34V103.61h2.34Zm0-17.13v2.15h-2.34V99.95c0-.81-.15-1.4-1.11-1.4h-2.4V96.33h3.74a2.15,2.15,0,0,1,2.11,2.09Z"/><path class="b" d="M71.75,73.37a10.36,10.36,0,0,1-1-.64,14.31,14.31,0,0,0-2.56-1.29,8.7,8.7,0,0,0-6.52-.07,13.63,13.63,0,0,0-2.57,1.24,6.84,6.84,0,0,1-1,.62q-.46,0-2.35-1.93t-1.89-2.38a.8.8,0,0,1,.26-.58,13.85,13.85,0,0,1,5-3,16.2,16.2,0,0,1,11.82.12,13.85,13.85,0,0,1,4.94,3.12.8.8,0,0,1,.25.59q0,.46-1.94,2.34T71.75,73.37Zm7-6.82a1.06,1.06,0,0,1-.58-.21,30,30,0,0,0-6.35-4,18.2,18.2,0,0,0-11.11-.81,20,20,0,0,0-3.79,1.3A32.49,32.49,0,0,0,54,64.39q-1.28.77-2,1.32a6.49,6.49,0,0,1-.79.55q-.43,0-2.31-1.93T47,62a.78.78,0,0,1,.26-.56,23.17,23.17,0,0,1,8.17-5.11,26,26,0,0,1,19.27.2,23.17,23.17,0,0,1,8.06,5.28.78.78,0,0,1,.25.56q0,.46-1.93,2.34t-2.35,1.88Zm6.94-6.8a.88.88,0,0,1-.56-.23,34,34,0,0,0-9.36-6.09,29.2,29.2,0,0,0-21.32-.22A34.1,34.1,0,0,0,45,59.1a.88.88,0,0,1-.56.22q-.43,0-2.33-1.93T40.19,55a.8.8,0,0,1,.26-.58,33,33,0,0,1,11.36-7.19,35.82,35.82,0,0,1,26.72.28,33,33,0,0,1,11.21,7.42.8.8,0,0,1,.25.59q0,.46-1.94,2.34T85.69,59.74Z"/><circle class="b" cx="64.98" cy="79.09" r="4.66"/><polygon class="b" points="52.77 124.21 52.77 124.91 52.77 154.82 77.42 154.82 77.42 132.12 77.42 131.41 77.42 90.5 52.77 90.5 52.77 124.21"/><path class="b" d="M150.13,113v-.7a37.81,37.81,0,0,0-1-7.86l-9.21.05c.38-2.93,1-7.31,1.63-11.7a22.6,22.6,0,0,0-13.17-3.68,27.42,27.42,0,0,0-12.84,2.76,33.8,33.8,0,0,0-10.4,9.16V90.51H82.19v64.32h24.65V123.94q0-8.78,2.76-12.19a8.91,8.91,0,0,1,7.26-3.41,8.08,8.08,0,0,1,6.29,2.49c1.52,1.68,2.22,4.55,2.22,8.56v35.38h12.14a47.34,47.34,0,0,1,5.31-17.07,59.61,59.61,0,0,1,7.31-10.35V114a5.86,5.86,0,0,0,0-1"/><path class="b" d="M176.47,134.72c2.28-2.22,4.23-4,5.91-5.42s5-3.79,10-7.21a80.63,80.63,0,0,0,14-12,4.89,4.89,0,0,0,.49-.54,37.54,37.54,0,0,0,2.82-3.74,28.42,28.42,0,0,0,4.77-15.5,23.58,23.58,0,0,0-4.17-13.76,24.32,24.32,0,0,0-11.38-9.1c-4.82-2-11.6-3-20.26-3-8.29,0-14.85,1-19.51,3.14a25,25,0,0,0-10.95,8.94c-2.6,3.9-4.33,18.8-5.31,25.74l24.71-.11c.7-5,2-15.93,4-17.88a10.37,10.37,0,0,1,7.69-3,10.52,10.52,0,0,1,7.53,2.87,9.19,9.19,0,0,1,3,6.94,13.72,13.72,0,0,1-3,7.91A39.61,39.61,0,0,1,180.8,105a9.42,9.42,0,0,0-.81.7c-2,1.68-4.39,3.58-7.15,5.64q-17.72,13.17-24.22,22.81a47,47,0,0,0-7.75,20.64h74v-20.1l-38.42.05Z"/></svg>