<svg xmlns="http://www.w3.org/2000/svg" viewBox="0 0 252.89 110.02"><defs><style>.a{fill:#fff;}</style></defs><title>in2m-logo-icon-white</title><path class="a" d="M830.94,815.7H785.57V747.5h45.37V762.2h5.41V742.54a7.23,7.23,0,0,0-7.22-7.23H787.38a7.22,7.22,0,0,0-7.22,7.23v84.77a7.22,7.22,0,0,0,7.22,7.22h41.74a7.23,7.23,0,0,0,7.22-7.22V795.48h-5.41V815.7Zm-6.58-75.87a1.85,1.85,0,1,1-1.85,1.85A1.85,1.85,0,0,1,824.36,739.83Zm-25.79.7h19.35v2.11H798.57v-2.11Zm18.49,86.29H799.43V821.4h17.63v5.42Z" transform="translate(-593.67 -724.76)"/><path class="a" d="M842.46,764.76H808.31a3.43,3.43,0,0,0-3.57,3.59v20.42a3.66,3.66,0,0,0,3.57,3.86h3.22l-4,11.57,14-11.57h20.89a4.11,4.11,0,0,0,4.1-3.86V768.35C846.56,766.25,844.57,764.76,842.46,764.76Zm-34.06,9h1.81V784h-1.81V773.75Zm4.53,14.84v1h-2.81a1.67,1.67,0,0,1-1.72-1.63v-2.66h1.81v1.76a0.84,0.84,0,0,0,.86.81h1.86v0.71Zm0-19.76v1h-1.86a0.84,0.84,0,0,0-.86.81v1.76h-1.81v-2.66a1.67,1.67,0,0,1,1.72-1.63h2.81v0.71ZM819,789.59h-4.53v-1.71H819v1.71Zm0-19.76h-4.53v-1.72H819v1.72Zm6.14,19.76h-4.53v-1.71h4.53v1.71Zm0-19.76h-4.53v-1.72h4.53v1.72Zm6.14,19.76h-4.53v-1.71h4.53v1.71Zm0-19.76h-4.53v-1.72h4.53v1.72Zm5.91,19.76h-4.53v-1.71h4.53v1.71Zm0-19.76h-4.53v-1.72h4.53v1.72Zm6,16.19V788a1.67,1.67,0,0,1-1.72,1.63h-2.81v-1.71h1.86a0.84,0.84,0,0,0,.86-0.81v-1.76h1.81V786Zm0-2H841.4V773.75h1.81V784Zm0-13.27v1.67h-1.81v-1.49c0-.63-0.11-1.08-0.86-1.08h-1.86v-1.72h2.89a1.67,1.67,0,0,1,1.63,1.62v1Z" transform="translate(-593.67 -724.76)"/><path class="a" d="M625.23,753.33a10.36,10.36,0,0,1-1-.64,14.31,14.31,0,0,0-2.56-1.29,8.7,8.7,0,0,0-6.52-.07,13.63,13.63,0,0,0-2.57,1.24,6.84,6.84,0,0,1-1,.62q-0.46,0-2.35-1.93t-1.89-2.38a0.8,0.8,0,0,1,.26-0.58,13.85,13.85,0,0,1,5-3,16.2,16.2,0,0,1,11.82.12,13.85,13.85,0,0,1,4.94,3.12,0.8,0.8,0,0,1,.25.59q0,0.46-1.94,2.34T625.23,753.33Zm7-6.82a1.06,1.06,0,0,1-.58-0.21,30,30,0,0,0-6.35-4,18.2,18.2,0,0,0-11.11-.81,20,20,0,0,0-3.79,1.3,32.49,32.49,0,0,0-2.89,1.54q-1.28.77-2,1.32a6.49,6.49,0,0,1-.79.55q-0.43,0-2.31-1.93t-1.88-2.38a0.78,0.78,0,0,1,.26-0.56,23.17,23.17,0,0,1,8.17-5.11,26,26,0,0,1,19.27.2,23.17,23.17,0,0,1,8.06,5.28,0.78,0.78,0,0,1,.25.56q0,0.46-1.93,2.34t-2.35,1.88h0Zm6.94-6.8a0.88,0.88,0,0,1-.56-0.23,34,34,0,0,0-9.36-6.09,29.2,29.2,0,0,0-21.32-.22,34.1,34.1,0,0,0-9.48,5.9,0.88,0.88,0,0,1-.56.22q-0.43,0-2.33-1.93T593.67,735a0.8,0.8,0,0,1,.26-0.58,33,33,0,0,1,11.36-7.19,35.82,35.82,0,0,1,26.72.28,33,33,0,0,1,11.21,7.42,0.8,0.8,0,0,1,.25.59q0,0.46-1.94,2.34T639.16,739.7Z" transform="translate(-593.67 -724.76)"/><circle class="a" cx="24.78" cy="34.29" r="4.66"/><polygon class="a" points="12.57 79.41 12.57 80.11 12.57 110.02 37.23 110.02 37.23 87.32 37.23 86.62 37.23 45.71 12.57 45.71 12.57 79.41"/><path class="a" d="M703.61,793v-0.7a37.81,37.81,0,0,0-1-7.86l-9.21.05c0.38-2.93,1-7.31,1.63-11.7a22.6,22.6,0,0,0-13.17-3.68A27.42,27.42,0,0,0,669,771.82a33.8,33.8,0,0,0-10.4,9.16V770.47H635.66v64.32h24.65V803.9q0-8.78,2.76-12.19a8.91,8.91,0,0,1,7.26-3.41,8.08,8.08,0,0,1,6.29,2.49c1.52,1.68,2.22,4.55,2.22,8.56v35.38H691a47.34,47.34,0,0,1,5.31-17.07,59.61,59.61,0,0,1,7.31-10.35V793.93a5.86,5.86,0,0,0,0-1" transform="translate(-593.67 -724.76)"/><path class="a" d="M729.94,814.68c2.28-2.22,4.23-4,5.91-5.42s5-3.79,10-7.21a80.63,80.63,0,0,0,14-12,4.89,4.89,0,0,0,.49-0.54,37.54,37.54,0,0,0,2.82-3.74,28.42,28.42,0,0,0,4.77-15.5,23.58,23.58,0,0,0-4.17-13.76,24.32,24.32,0,0,0-11.38-9.1c-4.82-2-11.6-3-20.26-3-8.29,0-14.85,1-19.51,3.14a25,25,0,0,0-10.95,8.94c-2.6,3.9-4.33,18.8-5.31,25.74l24.71-.11c0.7-5,2-15.93,4-17.88a10.37,10.37,0,0,1,7.69-3,10.52,10.52,0,0,1,7.53,2.87,9.19,9.19,0,0,1,3,6.94,13.72,13.72,0,0,1-3,7.91,39.61,39.61,0,0,1-5.91,5.91,9.42,9.42,0,0,0-.81.7c-2,1.68-4.39,3.58-7.15,5.64q-17.72,13.17-24.22,22.81a47,47,0,0,0-7.75,20.64h74v-20.1l-38.42.05h0Z" transform="translate(-593.67 -724.76)"/></svg>