<svg xmlns="http://www.w3.org/2000/svg" viewBox="0 0 252.89 110.02"><defs><style>.a{fill:#fff;}.b{fill:#ccc;}.c{fill:#e58d23;}.d{fill:#8cc63f;}.e{fill:#005f99;}</style></defs><title>in2m-logo-icon-color_3</title><rect class="a" x="191.8" y="22.39" width="45.81" height="69.65"/><path class="b" d="M237.27,90.94H191.9V22.75h45.37V37.44h5.41V17.78a7.23,7.23,0,0,0-7.22-7.23H193.71a7.22,7.22,0,0,0-7.22,7.23v84.77a7.22,7.22,0,0,0,7.22,7.22h41.74a7.23,7.23,0,0,0,7.22-7.22V70.72h-5.41Zm-6.58-75.87a1.85,1.85,0,1,1-1.85,1.85A1.85,1.85,0,0,1,230.69,15.07Zm-25.79.7h19.35v2.11H204.91Zm18.49,86.29H205.77V96.64H223.4Z"/><path class="c" d="M248.79,40H214.65a3.43,3.43,0,0,0-3.57,3.59V64a3.66,3.66,0,0,0,3.57,3.86h3.22l-4,11.57,14-11.57h20.89a4.11,4.11,0,0,0,4.1-3.86V43.6C252.89,41.49,250.9,40,248.79,40Zm-34.06,9h1.81V59.25h-1.81Zm4.53,14.84v1h-2.81a1.67,1.67,0,0,1-1.72-1.63V60.55h1.81v1.76a.84.84,0,0,0,.86.81h1.86Zm0-19.76v1H217.4a.84.84,0,0,0-.86.81v1.76h-1.81V45a1.67,1.67,0,0,1,1.72-1.63h2.81Zm6.07,20.76H220.8V63.12h4.53Zm0-19.76H220.8V43.36h4.53Zm6.14,19.76h-4.53V63.12h4.53Zm0-19.76h-4.53V43.36h4.53Zm6.14,19.76h-4.53V63.12h4.53Zm0-19.76h-4.53V43.36h4.53Zm5.91,19.76H239V63.12h4.53Zm0-19.76H239V43.36h4.53Zm6,16.19v1.95a1.67,1.67,0,0,1-1.72,1.63H245V63.12h1.86a.84.84,0,0,0,.86-.81V60.55h1.81Zm0-2h-1.81V49h1.81Zm0-13.27v1.67h-1.81V46.16c0-.63-.11-1.08-.86-1.08H245V43.36h2.89A1.67,1.67,0,0,1,249.55,45Z"/><path class="d" d="M31.56,28.57a10.36,10.36,0,0,1-1-.64A14.31,14.31,0,0,0,28,26.63a8.7,8.7,0,0,0-6.52-.07,13.63,13.63,0,0,0-2.57,1.24,6.84,6.84,0,0,1-1,.62q-.46,0-2.35-1.93t-1.89-2.38a.8.8,0,0,1,.26-.58,13.85,13.85,0,0,1,5-3,16.2,16.2,0,0,1,11.82.12,13.85,13.85,0,0,1,4.94,3.12.8.8,0,0,1,.25.59q0,.46-1.94,2.34T31.56,28.57Zm7-6.82a1.06,1.06,0,0,1-.58-.21,30,30,0,0,0-6.35-4,17.19,17.19,0,0,0-6.78-1.33,17.29,17.29,0,0,0-4.33.51A20,20,0,0,0,16.72,18a32.49,32.49,0,0,0-2.89,1.54q-1.28.77-2,1.32a6.49,6.49,0,0,1-.79.55q-.43,0-2.31-1.93T6.82,17.16a.78.78,0,0,1,.26-.56,23.17,23.17,0,0,1,8.17-5.11,26,26,0,0,1,19.27.2A23.17,23.17,0,0,1,42.58,17a.78.78,0,0,1,.25.56q0,.46-1.93,2.34t-2.35,1.88Zm6.94-6.8a.88.88,0,0,1-.56-.23,34,34,0,0,0-9.36-6.09A27.7,27.7,0,0,0,24.94,6.49,27.62,27.62,0,0,0,14.26,8.4a34.1,34.1,0,0,0-9.48,5.9.88.88,0,0,1-.56.22q-.43,0-2.33-1.93T0,10.22a.8.8,0,0,1,.26-.58A33,33,0,0,1,11.62,2.45a35.82,35.82,0,0,1,26.72.28,33,33,0,0,1,11.21,7.42.8.8,0,0,1,.25.59q0,.46-1.94,2.34T45.49,14.95Z"/><circle class="d" cx="24.78" cy="34.29" r="4.66"/><polygon class="e" points="12.57 79.41 12.57 80.11 12.57 110.02 37.23 110.02 37.23 87.32 37.23 86.62 37.23 45.71 12.57 45.71 12.57 79.41"/><path class="e" d="M109.94,68.19v-.7a37.81,37.81,0,0,0-1-7.86l-9.21.05c.38-2.93,1-7.31,1.63-11.7A22.6,22.6,0,0,0,88.16,44.3a27.42,27.42,0,0,0-12.84,2.76,33.8,33.8,0,0,0-10.4,9.16V45.71H42V110H66.65V79.14q0-8.78,2.76-12.19a8.91,8.91,0,0,1,7.26-3.41A8.08,8.08,0,0,1,83,66c1.52,1.68,2.22,4.55,2.22,8.56V110H97.32a47.34,47.34,0,0,1,5.31-17.07,59.61,59.61,0,0,1,7.31-10.35V69.17a5.86,5.86,0,0,0,0-1"/><path class="e" d="M136.27,89.92c2.28-2.22,4.23-4,5.91-5.42s5-3.79,10-7.21a80.63,80.63,0,0,0,14-12,4.89,4.89,0,0,0,.49-.54A37.54,37.54,0,0,0,169.43,61a28.42,28.42,0,0,0,4.77-15.5A23.58,23.58,0,0,0,170,31.78a24.32,24.32,0,0,0-11.38-9.1c-4.82-2-11.6-3-20.26-3-8.29,0-14.85,1-19.51,3.14a25,25,0,0,0-10.95,8.94c-2.6,3.9-4.33,18.8-5.31,25.74l24.71-.11c.7-5,2-15.93,4-17.88a10.37,10.37,0,0,1,7.69-3,10.52,10.52,0,0,1,7.53,2.87,9.19,9.19,0,0,1,3,6.94,13.72,13.72,0,0,1-3,7.91,39.61,39.61,0,0,1-5.91,5.91,9.42,9.42,0,0,0-.81.7c-2,1.68-4.39,3.58-7.15,5.64q-17.72,13.17-24.22,22.81A47,47,0,0,0,100.67,110h74V89.87l-38.42.05Z"/></svg>