<svg xmlns="http://www.w3.org/2000/svg" viewBox="0 0 273.4 144.15"><defs><style>.a{fill:#fff;}</style></defs><title>in2m-logo-white</title><path class="a" d="M138.72,420.45v7.83h-4v-7.86c0-2-.54-3.56-2.32-3.56s-2.3,1.62-2.3,3.59v7.83h-4V413.67h4v2a4.5,4.5,0,0,1,7.95.14,4.52,4.52,0,0,1,4.38-2.45c3.89,0,4.95,3.28,4.95,7v7.95h-4v-7.86c0-2-.54-3.56-2.32-3.56S138.72,418.48,138.72,420.45Z" transform="translate(-113.6 -290.8)"/><path class="a" d="M163.88,413.67v14.61h-4v-2.14a4.91,4.91,0,0,1-4.35,2.45c-4.22,0-6.76-3.42-6.76-7.69,0-4.1,2.35-7.55,6.67-7.55a5.46,5.46,0,0,1,4.43,2.31v-2h4Zm-7.54,11.48c2,0,3.62-1.34,3.62-4s-1.54-4.36-3.73-4.36-3.46,1.88-3.46,4.13S154.12,425.15,156.34,425.15Z" transform="translate(-113.6 -290.8)"/><path class="a" d="M169.91,416.86a4,4,0,0,1,3.81-3.5,4,4,0,0,1,1,.11v4.19a8,8,0,0,0-1.7-.2,2.83,2.83,0,0,0-3,2.88v7.95h-4V413.67h3.92v3.19Z" transform="translate(-113.6 -290.8)"/><path class="a" d="M184.74,413.67h4.46v0.57l-4.59,6.1,1.81,3a2.08,2.08,0,0,0,1.89,1.31,2.86,2.86,0,0,0,1.49-.51l1.51,3a5,5,0,0,1-3.62,1.42,4.59,4.59,0,0,1-4.11-2.22l-2.78-4.73v6.64h-4v-20.6h4v11.91Z" transform="translate(-113.6 -290.8)"/><path class="a" d="M205.55,425.72a8.47,8.47,0,0,1-6.46,2.88c-5.13,0-7.94-3.39-7.94-7.55a7.49,7.49,0,0,1,7.65-7.69c3.84,0,7.51,2.79,7.51,8.6H195.15c0.08,1.82,1.68,3.16,4.24,3.16a5.72,5.72,0,0,0,3.84-1.74Zm-10.32-6.33h6.95a3.26,3.26,0,0,0-3.43-2.59A3.45,3.45,0,0,0,195.23,419.39Z" transform="translate(-113.6 -290.8)"/><path class="a" d="M213,413.67h3.84V417H213v6.84a1.08,1.08,0,0,0,1,1.28,1.15,1.15,0,0,0,1.05-1.37,4.84,4.84,0,0,0-.19-1.25h3.19a4.5,4.5,0,0,1,.32,1.74c0,2.17-1.35,4.36-4.62,4.36-2.43,0-4.81-.91-4.81-5.16V417H206.9v-3.33h2.38l0.62-3.59H213v3.59Z" transform="translate(-113.6 -290.8)"/><path class="a" d="M219.88,434.95V413.67h4v2.14a4.91,4.91,0,0,1,4.35-2.45c4.22,0,6.76,3.42,6.76,7.69,0,4.1-2.35,7.55-6.67,7.55a5.46,5.46,0,0,1-4.43-2.31v8.66h-4Zm7.54-18.15c-2,0-3.62,1.34-3.62,4s1.54,4.36,3.73,4.36S231,423.27,231,421,229.63,416.8,227.42,416.8Z" transform="translate(-113.6 -290.8)"/><path class="a" d="M236.68,428.28v-20.6h4v20.6h-4Z" transform="translate(-113.6 -290.8)"/><path class="a" d="M257.79,413.67v14.61h-4v-2.14a4.91,4.91,0,0,1-4.35,2.45c-4.22,0-6.76-3.42-6.76-7.69,0-4.1,2.35-7.55,6.67-7.55a5.46,5.46,0,0,1,4.43,2.31v-2h4Zm-7.54,11.48c2,0,3.62-1.34,3.62-4s-1.54-4.36-3.73-4.36-3.46,1.88-3.46,4.13S248,425.15,250.25,425.15Z" transform="translate(-113.6 -290.8)"/><path class="a" d="M267.11,413.35a8.79,8.79,0,0,1,5.67,2.17L271,418.63a5.37,5.37,0,0,0-3.65-1.45,3.79,3.79,0,1,0,0,7.58A5.37,5.37,0,0,0,271,423.3l1.84,3.11a8.79,8.79,0,0,1-5.67,2.17A7.61,7.61,0,1,1,267.11,413.35Z" transform="translate(-113.6 -290.8)"/><path class="a" d="M287.63,425.72a8.47,8.47,0,0,1-6.46,2.88c-5.13,0-7.95-3.39-7.95-7.55a7.49,7.49,0,0,1,7.65-7.69c3.84,0,7.51,2.79,7.51,8.6H277.22c0.08,1.82,1.68,3.16,4.24,3.16a5.72,5.72,0,0,0,3.84-1.74Zm-10.32-6.33h6.95a3.26,3.26,0,0,0-3.43-2.59A3.45,3.45,0,0,0,277.3,419.39Z" transform="translate(-113.6 -290.8)"/><path class="a" d="M366.83,403.78H308.24V315.71h58.58v19h7V309.3a9.34,9.34,0,0,0-9.33-9.33H310.58a9.33,9.33,0,0,0-9.33,9.33V418.77a9.32,9.32,0,0,0,9.33,9.32h53.91a9.33,9.33,0,0,0,9.33-9.32v-41.1h-7v26.12Zm-8.49-98A2.39,2.39,0,1,1,356,308.2,2.39,2.39,0,0,1,358.34,305.81Zm-33.3.91h25v2.73H325v-2.73Zm23.88,111.43H326.15v-7h22.77v7Z" transform="translate(-113.6 -290.8)"/><path class="a" d="M381.71,338H337.61a4.43,4.43,0,0,0-4.61,4.64V369a4.72,4.72,0,0,0,4.61,5h4.16l-5.16,14.94L354.73,374h27a5.31,5.31,0,0,0,5.29-5V342.64C387,339.92,384.43,338,381.71,338Zm-44,11.61h2.34v13.24h-2.34V349.61Zm5.84,19.16v1.29h-3.63a2.16,2.16,0,0,1-2.22-2.1v-3.44h2.34v2.27a1.08,1.08,0,0,0,1.11,1.05h2.4v0.92Zm0-25.52v1.3h-2.4a1.08,1.08,0,0,0-1.11,1.05v2.27h-2.34v-3.44a2.16,2.16,0,0,1,2.22-2.1h3.63v0.92Zm7.84,26.81h-5.84v-2.21h5.84v2.21Zm0-25.52h-5.84v-2.22h5.84v2.22Zm7.93,25.52h-5.85v-2.21h5.85v2.21Zm0-25.52h-5.85v-2.22h5.85v2.22Zm7.93,25.52h-5.85v-2.21h5.85v2.21Zm0-25.52h-5.85v-2.22h5.85v2.22Zm7.63,25.52h-5.85v-2.21h5.85v2.21Zm0-25.52h-5.85v-2.22h5.85v2.22Zm7.79,20.9V368a2.16,2.16,0,0,1-2.22,2.1h-3.62v-2.21h2.4a1.08,1.08,0,0,0,1.11-1.05v-2.27h2.34v0.92Zm0-2.6h-2.34V349.61h2.34v13.24Zm0-17.13v2.15h-2.34v-1.92c0-.81-0.15-1.4-1.11-1.4h-2.4v-2.22h3.74a2.15,2.15,0,0,1,2.11,2.09v1.28Z" transform="translate(-113.6 -290.8)"/><path class="a" d="M145.15,319.37a10.36,10.36,0,0,1-1-.64,14.31,14.31,0,0,0-2.56-1.29,8.7,8.7,0,0,0-6.52-.07,13.63,13.63,0,0,0-2.57,1.24,6.84,6.84,0,0,1-1,.62q-0.46,0-2.35-1.93t-1.89-2.38a0.8,0.8,0,0,1,.26-0.58,13.85,13.85,0,0,1,5-3,16.2,16.2,0,0,1,11.82.12,13.85,13.85,0,0,1,4.94,3.12,0.8,0.8,0,0,1,.25.59q0,0.46-1.94,2.34T145.15,319.37Zm7-6.82a1.06,1.06,0,0,1-.58-0.21,30,30,0,0,0-6.35-4,18.2,18.2,0,0,0-11.11-.81,20,20,0,0,0-3.79,1.3,32.49,32.49,0,0,0-2.89,1.54q-1.28.77-2,1.32a6.49,6.49,0,0,1-.79.55q-0.43,0-2.31-1.93T120.42,308a0.78,0.78,0,0,1,.26-0.56,23.17,23.17,0,0,1,8.17-5.11,26,26,0,0,1,19.27.2,23.17,23.17,0,0,1,8.06,5.28,0.78,0.78,0,0,1,.25.56q0,0.46-1.93,2.34t-2.35,1.88h0Zm6.94-6.8a0.88,0.88,0,0,1-.56-0.23,34,34,0,0,0-9.36-6.09,29.2,29.2,0,0,0-21.32-.22,34.1,34.1,0,0,0-9.48,5.9,0.88,0.88,0,0,1-.56.22q-0.43,0-2.33-1.93T113.6,301a0.8,0.8,0,0,1,.26-0.58,33,33,0,0,1,11.36-7.19,35.82,35.82,0,0,1,26.72.28,33,33,0,0,1,11.21,7.42,0.8,0.8,0,0,1,.25.59q0,0.46-1.94,2.34T159.09,305.74Z" transform="translate(-113.6 -290.8)"/><circle class="a" cx="24.78" cy="34.29" r="4.66"/><polygon class="a" points="12.57 79.41 12.57 80.11 12.57 110.02 37.23 110.02 37.23 87.32 37.23 86.62 37.23 45.71 12.57 45.71 12.57 79.41"/><path class="a" d="M223.54,359v-0.7a37.81,37.81,0,0,0-1-7.86l-9.21.05c0.38-2.93,1-7.31,1.63-11.7a22.6,22.6,0,0,0-13.17-3.68,27.42,27.42,0,0,0-12.84,2.76,33.8,33.8,0,0,0-10.4,9.16V336.51H155.59v64.32h24.65V369.94q0-8.78,2.76-12.19a8.91,8.91,0,0,1,7.26-3.41,8.08,8.08,0,0,1,6.29,2.49c1.52,1.68,2.22,4.55,2.22,8.56v35.38h12.14a47.34,47.34,0,0,1,5.31-17.07,59.61,59.61,0,0,1,7.31-10.35V360a5.86,5.86,0,0,0,0-1" transform="translate(-113.6 -290.8)"/><path class="a" d="M249.87,380.72c2.28-2.22,4.23-4,5.91-5.42s5-3.79,10-7.21a80.63,80.63,0,0,0,14-12,4.89,4.89,0,0,0,.49-0.54,37.54,37.54,0,0,0,2.82-3.74,28.42,28.42,0,0,0,4.77-15.5,23.58,23.58,0,0,0-4.17-13.76,24.32,24.32,0,0,0-11.38-9.1c-4.82-2-11.6-3-20.26-3-8.29,0-14.85,1-19.51,3.14a25,25,0,0,0-10.95,8.94c-2.6,3.9-4.33,18.8-5.31,25.74l24.71-.11c0.7-5,2-15.93,4-17.88a10.37,10.37,0,0,1,7.69-3,10.52,10.52,0,0,1,7.53,2.87,9.19,9.19,0,0,1,3,6.94,13.72,13.72,0,0,1-3,7.91A39.61,39.61,0,0,1,254.2,351a9.42,9.42,0,0,0-.81.7c-2,1.68-4.39,3.58-7.15,5.64Q228.52,370.48,222,380.12a47,47,0,0,0-7.75,20.64h74v-20.1l-38.42.05h0Z" transform="translate(-113.6 -290.8)"/></svg>