<svg xmlns="http://www.w3.org/2000/svg" viewBox="0 0 237 125.28"><defs><style>.a{fill:#ccc;}.b{fill:#939393;}.c{fill:#d3d3d3;}.d{fill:#a8a8a8;}</style></defs><title>in2m-logo-grey</title><path class="a" d="M21.77,112.64v6.8H18.31v-6.83c0-1.74-.47-3.09-2-3.09s-2,1.41-2,3.12v6.8H10.84V106.75H14.3v1.74a3.9,3.9,0,0,1,6.89.12,3.92,3.92,0,0,1,3.8-2.13c3.37,0,4.29,2.85,4.29,6.08v6.91H25.81v-6.83c0-1.74-.47-3.09-2-3.09S21.77,110.94,21.77,112.64Z"/><path class="a" d="M43.63,106.75v12.69H40.16v-1.86a4.25,4.25,0,0,1-3.77,2.13c-3.66,0-5.86-3-5.86-6.68s2-6.56,5.78-6.56a4.73,4.73,0,0,1,3.84,2v-1.74h3.48Zm-6.54,10c1.73,0,3.14-1.16,3.14-3.47s-1.33-3.79-3.23-3.79-3,1.63-3,3.59,1.14,3.67,3.05,3.67Z"/><path class="a" d="M48.83,109.53A3.39,3.39,0,0,1,53,106.58v3.64a6.92,6.92,0,0,0-1.47-.17,2.46,2.46,0,0,0-2.6,2.31q0,.1,0,.2v6.91H45.45v-12.7h3.37Z"/><path class="a" d="M61.66,106.75h3.87v.5l-4,5.3,1.57,2.61a1.8,1.8,0,0,0,1.64,1.14,2.48,2.48,0,0,0,1.29-.44l1.31,2.61a4.33,4.33,0,0,1-3.14,1.23,4,4,0,0,1-3.56-1.93l-2.41-4.11v5.77H54.78v-17.9h3.47v10.38Z"/><path class="a" d="M79.7,117.22a7.33,7.33,0,0,1-5.6,2.5c-4.45,0-6.88-2.94-6.88-6.56a6.5,6.5,0,0,1,6.32-6.68h.32c3.33,0,6.51,2.42,6.51,7.47H70.69c.07,1.58,1.46,2.75,3.68,2.75a5,5,0,0,0,3.33-1.51Zm-8.95-5.49h6a2.83,2.83,0,0,0-3-2.25A3,3,0,0,0,70.76,111.73Z"/><path class="a" d="M86.17,106.75H89.5v2.89H86.17v5.94a.94.94,0,0,0,.74,1.1l.12,0a1,1,0,0,0,.91-1.19,4.21,4.21,0,0,0-.16-1.09h2.77a3.92,3.92,0,0,1,.28,1.51,3.65,3.65,0,0,1-4,3.79c-2.11,0-4.17-.79-4.17-4.48v-5.59H80.9v-2.89H83l.54-3.12h2.7v3.12Z"/><path class="a" d="M92.12,125.28V106.75h3.47v1.86a4.25,4.25,0,0,1,3.77-2.13c3.66,0,5.86,3,5.86,6.68s-2,6.56-5.78,6.56a4.73,4.73,0,0,1-3.84-2v7.57H92.12Zm6.54-15.77c-1.73,0-3.14,1.16-3.14,3.47s1.33,3.79,3.23,3.79,3-1.63,3-3.59-1.18-3.71-3.09-3.71Z"/><path class="a" d="M106.69,119.45v-17.9h3.47v17.9Z"/><path class="a" d="M125,106.75v12.69h-3.47v-1.86a4.25,4.25,0,0,1-3.77,2.13c-3.66,0-5.86-3-5.86-6.68s2-6.56,5.78-6.56a4.73,4.73,0,0,1,3.84,2v-1.74H125Zm-6.54,10c1.73,0,3.14-1.16,3.14-3.47s-1.33-3.79-3.23-3.79-3,1.63-3,3.59S116.53,116.73,118.45,116.73Z"/><path class="a" d="M133.07,106.48a7.61,7.61,0,0,1,4.91,1.89l-1.61,2.69a4.65,4.65,0,0,0-3.16-1.26,3.29,3.29,0,0,0,0,6.58,4.65,4.65,0,0,0,3.16-1.27l1.59,2.7a7.61,7.61,0,0,1-4.91,1.89,6.61,6.61,0,0,1,0-13.22Z"/><path class="a" d="M150.85,117.22a7.33,7.33,0,0,1-5.6,2.5c-4.45,0-6.89-2.94-6.89-6.56a6.5,6.5,0,0,1,6.32-6.68H145c3.33,0,6.51,2.42,6.51,7.47h-9.67c.07,1.58,1.46,2.75,3.68,2.75a5,5,0,0,0,3.33-1.51Zm-8.95-5.5h6a2.83,2.83,0,0,0-3-2.25,3,3,0,0,0-3.05,2.26Z"/><path class="a" d="M219.5,98.16H168.72V21.66H219.5V38.17h6.07V16.09A8.1,8.1,0,0,0,217.46,8H170.74a8.1,8.1,0,0,0-8.09,8.11h0v95.07a8.09,8.09,0,0,0,8.08,8.1h46.74a8.1,8.1,0,0,0,8.09-8.1V75.48h-6.07V98.17ZM212.14,13a2.08,2.08,0,1,1-2.09,2.1,2.07,2.07,0,0,1,2.09-2.1h0Zm-28.86.79h21.67v2.37H183.28V13.82ZM204,110.65H184.24v-6.08H204Z"/><path class="b" d="M232.4,41H194.17a3.84,3.84,0,0,0-4,3.68q0,.17,0,.35v22.9A4.1,4.1,0,0,0,194,72.29h3.76l-4.47,13,15.71-13h23.4A4.61,4.61,0,0,0,237,67.95V45C237,42.69,234.76,41,232.4,41ZM194.26,51.1h2v11.5h-2V51.11Zm5.06,16.64v1.12h-3.14A1.87,1.87,0,0,1,194.26,67h0v-3h2v2a.94.94,0,0,0,1,.91h2.08v.8Zm0-22.17v1.13h-2.08a.94.94,0,0,0-1,.91h0v2h-2v-3a1.87,1.87,0,0,1,1.92-1.82h3.15v.8Zm6.8,23.29h-5.06V66.95h5.06Zm0-22.17h-5.06V44.77h5.06ZM213,68.87h-5.07V66.95H213Zm0-22.17h-5.07V44.77H213Zm6.87,22.17h-5.07V66.95h5.07Zm0-22.17h-5.07V44.77h5.07Zm6.66,22.18h-5.07V67h5.07Zm0-22.17h-5.07V44.78h5.07Zm6.75,18.16v2.22a1.87,1.87,0,0,1-1.92,1.82h-3.14V67h2.08a.94.94,0,0,0,1-.91h0v-2h2v.76Zm0-2.26h-2V51.11h2v11.5Zm0-14.88v1.87h-2V48c0-.7-.13-1.22-1-1.22H228.2V44.82h3.24a1.87,1.87,0,0,1,1.83,1.82v1.09Z"/><path class="c" d="M27.36,24.83a9,9,0,0,1-.87-.56,12.39,12.39,0,0,0-2.22-1.12,7.53,7.53,0,0,0-5.65-.06,11.8,11.8,0,0,0-2.23,1.08,5.93,5.93,0,0,1-.87.54q-.4,0-2-1.68T11.85,21a.7.7,0,0,1,.23-.5,12,12,0,0,1,4.33-2.61,14,14,0,0,1,10.25.1,12,12,0,0,1,4.28,2.71.7.7,0,0,1,.22.51q0,.4-1.68,2T27.36,24.83Zm6.07-5.92a.92.92,0,0,1-.5-.18,26,26,0,0,0-5.5-3.47,15.74,15.74,0,0,0-9.63-.7,17.31,17.31,0,0,0-3.29,1.13A28.14,28.14,0,0,0,12,17a19.64,19.64,0,0,0-1.73,1.15,5.63,5.63,0,0,1-.68.48q-.37,0-2-1.68a7.86,7.86,0,0,1-1.66-2,.68.68,0,0,1,.23-.49A20.08,20.08,0,0,1,13.22,10a22.49,22.49,0,0,1,16.7.17,20.08,20.08,0,0,1,7,4.59.68.68,0,0,1,.22.49q0,.4-1.67,2t-2,1.63h0Zm6-5.91a.76.76,0,0,1-.49-.2,29.46,29.46,0,0,0-8.11-5.29,25.26,25.26,0,0,0-18.48-.19,29.55,29.55,0,0,0-8.22,5.13.76.76,0,0,1-.49.19q-.37,0-2-1.68T0,8.88a.7.7,0,0,1,.23-.5,28.6,28.6,0,0,1,9.85-6.25,31,31,0,0,1,23.16.24,28.6,28.6,0,0,1,9.72,6.45.7.7,0,0,1,.22.51q0,.4-1.68,2T39.43,13Z"/><ellipse class="c" cx="21.48" cy="29.8" rx="4.04" ry="4.05"/><polygon class="d" points="10.9 69 10.9 69.61 10.9 95.59 32.27 95.59 32.27 75.87 32.27 75.26 32.27 39.72 10.9 39.72 10.9 69"/><path class="d" d="M95.3,59.26v-.61a32.92,32.92,0,0,0-.87-6.83l-8,0c.33-2.55.87-6.35,1.41-10.16a19.56,19.56,0,0,0-11.42-3.2A23.72,23.72,0,0,0,65.3,40.9a29.32,29.32,0,0,0-9,8V39.72H36.4V95.6H57.76V68.76q0-7.63,2.39-10.59a7.72,7.72,0,0,1,6.29-3,7,7,0,0,1,5.45,2.16c1.32,1.46,1.92,4,1.92,7.44V95.55H84.37A41.19,41.19,0,0,1,89,80.72a51.78,51.78,0,0,1,6.34-9V60.13a5.1,5.1,0,0,0,0-.87"/><path class="d" d="M118.12,78.13c2-1.93,3.67-3.47,5.12-4.71s4.33-3.29,8.67-6.26A69.93,69.93,0,0,0,144,56.73a4.25,4.25,0,0,0,.42-.47A32.6,32.6,0,0,0,146.91,53,24.73,24.73,0,0,0,151,39.55a20.52,20.52,0,0,0-3.61-12,21.09,21.09,0,0,0-9.86-7.91C133.39,18,127.51,17.08,120,17.08c-7.19,0-12.87.87-16.91,2.73a21.68,21.68,0,0,0-9.49,7.77C91.35,31,89.85,43.91,89,49.94l21.42-.1c.61-4.34,1.73-13.84,3.47-15.53a9,9,0,0,1,6.67-2.61,9.11,9.11,0,0,1,6.53,2.49,8,8,0,0,1,2.6,6,11.93,11.93,0,0,1-2.6,6.87A34.37,34.37,0,0,1,122,52.23a8.18,8.18,0,0,0-.7.61c-1.73,1.46-3.81,3.11-6.2,4.9q-15.36,11.44-21,19.82a40.88,40.88,0,0,0-6.72,17.93h64.14V78l-33.3,0h0Z"/></svg>