<svg xmlns="http://www.w3.org/2000/svg" viewBox="0 0 352.1 229.04"><defs><style>.a{fill:#005f99;}.b{fill:#fff;}</style></defs><title>in2m-logo-white-review-blue</title><rect class="a" width="352.1" height="229.04"/><path class="b" d="M311.4,156.19H258.79V77.1H311.4v17h6.27V71.34A8.38,8.38,0,0,0,309.29,63H260.88a8.38,8.38,0,0,0-8.38,8.38v98.31a8.37,8.37,0,0,0,8.38,8.37h48.41a8.38,8.38,0,0,0,8.38-8.37V132.73H311.4Zm-7.63-88a2.14,2.14,0,1,1-2.14,2.14A2.15,2.15,0,0,1,303.77,68.2ZM273.87,69h22.44v2.45H273.87Zm21.44,100.07H274.86V162.8h20.45Z"/><path class="b" d="M324.76,97.11h-39.6a4,4,0,0,0-4.14,4.17V125a4.24,4.24,0,0,0,4.14,4.48h3.74l-4.63,13.42,16.27-13.42h24.23a4.76,4.76,0,0,0,4.76-4.48V101.28C329.51,98.83,327.2,97.11,324.76,97.11Zm-39.5,10.43h2.1v11.89h-2.1Zm5.25,17.21v1.16h-3.26a1.94,1.94,0,0,1-2-1.89v-3.09h2.1v2a1,1,0,0,0,1,.94h2.15Zm0-22.92V103h-2.15a1,1,0,0,0-1,.94v2h-2.1v-3.09a1.94,1.94,0,0,1,2-1.89h3.26Zm7,24.08H292.3v-2h5.25Zm0-22.92H292.3v-2h5.25Zm7.12,22.92h-5.25v-2h5.25Zm0-22.92h-5.25v-2h5.25Zm7.12,22.92h-5.25v-2h5.25Zm0-22.92h-5.25v-2h5.25Zm6.85,22.92h-5.25v-2h5.25Zm0-22.92h-5.25v-2h5.25Zm7,18.77V124a1.94,1.94,0,0,1-2,1.89h-3.25v-2h2.15a1,1,0,0,0,1-.94v-2h2.1Zm0-2.34h-2.1V107.54h2.1Zm0-15.38V106h-2.1v-1.73c0-.73-.13-1.25-1-1.25h-2.15v-2h3.36a1.93,1.93,0,0,1,1.89,1.88Z"/><path class="b" d="M72.84,83.85a12,12,0,0,1-1.17-.75,16.6,16.6,0,0,0-3-1.5,10.09,10.09,0,0,0-7.56-.08,15.8,15.8,0,0,0-3,1.44,7.93,7.93,0,0,1-1.2.72q-.53,0-2.73-2.23T52,78.7a.93.93,0,0,1,.3-.67,16.06,16.06,0,0,1,5.8-3.5,18.78,18.78,0,0,1,13.7.14,16.06,16.06,0,0,1,5.73,3.62.93.93,0,0,1,.29.68q0,.53-2.25,2.71T72.84,83.85Zm8.11-7.91a1.23,1.23,0,0,1-.67-.24,34.8,34.8,0,0,0-7.36-4.62A21.11,21.11,0,0,0,60,70.14a23.24,23.24,0,0,0-4.4,1.51,37.68,37.68,0,0,0-3.36,1.79q-1.48.9-2.34,1.53a7.53,7.53,0,0,1-.92.64q-.5,0-2.68-2.23t-2.18-2.76a.9.9,0,0,1,.3-.64A26.87,26.87,0,0,1,53.93,64a30.15,30.15,0,0,1,22.35.23,26.87,26.87,0,0,1,9.35,6.12.9.9,0,0,1,.29.65q0,.53-2.23,2.71t-2.73,2.18Zm8-7.89a1,1,0,0,1-.64-.27A39.44,39.44,0,0,0,77.5,60.72a32.12,32.12,0,0,0-12.34-2.47,32,32,0,0,0-12.39,2.21,39.54,39.54,0,0,0-11,6.84,1,1,0,0,1-.65.26q-.5,0-2.7-2.23t-2.19-2.76a.93.93,0,0,1,.3-.67,38.27,38.27,0,0,1,13.17-8.33,41.54,41.54,0,0,1,31,.32,38.21,38.21,0,0,1,13,8.6.93.93,0,0,1,.29.68q0,.53-2.25,2.71T89,68.05Z"/><circle class="b" cx="64.98" cy="90.49" r="5.4"/><polygon class="b" points="50.82 142.81 50.82 143.63 50.82 178.31 79.41 178.31 79.41 151.99 79.41 151.17 79.41 103.73 50.82 103.73 50.82 142.81"/><path class="b" d="M163.74,129.8V129a43.85,43.85,0,0,0-1.19-9.11l-10.68.06c.44-3.39,1.13-8.48,1.89-13.57-4.08-2.83-9.17-4.27-15.27-4.27a31.8,31.8,0,0,0-14.89,3.2c-4.08,2.14-8.11,5.66-12.06,10.62V103.73H84.94v74.59h28.59V142.5q0-10.18,3.2-14.14a10.34,10.34,0,0,1,8.42-4,9.37,9.37,0,0,1,7.29,2.89c1.76,1.95,2.58,5.28,2.58,9.93v41h14.08a54.9,54.9,0,0,1,6.16-19.79,69.12,69.12,0,0,1,8.48-12V130.94a6.8,6.8,0,0,0,0-1.13"/><path class="b" d="M194.27,155c2.64-2.58,4.9-4.65,6.85-6.28s5.78-4.4,11.56-8.36a93.51,93.51,0,0,0,16.21-13.89,5.67,5.67,0,0,0,.57-.63,43.53,43.53,0,0,0,3.27-4.34,33,33,0,0,0,5.53-18,27.34,27.34,0,0,0-4.84-16A28.2,28.2,0,0,0,220.22,77c-5.59-2.26-13.45-3.46-23.5-3.46-9.61,0-17.22,1.19-22.62,3.64a28.94,28.94,0,0,0-12.69,10.37c-3,4.52-5,21.8-6.16,29.85l28.65-.13c.82-5.78,2.32-18.47,4.65-20.74a12,12,0,0,1,8.92-3.46,12.2,12.2,0,0,1,8.73,3.33,10.65,10.65,0,0,1,3.46,8c0,2.89-1.19,6-3.52,9.17a45.93,45.93,0,0,1-6.85,6.85,10.92,10.92,0,0,0-.94.82c-2.32,1.95-5.09,4.15-8.29,6.53Q169.52,143.13,162,154.31a54.44,54.44,0,0,0-9,23.94h85.83V154.94l-44.55.06Z"/></svg>