<svg xmlns="http://www.w3.org/2000/svg" viewBox="0 0 37.75 37.75"><defs><style>.a{fill:#efefef;}.b{fill:#606060;}</style></defs><title>icon-avatar_1</title><rect class="a" width="37.75" height="37.75"/><path class="b" d="M31.73,36.23c0-3.92-.81-5.91-4.53-7.51s-4.89-2.94-4.89-5.82c0-1.72,1.13-1.16,1.63-4.33.21-1.31,1.21,0,1.4-3,0-1.19-.55-1.49-.55-1.49s.28-1.77.39-3.13a5.39,5.39,0,0,0-4-5.4c-.58-.6-1-1.54.81-2.48-3.91-.18-4.82,1.86-6.9,3.37a5.47,5.47,0,0,0-2.16,4.52c.11,1.36.39,3.13.39,3.13s-.55.3-.55,1.49c.19,3,1.19,1.7,1.4,3,.49,3.16,1.63,2.6,1.63,4.33,0,2.88-.37,3.86-4.08,5.45s-4.87,4.16-4.86,7.88c0,1.11,0,1.52,0,1.52H31.75s0-.41,0-1.52Z"/></svg>