<svg xmlns="http://www.w3.org/2000/svg" xmlns:xlink="http://www.w3.org/1999/xlink" viewBox="0 0 1000.18 500.35"><defs><style>.a{fill:url(#a);}.b{fill:none;}.c{fill:#4aa7de;}.d{fill:#fff;}.e{fill:#f8c44f;}.f{fill:#282d33;}.g{fill:url(#b);}.h{fill:url(#c);}.i{fill:url(#d);}.j{fill:url(#e);}.k{fill:url(#f);}.l{fill:url(#g);}.m{fill:url(#h);}.n{fill:url(#i);}.o{fill:url(#j);}.p{fill:url(#k);}.q{fill:url(#l);}.r{fill:url(#m);}.s{fill:url(#n);}.t{fill:url(#o);}.u{fill:url(#p);}.v{fill:url(#q);}.w{fill:#2e95d1;}.x{fill:url(#r);}.y{fill:url(#s);}.z{fill:url(#t);}.aa{fill:url(#u);}.ab{fill:url(#v);}.ac{fill:url(#w);}.ad{fill:url(#x);}.ae{fill:url(#y);}.af{fill:url(#z);}.ag{fill:url(#aa);}.ah{fill:#63bdea;}</style><radialGradient id="a" cx="500" cy="250" r="395.28" gradientUnits="userSpaceOnUse"><stop offset="0" stop-color="#fff"/><stop offset="0.09" stop-color="#ffedd8"/><stop offset="0.21" stop-color="#ffd5a7"/><stop offset="0.33" stop-color="#ffc17d"/><stop offset="0.46" stop-color="#ffb05b"/><stop offset="0.59" stop-color="#ffa340"/><stop offset="0.72" stop-color="#ff9a2d"/><stop offset="0.86" stop-color="#ff9522"/><stop offset="1" stop-color="#ff931e"/></radialGradient><linearGradient id="b" x1="-33.78" y1="235.01" x2="917.07" y2="235.01" gradientUnits="userSpaceOnUse"><stop offset="0" stop-color="#63bdea"/><stop offset="1" stop-color="#fff"/></linearGradient><linearGradient id="c" x1="-34.23" y1="227.2" x2="917.41" y2="227.2" xlink:href="#b"/><linearGradient id="d" x1="-33.78" y1="282.04" x2="917.07" y2="282.04" xlink:href="#b"/><linearGradient id="e" x1="-19.94" y1="335.06" x2="901.81" y2="335.06" xlink:href="#b"/><linearGradient id="f" x1="-32.38" y1="173.66" x2="916.61" y2="173.66" xlink:href="#b"/><linearGradient id="g" x1="-35.41" y1="301.38" x2="918.34" y2="301.38" xlink:href="#b"/><linearGradient id="h" x1="-33.78" y1="260.21" x2="917.07" y2="260.21" xlink:href="#b"/><linearGradient id="i" x1="-40.75" y1="387.1" x2="926.01" y2="387.1" xlink:href="#b"/><linearGradient id="j" x1="-33.55" y1="354.59" x2="915.69" y2="354.59" xlink:href="#b"/><linearGradient id="k" x1="-33.78" y1="408.03" x2="917.07" y2="408.03" xlink:href="#b"/><linearGradient id="l" x1="-33.78" y1="456.28" x2="917.07" y2="456.28" xlink:href="#b"/><linearGradient id="m" x1="-33.78" y1="400.97" x2="917.07" y2="400.97" xlink:href="#b"/><linearGradient id="n" x1="-33.78" y1="391.42" x2="917.07" y2="391.42" xlink:href="#b"/><linearGradient id="o" x1="-29.59" y1="249.1" x2="913.75" y2="249.1" xlink:href="#b"/><linearGradient id="p" x1="-29.14" y1="285.85" x2="913.63" y2="285.85" xlink:href="#b"/><linearGradient id="q" x1="-33.78" y1="192.75" x2="917.07" y2="192.75" xlink:href="#b"/><linearGradient id="r" x1="-9469.11" y1="2002.78" x2="-9250.46" y2="2002.78" gradientTransform="translate(-1644.26 -9220.22) rotate(-90)" xlink:href="#b"/><linearGradient id="s" x1="-9527.59" y1="2089.94" x2="-9317.58" y2="2089.94" gradientTransform="translate(-1644.26 -9220.22) rotate(-90)" xlink:href="#b"/><linearGradient id="t" x1="-9528.62" y1="2074.32" x2="-9310.64" y2="2074.32" gradientTransform="translate(-1644.26 -9220.22) rotate(-90)" xlink:href="#b"/><linearGradient id="u" x1="-9528.56" y1="2074.44" x2="-9310.75" y2="2074.44" gradientTransform="translate(-1644.26 -9220.22) rotate(-90)" xlink:href="#b"/><linearGradient id="v" x1="-12.21" y1="301.81" x2="895.88" y2="301.81" xlink:href="#b"/><linearGradient id="w" x1="-9527.54" y1="2091.75" x2="-9338.61" y2="2091.75" gradientTransform="translate(-1644.26 -9220.22) rotate(-90)" xlink:href="#b"/><linearGradient id="x" x1="-9528.56" y1="2083.25" x2="-9290.7" y2="2083.25" gradientTransform="translate(-1644.26 -9220.22) rotate(-90)" xlink:href="#b"/><linearGradient id="y" x1="-9528.56" y1="2089.46" x2="-9290.7" y2="2089.46" gradientTransform="translate(-1644.26 -9220.22) rotate(-90)" xlink:href="#b"/><linearGradient id="z" x1="839.94" y1="392.54" x2="1059.95" y2="392.54" xlink:href="#b"/><linearGradient id="aa" x1="839.94" y1="347.92" x2="1060.2" y2="347.92" xlink:href="#b"/></defs><title>img-banner-Charts-Orange_1</title><path class="a" d="M0,0H1000V500H0Z"/><path class="b" d="M505.66,96.35a72.75,72.75,0,0,1,0-27h-14a31,31,0,0,0-2,8.28c0,.06,0,0,0,.06-.06.47-.11.88-.15,1.35,0,.28,0,.54-.06.82s0,.62-.06.94c0,.64,0,1.28,0,1.93s0,1.29,0,1.94c0,.32,0,.64.06,1s0,.56.06.84c0,.47.09.94.15,1.41,0,.05,0,0,0,.06a45.57,45.57,0,0,0,2,8.4Z"/><path class="b" d="M149.08,415.54,173.18,391V356.72a37.52,37.52,0,0,0-24.1,58.82Z"/><path class="b" d="M506.42,100.35H493a42.22,42.22,0,0,0,25.66,23C513.17,118.32,508.81,110.35,506.42,100.35Z"/><circle class="b" cx="646.07" cy="128.87" r="5.36"/><path class="b" d="M241.19,298.35h5v-8h4v8h5.09c.34,0,.91-.21.91-.55V275.48c0-.34-.58-.13-.91-.13H241.19c-.34,0-1-.2-1,.13v22.32C240.18,298.14,240.84,298.35,241.19,298.35Z"/><path class="b" d="M174,298.35h5.19v-8h4v8h4.89c.33,0,.11-.22.11-.55V275.48c0-.34.23-.13-.11-.13H174c-.34,0-.81-.2-.81.13v22.32C173.18,298.14,173.65,298.35,174,298.35Z"/><path class="b" d="M574,79.84c0-.28,0-.57-.06-.85,0-.47-.09-.93-.15-1.4,0-.06,0,.09,0,0a31,31,0,0,0-2-8.28h-14a72.78,72.78,0,0,1,0,27h14a45.42,45.42,0,0,0,2-8.39c0-.06,0-.07,0-.12.06-.47.11-.91.15-1.37,0-.28,0-.55.06-.84s0-.63.06-1c0-.64,0-1.29,0-1.94s0-1.3,0-1.94C574.06,80.47,574,80.16,574,79.84Z"/><path class="b" d="M518.67,42.33a42.21,42.21,0,0,0-25.65,23h13.4C508.81,55.35,513.17,47.38,518.67,42.33Z"/><path class="b" d="M533.18,96.35h21a70.67,70.67,0,0,0,0-27h-21Z"/><path class="b" d="M509.22,69.35a70.63,70.63,0,0,0,0,27h21v-27Z"/><path class="b" d="M170.18,297.79V287.35H164c-7.46,0-12.84-3-16.84-8.93v53.93h26V301.86C171.18,301.57,170.18,299.87,170.18,297.79Z"/><path class="b" d="M557,65.35h13.42c-.13,0-.25-.53-.38-.81s-.28-.55-.42-.82-.33-.64-.5-1-.3-.54-.46-.82-.36-.63-.54-.94-.33-.53-.49-.79-.39-.61-.59-.91l-.53-.77c-.21-.3-.41-.59-.63-.88l-.56-.74-.67-.85-.6-.71-.71-.82-.63-.69L562,53l-.66-.66-.78-.75-.69-.62-.82-.71-.72-.59-.85-.67-.75-.56-.88-.63-.78-.53-.91-.58-.8-.49-.94-.54-.83-.45-1-.5-.85-.41-1-.45-.87-.38-1-.4-.89-.33-1-.35-.17-.08C550.25,47.41,554.6,55.35,557,65.35Z"/><polygon class="b" points="475.18 273.35 476.01 273.35 485.49 264.35 477.18 264.35 477.18 253.34 496.48 253.34 507.59 242.34 469.18 242.34 469.18 251.44 469.18 280.8 475.18 274.48 475.18 273.35"/><rect class="b" x="244.18" y="302.35" width="8" height="30"/><path class="b" d="M733.92,245a76.05,76.05,0,0,0-49.22-19.35l1.07,19a57.2,57.2,0,0,1,35.53,14.51l.4.38,13.4-13.4C734.71,245.7,734.33,245.32,733.92,245Z"/><path class="b" d="M265.24,287.35h-6.06v10.45c0,2.07-1,3.78-3,4.07v30.48h26v-54C278.18,284.33,272.7,287.35,265.24,287.35Z"/><rect class="b" x="469.18" y="318.35" width="59" height="6"/><rect class="b" x="244.18" y="240.35" width="8" height="31"/><path class="b" d="M192.18,275.48v8.87h45v-8.87c0-2.07,1-3.78,3-4.07V240.35h-52v31.06C190.18,271.7,192.18,273.4,192.18,275.48Zm36-1.13h1v4h-1Zm-10,0h5v4h-5Zm-9,0h5v4h-5Zm-9,0h4v4h-4Z"/><rect class="b" x="177.18" y="240.35" width="8" height="31"/><path class="b" d="M259.18,275.48v8.87h6.06c12.2,0,16.94-10.85,16.94-20.11V244.35h0v-4h-26v31.06C258.18,271.7,259.18,273.4,259.18,275.48Z"/><rect class="b" x="177.18" y="302.35" width="8" height="30"/><path class="b" d="M729.68,335.37,743.87,348a76.31,76.31,0,0,0,3.36-87.52l-13.84,13.84A57.66,57.66,0,0,1,729.68,335.37Z"/><path class="b" d="M557,100.35c-2.39,10-6.74,17.83-12.24,22.88.06,0,.11-.1.17-.12.35-.12.7-.27,1-.39s.59-.24.89-.35l1-.41.87-.38,1-.45.85-.42,1-.5.83-.45.94-.54.8-.49.91-.58.78-.53.88-.63.75-.56.85-.67.72-.6.81-.7.7-.63.78-.74.67-.66.74-.78.63-.69.71-.81.6-.72.67-.85.57-.75c.21-.29.42-.58.62-.88l.53-.77c.2-.3.39-.6.58-.91s.34-.53.5-.8.36-.62.54-.94.31-.55.46-.83.33-.64.5-1,.29-.42.42-.71.25-.69.38-.69Z"/><path class="b" d="M951.7,414.35H933.19c3.28,5,6.74,11.61,9.25,15.54C945,426,948.41,419.35,951.7,414.35Z"/><path class="b" d="M237.18,297.79V287.35h-45v10.45c0,2.07-2,3.78-4,4.07v30.48h52V301.86C238.18,301.57,237.18,299.87,237.18,297.79Z"/><path class="b" d="M528.18,314.35v-66.6l-8,8.11v8.5H512l-9.48,9h6.61v4h-8V275l-8.43,8.33h3.43v4h-7l-6.3,6h.26v3H479.4l-10.22,11v7Zm-14-41h8v4h-8Zm0,10h8v4h-8Zm0,10h8v3h-8Zm0,10h8v3h-8Zm-13-20h8v4h-8Zm0,10h8v3h-8Zm0,10h8v3h-8Zm-13-10h8v3h-8Zm0,10h8v3h-8Zm-5,0v3h-8v-3Z"/><path class="b" d="M905.21,224.18l.28-.26Z"/><path class="b" d="M903.84,225.77l.27-.36Z"/><path class="b" d="M903.26,226.66l.25-.41Z"/><path class="b" d="M603.7,392.24a12.87,12.87,0,1,0,12.87-12.87A12.89,12.89,0,0,0,603.7,392.24Zm14.48,7.1h-3v-14h3Z"/><path class="b" d="M906,223.49l.28-.21Z"/><path class="b" d="M902.77,227.6c.07-.16.14-.31.22-.46C902.91,227.29,902.84,227.45,902.77,227.6Z"/><path class="b" d="M904.49,224.94l.28-.31Z"/><path class="b" d="M147.18,240.77v4.58h0v19c0,14.68,8.85,20,16.84,20h6.16v-8.87c0-2.07,1-3.78,3-4.07V240.35H159.53l6.4,12.27Z"/><path class="b" d="M901.83,230.83c0-.23.06-.47.11-.7C901.89,230.36,901.86,230.6,901.83,230.83Z"/><path class="b" d="M971.38,414.35H955.73c-5.45,10-11.36,18.82-11.81,19.51L942.44,436,941,433.92c-.46-.69-6.37-9.57-11.81-19.57H876.29c-17.41,0-31.94-13-35.51-29H785.85a11.3,11.3,0,0,1-9.68-11.22v-5.78h21v-136a11.07,11.07,0,0,1,9.74-11.2c3.07,0,99.88,0,104.89,0l-.2,0A10.07,10.07,0,0,1,913,221a11.21,11.21,0,0,1,11.2,11.28v12h-22v45.25c0-.49,1-1,2-1.4v-1.85h3.41c3.08-1,6.59-2.24,9.59-3.07v-4.93h4v4.17a53.11,53.11,0,0,1,10.75-1,59.53,59.53,0,0,1,59,51.4,42.66,42.66,0,0,1,9.29-1.48V.35H.18V318.16l52.21,52.3a40.46,40.46,0,0,1,29-19.17l1.83-.28v41.33L109.06,426l-.8.5,33.07,33,26.73-26.72a40.66,40.66,0,0,1-15.68-8.65l2.34-2.63A37.17,37.17,0,0,0,171,429.92l4.29-4.29a32.12,32.12,0,0,1-17-7.82l22.36-22.46h24.7l4.91-5H181.18V361.42a31.86,31.86,0,0,1,30.13,27.91l4.28-4.16a37.1,37.1,0,0,0-34.41-28.72l.2-3.52a40.71,40.71,0,0,1,37.21,29.34l41.2-41.37,68.4,68.58V388.35h25v7.6l45-44.26V331.35h20.17L432.18,317v-8.65h-21v2h-95V300.07L294.8,321.58l-2.56-2.49,23.93-24V241.35h-11v-4h11v-7h-11v-4h11v-8h-11v-3h11v-8h-11v-4h11v-8h-11v-3h11v-23h23v-86H317.86l20.33-26.57,20.33-26.53,20.33,26.55,20.33,26.55h-21v86h10v-.5l-.29.5h0l23.29,22.41V143.35H389.4l20.33-26.45,20.33-26.47,20.33,26.46,20.33,26.46H449.18v19.52c2,1,4,3.13,4,5.59v47.89h0v3h-2v9.75L490,190.35H476.18v-4h22v22h-3v-18h-1.26l.58.43-43.33,43.31v32.27h2v4h-1v8.37l-1.58.34c-.33.08-.42.56-1.42,1.29v19.93l16-16V241.26a3,3,0,0,1,2.87-2.92h43.06l28.23-28.16a48.1,48.1,0,0,1-3.11-6.79l-15.91,1.25L517.46,187l16-4a48.42,48.42,0,0,1,4.41-16.85L525.72,155.8l10.47-14.51,14.09,8.48a48.37,48.37,0,0,1,15-8.79l-1.23-15.91,17.66-2.86,4,16a48.48,48.48,0,0,1,16.85,4.41l10.38-12.12,14.51,10.47L619,155a48.55,48.55,0,0,1,8.79,15l15.91-1.23,2.86,17.66-16,4a48.46,48.46,0,0,1-4.41,16.85l12.12,10.38-5,7,10,10a77.51,77.51,0,0,1,30-10.27l1.27,22.5a55.38,55.38,0,0,0-14.62,4.39l35,35L719.22,262l-.26-.24A53.66,53.66,0,0,0,684.08,248l-1.64,0L681,222.08h2.26a79.57,79.57,0,0,1,53,20.26c.46.41.89.83,1.33,1.25l17.83-18.07c-1.1.05-2.2-.16-3.3-.16h0A69.44,69.44,0,0,1,720.57,218l38.58-52.83,4-5.18V87.64a68,68,0,0,1,38.13,19.65A69.78,69.78,0,0,1,821.48,160l70.85-70.66H859.18v-19h65v65h-19V102.13L749.55,258a79.81,79.81,0,0,1-4.19,93.73l-1.11,1.45-19.36-17.32,1-1.3A54.08,54.08,0,0,0,730.78,277l-35.91,35.91-9.28-9.28h-58a55.83,55.83,0,0,0,18.46,39.94c.25.22.51-.18.77.82h16.35v3h-11.8a48,48,0,0,0,16.8,8.15v-1.15h20v2.85A55,55,0,0,0,721,342.73l16.89,15a77,77,0,0,1-49.69,22.06v.55h-20V378.6a21.89,21.89,0,0,1-5-1.34v3.09h-20v-4H660a95.14,95.14,0,0,1-16.5-7h-.3v-.24c-2-1-3-2.17-5-3.35v3.59h-19v-4h18.91c-2.41-1-4.74-3.39-7-5.39-.64-.57-1.26-.61-1.88-1.61H619.18v-4h6.56a76.54,76.54,0,0,1-20.57-48.42c-.05-.9-.07-1.58-.09-2.58H597.7l-7.06,14.31-44,0,7.13-14.28h-3.16a1.52,1.52,0,1,1,0-3h3l-7-14.15,44,.07,7,14.09h7.43a77.26,77.26,0,0,1,16.38-46.21l16.81,14.94a55.27,55.27,0,0,0-10.66,31l54.47,0-45.27-45.28-9-8,.49-.47-19.13-19.13a48.52,48.52,0,0,1-10.49,5.34l1.23,15.91-17.66,2.86-4-16a48.33,48.33,0,0,1-16.85-4.41L551.05,243l-10.29-7.51-8.58,8.7v80.55a2.81,2.81,0,0,1-3,2.57H468.05a2.71,2.71,0,0,1-2.87-2.57V310.88l-7,7.56V430.35h-26V343.56l-9,9.57v77.22h-25v-52.1l-18.36,18.1h8.36v34h-25V412.94l-10,9.57v7.84H346l-11.56,11.58-15.26-15.44v3.87h-25v-23h5.52L260,367.54l-43.74,43.71A41,41,0,0,1,197,430.46l-55.64,55.63L87.7,432.42l-.63,0a40.82,40.82,0,0,1-40.77-40.77c0-.21.1-.42.1-.64L.18,344.72V500.35h1000v-86ZM363.18,353.4V361a7.5,7.5,0,0,1-15,0v-7.6a7.5,7.5,0,0,1,15,0Zm-4.84-24L332.75,368l-2.94-1.94,25.58-38.67Zm-33.16,5.09a7.5,7.5,0,0,1,15,0V342a7.5,7.5,0,0,1-15,0ZM313,139.61l-3.5.42c-.18-1.5-.42-3-.71-4.51l3.46-.67C312.58,136.42,312.83,138,313,139.61Zm-1.85-9.46-3.4.93c-.4-1.45-.85-2.92-1.36-4.35l3.32-1.17C310.27,127.06,310.75,128.61,311.17,130.15ZM308,121.07l-3.23,1.41c-.61-1.38-1.27-2.76-2-4.11l3.11-1.65C306.62,118.15,307.32,119.61,308,121.07Zm-7.2-12.51c.94,1.29,1.85,2.64,2.7,4l-3,1.87c-.8-1.28-1.67-2.56-2.56-3.78Zm-6.24-7.34c1.12,1.14,2.21,2.33,3.25,3.56l-2.68,2.28c-1-1.16-2-2.29-3.08-3.37Zm-7.24-6.37c1.28,1,2.53,2,3.73,3.05l-2.33,2.64c-1.13-1-2.32-2-3.54-2.89ZM279.2,89.6c1.4.77,2.8,1.61,4.14,2.48l-1.92,3c-1.27-.83-2.59-1.61-3.92-2.35Zm-8.78-4c1.5.56,3,1.18,4.46,1.85l-1.47,3.2c-1.38-.63-2.8-1.22-4.22-1.75Zm-9.26-2.68c1.57.33,3.14.73,4.68,1.17l-1,3.38c-1.45-.42-2.94-.79-4.43-1.11Zm-9.54-1.31c1.6.1,3.21.26,4.8.48l-.48,3.49c-1.13-.15-2.28-.27-3.43-.36v.12l-4.7.05,0-3.52,3.83,0Zm-8.53.3,0,3.52-4.69,0,0-3.52Zm-9.39.1,0,3.52-4.7,0,0-3.52Zm-9.39.1,0,3.52-4.69.05,0-3.52Zm-9.39.1,0,3.52-4.7,0,0-3.52Zm-9.39.1,0,3.52-4.7.05,0-3.52Zm-9.39.1,0,3.52-4.7.05,0-3.52Zm-9.39.1,0,3.52-4.7.05,0-3.52Zm.46,105.24,4.21,2.08L189.85,193l-4.21-2.08ZM183,185.66l-1.56,3.16-4.21-2.08,1.56-3.16ZM177.35,82.6l0,3.52-4.7.05,0-3.52Zm-7,96.81,4.21,2.08L173,184.65l-4.21-2.08ZM168,82.7l0,3.52-4.7,0,0-3.52Zm-9.39.1,0,3.52-4.7.05,0-3.52Zm-9.39.1,0,3.52-4.7.05,0-3.52Zm-9.39.1,0,3.52-4.7,0,0-3.52Zm-9.39.1,0,3.52-4.7,0,0-3.52Zm-9.39.1,0,3.52-4.69.05,0-3.52Zm-9.39.1,0,3.52-4.7,0,0-3.52Zm-9.39.1,0,3.52-4.69,0,0-3.52Zm-7.62,58.54L98.82,144l-1.56,3.16L93,145.1ZM92.84,83.5l0,3.52-4.7.05,0-3.52Zm-6.65,54.28,4.21,2.08L88.84,143l-4.21-2.08ZM83.45,83.6l0,3.52-4.69.05,0-3.52Zm-9.39.1,0,3.52-4.7.05,0-3.52Zm-6.84-.06L67,87.16a19.77,19.77,0,0,0-2.94,0l-.31-3.51A22.82,22.82,0,0,1,67.22,83.64Zm-8.45,1L59.86,88a19.33,19.33,0,0,0-3.91,1.76l-1.79-3A22.74,22.74,0,0,1,58.78,84.69ZM44.48,98.21l3.29,1.26a19.24,19.24,0,0,0-1.08,4.15l-3.48-.5A22.75,22.75,0,0,1,44.48,98.21ZM43,108.2l3.51-.27a19.3,19.3,0,0,0,.81,4.21l-3.36,1A22.66,22.66,0,0,1,43,108.2Zm6,13.72a22.86,22.86,0,0,1-3-4.08l3-1.77a19.37,19.37,0,0,0,2.56,3.45Zm.69-26.24-2.92-2a22.84,22.84,0,0,1,3.28-3.87l2.42,2.56A19.38,19.38,0,0,0,49.74,95.67Zm7.64,31.94a22.73,22.73,0,0,1-4.49-2.38l2-2.91a19.18,19.18,0,0,0,3.79,2Zm6.21,2.92-4.21-2.08,1.56-3.16,4.21,2.08Zm-.81-18.79-6,3-1.56-3.16,6-3a8.76,8.76,0,0,1,.36-5.64L56,99.23l2-2.93L63.53,100a8.85,8.85,0,0,1,5.07-2.51L69,90.83l3.51.22-.43,6.67a8.83,8.83,0,0,1,4.36,2.71c.12.14.23.29.34.43l6-3L84.37,101l-6,3a8.77,8.77,0,0,1-.37,5.64l5.58,3.71-2,2.93-5.58-3.71A8.86,8.86,0,0,1,71,115.1l-.43,6.68-3.52-.23.43-6.67A8.88,8.88,0,0,1,62.78,111.74Zm19.2,24-1.56,3.16-4.21-2.08,1.56-3.16Zm-8.42-4.16L72,134.69l-4.21-2.08,1.56-3.16ZM109.06,415c-6.28-8.12-12.87-16.7-16.74-21.7h26.83a32,32,0,0,1-9.4,21C109.54,414.56,109.3,414.83,109.06,415Zm-19.89-26.7V359.48c16,1,28.45,12.87,29.89,28.87Zm25,33.58-2.36-2.61a37.25,37.25,0,0,0-23.2-64.81l.17-3.52a40.77,40.77,0,0,1,25.4,70.94Zm62-29.49-27.63,28.4a40.92,40.92,0,0,1,27.63-68.09Zm109-57.1h-141V240.26a50.28,50.28,0,0,1-27,8,49.28,49.28,0,0,1-11.89-97.13l-3.78-1.86,1.55-3.16,4.2,2.08L105.86,151a49.25,49.25,0,0,1,55.22,26l.87-1.77,4.21,2.08-1.56,3.16-2.47-1.22a49.08,49.08,0,0,1,4.11,19.7,48.38,48.38,0,0,1-11.73,31.63l3.16,5.75h127.5Zm-50-115v11h-4v-7h-33v7h-4v-11Zm-32.7-21.12,1.56-3.16,4.21,2.08-1.56,3.16Zm12.63,6.24-4.21-2.08,1.56-3.16,4.21,2.08Zm2.44-2.87c1.33.72,2.71,1.41,4.09,2l-1.45,3.21c-1.46-.66-2.91-1.38-4.32-2.14Zm7.1,7.06,1.21-3.31c1.42.52,2.88,1,4.34,1.41l-1,3.39C227.69,210.71,226.15,210.21,224.65,209.66Zm48.82-75.72-18.36,10.6a9.55,9.55,0,0,1,.77,3.74,8.92,8.92,0,0,1-2.79,6.49,9.27,9.27,0,0,1-6.76,2.57h0a9.35,9.35,0,0,1-9.55-9.3,9.18,9.18,0,0,1,2.79-6.62,9.39,9.39,0,0,1,6.76-2.75,9.53,9.53,0,0,1,6.75,2.83l.07.09,18.57-10.71.88,1.53h0Zm1.22,70,1.54,3.17c-1.45.7-2.93,1.36-4.41,1.95l-1.3-3.27C271.92,205.19,273.32,204.57,274.69,203.9Zm-7.41,6.73c-1.53.48-3.09.91-4.65,1.28l-.81-3.43c1.47-.35,3-.76,4.4-1.21Zm-9.38,2.22c-1.58.25-3.19.45-4.79.59l-.3-3.51c1.51-.13,3-.32,4.53-.56Zm-9.6.82h-.83c-1.32,0-2.66,0-4-.12l.21-3.52c1.26.08,2.53.11,3.77.11h.79Zm-9.16-4.06-.46,3.49c-1.59-.21-3.19-.48-4.75-.8l.71-3.45C236.12,209.16,237.63,209.41,239.14,209.61Zm-40.87-12.47-4.21-2.08,1.56-3.16,4.21,2.08Zm80.44,4.62c1.32-.76,2.62-1.58,3.86-2.43l2,2.91c-1.32.9-2.69,1.76-4.08,2.57Zm9.73-2.38-2.19-2.76c1.19-.94,2.36-1.94,3.47-3l2.38,2.59C290.93,197.33,289.7,198.39,288.44,199.38Zm-2-11.19-.3.29h0l-9.85-11.07-2.58-2.9a37.59,37.59,0,0,0,10.58-26.24c0-.74,0-1.48-.07-2.21,0-.22,0-.44,0-.67q-.06-.8-.15-1.59c0-.22-.05-.44-.08-.66q-.13-.95-.3-1.88l0-.27q-.22-1.13-.51-2.23l-.06-.2q-.27-1-.59-2l-.11-.33c-.23-.69-.48-1.37-.74-2l0-.05a37.66,37.66,0,0,0-2-4.28,38.1,38.1,0,0,0-6.37-8.42,37.92,37.92,0,0,0-54.23,53l-2.6,2.93-9.83,11.05A56.59,56.59,0,1,1,300,130.38l.09.27q.75,2.29,1.31,4.65c.08.33.15.65.22,1s.2.93.29,1.4.22,1.2.31,1.8c0,.32.09.64.14,1q.12.88.22,1.77c0,.19,0,.38.07.58.08.78.13,1.56.17,2.35,0,.22,0,.44,0,.67,0,.82.06,1.65.06,2.47A56.14,56.14,0,0,1,286.42,188.2Zm9.12,4.67L293,190.45c1-1.11,2.05-2.26,3-3.44l2.73,2.22C297.71,190.47,296.64,191.69,295.54,192.86Zm6.08-7.48-2.89-2c.87-1.24,1.7-2.53,2.48-3.84l3,1.8C303.42,182.71,302.54,184.07,301.62,185.38Zm4.93-8.29-3.15-1.57c.68-1.36,1.31-2.76,1.89-4.16l3.26,1.34C307.94,174.18,307.27,175.66,306.55,177.09Zm3.66-8.92-3.35-1.09c.47-1.44.89-2.92,1.26-4.39l3.42.85C311.16,165.09,310.71,166.65,310.21,168.17Zm2.32-9.35-3.47-.59c.25-1.49.46-3,.61-4.52l3.51.34C313,155.64,312.8,157.25,312.53,158.82Zm.94-9.59-3.52-.09q0-.82,0-1.64,0-1.47-.07-2.92l3.52-.16q.07,1.53.07,3.09Q313.49,148.36,313.47,149.23Zm179,22.86a19.84,19.84,0,1,1,19.85-19.84A19.84,19.84,0,0,1,492.48,172.09Zm39.23-43.74h-1.54v.28a45.65,45.65,0,0,1-43.86-39.73s-.06,0-.06-.05c-.08-.62-.19-1.25-.24-1.88,0-.26-.05-.51-.07-.77,0-.43-.08-.86-.1-1.29,0-.72-.06-1.45-.06-2.17s0-1.45.05-2.17c0-.44.06-.87.09-1.3,0-.25,0-.5.06-.75.06-.64.13-1.27.22-1.9,0,0,.12,0,.12,0a45.65,45.65,0,0,1,43.86-39.73v-.5h1.54a46.19,46.19,0,0,1,45.51,40s0,.15,0,.17c.08.62.16,1.3.22,1.93,0,.26,0,.55.06.8,0,.43.07.87.09,1.3,0,.72.05,1.45.05,2.18s0,1.45-.05,2.18c0,.43-.06.86-.09,1.29,0,.26,0,.52-.06.77-.06.63-.13,1.26-.22,1.88,0,0,0-.13,0-.11A45.85,45.85,0,0,1,531.71,128.35Zm123.24.52a8.84,8.84,0,0,1-.47,2.83l5.8,3.35-1.76,3-5.63-3.35a8.2,8.2,0,0,1-4.72,2.84v6.77h-4v-6.77a8.47,8.47,0,0,1-4.82-2.84l-5.77,3.35L631.84,135l5.81-3.35a8.78,8.78,0,0,1,0-5.65l-5.8-3.35,1.76-3.05,5.74,3.35a8.47,8.47,0,0,1,4.82-2.83v-6.81h4v6.81a8.2,8.2,0,0,1,4.72,2.84l5.72-3.35,1.72,3L654.51,126A8.82,8.82,0,0,1,655,128.87Zm54.88,82.65A68.46,68.46,0,0,1,690,188l48.35-15.71Zm40.34-56.43-79.33,25.81a84.89,84.89,0,0,1,55-105.15,77.66,77.66,0,0,1,24.35-4.13Zm-87,182.26h-20v-4h20Zm25,10h-20v-3h20Zm0-10h-20v-4h20Zm0-11h-20v-4h20Zm0-11h-20v-4h20Zm-439,115h-25v-11h25Zm35,0h-25v-21h25Zm185.47-8.95-6.38-4.12,1.91-3,3.7,2.39,6.67-8.36,2.75,2.2Zm0-32.93-6.38-4.12,1.91-3,3.7,2.39,6.67-8.36,2.75,2.2Zm0-32.93-6.38-4.11,1.91-3,3.7,2.39,6.67-8.36,2.75,2.2Zm59.53,66.81h-45v-3h45Zm0-11h-45v-3h45Zm0-22h-45v-3h45Zm0-11h-45v-3h45Zm0-22h-45v-3h45Zm0-11h-45v-3h45Zm109,35H627.42a15,15,0,0,1,4.77,7h6v3h-5.29c0,1,.07,1.18.07,1.67a16.39,16.39,0,1,1-32.78-.06c0-.48,0-.61.07-1.61h-6.07v-3h6.77a15,15,0,0,1,4.77-7H594.18v-4h18v.16a14.48,14.48,0,0,1,9,.12v-.28h17Zm25,10h-20v-3h20Zm25,0h-20v-3h20Z"/><path class="b" d="M901.72,232.33c0-.38,0-.75.06-1.11C901.74,231.58,901.72,232,901.72,232.33Z"/><path class="b" d="M902.36,228.61c.06-.17.12-.35.19-.52C902.48,228.26,902.42,228.44,902.36,228.61Z"/><path class="b" d="M906.85,222.88l.24-.15Z"/><path class="b" d="M902,229.68c0-.2.09-.39.15-.59C902.14,229.28,902.09,229.48,902,229.68Z"/><path class="b" d="M533.18,125c9-1.17,16.74-10.68,20.23-24.68H533.18Z"/><path class="b" d="M84.07,428.78,49.95,394.67A37.3,37.3,0,0,0,84.07,428.78Z"/><path class="b" d="M352.18,353.4V361a3.51,3.51,0,1,0,7,0v-7.6a3.51,3.51,0,1,0-7,0Z"/><path class="b" d="M332.18,345.84a4,4,0,0,0,4-3.8v-7.6a4,4,0,0,0-8,0V342A4,4,0,0,0,332.18,345.84Z"/><path class="b" d="M80.18,393.54V355.11A37,37,0,0,0,55,373l39.94,39.87Z"/><path class="b" d="M533.18,40.45V65.35h20.23C549.91,51.35,542.18,41.62,533.18,40.45Z"/><path class="b" d="M907.75,222.35l.15-.07Z"/><path class="b" d="M75.15,106.64a5.36,5.36,0,0,0-5-5.7h-.35a5.37,5.37,0,1,0,5.36,5.71Z"/><path class="b" d="M530.18,125V100.35H510C513.5,114.35,521.18,123.85,530.18,125Z"/><path class="b" d="M530.18,40.45c-9,1.17-16.68,10.89-20.17,24.89h20.17Z"/><path class="c" d="M709.83,211.51l28.5-39.23L690,188A68.46,68.46,0,0,0,709.83,211.51Z"/><path class="d" d="M676.55,117.9a84.25,84.25,0,0,0-5.69,63l79.33-25.81V71.62a77.57,77.57,0,0,0-24.34,4.13A84.14,84.14,0,0,0,676.55,117.9Z"/><path class="e" d="M801.31,107.29a68,68,0,0,0-38.13-19.65V160l-4,5.3L720.63,218a69.22,69.22,0,0,0,31.5,7.31h0c1.11,0,2.21.21,3.3.16l66-65.88A69,69,0,0,0,801.31,107.29Z"/><path class="f" d="M71,115.06v0a8.86,8.86,0,0,0,5.06-2.51l0,0,2-2.93,0,0a8.77,8.77,0,0,0,.37-5.64l0,0-1.56-3.16,0,0c-.11-.14-.22-.29-.34-.43a8.83,8.83,0,0,0-4.36-2.71v.05l-3.51-.22v0A8.85,8.85,0,0,0,63.53,100l0,0-2,2.93,0,0a8.76,8.76,0,0,0-.36,5.64l0,0,1.56,3.16h0a8.88,8.88,0,0,0,4.7,3.14v-.05ZM64.44,106a5.37,5.37,0,0,1,5.35-5h.35a5.36,5.36,0,0,1,5,5.7,5.36,5.36,0,1,1-10.7-.69Z"/><path class="f" d="M70.36,97.43a9,9,0,0,1,1.75.29l.43-6.67L69,90.83l-.43,6.68A9.06,9.06,0,0,1,70.36,97.43Z"/><path class="f" d="M72.1,97.77v-.05a8.88,8.88,0,0,0-3.52-.22v0Z"/><path class="f" d="M70.57,121.78,71,115.1a8.82,8.82,0,0,1-1.19.09l-.57,0a8.91,8.91,0,0,1-1.75-.29l-.43,6.67Z"/><path class="f" d="M69.8,115.19A8.82,8.82,0,0,0,71,115.1v0l-3.51-.23v.05a8.91,8.91,0,0,0,1.75.29Z"/><path class="f" d="M63.53,100,58,96.3l-2,2.93,5.57,3.71A8.87,8.87,0,0,1,63.53,100Z"/><path class="f" d="M63.56,100l0,0a8.87,8.87,0,0,0-2,2.93l0,0Z"/><path class="f" d="M81.64,116.3l2-2.93L78,109.66a8.9,8.9,0,0,1-2,2.93Z"/><path class="f" d="M76,112.57l0,0a8.9,8.9,0,0,0,2-2.93l0,0Z"/><path class="f" d="M55.21,111.56l1.56,3.16,6-3a8.89,8.89,0,0,1-1.57-3.15Z"/><path class="f" d="M61.25,108.57l0,0a8.89,8.89,0,0,0,1.57,3.15h0Z"/><path class="f" d="M84.37,101l-1.56-3.16-6,3A8.81,8.81,0,0,1,78.38,104Z"/><path class="f" d="M78.34,104l0,0a8.81,8.81,0,0,0-1.57-3.15l0,0Z"/><path class="d" d="M286.26,196.62l2.19,2.76c1.26-1,2.49-2,3.67-3.13l-2.38-2.59C288.61,194.68,287.44,195.68,286.26,196.62Z"/><path class="d" d="M309.52,140l3.5-.42c-.19-1.58-.44-3.19-.75-4.76l-3.46.67C309.11,137,309.35,138.53,309.52,140Z"/><path class="d" d="M309.9,144.57q.07,1.45.07,2.92,0,.82,0,1.64l3.52.09q0-.87,0-1.74,0-1.55-.07-3.09Z"/><path class="d" d="M291,97.9c-1.2-1.06-2.46-2.08-3.73-3.05l-2.13,2.81c1.21.92,2.4,1.89,3.54,2.89Z"/><path class="d" d="M297.77,104.77c-1-1.22-2.13-2.42-3.25-3.56L292,103.68c1.06,1.08,2.09,2.21,3.08,3.37Z"/><path class="d" d="M303.46,112.55c-.85-1.36-1.76-2.7-2.7-4l-2.84,2.08c.9,1.22,1.76,2.5,2.56,3.78Z"/><path class="d" d="M283.34,92.08c-1.34-.87-2.74-1.71-4.14-2.48l-1.7,3.09c1.33.73,2.65,1.52,3.92,2.35Z"/><path class="d" d="M274.88,87.43c-1.46-.67-3-1.29-4.46-1.85l-1.23,3.3c1.42.53,2.84,1.11,4.22,1.75Z"/><path class="d" d="M265.84,84.08c-1.53-.44-3.11-.84-4.68-1.17l-.73,3.44c1.48.31,3,.69,4.43,1.11Z"/><path class="d" d="M307.77,131.07l3.4-.93c-.42-1.54-.9-3.08-1.44-4.6l-3.32,1.17C306.92,128.15,307.38,129.62,307.77,131.07Z"/><path class="d" d="M252.51,85.21c1.15.09,2.29.21,3.43.36l.48-3.49c-1.58-.22-3.2-.38-4.8-.48v.21h.87Z"/><path class="d" d="M304.74,122.48l3.23-1.41c-.64-1.46-1.34-2.92-2.1-4.34l-3.11,1.65C303.46,119.72,304.13,121.1,304.74,122.48Z"/><path class="d" d="M225.86,206.35l-1.21,3.31c1.5.55,3,1.05,4.59,1.49l1-3.39C228.74,207.34,227.28,206.87,225.86,206.35Z"/><path class="d" d="M243.69,210l-.21,3.52c1.33.08,2.67.12,4,.12h.83l0-3.52h-.79C246.21,210.16,244.94,210.12,243.69,210Z"/><path class="d" d="M306.86,167.08l3.35,1.09c.5-1.52.94-3.08,1.33-4.63l-3.42-.85C307.76,164.16,307.34,165.64,306.86,167.08Z"/><path class="d" d="M221.63,204.63c-1.38-.62-2.75-1.31-4.09-2l-1.68,3.1c1.41.76,2.86,1.49,4.32,2.14Z"/><path class="d" d="M233.92,212.3c1.57.32,3.17.59,4.75.8l.46-3.49c-1.5-.2-3-.45-4.5-.76Z"/><path class="d" d="M262.63,211.91c1.56-.37,3.12-.8,4.65-1.28l-1.06-3.36c-1.45.46-2.93.86-4.4,1.21Z"/><path class="d" d="M253.11,213.44c1.6-.14,3.21-.34,4.79-.59l-.56-3.48c-1.49.24-3,.43-4.53.56Z"/><path class="d" d="M276.23,207.07l-1.54-3.17c-1.37.66-2.77,1.28-4.17,1.84l1.3,3.27C273.3,208.43,274.78,207.77,276.23,207.07Z"/><path class="d" d="M282.58,199.33c-1.25.85-2.55,1.67-3.86,2.43l1.77,3c1.39-.81,2.76-1.67,4.08-2.57Z"/><path class="d" d="M309.06,158.22l3.47.59c.27-1.57.48-3.18.64-4.78l-3.51-.34C309.52,155.22,309.31,156.74,309.06,158.22Z"/><path class="d" d="M298.73,183.37l2.89,2c.92-1.31,1.8-2.68,2.61-4.05l-3-1.8C300.43,180.83,299.6,182.12,298.73,183.37Z"/><path class="d" d="M293,190.45l2.57,2.41c1.1-1.17,2.17-2.39,3.18-3.63L296,187C295,188.19,294,189.34,293,190.45Z"/><path class="d" d="M303.4,175.52l3.15,1.57c.72-1.44,1.39-2.92,2-4.39l-3.26-1.34C304.71,172.76,304.08,174.16,303.4,175.52Z"/><path class="d" d="M46.54,107.92,43,108.2a22.66,22.66,0,0,0,1,5l3.36-1A19.3,19.3,0,0,1,46.54,107.92Z"/><path class="d" d="M46.82,93.7l2.92,2a19.38,19.38,0,0,1,2.78-3.28L50.1,89.83A22.84,22.84,0,0,0,46.82,93.7Z"/><path class="d" d="M52.9,125.23a22.73,22.73,0,0,0,4.49,2.38l1.29-3.27a19.18,19.18,0,0,1-3.79-2Z"/><path class="d" d="M47.76,99.48l-3.29-1.26a22.75,22.75,0,0,0-1.28,4.91l3.48.5A19.24,19.24,0,0,1,47.76,99.48Z"/><path class="d" d="M67,87.16l.22-3.51a22.82,22.82,0,0,0-3.47,0l.31,3.51A19.77,19.77,0,0,1,67,87.16Z"/><path class="d" d="M59.86,88l-1.08-3.35a22.74,22.74,0,0,0-4.63,2.09l1.79,3A19.33,19.33,0,0,1,59.86,88Z"/><path class="d" d="M46,117.83a22.86,22.86,0,0,0,3,4.08l2.58-2.4a19.37,19.37,0,0,1-2.56-3.45Z"/><rect class="d" x="144.5" y="82.93" width="4.7" height="3.52" transform="translate(-0.87 1.53) rotate(-0.6)"/><rect class="d" x="135.12" y="83.03" width="4.7" height="3.52" transform="translate(-0.87 1.43) rotate(-0.6)"/><rect class="d" x="153.9" y="82.83" width="4.7" height="3.52" transform="translate(-0.86 1.61) rotate(-0.59)"/><rect class="d" x="163.29" y="82.73" width="4.7" height="3.52" transform="translate(-0.87 1.73) rotate(-0.6)"/><rect class="d" x="125.72" y="83.13" width="4.7" height="3.52" transform="translate(-0.88 1.34) rotate(-0.6)"/><rect class="d" x="88.16" y="83.53" width="4.7" height="3.52" transform="translate(-0.92 0.98) rotate(-0.62)"/><rect class="d" x="97.55" y="83.43" width="4.69" height="3.52" transform="translate(-0.88 1.04) rotate(-0.6)"/><rect class="d" x="116.33" y="83.23" width="4.69" height="3.52" transform="translate(-0.91 1.29) rotate(-0.62)"/><rect class="d" x="106.94" y="83.33" width="4.7" height="3.52" transform="matrix(1, -0.01, 0.01, 1, -0.89, 1.16)"/><rect class="d" x="210.24" y="82.23" width="4.7" height="3.52" transform="matrix(1, -0.01, 0.01, 1, -0.87, 2.24)"/><rect class="d" x="229.02" y="82.03" width="4.7" height="3.52" transform="translate(-0.86 2.41) rotate(-0.6)"/><rect class="d" x="78.77" y="83.63" width="4.69" height="3.52" transform="matrix(1, -0.01, 0.01, 1, -0.9, 0.86)"/><rect class="d" x="69.38" y="83.73" width="4.7" height="3.52" transform="translate(-0.89 0.75) rotate(-0.6)"/><rect class="d" x="238.41" y="81.93" width="4.69" height="3.52" transform="translate(-0.86 2.51) rotate(-0.6)"/><rect class="d" x="219.63" y="82.13" width="4.69" height="3.52" transform="translate(-0.92 2.47) rotate(-0.64)"/><rect class="d" x="191.46" y="82.43" width="4.7" height="3.52" transform="translate(-0.86 2.02) rotate(-0.6)"/><rect class="d" x="200.85" y="82.33" width="4.7" height="3.52" transform="translate(-0.89 2.17) rotate(-0.61)"/><rect class="d" x="172.68" y="82.63" width="4.7" height="3.52" transform="translate(-0.9 1.9) rotate(-0.62)"/><path class="d" d="M247.82,85.37l4.7-.05v-.12l-1.12-.09.21-3.3-3.83,0Z"/><rect class="d" x="182.07" y="82.53" width="4.7" height="3.52" transform="matrix(1, -0.01, 0.01, 1, -0.88, 1.95)"/><path class="d" d="M252.51,85.21l0-3.4h-.87l-.21,3.3Z"/><rect class="d" x="85.76" y="138.05" width="3.52" height="4.7" transform="translate(-77.13 156.63) rotate(-63.69)"/><path class="d" d="M164.6,180.49l1.56-3.16L162,175.25l-.87,1.77q.55,1.11,1.05,2.25Z"/><path class="d" d="M107.24,148.19,103,146.11l-1.56,3.16,3.76,1.86.63-.15Z"/><rect class="d" x="68.92" y="129.73" width="3.52" height="4.7" transform="translate(-79.04 136.91) rotate(-63.7)"/><rect class="d" x="77.34" y="133.89" width="3.52" height="4.7" transform="translate(-78.08 146.75) rotate(-63.69)"/><rect class="d" x="94.17" y="142.22" width="3.52" height="4.7" transform="translate(-76.18 166.47) rotate(-63.69)"/><rect class="d" x="186.77" y="188.01" width="3.52" height="4.7" transform="translate(-65.67 274.98) rotate(-63.69)"/><rect class="d" x="212.02" y="200.5" width="3.52" height="4.7" transform="translate(-62.81 304.55) rotate(-63.69)"/><rect class="d" x="60.5" y="125.56" width="3.52" height="4.7" transform="translate(-79.99 127.03) rotate(-63.69)"/><rect class="d" x="195.19" y="192.17" width="3.52" height="4.7" transform="translate(-64.71 284.86) rotate(-63.69)"/><rect class="d" x="169.93" y="179.68" width="3.52" height="4.7" transform="translate(-67.59 255.23) rotate(-63.68)"/><rect class="d" x="178.35" y="183.85" width="3.52" height="4.7" transform="translate(-66.64 265.09) rotate(-63.68)"/><rect class="d" x="203.6" y="196.34" width="3.52" height="4.7" transform="translate(-63.78 294.67) rotate(-63.68)"/><path class="g" d="M613.72,223.72a48.44,48.44,0,0,1-4.55,3.45L628.3,246.3a77.89,77.89,0,0,1,15-11.59l-10-10-5.43,7.52Z"/><path class="h" d="M532.18,241.26v3l8.58-8.7-4.16-3,8.45-14.09a48.93,48.93,0,0,1-5.69-8.28l-28.25,28.16h18.08A3.1,3.1,0,0,1,532.18,241.26Z"/><path class="i" d="M636.79,254.94l45.27,45.41h4.13a1.52,1.52,0,1,1,0,3h-.61l9.28,9.4,35.91-35.85a53.11,53.11,0,0,0-11.56-15L694.87,286.3l-35-35a55.5,55.5,0,0,0-15.3,10.5Z"/><polygon class="j" points="423.18 353.13 432.18 343.56 432.18 317 418.35 331.35 423.18 331.35 423.18 353.13"/><path class="k" d="M749.55,258,905.18,102.13V89.35H892.33L821.43,160a69.24,69.24,0,0,1-66,65.81l-17.94,17.8A79,79,0,0,1,749.55,258Z"/><polygon class="l" points="458.18 303.35 458.18 318.44 465.18 310.88 465.18 284.32 449.18 300.27 449.18 303.35 458.18 303.35"/><path class="m" d="M735.11,246.07l-13.4,13.4a56.71,56.71,0,0,1,11.67,14.89l13.84-13.84A76.26,76.26,0,0,0,735.11,246.07Z"/><polygon class="n" points="363.18 412.94 363.18 396.35 379.82 396.35 398.18 378.25 398.18 351.69 353.18 395.94 353.18 422.51 363.18 412.94"/><path class="o" d="M52.39,370.46.18,318.16v26.56L46.44,391A40.5,40.5,0,0,1,52.39,370.46Z"/><path class="p" d="M216.69,393.66a37.47,37.47,0,0,0-1-8.48l-4.16,4a11.22,11.22,0,0,0,.15,1.16h-1.45l-4.91,5h6.45a32.35,32.35,0,0,1-32.22,30.52,32.74,32.74,0,0,1-4.32-.26L171,429.91a37.22,37.22,0,0,0,45.73-36.25Z"/><path class="q" d="M87.7,432.42l53.66,53.66L197,430.44a40.7,40.7,0,0,1-28.92,2.36l-26.72,26.72-33-33-.86.5A40.7,40.7,0,0,1,87.7,432.42Z"/><path class="r" d="M87.07,428.92a37.24,37.24,0,0,0,16.85-4l-9.19-12L54.86,373a37,37,0,0,0-5,18.65c0,1,.05,2,.13,3l34.12,34.12C85.06,428.86,86.06,428.92,87.07,428.92Z"/><path class="s" d="M216.23,411.22,260,367.54l39.73,39.8h19.48v19.13l15.26,15.44L346,430.35H328.18V409.49l-68.39-68.58-41.28,41.37a41,41,0,0,1,1.66,11.37A40.49,40.49,0,0,1,216.23,411.22Z"/><polygon class="t" points="520.18 253.34 520.18 255.85 528.18 247.74 528.18 242.34 507.59 242.34 496.48 253.34 520.18 253.34"/><path class="u" d="M475.18,296.35v-3h7.74l6.3-6h-1v-4h4.57l8.43-8.33v-1.67h1.39l9.48-9H485.49l-9.48,9h7.17v4h-8v-2.86l-6,6.32v26.56l10.22-11Zm13-23h8v4h-8Zm-13,10h8v4h-8Z"/><path class="e" d="M821.43,159.75l-66,66a69.35,69.35,0,0,0,66-66Z"/><path class="v" d="M821.43,159.75l-66,66a69.35,69.35,0,0,0,66-66Z"/><polygon class="d" points="916.85 90.67 905.18 102.13 905.18 135.34 924.18 135.34 924.18 70.34 859.18 70.34 859.18 89.34 892.34 89.34 903.68 77.64 916.85 90.67"/><polygon class="d" points="905.18 102.13 916.85 90.67 903.68 77.64 892.34 89.34 905.18 89.34 905.18 102.13"/><rect class="w" x="224.18" y="419.35" width="25" height="11"/><rect class="w" x="259.18" y="409.35" width="25" height="21"/><polygon class="w" points="294.18 407.35 294.18 430.35 319.18 430.35 319.18 426.48 299.7 407.35 294.18 407.35"/><polygon class="w" points="299.7 407.35 319.18 426.48 319.18 407.35 299.7 407.35"/><polygon class="w" points="353.18 395.94 353.18 388.35 328.18 388.35 328.18 409.49 333.91 415.27 353.18 395.94"/><polygon class="w" points="353.18 430.35 353.18 422.51 346 430.35 353.18 430.35"/><polygon class="w" points="346 430.35 353.18 422.51 353.18 395.94 333.91 415.27 328.18 409.49 328.18 430.35 346 430.35"/><polygon class="w" points="363.18 430.35 388.18 430.35 388.18 396.35 379.82 396.35 363.18 412.94 363.18 430.35"/><polygon class="w" points="363.18 412.94 379.82 396.35 363.18 396.35 363.18 412.94"/><polygon class="w" points="398.18 430.35 423.18 430.35 423.18 353.13 398.18 378.25 398.18 430.35"/><polygon class="w" points="398.18 331.35 398.18 351.69 418.35 331.35 398.18 331.35"/><polygon class="w" points="423.18 353.13 423.18 331.35 418.35 331.35 398.18 351.69 398.18 378.25 423.18 353.13"/><polygon class="w" points="432.18 308.35 432.18 317 441.21 308.35 432.18 308.35"/><polygon class="w" points="432.18 430.35 458.18 430.35 458.18 318.44 432.18 343.56 432.18 430.35"/><polygon class="w" points="458.18 318.44 458.18 303.35 449.18 303.35 449.18 308.35 441.21 308.35 432.18 317 432.18 343.56 458.18 318.44"/><polygon class="x" points="378.18 83.34 399.17 83.34 378.84 56.77 358.52 30.24 338.19 56.79 317.86 83.34 339.18 83.34 339.18 169.34 378.18 169.34 378.18 83.34"/><path class="y" d="M443.18,276.27a10.3,10.3,0,0,1,2.5,3.83,10.31,10.31,0,0,1,2.5-3.83v-5.92h-5Z"/><path class="z" d="M411.05,192.21l1,1.13h-.83v33.75l6.26-6.32,20.72,21,1-1.29V219.35h-1v-44h-1.34a4.86,4.86,0,0,0-4.66,4.7v29.3h-3V180a7.49,7.49,0,0,1,7.66-7.7h1.34v-3.89a5.85,5.85,0,0,1,5.88-6.11h2.59a6,6,0,0,1,2.54.52V143.35h21.53l-20.33-26.45L430.06,90.43l-20.33,26.46L389.4,143.35h21.78v48.41l.08.37Z"/><path class="aa" d="M445.79,303.35l3.39-3.07V280.34a18,18,0,0,0-1.91,8h-3.52c0-4-2.11-8.91-3.24-9.19l-1.33-.44v-8.37h-1v-4h1V245.46l-1.05,1.29-20.81-21-6.14,6.32v57.58c0,.36.92.56,1.56.56,1.47,0,2.22-1,3.45-2.77s3-4.27,6.35-4.27,4.93,2.37,6.26,4.27,2.37,2.77,3.37,2.77v3.52c-3,0-4.94-2.37-6.27-4.27s-2-2.77-3.43-2.77-2.22,1-3.46,2.77-2.92,4.27-6.3,4.27c-.6,0-1.54-.09-1.54-.23v14.84h21v-5Z"/><polygon class="ab" points="449.18 303.35 449.18 300.27 445.79 303.35 449.18 303.35"/><polygon class="ac" points="449.18 303.35 449.18 300.27 445.79 303.35 449.18 303.35"/><polygon class="w" points="445.79 303.35 432.18 303.35 432.18 308.35 441.21 308.35 445.79 303.35"/><polygon class="ad" points="445.79 303.35 432.18 303.35 432.18 308.35 441.21 308.35 445.79 303.35"/><polygon class="w" points="441.21 308.35 449.18 308.35 449.18 303.35 445.79 303.35 441.21 308.35"/><polygon class="ae" points="441.21 308.35 449.18 308.35 449.18 303.35 445.79 303.35 441.21 308.35"/><path class="af" d="M951.7,414.35c5.11-10,9.79-19.4,9.79-24.46a19,19,0,1,0-38.09.06c0,5.06,4.68,14.4,9.79,24.4H951.7Zm-9.25-29.68a6.16,6.16,0,1,1-6.15,6.15A6.16,6.16,0,0,1,942.44,384.66Z"/><path class="ag" d="M931.92,281.49a53.11,53.11,0,0,0-10.75,1v23.83h-4V283.28c-3,.83-6.52,2.07-9.59,3.07h.59v20h-4V288.19c-1,.45-2,.91-2,1.4v82.75h-.49l0,1.84c0,5.79-4.39,10.16-10,11.16h-.89c-4.82,0-27.22.21-50,.21a36.55,36.55,0,0,0,35.51,28.79h52.86c-4.82-9-9.28-18.88-9.28-24.46a22.57,22.57,0,1,1,45.13.06c0,5.58-4.46,15.4-9.28,24.4h44.45V331.41a42.66,42.66,0,0,0-9.29,1.48A59.53,59.53,0,0,0,931.92,281.49Zm-23.75,34.85h-4v-5h4Zm13,0h-4v-5h4Z"/><rect class="f" x="484.18" y="342.35" width="45" height="3"/><rect class="f" x="484.18" y="353.35" width="45" height="3"/><polygon class="f" points="468.88 350.86 465.18 348.47 463.27 351.43 469.65 355.54 478.3 344.69 475.55 342.5 468.88 350.86"/><rect class="f" x="484.18" y="375.35" width="45" height="3"/><rect class="f" x="484.18" y="386.35" width="45" height="3"/><polygon class="f" points="468.88 383.78 465.18 381.39 463.27 384.35 469.65 388.47 478.3 377.62 475.55 375.43 468.88 383.78"/><rect class="f" x="484.18" y="408.35" width="45" height="3"/><rect class="f" x="484.18" y="419.35" width="45" height="3"/><polygon class="f" points="468.88 416.71 465.18 414.32 463.27 417.28 469.65 421.4 478.3 410.55 475.55 408.35 468.88 416.71"/><path class="w" d="M411.18,293.42c-3-.69-3.62-2.46-4.68-4-1.24-1.77-2.11-2.77-3.59-2.77s-2.3,1-3.54,2.77-3,4.27-6.39,4.27-5.05-2.37-6.39-4.27-2-2.77-3.49-2.77-2.28,1-3.52,2.77-3.4,4.27-6.4,4.27v-3.52c2,0,2.28-1,3.52-2.77s3-4.27,6.39-4.27,5,2.37,6.38,4.27,2,2.77,3.49,2.77,2.25-1,3.49-2.77,3-4.27,6.37-4.27,5.24,2.37,6.57,4.27c.59.85.79,1.51,1.79,2V232.35L376.74,266.6l-13.54-13.31-47,46.78v10.27h95v-2h0Z"/><polygon class="w" points="376.74 261.62 411.18 227.37 411.18 193.34 388.18 193.34 388.18 169.34 378.18 169.34 378.18 248.34 339.18 248.34 339.18 241.34 316.18 241.34 316.18 295.09 363.19 248.31 376.74 261.62"/><rect class="w" x="316.18" y="230.35" width="23" height="7"/><polygon class="w" points="410.77 191.99 387.89 169.34 387.89 169.34 410.77 192.12 410.77 191.99"/><rect class="w" x="316.18" y="218.35" width="23" height="8"/><rect class="w" x="316.18" y="207.35" width="23" height="8"/><polygon class="w" points="339.18 169.34 316.18 169.34 316.18 192.34 332.18 192.34 332.18 195.34 316.18 195.34 316.18 203.34 339.18 203.34 339.18 169.34"/><polygon class="w" points="367.18 203.34 367.18 207.34 339.18 207.34 339.18 215.34 367.18 215.34 367.18 218.34 339.18 218.34 339.18 226.34 367.18 226.34 367.18 230.34 339.18 230.34 339.18 237.34 345.18 237.34 345.18 241.34 339.18 241.34 339.18 248.34 378.18 248.34 378.18 169.34 339.18 169.34 339.18 203.34 367.18 203.34"/><path class="w" d="M411.18,293.42v14.92h0V293.42Z"/><polygon class="w" points="411.18 193.34 411.18 193.34 411.18 227.37 411.18 227.09 411.18 193.34"/><path class="w" d="M411.18,289.42v0Z"/><polygon class="w" points="411.06 192.03 411.06 192.03 410.77 191.75 410.77 191.75 411.06 192.03"/><polygon class="d" points="387.88 168.85 387.88 168.86 387.89 168.86 387.88 168.85"/><polygon class="d" points="412.01 192.99 411.06 192.03 411.06 192.99 412.01 192.99"/><polygon class="d" points="411.18 193.34 411.18 191.75 387.89 169.34 388.18 169.34 388.18 193.34 411.18 193.34"/><polygon class="d" points="411.06 192.03 410.77 191.75 410.77 192.99 411.06 192.99 411.06 192.03"/><rect class="f" x="305.18" y="192.35" width="11" height="3"/><rect class="f" x="316.18" y="192.35" width="16" height="3"/><rect class="f" x="305.18" y="203.35" width="11" height="4"/><rect class="f" x="316.18" y="203.35" width="23" height="4"/><rect class="f" x="339.18" y="203.35" width="28" height="4"/><rect class="f" x="305.18" y="215.35" width="11" height="3"/><rect class="f" x="316.18" y="215.35" width="23" height="3"/><rect class="f" x="339.18" y="215.35" width="28" height="3"/><rect class="f" x="305.18" y="226.35" width="11" height="4"/><rect class="f" x="316.18" y="226.35" width="23" height="4"/><rect class="f" x="339.18" y="226.35" width="28" height="4"/><rect class="f" x="305.18" y="237.35" width="11" height="4"/><rect class="f" x="316.18" y="237.35" width="23" height="4"/><rect class="f" x="339.18" y="237.35" width="6" height="4"/><polygon class="f" points="292.31 319.09 294.73 321.58 316.18 300.07 316.18 295.09 292.31 319.09"/><polygon class="f" points="494.5 190.77 493.92 190.34 489.97 190.34 451.18 229.1 451.18 234.08 494.5 190.77"/><polygon class="f" points="438.13 241.77 417.31 220.77 411.18 227.09 411.18 232.07 417.43 225.75 438.16 246.75 439.18 245.46 439.18 240.48 438.13 241.77"/><polygon class="f" points="376.74 266.6 411.18 232.35 411.18 227.37 376.74 261.62 363.19 248.31 316.18 295.09 316.18 300.07 363.19 253.29 376.74 266.6"/><polygon class="f" points="411.18 227.37 411.18 232.35 411.18 232.07 411.18 227.09 411.18 227.37"/><polygon class="f" points="493.92 190.34 495.18 190.34 495.18 208.34 498.18 208.34 498.18 186.34 476.18 186.34 476.18 190.34 489.97 190.34 491.95 188.37 493.92 190.34"/><polygon class="f" points="491.95 188.37 489.97 190.34 493.92 190.34 491.95 188.37"/><path class="d" d="M449.18,203.26a7.51,7.51,0,0,1,2,4.78v8.31h2v-41h-4Z"/><path class="d" d="M453.18,172.35v-3.89c0-2.46-2-4.58-4-5.59v9.48Z"/><path class="d" d="M439.18,208c0-3.43,2.59-6.69,5.19-6.69h2c1.14,0,1.85,1,2.85,1.91V175.35h-11v41h1Z"/><path class="d" d="M444.05,162.35a5.85,5.85,0,0,0-5.88,6.11v3.89h11v-9.48a6,6,0,0,0-2.54-.52Z"/><polygon class="d" points="449.18 266.35 451.18 266.35 451.18 234.08 449.18 235.78 449.18 266.35"/><polygon class="d" points="449.18 230.8 451.18 229.1 451.18 219.34 449.18 219.34 449.18 230.8"/><polygon class="d" points="449.18 235.78 439.18 245.46 439.18 266.35 449.18 266.35 449.18 235.78"/><polygon class="d" points="449.18 219.34 439.18 219.34 439.18 240.48 449.18 230.8 449.18 219.34"/><polygon class="d" points="449.18 235.78 451.18 234.08 451.18 229.1 449.18 230.8 449.18 235.78"/><polygon class="d" points="449.18 230.8 439.18 240.48 439.18 245.46 449.18 235.78 449.18 230.8"/><path class="d" d="M451.18,216.35V208a7.51,7.51,0,0,0-2-4.78v13.09Z"/><path class="d" d="M446.33,201.35h-2c-2.6,0-5.19,3.26-5.19,6.69v8.31h10V203.26C448.18,202.37,447.47,201.35,446.33,201.35Z"/><path class="f" d="M436.84,172.35a7.49,7.49,0,0,0-7.66,7.7v29.3h3V180a4.86,4.86,0,0,1,4.66-4.7h1.34v-3Z"/><rect class="f" x="449.18" y="172.35" width="4" height="3"/><rect class="f" x="438.18" y="172.35" width="11" height="3"/><polygon class="f" points="451.18 217.34 451.18 219.34 453.18 219.34 453.18 216.34 453.18 216.34 453.18 217.34 451.18 217.34"/><rect class="f" x="438.18" y="217.35" width="1" height="2"/><rect class="f" x="451.04" y="216.11" width="1.81" height="1.5"/><rect class="f" x="437.84" y="216.11" width="1.81" height="1.5"/><rect class="f" x="449.18" y="217.35" width="2" height="2"/><rect class="f" x="439.18" y="217.35" width="10" height="2"/><rect class="f" x="449.34" y="216.11" width="1.7" height="1.5"/><rect class="f" x="439.18" y="216.35" width="10" height="1"/><polygon class="f" points="449.18 268.35 449.18 269.35 452.18 269.35 452.18 270.35 453.18 270.35 453.18 266.35 451.18 266.35 451.18 268.35 449.18 268.35"/><polygon class="f" points="443.18 269.35 443.18 270.35 448.18 270.35 448.18 269.35 449.18 269.35 449.18 268.35 439.18 268.35 439.18 266.35 438.18 266.35 438.18 270.35 439.18 270.35 439.18 269.35 443.18 269.35"/><rect class="f" x="449.34" y="266.45" width="1.7" height="1.86"/><rect class="f" x="439.18" y="266.35" width="10" height="2"/><path class="f" d="M443.18,276.27v-5.92h-4v8.37l1.33.34c1.13.29,3.24,5.08,3.24,9.1a22.59,22.59,0,0,1,2-8.05A10.37,10.37,0,0,0,443.18,276.27Z"/><rect class="f" x="439.18" y="269.35" width="4" height="1"/><path class="f" d="M449.18,280.34c1-.72,1.09-1.2,1.42-1.29l1.58-.34v-8.37h-3Z"/><path class="f" d="M448.18,270.35v5.92a10.59,10.59,0,0,0-2.73,3.83,21.75,21.75,0,0,1,1.71,8.05,17.6,17.6,0,0,1,2-7.81v-10Z"/><rect class="f" x="449.18" y="269.35" width="3" height="1"/><rect class="f" x="448.31" y="269.65" width="1.03" height="0.33"/><path class="f" d="M443.75,288.35h3.52a22.56,22.56,0,0,0-1.76-8.05A22.56,22.56,0,0,0,443.75,288.35Z"/><path class="f" d="M412.73,293.73c3.38,0,5-2.37,6.34-4.27s2-2.77,3.47-2.77,2.14,1,3.37,2.77,3.26,4.27,6.26,4.27v-3.52c-1,0-2.15-1-3.38-2.77s-2.94-4.27-6.32-4.27-5,2.37-6.35,4.27-1.94,2.77-3.41,2.77c-.64,0-1.54-.2-1.54-.56v3.85C411.18,293.64,412.14,293.73,412.73,293.73Z"/><path class="f" d="M409.39,287.44c-1.33-1.9-3.09-4.27-6.47-4.27s-5.09,2.37-6.42,4.27-2,2.77-3.51,2.77-2.26-1-3.5-2.77-3-4.27-6.38-4.27-5.07,2.37-6.4,4.27-1.52,2.77-3.52,2.77v3.52c3,0,5.07-2.37,6.4-4.27s2-2.77,3.5-2.77,2.26,1,3.5,2.77,3,4.27,6.38,4.27,5-2.37,6.37-4.27,2-2.77,3.49-2.77,2.45,1,3.69,2.77c1.05,1.51,1.68,3.28,4.68,4v-4C410.18,289,410,288.29,409.39,287.44Z"/><path class="f" d="M411.18,293.42v0Z"/><path class="f" d="M469.18,242.35h38.41l3.52-4H468.05a3,3,0,0,0-2.87,2.92v10.08h4Z"/><path class="f" d="M529.19,318.35h-1v6h-59v-6h-1.13a3.25,3.25,0,0,1-2.87-3.19v9.61a2.71,2.71,0,0,0,2.87,2.57h61.14a2.81,2.81,0,0,0,3-2.57v-9.61A3.35,3.35,0,0,1,529.19,318.35Z"/><polygon class="f" points="528.18 251.34 532.18 251.34 532.18 244.22 528.18 247.74 528.18 251.34"/><path class="f" d="M528.18,242.35v5.4l4-3.52v-3a3.1,3.1,0,0,0-3-2.92H511.11l-3.52,4Z"/><rect class="f" x="469.18" y="314.35" width="59" height="4"/><path class="f" d="M468.05,318.35h1.13v-11l-4,3.52v4.28A3.25,3.25,0,0,0,468.05,318.35Z"/><polygon class="f" points="469.18 251.34 465.18 251.34 465.18 284.32 469.18 280.8 469.18 251.34"/><path class="f" d="M528.18,314.41v3.94h1a3.35,3.35,0,0,0,3-3.19V251.35h-4Z"/><polygon class="f" points="469.18 307.36 469.18 280.8 465.18 284.32 465.18 310.88 469.18 307.36"/><polygon class="w" points="477.18 253.34 477.18 264.35 485.49 264.35 496.48 253.34 477.18 253.34"/><polygon class="w" points="520.18 264.35 520.18 255.85 512.05 264.35 520.18 264.35"/><polygon class="w" points="496.48 253.34 485.49 264.35 512.05 264.35 520.18 255.85 520.18 253.34 496.48 253.34"/><polygon class="f" points="475.13 274.48 476.01 273.6 475.13 273.6 475.13 274.48"/><polygon class="f" points="475.18 277.35 483.18 277.35 483.18 273.35 476.01 273.35 475.18 274.48 475.18 277.35"/><rect class="f" x="488.18" y="273.35" width="8" height="4"/><polygon class="f" points="501.18 277.35 509.18 277.35 509.18 273.35 502.57 273.35 501.18 275.02 501.18 277.35"/><polygon class="f" points="501.15 275.02 502.57 273.6 501.15 273.6 501.15 275.02"/><rect class="f" x="514.18" y="273.35" width="8" height="4"/><rect class="f" x="475.18" y="283.35" width="8" height="4"/><polygon class="f" points="496.18 287.35 496.18 283.35 492.74 283.35 489.22 287.35 496.18 287.35"/><polygon class="f" points="488.18 287.35 489.22 287.35 492.74 283.35 488.18 283.35 488.18 287.35"/><rect class="f" x="501.18" y="283.35" width="8" height="4"/><rect class="f" x="514.18" y="283.35" width="8" height="4"/><polygon class="f" points="483.18 296.35 483.18 293.35 482.92 293.35 479.4 296.35 483.18 296.35"/><polygon class="f" points="475.18 296.35 479.4 296.35 482.92 293.35 475.18 293.35 475.18 296.35"/><rect class="f" x="488.18" y="293.35" width="8" height="3"/><rect class="f" x="501.18" y="293.35" width="8" height="3"/><rect class="f" x="514.18" y="293.35" width="8" height="3"/><rect class="f" x="475.18" y="303.35" width="8" height="3"/><rect class="f" x="488.18" y="303.35" width="8" height="3"/><rect class="f" x="501.18" y="303.35" width="8" height="3"/><rect class="f" x="514.18" y="303.35" width="8" height="3"/><path class="w" d="M568.93,177.8l1.87-3,2.45,1.53,5.83-5.83,7.14,7.14,10.73-11,2.53,2.45-10.77,11.08,17.36,17.36,0-.06,6,3.48-1,1.68,22.08,22.08,5-7-12.12-10.38a48.46,48.46,0,0,0,4.41-16.85l16-4-2.86-17.66-15.91,1.23A48.55,48.55,0,0,0,619,155l8.48-14.09-14.51-10.47-10.38,12.12a48.48,48.48,0,0,0-16.85-4.41l-4-16-17.66,2.86L565.31,141a48.37,48.37,0,0,0-15,8.79l-14.09-8.48-10.47,14.51,12.12,10.38A48.43,48.43,0,0,0,533.43,183l-16,4,2.86,17.66,15.91-1.23a48.56,48.56,0,0,0,3.11,6.83l31.35-31.35Zm47.24,6.54v3h-7v-3Zm-5.81-16.92,1.76,3-6,3.48-1.76-3Zm-12.9-11.62,3,1.76-3.48,6-3-1.76Zm-17.29-3.47h4v7h-4Zm-24,35h-7v-3h7Zm2.2-13.39-6-3.48,1.76-3,6,3.48ZM564,157.57l3.05-1.76,3.48,6-3.05,1.76Z"/><path class="w" d="M597.47,215.59l-.17-.29-18.22-18.22L568,208.14l2.47,1.43-3.48,6-3-1.76,2.23-3.85-25.54,25.54,10.4,7.51,10.38-12.12a48.33,48.33,0,0,0,16.85,4.41l4,16,17.66-2.86-1.23-15.91a48.53,48.53,0,0,0,10.49-5.34l-11.62-11.62Zm-13.29,3.75h-4v-7h4Z"/><polygon class="w" points="586.22 177.66 579.08 170.53 573.26 176.35 582.11 181.89 586.22 177.66"/><path class="w" d="M536.54,232.56l4.1,3L566.19,210l1.25-2.17.58.34,11.05-11.05,18.22,18.22L594,209.57l3-1.76,3.48,6-3,1.72,11.62,11.63a48.44,48.44,0,0,0,4.55-3.45l14.09,8.48,5.43-7.52-22.08-22.08-.79,1.37-6-3.48,1.72-3-17.36-17.36-6.06,6.23-12-7.48-31.35,31.35a48.23,48.23,0,0,0,5.68,8.2Zm21.83-35.11,1.76,3.05-6,3.48-1.76-3.05Z"/><rect class="f" x="580.18" y="152.35" width="4" height="7"/><rect class="f" x="593.77" y="157.94" width="6.96" height="3.52" transform="translate(160.29 597.06) rotate(-60)"/><rect class="f" x="604.76" y="168.93" width="6.96" height="3.52" transform="matrix(0.87, -0.5, 0.5, 0.87, -3.85, 327.02)"/><rect class="f" x="609.18" y="184.35" width="7" height="3"/><polygon class="f" points="606.1 197.45 606.07 197.51 611.16 202.61 612.13 200.93 606.1 197.45"/><polygon class="f" points="604.34 200.5 610.37 203.97 611.16 202.61 606.07 197.51 604.34 200.5"/><polygon class="f" points="597.54 215.55 597.3 215.31 597.47 215.59 597.54 215.55"/><polygon class="f" points="600.51 213.83 597.04 207.81 593.99 209.57 597.3 215.31 597.54 215.55 600.51 213.83"/><rect class="f" x="580.18" y="212.35" width="4" height="7"/><polygon class="f" points="567.02 215.59 570.5 209.57 568.03 208.14 566.19 209.98 563.97 213.83 567.02 215.59"/><polygon class="f" points="567.45 207.81 566.19 209.98 568.03 208.14 567.45 207.81"/><rect class="f" x="552.77" y="198.95" width="6.96" height="3.52" transform="translate(-25.84 304.96) rotate(-30)"/><rect class="f" x="549.18" y="184.35" width="7" height="3"/><rect class="f" x="554.48" y="167.21" width="3.52" height="6.96" transform="matrix(0.5, -0.87, 0.87, 0.5, 130.22, 566.98)"/><rect class="f" x="565.47" y="156.23" width="3.52" height="6.96" transform="translate(-3.94 304.67) rotate(-29.97)"/><polygon class="d" points="596.95 166.62 586.22 177.66 588.71 180.15 599.48 169.07 596.95 166.62"/><polygon class="d" points="570.8 174.82 568.93 177.8 570.7 178.91 573.26 176.35 570.8 174.82"/><polygon class="d" points="582.11 181.89 573.26 176.35 570.7 178.91 582.65 186.39 588.71 180.15 586.22 177.66 582.11 181.89"/><path class="f" d="M652.69,123l.2,0a8.2,8.2,0,0,0-4.72-2.84v.19h-4v-.19a8.47,8.47,0,0,0-4.82,2.83l.06,0-1.74,3.05,0,0a8.78,8.78,0,0,0,0,5.65l0,0,1.76,3.05-.1,0a8.47,8.47,0,0,0,4.82,2.84v-.23h4v.23a8.2,8.2,0,0,0,4.72-2.84l-.12,0,1.72-3v0a8.8,8.8,0,0,0,0-5.65l0,0Zm-6.62,11.22a5.36,5.36,0,1,1,5.36-5.37A5.37,5.37,0,0,1,646.07,134.23Z"/><path class="f" d="M648.18,120.16v-6.81h-4v6.81a11.42,11.42,0,0,1,4,0Z"/><path class="f" d="M648.18,120.35v-.19a11.42,11.42,0,0,0-4,0v.19Z"/><path class="f" d="M644.18,137.58v6.77h4v-6.77a11.42,11.42,0,0,1-4,0Z"/><path class="f" d="M644.18,137.35v.23a11.42,11.42,0,0,0,4,0v-.23Z"/><path class="f" d="M633.61,119.64l-1.76,3.05,5.8,3.35a8.88,8.88,0,0,1,1.77-3Z"/><path class="f" d="M639.45,123l0,0a8.88,8.88,0,0,0-1.77,3l0,0Z"/><path class="f" d="M658.52,138.09l1.76-3-5.8-3.35a8.88,8.88,0,0,1-1.77,3Z"/><path class="f" d="M652.69,134.72l0,0a8.88,8.88,0,0,0,1.77-3l0,0Z"/><path class="f" d="M631.85,135l1.76,3.05,5.81-3.35a8.87,8.87,0,0,1-1.77-3Z"/><path class="f" d="M637.69,131.67l0,0a8.87,8.87,0,0,0,1.77,3l0,0Z"/><path class="f" d="M658.52,119.64,652.72,123a8.88,8.88,0,0,1,1.77,3l5.8-3.35Z"/><path class="f" d="M652.69,123l1.76,3,0,0a8.88,8.88,0,0,0-1.77-3Z"/><path class="d" d="M497.71,159.35H487.25a5.25,5.25,0,0,0-5.21,5,15.91,15.91,0,0,0,20.87,0A5.24,5.24,0,0,0,497.71,159.35Z"/><path class="d" d="M492.48,132.4a19.84,19.84,0,1,0,19.85,19.85A19.85,19.85,0,0,0,492.48,132.4ZM506.18,166l-.42.52a19.34,19.34,0,0,1-13.34,5.34,19.82,19.82,0,0,1-13.54-5.34l-.69-.52v-1.33A8.89,8.89,0,0,1,486,156a8.62,8.62,0,0,1-2.37-6.05,8.77,8.77,0,1,1,15,6.05,8.64,8.64,0,0,1,7.56,8.66Z"/><circle class="d" cx="492.48" cy="149.92" r="5.21"/><path class="f" d="M497.71,156.35a9.52,9.52,0,0,1,1.05-.15,9,9,0,0,0,2.45-6.16,8.73,8.73,0,1,0-17.46-.08,9.2,9.2,0,0,0,2.45,6.26,9.4,9.4,0,0,1,1.05.14Zm-5.23-11.64a5.21,5.21,0,1,1-5.21,5.21A5.22,5.22,0,0,1,492.48,144.71Z"/><path class="f" d="M498.63,156a8.55,8.55,0,0,1-6.21,2.68A9,9,0,0,1,486,156a8.86,8.86,0,0,0-7.82,8.66V166l.72.52a19.7,19.7,0,0,0,13.49,5.34,19.28,19.28,0,0,0,13.32-5.34l.46-.52v-1.33A8.63,8.63,0,0,0,498.63,156Zm-6.15,12.33A16,16,0,0,1,482,164.38a5.25,5.25,0,0,1,5.21-5h10.45a5.25,5.25,0,0,1,5.21,5A16,16,0,0,1,492.48,168.3Z"/><path class="f" d="M492.48,158.65a8.52,8.52,0,0,0,6.28-2.46,9.52,9.52,0,0,0-1.05.15H487.25a9.49,9.49,0,0,0-1.05-.15A8.52,8.52,0,0,0,492.48,158.65Z"/><rect class="f" x="209.18" y="274.35" width="5" height="4"/><rect class="f" x="228.18" y="274.35" width="1" height="4"/><rect class="f" x="218.18" y="274.35" width="5" height="4"/><rect class="f" x="200.18" y="274.35" width="4" height="4"/><path class="f" d="M164,287.35h6.16v-3H164c-8,0-16.84-5.28-16.84-20v-19h0v33.07C151.18,284.35,156.55,287.35,164,287.35Z"/><path class="f" d="M282.18,264.24c0,9.25-4.74,20.11-16.94,20.11h-6.06v3h6.06c7.46,0,12.94-3,16.94-9v-34h0Z"/><path class="f" d="M188.07,271.35c.21,0,.11,0,.11.06V240.35h-3v31Z"/><path class="f" d="M174,271.35h3.19v-31h-4v31.06A4.79,4.79,0,0,1,174,271.35Z"/><path class="f" d="M188.07,302.35h-2.89v30h3V301.86S188.27,302.35,188.07,302.35Z"/><path class="f" d="M174,302.35a2.28,2.28,0,0,1-.81-.48v30.48h4v-30Z"/><path class="f" d="M171.18,287.35h-1v10.45c0,2.07,1,3.78,3,4.07v-2.52h4v3h8v-3h3v2.52c2-.29,4-2,4-4.07V287.35h-2v-3h2v-8.87c0-2.07-2-3.78-4-4.07v.94h-3v-1h-8v1h-4v-.94c-2,.29-3,2-3,4.07v8.87h1Zm2-11.87c0-.34.48-.13.81-.13h14.08c.33,0,.11-.2.11.13v22.32c0,.34.23.55-.11.55H174c-.34,0-.81-.21-.81-.55Z"/><rect class="f" x="170.18" y="284.35" width="1" height="3"/><path class="f" d="M188.18,272.35v-.94s.1-.06-.11-.06h-2.89v1Z"/><path class="f" d="M177.18,272.35v-1H174a4.79,4.79,0,0,0-.81.06v.94Z"/><path class="f" d="M185.18,299.35v3h2.89c.21,0,.11-.45.11-.48v-2.52Z"/><path class="f" d="M173.18,299.35v2.52a2.28,2.28,0,0,0,.81.48h3.19v-3Z"/><rect class="f" x="179.18" y="290.35" width="4" height="8"/><polygon class="f" points="179.18 298.35 183.18 298.35 183.18 298.35 179.18 298.35 179.18 298.35"/><path class="f" d="M255.27,271.35a6.44,6.44,0,0,0,.91.06V240.35h-4v31Z"/><path class="f" d="M241.19,271.35h3v-31h-4v31.06C241.18,271.38,241,271.35,241.19,271.35Z"/><path class="f" d="M255.27,302.35h-3.09v30h4V301.86C255.18,301.89,255.47,302.35,255.27,302.35Z"/><path class="f" d="M241.19,302.35c-.2,0,0-.45-1-.48v30.48h4v-30Z"/><path class="f" d="M239.18,287.35h-2v10.45c0,2.07,1,3.78,3,4.07v-2.52h4v3h8v-3h4v2.52c2-.29,3-2,3-4.07V287.35h-2v-3h2v-8.87c0-2.07-1-3.78-3-4.07v.94h-4v-1h-8v1h-4v-.94c-2,.29-3,2-3,4.07v8.87h2Zm1-11.87c0-.34.67-.13,1-.13h14.08c.33,0,.91-.2.91.13v22.32c0,.34-.57.55-.91.55H241.19c-.34,0-1-.21-1-.55Z"/><rect class="f" x="257.18" y="284.35" width="2" height="3"/><path class="f" d="M256.18,272.35v-.94a6.44,6.44,0,0,1-.91-.06h-3.09v1Z"/><path class="f" d="M244.18,272.35v-1h-3c-.2,0,0,0-1,.06v.94Z"/><path class="f" d="M252.18,299.35v3h3.09c.2,0-.09-.45.91-.48v-2.52Z"/><path class="f" d="M240.18,299.35v2.52c1,0,.8.48,1,.48h3v-3Z"/><rect class="f" x="246.18" y="290.35" width="4" height="8"/><polygon class="f" points="246.18 298.35 250.18 298.35 250.18 298.35 246.18 298.35 246.18 298.35"/><rect class="f" x="192.18" y="284.35" width="45" height="3"/><rect class="f" x="190.18" y="284.35" width="2" height="3"/><rect class="f" x="237.18" y="284.35" width="2" height="3"/><path class="f" d="M159.53,240.35h13.65v-1h4v1h8v-1h3v1h52v-1h4v1h8v-1h4v1h26v4h3v19.89a30.18,30.18,0,0,1-3,14.12v54h-26v1h-4v-1h-8v1h-4v-1h-52v1h-3v-1h-8v1h-4v-1h-26V278.41a29.83,29.83,0,0,1-3-14v-19h3v-4.58l-1.94-1.39c-.43.3-1.06.6-1.06.89v95.08h141v-99H157.67Z"/><path class="f" d="M144.18,245.35v19a29.83,29.83,0,0,0,3,14V245.35Z"/><path class="f" d="M285.18,264.24V244.35h-3v34A30.18,30.18,0,0,0,285.18,264.24Z"/><rect class="f" x="185.18" y="239.35" width="3" height="1"/><rect class="f" x="173.18" y="239.35" width="4" height="1"/><rect class="f" x="185.18" y="332.35" width="3" height="1"/><rect class="f" x="173.18" y="332.35" width="4" height="1"/><rect class="f" x="252.18" y="239.35" width="4" height="1"/><rect class="f" x="240.18" y="239.35" width="4" height="1"/><rect class="f" x="252.18" y="332.35" width="4" height="1"/><rect class="f" x="240.18" y="332.35" width="4" height="1"/><polygon class="f" points="194.18 231.34 198.18 231.34 198.18 224.34 231.18 224.34 231.18 231.34 235.18 231.34 235.18 220.34 194.18 220.34 194.18 231.34"/><path class="d" d="M157.67,236.35l-3.16-5.75a48.9,48.9,0,0,0,7.62-51.39l-1.74-.83.69-1.38a49.23,49.23,0,0,0-55.22-26l-.18.37-.45-.22a49.27,49.27,0,0,0,11.93,97.13,50.28,50.28,0,0,0,27-8v-3.92Zm-4.14-65.26,4.21,2.08-1.56,3.16L152,174.24Zm-33.67-16.65,4.21,2.08-1.56,3.16-4.21-2.08Zm-8.42-4.16,4.21,2.08-1.56,3.16-4.21-2.08Zm4.05,15.24a9.64,9.64,0,1,1-9.64,9.64A9.65,9.65,0,0,1,115.5,165.51Zm16.68,64.84h-25v-34h-8v-3h25v33h8Zm-1.25-66.51-4.21-2.08,1.56-3.16,4.21,2.08Zm8.42,4.16-4.21-2.08,1.56-3.16,4.21,2.08Zm5.77-1.08,4.21,2.08-1.56,3.16-4.21-2.08Z"/><rect class="d" x="110.18" y="196.35" width="10" height="30"/><polygon class="d" points="147.18 240.77 165.93 252.61 159.53 240.34 147.18 240.34 147.18 240.77"/><circle class="d" cx="115.5" cy="175.14" r="6.11"/><path class="d" d="M105.86,151l-.63.15.45.22Z"/><rect class="d" x="144.68" y="167.19" width="3.52" height="4.7" transform="translate(-70.45 225.65) rotate(-63.69)"/><rect class="d" x="119.43" y="154.7" width="3.52" height="4.7" transform="translate(-73.31 196.06) rotate(-63.69)"/><rect class="d" x="136.26" y="163.03" width="3.52" height="4.7" transform="translate(-71.4 215.79) rotate(-63.69)"/><rect class="d" x="111.01" y="150.54" width="3.52" height="4.7" transform="translate(-74.27 186.21) rotate(-63.69)"/><path class="d" d="M162.13,179.27q-.5-1.14-1.05-2.25l-.69,1.39Z"/><rect class="d" x="153.1" y="171.36" width="3.52" height="4.7" transform="translate(-69.49 235.53) rotate(-63.69)"/><rect class="d" x="127.84" y="158.87" width="3.52" height="4.7" transform="translate(-72.36 205.92) rotate(-63.69)"/><path class="d" d="M147.18,240.77v-.42h12.35l-1.86-4h-13.5v3.92c0-.29.63-.58,1.06-.89Z"/><polygon class="f" points="110.18 194.34 110.18 196.34 120.18 196.34 120.18 226.34 124.18 226.34 124.18 193.34 99.18 193.34 99.18 196.34 107.18 196.34 107.18 194.34 110.18 194.34"/><polygon class="f" points="124.18 228.34 120.18 228.34 120.18 226.34 110.18 226.34 110.18 196.34 107.18 196.34 107.18 230.34 132.18 230.34 132.18 226.34 124.18 226.34 124.18 228.34"/><rect class="f" x="120.18" y="226.35" width="4" height="2"/><rect class="f" x="107.18" y="194.35" width="3" height="2"/><path class="f" d="M115.5,184.78a9.64,9.64,0,1,0-9.64-9.63A9.64,9.64,0,0,0,115.5,184.78Zm0-15.75a6.11,6.11,0,1,1-6.11,6.12A6.12,6.12,0,0,1,115.5,169Z"/><path class="w" d="M605.16,305.92a76.54,76.54,0,0,0,20.57,48.42h12.44v4h-8.95c.62,1,1.23,1,1.88,1.61,2.23,2,4.57,4.39,7,5.39h.09v.41c2,1.18,3,2.31,5,3.35v-3.76h20v4h-19.7a95.14,95.14,0,0,0,16.5,7h3.2v.91a21.89,21.89,0,0,0,5,1.34v-2.26h20v3.45a76.83,76.83,0,0,0,49.61-22.06l-16.73-15a55.2,55.2,0,0,1-32.88,14.47v1.15h-20V355.5a48,48,0,0,1-16.8-8.15h-8.2v-3h3.65c-.25-1-.51-.72-.77-.94a55.63,55.63,0,0,1-18.46-40.06H605.07C605.09,304.35,605.11,305,605.16,305.92Zm63,59.42h20v4h-20Zm-25-11h20v4h-20Z"/><path class="w" d="M638.26,269.15l-16.81-14.94a77.06,77.06,0,0,0-16.38,46.14H627.6A55.6,55.6,0,0,1,638.26,269.15Z"/><path class="e" d="M627.81,246.78l9,8-8.49-8.49Z"/><path class="e" d="M674.51,246.95l-1.27-22.5a77.51,77.51,0,0,0-30,10.27l16.62,16.62A55.38,55.38,0,0,1,674.51,246.95Z"/><path class="e" d="M636.79,254.8l7.8,7a55.25,55.25,0,0,1,15.3-10.43l-16.62-16.62a77.89,77.89,0,0,0-15,11.59Z"/><path class="f" d="M721.31,259.09a57.2,57.2,0,0,0-35.53-14.51l-1.07-19A76.05,76.05,0,0,1,733.92,245c.41.36.79.74,1.19,1.11l2.49-2.49c-.44-.42-.87-.84-1.33-1.25a79.57,79.57,0,0,0-53-20.26H681L682.44,248l1.64,0A53.66,53.66,0,0,1,719,261.72l.26.24,2.49-2.49Z"/><path class="f" d="M743.87,348l-14.18-12.67a57.66,57.66,0,0,0,3.71-61l-2.6,2.6a54.08,54.08,0,0,1-4.87,57.59l-1,1.3,19.39,17.32,1.16-1.45a79.82,79.82,0,0,0,4.3-93.73l-2.54,2.54A76.31,76.31,0,0,1,743.87,348Z"/><path class="f" d="M730.78,277l2.6-2.6a56.71,56.71,0,0,0-11.67-14.89L719.22,262A53.24,53.24,0,0,1,730.78,277Z"/><path class="f" d="M747.22,260.52l2.54-2.54a79.8,79.8,0,0,0-12.17-14.39l-2.49,2.49A76.26,76.26,0,0,1,747.22,260.52Z"/><polygon class="b" points="588.46 314.31 593.76 303.53 567.64 303.35 557.67 303.35 552.36 314.14 588.46 314.31"/><polygon class="b" points="588.46 289.71 552.36 289.78 557.61 300.35 593.7 300.35 588.46 289.71"/><polygon class="f" points="589.55 315.89 549.51 315.81 555.7 303.35 555.5 303.35 555.44 303.35 553.79 303.35 546.66 317.72 590.64 317.59 597.7 303.35 595.73 303.35 589.55 315.89"/><polygon class="f" points="593.76 303.71 588.46 314.31 552.36 314.14 557.67 303.35 555.7 303.35 549.51 315.9 589.55 315.98 595.73 303.66 567.64 303.68 593.76 303.71"/><polygon class="f" points="597.7 303.71 599.46 303.71 599.4 303.59 597.75 303.59 597.7 303.71"/><polygon class="f" points="549.51 287.95 589.54 288.02 595.67 300.35 597.64 300.35 590.63 286.19 546.66 286.26 553.68 300.35 555.64 300.35 549.51 287.95"/><polygon class="f" points="557.67 303.35 557.67 303.35 567.64 303.35 557.67 303.35"/><polygon class="f" points="552.36 289.71 588.46 289.78 593.7 300.35 595.67 300.35 589.54 287.95 549.51 288.02 555.64 300.35 557.61 300.35 552.36 289.71"/><polygon class="f" points="595.78 303.35 595.73 303.35 597.7 303.35 597.75 303.35 595.78 303.35"/><polygon class="f" points="555.44 303.59 555.5 303.7 555.7 303.7 555.76 303.59 555.44 303.59"/><polygon class="f" points="555.7 303.35 557.67 303.35 557.67 303.35 567.64 303.35 595.73 303.4 595.78 303.35 555.76 303.35 555.7 303.35"/><path class="f" d="M627.6,300.07c0,1.17,0,2.35,0,3.52h58l-3.52-3.52Z"/><path class="f" d="M553.68,300.35h-3a1.52,1.52,0,1,0,0,3h3.16l.82-1.39Z"/><path class="f" d="M605.07,300.35h-5.61l-.88,1.56.82,1.44h5.67Q605,301.85,605.07,300.35Z"/><path class="f" d="M688,301.85a1.56,1.56,0,0,0-1.76-1.5h-4.13l3.52,3h.61A1.56,1.56,0,0,0,688,301.85Z"/><path class="f" d="M627.6,300.35H605.07q0,1.5,0,3h22.54C627.57,302.35,627.56,301.35,627.6,300.35Z"/><polygon class="f" points="557.61 300.35 557.67 300.35 567.64 300.35 593.76 300.4 593.7 300.35 557.61 300.35"/><polygon class="f" points="599.46 300.18 597.7 300.18 598.58 301.94 599.46 300.18"/><polygon class="f" points="554.61 301.94 553.79 303.59 555.44 303.59 554.61 301.94"/><polygon class="f" points="593.76 300.18 593.76 300.18 567.64 300.18 593.76 300.18"/><polygon class="f" points="597.75 303.59 599.4 303.59 598.58 301.94 597.75 303.59"/><polygon class="f" points="555.5 300.35 555.7 300.35 555.64 300.35 553.68 300.35 554.61 302.16 555.5 300.35"/><polygon class="f" points="595.73 300.35 597.7 300.35 597.64 300.35 595.67 300.35 595.73 300.35"/><polygon class="f" points="593.76 300.35 595.73 300.35 595.67 300.35 593.7 300.35 593.76 300.35"/><polygon class="f" points="557.67 300.35 557.61 300.35 555.64 300.35 555.7 300.35 567.64 300.35 557.67 300.35"/><polygon class="f" points="596.61 301.9 595.78 303.35 597.75 303.35 598.58 301.9 597.7 300.35 595.73 300.35 596.61 301.9"/><polygon class="f" points="556.58 301.9 555.7 300.35 555.5 300.35 554.61 301.9 555.44 303.35 555.76 303.35 556.58 301.9"/><polygon class="f" points="556.58 301.82 555.76 303.35 595.78 303.35 596.61 301.76 556.58 301.82"/><polygon class="f" points="596.61 302.02 595.73 300.35 593.76 300.35 593.76 300.35 567.64 300.35 555.7 300.35 556.58 302.06 596.61 302.02"/><path class="f" d="M625.73,354.35h-6.56v4h10.05A13.07,13.07,0,0,1,625.73,354.35Z"/><path class="f" d="M638.18,354.35H625.73a13.07,13.07,0,0,0,3.5,4h8.95Z"/><path class="f" d="M619.18,365.35v4h19v-3.59s0-.41-.09-.41Z"/><path class="f" d="M638.08,365.65l.16.11v-.11Z"/><path class="f" d="M621.18,376.63a10.15,10.15,0,0,1,6.24,3.72h10.76v-4h-17Z"/><path class="f" d="M638.18,390.35v-3h-6a12.92,12.92,0,0,1,.7,3Z"/><path class="f" d="M663.18,347.35v-3H646.83q2.2,1.5,4.55,3Z"/><path class="f" d="M643.18,347.35h8.2q-2.34-1.5-4.55-3h-3.65Z"/><rect class="f" x="643.18" y="354.35" width="20" height="4"/><path class="f" d="M643.38,369.17h.1l-.1-.06Z"/><path class="f" d="M663.18,365.35h-20v3.76a1.35,1.35,0,0,0,.3.24h19.7Z"/><path class="f" d="M643.18,376.35v4h20v-3.09a17.32,17.32,0,0,0-3.2-.91Z"/><path class="f" d="M660,376.35a17.32,17.32,0,0,1,3.2.91v-.91Z"/><rect class="f" x="643.18" y="387.35" width="20" height="3"/><rect class="f" x="643.18" y="333.35" width="20" height="4"/><rect class="f" x="668.18" y="344.35" width="20" height="3"/><path class="f" d="M688.18,357.2v-2.85h-20v1.15A60.27,60.27,0,0,0,688.18,357.2Z"/><path class="f" d="M688.18,358.35V357.2a60.27,60.27,0,0,1-20-1.7v2.85Z"/><rect class="f" x="668.18" y="365.35" width="20" height="4"/><path class="f" d="M668.18,378.6v1.74h20v-.55l-.68,0A84.06,84.06,0,0,1,668.18,378.6Z"/><path class="f" d="M668.18,376.35v2.26a84.06,84.06,0,0,0,19.32,1.22l.68,0v-3.45Z"/><rect class="f" x="668.18" y="387.35" width="20" height="3"/><rect class="f" x="668.18" y="311.35" width="20" height="4"/><rect class="f" x="668.18" y="322.35" width="20" height="4"/><rect class="f" x="668.18" y="333.35" width="20" height="4"/><path class="f" d="M612.18,376.35h-18v4h11.54a11.09,11.09,0,0,1,6.46-3.84Z"/><path class="f" d="M594.18,387.35v3h6.07a12.93,12.93,0,0,1,.7-3Z"/><path class="f" d="M621.18,376.63a14.48,14.48,0,0,0-9-.12v3.84h-6.46a15,15,0,0,0-4.77,7h2.23v3h-2.93c0,1-.07,1.18-.07,1.67A16.39,16.39,0,1,0,633,392c0-.48,0-.61-.07-1.61h-.71v-3h0a15,15,0,0,0-4.77-7h-6.24Zm8.26,15.61a12.87,12.87,0,1,1-12.87-12.87A12.89,12.89,0,0,1,629.44,392.24Z"/><path class="f" d="M621.18,380.35h6.24a10.15,10.15,0,0,0-6.24-3.72Z"/><path class="f" d="M632.18,390.35h.71a12.92,12.92,0,0,0-.7-3h0Z"/><path class="f" d="M612.18,376.51a11.09,11.09,0,0,0-6.46,3.84h6.46Z"/><path class="f" d="M603.18,387.35h-2.23a12.93,12.93,0,0,0-.7,3h2.93Z"/><rect class="f" x="615.18" y="385.35" width="3" height="14"/><path class="d" d="M872.13,341.38c0-.13-.1-.23-.1-.37a58.88,58.88,0,0,1,6.14-26.5v-3.17h2.05a75.89,75.89,0,0,1,10.95-14.06V277.35h4v16.94a29,29,0,0,1,7-4.7V232.33c0-.38-.21-.75-.17-1.11,0-.13-.08-.25-.06-.38s0-.47,0-.7,0-.3.08-.45.08-.39.14-.59.1-.32.16-.48.12-.35.19-.52.14-.33.22-.49.14-.31.22-.46.18-.33.27-.49l.25-.41.33-.48.27-.36.38-.47.28-.31.44-.45.28-.26c.16-.15.33-.29.5-.43l.28-.21c.19-.14.38-.28.57-.41l.24-.15c.22-.13.43-.27.66-.38l.15-.07a11.2,11.2,0,0,1,3.65-1.12l.15,0c-5,0-101.71,0-104.78,0a11.07,11.07,0,0,0-9.74,11.2v136H841.1A36.82,36.82,0,0,1,872.13,341.38Zm6-71h4v36h-4Zm-35,46h-4v-5h4Zm0-10h-4v-28h4Zm13,10h-4v-5h4Zm0-10h-4v-17h4Zm13,10h-4v-5h4Zm0-10h-4v-9h4Zm-57-66h26v4h-26Zm-1,12h63v3h-63Zm6,64h-4v-5h4Zm0-10h-4v-9h4Zm13,10h-4v-5h4Zm0-10h-4v-18h4Z"/><path class="d" d="M786.7,385.33h0Z"/><path class="d" d="M838.79,385.35h0Z"/><path class="d" d="M895.18,306.35h-4v-9.06a75.89,75.89,0,0,0-10.95,14.06h1.95v5h-4v-1.83A59,59,0,0,0,872,341c0,.13.05.21.05.34a36.76,36.76,0,0,0-31,27h40.08v5.78a11.31,11.31,0,0,0,9.69,11.22h.86c5.61-1,10-5.37,10-11.16l0-1.84h.49V289.59a29,29,0,0,0-7,4.7Zm0,10h-4v-5h4Z"/><path class="d" d="M840.79,385.32h0Z"/><path class="w" d="M907.75,222.35c-.23.12-.44.25-.66.38l-.24.15c-.2.13-.38.27-.57.41l-.28.21c-.17.14-.34.28-.5.43l-.28.26-.44.45-.28.31-.38.47-.27.36-.33.48-.25.41c-.09.16-.19.32-.27.49s-.15.31-.22.46-.15.32-.22.49-.13.34-.19.52-.11.32-.16.48-.1.39-.15.59-.08.3-.11.45-.08.46-.11.7.19.25.17.38c0,.37.17.74.17,1.11v12h22v-12A11.23,11.23,0,0,0,912.95,221a10.9,10.9,0,0,0-1.43.1,11.12,11.12,0,0,0-3.63,1.12Z"/><path class="w" d="M911.55,221.15a11.2,11.2,0,0,0-3.65,1.12A11.2,11.2,0,0,1,911.55,221.15Z"/><path class="w" d="M906.28,223.29c.19-.14.38-.28.57-.41C906.65,223,906.46,223.15,906.28,223.29Z"/><path class="w" d="M907.09,222.73c.22-.13.43-.27.66-.38C907.53,222.47,907.31,222.6,907.09,222.73Z"/><path class="w" d="M904.1,225.41l.38-.47Z"/><path class="w" d="M901.78,231.21c0-.13,0-.25.05-.38C901.81,231,901.79,231.08,901.78,231.21Z"/><path class="w" d="M902.2,229.09c0-.16.11-.32.16-.48C902.3,228.77,902.25,228.93,902.2,229.09Z"/><path class="w" d="M901.94,230.13c0-.15.07-.3.11-.45C902,229.83,902,230,901.94,230.13Z"/><path class="w" d="M905.5,223.92c.16-.15.33-.29.5-.43C905.83,223.63,905.66,223.77,905.5,223.92Z"/><path class="w" d="M904.77,224.63l.44-.45Z"/><path class="w" d="M902.55,228.09c.07-.17.14-.33.22-.49C902.69,227.77,902.62,227.93,902.55,228.09Z"/><path class="w" d="M903.51,226.25l.33-.48Z"/><path class="w" d="M903,227.14c.09-.17.18-.33.27-.49C903.17,226.82,903.07,227,903,227.14Z"/><path class="w" d="M786.74,385.33h0Z"/><path class="w" d="M796.18,374.13v-2.78h1v-3h-21v5.78a11.3,11.3,0,0,0,9.68,11.22h.85A11.12,11.12,0,0,0,796.18,374.13Z"/><path class="w" d="M890.86,385.33h0Z"/><path class="w" d="M839.94,377.5a37.51,37.51,0,0,1,1.15-9.15H797.18v3h-1v2.78a11.12,11.12,0,0,1-9.47,11.22h54.08A40.89,40.89,0,0,1,839.94,377.5Z"/><path class="w" d="M881.18,374.13v-5.78H841.1a37.4,37.4,0,0,0-1.15,9.14,36.81,36.81,0,0,0,.84,7.82c24.09,0,47.51,0,50,0h0A11.31,11.31,0,0,1,881.18,374.13Z"/><rect class="f" x="839.18" y="278.35" width="4" height="28"/><rect class="f" x="826.18" y="288.35" width="4" height="18"/><rect class="f" x="813.18" y="297.35" width="4" height="9"/><rect class="f" x="839.18" y="311.35" width="4" height="5"/><rect class="f" x="826.18" y="311.35" width="4" height="5"/><rect class="f" x="813.18" y="311.35" width="4" height="5"/><rect class="f" x="878.18" y="270.35" width="4" height="36"/><rect class="f" x="865.18" y="297.35" width="4" height="9"/><rect class="f" x="852.18" y="289.35" width="4" height="17"/><path class="f" d="M878.18,311.35v3.17a24.34,24.34,0,0,0,2.05-3.17Z"/><path class="f" d="M882.18,316.35v-5h-1.95a24.34,24.34,0,0,1-2.05,3.17v1.83Z"/><rect class="f" x="865.18" y="311.35" width="4" height="5"/><rect class="f" x="852.18" y="311.35" width="4" height="5"/><path class="f" d="M921.18,278.35h-4v4.93a21.1,21.1,0,0,1,4-.76Z"/><path class="f" d="M921.18,306.35V282.52a21.1,21.1,0,0,0-4,.76v23.07Z"/><path class="f" d="M904.18,286.35v1.85a15.76,15.76,0,0,0,3.41-1.85Z"/><path class="f" d="M908.18,306.35v-20h-.59a15.76,15.76,0,0,1-3.41,1.85v18.15Z"/><path class="f" d="M895.18,277.35h-4v19.94a12.38,12.38,0,0,1,4-3Z"/><path class="f" d="M895.18,306.35V294.29a12.38,12.38,0,0,0-4,3v9.06Z"/><rect class="f" x="917.18" y="311.35" width="4" height="5"/><rect class="f" x="904.18" y="311.35" width="4" height="5"/><rect class="f" x="891.18" y="311.35" width="4" height="5"/><rect class="f" x="812.18" y="240.35" width="26" height="4"/><rect class="f" x="811.18" y="252.35" width="63" height="3"/><path class="w" d="M181.18,361.42v28.92h29.07l1.05-1.16C209.31,373.93,197.18,362.4,181.18,361.42Z"/><path class="w" d="M211.55,389.33l-1.3,1.3h1.45C211.66,390.19,211.61,389.76,211.55,389.33Z"/><path class="d" d="M180.64,395.35l-22.36,22.46a31.92,31.92,0,0,0,17,7.68l30.09-30.14Z"/><path class="d" d="M202.4,416.37a32.06,32.06,0,0,0,9.4-21h-6.45l-30.09,30.19a32.74,32.74,0,0,0,4.32.29A32.07,32.07,0,0,0,202.4,416.37Z"/><path class="f" d="M154.72,421.52l-2.34,2.63a40.69,40.69,0,0,0,15.69,8.65l2.88-2.88A37.16,37.16,0,0,1,154.72,421.52Z"/><path class="f" d="M181.41,352.94l-.17,3.52a37.17,37.17,0,0,1,34.47,28.72l2.89-2.89A40.69,40.69,0,0,0,181.41,352.94Z"/><path class="f" d="M216.23,411.22,197,430.44A41,41,0,0,0,216.23,411.22Z"/><path class="f" d="M197,430.44l19.22-19.22a40.82,40.82,0,0,0,2.37-28.93l-2.89,2.89A37.25,37.25,0,0,1,171,429.92l-2.88,2.88A40.7,40.7,0,0,0,197,430.44Z"/><path class="f" d="M138.24,393.66a40.77,40.77,0,0,0,10.22,27.18l27.72-28.4V352.75A41.07,41.07,0,0,0,138.24,393.66Zm34.94-36.93V391l-24.1,24.53a37.52,37.52,0,0,1,24.1-58.82Z"/><path class="d" d="M89.18,359.48v28.87h29.89C117.63,372.35,105.18,360.48,89.18,359.48Z"/><path class="f" d="M88.78,351l-.17,3.52a37.25,37.25,0,0,1,23.2,64.81l2.36,2.61A40.77,40.77,0,0,0,88.78,351Z"/><path class="f" d="M49.95,394.67,46.31,391c0,.21,0,.42,0,.64a40.82,40.82,0,0,0,40.77,40.77l.63,0-3.63-3.63A37.3,37.3,0,0,1,49.95,394.67Z"/><path class="f" d="M80.18,355.11v38.43l14.69,19.36,13.52,13.58.71-.5L83.18,392.34V351l-1.87.28a40.66,40.66,0,0,0-29.07,19.17L55,373A37.09,37.09,0,0,1,80.18,355.11Z"/><path class="f" d="M49.95,394.67c-.08-1-.13-2-.13-3a37,37,0,0,1,5-18.65l-2.56-2.56a40.54,40.54,0,0,0-6,20.57Z"/><path class="f" d="M103.92,424.89a37.24,37.24,0,0,1-16.85,4c-1,0-2-.05-3-.13l3.63,3.63A40.7,40.7,0,0,0,107.46,427l.86-.5L94.74,412.89Z"/><path class="e" d="M92.32,393.35c3.87,5,10.46,13.58,16.74,21.7.23-.22.47-.49.7-.71a32,32,0,0,0,9.4-21Z"/><path class="d" d="M301.64,136.28c.1.46.2.93.29,1.4C301.84,137.21,301.74,136.75,301.64,136.28Z"/><path class="d" d="M282.41,136.59l-.11-.33Z"/><path class="d" d="M302.6,142.21c0,.19,0,.38.07.58C302.65,142.6,302.62,142.41,302.6,142.21Z"/><path class="d" d="M302.24,139.48c0,.32.09.64.14,1C302.34,140.12,302.29,139.8,302.24,139.48Z"/><path class="d" d="M283.06,138.77l-.06-.2Z"/><path class="d" d="M283.71,127.5l-.11-.18h0l-.88-1.52,8.38-4.84,1,1.79,3.6-2a56.2,56.2,0,0,1,4.29,9.68,56.61,56.61,0,1,0-93.56,58.09l9.83-11.05,2.6-2.93a37.92,37.92,0,1,1,60.6-44.6h0Zm-89.53,18.69v-1.84h9v4h-9Zm14.42,21.45h0l.88,1.53L201.1,174l-.88-1.53-.88-1.53,8.38-4.84.88,1.53Zm.41-41-8.38-4.83,1.76-3.05,8.38,4.83Zm15.4-15.75-4.83-8.38,1.53-.88h0l1.53-.88,4.83,8.38Zm24.77-5.51h-4v-10h4Zm20.84,6.8-3-1.76,4.84-8.38,3,1.76Z"/><path class="d" d="M281.56,134.22l0-.05Z"/><path class="d" d="M300.11,130.65q.75,2.29,1.31,4.65Q300.87,132.95,300.11,130.65Z"/><path class="d" d="M286.12,188.48l.3-.29-.3.29Z"/><path class="d" d="M283.61,141.27l0-.27Z"/><path class="d" d="M284,143.81c0-.22-.05-.44-.08-.66C283.94,143.37,284,143.59,284,143.81Z"/><path class="d" d="M284.2,146.07c0-.22,0-.44,0-.67C284.16,145.63,284.18,145.85,284.2,146.07Z"/><path class="d" d="M302.84,145.14c0,.22,0,.44,0,.67C302.86,145.58,302.85,145.36,302.84,145.14Z"/><path class="e" d="M301.42,135.3q.11.49.22,1C301.57,136,301.5,135.63,301.42,135.3Z"/><path class="e" d="M302.67,142.79c.08.78.13,1.56.17,2.35C302.8,144.35,302.74,143.57,302.67,142.79Z"/><path class="e" d="M282.31,136.26q-.34-1-.74-2C281.83,134.89,282.08,135.57,282.31,136.26Z"/><path class="e" d="M300,130.38l.09.27Z"/><path class="e" d="M281.54,134.17a37.43,37.43,0,0,0-2-4.28A37.66,37.66,0,0,1,281.54,134.17Z"/><path class="e" d="M302.87,145.81c0,.82.06,1.65.06,2.47C302.93,147.45,302.91,146.63,302.87,145.81Z"/><path class="e" d="M283.56,141q-.22-1.13-.51-2.23Q283.34,139.88,283.56,141Z"/><path class="e" d="M283,138.57q-.26-1-.59-2Q282.73,137.57,283,138.57Z"/><path class="e" d="M283.91,143.15q-.13-.95-.3-1.88Q283.78,142.2,283.91,143.15Z"/><path class="e" d="M284.15,145.41q-.06-.8-.15-1.59Q284.09,144.61,284.15,145.41Z"/><path class="e" d="M301.93,137.68q.17.9.31,1.8Q302.1,138.58,301.93,137.68Z"/><polygon class="e" points="286.12 188.48 286.12 188.48 276.27 177.42 286.12 188.48"/><path class="e" d="M302.38,140.44q.12.88.22,1.77Q302.5,141.32,302.38,140.44Z"/><path class="e" d="M284.27,148.28c0-.74,0-1.48-.07-2.21C284.24,146.8,284.27,147.54,284.27,148.28Z"/><path class="e" d="M302.87,145.81c0-.22,0-.44,0-.67,0-.79-.1-1.57-.17-2.35,0-.19,0-.38-.07-.58q-.1-.89-.22-1.77c0-.32-.09-.64-.14-1q-.14-.9-.31-1.8c-.09-.47-.19-.93-.29-1.4s-.14-.65-.22-1q-.56-2.36-1.31-4.65l-.09-.27a56.2,56.2,0,0,0-4.29-9.68l-3.6,2,.73,1.26-8.38,4.84-.77-1.34-4.22,2.39h0a37.43,37.43,0,0,1,2,4.28l0,.05q.4,1,.74,2l.11.33q.32,1,.59,2l.06.2q.29,1.11.51,2.23l0,.27q.17.93.3,1.88c0,.22.06.44.08.66q.09.79.15,1.59c0,.22,0,.44,0,.67,0,.73.07,1.47.07,2.21a37.59,37.59,0,0,1-10.58,26.24l2.58,2.9,9.85,11.07.3-.29a56.14,56.14,0,0,0,16.52-39.92C302.93,147.45,302.91,146.63,302.87,145.81Zm-12.18,28.9h0l-.88,1.53-8.38-4.83.88-1.53h0l.88-1.53,8.38,4.83-.88,1.53Zm7.49-24.36h-10v-3h10v3Z"/><rect class="f" x="247.18" y="95.35" width="2" height="10"/><rect class="f" x="245.18" y="95.35" width="2" height="10"/><polygon class="f" points="221.1 101.59 225.93 109.97 221.1 101.59 219.57 102.47 224.41 110.85 227.46 109.09 222.63 100.71 221.1 101.59"/><path class="f" d="M200.63,121.77,209,126.6l1.76-3.05-8.37-4.83Zm.88-1.53,8.38,4.83Z"/><rect class="f" x="194.18" y="146.35" width="9" height="2"/><rect class="f" x="194.18" y="144.35" width="9" height="2"/><rect class="f" x="199.13" y="168.41" width="9.68" height="1.76" transform="translate(-57.32 124.64) rotate(-30)"/><rect class="f" x="200.01" y="169.94" width="9.68" height="1.76" transform="translate(-57.95 125.22) rotate(-29.98)"/><rect class="f" x="285.18" y="168.21" width="1.76" height="9.68" transform="translate(-6.76 334.4) rotate(-60.03)"/><rect class="f" x="286.06" y="166.69" width="1.76" height="9.68" transform="translate(-4.97 334.45) rotate(-60.04)"/><rect class="f" x="288.18" y="148.35" width="10" height="2"/><rect class="f" x="288.18" y="147.35" width="10" height="1"/><polygon class="f" points="282.72 125.79 283.6 127.31 291.98 122.47 283.6 127.31 283.71 127.5 284.4 127.1 292.13 122.74 291.1 120.95 282.72 125.79"/><polygon class="f" points="283.71 127.5 284.48 128.84 292.86 124 292.13 122.74 284.4 127.1 283.71 127.5"/><path class="f" d="M255.11,144.54l18.36-10.6-.88-1.52L254.27,143A9.47,9.47,0,0,1,255.11,144.54Z"/><path class="f" d="M253.14,141.61a9.67,9.67,0,0,1,1.13,1.38l18.32-10.58-.88-1.52Z"/><path class="f" d="M267,110.38l3,1.76,4.84-8.38-3-1.76Zm1.52.88,4.84-8.38Z"/><path class="d" d="M246.32,142.25a6.05,6.05,0,0,0-6,6,6,6,0,1,0,6-6Z"/><path class="f" d="M253.45,143.46h0l-.88-1.52.57-.33-.07-.08a9.53,9.53,0,0,0-13.51,0,8.9,8.9,0,0,0-2.79,6.49,9.35,9.35,0,0,0,9.55,9.3h0a9.19,9.19,0,0,0,8.78-12.87l-.78.48Zm-1.61,10.32a7.77,7.77,0,1,1,2.28-5.49A7.76,7.76,0,0,1,251.84,153.78Z"/><path class="f" d="M253.45,143.46l.82-.47a9.67,9.67,0,0,0-1.13-1.38l-.57.33Z"/><path class="f" d="M253.45,143.46l.88,1.52.78-.45a9.47,9.47,0,0,0-.84-1.55Z"/><path class="f" d="M246.32,140.49a7.81,7.81,0,0,0-7.79,7.8,7.79,7.79,0,1,0,7.79-7.8Zm4.27,12a6,6,0,1,1-8.54-8.51,6,6,0,1,1,8.54,8.51Z"/><path class="f" d="M951.7,414.35c-3.28,5-6.74,11.61-9.25,15.54-2.51-3.93-6-10.54-9.25-15.54h-4c5.45,10,11.36,18.82,11.81,19.51l1.47,2.11,1.47-2.05c.46-.69,6.37-9.57,11.81-19.57h-4Z"/><path class="f" d="M942.44,367.1a22.79,22.79,0,0,0-22.57,22.79c0,5.58,4.46,15.46,9.28,24.46h4c-5.11-10-9.79-19.4-9.79-24.46a19,19,0,1,1,38.09.06c0,5.06-4.68,14.4-9.79,24.4h4c4.82-9,9.28-18.88,9.28-24.46A22.79,22.79,0,0,0,942.44,367.1Z"/><circle class="d" cx="942.44" cy="390.82" r="6.16"/><rect class="f" x="320.89" y="345.95" width="46.37" height="3.52" transform="translate(-135.76 442.82) rotate(-56.51)"/><path class="f" d="M332.68,349.36a7.48,7.48,0,0,0,7.5-7.33v-7.6a7.5,7.5,0,0,0-15,0V342A7.48,7.48,0,0,0,332.68,349.36Zm-4.5-14.93a4,4,0,0,1,8,0V342a4,4,0,0,1-8,0Z"/><path class="f" d="M348.18,353.4V361a7.5,7.5,0,0,0,15,0v-7.6a7.5,7.5,0,0,0-15,0Zm11,0V361a3.51,3.51,0,1,1-7,0v-7.6a3.51,3.51,0,1,1,7,0Z"/><path class="ah" d="M485.83,80.56c0-.43.06-.87.09-1.3C485.89,79.7,485.85,80.13,485.83,80.56Z"/><path class="ah" d="M486,78.51c.06-.63.13-1.27.22-1.9C486.12,77.24,486,77.87,486,78.51Z"/><path class="ah" d="M518.79,123.23A42.2,42.2,0,0,1,493,100.35h-3.82l-.43-1.28A46.88,46.88,0,0,1,486.32,89a45.59,45.59,0,0,0,43.86,39.66v-.06A20.16,20.16,0,0,1,518.79,123.23Z"/><path class="ah" d="M486.2,88.84c-.09-.62-.16-1.25-.22-1.88C486,87.59,486.11,88.21,486.2,88.84Z"/><path class="ah" d="M489.2,65.35H493a42.36,42.36,0,0,1,25.77-23,20.35,20.35,0,0,1,11.39-5.45v-.06a45.65,45.65,0,0,0-43.86,39.73,46.58,46.58,0,0,1,2.51-10.07Z"/><path class="ah" d="M485.92,86.19c0-.43-.07-.86-.09-1.29C485.85,85.34,485.89,85.76,485.92,86.19Z"/><path class="ah" d="M574,79.84h0c0-.26,0-.53-.06-.79V79C574,79.27,574,79.55,574,79.84Z"/><path class="ah" d="M574,86.48v-.05c0-.26,0-.53.06-.79h0C574,85.92,574,86.2,574,86.48Z"/><path class="ah" d="M573.78,88.05v0l0-.14h0Z"/><path class="ah" d="M574.08,84.64c0-.63,0-1.27,0-1.91,0,.65,0,1.3,0,1.94Z"/><path class="ah" d="M570.41,65.4h0c-.13-.28-.25-.56-.38-.83C570.16,64.84,570.28,65.12,570.41,65.4Z"/><path class="ah" d="M574.12,82.73c0-.64,0-1.28,0-1.91v0C574.1,81.44,574.12,82.08,574.12,82.73Z"/><path class="ah" d="M573.8,77.59h0l0-.14v0Z"/><path class="ah" d="M570,100.9c.13-.28.25-.56.38-.83h0C570.28,100.34,570.16,100.63,570,100.9Z"/><path class="ah" d="M549.73,121.12l-1,.45Z"/><path class="ah" d="M489.41,79.84c0-.28,0-.57.06-.85C489.45,79.27,489.43,79.55,489.41,79.84Z"/><path class="ah" d="M548.74,43.91l1,.45Z"/><path class="ah" d="M489.62,77.59l0-.17Z"/><path class="ah" d="M546.85,43.13l1,.4Z"/><path class="ah" d="M562,53l.75.78Z"/><path class="ah" d="M489.48,86.48c0-.28,0-.56-.06-.84C489.43,85.92,489.45,86.2,489.48,86.48Z"/><path class="ah" d="M489.35,84.67c0-.64,0-1.29,0-1.94C489.3,83.38,489.32,84,489.35,84.67Z"/><path class="ah" d="M489.3,82.73c0-.65,0-1.3,0-1.94C489.32,81.44,489.3,82.09,489.3,82.73Z"/><path class="ah" d="M559,50.31l.82.71Z"/><path class="ah" d="M489.65,88l0-.16Z"/><path class="ah" d="M557.44,49l.85.67Z"/><path class="ah" d="M560.51,51.64l.78.75Z"/><path class="ah" d="M550.58,44.77l1,.5Z"/><path class="ah" d="M552.38,45.72l.94.54Z"/><path class="ah" d="M555.8,47.86l.88.63Z"/><path class="ah" d="M554.12,46.75l.91.58Z"/><path class="ah" d="M544.92,42.44l1,.35Z"/><path class="ah" d="M565.31,108.58l-.67.85Z"/><path class="ah" d="M564,110.15l-.71.81Z"/><path class="ah" d="M561.29,113.09l-.78.74Z"/><path class="ah" d="M562.7,111.65l-.74.78Z"/><path class="ah" d="M566.5,107c-.21.29-.41.59-.62.88C566.09,107.55,566.29,107.25,566.5,107Z"/><path class="ah" d="M567.61,105.27c-.19.3-.38.61-.58.91C567.23,105.88,567.42,105.58,567.61,105.27Z"/><path class="ah" d="M569.61,101.75c-.16.32-.32.65-.5,1C569.28,102.39,569.45,102.07,569.61,101.75Z"/><path class="ah" d="M568.65,103.54c-.18.31-.35.63-.54.94C568.3,104.17,568.47,103.85,568.65,103.54Z"/><path class="ah" d="M546,122.68l-1,.36Z"/><path class="ah" d="M551.55,120.21l-1,.5Z"/><path class="ah" d="M547.87,121.94l-1,.4Z"/><path class="ah" d="M553.32,119.21l-.94.54Z"/><path class="ah" d="M555,118.14l-.91.58Z"/><path class="ah" d="M559.82,114.46l-.81.7Z"/><path class="ah" d="M558.28,115.76l-.85.67Z"/><path class="ah" d="M556.68,117l-.88.63Z"/><path class="ah" d="M563.33,54.51l.71.82Z"/><path class="ah" d="M564.64,56l.67.85Z"/><path class="ah" d="M567,59.29c.2.3.39.61.59.91C567.42,59.89,567.23,59.59,567,59.29Z"/><path class="ah" d="M569.11,62.76c.17.32.33.65.5,1C569.45,63.4,569.28,63.08,569.11,62.76Z"/><path class="ah" d="M568.11,61c.19.31.36.63.54.94C568.48,61.62,568.3,61.31,568.11,61Z"/><path class="ah" d="M565.87,57.64c.21.29.42.59.63.88C566.29,58.22,566.09,57.93,565.87,57.64Z"/><path class="ah" d="M557,100.35h-3.58c-3.49,14-11.23,23.51-20.23,24.68v.08h.36l1.06-.06,1.18-.09,1-.11,1.14-.14,1-.16,1.11-.2.94-.2,1.09-.25.93-.25,1.07-.3c.25-.08.49,0,.74-.1C550.25,118.18,554.6,110.35,557,100.35Z"/><path class="ah" d="M510,100.35h-3.58c2.39,10,6.86,17.84,12.36,22.88a42.38,42.38,0,0,0,11.39,1.88V125C521.18,123.85,513.5,114.35,510,100.35Z"/><path class="ah" d="M507.92,82.84a67,67,0,0,1,1.3-13.5h-3.56a72.75,72.75,0,0,0,0,27h3.56A67,67,0,0,1,507.92,82.84Z"/><path class="ah" d="M553.41,65.35H557c-2.39-10-6.74-17.94-12.24-23l-.74-.22-1.06-.29-.93-.25-1.08-.25-1-.21-1.1-.2-1-.16-1.11-.14-1-.11-1.13-.09-1.14-.07h-.36v.08C542.18,41.62,549.91,51.35,553.41,65.35Z"/><path class="ah" d="M555.49,82.84a67,67,0,0,1-1.3,13.5h3.56a72.78,72.78,0,0,0,0-27h-3.56A67,67,0,0,1,555.49,82.84Z"/><path class="ah" d="M506.42,65.35H510c3.5-14,11.17-23.72,20.17-24.89v-.08a42.42,42.42,0,0,0-11.39,2C513.28,47.4,508.81,55.35,506.42,65.35Z"/><path class="ah" d="M540.93,41.35l1.08.25Z"/><path class="ah" d="M534.68,40.44l1.13.09Z"/><path class="ah" d="M542.95,41.85l1.06.3Z"/><path class="ah" d="M538.88,40.94l1.1.2Z"/><path class="ah" d="M536.8,40.64l1.11.14Z"/><path class="ah" d="M535.82,124.95l-1.14.09Z"/><path class="ah" d="M537.92,124.69l-1.13.14Z"/><path class="ah" d="M540,124.33l-1.11.2Z"/><path class="ah" d="M533.47,125.11h0Z"/><path class="ah" d="M533.47,40.36h0Z"/><path class="ah" d="M530.18,36.91a20.09,20.09,0,0,0-11.28,5.48,41.61,41.61,0,0,1,11.28-2Z"/><path class="ah" d="M544,123.33l-1.07.3Z"/><path class="ah" d="M530.18,128.56V125.1a41.61,41.61,0,0,1-11.28-2A20.09,20.09,0,0,0,530.18,128.56Z"/><path class="ah" d="M542,123.88l-1.09.25Z"/><path class="ah" d="M548.74,121.57l-.87.38Z"/><path class="ah" d="M546.85,122.35l-.89.33Z"/><path class="ah" d="M550.58,120.7l-.85.41Z"/><path class="ah" d="M568.65,61.94c.15.27.31.54.46.82C569,62.48,568.81,62.21,568.65,61.94Z"/><path class="ah" d="M552.38,119.75l-.83.45Z"/><path class="ah" d="M564.64,109.43l-.6.72Z"/><path class="ah" d="M568.11,104.47c-.16.27-.33.53-.5.8C567.78,105,568,104.74,568.11,104.47Z"/><path class="ah" d="M567,106.18l-.53.77Z"/><path class="ah" d="M565.87,107.83l-.57.75Z"/><path class="ah" d="M563.33,111l-.63.69Z"/><path class="ah" d="M554.12,118.72l-.8.49Z"/><path class="ah" d="M570,100.9c-.14.28-.28.56-.42.85C569.75,101.47,569.89,101.19,570,100.9Z"/><path class="ah" d="M544.92,42.44l-.18-.06h0Z"/><path class="ah" d="M569.11,102.71c-.15.28-.31.55-.46.83C568.81,103.26,569,103,569.11,102.71Z"/><path class="ah" d="M530.18,65.35h3V40.45a8.82,8.82,0,0,0-3,0Z"/><path class="ah" d="M555.81,117.61l-.78.53Z"/><rect class="ah" x="530.18" y="69.35" width="3" height="27"/><path class="ah" d="M569.61,63.73c.14.28.28.56.42.84C569.89,64.29,569.75,64,569.61,63.73Z"/><path class="ah" d="M560.52,113.83l-.7.63Z"/><path class="ah" d="M562,112.43l-.67.66Z"/><path class="ah" d="M557.44,116.43l-.75.56Z"/><path class="ah" d="M559,115.16l-.72.6Z"/><path class="ah" d="M561.3,52.39,562,53Z"/><path class="ah" d="M562.7,53.82l.63.69Z"/><path class="ah" d="M547.87,43.53l.87.38Z"/><path class="ah" d="M546,42.79l.89.33Z"/><path class="ah" d="M530,36.8v0c.59,0,1.17,0,1.76,0Z"/><path class="ah" d="M558.28,49.71l.72.59Z"/><path class="ah" d="M564,55.33l.6.71Z"/><path class="ah" d="M544.74,123.09l.17-.06-.17.05Z"/><path class="ah" d="M551.55,45.27l.83.45Z"/><path class="ah" d="M553.32,46.26l.8.49Z"/><path class="ah" d="M555,47.33l.78.53Z"/><path class="ah" d="M549.73,44.36l.85.41Z"/><path class="ah" d="M565.31,56.89l.56.74Z"/><path class="ah" d="M556.69,48.49l.75.56Z"/><path class="ah" d="M567.62,60.2l.49.79Z"/><path class="ah" d="M533.18,100.35h-3V125a8.82,8.82,0,0,0,3,0Z"/><path class="ah" d="M530,128.67h1.76c-.59,0-1.18,0-1.76,0Z"/><path class="ah" d="M566.5,58.52l.53.77Z"/><path class="ah" d="M559.82,51l.69.62Z"/><path class="ah" d="M574.12,82.73c0,.64,0,1.28,0,1.91C574.11,84,574.12,83.37,574.12,82.73Z"/><path class="ah" d="M574,85.64c0,.26,0,.53-.06.79C574,86.17,574,85.9,574,85.64Z"/><path class="ah" d="M574.08,80.83c0,.63,0,1.27,0,1.91C574.12,82.1,574.11,81.46,574.08,80.83Z"/><path class="ah" d="M573.8,87.89l0,.14Z"/><path class="ah" d="M577.5,79.28c0,.43.07.86.09,1.28C577.57,80.13,577.54,79.71,577.5,79.28Z"/><path class="ah" d="M577.23,76.63q.13.94.22,1.87C577.39,77.87,577.31,77.25,577.23,76.63Z"/><path class="ah" d="M577.44,87q-.09.94-.22,1.88C577.31,88.22,577.39,87.6,577.44,87Z"/><path class="ah" d="M573.78,77.44l0,.14Z"/><path class="ah" d="M574,79c0,.26,0,.53.06.79C574,79.57,574,79.3,574,79Z"/><path class="ah" d="M577.59,84.91c0,.43-.06.86-.09,1.29C577.54,85.76,577.57,85.34,577.59,84.91Z"/><path class="ah" d="M530,128.63c.59,0,1.17,0,1.76,0a16.43,16.43,0,0,1-1.76-.11Z"/><path class="ah" d="M574.22,100.35h-3.82c-.13,0-.25.42-.38.69s-.28.49-.42.78-.32.61-.5.93-.31.53-.46.81l-.54.93c-.16.27-.33.53-.5.79s-.38.61-.58.91l-.53.77c-.21.29-.41.59-.62.88l-.57.75-.67.85-.6.72-.71.81-.63.69-.74.78-.67.66-.78.74-.7.63-.81.7-.72.6-.85.67-.75.56-.88.63-.78.53-.91.58-.8.49-.94.54-.83.45-1,.5-.85.41-1,.45-.87.38-1,.4-.89.33-1,.36-.17.06c-3.87,3.56-8.31,5.58-13,5.58A46,46,0,0,0,577.22,88.9a47.54,47.54,0,0,1-2.57,10.17Z"/><path class="ah" d="M531.71,36.8c-.59,0-1.18,0-1.76,0v.06A16.49,16.49,0,0,1,531.71,36.8Z"/><path class="ah" d="M544.92,42.44l1,.35.89.33,1,.4.87.38,1,.45.85.41,1,.5.83.45.94.54.8.49.91.58.78.53.88.63.75.56.85.67.72.59.82.71.69.62.78.75L562,53l.75.78.63.69.71.82.6.71.67.85.56.74c.21.29.42.59.63.88l.53.77c.2.3.39.61.59.91l.49.79c.19.31.36.63.54.94s.31.54.46.82.33.65.5,1,.28.53.42.81.25.81.38.81h3.82l.43,1.17a46.47,46.47,0,0,1,2.57,10A46,46,0,0,0,531.71,36.8c4.72,0,9.16,2,13,5.58Z"/><path class="ah" d="M531.71,40.33c-.59,0-1.18,0-1.76,0v.08A13.51,13.51,0,0,1,531.71,40.33Z"/><path class="ah" d="M544,123.33l.73-.23h0Z"/><path class="ah" d="M533.47,40.37c-.58,0-1.17,0-1.76,0a13.55,13.55,0,0,1,1.76.13Z"/><path class="ah" d="M540.93,124.13l-.94.2Z"/><path class="ah" d="M531.71,125.15c.59,0,1.18,0,1.76,0V125A13.5,13.5,0,0,1,531.71,125.15Z"/><path class="ah" d="M538.88,124.53l-1,.16Z"/><path class="ah" d="M534.68,125l-1,.06Z"/><path class="ah" d="M536.79,124.83l-1,.11Z"/><path class="ah" d="M544.74,42.38l-.74-.23.74.24Z"/><path class="ah" d="M542.94,123.63l-.93.25Z"/><path class="ah" d="M540,41.14l1,.21Z"/><path class="ah" d="M542,41.6l.93.25Z"/><path class="ah" d="M530,125.1c.58,0,1.17,0,1.76,0A13.55,13.55,0,0,1,530,125Z"/><path class="ah" d="M537.91,40.78l1,.16Z"/><path class="ah" d="M533.69,40.38l1,.07Z"/><path class="ah" d="M535.82,40.53l1,.11Z"/><path class="ah" d="M530.18,40.37s.91,0,1.5,0,1.5,0,1.5,0h.36l1.07.07,1.17.09,1,.11,1.12.14,1,.16,1.1.2,1,.21,1.08.25.93.25,1.06.3.74.23c-3.87-3.56-8.2-5.58-12.92-5.58a8.45,8.45,0,0,0-1.65.11Z"/><path class="ah" d="M544,123.33l-1.07.3-.93.25-1.09.25-.94.2-1.11.2-1,.16-1.13.14-1,.11-1.14.09-1.13.06h-.36s-.91,0-1.5,0-1.5,0-1.5,0v3.46a8.43,8.43,0,0,0,1.65.11c4.72,0,9.1-2,13-5.58Z"/><path class="ah" d="M574,85.63v0c0-.24,0-.48.05-.72,0-.07,0-.14,0-.21C574.06,85,574,85.31,574,85.63Z"/><path class="ah" d="M577.59,80.56c0,.72.05,1.44.05,2.17C577.65,82,577.63,81.29,577.59,80.56Z"/><path class="ah" d="M577.44,78.5c0,.26,0,.52.06.77C577.48,79,577.47,78.76,577.44,78.5Z"/><path class="ah" d="M577.22,76.57v0Z"/><path class="ah" d="M577.65,82.73c0,.73,0,1.45-.05,2.17C577.63,84.18,577.65,83.46,577.65,82.73Z"/><path class="ah" d="M577.5,86.19c0,.26,0,.52-.06.77C577.47,86.71,577.48,86.45,577.5,86.19Z"/><path class="ah" d="M489.62,87.88c-.06-.47-.11-.94-.15-1.41C489.52,86.95,489.57,87.41,489.62,87.88Z"/><path class="ah" d="M577.22,88.9v0Z"/><path class="ah" d="M489.41,85.64c0-.32,0-.64-.06-1C489.36,85,489.39,85.32,489.41,85.64Z"/><path class="ah" d="M486,87c0-.25,0-.51-.06-.77C485.94,86.45,486,86.71,486,87Z"/><path class="ah" d="M486.2,88.89v0Z"/><path class="ah" d="M485.83,84.9c0-.72-.06-1.44-.06-2.17C485.78,83.46,485.8,84.18,485.83,84.9Z"/><path class="ah" d="M485.92,79.26c0-.25,0-.5.06-.75C486,78.76,485.94,79,485.92,79.26Z"/><path class="ah" d="M485.78,82.73c0-.73,0-1.45.06-2.17C485.8,81.29,485.78,82,485.78,82.73Z"/><path class="ah" d="M486.2,76.61v0Z"/><path class="ah" d="M573.8,87.88v0c0-.28.08-.56.1-.84s0-.35,0-.53C573.91,86.95,573.86,87.42,573.8,87.88Z"/><path class="ah" d="M571.77,96.35h-14c-.22,1-.48,3-.76,4h13.42s0-.25.07-.3c.13-.29.26-.64.38-.93s.27-.72.41-1.06.23-.6.34-.9.24-.71.36-1.07.2-.6.29-.9.21-.73.31-1.09.17-.6.25-.91.18-.75.26-1.13.14-.6.2-.9.14-.79.21-1.19.11-.58.15-.88.09-.8.13-1.15A45.42,45.42,0,0,1,571.77,96.35Z"/><path class="ah" d="M505.66,96.35h-14a44.23,44.23,0,0,1-2-8.26A46.07,46.07,0,0,0,493,100.35h13.4C506.14,99.35,505.89,97.35,505.66,96.35Z"/><path class="ah" d="M574.08,80.79c0-.07,0-.14,0-.21,0-.24,0-.48-.05-.71v0C574,80.16,574.06,80.47,574.08,80.79Z"/><path class="ah" d="M574,79c0-.18,0-.35,0-.53s-.07-.56-.1-.84v0C573.86,78.05,573.91,78.52,574,79Z"/><path class="ah" d="M557,65.35a22.18,22.18,0,0,1,.76,4h14a31,31,0,0,1,2,8.28c0-.35-.08-.81-.13-1.16s-.1-.63-.15-.93-.13-.82-.21-1.22-.13-.61-.2-.9-.17-.77-.26-1.14-.17-.6-.25-.9-.2-.73-.31-1.09-.19-.59-.29-.89-.23-.71-.36-1.06-.22-.58-.33-.87-.27-.69-.41-1-.25-.6-.38-.88c0-.06-.05-.2-.08-.2Z"/><path class="ah" d="M505.66,69.35a22.2,22.2,0,0,1,.76-4H493a46.05,46.05,0,0,0-3.37,12.26,30.79,30.79,0,0,1,2-8.26Z"/><path class="ah" d="M489.35,80.79c0-.32,0-.64.06-1C489.39,80.16,489.36,80.47,489.35,80.79Z"/><path class="ah" d="M489.48,79c0-.47.09-.93.15-1.4C489.57,78.05,489.52,78.52,489.48,79Z"/><path class="ah" d="M530.18,69.35v-4H510a21.61,21.61,0,0,0-.78,4Z"/><path class="ah" d="M554.19,69.35a21.64,21.64,0,0,0-.78-4H533.18v4Z"/><path class="ah" d="M533.18,96.35v4h20.23c.29-1,.55-3,.78-4Z"/><path class="ah" d="M509.22,96.35c.23,1,.49,3,.78,4h20.17v-4Z"/><path class="ah" d="M570.48,65.57l-.08-.17h0Z"/><path class="ah" d="M572.57,94.1c-.1.36-.2.73-.31,1.09C572.37,94.83,572.47,94.46,572.57,94.1Z"/><path class="ah" d="M570.41,100.07l.07-.16-.07.16Z"/><path class="ah" d="M573.08,92.07c-.09.38-.17.76-.26,1.13C572.91,92.82,573,92.44,573.08,92.07Z"/><path class="ah" d="M572,96.08c-.12.35-.23.71-.36,1.06C571.73,96.79,571.85,96.43,572,96.08Z"/><path class="ah" d="M571.27,98c-.13.34-.26.69-.41,1C571,98.7,571.13,98.36,571.27,98Z"/><path class="ah" d="M573.49,90c-.07.4-.13.79-.21,1.19C573.36,90.78,573.42,90.38,573.49,90Z"/><path class="ah" d="M570.86,66.43c.14.34.27.69.41,1C571.13,67.12,571,66.77,570.86,66.43Z"/><path class="ah" d="M571.6,68.33c.13.35.24.71.36,1.06C571.85,69,571.73,68.69,571.6,68.33Z"/><path class="ah" d="M573.28,74.3c.08.39.14.79.21,1.19C573.42,75.09,573.36,74.69,573.28,74.3Z"/><path class="ah" d="M572.26,70.28c.11.36.21.73.31,1.09C572.47,71,572.37,70.65,572.26,70.28Z"/><path class="ah" d="M572.82,72.27c.1.37.18.75.26,1.13C573,73,572.91,72.65,572.82,72.27Z"/><path class="ah" d="M574.08,80.83c0-.08,0-.16,0-.24,0,.07,0,.14,0,.21Z"/><path class="ah" d="M573.91,87c0-.19,0-.39,0-.58v.05C573.93,86.66,573.93,86.84,573.91,87Z"/><path class="ah" d="M573.8,87.89v0Z"/><path class="ah" d="M574,85.64v0Z"/><path class="ah" d="M573.78,77.44c0-.36-.08-.72-.14-1.08.05.35.09.7.13,1.05Z"/><path class="ah" d="M573.81,77.62v0h0Z"/><path class="ah" d="M573.65,89.11c.05-.36.09-.72.14-1.08v0C573.74,88.41,573.7,88.76,573.65,89.11Z"/><path class="ah" d="M574,79.87v0h0Z"/><path class="ah" d="M574,79c0-.19,0-.39,0-.58,0,.18,0,.35,0,.53Z"/><path class="ah" d="M574.07,84.89c0-.08,0-.16,0-.24v0C574.07,84.75,574.07,84.82,574.07,84.89Z"/><path class="ah" d="M489.19,100.35H493a45.38,45.38,0,0,1-3.37-12.16c0-.05,0-.18,0-.23-.06-.47-.11-1-.15-1.44,0-.28,0-.58-.06-.86s0-.65-.06-1c0-.65,0-1.3,0-1.94s0-1.3,0-1.94c0-.32,0-.64.06-1s0-.57.06-.85c0-.47.09-.94.15-1.4,0-.06,0-.14,0-.2a44.62,44.62,0,0,1,3.37-12H489.2l-.43,1.17a46.6,46.6,0,0,0-2.56,10.05v0c-.09.63-.16,1.27-.22,1.9,0,.25,0,.5-.06.75,0,.43-.07.87-.09,1.3,0,.72-.06,1.44-.06,2.17s0,1.45.06,2.17c0,.43.06.86.09,1.29,0,.26,0,.51.06.77.06.63.13,1.25.22,1.88v.05a47.78,47.78,0,0,0,2.56,10.17Z"/><path class="ah" d="M505.66,96.35c.22,1,.48,3,.76,4H510c-.29-1-.55-3-.78-4Z"/><path class="ah" d="M553.41,100.35H557c.28-1,.54-3,.76-4h-3.56C554,97.35,553.7,99.35,553.41,100.35Z"/><path class="ah" d="M554.19,69.35h3.56a22.18,22.18,0,0,0-.76-4h-3.58A21.64,21.64,0,0,1,554.19,69.35Z"/><path class="ah" d="M510,65.35h-3.58a22.2,22.2,0,0,0-.76,4h3.56A21.61,21.61,0,0,1,510,65.35Z"/><path class="ah" d="M573.49,75.49c.05.29.11.58.15.87C573.6,76.07,573.54,75.78,573.49,75.49Z"/><path class="ah" d="M573.08,73.41c.07.3.14.59.2.89C573.22,74,573.15,73.71,573.08,73.41Z"/><path class="ah" d="M572,69.4c.1.3.2.59.29.89C572.17,70,572.06,69.69,572,69.4Z"/><path class="ah" d="M571.27,67.46c.11.29.23.58.33.87C571.5,68,571.38,67.75,571.27,67.46Z"/><path class="ah" d="M570.48,65.57c.13.28.26.57.38.85C570.74,66.14,570.61,65.86,570.48,65.57Z"/><path class="ah" d="M572.57,71.38c.08.3.17.6.25.9C572.74,72,572.65,71.68,572.57,71.38Z"/><path class="ah" d="M573.81,77.62c0,.28.08.56.1.84C573.88,78.18,573.84,77.9,573.81,77.62Z"/><path class="ah" d="M572.82,93.19c-.08.3-.17.6-.25.9C572.65,93.8,572.74,93.5,572.82,93.19Z"/><path class="ah" d="M571.6,97.13c-.11.3-.22.59-.34.88C571.38,97.72,571.5,97.43,571.6,97.13Z"/><path class="ah" d="M572.26,95.19c-.09.3-.2.59-.29.89C572.06,95.78,572.17,95.49,572.26,95.19Z"/><path class="ah" d="M570.86,99c-.12.29-.25.58-.38.86C570.61,99.62,570.74,99.33,570.86,99Z"/><rect class="ah" x="530.18" y="65.35" width="3" height="4"/><path class="ah" d="M574,79.87c0,.24,0,.47.05.71C574.06,80.34,574,80.11,574,79.87Z"/><rect class="ah" x="530.18" y="96.35" width="3" height="4"/><path class="ah" d="M573.91,87c0,.28-.07.56-.1.84C573.84,87.57,573.88,87.29,573.91,87Z"/><path class="ah" d="M574.07,84.89c0,.24,0,.48-.05.72C574,85.36,574.06,85.13,574.07,84.89Z"/><path class="ah" d="M573.28,91.17c-.06.3-.13.6-.2.9C573.15,91.77,573.22,91.47,573.28,91.17Z"/><path class="ah" d="M573.65,89.11c0,.29-.1.58-.15.88C573.54,89.69,573.6,89.4,573.65,89.11Z"/><path class="ah" d="M577.44,87c0-.26,0-.51.06-.77,0-.43.07-.86.09-1.29,0-.72.05-1.44.05-2.17s0-1.45-.05-2.17c0-.43-.06-.86-.09-1.28,0-.26,0-.52-.06-.77q-.09-.94-.22-1.87v-.06a46.59,46.59,0,0,0-2.57-10.06l-.43-1.17h-3.82s0,.14.08.2l.38.87c.14.34.27.7.41,1s.23.58.33.88.24.71.36,1.06.2.59.29.89.21.73.31,1.09.17.6.25.9.18.75.26,1.13.14.59.2.89.14.79.21,1.19.11.58.15.87.09.72.14,1.08l0,.14v0c0,.28.08.56.1.84s0,.39,0,.58,0,.53.06.79v0c0,.24,0,.47.05.71,0,.08,0,.16,0,.24,0,.64,0,1.27,0,1.91s0,1.27,0,1.91c0,.08,0,.16,0,.24,0,.24,0,.48-.05.72v0c0,.26,0,.53-.06.79s0,.39,0,.58-.07.56-.1.84v0l0,.14c0,.36-.08.72-.14,1.08s-.1.58-.15.88-.13.79-.21,1.19-.13.6-.2.9-.17.76-.26,1.13-.17.6-.25.9-.2.73-.31,1.09-.2.59-.29.89-.23.71-.36,1.06-.22.59-.34.88-.26.69-.41,1-.25.72-.38,1c0,.05,0,.3-.07.3h3.82l.43-1.28A46.94,46.94,0,0,0,577.22,89s0-.07,0-.09C577.31,88.25,577.38,87.59,577.44,87Z"/></svg>