<svg xmlns="http://www.w3.org/2000/svg" xmlns:xlink="http://www.w3.org/1999/xlink" viewBox="0 0 1000 500"><defs><style>.a{mask:url(#a);filter:url(#bk);}.ab,.ad,.af,.ah,.aj,.al,.an,.b,.d,.f,.h,.j,.l,.n,.p,.r,.t,.v,.x,.z{mix-blend-mode:multiply;}.b{fill:url(#c);}.c{mask:url(#d);filter:url(#bz);}.d{fill:url(#f);}.e{mask:url(#g);filter:url(#cc);}.f{fill:url(#i);}.g{mask:url(#j);filter:url(#cf);}.h{fill:url(#l);}.i{mask:url(#m);filter:url(#ci);}.j{fill:url(#o);}.k{mask:url(#p);filter:url(#cl);}.l{fill:url(#r);}.m{mask:url(#s);filter:url(#bn);}.n{fill:url(#u);}.o{mask:url(#v);filter:url(#co);}.p{fill:url(#x);}.q{mask:url(#y);filter:url(#cr);}.r{fill:url(#aa);}.s{mask:url(#ab);filter:url(#cu);}.t{fill:url(#ad);}.u{mask:url(#ae);filter:url(#cx);}.v{fill:url(#ag);}.w{mask:url(#ah);filter:url(#da);}.x{fill:url(#aj);}.y{mask:url(#ak);filter:url(#dd);}.z{fill:url(#am);}.aa{mask:url(#an);filter:url(#dg);}.ab{fill:url(#ap);}.ac{mask:url(#aq);filter:url(#dj);}.ad{fill:url(#as);}.ae{mask:url(#at);filter:url(#dy);}.af{fill:url(#av);}.ag{mask:url(#aw);filter:url(#eb);}.ah{fill:url(#ay);}.ai{mask:url(#az);filter:url(#bq);}.aj{fill:url(#bb);}.ak{mask:url(#bc);filter:url(#bt);}.al{fill:url(#be);}.am{mask:url(#bf);filter:url(#bw);}.an{fill:url(#bh);}.ao{fill:url(#bi);}.ap{mask:url(#bj);}.aq,.as,.au,.aw,.ay,.ba,.bc,.be,.bg,.bi,.bk,.bm,.bo,.bq,.bs,.bu,.bw,.by{opacity:0.3;}.aq{fill:url(#bl);}.ar{mask:url(#bm);}.as{fill:url(#bo);}.at{mask:url(#bp);}.au{fill:url(#br);}.av{mask:url(#bs);}.aw{fill:url(#bu);}.ax{mask:url(#bv);}.ay{fill:url(#bx);}.az{mask:url(#by);}.ba{fill:url(#ca);}.bb{mask:url(#cb);}.bc{fill:url(#cd);}.bd{mask:url(#ce);}.be{fill:url(#cg);}.bf{mask:url(#ch);}.bg{fill:url(#cj);}.bh{mask:url(#ck);}.bi{fill:url(#cm);}.bj{mask:url(#cn);}.bk{fill:url(#cp);}.bl{mask:url(#cq);}.bm{fill:url(#cs);}.bn{mask:url(#ct);}.bo{fill:url(#cv);}.bp{mask:url(#cw);}.bq{fill:url(#cy);}.br{mask:url(#cz);}.bs{fill:url(#db);}.bt{mask:url(#dc);}.bu{fill:url(#de);}.bv{mask:url(#df);}.bw{fill:url(#dh);}.bx{mask:url(#di);}.by{fill:url(#dk);}.bz{fill:url(#dl);}.ca{fill:url(#dm);}.cb{fill:#fa0;}.cc{fill:#ffc400;}.cd{fill:url(#dn);}.ce{fill:url(#do);}.cf{fill:url(#dp);}.cg{fill:url(#dq);}.ch{fill:url(#dr);}.ci{fill:url(#ds);}.cj{fill:url(#dt);}.ck{fill:url(#du);}.cl{fill:url(#dv);}.cm{fill:url(#dw);}.cn{mask:url(#dx);}.co{fill:url(#dz);}.cp{mask:url(#ea);}.cq{opacity:0.8;fill:url(#ec);}.cr{fill:#282d33;}.cs{filter:url(#bg);}.ct{filter:url(#bd);}.cu{filter:url(#ba);}.cv{filter:url(#ax);}.cw{filter:url(#au);}.cx{filter:url(#ar);}.cy{filter:url(#ao);}.cz{filter:url(#al);}.da{filter:url(#ai);}.db{filter:url(#af);}.dc{filter:url(#ac);}.dd{filter:url(#z);}.de{filter:url(#w);}.df{filter:url(#t);}.dg{filter:url(#q);}.dh{filter:url(#n);}.di{filter:url(#k);}.dj{filter:url(#h);}.dk{filter:url(#e);}.dl{filter:url(#b);}</style><filter id="b" x="497.49" y="-8442" width="59.11" height="32766" filterUnits="userSpaceOnUse" color-interpolation-filters="sRGB"><feFlood flood-color="#fff" result="bg"/><feBlend in="SourceGraphic" in2="bg"/></filter><mask id="a" x="497.49" y="-8442" width="59.11" height="32766" maskUnits="userSpaceOnUse"><g class="dl"/></mask><linearGradient id="c" x1="-9282.38" y1="-2563.84" x2="-9282.38" y2="-2701.96" gradientTransform="translate(-8755.33 -2537.17) rotate(180)" gradientUnits="userSpaceOnUse"><stop offset="0"/><stop offset="1" stop-color="#fff"/></linearGradient><filter id="e" x="308.56" y="-8442" width="197.86" height="32766" filterUnits="userSpaceOnUse" color-interpolation-filters="sRGB"><feFlood flood-color="#fff" result="bg"/><feBlend in="SourceGraphic" in2="bg"/></filter><mask id="d" x="308.56" y="-8442" width="197.86" height="32766" maskUnits="userSpaceOnUse"><g class="dk"/></mask><linearGradient id="f" x1="-2608.01" y1="-5753.53" x2="-2608.01" y2="-5891.65" gradientTransform="translate(-4895.14 3846.38) rotate(80)" xlink:href="#c"/><filter id="h" x="325.36" y="-8442" width="184.26" height="32766" filterUnits="userSpaceOnUse" color-interpolation-filters="sRGB"><feFlood flood-color="#fff" result="bg"/><feBlend in="SourceGraphic" in2="bg"/></filter><mask id="g" x="325.36" y="-8442" width="184.26" height="32766" maskUnits="userSpaceOnUse"><g class="dj"/></mask><linearGradient id="i" x1="-1225.5" y1="-4804.45" x2="-1225.5" y2="-4942.57" gradientTransform="translate(-3203.82 3812.33) rotate(60)" xlink:href="#c"/><filter id="k" x="366.67" y="-8442" width="148.44" height="32766" filterUnits="userSpaceOnUse" color-interpolation-filters="sRGB"><feFlood flood-color="#fff" result="bg"/><feBlend in="SourceGraphic" in2="bg"/></filter><mask id="j" x="366.67" y="-8442" width="148.44" height="32766" maskUnits="userSpaceOnUse"><g class="di"/></mask><linearGradient id="l" x1="-250.5" y1="-3440.38" x2="-250.5" y2="-3578.51" gradientTransform="matrix(0.77, 0.64, -0.64, 0.77, -1627.36, 3201.75)" xlink:href="#c"/><filter id="n" x="427.5" y="-8442" width="94.71" height="32766" filterUnits="userSpaceOnUse" color-interpolation-filters="sRGB"><feFlood flood-color="#fff" result="bg"/><feBlend in="SourceGraphic" in2="bg"/></filter><mask id="m" x="427.5" y="-8442" width="94.71" height="32766" maskUnits="userSpaceOnUse"><g class="dh"/></mask><linearGradient id="o" x1="198.3" y1="-1824.57" x2="198.3" y2="-1962.69" gradientTransform="matrix(0.94, 0.34, -0.34, 0.94, -353.51, 2088.81)" xlink:href="#c"/><filter id="q" x="500.53" y="-8442" width="59.11" height="32766" filterUnits="userSpaceOnUse" color-interpolation-filters="sRGB"><feFlood flood-color="#fff" result="bg"/><feBlend in="SourceGraphic" in2="bg"/></filter><mask id="p" x="500.53" y="-8442" width="59.11" height="32766" maskUnits="userSpaceOnUse"><g class="dg"/></mask><linearGradient id="r" x1="68.11" y1="-153.02" x2="68.11" y2="-291.14" gradientTransform="translate(461.98 607.48)" xlink:href="#c"/><filter id="t" x="424.65" y="-8442" width="94.71" height="32766" filterUnits="userSpaceOnUse" color-interpolation-filters="sRGB"><feFlood flood-color="#fff" result="bg"/><feBlend in="SourceGraphic" in2="bg"/></filter><mask id="s" x="424.65" y="-8442" width="94.71" height="32766" maskUnits="userSpaceOnUse"><g class="df"/></mask><linearGradient id="u" x1="-8588.07" y1="-4090.15" x2="-8588.07" y2="-4228.27" gradientTransform="matrix(-0.94, 0.34, -0.34, -0.94, -9015.06, -866.31)" xlink:href="#c"/><filter id="w" x="537.77" y="-8442" width="94.7" height="32766" filterUnits="userSpaceOnUse" color-interpolation-filters="sRGB"><feFlood flood-color="#fff" result="bg"/><feBlend in="SourceGraphic" in2="bg"/></filter><mask id="v" x="537.77" y="-8442" width="94.7" height="32766" maskUnits="userSpaceOnUse"><g class="de"/></mask><linearGradient id="x" x1="-625.92" y1="1373.16" x2="-625.92" y2="1235.04" gradientTransform="matrix(0.94, -0.34, 0.34, 0.94, 721.7, -1063.38)" xlink:href="#c"/><filter id="z" x="544.35" y="-8442" width="148.43" height="32766" filterUnits="userSpaceOnUse" color-interpolation-filters="sRGB"><feFlood flood-color="#fff" result="bg"/><feBlend in="SourceGraphic" in2="bg"/></filter><mask id="y" x="544.35" y="-8442" width="148.43" height="32766" maskUnits="userSpaceOnUse"><g class="dd"/></mask><linearGradient id="aa" x1="-1800.77" y1="2570.65" x2="-1800.77" y2="2432.53" gradientTransform="matrix(0.77, -0.64, 0.64, 0.77, 394.19, -2723.21)" xlink:href="#c"/><filter id="ac" x="549.03" y="-8442" width="184.26" height="32766" filterUnits="userSpaceOnUse" color-interpolation-filters="sRGB"><feFlood flood-color="#fff" result="bg"/><feBlend in="SourceGraphic" in2="bg"/></filter><mask id="ab" x="549.03" y="-8442" width="184.26" height="32766" maskUnits="userSpaceOnUse"><g class="dc"/></mask><linearGradient id="ad" x1="-3313.2" y1="3293.35" x2="-3313.2" y2="3155.22" gradientTransform="translate(-480.88 -4169.7) rotate(-60)" xlink:href="#c"/><filter id="af" x="551.23" y="-8442" width="197.86" height="32766" filterUnits="userSpaceOnUse" color-interpolation-filters="sRGB"><feFlood flood-color="#fff" result="bg"/><feBlend in="SourceGraphic" in2="bg"/></filter><mask id="ae" x="551.23" y="-8442" width="197.86" height="32766" maskUnits="userSpaceOnUse"><g class="db"/></mask><linearGradient id="ag" x1="-4982.87" y1="3455.41" x2="-4982.87" y2="3317.29" gradientTransform="translate(-1798.38 -5230.78) rotate(-80)" xlink:href="#c"/><filter id="ai" x="550.71" y="-8442" width="197.86" height="32766" filterUnits="userSpaceOnUse" color-interpolation-filters="sRGB"><feFlood flood-color="#fff" result="bg"/><feBlend in="SourceGraphic" in2="bg"/></filter><mask id="ah" x="550.71" y="-8442" width="197.86" height="32766" maskUnits="userSpaceOnUse"><g class="da"/></mask><linearGradient id="aj" x1="-6605.56" y1="3036.59" x2="-6605.56" y2="2898.47" gradientTransform="translate(-3398.21 -5776.07) rotate(-100)" xlink:href="#c"/><filter id="al" x="547.51" y="-8442" width="184.26" height="32766" filterUnits="userSpaceOnUse" color-interpolation-filters="sRGB"><feFlood flood-color="#fff" result="bg"/><feBlend in="SourceGraphic" in2="bg"/></filter><mask id="ak" x="547.51" y="-8442" width="184.26" height="32766" maskUnits="userSpaceOnUse"><g class="cz"/></mask><linearGradient id="am" x1="-7988.81" y1="2087.96" x2="-7988.81" y2="1949.84" gradientTransform="translate(-5089.53 -5742.03) rotate(-120)" xlink:href="#c"/><filter id="ao" x="542.03" y="-8442" width="148.44" height="32766" filterUnits="userSpaceOnUse" color-interpolation-filters="sRGB"><feFlood flood-color="#fff" result="bg"/><feBlend in="SourceGraphic" in2="bg"/></filter><mask id="an" x="542.03" y="-8442" width="148.44" height="32766" maskUnits="userSpaceOnUse"><g class="cy"/></mask><linearGradient id="ap" x1="-8963.11" y1="723.63" x2="-8963.11" y2="585.51" gradientTransform="matrix(-0.77, -0.64, 0.64, -0.77, -6666, -5131.45)" xlink:href="#c"/><filter id="ar" x="534.92" y="-8442" width="94.71" height="32766" filterUnits="userSpaceOnUse" color-interpolation-filters="sRGB"><feFlood flood-color="#fff" result="bg"/><feBlend in="SourceGraphic" in2="bg"/></filter><mask id="aq" x="534.92" y="-8442" width="94.71" height="32766" maskUnits="userSpaceOnUse"><g class="cx"/></mask><linearGradient id="as" x1="-9412.85" y1="-892.16" x2="-9412.85" y2="-1030.28" gradientTransform="matrix(-0.94, -0.34, 0.34, -0.94, -7939.84, -4018.51)" xlink:href="#c"/><filter id="au" x="442.48" y="-8442" width="175.37" height="32766" filterUnits="userSpaceOnUse" color-interpolation-filters="sRGB"><feFlood flood-color="#fff" result="bg"/><feBlend in="SourceGraphic" in2="bg"/></filter><mask id="at" x="442.48" y="-8442" width="175.37" height="32766" maskUnits="userSpaceOnUse"><g class="cw"/></mask><linearGradient id="av" x1="3399.01" y1="-1464.82" x2="3555.73" y2="-1464.82" gradientTransform="translate(-934.66 -3070.77) rotate(90)" gradientUnits="userSpaceOnUse"><stop offset="0" stop-color="#fff"/><stop offset="0.08" stop-color="#f5f5f5"/><stop offset="0.2" stop-color="#dbdbdb"/><stop offset="0.37" stop-color="#b1b1b1"/><stop offset="0.56" stop-color="#767676"/><stop offset="0.78" stop-color="#2c2c2c"/><stop offset="0.9"/></linearGradient><filter id="ax" x="453.24" y="-8442" width="153.85" height="32766" filterUnits="userSpaceOnUse" color-interpolation-filters="sRGB"><feFlood flood-color="#fff" result="bg"/><feBlend in="SourceGraphic" in2="bg"/></filter><mask id="aw" x="453.24" y="-8442" width="153.85" height="32766" maskUnits="userSpaceOnUse"><g class="cv"/></mask><linearGradient id="ay" x1="3390.94" y1="-1464.82" x2="3438.62" y2="-1464.82" xlink:href="#av"/><filter id="ba" x="364.34" y="-8442" width="148.43" height="32766" filterUnits="userSpaceOnUse" color-interpolation-filters="sRGB"><feFlood flood-color="#fff" result="bg"/><feBlend in="SourceGraphic" in2="bg"/></filter><mask id="az" x="364.34" y="-8442" width="148.43" height="32766" maskUnits="userSpaceOnUse"><g class="cu"/></mask><linearGradient id="bb" x1="-7413.85" y1="-5286.94" x2="-7413.85" y2="-5425.06" gradientTransform="matrix(-0.77, 0.64, -0.64, -0.77, -8687.54, 793.52)" xlink:href="#c"/><filter id="bd" x="323.84" y="-8442" width="184.26" height="32766" filterUnits="userSpaceOnUse" color-interpolation-filters="sRGB"><feFlood flood-color="#fff" result="bg"/><feBlend in="SourceGraphic" in2="bg"/></filter><mask id="bc" x="323.84" y="-8442" width="184.26" height="32766" maskUnits="userSpaceOnUse"><g class="ct"/></mask><linearGradient id="be" x1="-5900.78" y1="-6009.99" x2="-5900.78" y2="-6148.12" gradientTransform="translate(-7812.48 2240.01) rotate(120)" xlink:href="#c"/><filter id="bg" x="308.04" y="-8442" width="197.86" height="32766" filterUnits="userSpaceOnUse" color-interpolation-filters="sRGB"><feFlood flood-color="#fff" result="bg"/><feBlend in="SourceGraphic" in2="bg"/></filter><mask id="bf" x="308.04" y="-8442" width="197.86" height="32766" maskUnits="userSpaceOnUse"><g class="cs"/></mask><linearGradient id="bh" x1="-4231.91" y1="-6171.77" x2="-4231.91" y2="-6309.89" gradientTransform="translate(-6494.97 3301.08) rotate(100)" xlink:href="#c"/><radialGradient id="bi" cx="500" cy="250" r="395.28" gradientUnits="userSpaceOnUse"><stop offset="0" stop-color="#fff"/><stop offset="0.09" stop-color="#ffedd8"/><stop offset="0.21" stop-color="#ffd5a7"/><stop offset="0.33" stop-color="#ffc17d"/><stop offset="0.46" stop-color="#ffb05b"/><stop offset="0.59" stop-color="#ffa340"/><stop offset="0.72" stop-color="#ff9a2d"/><stop offset="0.86" stop-color="#ff9522"/><stop offset="1" stop-color="#ff931e"/></radialGradient><filter id="bk" x="497.49" y="22.11" width="59.11" height="195.7" filterUnits="userSpaceOnUse" color-interpolation-filters="sRGB"><feFlood flood-color="#fff" result="bg"/><feBlend in="SourceGraphic" in2="bg"/></filter><mask id="bj" x="497.49" y="22.11" width="59.11" height="195.7" maskUnits="userSpaceOnUse"><g class="a"><polygon class="b" points="527.05 217.81 512.27 119.96 497.49 22.11 527.05 22.11 556.6 22.11 541.83 119.96 527.05 217.81"/></g></mask><linearGradient id="bl" x1="-9282.38" y1="-2563.84" x2="-9282.38" y2="-2701.96" gradientTransform="translate(-8755.33 -2537.17) rotate(180)" gradientUnits="userSpaceOnUse"><stop offset="0" stop-color="#fff"/><stop offset="1" stop-color="#fff"/></linearGradient><filter id="bn" x="424.65" y="25.7" width="94.71" height="194.01" filterUnits="userSpaceOnUse" color-interpolation-filters="sRGB"><feFlood flood-color="#fff" result="bg"/><feBlend in="SourceGraphic" in2="bg"/></filter><mask id="bm" x="424.65" y="25.7" width="94.71" height="194.01" maskUnits="userSpaceOnUse"><g class="m"><polygon class="n" points="519.36 219.71 472 132.81 424.65 45.91 452.43 35.81 480.2 25.7 499.78 122.7 519.36 219.71"/></g></mask><linearGradient id="bo" x1="-8588.07" y1="-4090.15" x2="-8588.07" y2="-4228.27" gradientTransform="matrix(-0.94, 0.34, -0.34, -0.94, -9015.06, -866.31)" xlink:href="#bl"/><filter id="bq" x="364.34" y="55.2" width="148.43" height="168.91" filterUnits="userSpaceOnUse" color-interpolation-filters="sRGB"><feFlood flood-color="#fff" result="bg"/><feBlend in="SourceGraphic" in2="bg"/></filter><mask id="bp" x="364.34" y="55.2" width="148.43" height="168.91" maskUnits="userSpaceOnUse"><g class="ai"><polygon class="aj" points="512.78 224.11 438.56 158.65 364.35 93.19 386.99 74.19 409.63 55.2 461.2 139.66 512.78 224.11"/></g></mask><linearGradient id="br" x1="-7413.85" y1="-5286.94" x2="-7413.85" y2="-5425.06" gradientTransform="matrix(-0.77, 0.64, -0.64, -0.77, -8687.54, 793.52)" xlink:href="#bl"/><filter id="bt" x="323.84" y="107.06" width="184.26" height="123.45" filterUnits="userSpaceOnUse" color-interpolation-filters="sRGB"><feFlood flood-color="#fff" result="bg"/><feBlend in="SourceGraphic" in2="bg"/></filter><mask id="bs" x="323.84" y="107.06" width="184.26" height="123.45" maskUnits="userSpaceOnUse"><g class="ak"><polygon class="al" points="508.11 230.5 415.98 194.38 323.85 158.25 338.62 132.65 353.4 107.06 430.75 168.78 508.11 230.5"/></g></mask><linearGradient id="bu" x1="-5900.78" y1="-6009.99" x2="-5900.78" y2="-6148.12" gradientTransform="translate(-7812.48 2240.01) rotate(120)" xlink:href="#bl"/><filter id="bw" x="308.04" y="175.02" width="197.86" height="63.09" filterUnits="userSpaceOnUse" color-interpolation-filters="sRGB"><feFlood flood-color="#fff" result="bg"/><feBlend in="SourceGraphic" in2="bg"/></filter><mask id="bv" x="308.04" y="175.02" width="197.86" height="63.09" maskUnits="userSpaceOnUse"><g class="am"><polygon class="an" points="505.9 238.11 406.97 235.67 308.04 233.23 313.17 204.12 318.3 175.02 412.1 206.56 505.9 238.11"/></g></mask><linearGradient id="bx" x1="-4231.91" y1="-6171.77" x2="-4231.91" y2="-6309.89" gradientTransform="translate(-6494.97 3301.08) rotate(100)" xlink:href="#bl"/><filter id="bz" x="308.56" y="246.01" width="197.86" height="63.09" filterUnits="userSpaceOnUse" color-interpolation-filters="sRGB"><feFlood flood-color="#fff" result="bg"/><feBlend in="SourceGraphic" in2="bg"/></filter><mask id="by" x="308.56" y="246.01" width="197.86" height="63.09" maskUnits="userSpaceOnUse"><g class="c"><polygon class="d" points="506.42 246.01 412.63 277.55 318.83 309.1 313.7 279.99 308.56 250.88 407.49 248.45 506.42 246.01"/></g></mask><linearGradient id="ca" x1="-2608.01" y1="-5753.53" x2="-2608.01" y2="-5891.65" gradientTransform="translate(-4895.14 3846.38) rotate(80)" xlink:href="#bl"/><filter id="cc" x="325.36" y="253.26" width="184.26" height="123.44" filterUnits="userSpaceOnUse" color-interpolation-filters="sRGB"><feFlood flood-color="#fff" result="bg"/><feBlend in="SourceGraphic" in2="bg"/></filter><mask id="cb" x="325.36" y="253.26" width="184.26" height="123.44" maskUnits="userSpaceOnUse"><g class="e"><polygon class="f" points="509.62 253.25 432.27 314.98 354.92 376.7 340.14 351.11 325.36 325.51 417.49 289.38 509.62 253.25"/></g></mask><linearGradient id="cd" x1="-1225.5" y1="-4804.45" x2="-1225.5" y2="-4942.57" gradientTransform="translate(-3203.82 3812.33) rotate(60)" xlink:href="#bl"/><filter id="cf" x="366.67" y="258.97" width="148.44" height="168.91" filterUnits="userSpaceOnUse" color-interpolation-filters="sRGB"><feFlood flood-color="#fff" result="bg"/><feBlend in="SourceGraphic" in2="bg"/></filter><mask id="ce" x="366.67" y="258.97" width="148.44" height="168.91" maskUnits="userSpaceOnUse"><g class="g"><polygon class="h" points="515.11 258.97 463.53 343.43 411.95 427.88 389.31 408.88 366.67 389.89 440.89 324.43 515.11 258.97"/></g></mask><linearGradient id="cg" x1="-250.5" y1="-3440.38" x2="-250.5" y2="-3578.51" gradientTransform="matrix(0.77, 0.64, -0.64, 0.77, -1627.36, 3201.75)" xlink:href="#bl"/><filter id="ci" x="427.5" y="262.46" width="94.71" height="194" filterUnits="userSpaceOnUse" color-interpolation-filters="sRGB"><feFlood flood-color="#fff" result="bg"/><feBlend in="SourceGraphic" in2="bg"/></filter><mask id="ch" x="427.5" y="262.46" width="94.71" height="194" maskUnits="userSpaceOnUse"><g class="i"><polygon class="j" points="522.21 262.46 502.63 359.47 483.05 456.47 455.28 446.36 427.5 436.25 474.86 349.36 522.21 262.46"/></g></mask><linearGradient id="cj" x1="198.3" y1="-1824.57" x2="198.3" y2="-1962.69" gradientTransform="matrix(0.94, 0.34, -0.34, 0.94, -353.51, 2088.81)" xlink:href="#bl"/><filter id="cl" x="500.53" y="263.32" width="59.11" height="195.7" filterUnits="userSpaceOnUse" color-interpolation-filters="sRGB"><feFlood flood-color="#fff" result="bg"/><feBlend in="SourceGraphic" in2="bg"/></filter><mask id="ck" x="500.53" y="263.32" width="59.11" height="195.7" maskUnits="userSpaceOnUse"><g class="k"><polygon class="l" points="530.08 263.32 544.86 361.17 559.64 459.01 530.08 459.02 500.53 459.02 515.3 361.17 530.08 263.32"/></g></mask><linearGradient id="cm" x1="68.11" y1="-153.02" x2="68.11" y2="-291.14" gradientTransform="translate(461.98 607.48)" xlink:href="#bl"/><filter id="co" x="537.77" y="261.42" width="94.7" height="194.01" filterUnits="userSpaceOnUse" color-interpolation-filters="sRGB"><feFlood flood-color="#fff" result="bg"/><feBlend in="SourceGraphic" in2="bg"/></filter><mask id="cn" x="537.77" y="261.42" width="94.7" height="194.01" maskUnits="userSpaceOnUse"><g class="o"><polygon class="p" points="537.77 261.42 585.13 348.32 632.48 435.21 604.7 445.32 576.93 455.43 557.35 358.43 537.77 261.42"/></g></mask><linearGradient id="cp" x1="-625.92" y1="1373.16" x2="-625.92" y2="1235.04" gradientTransform="matrix(0.94, -0.34, 0.34, 0.94, 721.7, -1063.38)" xlink:href="#bl"/><filter id="cr" x="544.35" y="257.02" width="148.43" height="168.91" filterUnits="userSpaceOnUse" color-interpolation-filters="sRGB"><feFlood flood-color="#fff" result="bg"/><feBlend in="SourceGraphic" in2="bg"/></filter><mask id="cq" x="544.35" y="257.02" width="148.43" height="168.91" maskUnits="userSpaceOnUse"><g class="q"><polygon class="r" points="544.35 257.02 618.57 322.48 692.78 387.94 670.15 406.93 647.5 425.93 595.93 341.48 544.35 257.02"/></g></mask><linearGradient id="cs" x1="-1800.77" y1="2570.65" x2="-1800.77" y2="2432.53" gradientTransform="matrix(0.77, -0.64, 0.64, 0.77, 394.19, -2723.21)" xlink:href="#bl"/><filter id="cu" x="549.03" y="250.62" width="184.26" height="123.45" filterUnits="userSpaceOnUse" color-interpolation-filters="sRGB"><feFlood flood-color="#fff" result="bg"/><feBlend in="SourceGraphic" in2="bg"/></filter><mask id="ct" x="549.03" y="250.62" width="184.26" height="123.45" maskUnits="userSpaceOnUse"><g class="s"><polygon class="t" points="549.03 250.62 641.16 286.75 733.28 322.88 718.51 348.48 703.73 374.07 626.38 312.35 549.03 250.62"/></g></mask><linearGradient id="cv" x1="-3313.2" y1="3293.35" x2="-3313.2" y2="3155.22" gradientTransform="translate(-480.88 -4169.7) rotate(-60)" xlink:href="#bl"/><filter id="cx" x="551.23" y="243.02" width="197.86" height="63.09" filterUnits="userSpaceOnUse" color-interpolation-filters="sRGB"><feFlood flood-color="#fff" result="bg"/><feBlend in="SourceGraphic" in2="bg"/></filter><mask id="cw" x="551.23" y="243.02" width="197.86" height="63.09" maskUnits="userSpaceOnUse"><g class="u"><polygon class="v" points="551.23 243.02 650.16 245.46 749.09 247.9 743.96 277 738.83 306.11 645.03 274.56 551.23 243.02"/></g></mask><linearGradient id="cy" x1="-4982.87" y1="3455.41" x2="-4982.87" y2="3317.29" gradientTransform="translate(-1798.38 -5230.78) rotate(-80)" xlink:href="#bl"/><filter id="da" x="550.71" y="172.03" width="197.86" height="63.09" filterUnits="userSpaceOnUse" color-interpolation-filters="sRGB"><feFlood flood-color="#fff" result="bg"/><feBlend in="SourceGraphic" in2="bg"/></filter><mask id="cz" x="550.71" y="172.03" width="197.86" height="63.09" maskUnits="userSpaceOnUse"><g class="w"><polygon class="x" points="550.71 235.12 644.51 203.57 738.3 172.03 743.44 201.13 748.57 230.25 649.64 232.68 550.71 235.12"/></g></mask><linearGradient id="db" x1="-6605.56" y1="3036.59" x2="-6605.56" y2="2898.47" gradientTransform="translate(-3398.21 -5776.07) rotate(-100)" xlink:href="#bl"/><filter id="dd" x="547.51" y="104.43" width="184.26" height="123.45" filterUnits="userSpaceOnUse" color-interpolation-filters="sRGB"><feFlood flood-color="#fff" result="bg"/><feBlend in="SourceGraphic" in2="bg"/></filter><mask id="dc" x="547.51" y="104.43" width="184.26" height="123.45" maskUnits="userSpaceOnUse"><g class="y"><polygon class="z" points="547.51 227.88 624.86 166.15 702.21 104.43 716.99 130.03 731.77 155.62 639.64 191.75 547.51 227.88"/></g></mask><linearGradient id="de" x1="-7988.81" y1="2087.96" x2="-7988.81" y2="1949.84" gradientTransform="translate(-5089.53 -5742.03) rotate(-120)" xlink:href="#bl"/><filter id="dg" x="542.03" y="53.25" width="148.44" height="168.91" filterUnits="userSpaceOnUse" color-interpolation-filters="sRGB"><feFlood flood-color="#fff" result="bg"/><feBlend in="SourceGraphic" in2="bg"/></filter><mask id="df" x="542.03" y="53.25" width="148.44" height="168.91" maskUnits="userSpaceOnUse"><g class="aa"><polygon class="ab" points="542.03 222.16 593.6 137.7 645.18 53.25 667.82 72.25 690.46 91.25 616.25 156.7 542.03 222.16"/></g></mask><linearGradient id="dh" x1="-8963.11" y1="723.63" x2="-8963.11" y2="585.51" gradientTransform="matrix(-0.77, -0.64, 0.64, -0.77, -6666, -5131.45)" xlink:href="#bl"/><filter id="dj" x="534.92" y="24.66" width="94.71" height="194" filterUnits="userSpaceOnUse" color-interpolation-filters="sRGB"><feFlood flood-color="#fff" result="bg"/><feBlend in="SourceGraphic" in2="bg"/></filter><mask id="di" x="534.92" y="24.66" width="94.71" height="194" maskUnits="userSpaceOnUse"><g class="ac"><polygon class="ad" points="534.92 218.67 554.5 121.66 574.08 24.66 601.86 34.77 629.63 44.88 582.28 131.77 534.92 218.67"/></g></mask><linearGradient id="dk" x1="-9412.85" y1="-892.16" x2="-9412.85" y2="-1030.28" gradientTransform="matrix(-0.94, -0.34, 0.34, -0.94, -7939.84, -4018.51)" xlink:href="#bl"/><linearGradient id="dl" x1="518.12" y1="233.94" x2="547.14" y2="331.32" gradientUnits="userSpaceOnUse"><stop offset="0" stop-color="#63bdea"/><stop offset="1" stop-color="#fff"/></linearGradient><linearGradient id="dm" x1="476.54" y1="237.44" x2="453.93" y2="351.37" xlink:href="#dl"/><linearGradient id="dn" x1="454.72" y1="302.26" x2="454.72" y2="152.16" xlink:href="#dl"/><linearGradient id="do" x1="498.33" y1="266.01" x2="426.46" y2="141.14" xlink:href="#dl"/><linearGradient id="dp" x1="501.72" y1="302.26" x2="501.72" y2="152.16" xlink:href="#dl"/><linearGradient id="dq" x1="545.38" y1="266.04" x2="473.48" y2="141.12" xlink:href="#dl"/><linearGradient id="dr" x1="548.72" y1="302.26" x2="548.72" y2="152.16" xlink:href="#dl"/><linearGradient id="ds" x1="592.43" y1="266.06" x2="520.51" y2="141.09" xlink:href="#dl"/><linearGradient id="dt" x1="595.72" y1="302.26" x2="595.72" y2="152.16" xlink:href="#dl"/><linearGradient id="du" x1="639.48" y1="266.08" x2="567.53" y2="141.07" xlink:href="#dl"/><linearGradient id="dv" x1="453.86" y1="193.24" x2="404.83" y2="328.81" xlink:href="#dl"/><linearGradient id="dw" x1="458.72" y1="291.05" x2="458.72" y2="201.98" xlink:href="#dl"/><filter id="dy" x="442.48" y="328.24" width="175.37" height="156.72" filterUnits="userSpaceOnUse" color-interpolation-filters="sRGB"><feFlood flood-color="#fff" result="bg"/><feBlend in="SourceGraphic" in2="bg"/></filter><mask id="dx" x="442.48" y="328.24" width="175.37" height="156.72" maskUnits="userSpaceOnUse"><g class="ae"><rect class="af" x="442.48" y="328.24" width="175.37" height="156.72"/></g></mask><linearGradient id="dz" x1="3399.01" y1="-1464.82" x2="3555.73" y2="-1464.82" gradientTransform="translate(-934.66 -3070.77) rotate(90)" gradientUnits="userSpaceOnUse"><stop offset="0" stop-color="#136fb7"/><stop offset="0.9" stop-color="#136fb7"/></linearGradient><filter id="eb" x="453.24" y="320.17" width="153.85" height="47.68" filterUnits="userSpaceOnUse" color-interpolation-filters="sRGB"><feFlood flood-color="#fff" result="bg"/><feBlend in="SourceGraphic" in2="bg"/></filter><mask id="ea" x="453.24" y="320.17" width="153.85" height="47.68" maskUnits="userSpaceOnUse"><g class="ag"><rect class="ah" x="453.24" y="320.17" width="153.85" height="47.68"/></g></mask><linearGradient id="ec" x1="3390.94" y1="-1464.82" x2="3438.62" y2="-1464.82" gradientTransform="translate(-934.66 -3070.77) rotate(90)" gradientUnits="userSpaceOnUse"><stop offset="0" stop-color="#fff"/><stop offset="0.08" stop-color="#f5f9fc"/><stop offset="0.22" stop-color="#dbe9f4"/><stop offset="0.39" stop-color="#b1cfe7"/><stop offset="0.6" stop-color="#76abd5"/><stop offset="0.83" stop-color="#2c7ebf"/><stop offset="0.9" stop-color="#136fb7"/></linearGradient></defs><title>img-banner-Success-Key</title><path class="ao" d="M0,0H1000V500H0Z"/><g class="ap"><polygon class="aq" points="527.05 217.81 512.27 119.96 497.49 22.11 527.05 22.11 556.6 22.11 541.83 119.96 527.05 217.81"/></g><g class="ar"><polygon class="as" points="519.36 219.71 472 132.81 424.65 45.91 452.43 35.81 480.2 25.7 499.78 122.7 519.36 219.71"/></g><g class="at"><polygon class="au" points="512.78 224.11 438.56 158.65 364.35 93.19 386.99 74.19 409.63 55.2 461.2 139.66 512.78 224.11"/></g><g class="av"><polygon class="aw" points="508.11 230.5 415.98 194.38 323.85 158.25 338.62 132.65 353.4 107.06 430.75 168.78 508.11 230.5"/></g><g class="ax"><polygon class="ay" points="505.9 238.11 406.97 235.67 308.04 233.23 313.17 204.12 318.3 175.02 412.1 206.56 505.9 238.11"/></g><g class="az"><polygon class="ba" points="506.42 246.01 412.63 277.55 318.83 309.1 313.7 279.99 308.56 250.88 407.49 248.45 506.42 246.01"/></g><g class="bb"><polygon class="bc" points="509.62 253.25 432.27 314.98 354.92 376.7 340.14 351.11 325.36 325.51 417.49 289.38 509.62 253.25"/></g><g class="bd"><polygon class="be" points="515.11 258.97 463.53 343.43 411.95 427.88 389.31 408.88 366.67 389.89 440.89 324.43 515.11 258.97"/></g><g class="bf"><polygon class="bg" points="522.21 262.46 502.63 359.47 483.05 456.47 455.28 446.36 427.5 436.25 474.86 349.36 522.21 262.46"/></g><g class="bh"><polygon class="bi" points="530.08 263.32 544.86 361.17 559.64 459.01 530.08 459.02 500.53 459.02 515.3 361.17 530.08 263.32"/></g><g class="bj"><polygon class="bk" points="537.77 261.42 585.13 348.32 632.48 435.21 604.7 445.32 576.93 455.43 557.35 358.43 537.77 261.42"/></g><g class="bl"><polygon class="bm" points="544.35 257.02 618.57 322.48 692.78 387.94 670.15 406.93 647.5 425.93 595.93 341.48 544.35 257.02"/></g><g class="bn"><polygon class="bo" points="549.03 250.62 641.16 286.75 733.28 322.88 718.51 348.48 703.73 374.07 626.38 312.35 549.03 250.62"/></g><g class="bp"><polygon class="bq" points="551.23 243.02 650.16 245.46 749.09 247.9 743.96 277 738.83 306.11 645.03 274.56 551.23 243.02"/></g><g class="br"><polygon class="bs" points="550.71 235.12 644.51 203.57 738.3 172.03 743.44 201.13 748.57 230.25 649.64 232.68 550.71 235.12"/></g><g class="bt"><polygon class="bu" points="547.51 227.88 624.86 166.15 702.21 104.43 716.99 130.03 731.77 155.62 639.64 191.75 547.51 227.88"/></g><g class="bv"><polygon class="bw" points="542.03 222.16 593.6 137.7 645.18 53.25 667.82 72.25 690.46 91.25 616.25 156.7 542.03 222.16"/></g><g class="bx"><polygon class="by" points="534.92 218.67 554.5 121.66 574.08 24.66 601.86 34.77 629.63 44.88 582.28 131.77 534.92 218.67"/></g><path class="bz" d="M602.08,146.35H587.28l-82.05,48.42a29.58,29.58,0,0,1-29.59,29.58H404.22v65.49a29.64,29.64,0,0,0,29.72,29.51H602.08a29.14,29.14,0,0,0,29.14-29.51V175.5A28.84,28.84,0,0,0,602.08,146.35Z"/><path class="ca" d="M538.41,294.73c0-31.09-16.3-66.06-40.55-80.68a29.72,29.72,0,0,1-22.23,10.3H404.22v65.49a29.64,29.64,0,0,0,29.72,29.51H534.85A87.61,87.61,0,0,0,538.41,294.73Z"/><rect class="cb" x="363.35" y="180.21" width="23.76" height="66.82"/><rect class="cb" x="312.1" y="180.21" width="345.25" height="23.76"/><rect class="cb" x="323.26" y="185.05" width="51.97" height="45.65"/><path class="cb" d="M720.47,123h-52a20.79,20.79,0,0,0-20.79,20.79v96.52a20.78,20.78,0,0,0,20.79,20.79h52a20.78,20.78,0,0,0,20.79-20.79V143.84A20.79,20.79,0,0,0,720.47,123Zm-3,114.35h-46V146.81h46Z"/><path class="cc" d="M665.54,252.23a14.87,14.87,0,0,1-14.86-14.83V140.87A14.88,14.88,0,0,1,665.54,126h52a14.87,14.87,0,0,1,14.85,14.86v96.52a14.86,14.86,0,0,1-14.85,14.83Zm-3-11.87h57.9V137.9h-57.9Z"/><rect class="cb" x="323.26" y="180.21" width="23.75" height="66.82"/><rect class="cc" x="323.26" y="203.97" width="11.88" height="43.06"/><rect class="cc" x="363.35" y="203.97" width="11.88" height="43.06"/><rect class="cc" x="312.1" y="180.21" width="345.25" height="11.88"/><rect class="cd" x="431.22" y="144.35" width="47" height="91" rx="12.11" ry="12.11"/><path class="ce" d="M468.76,144.81a12.28,12.28,0,0,1,.46,2.44v67.25c0,6.69-5.72,11.83-12.41,11.83H433.94a12.45,12.45,0,0,1-2.44,0,12.37,12.37,0,0,0,11.86,10h22.87a12.28,12.28,0,0,0,12-12.42V156.67A11.93,11.93,0,0,0,468.76,144.81Z"/><rect class="cf" x="478.22" y="144.35" width="47" height="91" rx="12.11" ry="12.11"/><path class="cg" d="M515.76,144.81a12.28,12.28,0,0,1,.46,2.44v67.25a12.07,12.07,0,0,1-12.33,11.83H481a12.45,12.45,0,0,1-2.44,0,12.37,12.37,0,0,0,11.86,10H513.3c6.69,0,11.92-5.73,11.92-12.42V156.67A11.93,11.93,0,0,0,515.76,144.81Z"/><rect class="ch" x="525.22" y="144.35" width="47" height="91" rx="12.11" ry="12.11"/><path class="ci" d="M562.76,144.81a12.35,12.35,0,0,1,.45,2.44v67.25A12,12,0,0,1,551,226.35H528.1a12.45,12.45,0,0,1-2.44,0,12.37,12.37,0,0,0,11.86,10h22.87c6.69,0,11.84-5.73,11.84-12.42V156.67A11.93,11.93,0,0,0,562.76,144.81Z"/><rect class="cj" x="572.22" y="144.35" width="47" height="91" rx="12.11" ry="12.11"/><path class="ck" d="M609.76,144.81a12.28,12.28,0,0,1,.46,2.44v67.25A11.94,11.94,0,0,1,598,226.35H575.18a12.45,12.45,0,0,1-2.44,0,12.37,12.37,0,0,0,11.86,10h22.87c6.69,0,11.76-5.73,11.76-12.42V156.67A11.93,11.93,0,0,0,609.76,144.81Z"/><rect class="cl" x="404.22" y="197.35" width="54" height="117" rx="26.9" ry="26.9"/><path class="cm" d="M513.22,197.35h-82.1a26.9,26.9,0,0,0-26.9,26.9v.2a26.9,26.9,0,0,0,26.9,26.9h55.2a26.9,26.9,0,0,0,26.9-26.9v-.2c0-.3,0-.6,0-.9h0Z"/><g class="cn"><rect class="co" x="442.48" y="328.24" width="175.37" height="156.72"/></g><g class="cp"><rect class="cq" x="453.24" y="320.17" width="153.85" height="47.68"/></g><path class="cr" d="M470.26,378.77a9.57,9.57,0,1,1,9.57-9.57A9.58,9.58,0,0,1,470.26,378.77Zm0-16.14a6.57,6.57,0,1,0,6.57,6.57A6.58,6.58,0,0,0,470.26,362.62Z"/><path class="cr" d="M470.26,407a9.57,9.57,0,1,1,9.57-9.57A9.58,9.58,0,0,1,470.26,407Zm0-16.14a6.57,6.57,0,1,0,6.57,6.57A6.58,6.58,0,0,0,470.26,390.87Z"/><path class="cr" d="M470.26,435.26a9.57,9.57,0,1,1,9.57-9.57A9.58,9.58,0,0,1,470.26,435.26Zm0-16.14a6.57,6.57,0,1,0,6.57,6.57A6.58,6.58,0,0,0,470.26,419.12Z"/><polygon class="cr" points="452.22 444.35 449.22 444.35 449.22 328.35 617.22 328.35 617.22 331.35 452.22 331.35 452.22 444.35"/></svg>