<svg xmlns="http://www.w3.org/2000/svg" xmlns:xlink="http://www.w3.org/1999/xlink" viewBox="0 0 1000 509.3"><defs><style>.a{fill:url(#a);}.b{mask:url(#b);}.aa,.ac,.ae,.ag,.ai,.ak,.c,.e,.g,.i,.k,.m,.o,.q,.s,.u,.w,.y{opacity:0.3;}.c{fill:url(#d);}.d{mask:url(#e);}.e{fill:url(#g);}.f{mask:url(#h);}.g{fill:url(#j);}.h{mask:url(#k);}.i{fill:url(#m);}.j{mask:url(#n);}.k{fill:url(#p);}.l{mask:url(#q);}.m{fill:url(#s);}.n{mask:url(#t);}.o{fill:url(#v);}.p{mask:url(#w);}.q{fill:url(#y);}.r{mask:url(#z);}.s{fill:url(#ab);}.t{mask:url(#ac);}.u{fill:url(#ae);}.v{mask:url(#af);}.w{fill:url(#ah);}.x{mask:url(#ai);}.y{fill:url(#ak);}.z{mask:url(#al);}.aa{fill:url(#an);}.ab{mask:url(#ao);}.ac{fill:url(#aq);}.ad{mask:url(#ar);}.ae{fill:url(#at);}.af{mask:url(#au);}.ag{fill:url(#aw);}.ah{mask:url(#ax);}.ai{fill:url(#az);}.aj{mask:url(#ba);}.ak{fill:url(#bc);}.al{opacity:0.4;}.am{mask:url(#bd);}.an{fill:url(#bf);}.ao,.ap{opacity:0.5;}.ao{fill:url(#bg);}.ap{fill:url(#bh);}.aq{fill:#721a1a;}.ar{mask:url(#bi);}.as{fill:url(#bk);}.at{mask:url(#bl);}.au{fill:url(#bn);}.av{mask:url(#bo);}.aw{fill:url(#bq);}.ax{fill:url(#br);}.ay{fill:#282d33;}.az{fill:#fff;}.ba{mask:url(#bs);}.bb{fill:url(#bu);}.bc{mask:url(#bv);}.bd{fill:url(#bx);}.be{fill:#a51b1b;}.bf{fill:none;stroke:#282d33;stroke-width:3px;}.bg{fill:#b23b3b;}.bh{fill:url(#by);}.bi{fill:#2e95d1;}.bj{fill:#8e4747;}.bk{filter:url(#bw);}.bl{filter:url(#bt);}.bm{filter:url(#bp);}.bn{filter:url(#bm);}.bo{filter:url(#bj);}.bp{filter:url(#be);}.bq{filter:url(#bb);}.br{filter:url(#ay);}.bs{filter:url(#av);}.bt{filter:url(#as);}.bu{filter:url(#ap);}.bv{filter:url(#am);}.bw{filter:url(#aj);}.bx{filter:url(#ag);}.by{filter:url(#ad);}.bz{filter:url(#aa);}.ca{filter:url(#x);}.cb{filter:url(#u);}.cc{filter:url(#r);}.cd{filter:url(#o);}.ce{filter:url(#l);}.cf{filter:url(#i);}.cg{filter:url(#f);}.ch{filter:url(#c);}</style><radialGradient id="a" cx="434" cy="66" r="522.3" gradientTransform="translate(0 225)" gradientUnits="userSpaceOnUse"><stop offset="0" stop-color="#c69c6d"/><stop offset="1" stop-color="#c1272d"/></radialGradient><filter id="c" x="550.12" y="-3.78" width="53.69" height="177.75" filterUnits="userSpaceOnUse" color-interpolation-filters="sRGB"><feFlood flood-color="#fff" result="bg"/><feBlend in="SourceGraphic" in2="bg"/></filter><linearGradient id="d" x1="-9332.3" y1="-2537.53" x2="-9332.3" y2="-2662.99" gradientTransform="translate(-8755.33 -2533.4) rotate(180)" gradientUnits="userSpaceOnUse"><stop offset="0" stop-color="#63bdea"/><stop offset=".04" stop-color="#71c3ec"/><stop offset=".2" stop-color="#9cd5f2"/><stop offset=".36" stop-color="#c0e4f6"/><stop offset=".52" stop-color="#dbf0fa"/><stop offset=".68" stop-color="#eff8fd"/><stop offset=".84" stop-color="#fbfdfe"/><stop offset="1" stop-color="#fff"/></linearGradient><filter id="f" x="483.96" y="-.52" width="86.02" height="176.22" filterUnits="userSpaceOnUse" color-interpolation-filters="sRGB"><feFlood flood-color="#fff" result="bg"/><feBlend in="SourceGraphic" in2="bg"/></filter><linearGradient id="g" x1="-8650.69" y1="-4083.64" x2="-8650.69" y2="-4209.09" gradientTransform="matrix(-.94 .34 -.34 -.94 -9015.06 -862.53)" xlink:href="#d"/><filter id="i" x="429.18" y="26.28" width="134.82" height="153.42" filterUnits="userSpaceOnUse" color-interpolation-filters="sRGB"><feFlood flood-color="#fff" result="bg"/><feBlend in="SourceGraphic" in2="bg"/></filter><linearGradient id="j" x1="-7481.64" y1="-5303.37" x2="-7481.64" y2="-5428.83" gradientTransform="matrix(-.77 .64 -.64 -.77 -8687.54 797.29)" xlink:href="#d"/><filter id="l" x="392.39" y="73.38" width="167.36" height="112.13" filterUnits="userSpaceOnUse" color-interpolation-filters="sRGB"><feFlood flood-color="#fff" result="bg"/><feBlend in="SourceGraphic" in2="bg"/></filter><linearGradient id="m" x1="-5965.57" y1="-6049.76" x2="-5965.57" y2="-6175.21" gradientTransform="translate(-7812.48 2243.78) rotate(120)" xlink:href="#d"/><filter id="o" x="378.04" y="135.11" width="179.71" height="57.3" filterUnits="userSpaceOnUse" color-interpolation-filters="sRGB"><feFlood flood-color="#fff" result="bg"/><feBlend in="SourceGraphic" in2="bg"/></filter><linearGradient id="p" x1="-4285.92" y1="-6232.44" x2="-4285.92" y2="-6357.89" gradientTransform="translate(-6494.97 3304.86) rotate(100)" xlink:href="#d"/><filter id="r" x="378.51" y="199.59" width="179.72" height="57.3" filterUnits="userSpaceOnUse" color-interpolation-filters="sRGB"><feFlood flood-color="#fff" result="bg"/><feBlend in="SourceGraphic" in2="bg"/></filter><linearGradient id="s" x1="-2644.73" y1="-5830.13" x2="-2644.73" y2="-5955.59" gradientTransform="translate(-4895.14 3850.16) rotate(80)" xlink:href="#d"/><filter id="u" x="393.77" y="206.17" width="167.36" height="112.12" filterUnits="userSpaceOnUse" color-interpolation-filters="sRGB"><feFlood flood-color="#fff" result="bg"/><feBlend in="SourceGraphic" in2="bg"/></filter><linearGradient id="v" x1="-1240.51" y1="-4890.14" x2="-1240.51" y2="-5015.59" gradientTransform="translate(-3203.82 3816.11) rotate(60)" xlink:href="#d"/><filter id="x" x="431.29" y="211.36" width="134.82" height="153.42" filterUnits="userSpaceOnUse" color-interpolation-filters="sRGB"><feFlood flood-color="#fff" result="bg"/><feBlend in="SourceGraphic" in2="bg"/></filter><linearGradient id="y" x1="-242.03" y1="-3527.17" x2="-242.03" y2="-3652.63" gradientTransform="matrix(.77 .64 -.64 .77 -1627.36 3205.53)" xlink:href="#d"/><filter id="aa" x="486.55" y="214.54" width="86.02" height="176.21" filterUnits="userSpaceOnUse" color-interpolation-filters="sRGB"><feFlood flood-color="#fff" result="bg"/><feBlend in="SourceGraphic" in2="bg"/></filter><linearGradient id="ab" x1="229.23" y1="-1904.36" x2="229.23" y2="-2029.81" gradientTransform="matrix(.94 .34 -.34 .94 -353.51 2092.59)" xlink:href="#d"/><filter id="ad" x="552.87" y="215.31" width="53.69" height="177.76" filterUnits="userSpaceOnUse" color-interpolation-filters="sRGB"><feFlood flood-color="#fff" result="bg"/><feBlend in="SourceGraphic" in2="bg"/></filter><linearGradient id="ae" x1="117.74" y1="-218.55" x2="117.74" y2="-344.01" gradientTransform="translate(461.98 611.25)" xlink:href="#d"/><filter id="ag" x="586.71" y="213.59" width="86.02" height="176.22" filterUnits="userSpaceOnUse" color-interpolation-filters="sRGB"><feFlood flood-color="#fff" result="bg"/><feBlend in="SourceGraphic" in2="bg"/></filter><linearGradient id="ah" x1="-563.58" y1="1327.42" x2="-563.58" y2="1201.97" gradientTransform="matrix(.94 -.34 .34 .94 721.7 -1059.61)" xlink:href="#d"/><filter id="aj" x="592.68" y="209.59" width="134.82" height="153.43" filterUnits="userSpaceOnUse" color-interpolation-filters="sRGB"><feFlood flood-color="#fff" result="bg"/><feBlend in="SourceGraphic" in2="bg"/></filter><linearGradient id="ak" x1="-1733.25" y1="2547.86" x2="-1733.25" y2="2422.41" gradientTransform="matrix(.77 -.64 .64 .77 394.19 -2719.43)" xlink:href="#d"/><filter id="am" x="596.93" y="203.78" width="167.36" height="112.13" filterUnits="userSpaceOnUse" color-interpolation-filters="sRGB"><feFlood flood-color="#fff" result="bg"/><feBlend in="SourceGraphic" in2="bg"/></filter><linearGradient id="an" x1="-3248.68" y1="3293.88" x2="-3248.68" y2="3168.42" gradientTransform="translate(-480.88 -4165.92) rotate(-60)" xlink:href="#d"/><filter id="ap" x="598.93" y="196.88" width="179.72" height="57.31" filterUnits="userSpaceOnUse" color-interpolation-filters="sRGB"><feFlood flood-color="#fff" result="bg"/><feBlend in="SourceGraphic" in2="bg"/></filter><linearGradient id="aq" x1="-4929.15" y1="3476.84" x2="-4929.15" y2="3351.39" gradientTransform="translate(-1798.38 -5227) rotate(-80)" xlink:href="#d"/><filter id="as" x="598.45" y="132.4" width="179.72" height="57.3" filterUnits="userSpaceOnUse" color-interpolation-filters="sRGB"><feFlood flood-color="#fff" result="bg"/><feBlend in="SourceGraphic" in2="bg"/></filter><linearGradient id="at" x1="-6569.12" y1="3073.97" x2="-6569.12" y2="2948.52" gradientTransform="translate(-3398.21 -5772.3) rotate(-100)" xlink:href="#d"/><filter id="av" x="595.55" y="70.99" width="167.36" height="112.12" filterUnits="userSpaceOnUse" color-interpolation-filters="sRGB"><feFlood flood-color="#fff" result="bg"/><feBlend in="SourceGraphic" in2="bg"/></filter><linearGradient id="aw" x1="-7974.07" y1="2134.41" x2="-7974.07" y2="2008.96" gradientTransform="translate(-5089.53 -5738.25) rotate(-120)" xlink:href="#d"/><filter id="ay" x="590.57" y="24.51" width="134.82" height="153.42" filterUnits="userSpaceOnUse" color-interpolation-filters="sRGB"><feFlood flood-color="#fff" result="bg"/><feBlend in="SourceGraphic" in2="bg"/></filter><linearGradient id="az" x1="-8971.86" y1="771.19" x2="-8971.86" y2="645.74" gradientTransform="matrix(-.77 -.64 .64 -.77 -6666 -5127.67)" xlink:href="#d"/><filter id="bb" x="584.11" y="-1.46" width="86.02" height="176.22" filterUnits="userSpaceOnUse" color-interpolation-filters="sRGB"><feFlood flood-color="#fff" result="bg"/><feBlend in="SourceGraphic" in2="bg"/></filter><linearGradient id="bc" x1="-9444.06" y1="-851.6" x2="-9444.06" y2="-977.05" gradientTransform="matrix(-.94 -.34 .34 -.94 -7939.84 -4014.73)" xlink:href="#d"/><filter id="be" x="344.53" y="85.63" width="324.97" height="419.89" filterUnits="userSpaceOnUse" color-interpolation-filters="sRGB"><feFlood flood-color="#fff" result="bg"/><feBlend in="SourceGraphic" in2="bg"/></filter><linearGradient id="bf" x1="492.72" y1="236.3" x2="638.6" y2="441.16" gradientUnits="userSpaceOnUse"><stop offset="0" stop-color="#fff"/><stop offset="1" stop-color="#63bdea"/></linearGradient><linearGradient id="bg" x1="691.35" y1="274.49" x2="873.56" y2="274.49" gradientUnits="userSpaceOnUse"><stop offset="0" stop-color="#63bdea"/><stop offset="1" stop-color="#fff"/></linearGradient><linearGradient id="bh" x1="224.19" y1="217.58" x2="376.4" y2="217.58" xlink:href="#bg"/><filter id="bj" x="670.15" y="116.61" width="280.48" height="318.27" filterUnits="userSpaceOnUse" color-interpolation-filters="sRGB"><feFlood flood-color="#fff" result="bg"/><feBlend in="SourceGraphic" in2="bg"/></filter><linearGradient id="bk" x1="-5659.92" y1="-4785.32" x2="-6089.65" y2="-4749.4" gradientTransform="matrix(.51 .86 -.86 .51 -316.15 7688.72)" xlink:href="#bg"/><filter id="bm" x="67.13" y="160.99" width="229.74" height="260.7" filterUnits="userSpaceOnUse" color-interpolation-filters="sRGB"><feFlood flood-color="#fff" result="bg"/><feBlend in="SourceGraphic" in2="bg"/></filter><linearGradient id="bn" x1="-2361.01" y1="-2088.51" x2="-2713.01" y2="-2059.09" gradientTransform="matrix(.51 -.86 -.86 -.51 -316.15 -2891.2)" xlink:href="#bg"/><filter id="bp" x="21.45" y="155.62" width="214.15" height="267.51" filterUnits="userSpaceOnUse" color-interpolation-filters="sRGB"><feFlood flood-color="#fff" result="bg"/><feBlend in="SourceGraphic" in2="bg"/></filter><linearGradient id="bq" x1="-5667.43" y1="7744.43" x2="-6019.43" y2="7773.85" gradientTransform="matrix(.53 .85 .85 -.53 -3397.4 9343.04)" xlink:href="#bg"/><radialGradient id="br" cx="530.42" cy="289.74" r="159.5" xlink:href="#a"/><filter id="bt" x="691.4" y="277.64" width="235.96" height="131.49" filterUnits="userSpaceOnUse" color-interpolation-filters="sRGB"><feFlood flood-color="#fff" result="bg"/><feBlend in="SourceGraphic" in2="bg"/></filter><linearGradient id="bu" x1="-6829.28" y1="3847.24" x2="-6595.14" y2="3847.24" gradientTransform="translate(-5490.31 4823.47) rotate(174.38)" gradientUnits="userSpaceOnUse"><stop offset=".09" stop-color="#fff"/><stop offset=".79" stop-color="#63bdea"/></linearGradient><filter id="bw" x="226.51" y="140.27" width="149.72" height="91.42" filterUnits="userSpaceOnUse" color-interpolation-filters="sRGB"><feFlood flood-color="#fff" result="bg"/><feBlend in="SourceGraphic" in2="bg"/></filter><linearGradient id="bx" x1="226.51" y1="185.98" x2="376.23" y2="185.98" gradientUnits="userSpaceOnUse"><stop offset=".09" stop-color="#282d33"/><stop offset=".79" stop-color="#63bdea"/></linearGradient><radialGradient id="by" cx="151.43" cy="177.04" r="19.51" xlink:href="#a"/></defs><title>img-banner-Fail-Red</title><path class="a" d="M0 3.78h1000v500h-1000v-500z"/><path class="c" d="M576.97 177.75l-13.43-88.87-13.42-88.88h53.69l-13.42 88.88-13.42 88.87z"/><path class="e" d="M569.98 179.47l-43.01-78.92-43.01-78.93 25.22-9.18 25.23-9.18 17.79 88.1 17.78 88.11z"/><path class="g" d="M564 183.48l-67.41-59.46-67.41-59.46 20.57-17.25 20.56-17.26 46.85 76.71 46.84 76.72z"/><path class="i" d="M559.76 189.28l-83.68-32.81-83.69-32.82 13.43-23.25 13.42-23.25 70.26 56.07 70.26 56.06z"/><path class="k" d="M557.75 196.19l-89.86-2.22-89.85-2.21 4.66-26.44 4.66-26.44 85.2 28.66 85.19 28.65z"/><path class="m" d="M558.23 203.37l-85.2 28.65-85.19 28.65-4.66-26.44-4.67-26.44 89.86-2.21 89.86-2.21z"/><path class="o" d="M561.13 209.95l-70.25 56.06-70.26 56.06-13.43-23.25-13.42-23.25 83.68-32.81 83.68-32.81z"/><path class="q" d="M566.12 215.14l-46.85 76.71-46.85 76.71-20.56-17.26-20.57-17.25 67.41-59.46 67.42-59.45z"/><path class="s" d="M572.57 218.31l-17.79 88.11-17.78 88.1-25.23-9.17-25.22-9.19 43.01-78.92 43.01-78.93z"/><path class="u" d="M579.72 219.08l13.42 88.88 13.42 88.88h-53.69l13.43-88.88 13.42-88.88z"/><path class="w" d="M586.71 217.37l43.01 78.93 43.01 78.92-25.23 9.18-25.23 9.18-17.78-88.1-17.78-88.11z"/><path class="y" d="M592.68 213.36l67.41 59.46 67.41 59.46-20.56 17.25-20.57 17.26-46.84-76.71-46.85-76.72z"/><path class="aa" d="M596.93 207.56l83.68 32.81 83.68 32.82-13.42 23.25-13.43 23.25-70.25-56.07-70.26-56.06z"/><path class="ac" d="M598.93 200.65l89.86 2.22 89.86 2.21-4.66 26.44-4.66 26.44-85.2-28.66-85.2-28.65z"/><path class="ae" d="M598.45 193.47l85.2-28.65 85.2-28.65 4.66 26.44 4.66 26.43-89.86 2.22-89.86 2.21z"/><path class="ag" d="M595.55 186.89l70.26-56.06 70.26-56.06 13.42 23.25 13.42 23.25-83.68 32.81-83.68 32.81z"/><path class="ai" d="M590.57 181.71l46.85-76.72 46.84-76.71 20.57 17.25 20.56 17.26-67.41 59.46-67.41 59.46z"/><path class="ak" d="M584.11 178.53l17.79-88.11 17.79-88.11 25.22 9.18 25.23 9.19-43.01 78.92-43.02 78.93z"/><path class="an" d="M628.61 505.52v-181.1a139.94 139.94 0 1 0-239-98.85c0 2.12.07 4.22.17 6.33l-19.54 33.86-25.71 44.5h32.47v55.25a37.73 37.73 0 0 0 37.73 37.74h59.77v102.27h154.11z" transform="translate(0 3.78)"/><path class="ao" d="M863.42 274.49c0-2.22-.11-4.42-.29-6.59l.1.58 10.33-2.72-2.39-13.57-10.61 1a80.51 80.51 0 0 0-4.46-12.3l.21.36 8.77-6.09-6.89-11.94-9.65 4.55a81.33 81.33 0 0 0-8.45-10.1l.38.32 6.16-8.72-10.56-8.86-7.51 7.57a81.2 81.2 0 0 0-11.13-6.5l.2.07 2.81-10.3-13-4.72-4.44 9.64a80.41 80.41 0 0 0-12.92-2.28h.45l-.89-10.64h-13.75l-.89 10.63a80.77 80.77 0 0 0-12.68 2.17l.19-.07-4.47-9.7-13 4.71 2.8 10.27a81 81 0 0 0-11.38 6.57l.36-.3-7.48-7.53-10.56 8.86 6.15 8.71a81.34 81.34 0 0 0-8.5 10.12l.28-.48-9.66-4.56-6.89 11.94 8.75 6.08a80.35 80.35 0 0 0-4.49 12.26l.07-.38-10.64-1-2.39 13.57 10.32 2.72c-.18 2.2-.29 4.41-.29 6.66s.11 4.42.29 6.6l-.1-.58-10.33 2.72 2.39 13.57 10.61-1a80.39 80.39 0 0 0 4.46 12.3l-.21-.36-8.77 6.09 6.89 11.94 9.65-4.55a81.23 81.23 0 0 0 8.44 10.09l-.37-.31-6.16 8.72 10.56 8.86 7.51-7.57a80.83 80.83 0 0 0 11.12 6.49l-.19-.07-2.81 10.31 13 4.71 4.46-9.67a80.75 80.75 0 0 0 12.93 2.28h-.46l.88 10.64h13.72l.89-10.63a81 81 0 0 0 12.68-2.17l-.18.07 4.47 9.7 13-4.71-2.86-10.27a80.59 80.59 0 0 0 11.37-6.56l-.35.29 7.52 7.58 10.56-8.86-6.1-8.7a81.29 81.29 0 0 0 8.49-10.12l-.27.48 9.66 4.55 6.89-11.94-8.77-6.08a80.57 80.57 0 0 0 4.49-12.27l-.07.39 10.64 1 2.39-13.58-10.32-2.72c.17-2.21.29-4.43.29-6.67zm-81 60.91a60.91 60.91 0 1 1 60.91-60.91 60.91 60.91 0 0 1-60.88 60.91z" transform="translate(0 3.78)"/><path class="ap" d="M367.92 217.58c0-1.85-.1-3.69-.24-5.51l.09.48 8.63-2.27-2-11.34-8.86.81a67.22 67.22 0 0 0-3.72-10.27l.17.3 7.33-5.09-5.76-10-8.06 3.8a68.1 68.1 0 0 0-7.06-8.43l.32.27 5.15-7.29-8.82-7.4-6.28 6.36a67.76 67.76 0 0 0-9.29-5.42l.17.06 2.31-8.64-10.82-3.94-3.73 8.07a67.22 67.22 0 0 0-10.8-1.9h.38l-.74-8.89h-11.48l-.74 8.88a67.54 67.54 0 0 0-10.59 1.81l.16-.06-3.74-8.1-10.82 3.94 2.34 8.58a67.59 67.59 0 0 0-9.5 5.49l.3-.25-6.28-6.34-8.82 7.4 5.14 7.28a68 68 0 0 0-7.1 8.46l.23-.4-8.07-3.8-5.76 10 7.31 5.08a67 67 0 0 0-3.75 10.24l.06-.32-8.88-.82-2 11.34 8.6 2.25c-.15 1.84-.25 3.69-.25 5.56s.1 3.69.24 5.51l-.09-.49-8.63 2.27 2 11.34 8.86-.81a67.25 67.25 0 0 0 3.73 10.27l-.17-.3-7.33 5.09 5.76 10 8.06-3.8a67.8 67.8 0 0 0 7.05 8.43l-.31-.26-5.15 7.29 8.82 7.4 6.27-6.32a67.61 67.61 0 0 0 9.29 5.42l-.16-.06-2.35 8.61 10.82 3.94 3.74-8.09a67.39 67.39 0 0 0 10.8 1.9h-.38l.74 8.89h11.51l.74-8.88a67.61 67.61 0 0 0 10.59-1.81l-.15.05 3.74 8.1 10.82-3.94-2.34-8.58a67.46 67.46 0 0 0 9.5-5.48l-.29.25 6.28 6.33 8.82-7.4-5.14-7.28a68 68 0 0 0 7.1-8.46l-.23.4 8.07 3.8 5.76-10-7.31-5.08a67.41 67.41 0 0 0 3.75-10.25l-.06.32 8.88.82 2-11.34-8.62-2.27c.15-1.78.24-3.64.24-5.51zm-67.63 50.88a50.88 50.88 0 1 1 50.88-50.88 50.88 50.88 0 0 1-50.88 50.88z" transform="translate(0 3.78)"/><path class="aq" d="M661.62 282v22s-1.34 2.66-2.86 2.66a2.85 2.85 0 0 1-2.23-1.09 9.66 9.66 0 1 0 0 11.8 2.85 2.85 0 0 1 2.23-1.09c1.52 0 2.86 2.67 2.86 2.67v22h22.1a2.84 2.84 0 0 1 1.48 5.07 9.67 9.67 0 1 0 11.81 0 2.84 2.84 0 0 1 1.48-5.07h22.1v-58.95h-59z" transform="translate(0 3.78)"/><path class="as" d="M927 204.61c-46.68-79.41-148-107.18-228.46-63.76l-8.43-14.33-10 25-10 25 26.73 3.43 26.73 3.43-8.29-14.09c64.7-34.21 145.77-11.69 183.25 52 38.56 65.54 16.62 150.24-48.93 188.81l16.76 28.49c81.29-47.73 108.49-152.72 60.64-233.98z"/><path class="au" d="M277.56 352.7c-38.27 65-121.3 87.8-187.17 52.23l-6.91 11.74-8.17-20.5-8.17-20.5 21.86-2.81 21.92-2.86-6.79 11.54a113 113 0 0 0 110-197.26l13.75-23.28c66.55 39.15 88.84 125.15 49.68 191.7z" transform="translate(0 3.78)"/><path class="aw" d="M42.65 357.27c-40-64-21.72-148.15 40.29-190.1l-7.21-11.56 22 2.24 22 2.24-7.73 20.71-7.63 20.71-7.09-11.36a113 113 0 0 0 124 188.8l14.33 23c-65.52 40.86-152.07 20.83-192.96-44.68z" transform="translate(0 3.78)"/><path class="ax" d="M652.62 212.72a28.57 28.57 0 0 0-10-21.88 28.65 28.65 0 0 0-19.08-42.11 28.72 28.72 0 0 0-33-24 28.74 28.74 0 0 0-38.44-15.07 28.73 28.73 0 0 0-42.83.14 28.75 28.75 0 0 0-38.53 14.4 28.71 28.71 0 0 0-32.51 25.19 28.75 28.75 0 0 0-20.51 42 28.74 28.74 0 0 0 19.28 50.07h1.14v-.09h94.67a18.26 18.26 0 0 1 13.6 16l.7 3.68v218.3h24v-212h11v-.43a28.62 28.62 0 0 0 26.89-25.57h19.16v-.25a28.7 28.7 0 0 0 24.46-28.38z" transform="translate(0 3.78)"/><path class="ay" d="M450.45 198.76a8.45 8.45 0 1 1 8.45-8.45 8.46 8.46 0 0 1-8.45 8.45zm0-13.9a5.45 5.45 0 1 0 5.45 5.45 5.45 5.45 0 0 0-5.45-5.45z" transform="translate(0 3.78)"/><path class="ay" d="M448.95 202.53h3v6.57h-3zM448.95 179.07h3v6.57h-3zM456.988 199.596l1.5-2.598 5.69 3.285-1.5 2.598zM436.7 187.898l1.5-2.598 5.69 3.285-1.5 2.598zM456.999 188.586l5.69-3.285 1.5 2.598-5.69 3.285zM436.686 200.309l5.69-3.285 1.5 2.598-5.69 3.285z"/><path class="ay" d="M304.06 256.74l-3.89-9.19a30 30 0 0 1-8.53-.83l-5 8.21-11.85-6 3.74-9.25a29.9 29.9 0 0 1-5.43-6.62l-9.38 2.24-4.14-12.61 9.19-3.89a29.84 29.84 0 0 1 .84-8.52l-8.21-5 6-11.85 9.25 3.75a29.87 29.87 0 0 1 6.62-5.43l-2.27-9.43 12.61-4.15 3.9 9.19a30 30 0 0 1 8.52.84l4.97-8.2 11.85 6-3.74 9.25a29.79 29.79 0 0 1 5.43 6.62l9.46-2.27 4.15 12.6-9.19 3.9a29.77 29.77 0 0 1-.84 8.52l8.22 5-6 11.85-9.25-3.74a29.83 29.83 0 0 1-6.62 5.43l2.24 9.38zm-2-12.34l3.66 8.63 7.36-2.42-2.08-8.89 1-.55a26.9 26.9 0 0 0 7.5-6.14l.7-.83 8.68 3.51 3.5-6.92-7.8-4.79.32-1.1a26.81 26.81 0 0 0 1-9.64l-.09-1.08 8.63-3.66-2.44-7.36-8.89 2.12-.55-1a26.85 26.85 0 0 0-6.14-7.5l-.83-.7 3.52-8.69-6.92-3.49-4.79 7.78-1.09-.31a27 27 0 0 0-9.64-1l-1.08.09-3.66-8.63-7.37 2.42 2.12 8.89-1 .55a26.91 26.91 0 0 0-7.5 6.14l-.7.83-8.68-3.52-3.5 6.92 7.78 4.78-.34 1.16a26.89 26.89 0 0 0-1 9.65l.09 1.08-8.63 3.65 2.42 7.37 8.89-2.12.55 1a26.94 26.94 0 0 0 6.14 7.5l.83.7-3.51 8.68 6.92 3.49 4.78-7.78 1.1.31a27.12 27.12 0 0 0 9.65 1zM298.82 230.62a13.17 13.17 0 1 1 4.11-.66 13.13 13.13 0 0 1-4.11.66zm0-23.33a10.16 10.16 0 1 0 9.65 7 10.16 10.16 0 0 0-9.65-7z" transform="translate(0 3.78)"/><path class="aq" d="M547.13 144.8l-10.9 10.9 8.88 10.5a41.75 41.75 0 0 0-6.11 13.72l-14.12 1.17v15.42l13.7 1.14a41.8 41.8 0 0 0 5.41 14l-9.15 10.82 10.9 10.9 10.5-8.88a41.72 41.72 0 0 0 13.76 6.07l1.17 14.12h15.42l1.14-13.7a41.75 41.75 0 0 0 14-5.41l10.82 9.15 10.9-10.9-8.88-10.5a41.67 41.67 0 0 0 6.07-13.72l14.12-1.18v-15.42l-13.76-1.12a41.73 41.73 0 0 0-5.41-14l9.16-10.82-10.9-10.9-10.45 8.84a41.78 41.78 0 0 0-13.72-6l-1.18-14.12h-15.42l-1.14 13.7a41.77 41.77 0 0 0-14 5.41zm44.79 32.88a17.1 17.1 0 1 1-24.18 0 17.1 17.1 0 0 1 24.18 0zM901.05 216.35l-8.59 8.58 7 8.27a32.87 32.87 0 0 0-4.78 10.8l-11.12.93v12.14l10.79.9a32.89 32.89 0 0 0 4.26 11l-7.21 8.52 8.6 8.61 8.27-7a32.87 32.87 0 0 0 10.81 4.79l.92 11.11h12.14l.9-10.79a32.87 32.87 0 0 0 10.96-4.21l8.52 7.21 8.59-8.58-7-8.27a32.81 32.81 0 0 0 4.78-10.81l11.12-.93v-12.17l-10.79-.9a32.91 32.91 0 0 0-4.26-11l7.21-8.52-8.58-8.58-8.27 7a32.89 32.89 0 0 0-10.81-4.79l-.93-11.12h-12.08l-.9 10.79a32.86 32.86 0 0 0-11 4.26zm35.28 25.89a13.47 13.47 0 1 1-19 0 13.46 13.46 0 0 1 19 0z" transform="translate(0 3.78)"/><path class="ay" d="M581.65 214.92h-3v-3h3.94l.13 3zm-7 0h-4v-3h4v3zm-8 0h-4v-3h4v3zm-8 0h-4v-3h4v3zm-8 0h-4v-3h4v3zm-8 0h-4v-3h4v3zm-8 0h-4v-3h4v3zm-8 0h-4v-3h4v3zm-8 0h-4v-3h4v3zm-8 0h-4v-3h4v3zm-8 0h-4v-3h4v3zm-8 0h-4v-3h4v3zm-8 0h-4v-3h4v3zm-8 0h-4v-3h4v3zm-8 0h-4v-3h4v3zm-8 0h-4v-3h4v3zm-8 0h-4.05l.11-3h3.94v3zm-8.26-.53a24.79 24.79 0 0 1-4.07-1.22l1.1-2.79a21.89 21.89 0 0 0 3.57 1.07zm140.31 0l-.63-2.93a21.94 21.94 0 0 0 3.57-1.09l1.12 2.78a25 25 0 0 1-3.83 1.22zm-148.17-3.08a25.18 25.18 0 0 1-3.42-2.51l2-2.26a22.19 22.19 0 0 0 3 2.21zm156-.08l-1.58-2.55a22.11 22.11 0 0 0 3-2.22l2 2.25a25.12 25.12 0 0 1-3.18 2.5zm-162.38-5.47a25 25 0 0 1-2.39-3.5l2.61-1.48a22.08 22.08 0 0 0 2.11 3.08zm168.72-.12l-2.34-1.88a22 22 0 0 0 2.09-3.09l2.62 1.46a25.09 25.09 0 0 1-2.14 3.49zm-172.88-7.24a24.88 24.88 0 0 1-1.09-4.1l3-.52a21.88 21.88 0 0 0 1 3.61zm177-.15l-2.83-1a21.94 21.94 0 0 0 .93-3.61l3 .5a24.84 24.84 0 0 1-.87 4.09zm-178.23-8.25v-.1a25.28 25.28 0 0 1 .36-4.22l3 .5a22.28 22.28 0 0 0-.31 3.72zm176.87-.14a22.31 22.31 0 0 0-.32-3.72l3-.51a25.24 25.24 0 0 1 .36 4.22h-3zm-172.63-7.24l-2.83-1a24.92 24.92 0 0 1 1.75-3.87l2.62 1.47a21.9 21.9 0 0 0-1.54 3.4zm171.35 0a21.89 21.89 0 0 0-1.55-3.39l2.61-1.47a24.92 24.92 0 0 1 1.76 3.86zm-167.71-6.45l-2.33-1.89a25.15 25.15 0 0 1 2.94-3.06l2 2.25a22.19 22.19 0 0 0-2.6 2.66zm164.06 0a22.12 22.12 0 0 0-2.59-2.69l2-2.26a25.22 25.22 0 0 1 2.89 2.98zm-158.47-4.88l-1.57-2.55a24.91 24.91 0 0 1 3.79-1.91l1.12 2.79a22 22 0 0 0-3.33 1.6zm152.87 0a22 22 0 0 0-3.34-1.67l1.11-2.79a25 25 0 0 1 3.79 1.9zm-146-2.74l-.62-2.93a25.19 25.19 0 0 1 4.21-.53l.12 3a22.06 22.06 0 0 0-3.67.36zm139.06 0a22.15 22.15 0 0 0-3.7-.46l.11-3a25.13 25.13 0 0 1 4.21.52zm-7.64-.47h-4v-3h4v3zm-8 0h-4v-3h4v3zm-8 0h-4v-3h4v3zm-8 0h-4v-3h4v3zm-8 0h-4v-3h4v3zm-8 0h-4v-3h4v3zm-8 0h-4v-3h4v3zm-8 0h-4v-3h4v3zm-8 0h-4v-3h4v3zm-8 0h-4v-3h4v3zm-8 0h-4v-3h4v3zm-8 0h-4v-3h4v3zm-8 0h-4v-3h4v3zm-8 0h-4v-3h4v3zm-8 0h-4v-3h4v3zm-8 0h-4v-3h4v3z" transform="translate(0 3.78)"/><path class="az" d="M297.67 271.2c-1.37 0-2.75-.09-4.12-.21l.28-3c1.28.12 2.59.19 3.87.2zm4.12-.13l-.22-3c1.28-.09 2.58-.24 3.85-.44l.46 3c-1.35.15-2.73.34-4.09.44zm-12.32-.63c-1.35-.24-2.7-.54-4-.88l.76-2.9c1.24.33 2.52.61 3.79.83zm20.46-.64l-.7-2.92c1.25-.3 2.5-.66 3.73-1.06l.94 2.85c-1.31.43-2.65.81-3.97 1.11zm-28.43-1.46c-1.29-.45-2.58-1-3.83-1.53l1.22-2.74c1.18.53 2.39 1 3.6 1.44zm-7.5-3.36c-1.2-.66-2.39-1.38-3.53-2.13l1.65-2.5c1.07.71 2.19 1.38 3.32 2zm-6.87-4.54c-1.13-.84-2.13-1.74-3.13-2.66l2-2.2c.94.87 1.94 1.72 2.95 2.51zm-6-5.6c-.92-1-1.82-2.07-2.66-3.15l2.37-1.84c.79 1 1.63 2 2.5 3zm-5-6.51c-.74-1.15-1.45-2.34-2.1-3.55l2.64-1.42c.61 1.14 1.28 2.26 2 3.33zm-3.91-7.25c-.55-1.25-1.05-2.54-1.5-3.84l2.84-1c.42 1.22.89 2.43 1.41 3.61zm-2.68-7.79c-.34-1.33-.63-2.68-.86-4l3-.5c.22 1.27.49 2.54.81 3.79zm-1.38-8.12c-.12-1.36-.18-2.75-.19-4.12h3c0 1.29.06 2.59.18 3.87zm3-8l-3-.24c.11-1.37.27-2.75.49-4.09l3 .48c-.37 1.28-.53 2.57-.65 3.86zm1.24-7.64l-2.91-.72c.33-1.33.72-2.66 1.16-4l2.84 1c-.56 1.22-.92 2.48-1.23 3.73zm2.47-7.34l-2.87-1.18c.54-1.26 1.14-2.51 1.78-3.72l2.65 1.41c-.63 1.14-1.19 2.31-1.7 3.5zm3.63-6.84l-2.66-1.57c.74-1.15 1.53-2.29 2.36-3.38l2.39 1.82c-.79.98-1.53 2.05-2.23 3.13zm4.69-6.16l-2.23-2c.92-1 1.89-2 2.88-2.95l2.06 2.18c-1.07.88-1.98 1.82-2.84 2.77zm5.64-5.31l-1.87-2.35c1.07-.85 2.19-1.67 3.33-2.43l1.67 2.49c-1.21.72-2.27 1.49-3.27 2.29zm6.43-4.31l-1.46-2.62c1.19-.66 2.43-1.29 3.68-1.85l1.24 2.73c-1.31.53-2.48 1.12-3.6 1.74zm7.05-3.2l-1-2.82 1.3-.45c.87-.29 1.75-.55 2.63-.79l.78 2.9c-.82.22-1.66.47-2.47.74zm7.48-2l-.54-3c1.35-.25 2.72-.44 4.08-.58l.3 3c-1.42.14-2.71.33-3.98.56zm16.21-.15l-.78-.12.44-3 .83.13zm-4.63-.53c-1.29-.08-2.58-.11-3.88-.09l-.05-3c1.37 0 2.75 0 4.12.1z"/><path class="az" d="M458.21 212.33l-.94-2.85a19.07 19.07 0 0 0 1.79-.69l1.22 2.74a22.16 22.16 0 0 1-2.07.8zm5.8-2.91l-1.72-2.42a18.89 18.89 0 0 0 2.8-2.41l2.17 2.07a21.94 21.94 0 0 1-3.26 2.77zm5.89-6.17l-2.53-1.61a19.18 19.18 0 0 0 1.68-3.3l2.79 1.09a22.22 22.22 0 0 1-1.94 3.83zm3.11-7.94l-3-.53a19 19 0 0 0 .3-3.36v-.32h3v.38a22 22 0 0 1-.31 3.84zm-3.08-7.9a19.15 19.15 0 0 0-.53-1.94c-.18-.54-.38-1.07-.6-1.59l2.76-1.19c.26.6.49 1.22.69 1.84a22.16 22.16 0 0 1 .61 2.24zm-2.93-6.76a18.91 18.91 0 0 0-2.38-2.83l2.1-2.15a22 22 0 0 1 2.76 3.28zm-5.27-5.14a19.26 19.26 0 0 0-3.28-1.72l1.15-2.79a22.29 22.29 0 0 1 3.79 2zm-6.83-2.77a19 19 0 0 0-3.58-.34h-.11v-3h.11a22 22 0 0 1 4.15.4z" transform="translate(0 3.78)"/><path class="az" d="M317.2 267.78l-1-2.82 3.76-1.38 1 2.82zm7.51-2.75l-1-2.82 3.76-1.38 1 2.82zm7.51-2.75l-1-2.82 3.76-1.38 1 2.82zm7.51-2.75l-1-2.82 3.76-1.38 1 2.82zm7.51-2.75l-1-2.82 3.76-1.38 1 2.82zm7.51-2.75l-1-2.82 3.76-1.38 1 2.82zm7.51-2.75l-1-2.82 3.76-1.38 1 2.82zm7.51-2.75l-1-2.82 3.76-1.38 1 2.82zm7.51-2.75l-1-2.82 3.76-1.38 1 2.82zm7.51-2.75l-1-2.82 3.76-1.38 1 2.82zm7.51-2.75l-1-2.82 3.76-1.38 1 2.82zm7.51-2.75l-1-2.82 3.76-1.38 1 2.82zm7.51-2.75l-1-2.82 3.76-1.38 1 2.82zm7.51-2.75l-1-2.82 3.76-1.38 1 2.82zm7.51-2.75l-1-2.82 3.76-1.38 1 2.82zm7.51-2.75l-1-2.82 3.76-1.38 1 2.82zm7.51-2.75l-1-2.82 3.76-1.38 1 2.82zm7.51-2.75l-1-2.82 3.76-1.38 1 2.82zm7.51-2.75l-1-2.82 3.76-1.38 1 2.82zM445.28 176.69l-4-.07.05-3 4 .07zm-8-.14l-4-.07.05-3 4 .07zm-8-.14l-4-.07.05-3 4 .07zm-8-.14l-4-.07.05-3 4 .07zm-8-.14l-4-.07.05-3 4 .07zm-8-.14l-4-.07.05-3 4 .07zm-8-.14l-4-.07.05-3 4 .07zm-8-.14l-4-.07.05-3 4 .07zm-8-.14l-4-.07.05-3 4 .07zm-8-.14l-4-.07.05-3 4 .07zm-8-.14l-4-.07.05-3 4 .07zm-8-.14l-4-.07.05-3 4 .07zm-8-.14l-4-.07.05-3 4 .07zm-8-.14l-4-.07.05-3 4 .07zm-8-.14l-4-.07.05-3 4 .07zm-8-.14l-4-.07.05-3 4 .07zm-8-.14l-4-.07.05-3 4 .07zm-8-.14l-4-.07.05-3 4 .07z"/><path class="aq" d="M243.4 286c0-2.22-.11-4.42-.29-6.59l.1.58 10.33-2.72-2.39-13.57-10.61 1a80.44 80.44 0 0 0-4.46-12.3l.2.36 8.77-6.09-6.89-11.94-9.65 4.55a81.46 81.46 0 0 0-8.45-10.09l.38.32 6.16-8.72-10.56-8.86-7.51 7.57a80.89 80.89 0 0 0-11.11-6.5l.2.07 2.81-10.3-13-4.72-4.43 9.62a80.79 80.79 0 0 0-12.92-2.27h.45l-.89-10.64h-13.76l-.88 10.62a80.71 80.71 0 0 0-12.68 2.17l.18-.07-4.47-9.7-13 4.71 2.8 10.27a80.76 80.76 0 0 0-11.38 6.57l.36-.3-7.52-7.58-10.56 8.86 6.15 8.71a81.24 81.24 0 0 0-8.49 10.12l.27-.48-9.66-4.54-6.89 11.94 8.75 6.08a80.42 80.42 0 0 0-4.49 12.27l.07-.39-10.63-1-2.39 13.57 10.32 2.72c-.18 2.2-.29 4.41-.29 6.66s.11 4.42.29 6.6l-.1-.59-10.33 2.72 2.39 13.57 10.61-1a80.31 80.31 0 0 0 4.46 12.3l-.21-.36-8.77 6.09 6.89 11.94 9.65-4.55a81.4 81.4 0 0 0 8.44 10.09l-.37-.31-6.16 8.72 10.56 8.86 7.51-7.57a80.88 80.88 0 0 0 11.14 6.52l-.19-.07-2.81 10.3 13 4.72 4.46-9.66a80.68 80.68 0 0 0 12.92 2.27h-.45l.88 10.64h13.74l.89-10.63a80.77 80.77 0 0 0 12.67-2.17l-.18.06 4.47 9.7 13-4.71-2.85-10.24a80.65 80.65 0 0 0 11.36-6.56l-.35.29 7.52 7.58 10.56-8.86-6.09-8.66a81.24 81.24 0 0 0 8.49-10.12l-.27.48 9.66 4.55 6.89-11.93-8.77-6.13a80.44 80.44 0 0 0 4.49-12.27l-.07.39 10.63 1 2.4-13.57-10.32-2.72c.16-2.23.27-4.45.27-6.68zm-81 60.91a60.91 60.91 0 1 1 60.95-60.91 60.91 60.91 0 0 1-60.91 60.9z" transform="translate(0 3.78)"/><path class="bb" d="M810 409.12a120.38 120.38 0 0 1-13.37-.75 118.34 118.34 0 0 1-104.49-130.73l3 .33a115.34 115.34 0 0 0 229.25 25.6l3 .33a118.37 118.37 0 0 1-117.39 105.22z" transform="translate(0 3.78)"/><path class="az" d="M931.92 313.46l-6.2-6.75-6.74 6.2-2.03-2.21 8.95-8.22 8.23 8.95-2.21 2.03z"/><path class="bd" d="M374.56 231.69l-2.93-.62a72.67 72.67 0 1 0-142.18-30.19l-2.93-.62a75.67 75.67 0 0 1 148.04 31.43z" transform="translate(0 3.78)"/><path class="ay" d="M226.92 208.61l-6.25-11.02 2.61-1.48 4.77 8.41 8.41-4.77 1.48 2.61-11.02 6.25z"/><path class="az" d="M143.08 332.43h38.33c.27-3.63 1.08-8.34 3.36-11.38 14.15-18.22 15-35.56 15-36.79a37.55 37.55 0 1 0-75.1 0c0 1.23.88 18.57 15 36.79 2.38 3.03 3.17 7.75 3.41 11.38z" transform="translate(0 3.78)"/><path class="ay" d="M143.274 295.095l2.952-.531 7.422 41.259-2.952.531zM169.9 337.275l7.547-41.091 2.94.54-7.547 41.091zM174.23 301.3h-.99l-5.24-1.82-5.24 1.82h-.98l-5.23-1.82-5.23 1.82h-.99l-5.73-2 .99-2.83 5.23 1.83 5.23-1.83h.99l5.23 1.83 5.23-1.83h.99l5.24 1.83 5.24-1.83.99 2.83-5.73 2zM137.87 335.14h48.83v3h-48.83zM137.87 344.63h48.83v3h-48.83zM137.87 354.12h48.83v3h-48.83zM144.51 363.6h35.55v3h-35.55zM142.03 337.15h3v18.03h-3zM160.78 236.12h3v7.44h-3zM148.394 238.987l2.91-.78 1.934 7.217-2.91.78zM135.094 243.855l2.598-1.5 3.72 6.443-2.598 1.5zM124.635 252.295l2.121-2.121 5.26 5.26-2.121 2.121zM116.747 263.252l1.5-2.598 6.452 3.725-1.5 2.598zM111.991 275.907l.777-2.898 7.197 1.93-.777 2.898zM110.58 286.32h7.44v3h-7.44zM112.019 299.756l7.187-1.927.777 2.898-7.187 1.927zM116.776 312.34l6.452-3.725 1.5 2.598-6.452 3.725zM124.648 323.231l5.267-5.267 2.121 2.121-5.267 5.267zM192.498 319.982l2.121-2.121 5.26 5.26-2.121 2.121zM199.847 311.277l1.5-2.598 6.452 3.725-1.5 2.598zM204.691 300.742l.777-2.898 7.197 1.93-.777 2.898zM206.53 286.32h7.45v3h-7.45zM204.707 274.896l7.187-1.927.777 2.898-7.187 1.927zM199.865 264.358l6.452-3.725 1.5 2.598-6.452 3.725zM192.468 255.391l5.26-5.26 2.121 2.121-5.26 5.26zM183.111 248.782l3.72-6.443 2.598 1.5-3.72 6.443zM173.489 244.364l1.934-7.217 2.91.78-1.934 7.217z"/><path class="az" d="M683.98 238.66h121.71v85.92h-121.71z"/><path class="ay" d="M746.58 320.83h-3a7.19 7.19 0 0 0-7.18-7.18h-45.85v-85.43h45.85a10.19 10.19 0 0 1 10.18 10.18v82.43zm-53-10.18h42.82a10.15 10.15 0 0 1 7.18 3v-75.25a7.18 7.18 0 0 0-7.18-7.18h-42.85v79.43zM746.82 320.83h-3v-82.43a10.19 10.19 0 0 1 10.18-10.18h45.85v85.43h-45.85a7.18 7.18 0 0 0-7.18 7.18zm7.18-89.61a7.18 7.18 0 0 0-7.18 7.18v75.22a10.14 10.14 0 0 1 7.18-3h42.85v-79.4h-42.85z" transform="translate(0 3.78)"/><path class="ay" d="M700.87 244.84h20.65v3h-20.65zM700.87 256.08h34.77v3h-34.77zM700.87 267.14h34.77v3h-34.77zM700.87 278.2h34.77v3h-34.77zM700.87 289.26h34.77v3h-34.77zM700.87 300.32h34.77v3h-34.77zM753.44 256.08h34.77v3h-34.77zM753.44 267.14h34.77v3h-34.77zM753.44 278.2h34.77v3h-34.77zM753.44 289.26h34.77v3h-34.77zM753.44 300.32h34.77v3h-34.77z"/><path class="be" d="M182.78 105.9q6.14-5.95 18.61-5.95t19.49 6.11a19.78 19.78 0 0 1 7 15.61 20.94 20.94 0 0 1-1.42 7.95q-2.59 6.4-9.76 11.18-2.84 1.81-3.88 2.49t-4.17 2.62a12.09 12.09 0 0 0-4.46 4.39q-1.33 2.46-1.71 10.15h-3.94l-.13-5.62q0-5.69 4.88-14.54a38.26 38.26 0 0 0 4.88-18.74q0-8-2.78-12.41t-8.92-4.4q-4 0-5.72 1.71a5.13 5.13 0 0 0-1.75 3.65 3.05 3.05 0 0 0 .26 1.36 7.42 7.42 0 0 0 1 1.36l.9 1.1a13.55 13.55 0 0 1 2.1 3.3 9.88 9.88 0 0 1 .61 3.75 7.5 7.5 0 0 1-2.46 5.88 8.51 8.51 0 0 1-5.88 2.2 8.62 8.62 0 0 1-6.27-2.62q-2.65-2.62-2.65-7.59.03-7 6.17-12.94zm10 68a11.23 11.23 0 1 1-3.26 7.92 10.78 10.78 0 0 1 3.24-7.96z" transform="translate(0 3.78)"/><path class="ay" d="M291.32 292.68l-1.9-2.32 3.59-2.92c.93-.59 2-1.5 2-2.5v-3.29a3.33 3.33 0 0 0-3.33-3.33h-3.88a3.33 3.33 0 0 0-3.33 3.33v1.54h-3v-1.54a6.34 6.34 0 0 1 6.33-6.33h3.88a6.34 6.34 0 0 1 6.33 6.33v3.29c0 1.87-1.13 3.55-3.35 5z" transform="translate(0 3.78)"/><path class="ay" d="M288.8 302.61h-3v-3.29c0-1.87 1.13-3.55 3.35-5l3.37-2.77 1.9 2.32-3.58 2.91c-.93.59-2 1.5-2 2.5v3.29zM285.8 305.73h3v3.76h-3z"/><path class="bf" d="M225.05 144.25"/><path class="ay" d="M219.34 123.18h3v31.08h-3zM219.34 159.54h3v5.15h-3z"/><path class="bg" d="M261.48 272.66a8 8 0 0 1 5.6-2.19 8.09 8.09 0 0 1 5.55 2.17q2.42 2.17 2.42 7.14a22.34 22.34 0 0 1-.76 4.72q-.76 3.16-2.74 10.35a64.36 64.36 0 0 0-1.64 7.21q-.44 2.88-1.41 11.59h-2.72q-1.34-11-1.8-13.55a71.72 71.72 0 0 0-1.84-7.24q-1.75-5.94-2.26-7.93a21 21 0 0 1-.78-4.84q.01-5.24 2.38-7.43zm0 50.75a8 8 0 1 1-2.33 5.65 7.69 7.69 0 0 1 2.29-5.65z" transform="translate(0 3.78)"/><path class="bh" d="M170.07 156.69h-37.28v32.16h5.78l8.53 8.53v-8.53h22.97v-32.16z"/><path class="ay" d="M150.43 179.14a10.25 10.25 0 1 1 10.25-10.25 10.26 10.26 0 0 1-10.25 10.25zm0-17.5a7.25 7.25 0 1 0 7.25 7.25 7.26 7.26 0 0 0-7.25-7.25z" transform="translate(0 3.78)"/><path class="ay" d="M152.538 177.38l2.121-2.121 5.338 5.338-2.121 2.121z"/><path class="az" d="M777.09 418.63h37.29v-32.17h-5.79l-8.53-8.53v8.53h-22.97v32.17z"/><path class="ay" d="M787.08 408.64l-2.6-1.5 10.35-17.93a1.5 1.5 0 0 1 2.6 0l10.35 17.93-2.6 1.5-9.04-15.64z" transform="translate(0 3.78)"/><path class="ay" d="M788.97 404.96h14.33v3h-14.33zM76.51 202.37h3v6.46h-3zM61.126 207.294l2.598-1.5 3.23 5.594-2.598 1.5zM50.301 219.251l1.5-2.598 5.594 3.23-1.5 2.598zM46.89 231.98h6.46v3h-6.46zM50.326 247.708l5.594-3.23 1.5 2.598-5.594 3.23zM61.15 259.656l3.23-5.594 2.598 1.5-3.23 5.594zM76.51 258.12h3v6.46h-3zM89.362 256.624l2.61-1.5 3.23 5.62-2.61 1.5zM98.59 247.182l1.5-2.598 5.594 3.23-1.5 2.598zM102.65 231.98h6.46v3h-6.46zM98.555 219.919l5.594-3.23 1.5 2.598-5.594 3.23zM89.021 211.477l3.23-5.594 2.598 1.5-3.23 5.594z"/><path class="ay" d="M78 233.15a3.44 3.44 0 0 1-2.3-6 3.54 3.54 0 0 1 4.86.27 3.44 3.44 0 0 1-2.56 5.73zm0-3.89a.44.44 0 0 0-.3.11.45.45 0 0 0 0 .63.45.45 0 0 0 .78-.28.45.45 0 0 0-.48-.46z" transform="translate(0 3.78)"/><path class="ay" d="M62.111 217.765l2.235-2.001 13.547 15.131-2.235 2.001zM77.895 231.473l13.328-11.933 2.001 2.235-13.328 11.933z"/><path class="az" d="M335.31 330.49c0 9.39-17 35.13-17 35.13s-17-25.74-17-35.13a17 17 0 0 1 34 0z" transform="translate(0 3.78)"/><circle class="bi" cx="318.31" cy="335.21" r="5.03"/><path class="ay" d="M76.51 202.37h3v6.46h-3zM61.126 207.294l2.598-1.5 3.23 5.594-2.598 1.5zM50.301 219.251l1.5-2.598 5.594 3.23-1.5 2.598zM46.89 231.98h6.46v3h-6.46zM50.326 247.708l5.594-3.23 1.5 2.598-5.594 3.23zM61.15 259.656l3.23-5.594 2.598 1.5-3.23 5.594zM76.51 258.12h3v6.46h-3zM89.362 256.624l2.61-1.5 3.23 5.62-2.61 1.5zM98.59 247.182l1.5-2.598 5.594 3.23-1.5 2.598zM102.65 231.98h6.46v3h-6.46zM98.555 219.919l5.594-3.23 1.5 2.598-5.594 3.23zM89.021 211.477l3.23-5.594 2.598 1.5-3.23 5.594z"/><path class="ay" d="M78 233.15a3.44 3.44 0 0 1-2.3-6 3.54 3.54 0 0 1 4.86.27 3.44 3.44 0 0 1-2.56 5.73zm0-3.89a.44.44 0 0 0-.3.11.45.45 0 0 0 0 .63.45.45 0 0 0 .78-.28.45.45 0 0 0-.48-.46z" transform="translate(0 3.78)"/><path class="ay" d="M62.111 217.765l2.235-2.001 13.547 15.131-2.235 2.001zM77.895 231.473l13.328-11.933 2.001 2.235-13.328 11.933zM530.34 191.1h43.43v3h-43.43zM533.05 192.6h3v7.45h-3zM543.42 192.6h3v7.45h-3zM538.24 192.6h3v4.54h-3z"/><path class="ay" d="M575.45 190.67a7.83 7.83 0 1 1 7.83-7.83 7.84 7.84 0 0 1-7.83 7.83zm0-12.66a4.83 4.83 0 1 0 4.83 4.83 4.83 4.83 0 0 0-4.83-4.84zM575.45 203.61a7.83 7.83 0 1 1 7.83-7.83 7.84 7.84 0 0 1-7.83 7.83zm0-12.66a4.83 4.83 0 1 0 4.83 4.83 4.84 4.84 0 0 0-4.83-4.83zM587 197.14a7.83 7.83 0 1 1 7.83-7.83 7.84 7.84 0 0 1-7.83 7.83zm0-12.66a4.83 4.83 0 1 0 4.83 4.83 4.84 4.84 0 0 0-4.83-4.83z" transform="translate(0 3.78)"/><path class="ay" d="M751.81 134.42h39.51v3h-39.51zM751.81 143.23h39.51v3h-39.51zM739.95 145.28l-5.16-3.33 1.62-2.52 2.88 1.86 5.27-6.6 2.35 1.87-6.96 8.72zM751.81 160.7h39.51v3h-39.51zM751.81 169.51h39.51v3h-39.51zM739.95 171.56l-5.16-3.33 1.62-2.52 2.88 1.86 5.27-6.6 2.35 1.87-6.96 8.72zM751.81 186.98h39.51v3h-39.51zM751.81 195.79h39.51v3h-39.51zM739.95 197.84l-5.16-3.34 1.62-2.52 2.88 1.86 5.27-6.6 2.35 1.87-6.96 8.73zM126.79 114.95h5.77v3h-5.77zM121.954 110.259l2.885-4.997 2.598 1.5-2.885 4.997zM112.614 107.07l2.598-1.5 2.885 4.997-2.598 1.5zM108.09 115.63h5.77v3h-5.77zM113.194 126.799l2.885-4.997 2.598 1.5-2.885 4.997zM122.552 122.955l2.598-1.5 2.885 4.997-2.598 1.5zM248.03 376.35h3v7.75h-3zM234.983 383.031l2.121-2.121 5.479 5.479-2.121 2.121zM230.58 393.8h7.75v3h-7.75zM234.996 407.63l5.479-5.479 2.121 2.121-5.479 5.479zM248.03 406.51h3v7.75h-3zM256.329 404.221l2.121-2.121 5.486 5.486-2.121 2.121zM260.73 393.8h7.76v3h-7.76zM256.353 386.206l5.479-5.479 2.121 2.121-5.479 5.479zM835.38 232.82h3v6.52h-3zM835.38 232.82h3v6.52h-3zM815.694 246.191l1.5-2.598 5.646 3.26-1.5 2.598zM815.485 266.951l5.646-3.26 1.5 2.598-5.646 3.26zM835.38 273.83h3v6.52h-3zM852.321 263.367l1.5-2.61 5.672 3.26-1.5 2.61zM851.106 246.953l5.646-3.26 1.5 2.598-5.646 3.26z"/><path class="az" d="M835.85 144.8a10.85 10.85 0 1 0-16.42 9.3l-4.15 26.74h19.42l-4.14-26.74a10.83 10.83 0 0 0 5.29-9.3z" transform="translate(0 3.78)"/><circle class="bj" cx="926.78" cy="254.87" r="21.69"/><path class="ay" d="M921.92 262.9l-6.79-6.79 2.13-2.12 4.66 4.66 14.21-14.21 2.12 2.13-16.33 16.33z"/><circle class="be" cx="908.03" cy="168.55" r="17.32"/><path class="ay" d="M899.945 174.479l13.836-13.836 2.121 2.121-13.836 13.836zM899.908 162.724l2.121-2.121 13.836 13.836-2.121 2.121z"/><path class="ay" d="M878.31 218.44a10.88 10.88 0 1 1 10.88-10.88 10.89 10.89 0 0 1-10.88 10.88zm0-18.76a7.88 7.88 0 1 0 7.88 7.88 7.89 7.89 0 0 0-7.88-7.88z" transform="translate(0 3.78)"/><path class="ay" d="M861.96 203.25l-17.41-3.23 3.24-17.41 2.95.55-2.69 14.46 14.46 2.68-.55 2.95z"/><path class="ay" d="M914.89 204.15a45.16 45.16 0 0 0-28.83-18.93 43.93 43.93 0 0 0-33.43 6.93 45.32 45.32 0 0 0-3.62 2.77l-1.94-2.29a48.3 48.3 0 0 1 3.87-3 46.91 46.91 0 0 1 35.7-7.4 48.14 48.14 0 0 1 30.74 20.18z" transform="translate(0 3.78)"/><path class="ay" d="M556.9 318.72h41.14v3h-41.14zM591.48 331.36l-2.13-2.12 9.02-9.02-9.02-9.01 2.13-2.12 11.13 11.13-11.13 11.14zM559.35 291.72h41.14v3h-41.14zM565.92 304.36l-11.14-11.14 11.14-11.13 2.12 2.12-9.02 9.01 9.02 9.02-2.12 2.12z"/><path class="az" d="M813.92 309.43h72.78v15.55h-72.78z"/><path class="ay" d="M886.17 370.36h-71.73v-45.36h3v42.36h65.73v-42.36h3v45.36zM826.27 303.33h3v13.51h-3zM871.35 303.33h3v13.51h-3zM826.5 333.27h3.88v3h-3.88zM833.79 333.27h3.88v3h-3.88zM841.08 333.27h3.88v3h-3.88zM848.37 333.27h3.88v3h-3.88zM855.66 333.27h3.88v3h-3.88zM862.95 333.27h3.88v3h-3.88zM870.25 333.27h3.88v3h-3.88zM826.5 340.77h3.88v3h-3.88zM833.79 340.77h3.88v3h-3.88zM841.08 340.77h3.88v3h-3.88zM848.37 340.77h3.88v3h-3.88zM855.66 340.77h3.88v3h-3.88zM862.95 340.77h3.88v3h-3.88zM870.25 340.77h3.88v3h-3.88zM826.5 348.27h3.88v3h-3.88zM833.79 348.27h3.88v3h-3.88zM841.08 348.27h3.88v3h-3.88zM848.37 348.27h3.88v3h-3.88zM855.66 348.27h3.88v3h-3.88zM862.95 348.27h3.88v3h-3.88zM870.25 348.27h3.88v3h-3.88zM826.5 355.77h3.88v3h-3.88zM833.79 355.77h3.88v3h-3.88zM841.08 355.77h3.88v3h-3.88zM848.37 355.77h3.88v3h-3.88zM855.66 355.77h3.88v3h-3.88zM862.95 355.77h3.88v3h-3.88zM870.25 355.77h3.88v3h-3.88z"/><path class="az" d="M335.31 330.49c0 9.39-17 35.13-17 35.13s-17-25.74-17-35.13a17 17 0 0 1 34 0z" transform="translate(0 3.78)"/><circle class="bi" cx="318.31" cy="335.21" r="5.03"/></svg>