<svg xmlns="http://www.w3.org/2000/svg" xmlns:xlink="http://www.w3.org/1999/xlink" viewBox="0 0 901.4 298.24"><defs><style>.a,.i,.j,.k{opacity:0.09;}.b{fill:#4aa7de;}.c,.e,.i{fill:#fff;}.c{opacity:0.5;}.d{fill:url(#a);}.f{fill:#282d33;}.g{fill:#2e95d1;}.h{fill:#f8c44f;}.j{fill:url(#b);}.k{fill:url(#c);}</style><linearGradient id="a" x1="678.59" y1="139.91" x2="726.38" y2="220.41" gradientUnits="userSpaceOnUse"><stop offset="0" stop-color="#fff"/><stop offset="1" stop-color="#63bdea"/></linearGradient><linearGradient id="b" x1="-9402.34" y1="-4303.86" x2="-9312.83" y2="-4303.86" gradientTransform="translate(-9167.48 -4098.85) rotate(180)" xlink:href="#a"/><linearGradient id="c" x1="53.2" y1="168.31" x2="123.05" y2="168.31" gradientUnits="userSpaceOnUse"><stop offset="0" stop-color="#63bdea"/><stop offset="1" stop-color="#fff"/></linearGradient></defs><title>img-banner-Setup-Blue-trans</title><g class="a"><path class="b" d="M90.19,154.53a50.28,50.28,0,0,0-6.67-68.31L74.69,97.74a35.82,35.82,0,0,1-43.37,56.59l-8.83,11.52a50.28,50.28,0,0,0,67.7-11.32Z"/><path class="b" d="M78.63,82.41a49.87,49.87,0,0,0-31.44-8.66l1.9,14.39a35.55,35.55,0,0,1,20.72,5.77Z"/><path class="c" d="M26.36,150.61a35.87,35.87,0,0,1-4.52-48.46,35.48,35.48,0,0,1,21.1-13.27L41,74.52a50.28,50.28,0,0,0-23.5,87.61Z"/></g><g class="a"><path class="d" d="M751.28,268V207.84a56.71,56.71,0,1,0-96.85-40.05c0,.86,0,1.71.07,2.56l-7.92,13.72-10.42,18h13.17V224.5a15.29,15.29,0,0,0,15.29,15.29h24.22V268Z"/></g><g class="a"><path class="b" d="M509.36,106l39.59,12.86a56.06,56.06,0,0,1-16.25,19.25Z"/><path class="b" d="M499.56,91.95V23.61a65.35,65.35,0,0,1,20,3.38,69.43,69.43,0,0,1,45,86.09Z"/><path class="e" d="M498.07,149.87A56.84,56.84,0,0,1,457.9,52.82a54.76,54.76,0,0,1,31.3-16.09V96l3.21,4.34,31.5,43.35a57,57,0,0,1-25.83,6.19Z"/></g><g class="a"><path class="b" d="M132.65,47.1,120.21,59.53l10.13,12a47.59,47.59,0,0,0-6.94,15.65L107.3,88.5v17.58l15.62,1.3a47.69,47.69,0,0,0,6.17,16l-10.44,12.34,12.43,12.43,12-10.13a47.61,47.61,0,0,0,15.65,6.93L160.05,161h17.59l1.3-15.63a47.63,47.63,0,0,0,16-6.17l12.34,10.44,12.44-12.43-10.13-12a47.55,47.55,0,0,0,6.93-15.65l16.11-1.34V90.69L217,89.39a47.59,47.59,0,0,0-6.17-16l10.44-12.34L208.8,48.65l-12,10.13a47.56,47.56,0,0,0-15.65-6.93l-1.34-16.11H162.25L161,51.37a47.67,47.67,0,0,0-16,6.17Zm51.09,37.5a19.5,19.5,0,1,1-27.58,0A19.5,19.5,0,0,1,183.74,84.6Z"/></g><g class="a"><path class="b" d="M62.82,6.77l-7.42,7.41,6,7.14a28.39,28.39,0,0,0-4.14,9.33l-9.61.8V41.95l9.32.78a28.4,28.4,0,0,0,3.68,9.52l-6.23,7.36L61.9,67,69,61a28.4,28.4,0,0,0,9.33,4.13l.8,9.61H89.66l.78-9.32A28.39,28.39,0,0,0,100,61.72l7.36,6.23,7.42-7.41-6-7.14a28.34,28.34,0,0,0,4.13-9.33l9.61-.8V32.77L113.11,32a28.41,28.41,0,0,0-3.68-9.52l6.23-7.36L108.24,7.7l-7.14,6a28.39,28.39,0,0,0-9.33-4.13L91,0H80.48l-.78,9.32A28.38,28.38,0,0,0,70.18,13ZM93.29,29.14a11.63,11.63,0,1,1-16.45,0A11.63,11.63,0,0,1,93.29,29.14Z"/></g><g class="a"><path class="f" d="M691.27,236.41h-3V224.79H674.16a11.37,11.37,0,0,1-11.35-11.36V200.51h-9.59l12.9-22.33c0-.43,0-.85,0-1.28,0-.93,0-1.85.1-2.74l3,.21c-.06.82-.09,1.67-.09,2.52,0,.53,0,1.06,0,1.59l0,.44-10.73,18.59h7.39v15.93a8.36,8.36,0,0,0,8.35,8.36h17.11Z"/></g><g class="a"><path class="e" d="M886.9,85.25a49.49,49.49,0,1,0,0,70A49.54,49.54,0,0,0,886.9,85.25Zm-11,59a34,34,0,1,1,0-48A34,34,0,0,1,875.92,144.25Z"/><path class="e" d="M862.82,109.33a15.44,15.44,0,1,0,0,21.82A15.45,15.45,0,0,0,862.82,109.33Z"/></g><g class="a"><polygon class="g" points="366.89 136.53 308.74 136.53 308.74 252.04 385.74 252.04 385.74 155.39 366.89 136.53"/><polygon class="e" points="366.88 156.17 386.52 156.17 366.88 136.53 366.88 156.17"/><rect class="f" x="299.85" y="161.55" width="21.38" height="3"/><rect class="f" x="299.46" y="170.83" width="50.77" height="3"/><rect class="f" x="299.46" y="180.12" width="50.77" height="3"/><rect class="f" x="299.46" y="189.4" width="50.77" height="3"/><rect class="f" x="299.46" y="198.69" width="32.86" height="3"/></g><g class="a"><polygon class="h" points="299.89 298.24 129.22 127.57 140.54 116.25 299.89 275.61 412.1 163.4 495.15 246.46 624.97 116.65 734.42 226.11 835.47 125.06 846.79 136.37 734.42 248.73 624.97 139.28 495.15 269.08 412.1 186.03 299.89 298.24"/><polygon class="h" points="852.98 174.17 836.98 174.17 836.98 134.86 797.68 134.86 797.68 118.86 852.98 118.86 852.98 174.17"/></g><g class="a"><rect class="f" x="493.82" y="212.73" width="3" height="8.59"/><rect class="f" x="509.56" y="220.49" width="8.6" height="3" transform="translate(64.65 555.97) rotate(-60)"/><rect class="f" x="523.13" y="234.07" width="8.59" height="3" transform="translate(-47.13 295.21) rotate(-29.99)"/><rect class="f" x="528.1" y="252.61" width="8.59" height="3"/><rect class="f" x="525.93" y="268.35" width="3" height="8.6" transform="translate(27.63 593.14) rotate(-60.01)"/><rect class="f" x="512.35" y="281.92" width="3" height="8.59" transform="translate(-74.26 295.33) rotate(-30.01)"/><rect class="f" x="493.82" y="286.89" width="3" height="8.59"/><rect class="f" x="472.48" y="284.72" width="8.59" height="3" transform="translate(-9.58 555.83) rotate(-59.98)"/><rect class="f" x="458.91" y="271.14" width="8.59" height="3" transform="translate(-74.26 268.08) rotate(-29.99)"/><rect class="f" x="453.94" y="252.61" width="8.6" height="3"/><rect class="f" x="461.7" y="231.27" width="3" height="8.59" transform="translate(27.57 518.89) rotate(-59.99)"/><rect class="f" x="475.28" y="217.7" width="3" height="8.6" transform="translate(-47.14 267.91) rotate(-29.98)"/><path class="f" d="M495.31,258.19h0a4.09,4.09,0,1,1,3-1.36A4.09,4.09,0,0,1,495.31,258.19Zm0-5.17a1.08,1.08,0,0,0-.81.36,1.09,1.09,0,0,0,.81,1.81h0a1.09,1.09,0,1,0,0-2.17Z"/><rect class="f" x="492.54" y="240.61" width="27.01" height="3" transform="translate(-11.77 457.91) rotate(-48.19)"/><rect class="f" x="483.83" y="233.27" width="3" height="23.79" transform="translate(-20.94 443.5) rotate(-48.19)"/></g><g class="a"><rect class="e" x="167.83" y="200.14" width="80.06" height="17.1"/><polygon class="f" points="247.17 267.01 168.56 267.01 168.56 217.27 171.56 217.27 171.56 264.01 244.17 264.01 244.17 217.27 247.17 217.27 247.17 267.01"/><rect class="f" x="181.57" y="193.43" width="3" height="14.85"/><rect class="f" x="231.16" y="193.43" width="3" height="14.85"/><rect class="f" x="181.67" y="226.51" width="4.26" height="3"/><rect class="f" x="189.69" y="226.51" width="4.26" height="3"/><rect class="f" x="197.71" y="226.51" width="4.26" height="3"/><rect class="f" x="205.73" y="226.51" width="4.26" height="3"/><rect class="f" x="213.75" y="226.51" width="4.26" height="3"/><rect class="f" x="221.77" y="226.51" width="4.26" height="3"/><rect class="f" x="229.79" y="226.51" width="4.26" height="3"/><rect class="f" x="181.67" y="234.76" width="4.26" height="3"/><rect class="f" x="189.69" y="234.76" width="4.26" height="3"/><rect class="f" x="197.71" y="234.76" width="4.26" height="3"/><rect class="f" x="205.73" y="234.76" width="4.26" height="3"/><rect class="f" x="213.75" y="234.76" width="4.26" height="3"/><rect class="f" x="221.77" y="234.76" width="4.26" height="3"/><rect class="f" x="229.79" y="234.76" width="4.26" height="3"/><rect class="f" x="181.67" y="243.01" width="4.26" height="3"/><rect class="f" x="189.69" y="243.01" width="4.26" height="3"/><rect class="f" x="197.71" y="243.01" width="4.26" height="3"/><rect class="f" x="205.73" y="243.01" width="4.26" height="3"/><rect class="f" x="213.75" y="243.01" width="4.26" height="3"/><rect class="f" x="221.77" y="243.01" width="4.26" height="3"/><rect class="f" x="229.79" y="243.01" width="4.26" height="3"/><rect class="f" x="181.67" y="251.26" width="4.26" height="3"/><rect class="f" x="189.69" y="251.26" width="4.26" height="3"/><rect class="f" x="197.71" y="251.26" width="4.26" height="3"/><rect class="f" x="205.73" y="251.26" width="4.26" height="3"/><rect class="f" x="213.75" y="251.26" width="4.26" height="3"/><rect class="f" x="221.77" y="251.26" width="4.26" height="3"/><rect class="f" x="229.79" y="251.26" width="4.26" height="3"/></g><g class="a"><path class="e" d="M100.42,202.57h44.26c.3-4.19,1.24-9.63,3.88-13.14,16.33-21,17.38-41.07,17.38-42.48a43.35,43.35,0,0,0-86.71,0c0,1.42,1,21.44,17.37,42.48C99.23,192.94,100.14,198.38,100.42,202.57Z"/><rect class="f" x="105.27" y="154.41" width="3" height="48.42" transform="translate(-29.98 21.77) rotate(-10.21)"/><rect class="f" x="114.2" y="177.12" width="48.42" height="3" transform="translate(-61.93 283.16) rotate(-79.78)"/><polygon class="f" points="136.25 161.91 135.38 161.91 129.19 160.05 123.02 161.91 122.15 161.91 115.97 160.05 109.79 161.91 108.92 161.91 102.31 159.91 103.18 157.04 109.36 158.91 115.54 157.04 116.41 157.04 122.58 158.91 128.76 157.04 129.63 157.04 135.81 158.91 142 157.04 142.87 159.91 136.25 161.91"/><rect class="f" x="94.4" y="201.58" width="56.38" height="3"/><rect class="f" x="94.4" y="212.53" width="56.38" height="3"/><rect class="f" x="94.4" y="223.49" width="56.38" height="3"/><rect class="f" x="102.07" y="234.44" width="41.05" height="3"/><rect class="f" x="99.44" y="203.66" width="3" height="20.81"/><rect class="f" x="121.09" y="87.01" width="3" height="8.6"/><rect class="f" x="106.75" y="88.9" width="3" height="8.59" transform="translate(-20.42 31.17) rotate(-14.99)"/><rect class="f" x="93.39" y="94.43" width="3" height="8.6" transform="translate(-36.67 60.73) rotate(-30.03)"/><rect class="f" x="81.92" y="103.23" width="3" height="8.59" transform="translate(-51.6 90.47) rotate(-44.99)"/><rect class="f" x="73.12" y="114.7" width="3" height="8.6" transform="translate(-65.75 124.13) rotate(-60)"/><rect class="f" x="67.58" y="128.06" width="3" height="8.6" transform="translate(-76.65 164.82) rotate(-75)"/><rect class="f" x="62.9" y="145.2" width="8.6" height="3"/><rect class="f" x="64.78" y="159.54" width="8.59" height="3" transform="translate(-39.28 23.33) rotate(-14.98)"/><rect class="f" x="70.32" y="172.9" width="8.6" height="3" transform="matrix(0.87, -0.5, 0.5, 0.87, -77.19, 60.66)"/><rect class="f" x="79.12" y="184.37" width="8.6" height="3" transform="translate(-106.99 113.4) rotate(-44.99)"/><rect class="f" x="160.26" y="181.58" width="3" height="8.6" transform="translate(-84.05 168.69) rotate(-44.97)"/><rect class="f" x="169.06" y="170.1" width="3" height="8.6" transform="translate(-65.75 234.93) rotate(-60.01)"/><rect class="f" x="174.59" y="156.74" width="3" height="8.6" transform="translate(-25.05 289.44) rotate(-75)"/><rect class="f" x="173.69" y="145.2" width="8.6" height="3"/><rect class="f" x="171.8" y="130.87" width="8.59" height="3" transform="translate(-28.23 50.02) rotate(-14.98)"/><rect class="f" x="166.27" y="117.51" width="8.6" height="3" transform="translate(-36.65 101.21) rotate(-29.99)"/><rect class="f" x="157.46" y="106.03" width="8.6" height="3" transform="translate(-28.66 145.88) rotate(-45)"/><rect class="f" x="145.99" y="97.23" width="8.6" height="3" transform="translate(-10.34 179.55) rotate(-60.01)"/><rect class="f" x="132.63" y="91.7" width="8.59" height="3" transform="translate(11.48 201.35) rotate(-75.01)"/></g><g class="a"><path class="e" d="M272.78,141.22H229.7a5.44,5.44,0,0,0-5.44,5.44v2.27a5.44,5.44,0,0,0,5.44,5.44h43.08Z"/><path class="e" d="M317.22,142.8H264.39c-3,0-5.44,1.85-5.44,4.13v1.72c0,2.28,2.44,4.13,5.44,4.13h52.83Z"/><path class="f" d="M265.52,162.19H239.86a7,7,0,0,1-6.94-6.94v-14h3v14a4,4,0,0,0,3.94,3.94h25.66Z"/><rect class="f" x="271.5" y="140.99" width="3" height="13.38"/><rect class="f" x="315.63" y="140.99" width="3" height="13.38"/><path class="f" d="M326.3,153.15h-7.92v-3h5.82c1.85-2.66,7.35-4,10.39-4v3c-3.61,0-7.75,1.84-8,2.87Z"/><path class="f" d="M334.6,149.15c-3,0-8.55-1.33-10.39-4h-5.82v-3h7.91l.29,1.13c.26,1,4.4,2.87,8,2.87Z"/></g><g class="a"><path class="e" d="M484.36,140.55a2.67,2.67,0,0,1-2.66,2.66H393.36a2.67,2.67,0,0,1-2.66-2.66V118.78L387,114.62l3.66-4.83v-3.5a2.67,2.67,0,0,1,2.66-2.66h88.34a2.67,2.67,0,0,1,2.66,2.66Z"/><path class="e" d="M399,114.48h0Z"/><rect class="f" x="399.04" y="112.98" width="27.5" height="3"/><path class="e" d="M430.94,114.48h0Z"/><rect class="f" x="430.94" y="112.98" width="26.4" height="3"/><path class="e" d="M447.17,114.48h0Z"/><rect class="f" x="447.17" y="112.98" width="23.1" height="3"/><path class="e" d="M399,123h0Z"/><rect class="f" x="399.04" y="121.51" width="11.83" height="3"/><path class="e" d="M415.82,123h0Z"/><rect class="f" x="415.82" y="121.51" width="40.43" height="3"/><path class="e" d="M460.64,123h0Z"/><rect class="f" x="460.64" y="121.51" width="13.75" height="3"/><path class="e" d="M399,131.54h0Z"/><rect class="f" x="399.04" y="130.04" width="27.5" height="3"/><path class="e" d="M430.94,131.54h0Z"/><rect class="f" x="430.94" y="130.04" width="18.43" height="3"/></g><g class="a"><path class="g" d="M452.65,181.54a2.67,2.67,0,0,0,2.66,2.66h87.8a2.67,2.67,0,0,0,2.66-2.66v-4.16l3.66-4.16-3.66-4.83v-3.5a2.67,2.67,0,0,0-2.66-2.66h-87.8a2.67,2.67,0,0,0-2.66,2.66Z"/><path class="e" d="M460.5,173.07h0Z"/><rect class="f" x="460.5" y="171.57" width="25.3" height="3"/><path class="e" d="M491.3,173.07h0Z"/><rect class="f" x="491.3" y="171.57" width="32.18" height="3"/><path class="e" d="M528.25,173.07h0Z"/><rect class="f" x="528.25" y="171.57" width="7.61" height="3"/></g><g class="a"><path class="g" d="M754.17,157.41l21.84,7.1a31,31,0,0,1-9,10.62Z"/><path class="f" d="M785.62,163.2l-38.35-12.46V110.42l1.53,0a37.82,37.82,0,0,1,11.46,1.94,39.8,39.8,0,0,1,25.81,49.35Zm-35.35-14.64,33.33,10.83a36.8,36.8,0,0,0-24.28-44.15,34.38,34.38,0,0,0-9.06-1.74Z"/><path class="e" d="M747.95,181.6a31.36,31.36,0,0,1-22.16-53.54,30.22,30.22,0,0,1,17.27-8.88v32.69l1.77,2.39,17.38,23.92a31.48,31.48,0,0,1-14.25,3.41Z"/></g><path class="i" d="M408.76,259.33a5.24,5.24,0,0,1,2-4.16,1.55,1.55,0,0,0-.8-2.75H398V220.37H430v12.45l-.1.19v0l-.12.17h0a1.51,1.51,0,0,1-.27.26l-.05,0-.11.06-.12.06-.1,0-.16,0-.09,0-.27,0a1.55,1.55,0,0,1-1.21-.6,5.25,5.25,0,1,0,0,6.42,1.55,1.55,0,0,1,1.21-.59l.27,0,.09,0,.16,0,.1,0,.12.06.11.06.05,0a1.57,1.57,0,0,1,.27.26h0l.12.17v0a2,2,0,0,1,.1.19v12.45H418a1.54,1.54,0,0,0-.8,2.75,5.25,5.25,0,1,1-8.46,4.16Z"/><g class="a"><path class="f" d="M732.6,245.21h-3V202.08l.44-.44a35,35,0,0,0-24.8-59.79,35.18,35.18,0,0,0-31.82,20.33l-2.72-1.26a38,38,0,0,1,72.58,16,37.78,37.78,0,0,1-10.68,26.42Z"/></g><g class="a"><polygon class="f" points="688.65 203.91 676.86 192.12 688.65 180.32 690.77 182.45 681.11 192.12 690.77 201.78 688.65 203.91"/><rect class="f" x="681.9" y="190.62" width="38.89" height="3"/></g><g class="a"><polygon class="f" points="694.22 179.63 692.1 177.51 701.76 167.84 692.1 158.17 694.22 156.05 706 167.84 694.22 179.63"/><rect class="f" x="629.36" y="166.34" width="71.6" height="3"/></g><g class="a"><path class="e" d="M562.28,251v-38.8a36.56,36.56,0,1,1,62.44-25.82c0,.56,0,1.1,0,1.65l5.1,8.85,6.71,11.63H628V223a9.86,9.86,0,0,1-9.86,9.86H602.53V251Z"/></g><g class="a"><path class="f" d="M592.24,213.49H581.95l-.6-7.22a21.79,21.79,0,0,1-5.17-2.28l-5.33,4.51-7.28-7.28,4.68-5.53a21.72,21.72,0,0,1-2-5.27l-7-.58V179.55l7.22-.6a21.77,21.77,0,0,1,2.28-5.17l-4.51-5.33,7.28-7.28,5.53,4.68a21.79,21.79,0,0,1,5.27-2l.58-7h10.29l.6,7.23a21.83,21.83,0,0,1,5.17,2.28l5.33-4.51,7.27,7.28-4.68,5.53a21.78,21.78,0,0,1,2,5.27l7,.58v10.29l-7.22.6a21.77,21.77,0,0,1-2.28,5.17l4.51,5.33-7.28,7.28-5.53-4.68a21.78,21.78,0,0,1-5.27,2Zm-7.53-3h4.77L590,204l1.12-.21a18.85,18.85,0,0,0,6.33-2.45l.93-.57,5.06,4.28,3.37-3.37-4.18-4.94.64-.94a18.8,18.8,0,0,0,2.75-6.21l.25-1.05,6.6-.55v-4.77l-6.45-.54-.21-1.12a18.83,18.83,0,0,0-2.45-6.34l-.57-.92,4.28-5.06-3.37-3.37-4.94,4.18-.94-.64A18.89,18.89,0,0,0,592,166.7l-1.05-.25-.55-6.61h-4.77l-.54,6.45-1.12.21a18.82,18.82,0,0,0-6.33,2.44l-.93.57-5.06-4.28-3.37,3.37,4.18,4.94-.64.94a18.83,18.83,0,0,0-2.75,6.21l-.25,1.05-6.6.55v4.77l6.45.54.21,1.12a18.78,18.78,0,0,0,2.44,6.33l.57.92-4.28,5.06,3.37,3.37,4.94-4.18.94.64a18.84,18.84,0,0,0,6.21,2.75l1.05.25Z"/><path class="f" d="M587.56,195a9.85,9.85,0,1,1,9.85-9.85A9.86,9.86,0,0,1,587.56,195Zm0-16.7a6.85,6.85,0,1,0,6.85,6.85A6.86,6.86,0,0,0,587.56,178.32Z"/></g><g class="a"><rect class="f" x="579.68" y="122" width="21.6" height="3"/><rect class="f" x="568.36" y="122" width="7.2" height="3"/><rect class="f" x="548.72" y="132.83" width="33.09" height="3"/></g><g class="a"><rect class="f" x="377.26" y="266.11" width="21.61" height="3"/><rect class="f" x="365.95" y="266.11" width="7.2" height="3"/><rect class="f" x="346.3" y="276.94" width="33.09" height="3"/></g><g class="a"><rect class="g" x="759.03" y="244.52" width="18.18" height="8.96"/><rect class="g" x="784.6" y="234.42" width="18.18" height="19.06"/><rect class="g" x="810.18" y="217.88" width="18.18" height="35.6"/><rect class="g" x="835.75" y="192.36" width="18.18" height="61.13"/></g><g class="a"><path class="e" d="M865.68,252.35h0Z"/><rect class="f" x="865.68" y="250.85" width="12.14" height="3"/><path class="e" d="M865.68,242.54h0Z"/><rect class="f" x="865.68" y="241.04" width="7.77" height="3"/><path class="e" d="M865.68,232.72h0Z"/><rect class="f" x="865.68" y="231.22" width="7.77" height="3"/><path class="e" d="M865.68,222.91h0Z"/><rect class="f" x="865.68" y="221.41" width="7.77" height="3"/><path class="e" d="M865.68,213.09h0Z"/><rect class="f" x="865.68" y="211.59" width="7.77" height="3"/><path class="e" d="M865.68,203.28h0Z"/><rect class="f" x="865.68" y="201.78" width="12.14" height="3"/><path class="e" d="M865.68,193.46h0Z"/><rect class="f" x="865.68" y="191.96" width="7.77" height="3"/><path class="e" d="M865.68,183.65h0Z"/><rect class="f" x="865.68" y="182.15" width="7.77" height="3"/><path class="e" d="M865.68,173.83h0Z"/><rect class="f" x="865.68" y="172.33" width="7.77" height="3"/><path class="e" d="M865.68,164h0Z"/><rect class="f" x="865.68" y="162.52" width="7.77" height="3"/><path class="e" d="M865.68,154.21h0Z"/><rect class="f" x="865.68" y="152.71" width="12.14" height="3"/></g><path class="j" d="M210.22,249.76V225.54s1.47-2.93,3.14-2.93a3.14,3.14,0,0,1,2.45,1.2,10.63,10.63,0,1,0,0-13,3.13,3.13,0,0,1-2.45,1.21c-1.67,0-3.14-2.93-3.14-2.93V184.89H185.9a3.13,3.13,0,0,1-1.63-5.58,10.63,10.63,0,1,0-13,0,3.13,3.13,0,0,1-1.62,5.58H145.35v64.87Z"/><path class="k" d="M76.67,205A11.43,11.43,0,0,1,81.13,196a3.37,3.37,0,0,0-1.75-6H53.2V120.12h69.86v27.13a3.5,3.5,0,0,1-.21.42.19.19,0,0,0,0,.05c-.08.13-.17.26-.27.38l0,0a3.34,3.34,0,0,1-.6.56l-.11.09a2.47,2.47,0,0,1-.24.14l-.27.14-.23.09-.36.11-.2,0a3.83,3.83,0,0,1-.6.06,3.38,3.38,0,0,1-2.64-1.3,11.46,11.46,0,1,0,0,14,3.38,3.38,0,0,1,2.64-1.29,3.12,3.12,0,0,1,.6.06l.2,0,.36.1.23.09a2,2,0,0,1,.27.14l.24.14.11.09a3.44,3.44,0,0,1,.6.56l0,0a2.61,2.61,0,0,1,.26.37l0,.05a4.31,4.31,0,0,1,.21.42V190H96.86a3.36,3.36,0,0,0-1.74,6A11.45,11.45,0,1,1,76.67,205Z"/></svg>