<svg xmlns="http://www.w3.org/2000/svg" xmlns:xlink="http://www.w3.org/1999/xlink" viewBox="0 0 948.88 382.37"><defs><style>.a{opacity:0.15;}.b,.p{opacity:0.5;}.b{fill:url(#a);}.c,.e{opacity:0.3;}.d{fill:url(#b);}.e{fill:url(#c);}.f{opacity:0.4;}.g{fill:#4aa7de;}.h{fill:#136fb7;}.i{fill:#d1ebf9;}.j{fill:#fff;}.k{fill:#a6d9e8;}.l{fill:#f8c44f;}.m{fill:#2e95d1;}.n{fill:#282d33;}.o{mask:url(#d);}.p{fill:url(#f);}.q{fill:#5eb4e7;}.r{fill:#06497d;}.s{fill:#e19710;}.t{fill:#f7991c;}.u{fill:#cfeaf9;}.v{fill:none;}.w{fill:#eaeaec;}.x{fill:#f9a918;}.y{filter:url(#e);}</style><linearGradient id="a" x1="-7838.59" y1="-1213.26" x2="-7656.39" y2="-1213.26" gradientTransform="matrix(-.19 .98 -.98 -.19 -2393.14 7670.73)" gradientUnits="userSpaceOnUse"><stop offset="0" stop-color="#63bdea"/><stop offset="1" stop-color="#fff"/></linearGradient><linearGradient id="b" x1="-9175.2" y1="146.41" x2="-8999.92" y2="146.41" gradientTransform="matrix(-1 0 0 1 -8926.45 0)" gradientUnits="userSpaceOnUse"><stop offset="0" stop-color="#fff"/><stop offset="1" stop-color="#63bdea"/></linearGradient><linearGradient id="c" x1="734.69" y1="253.44" x2="968.7" y2="253.44" xlink:href="#b"/><filter id="e" x="627.69" y="73.84" width="266.94" height="100.84" filterUnits="userSpaceOnUse" color-interpolation-filters="sRGB"><feFlood flood-color="#fff" result="bg"/><feBlend in="SourceGraphic" in2="bg"/></filter><linearGradient id="f" x1="760.01" y1="180.92" x2="769.66" y2="81.69" gradientUnits="userSpaceOnUse"><stop offset="0" stop-color="#63bdea"/><stop offset=".15" stop-color="#8bceef"/><stop offset=".34" stop-color="#b4dff5"/><stop offset=".52" stop-color="#d5edf9"/><stop offset=".7" stop-color="#ecf7fc"/><stop offset=".86" stop-color="#fafdfe"/><stop offset="1" stop-color="#fff"/></linearGradient></defs><title>img-banner-INFO-BLUE-trans</title><g class="a"><path class="b" d="M243.54 370.14c2.18.42 4.36.72 6.53 1h-.59l.72 10.65 13.8.16 1-10.6a80.55 80.55 0 0 0 13-2.06l-.39.13 4.32 9.77 13-4.52-2.64-10.34a81.31 81.31 0 0 0 11.51-6.39l-.39.32 7.4 7.7 10.69-8.7-6-8.8a81.17 81.17 0 0 0 8.48-9.7l-.11.18 9.59 4.7 7.07-11.83-8.65-6.2a80.48 80.48 0 0 0 4.67-12.26l-.08.45 10.53 1.11 2.6-13.54-10.27-2.87a80.64 80.64 0 0 0 .26-12.86v.19l10.41-2.56-2.19-13.61-10.62.81a80.93 80.93 0 0 0-4.31-12.41l.23.41 8.87-6-6.71-12-9.71 4.4a81.51 81.51 0 0 0-8.34-10.25l.42.36 6.29-8.63-10.42-9-7.62 7.45a80.44 80.44 0 0 0-11.2-6.72l.36.14 3-10.26-12.88-4.96-4.62 9.62c-2.12-.59-4.28-1.12-6.48-1.54s-4.36-.72-6.53-1h.59l-.72-10.66-13.78-.21-1 10.6a80.34 80.34 0 0 0-12.98 2.19l.39-.13-4.33-9.76-13 4.52 2.65 10.34a81.25 81.25 0 0 0-11.5 6.39l.38-.31-7.4-7.7-10.71 8.65 6 8.8a81 81 0 0 0-8.47 9.7l.11-.18-9.59-4.7-7.07 11.83 8.65 6.2a80.65 80.65 0 0 0-4.68 12.27l.09-.45-10.62-1.14-2.55 13.54 10.27 2.88a81 81 0 0 0-.26 12.86v-.19l-10.43 2.58 2.19 13.61 10.62-.81a80.61 80.61 0 0 0 4.3 12.4l-.22-.4-8.87 6 6.71 12 9.71-4.4a81.18 81.18 0 0 0 8.34 10.25l-.42-.36-6.29 8.63 10.42 9 7.62-7.45a80.5 80.5 0 0 0 11.2 6.72l-.37-.14-3 10.26 12.88 4.91 4.62-9.62c2.16.58 4.32 1.11 6.52 1.54zm-44.55-91a60.91 60.91 0 1 1 48.33 71.3 60.91 60.91 0 0 1-48.32-71.3z" transform="translate(-19.82 -73.84)"/><path class="d" d="M87.82 169.56a32.8 32.8 0 0 1-.24-3.83 32.26 32.26 0 0 1 41.08-31.11 47.45 47.45 0 0 1 94.45 6.49v.32a29 29 0 0 1-3.31 57.72h-130.26v-.06l-1.25.06a14.8 14.8 0 0 1-.47-29.59z" transform="translate(-19.82 -73.84)"/><path class="e" d="M968.35 297.64a24.71 24.71 0 0 0 .35-3.47 24.27 24.27 0 0 0-24.27-24.26 24 24 0 0 0-7.53 1.31 50.11 50.11 0 0 0-60.46-41.72 61.41 61.41 0 0 0-105.23 26.5h-.11a36.09 36.09 0 0 0-36 41.6h233.25z" transform="translate(-19.82 -73.84)"/><g class="f"><path class="g" d="M469.18 15.4c-69.3-3.77-128.75 49.57-132.5 118.86s49.6 128.73 118.89 132.5 128.75-49.6 132.52-118.86-49.58-128.74-118.91-132.5z"/><path class="h" d="M604.49 186l-11.56 18.92-20.16 36-10.41-23.62-17.86 10.7-10.5-21.39-10.53 12-4.92-1.51-15.62-7.05 2.21 16.79 12 5.48-24 51.25-9.7 5.52-7.57-19.9-3.93-32.9-16-1.53-6.26-12.44 10.34-24.45 13.58-2.42 8 5.93 20-3.77-21.09-13.1-18-4.07-.65-5.51 18-9.19-6.86-11.83 18.61-15.15 18.57 7.65 32-8.14s13.24-6.16 28-12.93a126 126 0 0 1 34.31 60.66zm-195.9-72.95l-7.82 12-13.63 22a2 2 0 0 0 0 2l8 14.4a2.16 2.16 0 0 0 1.61 1 1.93 1.93 0 0 0 1.68-.84l8-11.68 13.86 18.8-30.07 24.11-16.32.66a2 2 0 0 0-1.71 1.2l-4 9.76a1.94 1.94 0 0 0 .2 1.85l10.12 14.4-17.08-9-4.66-6.31a125.56 125.56 0 0 1 51.82-94.35zm-11.8 153.4l-10-22.24 13-25.5 32.45 32.69-31.88 57.53-5.16-13.71 1.73-27.87a1.89 1.89 0 0 0-.14-.9z" transform="translate(-19.82 -73.84)"/><path class="h" d="M412.18 75.63l-12.59-30.39c21-9.33 34.93-10.92 40.25-11.17l-7.53 27z"/></g><path class="h" d="M396.55 311.62a1.55 1.55 0 0 1-1.07 1.91l-86.23 24.47a1.55 1.55 0 0 1-1.91-1.07l-17.21-60.63a1.55 1.55 0 0 1 1.07-1.91l86.23-24.47a1.55 1.55 0 0 1 1.92 1.06z" transform="translate(-19.82 -73.84)"/><path class="i" d="M287.971 255.975l84.637-24.019 1.622 5.714-84.637 24.019z"/><path class="j" d="M351.16 321.61l-15.79-55.61a.38.38 0 0 0 0-.18c0-.16-.1-.3-.15-.45a5.58 5.58 0 0 1 4-6.42l37-10.49 16.44 57.94-37 10.49a6.31 6.31 0 0 0-4.5 4.72zm.03-.01l-15.79-55.66a.36.36 0 0 1-.09-.15c0-.16-.08-.31-.11-.47a5.58 5.58 0 0 0-6.74-3.39l-37 10.49 16.44 57.94 37-10.49a6.31 6.31 0 0 1 6.29 1.73z" transform="translate(-19.82 -73.84)"/><path class="i" d="M335.2 265.33a5.59 5.59 0 0 0-4.23-3.51l16.42 57.87a6.35 6.35 0 0 1 3.8 1.91l-15.79-55.66a.36.36 0 0 1-.09-.15c-.05-.15-.08-.31-.11-.46z" transform="translate(-19.82 -73.84)"/><path class="k" d="M279.056 204.188l19.192-5.446.475 1.674-19.192 5.446zm1.528 5.44l31.313-8.886.358 1.26-31.313 8.886zm1.057 3.683l31.313-8.886.358 1.26-31.313 8.886zm1.026 3.697l31.313-8.886.358 1.26-31.313 8.886zm1.06 3.682l31.313-8.886.358 1.26-31.313 8.886zm-.442 4.028l31.248-8.789.354 1.258-31.248 8.789zm2.547 3.359l31.313-8.886.358 1.26-31.313 8.886zm1.028 3.695l31.313-8.886.358 1.26-31.313 8.886zm-.472 4.006l31.248-8.789.354 1.258-31.248 8.789zm34.242-4.248l-31.31 8.89-.36-1.26 31.31-8.89.36 1.26zm-30.608 11.302l31.313-8.886.358 1.26-31.313 8.886zm1.038 3.686l31.313-8.886.358 1.26-31.313 8.886zm31.837-48.904l31.313-8.886.358 1.26-31.313 8.886zm-.47 4.204l31.248-8.789.354 1.258-31.248 8.789zm2.566 3.145l31.313-8.886.358 1.26-31.313 8.886zm1.047 3.703l31.313-8.886.358 1.26-31.313 8.886zm1.028 3.736l31.313-8.886.358 1.26-31.313 8.886zm1.078 3.623l31.313-8.886.358 1.26-31.313 8.886zm1.027 3.733l31.313-8.886.358 1.26-31.313 8.886zm-.53 4.166l31.248-8.789.354 1.258-31.248 8.789zm2.625 3.203l31.313-8.886.358 1.26-31.313 8.886zm1.048 3.693l31.313-8.886.358 1.26-31.313 8.886zm1.037 3.713l31.313-8.886.358 1.26-31.313 8.886z"/><path class="l" d="M328.65 256.89l-4.28-1.02-3.12 3.12-19.64-69.24 3.7-1.05 3.7-1.05 19.64 69.24z"/><path class="m" d="M273.8 131.78q8.86-8.58 26.85-8.58t28.11 8.8a28.53 28.53 0 0 1 10.12 22.52 30.19 30.19 0 0 1-2.05 11.48q-3.73 9.23-14.08 16.13-4.1 2.61-5.59 3.59t-6 3.78a17.41 17.41 0 0 0-6.43 6.34q-1.91 3.54-2.47 14.64h-5.69l-.19-8.11q0-8.2 7-21a55.2 55.2 0 0 0 7-27q0-11.56-4-17.9t-12.87-6.34q-5.79 0-8.25 2.47a7.41 7.41 0 0 0-2.47 5.27 4.36 4.36 0 0 0 .38 2 10.49 10.49 0 0 0 1.4 2l1.3 1.59a19.53 19.53 0 0 1 3 4.75 14.25 14.25 0 0 1 .89 5.41 10.81 10.81 0 0 1-3.54 8.48 12.29 12.29 0 0 1-8.48 3.17 12.44 12.44 0 0 1-9-3.78q-3.82-3.77-3.82-11 .02-10.14 8.88-18.71zm14.41 98a16.21 16.21 0 1 1-4.71 11.42 15.56 15.56 0 0 1 4.7-11.38z" transform="translate(-19.82 -73.84)"/><path class="l" d="M221.13 180.32h35.45v22.89h-35.45z"/><path class="n" d="M238.85 196.08l-18.65-13.47 1.76-2.43 16.89 12.2 16.89-12.2 1.76 2.43-18.65 13.47z"/><path class="j" d="M540.77 307.8h38.75c.27-3.67 1.09-8.43 3.4-11.5 14.3-18.42 15.21-36 15.21-37.2a38 38 0 0 0-75.92 0c0 1.24.89 18.77 15.21 37.2 2.31 3.07 3.1 7.83 3.35 11.5z" transform="translate(-19.82 -73.84)"/><path class="n" d="M521.111 192.525l2.952-.531 7.503 41.712-2.952.531zm27.686 41.076l7.503-41.712 2.952.531-7.503 41.712zm3.633-34.951h-.98l-5.31-1.83-5.3 1.83h-.98l-5.29-1.83-5.3 1.83h-.98l-5.79-2 .98-2.84 5.3 1.83 5.3-1.83h.98l5.29 1.83 5.3-1.83h.98l5.31 1.83 5.31-1.83.98 2.84-5.8 2zm-36.75 34.25h49.36v3h-49.36zm0 9.59h49.36v3h-49.36zm0 9.59h49.36v3h-49.36zm6.71 9.59h35.94v3h-35.94zm-2.48-26.76h3v18.22h-3z"/><g class="c"><path class="g" d="M840.15 266.06a52.35 52.35 0 0 1 6.94-71.12l9.19 12a37.29 37.29 0 0 0 45.15 58.92l9.19 12a52.34 52.34 0 0 1-70.47-11.8z" transform="translate(-19.82 -73.84)"/><path class="j" d="M852.19 191a51.91 51.91 0 0 1 32.73-9l-2 15a37 37 0 0 0-21.57 6zm54.41 71a37.34 37.34 0 0 0 4.71-50.45 36.94 36.94 0 0 0-22-13.82l2-15a52.34 52.34 0 0 1 24.47 91.27z" transform="translate(-19.82 -73.84)"/></g><path class="j" d="M877.05 154.93h-33.49v66.53h44.35v-55.67l-10.86-10.86z"/><path class="l" d="M877.04 166.24h11.32l-11.32-11.31v11.31z"/><path class="n" d="M838.44 168.7h12.31v3h-12.31zm-.23 6.6h29.24v3h-29.24zm0 6.6h29.24v3h-29.24zm0 6.6h22.33v3h-22.33z"/><path class="g" d="M870.27 193.74h9.04v26.06h-9.04z"/><path class="j" d="M883.02 202.3h9.04v17.51h-9.04z"/><path class="n" d="M893.57 219.8h-3v-16h-6.05v16h-3v-19h12.05v19z"/><path class="h" d="M895.78 186.6h9.04v33.21h-9.04z"/><path class="j" d="M857.52 213.24h9.04v6.56h-9.04z"/><path class="n" d="M868.06 219.8h-3v-5.06h-6.04v5.06h-3v-8.06h12.04v8.06z"/><path class="j" d="M848.04 220.29z"/><path class="n" d="M848.04 218.79h66.41v3h-66.41z"/><path class="p" d="M894.23 174.69a28.07 28.07 0 0 0 .4-4 27.68 27.68 0 0 0-27.68-27.69 27.39 27.39 0 0 0-8.59 1.5 57.15 57.15 0 0 0-69-47.59 70.06 70.06 0 0 0-120 30.28h-.13a41.16 41.16 0 0 0-41 47.46h266z" transform="translate(-19.82 -73.84)"/><path class="n" d="M258.67 324.86a6.85 6.85 0 1 1 6.85-6.85 6.85 6.85 0 0 1-6.85 6.85zm0-10.69a3.85 3.85 0 1 0 3.85 3.85 3.85 3.85 0 0 0-3.85-3.85zm16.33 5.23a6.85 6.85 0 1 1 6.85-6.85 6.85 6.85 0 0 1-6.85 6.85zm0-10.69a3.85 3.85 0 1 0 3.85 3.85 3.85 3.85 0 0 0-3.85-3.85z" transform="translate(-19.82 -73.84)"/><path class="n" d="M245.68 244.76h-3v-22.43l19.34-7.04v23.53h-3v-19.25l-13.34 4.86v20.33zm2.129-19.035l16.347-5.947 1.026 2.82-16.347 5.947z"/><path class="j" d="M141.47 249.68h68.62v51.13h-68.62z"/><path class="q" d="M147.45 255.67v22.91l10.48-13.94 10.29 13.69 6.65-8.86 8.47 11.28 1.86 2.48h18.9v-27.56h-56.65z"/><circle class="j" cx="190.78" cy="266.16" r="4.84"/><path class="n" d="M41 234.6a21.15 21.15 0 1 1 21.15-21.15 21.18 21.18 0 0 1-21.15 21.15zm0-39.31a18.15 18.15 0 1 0 18.15 18.15 18.17 18.17 0 0 0-18.15-18.15z" transform="translate(-19.82 -73.84)"/><path class="j" d="M29.9 139.6l-6.77 3.91-6.77 3.9v-15.62l6.77 3.9 6.77 3.91z"/><path class="n" d="M775.44 98.69h-30.26v-19.65h30.24v19.65zm-27.24-3h24.24v-13.65h-24.26v13.65zm12.12-2.25l-13.96-11.92 1.95-2.28 12.01 10.25 12.01-10.25 1.94 2.28-13.95 11.92zm-14.201 1.587l9.378-8.021 1.95 2.28-9.378 8.021zm16.584-5.684l1.947-2.283 9.482 8.087-1.947 2.283z"/><path class="j" d="M638.66 173.61l-5.72 5.71 4.66 5.5a21.87 21.87 0 0 0-3.19 7.19l-7.4.62v8.08l7.18.6a21.93 21.93 0 0 0 2.84 7.34l-4.8 5.67 5.71 5.71 5.5-4.66a21.86 21.86 0 0 0 7.19 3.19l.62 7.4h8.08l.6-7.18a21.86 21.86 0 0 0 7.34-2.84l5.67 4.8 5.72-5.71-4.66-5.5a21.83 21.83 0 0 0 3.18-7.19l7.4-.62v-8.08l-7.18-.6a21.88 21.88 0 0 0-2.84-7.34l4.8-5.67-5.71-5.72-5.5 4.66a21.89 21.89 0 0 0-7.19-3.19l-.62-7.4h-8.08l-.6 7.18a21.9 21.9 0 0 0-7.34 2.84zm26.7 14a13.5 13.5 0 1 1-19.1 0 13.5 13.5 0 0 1 19.1.02z" transform="translate(-19.82 -73.84)"/><path class="n" d="M655.84 201a6.84 6.84 0 1 1 6.84-6.84 6.85 6.85 0 0 1-6.84 6.84zm0-10.68a3.84 3.84 0 1 0 3.84 3.84 3.85 3.85 0 0 0-3.84-3.8zm0 20.81a15.08 15.08 0 0 1-10.37-4.13l-.47-.44v-1.08a6.85 6.85 0 0 1 6.84-6.84h8a6.85 6.85 0 0 1 6.84 6.84v1.08l-.47.44a15.09 15.09 0 0 1-10.37 4.13zm-7.84-5.88a12.1 12.1 0 0 0 15.68 0 3.85 3.85 0 0 0-3.83-3.61h-8a3.85 3.85 0 0 0-3.85 3.61z" transform="translate(-19.82 -73.84)"/><path class="j" d="M468.38 95.58h-39.65v23.66h6.28v7.43l8.22-7.43h25.15v-23.66z"/><path class="n" d="M436.48 103.08h24.15v3h-24.15zm0 6.09h24.15v3h-24.15z"/><path class="j" d="M305.07 82.23h51.55v11.01h-51.55z"/><path class="n" d="M356.69 125.81h-51.69v-32.55h3v29.55h45.69v-29.55h3v32.55zm-43.31-47.9h3v9.57h-3zm31.93 0h3v9.57h-3zm-31.33 20.76h2.74v3h-2.74zm5.16 0h2.74v3h-2.74zm5.17 0h2.74v3h-2.74zm5.16 0h2.74v3h-2.74zm5.17 0h2.74v3h-2.74zm5.16 0h2.74v3h-2.74zm5.17 0h2.74v3h-2.74zm-30.99 5.31h2.74v3h-2.74zm5.16 0h2.74v3h-2.74zm5.17 0h2.74v3h-2.74zm5.16 0h2.74v3h-2.74zm5.17 0h2.74v3h-2.74zm5.16 0h2.74v3h-2.74zm5.17 0h2.74v3h-2.74zm-30.99 5.32h2.74v3h-2.74zm5.16 0h2.74v3h-2.74zm5.17 0h2.74v3h-2.74zm5.16 0h2.74v3h-2.74zm5.17 0h2.74v3h-2.74zm5.16 0h2.74v3h-2.74zm5.17 0h2.74v3h-2.74zm-30.99 5.31h2.74v3h-2.74zm5.16 0h2.74v3h-2.74zm5.17 0h2.74v3h-2.74zm5.16 0h2.74v3h-2.74zm5.17 0h2.74v3h-2.74zm5.16 0h2.74v3h-2.74zm5.17 0h2.74v3h-2.74z"/><path class="m" d="M704.64 205.66a19.27 19.27 0 0 0-3.14 7.44 19.34 19.34 0 0 0 21.89 23l8.23 23a43.67 43.67 0 0 1-43.8-71.1z" transform="translate(-19.82 -73.84)"/><path class="h" d="M718.24 197.46a19.5 19.5 0 0 0-7.82 2.74l-16.85-17.69a43.51 43.51 0 0 1 26.59-9.5z" transform="translate(-19.82 -73.84)"/><path class="r" d="M740.26 216.46a19.52 19.52 0 0 0-14.09-18.37l1.93-24.41.82.11a43.74 43.74 0 0 1 35.3 47.21z" transform="translate(-19.82 -73.84)"/><path class="j" d="M730.88 233.41a19.43 19.43 0 0 0 7.89-9.14l24 4.58a43.59 43.59 0 0 1-23.62 27.55z" transform="translate(-19.82 -73.84)"/><path class="h" d="M620.7 114.71l-10.7-3.05-3.51 9.29a30.17 30.17 0 0 0-10.79 1l-5.7-8.5-9.73 5.41 4.09 9a30.18 30.18 0 0 0-6.93 8.33l-10-2-3.05 10.71 9.29 3.5a30.08 30.08 0 0 0 1 10.79l-8.5 5.7 5.41 9.73 9-4.09a30.1 30.1 0 0 0 8.33 6.93l-2 10 10.71 3.05 3.5-9.29a30 30 0 0 0 10.79-1l5.7 8.5 9.73-5.41-4.09-9a30 30 0 0 0 6.93-8.33l10 2 3.05-10.71-9.29-3.5a30.13 30.13 0 0 0-.94-10.77l8.5-5.7-5.41-9.73-9 4.09a30.18 30.18 0 0 0-8.33-6.93z" transform="translate(-19.82 -73.84)"/><path class="n" d="M582.69 54.68h3v4.93h-3zm9.576 6.692l2.465-4.269 2.598 1.5-2.465 4.269zm7.433 6.286l4.269-2.465 1.5 2.598-4.269 2.465zm3.311 9.272h4.93v3h-4.93zm-3.32 12.181l1.5-2.598 4.269 2.465-1.5 2.598zm-7.402 6.37l2.598-1.5 2.465 4.269-2.598 1.5zm-9.598 1.769h3v4.93h-3zm-11.824.856l2.465-4.269 2.598 1.5-2.465 4.269zm-8.023-9.161l4.269-2.465 1.5 2.598-4.269 2.465zm-2.403-12.015h4.93v3h-4.93zm2.288-9.185l1.5-2.598 4.269 2.465-1.5 2.598zm8.168-9.459l2.598-1.5 2.465 4.269-2.598 1.5z"/><path class="j" d="M584.52 79.23l-9.9-6.19 1.59-2.54 7.85 4.91 10.38-10.69 2.15 2.09-12.07 12.42z"/><path class="n" d="M656 157.86a7.32 7.32 0 1 1 7.32-7.32 7.33 7.33 0 0 1-7.32 7.32zm0-11.64a4.32 4.32 0 1 0 4.32 4.32 4.32 4.32 0 0 0-4.32-4.32z" transform="translate(-19.82 -73.84)"/><path class="n" d="M634.7 64.12h3v5.5h-3zm0 19.65h3v5.5h-3zm-10.1-12.01l1.5-2.598 4.763 2.75-1.5 2.598zm16.983 9.796l1.5-2.598 4.763 2.75-1.5 2.598zm-17.056.065l4.763-2.75 1.5 2.598-4.763 2.75zm17.059-9.714l4.763-2.75 1.5 2.598-4.763 2.75z"/><path class="r" d="M774 283.8l-1.9-2.32 3.59-2.92c.93-.59 2-1.5 2-2.5v-3.29a3.33 3.33 0 0 0-3.33-3.33h-3.86a3.33 3.33 0 0 0-3.33 3.33v1.54h-3v-1.54a6.34 6.34 0 0 1 6.33-6.33h3.88a6.34 6.34 0 0 1 6.33 6.33v3.29c0 1.87-1.13 3.55-3.35 5z" transform="translate(-19.82 -73.84)"/><path class="r" d="M751.65 216.1h-3v-3.29c0-1.87 1.13-3.55 3.35-5l3.37-2.77 1.9 2.32-3.59 2.93c-.93.59-2 1.5-2 2.5v3.29zm-3 3.13h3v3.76h-3z"/><path class="m" d="M614.45 240.31a7.3 7.3 0 0 1 5.11-2 7.39 7.39 0 0 1 5.07 2q2.21 2 2.21 6.52a20.4 20.4 0 0 1-.7 4.31q-.69 2.88-2.5 9.45a59 59 0 0 0-1.49 6.59q-.4 2.63-1.28 10.58h-2.48q-1.22-10-1.64-12.37a65.4 65.4 0 0 0-1.68-6.61q-1.6-5.43-2.06-7.24a19.15 19.15 0 0 1-.72-4.42q0-4.81 2.16-6.81zm0 46.33a7.32 7.32 0 1 1-2.12 5.16 7 7 0 0 1 2.08-5.16zm-386.97-79.98h12.52v22.15h-12.52a2.4 2.4 0 0 1-2.38-2.43v-17.29a2.4 2.4 0 0 1 2.38-2.43z" transform="translate(-19.82 -73.84)"/><path class="g" d="M227.72 209.68h12.28v9.41h-12.28a1.18 1.18 0 0 1-1.17-1.2v-7a1.18 1.18 0 0 1 1.17-1.21z" transform="translate(-19.82 -73.84)"/><path class="h" d="M240 223.64v5.17h-12.52a2.4 2.4 0 0 1-2.38-2.43v-2.74h14.9z" transform="translate(-19.82 -73.84)"/><path class="s" d="M282.33 229.11h393a6 6 0 0 0-5-5.19h-388v5.19z" transform="translate(-19.82 -73.84)"/><path class="l" d="M282.33 211.58v12.34h388.06-.09a6.25 6.25 0 0 0 0-12.29.09.09 0 0 0 .06 0h-388z" transform="translate(-19.82 -73.84)"/><path class="t" d="M670.3 211.58a6 6 0 0 0 5-5.17h-393v5.17h388z" transform="translate(-19.82 -73.84)"/><path class="j" d="M675.33 206.38a6 6 0 0 1-5 5.2h.06a.09.09 0 0 1-.06 0 6.25 6.25 0 0 1 0 12.29h.06-.06a6 6 0 0 1 5 5.2l46.62-11.37z" transform="translate(-19.82 -73.84)"/><path class="u" d="M675.33 206.38a6 6 0 0 1-5 5.2h.06a.09.09 0 0 1-.06 0c2.88.38 51.65 6.14 51.65 6.14z" transform="translate(-19.82 -73.84)"/><path class="u" d="M219.74 132.68h42.78v22.47h-42.78z"/><path class="j" d="M219.75 143.11h42.78v4.59h-42.78z"/><path class="l" d="M707.9 214.32a22.75 22.75 0 0 0-.26 3.22 23.32 23.32 0 0 0 .31 3.62l14-3.41z" transform="translate(-19.82 -73.84)"/><path class="j" d="M251.88 153.12h6.16v1.45h-6.16zm0-3.31h6.16v1.45h-6.16z"/><path class="u" d="M251.88 146.51h6.16v1.45h-6.16zm0-3.31h6.16v1.46h-6.16z"/><path class="j" d="M251.88 139.9h6.16v1.45h-6.16zm0-3.3h6.16v1.45h-6.16zm0-3.3h6.16v1.45h-6.16zm-26.22 19.82h6.16v1.45h-6.16zm0-3.31h6.16v1.45h-6.16z"/><path class="u" d="M225.66 146.51h6.16v1.45h-6.16zm0-3.31h6.16v1.46h-6.16z"/><path class="j" d="M225.66 139.9h6.16v1.45h-6.16zm0-3.3h6.16v1.45h-6.16zm0-3.3h6.16v1.45h-6.16z"/><path class="v" d="M458.35 220.35"/><path class="h" d="M571.47 212a93.2 93.2 0 1 0-27.28 66 92.75 92.75 0 0 0 27.28-66zm-93.12 75.9a75.72 75.72 0 1 1 53.51-22.18 75.44 75.44 0 0 1-53.51 22.18zm11.65 33.51q.15-10.62.29-21.28a11.68 11.68 0 0 0-3.42-8.35q-4.13.42-8.36.42c-2.91 0-5.82-.14-8.69-.43a11.74 11.74 0 0 0-3.41 8.34q-.16 10.66-.29 21.39c0 6.8 5.14 9.65 11.91 9.55 6.79-.05 11.97-2.9 11.97-9.64z" transform="translate(-19.82 -73.84)"/><path class="r" d="M477.41 365.33h-38.12l-.01-118.98 38.13.01v118.97z"/><path class="n" d="M458.61 246.36h15.75v118.98h-15.75z"/><path class="j" d="M439.28 246.36h38.13v9.15h-38.13z"/><path class="j" d="M497.22 448.32a27 27 0 0 1-38.12 0v-9.14h38.12c.01 3.05.01 6.09 0 9.14z" transform="translate(-19.82 -73.84)"/><path class="u" d="M457.02 366.48h16.84v7.86h-16.84z"/><path class="j" d="M430.82 259.61a67.15 67.15 0 0 1 47.33-114.75v3a64.13 64.13 0 0 0-45.21 109.62z" transform="translate(-19.82 -73.84)"/><path class="s" d="M466.33 229.11h209a6 6 0 0 0-5-5.19h-204v5.19z" transform="translate(-19.82 -73.84)"/><path class="l" d="M466.33 211.58v12.34h204.06-.09a6.25 6.25 0 0 0 0-12.29.09.09 0 0 0 .06 0h-204z" transform="translate(-19.82 -73.84)"/><path class="t" d="M670.3 211.58a6 6 0 0 0 5-5.17h-209v5.17h204z" transform="translate(-19.82 -73.84)"/><path class="j" d="M675.33 206.38a6 6 0 0 1-5 5.2h.06a.09.09 0 0 1-.06 0 6.25 6.25 0 0 1 0 12.29h.06-.06a6 6 0 0 1 5 5.2l46.62-11.37z" transform="translate(-19.82 -73.84)"/><path class="u" d="M675.33 206.38a6 6 0 0 1-5 5.2h.06a.09.09 0 0 1-.06 0c2.88.38 51.65 6.14 51.65 6.14z" transform="translate(-19.82 -73.84)"/><path class="l" d="M707.9 214.32a22.75 22.75 0 0 0-.26 3.22 23.32 23.32 0 0 0 .31 3.62l14-3.41z" transform="translate(-19.82 -73.84)"/><path class="m" d="M139.68 143.7l-36.54 43.8a4.16 4.16 0 0 0 .53 5.86l57.66 48.11a4.16 4.16 0 0 0 5.85-.53l36.55-43.8a4.16 4.16 0 0 0-.53-5.85l-57.66-48.11a4.16 4.16 0 0 0-5.86.52z" transform="translate(-19.82 -73.84)"/><path class="h" d="M167.17 240.93l36.55-43.8a4.16 4.16 0 0 0-.53-5.85l-10.68-8.91-39.21 47a4.16 4.16 0 0 0 .53 5.86l7.49 6.25a4.16 4.16 0 0 0 5.85-.55z" transform="translate(-19.82 -73.84)"/><path class="r" d="M165.58 218.08a2 2 0 0 0 .25 2.75l7.49 6.25a2 2 0 0 0 2.75-.25l28.31-33.93a4.11 4.11 0 0 0-1.19-1.62l-9-7.5z" transform="translate(-19.82 -73.84)"/><path class="j" d="M165.48 239.52a2 2 0 0 1-2.75.25l-7.49-6.25a2 2 0 0 1-.25-2.75l37.79-45.29 9 7.5a2 2 0 0 1 .25 2.75z" transform="translate(-19.82 -73.84)"/><path class="w" d="M155 230.77a2 2 0 0 0 .25 2.75l2.33 1.94a2 2 0 0 1-.25-2.75l37.79-45.29-2.32-1.94z" transform="translate(-19.82 -73.84)"/><path class="l" d="M155.98 162.76l-3.48 2.14-1.49 3.81-10.4-8.68 2.48-2.98 2.48-2.97 10.41 8.68z"/><path class="j" d="M111.534 121.368l21.486-25.743 2.258 1.885-21.486 25.743zm-9.312-1.167l27.98-33.523 3.387 2.827-27.98 33.523z"/><path class="l" d="M723.84 289.32l-45.2-29.51a3.94 3.94 0 0 0-5.44 1.19l-36 55.08a3.93 3.93 0 0 0 1.14 5.44l45.24 29.48a3.93 3.93 0 0 0 5.44-1.14l36-55.08a3.93 3.93 0 0 0-1.18-5.46z" transform="translate(-19.82 -73.84)"/><path class="x" d="M638.38 321.48l45.2 29.52a3.93 3.93 0 0 0 5.44-1.14l4.31-6.6-48.49-31.66a3.93 3.93 0 0 0-5.45 1.14l-2.15 3.26a3.93 3.93 0 0 0 1.14 5.48z" transform="translate(-19.82 -73.84)"/><path class="s" d="M656.79 321.87a1.85 1.85 0 0 0-2.56.54l-2.16 3.31a1.85 1.85 0 0 0 .54 2.56l35 22.86a3.88 3.88 0 0 0 1.4-1.29l3.17-4.86z" transform="translate(-19.82 -73.84)"/><path class="j" d="M639.52 319.73a1.85 1.85 0 0 1-.54-2.56l2.16-3.31a1.85 1.85 0 0 1 2.56-.54l46.74 30.52-3.17 4.86a1.85 1.85 0 0 1-2.56.54z" transform="translate(-19.82 -73.84)"/><path class="w" d="M643.7 313.33a1.85 1.85 0 0 0-2.56.54l-1.14 1.76c.56-.85 1.29-.46 2.15.09l46.74 30.52 1.57-2.4z" transform="translate(-19.82 -73.84)"/><path class="h" d="M623.59 255.26l-2.4-3.04-3.75-.97 4.54-6.95 3.07 2.01 3.07 2-4.53 6.95z"/><path class="j" d="M667.925 205.878l.552-.845 15.066 9.846-.552.845zm-15.298 2.312l1.045-1.599 34.576 22.597-1.045 1.599zm.687 5.862l1.045-1.599 28.265 18.472-1.045 1.599z"/><path class="r" d="M334.8 38.43h12.04v3h-12.04zm4.53-4.52h3v12.05h-3zm-4.8 254.77h12.05v3h-12.05zm4.52-4.52h3v12.05h-3z"/><path class="j" d="M95.73 255.66h21.08v3h-21.08zm9.04-9.04h3v21.08h-3z"/><path class="r" d="M199.1 224.47h21.83v3h-21.83zm9.42-9.42h3v21.84h-3z"/><path class="j" d="M362.59 53.48h21.83v3h-21.83zm9.42-9.42h3v21.84h-3z"/><path class="r" d="M618 184.57h21.46v3h-21.46zm9.23-9.23h3v21.46h-3z"/><path class="r" d="M533.65 134.51c0 9.39-17 35.13-17 35.13s-17-25.74-17-35.13a17 17 0 0 1 34 0z" transform="translate(-19.82 -73.84)"/><circle class="m" cx="496.84" cy="61.61" r="5.03"/><path class="h" d="M437.53 182.86h35.33v-15.88h-6.29v-7.43l-8.21 7.43h-20.83v15.88z"/><path class="j" d="M442.68 173.23h24.16v3h-24.16z"/><path class="h" d="M860.58 215l-6.27-57a1.41 1.41 0 0 0-.12-.23 10.72 10.72 0 0 0-1.19-2.77 8.67 8.67 0 0 0-11.61-2.78 1.09 1.09 0 0 0-.32.13l-.28.19-11.73 7.76-44.2 31.81a1.16 1.16 0 0 0-.48 1.28l5.08 55.26a1.11 1.11 0 0 0 .15.33 1.15 1.15 0 0 0 .56.45 1.17 1.17 0 0 0 1-.12l10.23-6.76c2.52 9.2 2.53 9.24 2.63 9.39a1.16 1.16 0 0 0 1.61.33l54.42-36a1.15 1.15 0 0 0 .52-1.27z" transform="translate(-19.82 -73.84)"/><path class="u" d="M845.64 213.37l-48.91 32.34a6.45 6.45 0 0 1 6 2.9 8.71 8.71 0 0 1 1 2.21l54.41-36-5.86-55.58v-.06a9 9 0 0 0-1.17-2.88 6.4 6.4 0 0 0-8.76-1.93c-.58.51-1.24 1.36-1.05 6l4.87 51.71a1.17 1.17 0 0 1-.53 1.29z" transform="translate(-19.82 -73.84)"/><path class="j" d="M846.6 210.4l.07-.06h.08a7.36 7.36 0 0 1 10.11 2.23 9.2 9.2 0 0 1 1.09 2.43l.18-.12-5.86-55.58v-.06a9 9 0 0 0-1.17-2.88 6.4 6.4 0 0 0-8.76-1.93c-.58.51-1.24 1.36-1.05 6l4.71 50.64a3.27 3.27 0 0 1 .6-.67zm-800.92 69.25h91.92v-.25a18.44 18.44 0 0 0-23.48-17.78 27.12 27.12 0 0 0-54 3.71v.18a16.54 16.54 0 0 0-14.44 14.14z" transform="translate(-19.82 -73.84)"/><path class="n" d="M190.95 15.75h3v7.75h-3zm-12.984 6.664l2.121-2.121 5.479 5.479-2.121 2.121zm-4.476 10.786h7.75v3h-7.75zm4.459 13.853l5.479-5.479 2.121 2.121-5.479 5.479zm13.001-1.153h3v7.76h-3zm8.309-2.253l2.121-2.121 5.486 5.486-2.121 2.121zm4.391-10.447h7.76v3h-7.76zm-4.381-7.468l5.486-5.486 2.121 2.121-5.486 5.486zm714.781 67.368h5.77v3h-5.77zm-4.749-4.597l2.885-4.997 2.598 1.5-2.885 4.997zm-9.526-3.447l2.598-1.5 2.885 4.997-2.598 1.5zm-4.425 8.724h5.77v3h-5.77zm5.051 11.162l2.885-4.997 2.598 1.5-2.885 4.997zm9.407-3.76l2.598-1.5 2.885 4.997-2.598 1.5zm-168.478 151.388h3v6.52h-3zm0 0h3v6.52h-3zm-19.732 13.363l1.5-2.598 5.646 3.26-1.5 2.598zm-.13 20.9l5.646-3.26 1.5 2.598-5.646 3.26zm19.852 6.737h3v6.52h-3zm15.894-6.984l1.5-2.598 5.646 3.26-1.5 2.598zm-.194-19.881l5.646-3.26 1.5 2.598-5.646 3.26z"/></g></svg>