<svg xmlns="http://www.w3.org/2000/svg" xmlns:xlink="http://www.w3.org/1999/xlink" viewBox="0 0 1000 500"><defs><style>.a{fill:url(#a);}.b{fill:url(#b);}.c,.e,.j,.l,.n,.r{opacity:0.5;}.d{fill:#5eb4e7;}.e{fill:url(#c);}.f{fill:#cfeaf9;}.g{fill:#2e95d1;}.h,.s{fill:#fff;}.i{opacity:0.35;}.j{fill:url(#d);}.k{opacity:0.2;}.l{fill:url(#e);}.m{fill:#282d33;}.n{fill:url(#f);}.o{fill:#f8c44f;}.p{fill:url(#g);}.q{fill:#97d3f1;}.r{fill:url(#h);}.s{stroke:#282d33;stroke-width:3px;}.t{fill:url(#i);}</style><radialGradient id="a" cx="434" cy="66" r="522.3" gradientTransform="translate(0 225)" gradientUnits="userSpaceOnUse"><stop offset="0" stop-color="#22b573"/><stop offset="1" stop-color="#0071bc"/></radialGradient><radialGradient id="b" cx="500" cy="250" r="395.28" gradientUnits="userSpaceOnUse"><stop offset="0" stop-color="#97d3f1"/><stop offset="1" stop-color="#63bdea"/></radialGradient><linearGradient id="c" x1="580.97" y1="320.17" x2="701.82" y2="320.17" gradientUnits="userSpaceOnUse"><stop offset="0" stop-color="#63bdea"/><stop offset="1" stop-color="#fff"/></linearGradient><linearGradient id="d" x1="716.97" y1="320.17" x2="837.82" y2="320.17" xlink:href="#c"/><linearGradient id="e" x1="852.97" y1="320.17" x2="973.82" y2="320.17" xlink:href="#c"/><linearGradient id="f" x1="821.32" y1="190.57" x2="821.32" y2="51.6" xlink:href="#c"/><linearGradient id="g" x1="286.72" y1="103.87" x2="231.72" y2="165.88" xlink:href="#c"/><linearGradient id="h" x1="46.19" y1="182.2" x2="241" y2="182.2" xlink:href="#c"/><linearGradient id="i" x1="523.27" y1="437.98" x2="523.27" y2="509.33" gradientUnits="userSpaceOnUse"><stop offset="0" stop-color="#fff"/><stop offset="1" stop-color="#63bdea"/></linearGradient></defs><title>img-banner-Pick-Package</title><path class="a" d="M0,0H1000V500H0Z"/><rect class="b" width="1000" height="500"/><g class="c"><rect class="d" x="580.97" y="292.45" width="120.85" height="70.47"/><polygon class="e" points="701.82 302.43 701.82 292.45 580.97 292.45 580.97 347.9 701.82 302.43"/><rect class="f" x="580.97" y="363.89" width="120.85" height="70.37"/><rect class="g" x="592.43" y="373.73" width="69.32" height="4.63"/><rect class="d" x="592.43" y="383.65" width="79.08" height="3.47"/><rect class="d" x="592.09" y="391.76" width="69.05" height="3.48"/><rect class="g" x="591.3" y="405.45" width="45.2" height="12.36"/><rect class="h" x="601.53" y="409.89" width="24.75" height="3.48"/></g><g class="i"><rect class="d" x="716.97" y="292.45" width="120.85" height="70.47"/><polygon class="j" points="837.82 302.43 837.82 292.45 716.97 292.45 716.97 347.9 837.82 302.43"/><rect class="f" x="716.97" y="363.89" width="120.85" height="70.37"/><rect class="g" x="728.43" y="373.73" width="69.32" height="4.63"/><rect class="d" x="728.43" y="383.65" width="79.08" height="3.47"/><rect class="d" x="728.1" y="391.76" width="69.05" height="3.48"/><rect class="g" x="727.3" y="405.45" width="45.2" height="12.36"/><rect class="h" x="737.53" y="409.89" width="24.75" height="3.48"/></g><g class="k"><rect class="d" x="852.97" y="292.45" width="120.85" height="70.47"/><polygon class="l" points="973.82 302.43 973.82 292.45 852.97 292.45 852.97 347.9 973.82 302.43"/><rect class="f" x="852.97" y="363.89" width="120.85" height="70.37"/><rect class="g" x="864.43" y="373.73" width="69.32" height="4.63"/><rect class="d" x="864.43" y="383.65" width="79.08" height="3.47"/><rect class="d" x="864.1" y="391.76" width="69.05" height="3.48"/><rect class="g" x="863.3" y="405.45" width="45.2" height="12.36"/><rect class="h" x="873.53" y="409.89" width="24.75" height="3.48"/></g><path class="m" d="M664.66,240.95h-4v-3h4Zm-8,0h-4v-3h4Zm-8,0h-4v-3h4Zm-8,0h-4v-3h4Zm-8,0h-4v-3h4Zm-8,0h-4v-3h4Zm-8,0h-4v-3h4Zm-8,0h-4v-3h4Zm-8,0h-4v-3h4Zm-8,0h-4v-3h4Zm-8,0h-4v-3h4Zm-8,0h-4v-3h4Zm-8,0h-4v-3h4Zm-8,0h-4v-3h4Zm-8,0h-4v-3h4Zm-8,0h-4v-3h4Zm-8,0h-4v-3h4Zm-8,0h-4v-3h4Zm-8,0h-4v-3h4Zm-8,0h-4v-3h4Zm-8,0h-4v-3h4Zm-8,0h-4v-3h4Zm-8,0h-4v-3h4Zm-8,0h-4v-3h4Zm-8,0h-4v-3h4Zm-8,0h-4v-3h4Zm-8,0h-4v-3h4Zm-8,0h-4v-3h4Zm-8,0h-4v-3h4Zm-8,0h-4v-3h4Zm-8,0h-4v-3h4Zm-8,0h-4v-3h4Zm-8,0h-4v-3h4Zm-8,0h-4v-3h4Zm-8,0h-4v-3h4Zm-8,0h-4v-3h4Zm-8,0h-4v-3h4Zm-8,0h-4v-3h4Zm-8,0h-4v-3h4Zm-8,0h-4v-3h4Zm-8,0h-4v-3h4Zm-8,0h-4v-3h4Zm-8,0h-4v-3h4Zm-8,0h-4v-3h4Zm-8,0h-4v-3h4Zm-8,0h-4v-3h4Zm-8,0a25,25,0,0,1-4.22-.49l.6-2.94a22,22,0,0,0,3.71.44Zm371.83,0-.1-3a22.06,22.06,0,0,0,3.71-.44l.61,2.94A25,25,0,0,1,668.71,240.93Zm-380.13-1.7a24.84,24.84,0,0,1-3.81-1.89l1.56-2.56a21.89,21.89,0,0,0,3.35,1.66Zm388.41,0-1.1-2.79a21.89,21.89,0,0,0,3.34-1.66l1.56,2.56A24.91,24.91,0,0,1,677,239.21Zm-395.65-4.37a25.14,25.14,0,0,1-3-3l2.32-1.9a22.12,22.12,0,0,0,2.6,2.68Zm402.87,0-2-2.26a22.11,22.11,0,0,0,2.6-2.69l2.33,1.89A25.1,25.1,0,0,1,684.22,234.81ZM276,228.29a24.89,24.89,0,0,1-1.77-3.86l2.82-1a21.88,21.88,0,0,0,1.55,3.39Zm413.57,0-2.61-1.47a21.79,21.79,0,0,0,1.55-3.4l2.83,1A24.82,24.82,0,0,1,689.56,228.25Zm-416.42-7.93a25.17,25.17,0,0,1-.37-4.23h3a22.15,22.15,0,0,0,.32,3.72Zm419.25-.05-3-.51a22.14,22.14,0,0,0,.31-3.72l3-.11V216A25.1,25.1,0,0,1,692.39,220.27Zm-416.31-7.91-3-.5a24.82,24.82,0,0,1,1.06-4.11l2.83,1A21.81,21.81,0,0,0,276.08,212.36Zm413.34-.14a21.78,21.78,0,0,0-1-3.61l2.82-1a24.77,24.77,0,0,1,1.09,4.11Zm-410.87-6.88-2.62-1.47a25.05,25.05,0,0,1,2.38-3.51l2.33,1.89A22.06,22.06,0,0,0,278.55,205.34Zm408.35-.12a22,22,0,0,0-2.12-3.08l2.32-1.9a25,25,0,0,1,2.41,3.5Zm-403.66-5.67-2-2.26a25,25,0,0,1,3.42-2.52l1.57,2.56A22,22,0,0,0,283.24,199.56Zm398.93-.09a22,22,0,0,0-3-2.2l1.55-2.57a25.07,25.07,0,0,1,3.44,2.5Zm-392.59-3.8-1.11-2.79a24.81,24.81,0,0,1,4.07-1.23l.62,2.94A21.77,21.77,0,0,0,289.59,195.67Zm386.21-.05a21.78,21.78,0,0,0-3.58-1.05l.6-2.94a24.78,24.78,0,0,1,4.08,1.2Zm-378.93-1.48-.11-3,.92,0h3.13v3h-3.94Zm371.63,0h-4v-3h4Zm-7.95,0h-4v-3h4Zm-8,0h-4v-3h4Zm-8,0h-4v-3h4Zm-8,0h-4v-3h4Zm-8,0h-4v-3h4Zm-8,0h-4v-3h4Zm-8,0h-4v-3h4Zm-8,0h-4v-3h4Zm-8,0h-4v-3h4Zm-8,0h-4v-3h4Zm-8,0h-4v-3h4Zm-8,0h-4v-3h4Zm-8,0h-4v-3h4Zm-8,0h-4v-3h4Zm-8,0h-4v-3h4Zm-8,0h-4v-3h4Zm-8,0h-4v-3h4Zm-8,0h-4v-3h4Zm-8,0h-4v-3h4Zm-8,0h-4v-3h4Zm-8,0h-4v-3h4Zm-8,0h-4v-3h4Zm-8,0h-4v-3h4Zm-8,0h-4v-3h4Zm-8,0h-4v-3h4Zm-8,0h-4v-3h4Zm-8,0h-4v-3h4Zm-8,0h-4v-3h4Zm-8,0h-4v-3h4Zm-8,0h-4v-3h4Zm-8,0h-4v-3h4Zm-8,0h-4v-3h4Zm-8,0h-4v-3h4Zm-8,0h-4v-3h4Zm-8,0h-4v-3h4Zm-8,0h-4v-3h4Zm-8,0h-4v-3h4Zm-8,0h-4v-3h4Zm-8,0h-4v-3h4Zm-8,0h-4v-3h4Zm-8,0h-4v-3h4Zm-8,0h-4v-3h4Zm-8,0h-4v-3h4Zm-8,0h-4v-3h4Zm-8,0h-4v-3h4Z"/><path class="m" d="M669.06,221.92a7.18,7.18,0,1,1,7.18-7.18A7.19,7.19,0,0,1,669.06,221.92Zm0-11.35a4.18,4.18,0,1,0,4.18,4.18A4.18,4.18,0,0,0,669.06,210.57Z"/><rect class="m" x="667.56" y="202.48" width="3" height="5.37"/><rect class="m" x="667.56" y="221.64" width="3" height="5.37"/><rect class="m" x="659.26" y="207.27" width="3" height="5.37" transform="translate(148.57 677.22) rotate(-60)"/><rect class="m" x="675.86" y="216.85" width="3" height="5.37" transform="translate(148.57 696.39) rotate(-60)"/><rect class="m" x="658.08" y="218.03" width="5.37" height="3" transform="translate(-21.23 359.84) rotate(-30)"/><rect class="m" x="674.68" y="208.45" width="5.37" height="3" transform="translate(-14.22 366.85) rotate(-30)"/><path class="g" d="M333.94,262.92l11.57-11.57-9.43-11.15a44.32,44.32,0,0,0,6.45-14.57l15-1.25V208L343,206.81A44.35,44.35,0,0,0,337.24,192L347,180.47,335.39,168.9l-11.14,9.43a44.28,44.28,0,0,0-14.57-6.45l-1.25-15H292.07l-1.21,14.54A44.3,44.3,0,0,0,276,177.17l-11.49-9.72L252.93,179l9.43,11.14a44.24,44.24,0,0,0-6.45,14.57l-15,1.25v16.37l14.54,1.21a44.29,44.29,0,0,0,5.75,14.86l-9.72,11.49,11.57,11.57L274.2,252a44.34,44.34,0,0,0,14.57,6.45l1.25,15h16.37L307.6,259a44.3,44.3,0,0,0,14.86-5.75ZM286.39,228a18.15,18.15,0,1,1,25.67,0A18.15,18.15,0,0,1,286.39,228Z"/><path class="h" d="M813.19,303.76l-.05-3c1.29,0,2.6-.1,3.87-.22l.29,3C815.95,303.66,814.56,303.74,813.19,303.76Zm-4.11-.08L808,303.6c-1-.08-2-.19-3-.32l.41-3c.93.13,1.88.23,2.81.31l1.05.07Zm12.3-.7-.52-3c1.27-.22,2.55-.5,3.79-.82l.75,2.9C824.08,302.44,822.73,302.74,821.38,303Zm-20.45-.41c-1.34-.29-2.68-.64-4-1l.86-2.87c1.23.37,2.5.7,3.76,1Zm28.41-1.65-1-2.84c1.22-.42,2.44-.89,3.62-1.41l1.2,2.75C831.92,300,830.63,300.47,829.34,300.92ZM793,300.19c-1.28-.5-2.55-1-3.78-1.64l1.3-2.7c1.16.56,2.36,1.08,3.56,1.55Zm43.83-2.55L835.47,295c1.14-.6,2.26-1.26,3.35-2l1.61,2.53C839.28,296.31,838.08,297,836.88,297.64Zm-51.24-1q-.78-.45-1.54-.93l1.6-2.54q.71.45,1.45.88Zm58.18-3.39-1.8-2.4c1-.77,2-1.6,3-2.45l2,2.25C846,291.54,844.91,292.41,843.82,293.23ZM850,287.8l-2.15-2.09c.9-.92,1.77-1.89,2.6-2.88l2.31,1.92C851.87,285.8,850.95,286.82,850,287.8Zm5.26-6.32-2.45-1.73c.75-1.06,1.46-2.15,2.12-3.25l2.58,1.54C856.81,279.2,856.05,280.36,855.26,281.48Zm4.22-7.06-2.69-1.33c.57-1.15,1.1-2.35,1.58-3.54l2.79,1.12C860.65,271.93,860.08,273.19,859.48,274.42Zm3.06-7.64-2.86-.89c.38-1.23.72-2.49,1-3.75l2.92.67C863.3,264.14,862.94,265.48,862.54,266.78Zm1.83-8-3-.44c.16-1.1.29-2.23.38-3.34l0-.52,3,.21,0,.55C864.67,256.4,864.54,257.59,864.37,258.76Zm-2.43-8.18c0-1.29-.07-2.59-.18-3.88l3-.26c.12,1.36.18,2.74.19,4.11Zm-.66-7.73c-.21-1.27-.47-2.55-.78-3.8l2.91-.72c.33,1.32.61,2.68.83,4Zm-1.86-7.52c-.41-1.22-.87-2.44-1.37-3.63l2.76-1.17c.53,1.26,1,2.55,1.45,3.85Zm-3-7.14c-.59-1.14-1.24-2.28-1.92-3.38l2.55-1.58c.72,1.16,1.4,2.36,2,3.58Zm-4.09-6.59c-.76-1-1.57-2.06-2.41-3l2.27-2c.89,1,1.75,2.12,2.56,3.22Zm-5.06-5.88c-.91-.91-1.88-1.8-2.86-2.63l1.95-2.28c1,.89,2.06,1.82,3,2.79Zm-5.91-5c-1-.76-2.13-1.48-3.23-2.15l1.57-2.56c1.16.71,2.32,1.48,3.42,2.28Zm-6.62-4c-1.15-.59-2.34-1.13-3.53-1.62l1.15-2.77c1.26.52,2.52,1.1,3.74,1.72Zm-7.17-3c-1.22-.4-2.48-.75-3.73-1l.7-2.92c1.33.32,2.66.69,4,1.11ZM820,201.86c-1.27-.2-2.57-.36-3.85-.46l.24-3c1.36.11,2.74.27,4.08.49Z"/><path class="h" d="M661,232.73a18.21,18.21,0,0,1-3.79-2.13l1.77-2.42a15.2,15.2,0,0,0,3.16,1.78Zm-7-5.1a18.36,18.36,0,0,1-2.39-3.63l2.68-1.34a15.33,15.33,0,0,0,2,3Zm-3.86-7.72a18.25,18.25,0,0,1-.45-4v-.28l3,0v.24a15.22,15.22,0,0,0,.38,3.38Zm3-7.88-2.91-.75a18.15,18.15,0,0,1,1.58-4.05l2.64,1.42A15.16,15.16,0,0,0,653.25,212Zm3.41-6.36-2.23-2a18.41,18.41,0,0,1,3.26-2.87l1.7,2.47A15.42,15.42,0,0,0,656.66,205.67Zm5.95-4.09-1.07-2.8a18.14,18.14,0,0,1,4.22-1.05l.37,3A15.18,15.18,0,0,0,662.6,201.58Z"/><path class="h" d="M818.92,201.6l-3.74,0,0-3,3.74,0Zm-7.74,0-4,0,0-3,4,0Zm-8,0-4,0,0-3,4,0Zm-8,0-4,0,0-3,4,0Zm-8,0-4,0,0-3,4,0Zm-8,0-4,0,0-3,4,0Zm-8,0-4,0,0-3,4,0Zm-8,0-4,0,0-3,4,0Zm-8,0-4,0,0-3,4,0Zm-8,0-4,0,0-3,4,0Zm-8,0-4,0,0-3,4,0Zm-8,0-4,0,0-3,4,0Zm-8,0-4,0,0-3,4,0Zm-8,0-4,0,0-3,4,0Zm-8,0-4,0,0-3,4,0Zm-8,0-4,0,0-3,4,0Zm-8,0-4,0,0-3,4,0Zm-8,0-4,0,0-3,4,0Zm-8,0-4,0,0-3,4,0Z"/><path class="h" d="M785.67,296.79,782.11,295l1.37-2.67,3.56,1.83Zm-7.11-3.66L775,291.3l1.37-2.67,3.56,1.83Zm-7.11-3.66-3.56-1.83,1.37-2.67,3.56,1.83Zm-7.11-3.66L760.77,284l1.37-2.67,3.56,1.83Zm-7.11-3.66-3.56-1.83,1.37-2.67,3.56,1.83Zm-7.11-3.66-3.56-1.83,1.37-2.67,3.56,1.83ZM743,274.82,739.44,273l1.37-2.67,3.56,1.83Zm-7.11-3.66-3.56-1.83,1.37-2.67,3.56,1.83Zm-7.11-3.66-3.56-1.83,1.37-2.67,3.56,1.83Zm-7.11-3.66L718.1,262l1.37-2.67,3.56,1.83Zm-7.11-3.66L711,258.33l1.37-2.67,3.56,1.83Zm-7.11-3.66-3.56-1.83,1.37-2.67,3.56,1.83Zm-7.11-3.66L696.76,251l1.37-2.67,3.56,1.83Zm-7.11-3.66-3.56-1.83,1.37-2.67,3.56,1.83Zm-7.11-3.66-3.56-1.83,1.37-2.67,3.56,1.83ZM679,241.85,675.43,240l1.37-2.67,3.56,1.83Zm-7.11-3.66-3.56-1.83,1.37-2.67,3.56,1.83Zm-7.11-3.66-2.56-1.32,1.37-2.67,2.56,1.32Z"/><rect class="h" x="307.45" y="283.97" width="2" height="3"/><path class="h" d="M411.84,353.64h-1.76v-3h1.76c.72,0,1.44,0,2.16-.07l.2,3C413.42,353.61,412.63,353.64,411.84,353.64Zm-5.78,0h-4v-3h4Zm-8,0h-4v-3h4Zm-8,0h-4v-3h4Zm-8,0h-4v-3h4Zm-8,0h-4v-3h4Zm-8,0h-4v-3h4Zm-8,0h-4v-3h4Zm-8,0h-4v-3h4Zm-8,0h-4v-3h4Zm-8,0h-4v-3h4Zm-8,0h-4v-3h4Zm-8,0h-4v-3h4Zm-8,0h-4v-3h4Zm-8,0h-4v-3h4Zm-8,0h-4v-3h4Zm-8,0h-4v-3h4Zm-8,0h-4v-3h4Zm-8,0h-4v-3h4Zm-8,0h-4v-3h4Zm-8,0h-4v-3h4Zm-8,0h-4v-3h4Zm-8,0h-4v-3h4Zm-8,0h-4v-3h4Zm-8,0h-4v-3h4Zm-8,0h-4v-3h4Zm-8,0h-4v-3h4Zm-8,0h-4v-3h4Zm-8,0h-4v-3h4Zm-8,0h-4v-3h4Zm-8,0h-4v-3h4Zm-8,0h-4v-3h4Zm-8,0h-4v-3h4Zm-8,0h-4v-3h4ZM418.36,353l-.56-2.95a31.8,31.8,0,0,0,3.72-.94l.91,2.86A34.81,34.81,0,0,1,418.36,353Zm8-2.54-1.25-2.73a31.92,31.92,0,0,0,3.38-1.8l1.57,2.56A34.9,34.9,0,0,1,426.34,350.48Zm7.13-4.38-1.87-2.35a32.24,32.24,0,0,0,2.86-2.56l2.13,2.11A35.21,35.21,0,0,1,433.48,346.1Zm5.89-5.95L437,338.31a32,32,0,0,0,2.17-3.16l2.57,1.54A35.12,35.12,0,0,1,439.37,340.15Zm4.31-7.18-2.74-1.22a31.71,31.71,0,0,0,1.35-3.59l2.87.88A34.72,34.72,0,0,1,443.67,333Zm2.46-8-3-.53a32,32,0,0,0,.45-3.81l3,.17A35,35,0,0,1,446.13,325Zm-2.52-8.17a32,32,0,0,0-.47-3.8l3-.54a35,35,0,0,1,.51,4.16Zm-1.39-7.52a31.74,31.74,0,0,0-1.37-3.58l2.73-1.24a34.74,34.74,0,0,1,1.5,3.92Zm-3.16-7a32,32,0,0,0-2.18-3.15l2.36-1.85a35,35,0,0,1,2.39,3.45Zm-4.73-6a32.09,32.09,0,0,0-2.87-2.54l1.85-2.36a35.14,35.14,0,0,1,3.14,2.78Zm-6-4.72a31.94,31.94,0,0,0-3.39-1.79l1.23-2.73a35,35,0,0,1,3.71,2Zm-7-3.15a31.71,31.71,0,0,0-3.72-.92l.54-3a34.65,34.65,0,0,1,4.07,1ZM413.81,287q-1-.06-2-.06h-2v-3h2q1.08,0,2.15.07Zm-7.94-.06h-4v-3h4Zm-8,0h-4v-3h4Zm-8,0h-4v-3h4Zm-8,0h-4v-3h4Zm-8,0h-4v-3h4Zm-8,0h-4v-3h4Zm-8,0h-4v-3h4Zm-8,0h-4v-3h4Zm-8,0h-4v-3h4Zm-8,0h-4v-3h4Zm-8,0h-4v-3h4Zm-8,0h-4v-3h4Z"/><rect class="h" x="138.84" y="350.64" width="2" height="3"/><rect class="h" x="305.45" y="283.93" width="2" height="3"/><path class="h" d="M301.25,286.93H297v-3h4.21Zm-8.41,0h-4.21v-3h4.21Zm-8.41,0h-4.21v-3h4.21Zm-8.86-.76a11.93,11.93,0,0,1-4-2.53l2.06-2.18a9,9,0,0,0,3,1.9Zm-6.8-6.43a11.94,11.94,0,0,1-1-4.67l3,0a9,9,0,0,0,.75,3.5Zm2.66-8.22-2.78-1.13a11.94,11.94,0,0,1,2.65-4l2.11,2.13A9,9,0,0,0,271.43,271.52Zm5-5-1.12-2.78a12,12,0,0,1,4.49-.87H280v3h-.18A9,9,0,0,0,276.41,266.57Zm12-.65h-4.21v-3h4.21Z"/><rect class="h" x="292.59" y="262.92" width="2" height="3"/><rect class="n" x="737.17" y="72.14" width="168.3" height="113.05"/><rect class="d" x="754.25" y="89.23" width="36.02" height="32.12"/><rect class="d" x="803.31" y="89.23" width="36.02" height="32.12"/><rect class="d" x="852.36" y="89.23" width="36.02" height="32.12"/><rect class="d" x="754.25" y="136.29" width="36.02" height="32.12"/><rect class="d" x="803.31" y="136.29" width="36.02" height="32.12"/><rect class="d" x="852.36" y="136.29" width="36.02" height="32.12"/><rect class="d" x="737.17" y="56.19" width="168.3" height="16.23"/><rect class="m" x="743.15" y="62.67" width="5.28" height="3"/><rect class="m" x="752.29" y="62.67" width="5.28" height="3"/><rect class="m" x="761.43" y="62.67" width="5.29" height="3"/><path class="g" d="M271.56,121l29,21.09A34.4,34.4,0,0,0,307.44,121Z"/><path class="o" d="M271.56,121,307,126.84a38.53,38.53,0,0,0,.44-5.88Z"/><path class="p" d="M271.56,121h35.87a35.88,35.88,0,1,0-35.87,35.88,34.8,34.8,0,0,0,29-14.79Z"/><path class="h" d="M271.56,121,260.47,86.84a35.89,35.89,0,0,1,45.22,23A34.22,34.22,0,0,1,307.44,121Z"/><path class="g" d="M84.11,320.4V431.5a2.75,2.75,0,0,0,2.75,2.75H331.41a2.75,2.75,0,0,0,2.75-2.75V320.4Z"/><path class="d" d="M84.11,317.4V428.5a2.75,2.75,0,0,0,2.75,2.75H331.41a2.75,2.75,0,0,0,2.75-2.75V317.4Z"/><path class="q" d="M88.93,342.44a.83.83,0,0,1-.83-.83v-6.09a.83.83,0,0,1,.83-.83h12.78a.83.83,0,0,1,.82.83v6.09a.82.82,0,0,1-.82.83Z"/><path class="q" d="M106.44,342.44a.82.82,0,0,1-.83-.83v-6.09a.83.83,0,0,1,.83-.83h12.78a.83.83,0,0,1,.82.83v6.09a.83.83,0,0,1-.82.83Z"/><path class="q" d="M124,342.44a.82.82,0,0,1-.82-.83v-6.09a.82.82,0,0,1,.82-.83h12.78a.83.83,0,0,1,.83.83v6.09a.83.83,0,0,1-.83.83Z"/><path class="q" d="M141.46,342.44a.82.82,0,0,1-.82-.83v-6.09a.83.83,0,0,1,.82-.83h12.78a.83.83,0,0,1,.83.83v6.09a.83.83,0,0,1-.83.83Z"/><path class="q" d="M159,342.44a.83.83,0,0,1-.83-.83v-6.09a.83.83,0,0,1,.83-.83h12.79a.83.83,0,0,1,.82.83v6.09a.83.83,0,0,1-.82.83Z"/><path class="q" d="M176.48,342.44a.82.82,0,0,1-.83-.83v-6.09a.83.83,0,0,1,.83-.83h12.78a.83.83,0,0,1,.82.83v6.09a.82.82,0,0,1-.82.83Z"/><rect class="q" x="193.17" y="334.7" width="14.43" height="7.75" rx="0.83" ry="0.83"/><rect class="q" x="210.68" y="334.7" width="14.44" height="7.75" rx="0.83" ry="0.83"/><rect class="q" x="228.19" y="334.7" width="14.43" height="7.75" rx="0.83" ry="0.83"/><path class="q" d="M246.52,342.44a.83.83,0,0,1-.82-.83v-6.09a.83.83,0,0,1,.82-.83h12.79a.83.83,0,0,1,.82.83v6.09a.83.83,0,0,1-.82.83Z"/><path class="q" d="M264,342.44a.83.83,0,0,1-.82-.83v-6.09a.83.83,0,0,1,.82-.83h12.79a.83.83,0,0,1,.82.83v6.09a.83.83,0,0,1-.82.83Z"/><rect class="q" x="280.72" y="334.7" width="14.43" height="7.75" rx="0.83" ry="0.83"/><path class="q" d="M299,342.44a.82.82,0,0,1-.82-.83v-6.09a.83.83,0,0,1,.82-.83h12.79a.83.83,0,0,1,.82.83v6.09a.82.82,0,0,1-.82.83Z"/><path class="q" d="M316.56,342.44a.83.83,0,0,1-.82-.83v-6.09a.83.83,0,0,1,.82-.83h12.78a.83.83,0,0,1,.83.83v6.09a.83.83,0,0,1-.83.83Z"/><rect class="q" x="88.11" y="345.89" width="13.63" height="13.22" rx="0.83" ry="0.83"/><path class="q" d="M105.86,345.89h12a.82.82,0,0,1,.82.82v11.57a.83.83,0,0,1-.83.83h-12a.83.83,0,0,1-.83-.83V346.71A.82.82,0,0,1,105.86,345.89Z"/><path class="q" d="M122.8,345.89h12a.83.83,0,0,1,.83.83v11.57a.82.82,0,0,1-.82.82h-12a.83.83,0,0,1-.83-.83V346.72A.83.83,0,0,1,122.8,345.89Z"/><rect class="q" x="138.9" y="345.89" width="13.62" height="13.22" rx="0.83" ry="0.83"/><rect class="q" x="155.83" y="345.89" width="13.63" height="13.22" rx="0.83" ry="0.83"/><path class="q" d="M173.59,359.11a.83.83,0,0,1-.82-.83V346.72a.83.83,0,0,1,.82-.83h12a.83.83,0,0,1,.83.83v11.57a.83.83,0,0,1-.83.83Z"/><path class="q" d="M190.52,359.11a.83.83,0,0,1-.82-.83V346.72a.83.83,0,0,1,.82-.83h12a.83.83,0,0,1,.83.83v11.57a.83.83,0,0,1-.83.83Z"/><path class="q" d="M207.45,359.11a.83.83,0,0,1-.82-.83V346.72a.83.83,0,0,1,.82-.83h12a.83.83,0,0,1,.83.83v11.57a.83.83,0,0,1-.83.83Z"/><path class="q" d="M224.38,359.11a.83.83,0,0,1-.82-.83V346.72a.83.83,0,0,1,.82-.83h12a.83.83,0,0,1,.82.83v11.57a.83.83,0,0,1-.82.83Z"/><path class="q" d="M241.31,359.11a.83.83,0,0,1-.83-.83V346.72a.83.83,0,0,1,.83-.83h12a.83.83,0,0,1,.82.83v11.57a.83.83,0,0,1-.82.83Z"/><rect class="q" x="257.42" y="345.89" width="13.62" height="13.22" rx="0.83" ry="0.83"/><path class="q" d="M275.17,359.11a.83.83,0,0,1-.82-.83V346.72a.83.83,0,0,1,.82-.83h12a.83.83,0,0,1,.82.83v11.57a.83.83,0,0,1-.82.83Z"/><path class="q" d="M292.1,359.11a.83.83,0,0,1-.82-.83V346.72a.83.83,0,0,1,.82-.83h12a.83.83,0,0,1,.82.83v11.57a.82.82,0,0,1-.82.83Z"/><rect class="q" x="308.21" y="345.89" width="21.96" height="13.22" rx="0.83" ry="0.83"/><rect class="q" x="88.11" y="362.07" width="22.48" height="13.22" rx="0.83" ry="0.83"/><path class="q" d="M114.38,362.07h12a.83.83,0,0,1,.83.83v11.57a.82.82,0,0,1-.82.82h-12a.83.83,0,0,1-.83-.83V362.9A.83.83,0,0,1,114.38,362.07Z"/><path class="q" d="M131.28,375.29a.83.83,0,0,1-.83-.83V362.9a.83.83,0,0,1,.83-.83h12a.83.83,0,0,1,.83.83v11.57a.83.83,0,0,1-.83.83Z"/><path class="q" d="M148.19,375.29a.83.83,0,0,1-.83-.83V362.9a.83.83,0,0,1,.83-.83h12a.82.82,0,0,1,.82.83v11.57a.82.82,0,0,1-.82.83Z"/><path class="q" d="M165.09,375.29a.82.82,0,0,1-.82-.83V362.9a.82.82,0,0,1,.82-.83h12a.83.83,0,0,1,.82.83v11.57a.83.83,0,0,1-.82.83Z"/><path class="q" d="M182,375.29a.83.83,0,0,1-.83-.83V362.9a.83.83,0,0,1,.83-.83h12a.82.82,0,0,1,.82.83v11.57a.82.82,0,0,1-.82.83Z"/><rect class="q" x="198.06" y="362.07" width="13.63" height="13.22" rx="0.83" ry="0.83"/><path class="q" d="M215.79,362.07h12a.83.83,0,0,1,.83.83v11.57a.82.82,0,0,1-.82.82h-12a.83.83,0,0,1-.83-.83V362.9A.83.83,0,0,1,215.79,362.07Z"/><path class="q" d="M232.7,362.07h12a.83.83,0,0,1,.83.83v11.57a.82.82,0,0,1-.82.82h-12a.83.83,0,0,1-.83-.83V362.9A.82.82,0,0,1,232.7,362.07Z"/><rect class="q" x="248.78" y="362.07" width="13.63" height="13.22" rx="0.83" ry="0.83"/><rect class="q" x="282.57" y="362.07" width="13.63" height="13.22" rx="0.83" ry="0.83"/><path class="q" d="M266.51,362.07h12a.83.83,0,0,1,.83.83v11.57a.82.82,0,0,1-.82.82h-12a.83.83,0,0,1-.83-.83V362.9A.83.83,0,0,1,266.51,362.07Z"/><path class="q" d="M300.31,375.29a.82.82,0,0,1-.82-.83V362.9a.82.82,0,0,1,.82-.83h12a.83.83,0,0,1,.83.83v11.57a.83.83,0,0,1-.83.83Z"/><path class="q" d="M88.93,392.12a.82.82,0,0,1-.83-.82V379.73a.83.83,0,0,1,.83-.83h24.92a.83.83,0,0,1,.83.83V391.3a.83.83,0,0,1-.83.82Z"/><path class="q" d="M119.12,392.12a.82.82,0,0,1-.82-.82V379.73a.83.83,0,0,1,.82-.83h12a.83.83,0,0,1,.83.83V391.3a.82.82,0,0,1-.83.82Z"/><path class="q" d="M136,392.12a.82.82,0,0,1-.82-.82V379.73a.83.83,0,0,1,.82-.83h12a.82.82,0,0,1,.82.83V391.3a.82.82,0,0,1-.82.82Z"/><path class="q" d="M152.81,392.12a.82.82,0,0,1-.82-.82V379.73a.83.83,0,0,1,.82-.83h12a.83.83,0,0,1,.83.83V391.3a.82.82,0,0,1-.83.82Z"/><path class="q" d="M169.65,392.12a.82.82,0,0,1-.82-.82V379.73a.83.83,0,0,1,.82-.83h12a.83.83,0,0,1,.83.83V391.3a.83.83,0,0,1-.83.82Z"/><path class="q" d="M186.5,392.12a.82.82,0,0,1-.82-.82V379.73a.83.83,0,0,1,.82-.83h12a.83.83,0,0,1,.82.83V391.3a.82.82,0,0,1-.82.82Z"/><path class="q" d="M203.34,392.12a.82.82,0,0,1-.82-.82V379.73a.83.83,0,0,1,.82-.83h12a.82.82,0,0,1,.82.83V391.3a.82.82,0,0,1-.82.82Z"/><path class="q" d="M220.19,392.12a.82.82,0,0,1-.83-.82V379.73a.83.83,0,0,1,.83-.83h12a.83.83,0,0,1,.82.83V391.3a.82.82,0,0,1-.82.82Z"/><path class="q" d="M237,392.12a.82.82,0,0,1-.82-.82V379.73a.82.82,0,0,1,.82-.83h12a.83.83,0,0,1,.82.83V391.3a.82.82,0,0,1-.82.82Z"/><path class="q" d="M253.88,392.12a.82.82,0,0,1-.83-.82V379.73a.83.83,0,0,1,.83-.83h12a.83.83,0,0,1,.83.83V391.3a.82.82,0,0,1-.83.82Z"/><path class="q" d="M270.72,392.12a.82.82,0,0,1-.82-.82V379.73a.83.83,0,0,1,.82-.83h12a.83.83,0,0,1,.83.83V391.3a.82.82,0,0,1-.83.82Z"/><path class="q" d="M287.56,392.12a.82.82,0,0,1-.83-.82V379.73a.83.83,0,0,1,.83-.83h12a.83.83,0,0,1,.82.83V391.3a.82.82,0,0,1-.82.82Z"/><path class="q" d="M304.4,392.12a.82.82,0,0,1-.82-.82V379.73a.83.83,0,0,1,.82-.83h12a.83.83,0,0,1,.82.83V391.3a.82.82,0,0,1-.82.82Z"/><path class="q" d="M321.77,392.12a.82.82,0,0,1-.83-.82V377.22a1.93,1.93,0,0,0-1.93-1.92h-1.78a.83.83,0,0,1-.83-.83V362.9a.83.83,0,0,1,.83-.83h12.1a.83.83,0,0,1,.83.83v28.4a.83.83,0,0,1-.83.82Z"/><path class="q" d="M88.93,409a.82.82,0,0,1-.83-.83V396.56a.83.83,0,0,1,.83-.83h15.64a.82.82,0,0,1,.82.83v11.57a.82.82,0,0,1-.82.83Z"/><rect class="q" x="109.45" y="395.73" width="13.63" height="13.22" rx="0.83" ry="0.83"/><path class="q" d="M127.17,395.73h12a.83.83,0,0,1,.83.83v11.57a.83.83,0,0,1-.83.83h-12a.83.83,0,0,1-.83-.83V396.56A.82.82,0,0,1,127.17,395.73Z"/><path class="q" d="M144.05,395.73h12a.83.83,0,0,1,.83.83v11.57a.83.83,0,0,1-.83.83h-12a.83.83,0,0,1-.83-.83V396.56A.82.82,0,0,1,144.05,395.73Z"/><path class="q" d="M160.95,395.73h12a.83.83,0,0,1,.83.83v11.57a.83.83,0,0,1-.83.83h-12a.83.83,0,0,1-.83-.83V396.56A.82.82,0,0,1,160.95,395.73Z"/><path class="q" d="M177.83,395.73h12a.83.83,0,0,1,.83.83v11.57a.82.82,0,0,1-.82.82h-12a.83.83,0,0,1-.83-.83V396.56A.82.82,0,0,1,177.83,395.73Z"/><path class="q" d="M194.72,409a.82.82,0,0,1-.82-.83V396.56a.82.82,0,0,1,.82-.83h12a.83.83,0,0,1,.83.83v11.57a.83.83,0,0,1-.83.83Z"/><rect class="q" x="210.78" y="395.73" width="13.63" height="13.22" rx="0.83" ry="0.83"/><path class="q" d="M228.5,395.73h12a.83.83,0,0,1,.83.83v11.57a.83.83,0,0,1-.83.83h-12a.83.83,0,0,1-.83-.83V396.56A.82.82,0,0,1,228.5,395.73Z"/><rect class="q" x="244.56" y="395.73" width="13.63" height="13.22" rx="0.83" ry="0.83"/><path class="q" d="M262.27,395.73h12a.83.83,0,0,1,.83.83v11.57a.82.82,0,0,1-.82.82h-12a.83.83,0,0,1-.83-.83V396.56A.83.83,0,0,1,262.27,395.73Z"/><path class="q" d="M279.16,409a.83.83,0,0,1-.82-.83V396.56a.83.83,0,0,1,.82-.83h12a.82.82,0,0,1,.82.83v11.57a.82.82,0,0,1-.82.83Z"/><path class="q" d="M296.31,395.73h33a.83.83,0,0,1,.83.83v11.57a.83.83,0,0,1-.83.83h-33a.83.83,0,0,1-.83-.83V396.56A.82.82,0,0,1,296.31,395.73Z"/><rect class="q" x="88.11" y="412.34" width="13.63" height="14.74" rx="0.83" ry="0.83"/><path class="q" d="M105.86,412.34h12a.82.82,0,0,1,.82.82v13.08a.83.83,0,0,1-.83.83h-12a.83.83,0,0,1-.83-.83V413.17A.82.82,0,0,1,105.86,412.34Z"/><path class="q" d="M122.8,412.34h12a.83.83,0,0,1,.83.83v13.08a.82.82,0,0,1-.82.82h-12a.82.82,0,0,1-.82-.82V413.17A.83.83,0,0,1,122.8,412.34Z"/><rect class="q" x="138.9" y="412.34" width="18.15" height="14.74" rx="0.83" ry="0.83"/><rect class="q" x="244.41" y="412.34" width="18.16" height="14.74" rx="0.83" ry="0.83"/><path class="q" d="M161.08,427.08a.83.83,0,0,1-.83-.83V413.17a.83.83,0,0,1,.83-.83h79.51a.83.83,0,0,1,.82.83v13.08a.82.82,0,0,1-.82.83Z"/><rect class="q" x="265.62" y="412.34" width="13.63" height="14.74" rx="0.83" ry="0.83"/><path class="q" d="M283.48,427.08a.83.83,0,0,1-.82-.83v-5.31a.83.83,0,0,1,.82-.82h12a.83.83,0,0,1,.82.82v5.31a.83.83,0,0,1-.82.83Z"/><path class="q" d="M300.52,412.34h12a.82.82,0,0,1,.82.82v13.08a.83.83,0,0,1-.83.83h-12a.83.83,0,0,1-.83-.83V413.17A.83.83,0,0,1,300.52,412.34Z"/><path class="q" d="M317.37,427.08a.83.83,0,0,1-.83-.83v-5.31a.83.83,0,0,1,.83-.82h12a.83.83,0,0,1,.83.82v5.31a.83.83,0,0,1-.83.83Z"/><path class="r" d="M230.15,182.2c0-2.38-.12-4.72-.31-7l.11.62,11-2.91-2.56-14.51-11.34,1a86,86,0,0,0-4.77-13.15l.22.38,9.38-6.51-7.37-12.76-10.32,4.86a86.9,86.9,0,0,0-9-10.79l.41.35,6.59-9.33L200.92,103l-8,8.1a86.52,86.52,0,0,0-11.9-6.94l.22.08,3-11-13.85-5-4.77,10.33A86.14,86.14,0,0,0,151.78,96h.48l-.95-11.38H136.58L135.63,96a86.32,86.32,0,0,0-13.56,2.32l.2-.07-4.78-10.37-13.85,5,3,11a86.31,86.31,0,0,0-12.16,7l.38-.32-8-8.11L75.52,112l6.58,9.31A87,87,0,0,0,73,132.12l.29-.51L63,126.74,55.61,139.5,65,146a85.88,85.88,0,0,0-4.8,13.11l.07-.41-11.37-1-2.56,14.51,11,2.91c-.19,2.35-.31,4.72-.31,7.12s.12,4.72.31,7.05l-.11-.63-11,2.91L48.75,206l11.34-1a86,86,0,0,0,4.77,13.15l-.22-.38-9.38,6.51L62.63,237l10.32-4.86A86.89,86.89,0,0,0,82,243l-.4-.34L75,252l11.29,9.47,8-8.1a86.13,86.13,0,0,0,11.89,6.94l-.21-.07-3,11,13.85,5,4.77-10.33a86.27,86.27,0,0,0,13.82,2.43h-.49l.95,11.38h14.74l1-11.36a86.32,86.32,0,0,0,13.55-2.32l-.19.07,4.78,10.37,13.85-5-3-11a86.38,86.38,0,0,0,12.15-7l-.37.31,8,8.11,11.29-9.47-6.58-9.31a86.93,86.93,0,0,0,9.08-10.82l-.29.51,10.33,4.87,7.37-12.76-9.36-6.5a86.12,86.12,0,0,0,4.8-13.12l-.07.42,11.37,1,2.56-14.51-11-2.91C230,187,230.15,184.59,230.15,182.2Zm-86.56,65.12a65.12,65.12,0,1,1,65.12-65.12A65.12,65.12,0,0,1,143.59,247.31Z"/><path class="h" d="M163.87,136.17a50.29,50.29,0,1,0,25.75,66.3A50.35,50.35,0,0,0,163.87,136.17Z"/><path class="o" d="M193.38,188.64l-7,5.44-12.61,10.61-.56-10.3L165,195.87l-.92-9.48-5.63,3-1.62-1.26L152,183.3l-1.54,6.59,3.71,3.74L138,209.39l-4.41.7,0-8.51,3.17-12.86-5.77-2.83-.59-5.53,7.31-7.68,5.42,1,2.17,3.35,8,1.41-6-7.87-6.15-4.06.53-2.15,8-.89-.88-5.39,9.1-3,5.86,5.48,13.1,1.47s5.82-.44,12.31-.88A50.36,50.36,0,0,1,193.38,188.64Z"/><path class="o" d="M130.43,133.73l-4.61,3.37-8.2,6.31a.79.79,0,0,0-.29.72l.95,6.51a.86.86,0,0,0,.46.6.77.77,0,0,0,.75-.08l4.63-3.24,2.53,9L112,161.67l-6.2-2.05a.78.78,0,0,0-.81.21l-2.88,3.08a.78.78,0,0,0-.19.72l1.75,6.81-5.12-5.77-.85-3A50.17,50.17,0,0,1,130.43,133.73Z"/><path class="o" d="M104.38,189.41l-.59-9.72,8.45-7.7,7.52,16.8-20,17v-5.85l4.58-10.17A.75.75,0,0,0,104.38,189.41Z"/><path class="o" d="M134,150.64l-.42-13.14c9.18-.52,14.6.84,16.62,1.5l-6.62,9Z"/><circle class="d" cx="393.84" cy="318.19" r="23.06"/><path class="m" d="M393.83,334.21h0a16,16,0,0,1-15.37-20.48l.75-2.59,1.8,2a4.19,4.19,0,1,0,5.2-6.43l-2.34-1.34,2.37-1.28a15.94,15.94,0,0,1,5.9-1.83,16.27,16.27,0,0,1,1.71-.09,16,16,0,0,1,1.68,32A16.21,16.21,0,0,1,393.83,334.21ZM380.9,316.77a13,13,0,0,0,12.93,14.44h0a13.22,13.22,0,0,0,1.39-.07,13,13,0,0,0-1.36-26,13.24,13.24,0,0,0-1.4.07,13,13,0,0,0-2.74.6,7.19,7.19,0,0,1-8.83,10.93Z"/><path class="m" d="M393.84,334.86c-14.2,0-27.23-5.89-34.85-15.75l-.71-.92.71-.92c7.62-9.86,20.65-15.75,34.85-15.75s27.23,5.89,34.85,15.75l.71.92-.71.92C421.08,329,408,334.86,393.84,334.86ZM362.1,318.19c7.15,8.58,18.91,13.67,31.74,13.67s24.6-5.09,31.74-13.67c-7.14-8.58-18.91-13.67-31.74-13.67S369.25,309.61,362.1,318.19Z"/><path class="h" d="M140.89,240.76c-1.37-.07-2.74-.18-4.09-.34l.35-3c1.28.15,2.58.26,3.88.32Zm-8.14-1c-1.34-.26-2.68-.56-4-.91l.77-2.9c1.25.33,2.52.62,3.79.87Zm-7.93-2.11c-1.29-.44-2.58-.94-3.84-1.48l1.18-2.76c1.19.51,2.41,1,3.63,1.4Zm-7.55-3.23c-1.21-.62-2.42-1.3-3.58-2l1.56-2.56c1.1.67,2.25,1.31,3.4,1.9Zm-7-4.27c-1.11-.79-2.21-1.63-3.26-2.5l1.91-2.32c1,.82,2,1.62,3.09,2.37ZM103.92,225c-1-.94-2-1.92-2.87-2.93l2.21-2c.87,1,1.79,1.89,2.73,2.78Zm-5.54-6.06c-.85-1.07-1.66-2.18-2.43-3.3l2.48-1.69c.73,1.07,1.5,2.12,2.31,3.13Zm-4.62-6.77c-.69-1.17-1.34-2.39-1.94-3.61l2.69-1.33c.57,1.16,1.19,2.31,1.84,3.43Zm-3.62-7.36c-.51-1.26-1-2.56-1.41-3.85l2.85-.93c.4,1.23.85,2.46,1.33,3.65ZM87.6,197c-.33-1.32-.61-2.67-.84-4l3-.51c.22,1.27.49,2.55.8,3.81Zm-1.4-8.08c-.14-1.35-.22-2.73-.26-4.09l3-.09c0,1.29.12,2.6.25,3.88ZM89,180.82l-3-.12,0-.4c.06-1.23.16-2.48.29-3.7l3,.33c-.13,1.16-.22,2.34-.28,3.5Zm.86-7.73-3-.54c.25-1.34.54-2.69.89-4l2.9.75C90.34,170.54,90.06,171.82,89.83,173.09Zm1.95-7.53-2.84-1c.43-1.29.92-2.58,1.45-3.84l2.77,1.16C92.65,163.11,92.19,164.34,91.77,165.56Zm3-7.18L92.1,157c.62-1.22,1.28-2.43,2-3.6L96.66,155C96,156.08,95.36,157.23,94.78,158.38Zm4-6.68L96.31,150c.78-1.12,1.61-2.22,2.47-3.28l2.33,1.89C100.3,149.6,99.51,150.65,98.77,151.71Zm4.9-6-2.19-2c.93-1,1.91-2,2.91-2.9l2,2.2C105.48,143.8,104.56,144.72,103.67,145.66Zm5.7-5.29L107.5,138c1.06-.85,2.17-1.68,3.29-2.46L112.5,138C111.43,138.78,110.39,139.56,109.38,140.37Zm6.39-4.43-1.53-2.58c1.17-.69,2.38-1.36,3.6-2l1.34,2.68C118,134.65,116.88,135.28,115.77,135.94Zm55.54-.16c-1.08-.63-2.19-1.23-3.3-1.78l1.33-2.69c1.18.58,2.35,1.22,3.48,1.88Zm-48.59-3.32-1.15-2.77c1.26-.52,2.55-1,3.84-1.44l.95,2.85C125.14,131.5,123.91,132,122.72,132.45Zm41.74-.07c-1.19-.49-2.42-.94-3.65-1.35l.94-2.85c1.3.43,2.59.9,3.85,1.42ZM130.09,130l-.74-2.91c1.32-.34,2.67-.63,4-.87l.53,3C132.62,129.4,131.34,129.68,130.09,130Zm27,0c-1.25-.31-2.53-.59-3.81-.81l.52-3c1.34.24,2.7.53,4,.86Zm-19.32-1.34-.32-3c1.35-.15,2.73-.24,4.09-.29l.11,3C140.33,128.38,139,128.48,137.74,128.61Zm11.66,0c-1-.11-2.08-.19-3.11-.24l-.77,0,.1-3,.82,0c1.09.05,2.19.14,3.28.25Z"/><path class="h" d="M303,236.45l-.89,0,.13-3a17.15,17.15,0,0,0,3.66-.23l.51,3A20,20,0,0,1,303,236.45ZM310.6,235l-1.14-2.77a16.94,16.94,0,0,0,3.22-1.76l1.71,2.46A19.88,19.88,0,0,1,310.6,235Zm7-4.9-2.2-2a17,17,0,0,0,2.18-2.95l2.59,1.52A20,20,0,0,1,317.65,230.05Zm4.33-7.41-2.86-.92a17,17,0,0,0,.73-3.59l3,.28A19.92,19.92,0,0,1,322,222.64Zm-2.18-8.18a16.81,16.81,0,0,0-.84-3.57l2.83-1a19.83,19.83,0,0,1,1,4.2Zm-2.44-6.87a17,17,0,0,0-2.27-2.88l2.14-2.1a20.05,20.05,0,0,1,2.67,3.39Zm-5.1-5.21a16.83,16.83,0,0,0-3.27-1.66l1.06-2.81a19.86,19.86,0,0,1,3.85,2Z"/><path class="h" d="M138.1,240.65l-.08-3,2.15-.06.08,3Zm6.15-.16-.08-3,4-.11.08,3Zm8-.21-.08-3,4-.11.08,3Zm8-.21-.08-3,4-.11.08,3Zm8-.21-.08-3,4-.11.08,3Zm8-.21-.08-3,4-.11.08,3Zm8-.21-.08-3,4-.11.08,3Zm8-.21-.08-3,4-.11.08,3Zm8-.21-.08-3,4-.11.08,3Zm8-.21-.08-3,4-.11.08,3Zm8-.21-.08-3,4-.11.08,3Zm8-.21-.08-3,4-.11.08,3Zm8-.21-.08-3,4-.11.08,3Zm8-.21-.08-3,4-.11.08,3Zm8-.21-.08-3,4-.11.08,3Zm8-.21-.08-3,4-.11.08,3Zm8-.21-.08-3,4-.11.08,3Zm8-.21-.08-3,4-.11.08,3Zm8-.21-.08-3,4-.11.08,3Zm8-.21-.08-3,4-.11.08,3Zm8-.21-.08-3,4-.11.08,3Z"/><path class="h" d="M307.47,200.15l-.39-.18,1.29-2.71.39.18Zm-4-1.9-3.61-1.72,1.29-2.71,3.61,1.72Zm-7.23-3.43-3.61-1.72,1.29-2.71,3.61,1.72ZM289,191.38l-3.61-1.72L286.7,187l3.61,1.72ZM281.8,188l-3.61-1.72,1.29-2.71,3.61,1.72Zm-7.23-3.43L271,182.8l1.29-2.71,3.61,1.72Zm-7.23-3.43-3.61-1.72,1.29-2.71,3.61,1.72Zm-7.23-3.43-3.61-1.72,1.29-2.71,3.61,1.72Zm-7.23-3.43-3.61-1.72,1.29-2.71,3.61,1.72Zm-7.23-3.43-3.61-1.72,1.29-2.71,3.61,1.72Zm-7.23-3.43-3.61-1.72,1.29-2.71,3.61,1.72Zm-7.23-3.43-3.61-1.72,1.29-2.71,3.61,1.72ZM224,160.49l-3.61-1.72,1.29-2.71,3.61,1.72Zm-7.23-3.43-3.61-1.72,1.29-2.71,3.61,1.72Zm-7.23-3.43-3.61-1.72,1.29-2.71,3.61,1.72Zm-7.23-3.43-3.61-1.72,1.29-2.71,3.61,1.72Zm-7.23-3.43L191.47,145l1.29-2.71,3.61,1.72Zm-7.23-3.43-3.61-1.72,1.29-2.71,3.61,1.72Zm-7.23-3.43L177,138.18l1.29-2.71,3.61,1.72Zm-7.23-3.43-3.61-1.72,1.29-2.71,3.61,1.72Z"/><path class="s" d="M299.3,245.47"/><path class="m" d="M299.33,251a35.29,35.29,0,1,1,.06,0Zm0-67.75a32.38,32.38,0,1,0,0,64.75v1.5l.05-1.5a32.38,32.38,0,0,0-.07-64.75Z"/><path class="h" d="M318.32,234.56a26.77,26.77,0,1,1,7.83-18.92A26.66,26.66,0,0,1,318.32,234.56Z"/><path class="m" d="M280.72,215.65h-3a21.61,21.61,0,0,1,21.57-21.59v3a18.61,18.61,0,0,0-18.57,18.59Z"/><rect class="o" x="291.34" y="259" width="15.93" height="39.1"/><path class="h" d="M302.49,292.49v0Z"/><rect class="h" x="300.99" y="270.82" width="3" height="21.66"/><rect class="h" x="292.38" y="259" width="13.84" height="6.78"/><path class="m" d="M290.88,267.28V257.5h16.84v9.78Zm3-6.78v3.78h10.84V260.5Z"/><path class="h" d="M306.22,301.43a9.79,9.79,0,0,1-13.84,0c0-1.11,0-2.21,0-3.32h13.84Q306.22,299.76,306.22,301.43Z"/><path class="m" d="M299.31,305.79a11.22,11.22,0,0,1-8-3.31l-.44-.44V296.6h16.83V302l-.44.44A11.21,11.21,0,0,1,299.31,305.79Zm-5.42-5a8.29,8.29,0,0,0,10.84,0V299.6H293.88Z"/><rect class="m" x="294.22" y="249.51" width="3" height="9.8"/><rect class="m" x="301.38" y="249.76" width="3" height="7.5"/><rect class="m" x="470.9" y="251.34" width="34.48" height="3"/><rect class="m" x="470.9" y="259.23" width="34.48" height="3"/><rect class="h" x="459.05" y="250.75" width="7.65" height="7.65"/><rect class="o" x="459.67" y="297.81" width="71.12" height="24.41"/><rect class="m" x="477.18" y="308.51" width="36.09" height="3"/><rect class="h" x="510.71" y="250.59" width="20.87" height="12.38"/><rect class="m" x="515.85" y="255.28" width="10.59" height="3"/><rect class="m" x="470.9" y="276.82" width="34.48" height="3"/><rect class="m" x="470.9" y="284.71" width="34.48" height="3"/><rect class="h" x="459.05" y="276.22" width="7.65" height="7.65"/><rect class="h" x="510.71" y="276.07" width="20.87" height="12.38"/><rect class="m" x="515.85" y="280.76" width="10.59" height="3"/><path class="m" d="M541.61,446.08H498.28V429.2a23.18,23.18,0,0,1-9.31-5.39l-.1-.11-23.71-27.59V361h-.09l.13-2.8h5.56a13.81,13.81,0,0,1,11,5.46l0-52.52a9.84,9.84,0,0,1,19.69,0s0,20.35.06,35a9.56,9.56,0,0,1,15.79,4.37,9.56,9.56,0,0,1,15.84,3.16c1.63-1.36,4.08-2.09,7.21-2.09a9.58,9.58,0,0,1,9.56,9.57l.4,8.24V407a23,23,0,0,1-8.72,18.09Zm-40.33-3h37.33V423.62l.6-.45A20,20,0,0,0,547.33,407V369.38l-.4-8.24a6.59,6.59,0,0,0-6.57-6.64c-4.36,0-6.57,1.53-6.57,4.54h-3v-2a6.56,6.56,0,1,0-13.12,0h-3v-4a6.56,6.56,0,1,0-13.13,0v4.51l-3,0h0c0-11-.07-46.44-.07-46.44a6.84,6.84,0,0,0-13.69,0l0,81.5-3,.06-.17-4V372a10.83,10.83,0,0,0-10.82-10.82h-2.6V375l.13,1.26-.13,0V395l22.94,26.69a20.18,20.18,0,0,0,9,4.91l1.14.28Z"/><rect class="t" x="491.23" y="436.17" width="64.08" height="63.83"/><rect class="h" x="378.57" y="157.77" width="6.95" height="7.2"/><rect class="h" x="378.76" y="164.96" width="6.57" height="22.7"/><path class="m" d="M380.54,159.49l0-7.35.19,0a6.81,6.81,0,0,1,4.84-4.9,5.3,5.3,0,0,1,1.22-.14,4.53,4.53,0,0,1,4.55,4.68,6.81,6.81,0,0,1-3.75,5.92v.16Zm3-5.83v2l2.14-.51a3.75,3.75,0,0,0,2.63-3.42,1.57,1.57,0,0,0-2.08-1.64,3.76,3.76,0,0,0-2.71,3.37Z"/><path class="m" d="M383.55,159.49l-7-1.64v-.17a6.81,6.81,0,0,1-3.76-5.92,4.54,4.54,0,0,1,4.55-4.68,5.31,5.31,0,0,1,1.22.14,6.81,6.81,0,0,1,4.82,4.85l.2,0Zm-4.89-4.23,1.91.45v-2.2a3.76,3.76,0,0,0-2.7-3.37,1.58,1.58,0,0,0-2.08,1.64,3.76,3.76,0,0,0,2.64,3.42Z"/><path class="m" d="M402.91,166.46H361.19v-10.2h41.72Zm-38.72-3h35.72v-4.2H364.19Z"/><path class="m" d="M401.72,189.17H362.37v-25.7h39.34Zm-36.34-3h33.34v-19.7H365.37Z"/><rect class="h" x="425.57" y="157.77" width="6.95" height="7.2"/><rect class="h" x="425.76" y="164.96" width="6.57" height="22.7"/><path class="m" d="M427.54,159.49l0-7.35.19,0a6.81,6.81,0,0,1,4.84-4.9,5.3,5.3,0,0,1,1.22-.14,4.53,4.53,0,0,1,4.55,4.68,6.81,6.81,0,0,1-3.75,5.92v.16Zm3-5.83v2l2.14-.51a3.75,3.75,0,0,0,2.63-3.42,1.57,1.57,0,0,0-2.08-1.64,3.76,3.76,0,0,0-2.71,3.37Z"/><path class="m" d="M430.55,159.49l-7-1.64v-.17a6.81,6.81,0,0,1-3.76-5.92,4.54,4.54,0,0,1,4.55-4.68,5.31,5.31,0,0,1,1.22.14,6.81,6.81,0,0,1,4.82,4.85l.2,0Zm-4.89-4.23,1.91.45v-2.2a3.76,3.76,0,0,0-2.7-3.37,1.58,1.58,0,0,0-2.08,1.64,3.76,3.76,0,0,0,2.64,3.42Z"/><path class="m" d="M449.91,166.46H408.19v-10.2h41.72Zm-38.72-3h35.72v-4.2H411.19Z"/><path class="m" d="M448.72,189.17H409.37v-25.7h39.34Zm-36.34-3h33.34v-19.7H412.37Z"/><rect class="h" x="472.57" y="157.77" width="6.95" height="7.2"/><rect class="h" x="472.76" y="164.96" width="6.57" height="22.7"/><path class="m" d="M474.54,159.49l0-7.35.19,0a6.81,6.81,0,0,1,4.84-4.9,5.3,5.3,0,0,1,1.22-.14,4.53,4.53,0,0,1,4.55,4.68,6.81,6.81,0,0,1-3.75,5.92v.16Zm3-5.83v2l2.14-.51a3.75,3.75,0,0,0,2.63-3.42,1.57,1.57,0,0,0-2.08-1.64,3.76,3.76,0,0,0-2.71,3.37Z"/><path class="m" d="M477.55,159.49l-7-1.64v-.17a6.81,6.81,0,0,1-3.76-5.92,4.54,4.54,0,0,1,4.55-4.68,5.31,5.31,0,0,1,1.22.14,6.81,6.81,0,0,1,4.82,4.85l.2,0Zm-4.89-4.23,1.91.45v-2.2a3.76,3.76,0,0,0-2.7-3.37,1.58,1.58,0,0,0-2.08,1.64,3.76,3.76,0,0,0,2.64,3.42Z"/><path class="m" d="M496.91,166.46H455.19v-10.2h41.72Zm-38.72-3h35.72v-4.2H458.19Z"/><path class="m" d="M495.72,189.17H456.37v-25.7h39.34Zm-36.34-3h33.34v-19.7H459.37Z"/><rect class="h" x="519.57" y="157.77" width="6.95" height="7.2"/><rect class="h" x="519.76" y="164.96" width="6.57" height="22.7"/><path class="m" d="M521.54,159.49l0-7.35.19,0a6.81,6.81,0,0,1,4.84-4.9,5.3,5.3,0,0,1,1.22-.14,4.53,4.53,0,0,1,4.55,4.68,6.81,6.81,0,0,1-3.75,5.92v.16Zm3-5.83v2l2.14-.51a3.75,3.75,0,0,0,2.63-3.42,1.57,1.57,0,0,0-2.08-1.64,3.76,3.76,0,0,0-2.71,3.37Z"/><path class="m" d="M524.55,159.49l-7-1.64v-.17a6.81,6.81,0,0,1-3.76-5.92,4.54,4.54,0,0,1,4.55-4.68,5.31,5.31,0,0,1,1.22.14,6.81,6.81,0,0,1,4.82,4.85l.2,0Zm-4.89-4.23,1.91.45v-2.2a3.76,3.76,0,0,0-2.7-3.37,1.58,1.58,0,0,0-2.08,1.64,3.76,3.76,0,0,0,2.64,3.42Z"/><path class="m" d="M543.91,166.46H502.19v-10.2h41.72Zm-38.72-3h35.72v-4.2H505.19Z"/><path class="m" d="M542.72,189.17H503.37v-25.7h39.34Zm-36.34-3h33.34v-19.7H506.37Z"/><rect class="h" x="566.57" y="157.77" width="6.95" height="7.2"/><rect class="h" x="566.76" y="164.96" width="6.57" height="22.7"/><path class="m" d="M568.54,159.49l0-7.35.19,0a6.81,6.81,0,0,1,4.84-4.9,5.3,5.3,0,0,1,1.22-.14,4.53,4.53,0,0,1,4.55,4.68,6.81,6.81,0,0,1-3.75,5.92v.16Zm3-5.83v2l2.14-.51a3.75,3.75,0,0,0,2.63-3.42,1.57,1.57,0,0,0-2.08-1.64,3.76,3.76,0,0,0-2.71,3.37Z"/><path class="m" d="M571.55,159.49l-7-1.64v-.17a6.81,6.81,0,0,1-3.76-5.92,4.54,4.54,0,0,1,4.55-4.68,5.31,5.31,0,0,1,1.22.14,6.81,6.81,0,0,1,4.82,4.85l.2,0Zm-4.89-4.23,1.91.45v-2.2a3.76,3.76,0,0,0-2.7-3.37,1.58,1.58,0,0,0-2.08,1.64,3.76,3.76,0,0,0,2.64,3.42Z"/><path class="m" d="M590.91,166.46H549.19v-10.2h41.72Zm-38.72-3h35.72v-4.2H552.19Z"/><path class="m" d="M589.72,189.17H550.37v-25.7h39.34Zm-36.34-3h33.34v-19.7H553.37Z"/><rect class="h" x="613.57" y="157.77" width="6.95" height="7.2"/><rect class="h" x="613.76" y="164.96" width="6.57" height="22.7"/><path class="m" d="M615.54,159.49l0-7.35.19,0a6.81,6.81,0,0,1,4.84-4.9,5.3,5.3,0,0,1,1.22-.14,4.53,4.53,0,0,1,4.55,4.68,6.81,6.81,0,0,1-3.75,5.92v.16Zm3-5.83v2l2.14-.51a3.75,3.75,0,0,0,2.63-3.42,1.57,1.57,0,0,0-2.08-1.64,3.76,3.76,0,0,0-2.71,3.37Z"/><path class="m" d="M618.55,159.49l-7-1.64v-.17a6.81,6.81,0,0,1-3.76-5.92,4.54,4.54,0,0,1,4.55-4.68,5.31,5.31,0,0,1,1.22.14,6.81,6.81,0,0,1,4.82,4.85l.2,0Zm-4.89-4.23,1.91.45v-2.2a3.76,3.76,0,0,0-2.7-3.37,1.58,1.58,0,0,0-2.08,1.64,3.76,3.76,0,0,0,2.64,3.42Z"/><path class="m" d="M637.91,166.46H596.19v-10.2h41.72Zm-38.72-3h35.72v-4.2H599.19Z"/><path class="m" d="M636.72,189.17H597.37v-25.7h39.34Zm-36.34-3h33.34v-19.7H600.37Z"/><path class="o" d="M424.09,186.17l1.17-13,13-1.17,16.2,16.2-7.09,7.09-7.09,7.09Zm8.3-8.77a2,2,0,1,0,0,2.89A2,2,0,0,0,432.39,177.4Z"/><polygon class="h" points="435.65 190.71 439.17 189.52 442.15 191.74 442.1 188.03 445.13 185.88 441.58 184.78 440.48 181.23 438.34 184.26 434.62 184.22 436.84 187.19 435.65 190.71"/><path class="g" d="M419,120l.83-.83a7.72,7.72,0,0,0,0-10.92l-.11-.12a7.72,7.72,0,0,0-10.92,0l-.83.83-.83-.83a7.72,7.72,0,0,0-10.92,0l-.11.12a7.72,7.72,0,0,0,0,10.92l.83.83,11,11Z"/><rect class="m" x="405.81" y="89.43" width="3" height="5.45"/><rect class="m" x="394.02" y="92.81" width="3" height="5.45" transform="translate(5.21 210.53) rotate(-30)"/><rect class="m" x="385.49" y="101.63" width="3" height="5.45" transform="translate(103.15 387.35) rotate(-60.01)"/><rect class="m" x="381.29" y="114.76" width="5.45" height="3"/><rect class="m" x="384.67" y="126.56" width="5.45" height="3" transform="translate(-12.15 210.76) rotate(-29.99)"/><rect class="m" x="393.49" y="135.08" width="5.45" height="3" transform="translate(79.83 411.43) rotate(-60)"/><rect class="m" x="406.62" y="136.83" width="3" height="5.45"/><rect class="m" x="418.42" y="133.45" width="3" height="5.45" transform="translate(-11.86 228.08) rotate(-29.98)"/><rect class="m" x="426.95" y="124.63" width="3" height="5.45" transform="translate(103.98 434.78) rotate(-60.01)"/><rect class="m" x="428.7" y="113.95" width="5.45" height="3"/><rect class="m" x="425.32" y="102.16" width="5.45" height="3" transform="translate(5.49 227.81) rotate(-29.99)"/><rect class="m" x="416.5" y="93.63" width="5.45" height="3" transform="translate(127.32 410.7) rotate(-60.02)"/><path class="o" d="M624,164.2a22.56,22.56,0,1,1,31.9,0A22.58,22.58,0,0,1,624,164.2Z"/><path class="m" d="M630.53,146.83a1.5,1.5,0,0,1-1.48-1.71l1-6.93-3.32,3.32a1.5,1.5,0,0,1-2.12-2.12l6.5-6.5a1.5,1.5,0,0,1,2.55,1.27l-1,6.93,3.32-3.32a1.5,1.5,0,0,1,2.12,2.12l-6.5,6.5A1.5,1.5,0,0,1,630.53,146.83Z"/><path class="m" d="M637.91,154.21a1.5,1.5,0,0,1-1.06-.44l-4.31-4.31a1.5,1.5,0,0,1,0-2.12l6.5-6.5a1.54,1.54,0,0,1,2.12,0l4.31,4.31a1.5,1.5,0,0,1-2.12,2.12L640.1,144l-4.37,4.37,3.25,3.25a1.5,1.5,0,0,1-1.06,2.56Z"/><path class="m" d="M641.16,151a1.49,1.49,0,0,1-1.06-.44l-4.31-4.31a1.5,1.5,0,0,1,2.12-2.12l4.31,4.31a1.5,1.5,0,0,1-1.06,2.56Z"/><path class="m" d="M646.5,162.8a1.5,1.5,0,0,1-1.38-2.09l1.41-3.29-3.35,1.38a1.5,1.5,0,0,1-2-2l3.91-9.09a1.5,1.5,0,0,1,2.76,1.18l-2.45,5.7,3.35-1.38a1.5,1.5,0,0,1,2,2l-1.38,3.22L655,156a1.5,1.5,0,1,1,1.18,2.76l-9.09,3.91A1.5,1.5,0,0,1,646.5,162.8Z"/><rect class="m" x="659.17" y="125.88" width="5.66" height="3" transform="translate(103.82 505.42) rotate(-45)"/><rect class="m" x="645.91" y="118" width="5.67" height="3" transform="translate(365.44 715.22) rotate(-75)"/><rect class="m" x="631.81" y="116.47" width="3" height="5.66" transform="translate(-9.3 167.92) rotate(-14.99)"/><rect class="m" x="618.35" y="124.02" width="3" height="5.66" transform="translate(91.9 475.52) rotate(-45.01)"/><rect class="m" x="646.51" y="174.25" width="3" height="5.66" transform="translate(-23.75 173.83) rotate(-15.01)"/><rect class="m" x="659.97" y="166.71" width="3" height="5.66" transform="translate(73.84 517.35) rotate(-45)"/><rect class="m" x="667.85" y="153.44" width="3" height="5.66" transform="translate(345.35 762.47) rotate(-75.02)"/><rect class="m" x="666.71" y="139.34" width="5.66" height="3" transform="translate(-13.63 178.18) rotate(-15.01)"/><path class="h" d="M562,128.63h15.68A9.31,9.31,0,0,1,579,124c5.78-7.45,6.15-14.54,6.15-15a15.35,15.35,0,1,0-30.71,0c0,.5.36,7.59,6.15,15A9.2,9.2,0,0,1,562,128.63Z"/><rect class="m" x="562.71" y="111.57" width="3" height="17.15" transform="translate(-12.36 101.96) rotate(-10.21)"/><rect class="m" x="566.84" y="118.65" width="17.15" height="3" transform="translate(355.27 665.19) rotate(-79.8)"/><polygon class="m" points="575.47 115.51 573.52 115.51 572.15 114.34 570.78 115.51 568.83 115.51 567.47 114.34 566.1 115.51 564.15 115.51 561.81 113.51 563.76 111.23 565.13 112.39 566.49 111.23 568.44 111.23 569.81 112.39 571.18 111.22 573.12 111.22 574.5 112.39 575.87 111.22 577.82 113.51 575.47 115.51"/><rect class="m" x="560.95" y="127.31" width="17.73" height="3"/><rect class="m" x="560.95" y="131.97" width="17.73" height="3"/><rect class="m" x="564.02" y="136.64" width="11.6" height="3"/><rect class="m" x="563.8" y="129.01" width="3" height="4.07"/><path class="h" d="M457.5,128.28a2.52,2.52,0,0,0,2.43,2.6h4.7v9.76l11.52-9.76h17.26a2.52,2.52,0,0,0,2.43-2.6V98.76a2.52,2.52,0,0,0-2.43-2.6H459.93a2.52,2.52,0,0,0-2.43,2.6Z"/><path class="m" d="M468.92,113.56a6.09,6.09,0,1,1,6.09-6.09A6.1,6.1,0,0,1,468.92,113.56Zm0-9.19a3.09,3.09,0,1,0,3.09,3.09A3.1,3.1,0,0,0,468.92,104.37Z"/><path class="m" d="M483.71,126a6.09,6.09,0,1,1,6.1-6.09A6.1,6.1,0,0,1,483.71,126Zm0-9.19a3.09,3.09,0,1,0,3.1,3.09A3.1,3.1,0,0,0,483.71,116.8Z"/><rect class="m" x="460.82" y="112.31" width="31.27" height="3" transform="translate(59.07 370.24) rotate(-45)"/><path class="g" d="M855.9,251l-2-12.44-11.2.87a34.17,34.17,0,0,0-6.19-10.59l6-9.92-10.22-7.37-7.31,8.54a34.13,34.13,0,0,0-11.86-3.1l-2.8-11.24-12.44,2,.87,11.2a34.1,34.1,0,0,0-10.59,6.19l-9.92-6-7.37,10.22,8.53,7.31a34.11,34.11,0,0,0-3.1,11.86L765,251.35l2,12.44,11.2-.87a34,34,0,0,0,6.19,10.59l-6,9.92,10.22,7.37,7.31-8.53a34,34,0,0,0,11.86,3.1l2.8,11.24,12.44-2-.87-11.2a34.12,34.12,0,0,0,10.59-6.19l9.92,6L850.09,273l-8.54-7.31a34.13,34.13,0,0,0,3.11-11.86Z"/><rect class="m" x="809.13" y="223.85" width="3" height="5.52"/><rect class="m" x="819.78" y="228.3" width="5.52" height="3" transform="translate(212.32 827.31) rotate(-60.01)"/><rect class="m" x="828.5" y="237.02" width="5.52" height="3" transform="translate(-7.88 447.65) rotate(-30)"/><rect class="m" x="831.69" y="248.94" width="5.52" height="3"/><rect class="m" x="829.76" y="259.59" width="3" height="5.52" transform="translate(188.35 850.98) rotate(-59.99)"/><rect class="m" x="821.04" y="268.31" width="3" height="5.52" transform="translate(-25.36 447.48) rotate(-29.99)"/><rect class="m" x="809.13" y="271.5" width="3" height="5.52"/><rect class="m" x="795.96" y="269.57" width="5.52" height="3" transform="translate(164.57 827.21) rotate(-60)"/><rect class="m" x="787.24" y="260.85" width="5.52" height="3" transform="matrix(0.87, -0.5, 0.5, 0.87, -25.32, 430.21)"/><rect class="m" x="784.05" y="248.94" width="5.52" height="3"/><rect class="m" x="788.5" y="235.76" width="3" height="5.52" transform="translate(188.31 803.29) rotate(-59.99)"/><rect class="m" x="797.22" y="227.04" width="3" height="5.52" transform="translate(-7.99 429.76) rotate(-29.97)"/><polygon class="h" points="810.98 251.11 800.02 244.25 801.61 241.71 810.51 247.28 822.23 235.22 824.38 237.31 810.98 251.11"/><path class="m" d="M777.35,183.67h-51.1c-3.07,0-5.25-.89-6.49-2.65-1.72-2.46-.78-5.63-.6-6.16l1.74-6.45,2.9.78L722,175.81a4.36,4.36,0,0,0,.21,3.5c.8,1.12,2.63,1.36,4,1.36h51.1Z"/><circle class="g" cx="726.84" cy="190.76" r="5.57"/><circle class="g" cx="768.34" cy="190.76" r="5.57"/><path class="m" d="M781.4,166H718.32l-16.88-43.33-2.91-1.09,1.05-2.81,4.17,1.56,1.94,5L785.54,136Zm-61-3h58.42l3.37-24.46-75.22-10Z"/><rect class="m" x="744.76" y="105.82" width="3" height="72.94" transform="translate(522.98 868.45) rotate(-83.7)"/><rect class="m" x="746.35" y="121.37" width="3" height="65.11" transform="translate(551.12 891.67) rotate(-86.7)"/><rect class="m" x="719.35" y="127.44" width="3" height="36.54" transform="translate(-11.47 213.28) rotate(-16.7)"/><rect class="m" x="728.1" y="129.53" width="3" height="34.36" transform="translate(-13.8 181.31) rotate(-14.03)"/><rect class="m" x="736.85" y="130.59" width="3" height="33.24" transform="translate(-14.49 139.5) rotate(-10.69)"/><rect class="m" x="745.55" y="132.58" width="3" height="31.27" transform="translate(-12.96 98.85) rotate(-7.51)"/><rect class="m" x="754.39" y="134.02" width="3" height="29.88" transform="translate(-7.42 44.46) rotate(-3.35)"/><rect class="m" x="749.93" y="147.96" width="29.17" height="3" transform="translate(610.57 913.09) rotate(-89.66)"/><rect class="m" x="759.37" y="148.79" width="27.94" height="3" transform="translate(554.42 907.08) rotate(-84.86)"/><path class="h" d="M689.46,111.92a4.14,4.14,0,0,0-3.14,7.67l12.39,5.07,2.63-7.87Z"/><rect class="h" x="385.68" y="216.34" width="65.04" height="40.65" rx="3.34" ry="3.34"/><path class="h" d="M390.75,239h0Z"/><rect class="m" x="390.75" y="237.51" width="10.59" height="3"/><path class="h" d="M390.75,248.33h0Z"/><rect class="m" x="390.75" y="246.83" width="18.61" height="3"/><path class="h" d="M405.36,239h0Z"/><rect class="m" x="405.36" y="237.51" width="10.59" height="3"/><path class="h" d="M420,239h0Z"/><rect class="m" x="419.98" y="237.51" width="10.59" height="3"/><path class="h" d="M434.59,239h0Z"/><rect class="m" x="434.59" y="237.51" width="10.59" height="3"/><rect class="d" x="388.1" y="224.75" width="60.4" height="7.17"/><path class="m" d="M480.49,217.46l-2.12-2.12a21.91,21.91,0,0,1,30.94,0l-2.12,2.12A18.9,18.9,0,0,0,480.49,217.46Z"/><path class="m" d="M485.43,222.42l-2.12-2.12a14.91,14.91,0,0,1,21.07,0l-2.12,2.12A11.91,11.91,0,0,0,485.43,222.42Z"/><path class="m" d="M490.37,227.19l-2.12-2.12a7.86,7.86,0,0,1,5.59-2.32h0a7.86,7.86,0,0,1,5.59,2.32l-2.12,2.12a4.88,4.88,0,0,0-3.47-1.44h0A4.88,4.88,0,0,0,490.37,227.19Z"/><rect class="h" x="540.38" y="218.81" width="70.46" height="39.73"/><path class="d" d="M551.08,252a6.34,6.34,0,0,0-4.19-4.08V229.32a6.34,6.34,0,0,0,4.15-4h49.11a6.35,6.35,0,0,0,4.16,4v18.61a6.32,6.32,0,0,0-4.19,4.08Z"/><circle class="h" cx="575.61" cy="238.67" r="6.99"/><path class="h" d="M588.52,238.67h0Z"/><rect class="m" x="588.52" y="237.17" width="11.5" height="3"/><path class="h" d="M562.7,238.67h0Z"/><rect class="m" x="551.2" y="237.17" width="11.5" height="3"/><circle class="o" cx="722.17" cy="260.84" r="21.69"/><polygon class="m" points="717.31 268.87 710.53 262.08 712.65 259.96 717.31 264.62 731.52 250.41 733.64 252.53 717.31 268.87"/><rect class="m" x="536.53" y="217.52" width="15.66" height="3"/><rect class="m" x="528.33" y="217.52" width="5.22" height="3"/><rect class="m" x="521.35" y="225.01" width="15.66" height="3"/><rect class="m" x="513.15" y="225.01" width="5.22" height="3"/><polygon class="m" points="463.12 224.82 461 222.7 466.51 217.19 461 211.68 463.12 209.56 470.75 217.19 463.12 224.82"/><rect class="m" x="431.65" y="215.69" width="35.19" height="3"/><polygon class="h" points="694.03 97.33 683.28 96.39 683.55 93.4 691.3 94.08 692 86.32 694.98 86.59 694.03 97.33"/><rect class="m" x="330.2" y="152.65" width="4.35" height="3"/><rect class="m" x="326.45" y="146.66" width="4.35" height="3" transform="translate(36 358.68) rotate(-60)"/><rect class="m" x="320.07" y="146.24" width="3" height="4.35" transform="translate(-31.14 180.56) rotate(-29.98)"/><rect class="m" x="316.08" y="153.16" width="4.35" height="3"/><rect class="m" x="319.83" y="159.14" width="4.35" height="3" transform="translate(21.89 359.19) rotate(-60)"/><rect class="m" x="327.57" y="158.21" width="3" height="4.35" transform="matrix(0.87, -0.5, 0.5, 0.87, -36.11, 185.98)"/><rect class="m" x="716.05" y="110.06" width="12.05" height="3"/><rect class="m" x="720.57" y="105.54" width="3" height="12.05"/><rect class="m" x="802.83" y="69.51" width="12.05" height="3"/><rect class="m" x="807.36" y="64.99" width="3" height="12.05"/><rect class="m" x="760.44" y="103.66" width="21.83" height="3"/><rect class="m" x="769.86" y="94.24" width="3" height="21.84"/><rect class="m" x="696.81" y="69.51" width="18.07" height="3"/><rect class="m" x="704.35" y="61.97" width="3" height="18.07"/><path class="h" d="M525.6,141.88l-3-.09c0-1.36.11-2.72.2-4l3,.21C525.71,139.23,525.64,140.56,525.6,141.88Zm.54-7.86-3-.32c.15-1.35.32-2.7.52-4l3,.44C526.45,131.4,526.28,132.71,526.14,134Zm1.17-7.78-2.95-.57c.26-1.33.55-2.67.86-4l2.92.7C527.84,123.65,527.56,124.95,527.31,126.24Zm1.84-7.64-2.88-.83c.38-1.3.79-2.61,1.22-3.88l2.84,1C529.91,116.08,529.51,117.34,529.15,118.6Zm2.54-7.42-2.79-1.11c.5-1.26,1-2.52,1.59-3.75l2.73,1.24C532.68,108.75,532.16,110,531.68,111.17Zm3.25-7.13-2.66-1.38c.62-1.2,1.28-2.4,2-3.57l2.59,1.52C536.17,101.73,535.53,102.89,534.94,104Zm4-6.76-2.51-1.65c.74-1.13,1.53-2.25,2.33-3.34l2.42,1.78C540.37,95.11,539.61,96.2,538.9,97.28ZM687.73,91.2c-.91-.94-1.85-1.87-2.79-2.78L687,86.25c1,.93,1.95,1.9,2.88,2.86ZM543.54,91l-2.32-1.9c.86-1,1.75-2.08,2.67-3.08l2.22,2C545.23,89,544.37,90,543.54,91ZM682,85.76c-1-.86-2-1.71-3-2.54l1.89-2.33c1,.85,2.09,1.73,3.1,2.61Zm-133.21-.59L546.71,83c1-1,2-1.89,3-2.8l2,2.24C550.71,83.35,549.75,84.26,548.82,85.17Zm127.09-4.35c-1-.78-2.12-1.54-3.21-2.28l1.69-2.48c1.12.76,2.23,1.55,3.3,2.35Zm-121.24-.87-1.88-2.34c1-.85,2.14-1.68,3.23-2.48l1.77,2.43C556.74,78.32,555.69,79.13,554.68,79.94Zm114.73-3.56c-1.1-.69-2.24-1.37-3.38-2l1.49-2.6c1.17.67,2.34,1.37,3.48,2.08ZM561,75.32l-1.65-2.51c1.12-.73,2.28-1.46,3.45-2.15l1.53,2.58C563.22,73.92,562.1,74.62,561,75.32Zm101.56-2.86c-1.16-.6-2.34-1.19-3.53-1.76L660.33,68c1.22.58,2.44,1.19,3.63,1.81Zm-94.8-1.13-1.4-2.65c1.18-.63,2.4-1.24,3.63-1.82l1.28,2.71C570.1,70.14,568.92,70.73,567.78,71.33Zm87.68-2.25c-1.2-.51-2.43-1-3.65-1.48l1.08-2.8c1.26.48,2.53,1,3.76,1.52ZM574.88,68l-1.16-2.77c1.24-.52,2.51-1,3.78-1.49l1,2.81C577.31,67,576.08,67.48,574.88,68Zm73.22-1.72c-1.24-.42-2.5-.83-3.75-1.21l.86-2.87c1.29.39,2.58.8,3.86,1.24Zm-65.85-1-.92-2.86c1.28-.41,2.59-.8,3.88-1.16l.8,2.89C584.75,64.48,583.48,64.86,582.24,65.26ZM640.55,64c-1.27-.33-2.56-.64-3.83-.93l.65-2.93c1.31.29,2.64.61,3.94,1Zm-50.73-.83-.68-2.92c1.3-.31,2.64-.59,4-.84l.57,2.95C592.38,62.58,591.08,62.86,589.82,63.16Zm43-.88c-1.29-.24-2.6-.45-3.89-.64l.44-3c1.33.19,2.67.42,4,.66Zm-35.31-.61-.45-3c1.33-.2,2.68-.38,4-.53l.34,3C600.15,61.3,598.84,61.47,597.54,61.67Zm27.5-.54c-1.31-.14-2.63-.26-3.93-.36l.22-3c1.34.1,2.69.22,4,.37Zm-19.68-.35-.22-3c1.34-.1,2.7-.18,4-.23l.11,3C608,60.61,606.66,60.68,605.36,60.78Zm11.82-.22c-1.29,0-2.6-.07-3.9-.07l0-3h0c1.33,0,2.68,0,4,.07Z"/></svg>