<?xml version="1.0" encoding="utf-8"?>
<!-- Generator: Adobe Illustrator 19.2.1, SVG Export Plug-In . SVG Version: 6.00 Build 0)  -->
<svg version="1.1" id="Layer_1" xmlns="http://www.w3.org/2000/svg" xmlns:xlink="http://www.w3.org/1999/xlink" x="0px" y="0px"
	 viewBox="0 0 1000 500" style="enable-background:new 0 0 1000 500;" xml:space="preserve">
<style type="text/css">
	.st0{fill:url(#SVGID_1_);}
	.st1{display:none;fill:url(#SVGID_2_);}
	.st2{display:none;}
	.st3{display:inline;opacity:0.3;}
	.st4{fill:#4AA7DE;}
	.st5{fill:#FFFFFF;}
	.st6{fill:#F8C44F;}
	.st7{display:inline;fill:#282D33;}
	.st8{display:inline;fill:#FFFFFF;}
	.st9{fill:url(#SVGID_3_);}
	.st10{display:inline;fill:#2E95D1;}
	.st11{display:inline;opacity:0.3;fill:url(#SVGID_4_);enable-background:new    ;}
	.st12{display:inline;opacity:0.3;fill:url(#SVGID_5_);enable-background:new    ;}
	.st13{display:inline;fill:url(#SVGID_6_);}
	.st14{fill:#2E95D1;}
	.st15{fill:#282D33;}
	.st16{display:inline;fill:none;stroke:#282D33;stroke-width:3;}
	.st17{fill:none;}
	.st18{fill:#FFD13D;}
	.st19{fill:#B7BEC0;stroke:#282D33;stroke-width:3;}
	.st20{display:inline;fill:#63BDEA;}
	.st21{opacity:0.75;}
	.st22{fill:url(#SVGID_7_);}
	.st23{opacity:0.2;fill:#FFFFFF;enable-background:new    ;}
	.st24{fill:#FFC400;}
	.st25{opacity:0.5;}
	.st26{fill:url(#SVGID_8_);}
	.st27{fill:url(#SVGID_9_);}
	.st28{fill:url(#SVGID_10_);}
	.st29{fill:url(#SVGID_11_);}
	.st30{fill:url(#SVGID_12_);}
	.st31{fill:url(#SVGID_13_);}
	.st32{fill:url(#SVGID_14_);}
	.st33{fill:url(#SVGID_15_);}
	.st34{fill:url(#SVGID_16_);}
	.st35{fill:url(#SVGID_17_);}
	.st36{fill:url(#SVGID_18_);}
	.st37{fill:url(#SVGID_19_);}
	.st38{fill:url(#SVGID_20_);}
	.st39{fill:url(#SVGID_21_);}
	.st40{fill:url(#SVGID_22_);}
	.st41{fill:url(#SVGID_23_);}
	.st42{fill:url(#SVGID_24_);}
	.st43{fill:url(#SVGID_25_);}
	.st44{fill:url(#SVGID_26_);}
	.st45{opacity:0.3;fill:url(#SVGID_27_);enable-background:new    ;}
	.st46{opacity:0.3;fill:url(#SVGID_28_);enable-background:new    ;}
	.st47{fill:url(#SVGID_29_);}
	.st48{opacity:0.4;fill:url(#SVGID_30_);enable-background:new    ;}
	.st49{opacity:0.3;fill:url(#SVGID_31_);enable-background:new    ;}
	.st50{opacity:0.3;fill:url(#SVGID_32_);enable-background:new    ;}
	.st51{fill:url(#SVGID_33_);}
	.st52{fill:none;stroke:#282D33;stroke-width:3.119;}
	.st53{fill:#136FB7;}
	.st54{fill:#CFEAF9;}
	.st55{fill:url(#SVGID_34_);}
	.st56{fill:url(#SVGID_35_);}
	.st57{fill:url(#SVGID_36_);}
	.st58{fill:#E58D23;}
	.st59{fill:#CCCCCC;}
	.st60{fill:#8CC63F;}
	.st61{fill:#005F99;}
</style>
<radialGradient id="SVGID_1_" cx="434" cy="291" r="522.2969" gradientUnits="userSpaceOnUse">
	<stop  offset="0" style="stop-color:#8366DE"/>
	<stop  offset="1" style="stop-color:#533C7A"/>
</radialGradient>
<path class="st0" d="M0,0h1000v500H0V0z"/>
<radialGradient id="SVGID_2_" cx="500" cy="249" r="395.2847" gradientTransform="matrix(1 0 0 -1 0 499)" gradientUnits="userSpaceOnUse">
	<stop  offset="0" style="stop-color:#97D3F1"/>
	<stop  offset="1" style="stop-color:#63BDEA"/>
</radialGradient>
<path class="st1" d="M0,0h1000v500H0V0z"/>
<title>img-banner-INFO-BLUE-50</title>
<g class="st2">
	<g class="st3">
		<path class="st4" d="M634.2,192.4c4,7.9,9.8,14.7,16.9,20l24.3-33.4L634.2,192.4z"/>
		<path class="st5" d="M685.6,93.2c-7.1,0.1-14.1,1.3-20.8,3.5c-37.4,12.2-58.2,51.9-46.8,89.6l67.6-22L685.6,93.2L685.6,93.2z"/>
		<path class="st6" d="M729,123.6c-9.3-9.3-20.3-14.9-32.6-16.7v61.7l-3.4,4.5l-32.8,45.1c8.3,4.2,17.5,6.4,26.9,6.4
			c32.7,0.1,59.2-26.4,59.2-59C746.4,149.9,740.1,134.8,729,123.6z"/>
	</g>
	<path class="st7" d="M105.9,130.4h-0.5c-4.2-0.1-7.4-3.6-7.3-7.8c0.1-4.2,3.6-7.4,7.8-7.3c4.2,0.1,7.4,3.6,7.3,7.8
		C113.1,127,109.9,130.2,105.9,130.4z M105.9,118.2c-2.5,0.1-4.5,2.2-4.4,4.7c0.1,2.5,2.2,4.5,4.7,4.4c2.5-0.1,4.5-2.2,4.4-4.7
		c-0.1-2.4-2-4.4-4.4-4.4H105.9z M104.9,115.4l0.4-5.7l3,0.2l-0.4,5.7L104.9,115.4z M103.5,135.8l0.4-5.7l3,0.2l-0.4,5.7
		L103.5,135.8z M94.1,116.8l1.7-2.5l4.8,3.2l-1.7,2.5L94.1,116.8z M110.4,127.9l1.7-2.5l4.8,3.2l-1.7,2.5L110.4,127.9z M93.4,127.3
		l5.1-2.5l1.3,2.7l-5.1,2.5L93.4,127.3z M111.8,118.2l5.1-2.5l1.3,2.7l-5.1,2.5L111.8,118.2z"/>
	<path class="st8" d="M257.2,214.3c-1.1,0-2.3,0-3.4-0.1l0.2-3c1.1,0.1,2.1,0.1,3.2,0.1h0.7v3H257.2L257.2,214.3z M262,214.1l-0.3-3
		c1.3-0.1,2.6-0.3,3.9-0.5l0.5,3C264.8,213.8,263.4,214,262,214.1L262,214.1z M249.7,213.8c-1.4-0.2-2.7-0.4-4.1-0.7l0.6-2.9
		c1.3,0.3,2.6,0.5,3.8,0.6L249.7,213.8z M270.1,212.8l-0.7-2.9c1.3-0.3,2.5-0.6,3.8-1l0.9,2.9C272.8,212.1,271.5,212.5,270.1,212.8
		L270.1,212.8z M241.7,212.1c-1.3-0.4-2.6-0.8-3.9-1.3l1-2.8c1.2,0.4,2.4,0.9,3.7,1.2L241.7,212.1z M278,210.3l-1.1-2.8
		c1.2-0.5,2.4-1,3.5-1.6l1.3,2.7C280.5,209.2,279.2,209.8,278,210.3z M234,209.3c-1.2-0.6-2.5-1.2-3.7-1.8l1.4-2.6
		c1.1,0.6,2.3,1.2,3.5,1.7L234,209.3z M285.4,206.7l-1.5-2.6c1.1-0.6,2.2-1.4,3.3-2.1l1.7,2.5C287.7,205.3,286.5,206,285.4,206.7
		L285.4,206.7z M292.1,202.1l-1.9-2.4c1-0.8,2-1.6,3-2.5l2,2.2C294.3,200.4,293.2,201.3,292.1,202.1z M298.1,196.6l-2.1-2.1
		c0.9-0.9,1.8-1.9,2.6-2.9l2.3,1.9C300,194.5,299.1,195.6,298.1,196.6L298.1,196.6z M303.3,190.2l-2.5-1.7c0.7-1.1,1.5-2.2,2.1-3.3
		l2.6,1.5C304.9,187.9,304.2,189,303.3,190.2L303.3,190.2z M307.5,183.1l-2.7-1.3c0.6-1.2,1.1-2.4,1.6-3.5l2.8,1.1
		C308.8,180.6,308.2,181.9,307.5,183.1L307.5,183.1z M310.6,175.5l-2.9-0.9c0.4-1.2,0.8-2.5,1.1-3.7l2.9,0.7
		C311.5,172.9,311.1,174.2,310.6,175.5L310.6,175.5z M312.6,167.5l-3-0.5c0.2-1.3,0.4-2.6,0.5-3.9l3,0.3
		C313.1,164.8,312.9,166.2,312.6,167.5L312.6,167.5z M313.4,159.4l-3-0.1v-1.4c0-0.8,0-1.7-0.1-2.5l3-0.1c0,0.9,0.1,1.8,0.1,2.6
		C313.5,158.4,313.5,158.9,313.4,159.4L313.4,159.4z M310.1,151.5c-0.1-1.3-0.4-2.6-0.6-3.8l3-0.6c0.3,1.3,0.5,2.7,0.6,4.1
		L310.1,151.5z M308.6,143.9c-0.3-1.2-0.7-2.5-1.2-3.7l2.8-1c0.5,1.3,0.9,2.6,1.2,3.9L308.6,143.9z M306,136.6
		c-0.5-1.2-1.1-2.4-1.7-3.5l2.6-1.4c0.6,1.2,1.2,2.4,1.8,3.7L306,136.6z M302.4,129.7c-0.7-1.1-1.4-2.2-2.2-3.2l2.4-1.8
		c0.8,1.1,1.6,2.2,2.3,3.4L302.4,129.7z M297.8,123.4c-0.8-1-1.7-2-2.6-2.9l2.1-2.1c1,1,1.9,2,2.8,3L297.8,123.4z M292.3,117.9
		c-1-0.8-2-1.7-3-2.5l1.8-2.4c1.1,0.8,2.2,1.7,3.2,2.6L292.3,117.9z M286.1,113.2c-1.1-0.7-2.2-1.4-3.3-2l1.5-2.6
		c1.2,0.7,2.4,1.4,3.5,2.1L286.1,113.2z M279.3,109.5c-1.2-0.5-2.4-1-3.6-1.5l1-2.8c1.3,0.5,2.6,1,3.8,1.6L279.3,109.5z M272,106.7
		c-1.2-0.4-2.5-0.7-3.8-0.9l0.6-2.9c1.3,0.3,2.7,0.6,4,1L272,106.7z M264.4,105.1c-1.3-0.2-2.6-0.3-3.9-0.4l0.2-3
		c1.4,0.1,2.7,0.2,4.1,0.4L264.4,105.1z M95.3,141c-1.3-0.5-2.6-1.2-3.8-2l1.7-2.5c1,0.7,2.1,1.3,3.2,1.7L95.3,141z M88.2,136.2
		c-1-1.1-1.8-2.2-2.6-3.5l2.6-1.5c0.6,1.1,1.3,2,2.2,2.9L88.2,136.2z M83.9,128.7c-0.4-1.4-0.7-2.8-0.8-4.2l3-0.2
		c0.1,1.2,0.3,2.4,0.7,3.6L83.9,128.7z M86.2,120.6l-3-0.4c0.2-1.4,0.6-2.8,1.1-4.2l2.8,1.1C86.7,118.2,86.4,119.3,86.2,120.6
		L86.2,120.6z M88.8,113.8l-2.5-1.7c0.8-1.2,1.7-2.3,2.8-3.3l2.1,2.2C90.3,111.8,89.5,112.7,88.8,113.8L88.8,113.8z M94.1,108.8
		l-1.5-2.6c1.2-0.7,2.6-1.3,3.9-1.8l0.9,2.9C96.3,107.7,95.1,108.1,94.1,108.8L94.1,108.8z M101,106.6l-0.3-3c1-0.1,2-0.1,3,0
		l-0.2,3C102.7,106.5,101.8,106.5,101,106.6L101,106.6z M105.5,106.6v-3h4v3H105.5z M113.5,106.5v-3h4v3H113.5z M121.5,106.4v-3h4v3
		H121.5z M129.5,106.3v-3h4v3H129.5z M137.5,106.2v-3h4v3H137.5z M145.5,106.2v-3h4v3H145.5z M153.5,106.1v-3h4v3H153.5z M161.5,106
		v-3h4v3H161.5z M169.5,105.9v-3h4v3H169.5z M177.5,105.8v-3h4v3H177.5z M185.5,105.7v-3h4v3H185.5z M193.5,105.6v-3h4v3H193.5z
		 M201.5,105.5v-3h4v3H201.5z M209.5,105.5v-3h4v3H209.5z M217.5,105.4v-3h4v3H217.5z M225.5,105.3v-3h4v3H225.5z M233.5,105.2v-3h4
		v3H233.5z M241.5,105.1v-3h4v3H241.5z M249.5,105v-3h4v3H249.5z M257.5,104.9v-3h4v3H257.5z M229.7,207.3l-3.6-1.8l1.3-2.7l3.6,1.8
		L229.7,207.3z M222.5,203.7l-3.6-1.7l1.3-2.7l3.6,1.8L222.5,203.7z M215.3,200.2l-3.6-1.8l1.3-2.7l3.6,1.8L215.3,200.2z
		 M208.2,196.6l-3.6-1.8l1.3-2.7l3.6,1.8L208.2,196.6z M201,193.1l-3.6-1.8l1.3-2.7l3.6,1.8L201,193.1z M193.8,189.5l-3.6-1.8
		l1.3-2.7l3.6,1.8L193.8,189.5z M186.6,186l-3.6-1.8l1.3-2.7l3.6,1.8L186.6,186z M179.5,182.5l-3.6-1.8l1.3-2.7l3.6,1.8L179.5,182.5
		z M172.3,178.9l-3.6-1.8l1.3-2.7l3.6,1.8L172.3,178.9z M165.1,175.4l-3.6-1.8l1.3-2.7l3.6,1.8L165.1,175.4z M158,171.8l-3.6-1.8
		l1.3-2.7l3.6,1.8L158,171.8z M150.8,168.3l-3.6-1.8l1.3-2.7l3.6,1.8L150.8,168.3z M143.7,164.7L140,163l1.3-2.7l3.7,1.7
		L143.7,164.7z M136.5,161.2l-3.6-1.8l1.3-2.7l3.6,1.8L136.5,161.2z M129.3,157.6l-3.6-1.8l1.3-2.7l3.6,1.8L129.3,157.6z
		 M122.2,154.1l-3.6-1.8l1.3-2.7l3.6,1.8L122.2,154.1z M115,150.5l-3.6-1.8l1.3-2.7l3.6,1.8L115,150.5z M107.8,147l-3.6-1.8l1.3-2.7
		l3.6,1.8L107.8,147z M100.6,143.5l-3.6-1.8l1.3-2.7l3.6,1.8L100.6,143.5z"/>
	<g class="st3">
		
			<linearGradient id="SVGID_3_" gradientUnits="userSpaceOnUse" x1="17.65" y1="226.75" x2="827.67" y2="226.75" gradientTransform="matrix(1 0 0 -1 0 499)">
			<stop  offset="0" style="stop-color:#63BDEA"/>
			<stop  offset="1" style="stop-color:#FFFFFF"/>
		</linearGradient>
		<path class="st9" d="M166.9,446.3L17.7,297.1L29,285.8l137.9,137.9l101-101l63.4,63.4l208.5-208.5l98.6,98.6l178-178l11.3,11.3
			L638.4,298.8l-98.6-98.6L331.2,408.6l-63.4-63.4L166.9,446.3L166.9,446.3z"/>
		<path class="st5" d="M833.9,147.8h-16v-39.9H778v-16h55.9V147.8z"/>
	</g>
	<path class="st10" d="M237.7,389.5h21.4v9.2h-21.4V389.5z M267.2,380.8h21.4v17.9h-21.4V380.8z M296.8,379.1h21.4v19.6h-21.4V379.1
		z M326.3,362.8h21.4v35.9h-21.4V362.8z M355.9,369.9h21.4v28.8h-21.4V369.9z M385.4,314.4h21.4v84.3h-21.4V314.4z M415,291.1h21.4
		v107.6H415V291.1z"/>
	
		<linearGradient id="SVGID_4_" gradientUnits="userSpaceOnUse" x1="-9850.8594" y1="-2108.105" x2="-9665.1895" y2="-2108.105" gradientTransform="matrix(6.123234e-17 -1 -1 -6.123234e-17 -1756.26 -9607.2197)">
		<stop  offset="0" style="stop-color:#63BDEA"/>
		<stop  offset="1" style="stop-color:#FFFFFF"/>
	</linearGradient>
	<path class="st11" d="M334.5,80.5l-17.3,22.6h18.2v140.6h32.9V103.1h18.2l-17.3-22.6L351.8,58L334.5,80.5L334.5,80.5z"/>
	
		<linearGradient id="SVGID_5_" gradientUnits="userSpaceOnUse" x1="-9902.1797" y1="-2169.0449" x2="-9716.5098" y2="-2169.0449" gradientTransform="matrix(6.123234e-17 -1 -1 -6.123234e-17 -1756.26 -9607.2197)">
		<stop  offset="0" style="stop-color:#63BDEA"/>
		<stop  offset="1" style="stop-color:#FFFFFF"/>
	</linearGradient>
	<path class="st12" d="M395.5,131.9l-17.3,22.6h18.2V295h32.9V154.4h18.2l-17.3-22.6l-17.3-22.6L395.5,131.9L395.5,131.9z"/>
	
		<linearGradient id="SVGID_6_" gradientUnits="userSpaceOnUse" x1="761.97" y1="170.5609" x2="949.39" y2="170.5609" gradientTransform="matrix(1 0 0 -1 0 499)">
		<stop  offset="0" style="stop-color:#63BDEA"/>
		<stop  offset="1" style="stop-color:#FFFFFF"/>
	</linearGradient>
	<path class="st13" d="M934,353.2c0.2-1.4,0.3-2.7,0.3-4.1c0-19.1-15.4-34.5-34.4-34.6c-3.2,0-6.4,0.4-9.5,1.3
		c-3.8-27.8-29.5-47.1-57.2-43.3c-25.1,3.5-43.8,24.9-43.8,50.2v0.3c-17,2.3-28.9,17.9-26.6,34.8c2,15.2,14.8,26.6,30.1,26.9h139.3
		v-0.1l1.3,0.1c8.7,0.1,15.9-6.9,16-15.6C949.7,360.5,942.7,353.3,934,353.2L934,353.2L934,353.2z"/>
	<path class="st7" d="M459.2,323.8h38.3v3h-38.3V323.8z M459.2,333.2h38.3v3h-38.3V333.2z M446.5,335.1l-5.4-3.5l1.6-2.5l3.1,2
		l5.7-7.1l2.4,1.9L446.5,335.1z M459.2,351.8h38.3v3h-38.3V351.8z M459.2,361.2h38.3v3h-38.3V361.2z M446.5,363.2l-5.4-3.5l1.6-2.5
		l3.1,2l5.7-7.1l2.4,1.9L446.5,363.2z M459.2,379.9h38.3v3h-38.3V379.9z M459.2,389.3h38.3v3h-38.3V389.3z M446.5,391.2l-5.4-3.5
		l1.6-2.5l3.1,2l5.7-7.1l2.4,1.9L446.5,391.2z"/>
	<g class="st3">
		<path class="st14" d="M376.9,176.1H316V297h80.6V195.8L376.9,176.1L376.9,176.1z"/>
		<path class="st5" d="M376.9,196.6h20.6l-20.6-20.6V196.6z"/>
	</g>
	<path class="st7" d="M306.7,195.9h22.4v3h-22.4V195.9z M306.3,205.6h53.1v3h-53.1L306.3,205.6z M306.3,215.4h53.1v3h-53.1
		L306.3,215.4z M306.3,225.1h53.1v3h-53.1L306.3,225.1z M306.3,234.8h34.4v3h-34.4L306.3,234.8z M297.7,306.2l-2.1-2.1l60.3-60.3
		l11.3,11.3l34.8-34.8l17.9,17.9l45.6-45.7l2.1,2.1l-47.8,47.8L402,224.6l-34.8,34.8L355.8,248L297.7,306.2z M470.9,209.7h-3v-15.4
		h-15.4v-3h18.4V209.7z"/>
	<g class="st3">
		<path class="st5" d="M432.2,217.6v-41.9c0-2.9-2.4-5.3-5.3-5.3l0,0h-2.2c-2.9,0-5.3,2.4-5.3,5.3l0,0v41.9H432.2L432.2,217.6z
			 M430.7,260.8v-51.4c0-2.9-1.8-5.3-4-5.3H425c-2.2,0-4,2.4-4,5.3v51.4H430.7L430.7,260.8z"/>
		<path class="st15" d="M414.8,210.6h-3v-24.9c0-3.7,3-6.8,6.8-6.8h13.6v3h-13.6c-2.1,0-3.8,1.7-3.8,3.8l0,0V210.6z M419.4,216.3h13
			v3h-13V216.3z M419.4,259.2h13v3h-13V259.2z M427.5,277.7h-3c0-3.4-1.8-7.5-2.8-7.8l-1.1-0.3V262h3v5.6
			C426.2,269.4,427.5,274.8,427.5,277.7z M427.5,277.7h-3c0-3,1.3-8.3,3.9-10.1V262h3v7.7l-1.1,0.3
			C429.2,270.2,427.5,274.3,427.5,277.7L427.5,277.7z"/>
	</g>
	<path class="st7" d="M414.8,282.5c-2.9,0-4.3-2-5.4-3.6s-1.7-2.4-3-2.4s-1.9,0.9-3,2.4s-2.5,3.6-5.4,3.6s-4.3-2-5.4-3.6
		s-1.7-2.4-3-2.4s-1.9,0.9-3,2.4s-2.5,3.6-5.4,3.6s-4.3-2-5.4-3.6s-1.7-2.4-3-2.4s-1.9,0.9-3,2.4s-2.5,3.6-5.4,3.6v-3
		c1.3,0,1.9-0.9,3-2.4s2.5-3.6,5.4-3.6s4.3,2,5.4,3.6s1.7,2.4,3,2.4s1.9-0.9,3-2.4s2.5-3.6,5.4-3.6s4.3,2,5.4,3.6s1.7,2.4,3,2.4
		s1.9-0.9,3-2.4s2.5-3.6,5.4-3.6s4.3,2,5.4,3.6s1.7,2.4,3,2.4V282.5z"/>
	<g class="st3">
		<path class="st15" d="M497.2,311.3h-52.1c-1.3,0-2.4-1.1-2.4-2.4v-71.1c0-1.3,1.1-2.4,2.4-2.4h52.1c1.3,0,2.4,1.1,2.4,2.4v71.1
			C499.6,310.2,498.5,311.3,497.2,311.3z M445.8,308.3h50.8v-69.9h-50.8L445.8,308.3L445.8,308.3z M497.2,303.1h-52.1
			c-1.3,0-2.4-1.1-2.4-2.4v-54.3h3v53.6h50.8v-53.6h3v54.3C499.6,302,498.5,303.1,497.2,303.1L497.2,303.1z"/>
		<path class="st14" d="M452.7,247.9h37v9.4h-37V247.9z"/>
		<path class="st15" d="M451.2,265.3h6.8v3h-6.8V265.3z M462.3,265.3h6.8v3h-6.8V265.3z M473.3,265.3h6.8v3h-6.8V265.3z
			 M484.4,265.3h6.8v3h-6.8V265.3z M451.2,273.7h6.8v3h-6.8V273.7z M462.3,273.7h6.8v3h-6.8V273.7z M473.3,273.7h6.8v3h-6.8V273.7z
			 M484.4,273.7h6.8v3h-6.8V273.7z M451.2,282.1h6.8v3h-6.8V282.1z M462.3,282.1h6.8v3h-6.8V282.1z M473.3,282.1h6.8v3h-6.8V282.1z
			 M484.4,282.1h6.8v3h-6.8V282.1z M451.2,290.4h6.8v3h-6.8V290.4z M462.3,290.4h6.8v3h-6.8V290.4z M473.3,290.4h6.8v3h-6.8V290.4z
			 M484.4,290.4h6.8v3h-6.8V290.4z"/>
	</g>
	<path class="st10" d="M597.2,191.1l-2.4-15l-13.6,1.1c-1.7-4.7-4.2-9-7.5-12.8l7.2-12l-12.4-8.9l-8.8,10.3
		c-4.5-2.1-9.4-3.4-14.3-3.8l-3.4-13.6l-15,2.4l1,13.6c-4.7,1.7-9,4.2-12.8,7.5l-12-7.2l-8.9,12.4l10.3,8.8
		c-2.1,4.5-3.4,9.4-3.8,14.4l-13.6,3.4l2.4,15l13.6-1.1c1.7,4.7,4.2,9,7.5,12.8l-7.2,12l12.4,8.9l8.8-10.2c4.5,2.1,9.4,3.4,14.3,3.8
		l3.4,13.6l15-2.4l-1-13.6c4.7-1.7,9-4.2,12.8-7.5l12,7.2l8.9-12.4l-10.3-8.8c2.1-4.5,3.4-9.4,3.8-14.4L597.2,191.1z"/>
	<g class="st3">
		<path class="st15" d="M540.9,161.9h3v5.9h-3V161.9z M552.4,170.1l3-5.1l2.6,1.5l-3,5.1L552.4,170.1z M561.3,177.9l5.1-3l1.5,2.6
			l-5.1,3L561.3,177.9z M565,188.9h5.9v3H565V188.9z M561.3,203.1l1.5-2.6l5.1,3l-1.5,2.6L561.3,203.1z M552.4,210.7l2.6-1.5l3,5.1
			l-2.6,1.5L552.4,210.7z M540.9,213h3v5.9h-3V213z M526.7,214.3l3-5.1l2.6,1.5l-3,5.1L526.7,214.3z M516.9,203.4l5.1-3l1.5,2.6
			l-5.1,3L516.9,203.4z M513.9,188.9h5.9v3h-5.9V188.9z M516.9,177.4l1.5-2.6l5.1,3l-1.5,2.6L516.9,177.4z M526.8,166.2l2.6-1.5
			l3,5.1l-2.6,1.5L526.8,166.2z"/>
		<path class="st5" d="M542.8,191l-11.7-7.3l1.6-2.5l9.6,6l12.6-13l2.2,2.1L542.8,191L542.8,191z"/>
	</g>
	<path class="st7" d="M596.8,149.6c-4.2,0-7.6-3.4-7.6-7.6s3.4-7.6,7.6-7.6s7.6,3.4,7.6,7.6C604.4,146.2,601,149.6,596.8,149.6z
		 M596.8,137.4c-2.5,0-4.6,2-4.6,4.6s2,4.6,4.6,4.6s4.6-2,4.6-4.6S599.3,137.4,596.8,137.4L596.8,137.4z M595.3,128.9h3v5.7h-3
		V128.9z M595.3,149.4h3v5.7h-3V149.4z M584.7,136.8l1.5-2.6l5,2.9l-1.5,2.6L584.7,136.8z M602.5,147l1.5-2.6l5,2.9l-1.5,2.6
		L602.5,147z M587,147.8l5-2.9l1.5,2.6l-5,2.9L587,147.8z M602.4,137.1l5-2.9l1.5,2.6l-5,2.9L602.4,137.1z"/>
	<g class="st3">
		<circle class="st5" cx="466" cy="161.9" r="16.9"/>
		<path class="st15" d="M466,167.4c-4.1,0-7.4-3.3-7.4-7.4s3.3-7.4,7.4-7.4s7.4,3.3,7.4,7.4C473.4,164.1,470.1,167.4,466,167.4z
			 M466,155.5c-2.5,0-4.4,2-4.4,4.4s2,4.4,4.4,4.4s4.4-2,4.4-4.4S468.5,155.5,466,155.5L466,155.5z M466,178.6
			c-4.2,0-8.3-1.6-11.4-4.5l-0.5-0.4v-1.1c0-4.1,3.3-7.4,7.4-7.4h8.9c4.1,0,7.4,3.3,7.4,7.4v1.1l-0.5,0.4
			C474.3,177,470.3,178.6,466,178.6z M457.1,172.3c5.1,4.4,12.7,4.4,17.8,0c-0.1-2.4-2.1-4.3-4.4-4.3h-8.9
			C459.2,168,457.2,169.9,457.1,172.3L457.1,172.3z"/>
	</g>
	<path class="st7" d="M241.9,269.4h-1.2v-3h1.2V269.4z M236.6,269.4h-4v-3h4V269.4z M228.6,269.4h-4v-3h4V269.4z M220.6,269.4h-4v-3
		h4V269.4z M192.5,277.4h-6.4c-10.4,0-17.1-7.8-17.1-20v-16.5h3v16.5c0,12.5,7.3,17,14.1,17h6.4V277.4L192.5,277.4z M272.4,277.4
		h-6.5v-3h6.5c10.4,0,14.1-9.2,14.1-17.1v-16.5h3v16.5C289.5,269.5,282.8,277.4,272.4,277.4z M204.1,235.8h3v28.5h-3V235.8z
		 M194.1,235.8h3v28.5h-3V235.8z M204.1,287.4h3v28.5h-3V287.4z M194.1,287.4h3v28.5h-3V287.4z M206.6,289.5h-12
		c-1.9,0-3.5-1.6-3.5-3.5v-19c0-1.9,1.6-3.5,3.5-3.5h12c1.9,0,3.5,1.6,3.5,3.5v19C210.2,287.9,208.6,289.5,206.6,289.5z
		 M194.6,266.5c-0.3,0-0.5,0.2-0.5,0.5v19c0,0.3,0.2,0.5,0.5,0.5c0,0,0,0,0,0h12c0.3,0,0.5-0.2,0.5-0.5v-19c0-0.3-0.2-0.5-0.5-0.5
		H194.6z M199.1,279.9h3v6.8h-3V279.9z M261.4,235.8h3v28.5h-3V235.8z M251.4,235.8h3v28.5h-3V235.8z M261.4,287.4h3v28.5h-3V287.4z
		 M251.4,287.4h3v28.5h-3V287.4z M263.9,289.5h-12c-1.9,0-3.5-1.6-3.5-3.5v-19c0-1.9,1.6-3.5,3.5-3.5h12c1.9,0,3.5,1.6,3.5,3.5v19
		C267.4,287.9,265.8,289.5,263.9,289.5z M251.9,266.5c-0.3,0-0.5,0.2-0.5,0.5v19c0,0.3,0.2,0.5,0.5,0.5c0,0,0,0,0,0h12
		c0.3,0,0.5-0.2,0.5-0.5c0,0,0,0,0,0v-19c0-0.3-0.2-0.5-0.5-0.5H251.9z M256.4,279.9h3v6.8h-3V279.9z M208.6,274.4h41.3v3h-41.4
		L208.6,274.4z M289.6,318.2H168.9V234h120.7V318.2L289.6,318.2z M171.9,315.2h114.7V237H171.9V315.2L171.9,315.2z M246.5,229.6h-3
		V223H215v6.6h-3V220h34.6V229.6z"/>
	<path class="st16" d="M271.8,133.6"/>
	<g class="st3">
		<path class="st5" d="M146.1,159.8c23.2,0,42,18.7,42,41.9c0,10-3.5,19.6-10,27.2l9.8,18.6L170,236.2c-19,13.3-45.2,8.7-58.5-10.3
			s-8.7-45.2,10.3-58.5C128.9,162.4,137.4,159.7,146.1,159.8L146.1,159.8z"/>
		<path class="st15" d="M152.1,226.8h-3v-27.2h-18.4v-3h21.4V226.8z M158.9,228.3h-21.4v-30.2h3v27.2h18.4V228.3z M144.8,189.6
			c-4.5,0-8.2-3.7-8.2-8.2s3.7-8.2,8.2-8.2s8.2,3.7,8.2,8.2C153,186,149.4,189.6,144.8,189.6z M144.8,176.2c-2.9,0-5.2,2.3-5.2,5.2
			s2.3,5.2,5.2,5.2c2.9,0,5.2-2.3,5.2-5.2C150,178.6,147.7,176.2,144.8,176.2L144.8,176.2z"/>
	</g>
	<g class="st3">
		<path class="st14" d="M584.1,339c-26.1-23.3-29.7-62.8-8.2-90.4l14.3,12.8c-15.5,21.1-10.9,50.8,10.2,66.2
			c18.3,13.4,43.5,11.9,60.1-3.4l14.3,12.8C649.8,361.4,610.1,362.3,584.1,339z"/>
		<path class="st6" d="M581.2,242.5c10.4-10.5,24-17.2,38.7-19l1,19.1c-9.6,1.5-18.5,5.9-25.5,12.6L581.2,242.5z"/>
		<path class="st15" d="M680.5,333.1L664,318.3l0.8-1.1c15.4-20.1,11.5-48.9-8.6-64.3c-7.8-5.9-17.2-9.2-27-9.4h-1.4l-1.2-22.1h1.9
			c37.6,0.1,67.9,30.6,67.9,68.1c0,15.4-5.3,30.3-14.9,42.3L680.5,333.1z M668,317.9l12.1,10.8c21.7-28.6,16.1-69.4-12.4-91.1
			c-10.9-8.3-24.2-12.9-38-13.2l0.9,16.2c27,1.3,47.8,24.1,46.6,51.1C676.7,301.1,673.5,310.3,668,317.9L668,317.9z"/>
		<path class="st17" d="M554.7,289.5l-6,12l-34.1,0l6-12L554.7,289.5L554.7,289.5z M554.7,289.5l-6-12h-34.1l6,12L554.7,289.5
			L554.7,289.5z"/>
		<path class="st15" d="M512.1,303l7.5-15h37.5l-7.5,15H512.1z M521.5,291l-4.5,9h30.8l4.5-9H521.5L521.5,291z M557.1,291h-37.5
			l-7.5-15h37.5L557.1,291z M521.5,288h30.7l-4.5-9H517L521.5,288z M631,290.9H515.5c-0.8,0-1.5-0.7-1.5-1.5s0.7-1.5,1.5-1.5H631
			c0.8,0,1.5,0.7,1.5,1.5S631.8,290.9,631,290.9z M573.7,334.5h16.5v3h-16.5V334.5z M573.7,343.7h16.5v3h-16.5V343.7z M575.9,352.9
			h14.2v3h-14.2V352.9z M585,362.2h5.2v3H585V362.2z M594.5,325.3H611v3h-16.5V325.3z M594.5,334.5H611v3h-16.5V334.5z M594.5,343.7
			H611v3h-16.5V343.7z M594.5,352.9H611v3h-16.5V352.9z M594.5,362.2H611v3h-16.5V362.2z M594.5,316.3H611v3h-16.5V316.3z
			 M615.9,325.3h16.5v3h-16.5V325.3z M615.9,334.5h16.5v3h-16.5V334.5z M615.9,343.7h16.5v3h-16.5V343.7z M615.9,352.9h16.5v3h-16.5
			V352.9z M615.9,362.2h16.5v3h-16.5V362.2z M615.9,297.9h16.5v3h-16.5V297.9z M615.9,307.1h16.5v3h-16.5V307.1z M615.9,316.3h16.5
			v3h-16.5V316.3z M552.4,353h15.3v3h-15.3V353z M552.4,362.2h7.9v3h-7.9V362.2z M571.7,380.4c-7.7,0-14-6.3-14-14s6.3-14,14-14
			s14,6.3,14,14l0,0C585.7,374.1,579.4,380.4,571.7,380.4z M571.7,355.4c-6.1,0-11,4.9-11,11s4.9,11,11,11s11-4.9,11-11l0,0
			C582.7,360.4,577.7,355.4,571.7,355.4z M570.2,360.6h3v11.5h-3V360.6z"/>
	</g>
	<g class="st3">
		<path class="st5" d="M725.1,247.7v-17.6c0-4.9,3.6-9,8.5-9.5h89.5c-4.8,0.6-8.5,4.7-8.5,9.5V351c0,4.9-3.7,9-8.5,9.5h-89.5
			c4.8-0.6,8.5-4.7,8.5-9.5L725.1,247.7L725.1,247.7z"/>
		<path class="st14" d="M814.6,240.6v-10.5c0-5.3,4.3-9.6,9.6-9.6c5.3,0,9.6,4.3,9.6,9.6v10.4L814.6,240.6L814.6,240.6z
			 M796.9,346.1v4.9c0,4.9,3.7,9,8.5,9.5h-89.5c-4.8-0.6-8.5-4.7-8.5-9.5v-4.8L796.9,346.1L796.9,346.1z"/>
		<path class="st15" d="M761.6,269.4h3v23.7h-3V269.4z M750.6,278.1h3V293h-3V278.1z M739.6,285.2h3v8h-3V285.2z M761.6,297.2h3v4.5
			h-3V297.2z M750.6,297.2h3v4.5h-3V297.2z M739.6,297.2h3v4.5h-3V297.2z M794.7,263h3v30.2h-3V263z M783.7,285.3h3v7.9h-3V285.3z
			 M772.6,278.3h3v14.8h-3V278.3z M794.7,297.2h3v4.5h-3V297.2z M783.7,297.2h3v4.5h-3V297.2z M772.6,297.2h3v4.5h-3V297.2z
			 M827.8,269.4h3v23.7h-3V269.4z M816.7,276.4h3v16.5h-3V276.4z M805.7,268.6h3v24.5h-3V268.6z M827.8,297.2h3v4.5h-3V297.2z
			 M816.7,297.2h3v4.5h-3V297.2z M805.7,297.2h3v4.5h-3V297.2z M738.1,237.1h22.4v3h-22.4V237.1z M737.7,246.8h53.1v3h-53.1V246.8z"
			/>
	</g>
	<g class="st3">
		<path class="st18" d="M199.4,395.1c-6.7,0-13.1-2.4-18.1-6.8l19-19h26.5C225.9,383.7,213.9,395.1,199.4,395.1L199.4,395.1z"/>
		<path class="st14" d="M201.2,365v-24.9c13.5,0.8,24.4,11.4,25.6,24.9H201.2z"/>
		<path class="st5" d="M199.4,395.1c-6.7,0-13.1-2.4-18.1-6.8l19-19h26.5C225.9,383.7,213.9,395.1,199.4,395.1L199.4,395.1z"/>
		<path class="st15" d="M199.3,402.3c-8.5,0-16.7-3.1-23-8.8l2-2.2c13.1,11.6,33.2,10.4,44.8-2.7c11.6-13.1,10.4-33.2-2.7-44.8
			c-5.4-4.8-12.3-7.6-19.5-8l0.1-3c19.2,1,33.8,17.4,32.8,36.5C232.9,387.8,217.7,402.3,199.3,402.3L199.3,402.3z M193.8,336.1v29.2
			l-20.5,20.9c-10.3-14.3-7-34.3,7.3-44.6C184.6,338.9,189.1,337,193.8,336.1z M196.8,332.8c-19.2,1.4-33.7,18.1-32.4,37.3
			c0.5,7.7,3.6,14.9,8.7,20.7l23.7-24.2V332.8z"/>
	</g>
	<g class="st3">
		<path class="st5" d="M122.3,363.4v-24.9c13.5,0.8,24.4,11.4,25.6,24.9H122.3z"/>
		<path class="st15" d="M143.7,391.7l-2-2.2c13-11.8,14-31.8,2.2-44.8c-5.7-6.2-13.6-10-22-10.4l0.1-3c19.2,0.9,33.9,17.2,33,36.4
			C154.6,376.8,150.5,385.5,143.7,391.7z M120.6,400.6c-19.2,0-34.7-15.5-34.8-34.7c0-17.3,12.8-32,30-34.4l1.7-0.2v35.2l21.9,28.6
			L138,396C132.7,399,126.7,400.6,120.6,400.6z M114.5,334.8c-17.2,3.4-28.3,20.2-24.9,37.3s20.2,28.3,37.3,24.9
			c2.8-0.6,5.5-1.5,8.1-2.8l-20.5-26.7L114.5,334.8L114.5,334.8z"/>
		<path class="st6" d="M125.1,367.5c3.3,4.2,8.9,11.5,14.3,18.4l0.6-0.5c4.8-4.8,7.6-11.1,8-17.8L125.1,367.5L125.1,367.5z"/>
	</g>
	<g class="st3">
		<path class="st5" d="M222.3,192.8l8.4-9.4l2.2-2.5c-12.4-12.9-11.9-33.4,1-45.7s33.4-11.9,45.7,1c12,12.5,12,32.3,0,44.8l2.2,2.5
			l8.4,9.4l0.2-0.2c18.8-18.9,18.7-49.4-0.2-68.2c-18.9-18.8-49.4-18.7-68.2,0.2S203.4,174,222.3,192.8
			C222.3,192.8,222.3,192.8,222.3,192.8L222.3,192.8z"/>
		<path class="st6" d="M279.6,180.9l2.2,2.5l8.4,9.4l0.3-0.2c15.2-15.2,18.5-38.7,7.9-57.5l-9.6,5.4l-4.2,2.4
			C291.4,155.3,289.4,170.7,279.6,180.9L279.6,180.9z"/>
		<path class="st19" d="M292.7,195"/>
		<path class="st5" d="M257.2,113.4"/>
		<path class="st15" d="M255.7,113.4h3v8.2h-3V113.4z"/>
		<path class="st5" d="M234.8,118.8l4.1,7.1L234.8,118.8z"/>
		<path class="st15" d="M234.4,119.9l2.6-1.5l4.1,7.2l-2.6,1.5L234.4,119.9z"/>
		<path class="st5" d="M218.1,134.7l7.1,4.1L218.1,134.7z"/>
		<path class="st15" d="M217.4,136.1l1.5-2.6l7.1,4.1l-1.5,2.6L217.4,136.1z"/>
		<path class="st5" d="M211.6,156.8"/>
		<path class="st15" d="M211.6,155.3h8.2v3h-8.2V155.3z"/>
		<path class="st5" d="M217,179.2l7.1-4.1L217,179.2z"/>
		<path class="st15" d="M217.1,178.5l7.2-4.1l1.5,2.6l-7.2,4.1L217.1,178.5z"/>
		<path class="st5" d="M294.1,181.1l-7.1-4.1L294.1,181.1z"/>
		<path class="st15" d="M286.2,178.4l1.5-2.6l7.1,4.1l-1.5,2.6L286.2,178.4z"/>
		<path class="st5" d="M300.6,159"/>
		<path class="st15" d="M292.3,157.5h8.2v3h-8.2V157.5z"/>
		<path class="st5" d="M295.2,136.6l-7.2,4.1L295.2,136.6z"/>
		<path class="st15" d="M287.3,139.4l7.1-4.1l1.5,2.6l-7.1,4.1L287.3,139.4z"/>
		<path class="st5" d="M278.6,145l-16.3,9.4L278.6,145z"/>
		<path class="st15" d="M261.6,153.2l16.3-9.4l1.5,2.6l-16.3,9.4L261.6,153.2z"/>
		<path class="st5" d="M279.3,119.9l-4.1,7.1L279.3,119.9z"/>
		<path class="st15" d="M273.9,126.3l4.1-7.1l2.6,1.5l-4.1,7.1L273.9,126.3z"/>
		<path class="st5" d="M261,163.2c-2.6,2.6-6.8,2.6-9.4,0c-2.6-2.6-2.6-6.8,0-9.4c2.6-2.6,6.8-2.6,9.4,0c1.2,1.2,1.9,2.9,1.9,4.7
			C262.9,160.3,262.2,162,261,163.2z"/>
		<path class="st15" d="M256.3,166.7c-4.5,0-8.1-3.6-8.1-8.1c0-4.5,3.6-8.1,8.1-8.1c4.5,0,8.1,3.6,8.1,8.1
			C264.4,163.1,260.8,166.7,256.3,166.7z M256.3,153.4c-2.8,0-5.1,2.3-5.1,5.1c0,2.8,2.3,5.1,5.1,5.1c2.8,0,5.1-2.3,5.1-5.1
			C261.4,155.7,259.1,153.4,256.3,153.4L256.3,153.4z"/>
	</g>
	<g class="st3">
		<path class="st15" d="M849.3,403.5l-1.3-1.9c-0.7-1.1-18-27.3-18-37.5c0-10.6,8.6-19.2,19.2-19.2c10.6,0,19.2,8.6,19.2,19.2
			c0,10.1-17.2,36.4-18,37.5L849.3,403.5z M849.3,348c-9,0-16.2,7.3-16.2,16.2c0,7.1,10.8,25.3,16.2,33.9
			c5.5-8.6,16.2-26.8,16.2-33.9C865.5,355.2,858.2,348,849.3,348L849.3,348z"/>
		<circle class="st5" cx="849.3" cy="365.2" r="5.2"/>
	</g>
	<path class="st7" d="M327.5,344.2l21.8-32.9l2.5,1.7L330,345.9L327.5,344.2z M329.6,329.9c-3.4,0-6.2-2.8-6.2-6.2v-6.5
		c0.1-3.4,3-6.1,6.5-6c3.3,0.1,5.9,2.7,6,6v6.5C335.9,327.1,333.1,329.9,329.6,329.9z M329.6,313.9c-1.8,0-3.2,1.4-3.2,3.2v6.5
		c0.1,1.8,1.6,3.2,3.4,3.1c1.7-0.1,3-1.4,3.1-3.1v-6.5C332.9,315.3,331.4,313.9,329.6,313.9L329.6,313.9z M349.5,346
		c-3.4,0-6.2-2.8-6.2-6.2v-6.5c0.1-3.4,3-6.1,6.5-6c3.3,0.1,5.9,2.7,6,6v6.5C355.7,343.2,352.9,346,349.5,346L349.5,346z M349.5,330
		c-1.8,0-3.2,1.4-3.2,3.2v6.5c0.1,1.8,1.6,3.2,3.4,3.1c1.7-0.1,3-1.4,3.1-3.1v-6.4C352.7,331.5,351.2,330.1,349.5,330L349.5,330z"/>
	<path class="st20" d="M499.4,141.9c-21.6,0-39.1-17.5-39.1-39.1s17.5-39.1,39.1-39.1s39.1,17.5,39.1,39.1
		C538.5,124.3,521,141.8,499.4,141.9z M499.4,66.6c-20,0-36.1,16.2-36.1,36.1s16.2,36.1,36.1,36.1s36.1-16.2,36.1-36.1
		C535.5,82.8,519.3,66.6,499.4,66.6z M499.4,141.9c-12.8,0-23.3-17.6-23.3-39.1s10.4-39.1,23.3-39.1c12.8,0,23.3,17.5,23.3,39.1
		S512.2,141.9,499.4,141.9z M499.4,66.6c-11.2,0-20.3,16.2-20.3,36.1s9.1,36.1,20.3,36.1s20.3-16.2,20.3-36.1S510.6,66.6,499.4,66.6
		z M499.4,141.9h-1.5V63.6h1.5c21.6,0,39.1,17.5,39.1,39.1S521,141.9,499.4,141.9z M500.9,66.6v72.2c19.9-0.8,35.4-17.6,34.6-37.6
		C534.8,82.5,519.7,67.4,500.9,66.6z M535.6,117.5h-72.4l-0.4-1c-3.4-8.9-3.4-18.7,0-27.6l0.4-1h72.4l0.4,1c3.4,8.9,3.4,18.7,0,27.6
		L535.6,117.5z M465.3,114.5h68.3c2.7-7.6,2.7-15.9,0-23.5h-68.2C462.6,98.6,462.6,106.9,465.3,114.5L465.3,114.5z"/>
</g>
<g class="st21">
	
		<linearGradient id="SVGID_7_" gradientUnits="userSpaceOnUse" x1="836.8132" y1="383.4319" x2="892.4769" y2="289.6957" gradientTransform="matrix(1 0 0 -1 0 499)">
		<stop  offset="0" style="stop-color:#2E95D1"/>
		<stop  offset="1" style="stop-color:#63BDEA"/>
	</linearGradient>
	<path class="st22" d="M903.7,275.4v-98.6c20.9-20.9,20.9-54.9,0-75.8c-20.9-20.9-54.9-20.9-75.8,0c-10.1,10.1-15.7,23.7-15.7,37.9
		c0,0.8,0,1.6,0.1,2.4l-7.5,13l-9.8,17h12.5v21.2c0,8,6.5,14.5,14.5,14.5l0,0h22.9v31.9L903.7,275.4z"/>
	<path class="st14" d="M869.5,322.5l48.7,15.8c-4.8,9.3-11.6,17.4-20,23.7L869.5,322.5z"/>
	<path class="st4" d="M857.4,305.2v-84c8.4,0.1,16.6,1.5,24.6,4.2c44.2,14.3,68.8,61.4,55.3,105.8L857.4,305.2z"/>
	<path class="st23" d="M855.6,376.4c-38.6,0-69.9-31.3-69.9-69.9c0-18.5,7.4-36.3,20.5-49.4c11-11,23.9-17.7,38.5-19.8v72.8l3.9,5.3
		l38.7,53.3C877.5,373.8,866.6,376.4,855.6,376.4L855.6,376.4z"/>
	<path class="st24" d="M723.7,391.4c-23.7-23.7-25-61.8-3-87.1l13,13c-16,19.4-13.3,48,6.1,64c16.8,13.9,41.1,13.9,57.9,0l13.1,13.1
		C785.5,416.4,747.5,415.1,723.7,391.4L723.7,391.4z"/>
	<path class="st5" d="M726.3,298.7c10.5-9.5,24-15.2,38.1-16.1V301c-9.3,0.9-18.1,4.6-25.1,10.7L726.3,298.7z"/>
	<path class="st15" d="M816.5,391.1l-15.2-15.2l0.9-1.1c15.8-18.4,13.6-46.1-4.8-61.9c-7.1-6.1-16-9.8-25.3-10.4l-1.4-0.1v-21.5
		l1.6,0.1c36.1,1.9,63.8,32.7,61.9,68.8c-0.8,14.9-6.6,29.1-16.6,40.2L816.5,391.1z M805.5,375.7l10.8,10.8
		c22.3-26.2,19-65.5-7.2-87.8c-10-8.5-22.3-13.6-35.3-14.6v15.3c25.8,2.7,44.6,25.9,41.8,51.7C814.7,360.2,811.2,368.7,805.5,375.7
		L805.5,375.7z"/>
	<g class="st25">
		
			<linearGradient id="SVGID_8_" gradientUnits="userSpaceOnUse" x1="-1211.8204" y1="-812.2813" x2="-1259.406" y2="-627.6368" gradientTransform="matrix(0.81 -0.58 -0.58 -0.81 794.32 -996.7)">
			<stop  offset="0" style="stop-color:#63BDEA"/>
			<stop  offset="1" style="stop-color:#FFFFFF"/>
		</linearGradient>
		<path class="st26" d="M162.9,253.9l-7.2-8.5l-11.6,8.3l5.7,9.5C149.8,263.2,162.9,253.9,162.9,253.9z"/>
		
			<linearGradient id="SVGID_9_" gradientUnits="userSpaceOnUse" x1="-1240.8964" y1="-819.793" x2="-1288.4922" y2="-635.1381" gradientTransform="matrix(0.81 -0.58 -0.58 -0.81 794.32 -996.7)">
			<stop  offset="0" style="stop-color:#63BDEA"/>
			<stop  offset="1" style="stop-color:#FFFFFF"/>
		</linearGradient>
		<path class="st27" d="M140.5,272.5l-9.6-5.5l-8.1,11.8l8.6,7L140.5,272.5L140.5,272.5z"/>
		
			<linearGradient id="SVGID_10_" gradientUnits="userSpaceOnUse" x1="-1269.9655" y1="-827.2793" x2="-1317.551" y2="-642.6243" gradientTransform="matrix(0.81 -0.58 -0.58 -0.81 794.32 -996.7)">
			<stop  offset="0" style="stop-color:#63BDEA"/>
			<stop  offset="1" style="stop-color:#FFFFFF"/>
		</linearGradient>
		<path class="st28" d="M125.8,297.7l-10.9-1.9l-3.6,13.8l10.5,3.6L125.8,297.7L125.8,297.7z"/>
		
			<linearGradient id="SVGID_11_" gradientUnits="userSpaceOnUse" x1="-1294.6099" y1="-833.6181" x2="-1342.1952" y2="-648.9839" gradientTransform="matrix(0.81 -0.58 -0.58 -0.81 794.32 -996.7)">
			<stop  offset="0" style="stop-color:#63BDEA"/>
			<stop  offset="1" style="stop-color:#FFFFFF"/>
		</linearGradient>
		<path class="st29" d="M120.7,326.5l-10.9,2l1.4,14.2l11.1-0.1L120.7,326.5L120.7,326.5z"/>
		
			<linearGradient id="SVGID_12_" gradientUnits="userSpaceOnUse" x1="-1311.871" y1="-838.0821" x2="-1359.4563" y2="-653.4271" gradientTransform="matrix(0.81 -0.58 -0.58 -0.81 794.32 -996.7)">
			<stop  offset="0" style="stop-color:#63BDEA"/>
			<stop  offset="1" style="stop-color:#FFFFFF"/>
		</linearGradient>
		<path class="st30" d="M125.6,355.2l-9.6,5.6l6.2,12.9l10.4-3.9C132.6,369.8,125.6,355.2,125.6,355.2z"/>
		
			<linearGradient id="SVGID_13_" gradientUnits="userSpaceOnUse" x1="-1319.6753" y1="-840.0964" x2="-1367.2712" y2="-655.4415" gradientTransform="matrix(0.81 -0.58 -0.58 -0.81 794.32 -996.7)">
			<stop  offset="0" style="stop-color:#63BDEA"/>
			<stop  offset="1" style="stop-color:#FFFFFF"/>
		</linearGradient>
		<path class="st31" d="M140.1,380.5L133,389l10.2,10l8.4-7.2L140.1,380.5z"/>
		
			<linearGradient id="SVGID_14_" gradientUnits="userSpaceOnUse" x1="-1316.8376" y1="-839.3558" x2="-1364.4232" y2="-654.7112" gradientTransform="matrix(0.81 -0.58 -0.58 -0.81 794.32 -996.7)">
			<stop  offset="0" style="stop-color:#63BDEA"/>
			<stop  offset="1" style="stop-color:#FFFFFF"/>
		</linearGradient>
		<path class="st32" d="M162.4,399.3l-3.7,10.4l13,5.9l5.4-9.7C177.1,406,162.4,399.3,162.4,399.3z"/>
		
			<linearGradient id="SVGID_15_" gradientUnits="userSpaceOnUse" x1="-1303.865" y1="-836.0137" x2="-1351.4504" y2="-651.3587" gradientTransform="matrix(0.81 -0.58 -0.58 -0.81 794.32 -996.7)">
			<stop  offset="0" style="stop-color:#63BDEA"/>
			<stop  offset="1" style="stop-color:#FFFFFF"/>
		</linearGradient>
		<path class="st33" d="M189.8,409.4l0.1,11.1l14.2,1.1l1.8-10.9L189.8,409.4z"/>
		
			<linearGradient id="SVGID_16_" gradientUnits="userSpaceOnUse" x1="-1282.3994" y1="-830.4805" x2="-1329.9847" y2="-645.8256" gradientTransform="matrix(0.81 -0.58 -0.58 -0.81 794.32 -996.7)">
			<stop  offset="0" style="stop-color:#63BDEA"/>
			<stop  offset="1" style="stop-color:#FFFFFF"/>
		</linearGradient>
		<path class="st34" d="M218.9,409.5l3.8,10.4l13.8-3.8l-2.1-10.9L218.9,409.5z"/>
		
			<linearGradient id="SVGID_17_" gradientUnits="userSpaceOnUse" x1="-1255.0186" y1="-823.4189" x2="-1302.604" y2="-638.7639" gradientTransform="matrix(0.81 -0.58 -0.58 -0.81 794.32 -996.7)">
			<stop  offset="0" style="stop-color:#63BDEA"/>
			<stop  offset="1" style="stop-color:#FFFFFF"/>
		</linearGradient>
		<path class="st35" d="M246.4,399.7l7.2,8.4l11.6-8.3l-5.7-9.5L246.4,399.7z"/>
		
			<linearGradient id="SVGID_18_" gradientUnits="userSpaceOnUse" x1="-1225.9265" y1="-815.9268" x2="-1273.5118" y2="-631.2823" gradientTransform="matrix(0.81 -0.58 -0.58 -0.81 794.32 -996.7)">
			<stop  offset="0" style="stop-color:#63BDEA"/>
			<stop  offset="1" style="stop-color:#FFFFFF"/>
		</linearGradient>
		<path class="st36" d="M268.8,381l9.6,5.5l8.1-11.8l-8.6-7L268.8,381L268.8,381z"/>
		
			<linearGradient id="SVGID_19_" gradientUnits="userSpaceOnUse" x1="-1196.8765" y1="-808.4321" x2="-1244.462" y2="-623.7875" gradientTransform="matrix(0.81 -0.58 -0.58 -0.81 794.32 -996.7)">
			<stop  offset="0" style="stop-color:#63BDEA"/>
			<stop  offset="1" style="stop-color:#FFFFFF"/>
		</linearGradient>
		<path class="st37" d="M283.5,355.8l10.9,1.9l3.6-13.8l-10.5-3.6L283.5,355.8z"/>
		
			<linearGradient id="SVGID_20_" gradientUnits="userSpaceOnUse" x1="-1172.2235" y1="-802.0808" x2="-1219.8091" y2="-617.4363" gradientTransform="matrix(0.81 -0.58 -0.58 -0.81 794.32 -996.7)">
			<stop  offset="0" style="stop-color:#63BDEA"/>
			<stop  offset="1" style="stop-color:#FFFFFF"/>
		</linearGradient>
		<path class="st38" d="M288.7,327.1l10.9-2l-1.4-14.2l-11.1,0.1L288.7,327.1L288.7,327.1z"/>
		
			<linearGradient id="SVGID_21_" gradientUnits="userSpaceOnUse" x1="-1154.9603" y1="-797.6295" x2="-1202.5563" y2="-612.985" gradientTransform="matrix(0.81 -0.58 -0.58 -0.81 794.32 -996.7)">
			<stop  offset="0" style="stop-color:#63BDEA"/>
			<stop  offset="1" style="stop-color:#FFFFFF"/>
		</linearGradient>
		<path class="st39" d="M283.7,298.3l9.6-5.6l-6.2-12.9l-10.4,3.9L283.7,298.3z"/>
		
			<linearGradient id="SVGID_22_" gradientUnits="userSpaceOnUse" x1="-1147.1516" y1="-795.6247" x2="-1194.7473" y2="-610.9697" gradientTransform="matrix(0.81 -0.58 -0.58 -0.81 794.32 -996.7)">
			<stop  offset="0" style="stop-color:#63BDEA"/>
			<stop  offset="1" style="stop-color:#FFFFFF"/>
		</linearGradient>
		<path class="st40" d="M269.2,273l7.1-8.5l-10.2-10l-8.4,7.2L269.2,273z"/>
		
			<linearGradient id="SVGID_23_" gradientUnits="userSpaceOnUse" x1="-1149.9941" y1="-796.356" x2="-1197.5898" y2="-611.7009" gradientTransform="matrix(0.81 -0.58 -0.58 -0.81 794.32 -996.7)">
			<stop  offset="0" style="stop-color:#63BDEA"/>
			<stop  offset="1" style="stop-color:#FFFFFF"/>
		</linearGradient>
		<path class="st41" d="M246.9,254.2l3.7-10.4l-13-5.9l-5.4,9.7L246.9,254.2z"/>
		
			<linearGradient id="SVGID_24_" gradientUnits="userSpaceOnUse" x1="-1162.9615" y1="-799.707" x2="-1210.5575" y2="-615.0416" gradientTransform="matrix(0.81 -0.58 -0.58 -0.81 794.32 -996.7)">
			<stop  offset="0" style="stop-color:#63BDEA"/>
			<stop  offset="1" style="stop-color:#FFFFFF"/>
		</linearGradient>
		<path class="st42" d="M219.6,244.1l-0.1-11.1l-14.2-1.1l-1.8,10.9L219.6,244.1z"/>
		
			<linearGradient id="SVGID_25_" gradientUnits="userSpaceOnUse" x1="-1184.4395" y1="-805.2299" x2="-1232.025" y2="-620.575" gradientTransform="matrix(0.81 -0.58 -0.58 -0.81 794.32 -996.7)">
			<stop  offset="0" style="stop-color:#63BDEA"/>
			<stop  offset="1" style="stop-color:#FFFFFF"/>
		</linearGradient>
		<path class="st43" d="M190.4,244l-3.8-10.4l-13.8,3.8l2.1,10.9L190.4,244z"/>
		
			<linearGradient id="SVGID_26_" gradientUnits="userSpaceOnUse" x1="-1233.3854" y1="-817.8534" x2="-1280.9813" y2="-633.1984" gradientTransform="matrix(0.81 -0.58 -0.58 -0.81 794.32 -996.7)">
			<stop  offset="0" style="stop-color:#63BDEA"/>
			<stop  offset="1" style="stop-color:#FFFFFF"/>
		</linearGradient>
		<path class="st44" d="M155.8,258.4c-37.7,27-46.4,79.4-19.5,117.1c27,37.7,79.4,46.4,117.1,19.5c37.7-27,46.4-79.4,19.5-117.1
			C246,240.2,193.6,231.5,155.8,258.4C155.9,258.4,155.9,258.4,155.8,258.4z M241.4,378.2c-28.4,20.3-67.8,13.7-88.1-14.7
			c-20.3-28.4-13.7-67.8,14.7-88.1c28.4-20.3,67.8-13.7,88.1,14.7c0,0,0,0,0,0C276.3,318.4,269.8,357.9,241.4,378.2z"/>
	</g>
	
		<linearGradient id="SVGID_27_" gradientUnits="userSpaceOnUse" x1="-10115.2881" y1="2405.8657" x2="-9930.165" y2="2405.8657" gradientTransform="matrix(0 -1 1 0 -2081.1299 -9744.6201)">
		<stop  offset="0" style="stop-color:#63BDEA"/>
		<stop  offset="1" style="stop-color:#FFFFFF"/>
	</linearGradient>
	<path class="st45" d="M342,208l17.3,22.5h-18.2v140.1h-32.8V230.5h-18.2l17.3-22.5l17.3-22.5L342,208L342,208z"/>
	
		<linearGradient id="SVGID_28_" gradientUnits="userSpaceOnUse" x1="-10040.4316" y1="2338.8125" x2="-9855.3193" y2="2338.8125" gradientTransform="matrix(0 -1 1 0 -2081.1299 -9744.6201)">
		<stop  offset="0" style="stop-color:#63BDEA"/>
		<stop  offset="1" style="stop-color:#FFFFFF"/>
	</linearGradient>
	<path class="st46" d="M274.9,133.2l17.3,22.5h-18.2v140.1h-32.7V155.7h-18.2l17.3-22.5l17.3-22.5L274.9,133.2L274.9,133.2z"/>
	
		<linearGradient id="SVGID_29_" gradientUnits="userSpaceOnUse" x1="-3861.7793" y1="184.1636" x2="-3674.9202" y2="184.1636" gradientTransform="matrix(-1 0 0 -1 -3488.5801 499)">
		<stop  offset="0" style="stop-color:#63BDEA"/>
		<stop  offset="1" style="stop-color:#FFFFFF"/>
	</linearGradient>
	<path class="st47" d="M201.6,339.5c-0.2-1.4-0.3-2.7-0.3-4.1c0-19,15.3-34.4,34.3-34.5c3.2,0,6.4,0.4,9.5,1.3
		c3.8-27.7,29.3-47,57-43.2c25.1,3.4,43.7,24.9,43.7,50.2v0.3c16.9,1.9,29.1,17.2,27.2,34.2c-1.8,15.6-15,27.4-30.7,27.4H203.4V371
		l-1.3,0.1c-8.7,0.1-15.9-6.8-16-15.5C185.9,346.9,192.9,339.7,201.6,339.5L201.6,339.5z"/>
	
		<linearGradient id="SVGID_30_" gradientUnits="userSpaceOnUse" x1="-5185.7002" y1="144.8494" x2="-4842.7524" y2="144.8494" gradientTransform="matrix(-1 0 0 -1 -4615.9199 499)">
		<stop  offset="0" style="stop-color:#63BDEA"/>
		<stop  offset="1" style="stop-color:#FFFFFF"/>
	</linearGradient>
	<path class="st48" d="M227.3,419c-3.1-19.1,9.9-37.1,29.1-40.2c5.7-0.9,11.5-0.4,17,1.5c5.8-40.2,43.1-68,83.3-62.1
		c1.8,0.3,3.6,0.6,5.4,1c33.3-36.9,90.2-39.9,127.1-6.6c13.4,12.1,22.9,27.9,27.2,45.5h0.2c29.2-0.3,53.1,23.2,53.4,52.4
		c0,2.9-0.2,5.7-0.6,8.6L227.3,419z"/>
	
		<linearGradient id="SVGID_31_" gradientUnits="userSpaceOnUse" x1="-10115.2881" y1="-2398.6084" x2="-9930.165" y2="-2398.6084" gradientTransform="matrix(6.123234e-17 -1 -1 -6.123234e-17 -1757.3101 -9744.6201)">
		<stop  offset="0" style="stop-color:#63BDEA"/>
		<stop  offset="1" style="stop-color:#FFFFFF"/>
	</linearGradient>
	<path class="st49" d="M624,208l-17.3,22.5h18.2v140.1h32.7V230.5h18.2L658.6,208l-17.3-22.5L624,208L624,208z"/>
	
		<linearGradient id="SVGID_32_" gradientUnits="userSpaceOnUse" x1="-10040.4316" y1="-2465.6616" x2="-9855.3193" y2="-2465.6616" gradientTransform="matrix(6.123234e-17 -1 -1 -6.123234e-17 -1757.3101 -9744.6201)">
		<stop  offset="0" style="stop-color:#63BDEA"/>
		<stop  offset="1" style="stop-color:#FFFFFF"/>
	</linearGradient>
	<path class="st50" d="M691.1,133.2l-17.3,22.5H692v140.1h32.8V155.7h18.2l-17.3-22.5l-17.3-22.5L691.1,133.2L691.1,133.2z"/>
	
		<linearGradient id="SVGID_33_" gradientUnits="userSpaceOnUse" x1="556.9202" y1="-1046.8229" x2="743.7793" y2="-1046.8229" gradientTransform="matrix(0.81 -0.58 -0.58 -0.81 794.32 -996.7)">
		<stop  offset="0" style="stop-color:#63BDEA"/>
		<stop  offset="1" style="stop-color:#FFFFFF"/>
	</linearGradient>
	<path class="st51" d="M752.4,378.5c0.2-1.4,0.3-2.7,0.3-4.1c0-19-15.3-34.4-34.3-34.5c-3.2,0-6.4,0.4-9.5,1.3
		c-3.6-27.7-29-47.2-56.7-43.6c-25.3,3.3-44.2,25-44,50.5v0.3c-16.9,1.9-29.1,17.2-27.2,34.2c1.8,15.6,15,27.4,30.7,27.4h138.9V410
		l1.3,0.1c8.7,0.1,15.9-6.8,16-15.5C768,385.8,761.1,378.7,752.4,378.5L752.4,378.5z"/>
	<path class="st5" d="M616.4,348.4h75.7v16.2h-75.7V348.4z"/>
	<path class="st15" d="M691.5,411.7h-74.6v-47.1h3.1v44h68.3v-44h3.1V411.7z M629.2,342h3.1v14h-3.1V342z M676.1,342h3.1v14h-3.1
		V342z M629.5,373.1h4v3.1h-4V373.1z M637,373.1h4v3.1h-4V373.1z M644.6,373.1h4v3.1h-4V373.1z M652.2,373.1h4v3.1h-4V373.1z
		 M659.8,373.1h4v3.1h-4V373.1z M667.4,373.1h4v3.1h-4V373.1z M674.9,373.1h4v3.1h-4V373.1z M629.5,380.9h4v3.1h-4V380.9z
		 M637,380.9h4v3.1h-4V380.9z M644.6,380.9h4v3.1h-4V380.9z M652.2,380.9h4v3.1h-4V380.9z M659.8,380.9h4v3.1h-4V380.9z
		 M667.4,380.9h4v3.1h-4V380.9z M674.9,380.9h4v3.1h-4V380.9z M629.5,388.7h4v3.1h-4V388.7z M637,388.7h4v3.1h-4V388.7z
		 M644.6,388.7h4v3.1h-4V388.7z M652.2,388.7h4v3.1h-4V388.7z M659.8,388.7h4v3.1h-4V388.7z M667.4,388.7h4v3.1h-4V388.7z
		 M674.9,388.7h4v3.1h-4V388.7z M629.5,396.5h4v3.1h-4V396.5z M637,396.5h4v3.1h-4V396.5z M644.6,396.5h4v3.1h-4V396.5z
		 M652.2,396.5h4v3.1h-4V396.5z M659.8,396.5h4v3.1h-4V396.5z M667.4,396.5h4v3.1h-4V396.5z M674.9,396.5h4v3.1h-4V396.5z"/>
	<path class="st14" d="M209.1,182.6l-2.4-15l-13.5,1c-1.7-4.7-4.2-9-7.5-12.8l7.2-12l-12.3-8.9l-8.8,10.3c-4.5-2.1-9.4-3.4-14.3-3.7
		l-3.4-13.5l-15,2.4l1,13.5c-4.7,1.7-9,4.2-12.8,7.5l-12-7.2l-8.9,12.3l10.3,8.8c-2.1,4.5-3.4,9.4-3.7,14.3l-13.5,3.4l2.4,15l13.5-1
		c1.7,4.7,4.2,9,7.5,12.8l-7.2,12l12.3,8.9l8.8-10.3c4.5,2.1,9.4,3.4,14.3,3.7l3.4,13.5l15-2.4l-1-13.5c4.7-1.7,9-4.2,12.8-7.5
		l12,7.2l8.9-12.3l-10.3-8.8c2.1-4.5,3.4-9.4,3.7-14.3L209.1,182.6z"/>
	<path class="st15" d="M153,153.5h3.1v5.9H153V153.5z M164.5,161.7l3-5.1l2.7,1.6l-3,5.1L164.5,161.7z M173.3,169.3l5.1-3l1.6,2.7
		l-5.1,3L173.3,169.3z M177.1,180.4h5.9v3.1h-5.9V180.4z M173.3,194.6l1.6-2.7l5.1,3l-1.6,2.7L173.3,194.6z M164.4,202.2l2.7-1.6
		l3,5.1l-2.7,1.6L164.4,202.2z M153,204.5h3.1v5.9H153V204.5z M138.9,205.8l3-5.1l2.7,1.6l-3,5.1L138.9,205.8z M129.1,194.8l5.1-3
		l1.6,2.7l-5.1,3L129.1,194.8z M126.1,180.4h5.9v3.1h-5.9V180.4z M129.1,169.1l1.6-2.7l5.1,3l-1.6,2.7L129.1,169.1z M139,158
		l2.7-1.6l3,5.1l-2.7,1.6L139,158z"/>
	<path class="st5" d="M154.9,182.6l-11.7-7.3l1.7-2.7l9.6,6l12.6-12.9l2.2,2.2L154.9,182.6z"/>
	<path class="st24" d="M212.4,346.1c0,9.8-17.7,36.5-17.7,36.5S177,355.9,177,346.1c0-9.8,7.9-17.7,17.7-17.7
		C204.5,328.4,212.4,336.3,212.4,346.1z"/>
	<circle class="st4" cx="194.7" cy="347.1" r="5.2"/>
	<path class="st4" d="M310.2,406.7c-0.1-1.2-0.2-2.5-0.2-3.7c0-17.1,13.8-31.1,31-31.1c2.9,0,5.8,0.4,8.6,1.2
		c3.5-25,26.5-42.4,51.5-38.9c22.5,3.1,39.3,22.4,39.3,45.1v0.3c15.3,1.7,26.3,15.5,24.5,30.8c-1.6,14.1-13.5,24.7-27.7,24.7H311.9
		v-0.1l-1.2,0.1c-7.9-0.1-14.2-6.5-14.1-14.3C296.6,413.2,302.6,407,310.2,406.7L310.2,406.7z M662.2,435.2
		c2.4-13.4-6.6-26.2-20-28.6c-1.6-0.3-3.3-0.4-4.9-0.4c-2.7,0-5.3,0.5-7.8,1.4c-3.8-25.7-25.8-44.7-51.8-44.7
		c-3.8,0-7.5,0.4-11.2,1.2c-23.7-26.2-64.2-28.3-90.4-4.6c-9.5,8.6-16.2,19.8-19.3,32.3h-0.1c-20.8-0.2-37.8,16.5-37.9,37.3
		c0,2,0.1,4.1,0.4,6.1L662.2,435.2z"/>
	<circle class="st4" cx="433.5" cy="368.3" r="66.9"/>
	<circle class="st4" cx="530.6" cy="392.3" r="41.5"/>
	<circle class="st4" cx="560.7" cy="322.5" r="13.3"/>
	<circle class="st4" cx="576.4" cy="374.5" r="23.7"/>
	<path class="st5" d="M548.4,153.7h2.6v3.1h-2.6V153.7z M612,127.5h2.6v3.1H612V127.5z M607.8,171.2h2.6v3.1h-2.6V171.2z
		 M426.9,109.9h2.6v3.1h-2.6V109.9z M365.6,171.2h2.6v3.1h-2.6V171.2z M767.9,119.2h2.6v3.1h-2.6V119.2z M553.9,99.1h2.6v3.1h-2.6
		V99.1z M452.6,150.6h2.6v3.1h-2.6V150.6z M358.3,70.4h2.6v3.1h-2.6V70.4z M422.6,186.5h3.7v3.1h-3.7V186.5z M422.1,275.1h2.3v3.1
		h-2.3V275.1z M358.6,302.9h3.7v3.1h-3.7V302.9z"/>
	<path class="st15" d="M503.2,262.1l3.1,0l0.2,28l-3.1,0L503.2,262.1z M534.4,270.6h3.1v76.6h-3.1V270.6z M461.3,282.1l3.1,0
		l0.3,44.6l-3.1,0L461.3,282.1z M433.2,426.5c-32.8,0-59.4-26.6-59.4-59.5h3.1c0,31.1,25.2,56.3,56.3,56.3
		c31.1,0,56.3-25.2,56.3-56.3c0,0,0,0,0-0.1v-75.3h3.1V367C492.6,399.8,466,426.4,433.2,426.5z"/>
	<path class="st5" d="M465.1,358.2c-10.3,0-18.6-8.3-18.6-18.6v0h3.1c0,8.6,6.9,15.5,15.5,15.5c8.6,0,15.5-6.9,15.5-15.5
		c0,0,0,0,0,0v-80.1h3.1v80.1C483.7,349.9,475.3,358.2,465.1,358.2L465.1,358.2z"/>
	<path class="st15" d="M433,410.9c-2,0-4-0.1-5.9-0.4c-25.6-4.1-43.1-28.1-39-53.7c3.9-24.4,26-41.6,50.7-39.4l-0.4,3.1
		c-24-3-45.9,14-48.9,38c-3,24,14,45.9,38,48.9c24,3,45.9-14,48.9-38c0,0,0-0.1,0-0.1l3.1,0.4C476.6,393.3,456.6,410.9,433,410.9
		L433,410.9z M432.5,395.2c-1.2,0-2.4-0.1-3.6-0.2c-15.6-2-26.6-16.2-24.7-31.8l3.1,0.4c-1.9,13.9,7.9,26.6,21.7,28.5
		c13.9,1.9,26.6-7.9,28.5-21.7c0-0.2,0-0.3,0.1-0.5l3.1,0.4C459.1,384.5,446.9,395.2,432.5,395.2L432.5,395.2z M535,407.3
		c-9.1,0-16.5-7.4-16.5-16.5V259.5h3.1v131.3c0,7.4,6,13.3,13.3,13.3s13.3-6,13.3-13.3l0,0h3.1C551.4,399.9,544.1,407.3,535,407.3
		C535,407.3,535,407.3,535,407.3L535,407.3z M503.5,304.1h3.1v79.6h-3.1V304.1z"/>
	<path class="st5" d="M534.4,421.7c-11.3,0-21.6-6.3-26.7-16.3l2.8-1.4c6.8,13.2,22.9,18.4,36.1,11.6c13.2-6.8,18.4-22.9,11.6-36.1
		c-4.9-9.5-15-15.3-25.7-14.5l-0.2-3.1c16.5-1.2,30.8,11.3,32,27.8c1.2,16.5-11.3,30.8-27.8,32C535.8,421.7,535.1,421.7,534.4,421.7
		L534.4,421.7z"/>
	<path class="st15" d="M597.5,342h-3.1v-52.1H611L582.4,258l-28.6,31.8h15.1v3.1h-22.1l35.6-39.6l35.7,39.6h-20.5V342z"/>
	<path class="st5" d="M377,247.5l-2.2-2.2l18.2-18.2l18.2,18.2l-2.2,2.2l-16-16L377,247.5z M391.5,229.3h3.1v71.9h-3.1V229.3z"/>
	<path class="st24" d="M313.1,162.1h23.7c0.2-2.2,0.7-5.2,2.1-7c8.7-11.3,9.3-22,9.3-22.7c0.3-12.8-9.9-23.4-22.7-23.7
		c-12.8-0.3-23.4,9.9-23.7,22.7c0,0.3,0,0.7,0,1c0,0.8,0.5,11.4,9.3,22.7C312.5,157,313,159.9,313.1,162.1z"/>
	<path class="st15" d="M312.6,136.9l3.1-0.6l4.6,25.5l-3.1,0.6L312.6,136.9z M329.6,161.8l4.6-25.5l3.1,0.6l-4.6,25.5L329.6,161.8z
		 M332.9,141.5h-1.6l-2.8-1.6l-2.8,1.6h-1.6l-2.7-1.6l-2.7,1.6h-1.6l-3.5-2.1l1.6-2.7l2.7,1.6l2.7-1.6h1.6l2.7,1.6l2.8-1.6h1.6
		l2.8,1.6l2.8-1.6l1.6,2.7L332.9,141.5z M311.6,160.8h26.8v3.1h-26.8V160.8z M311.6,167.9h26.8v3.1h-26.8V167.9z M316.2,175h17.5
		v3.1h-17.5V175z M316.6,162.7h3.1v6.2h-3.1V162.7z"/>
	<path class="st5" d="M319.7,448.3"/>
	<path class="st15" d="M318.1,442.2h3.1v6.1h-3.1V442.2z"/>
	<path class="st5" d="M333.6,448.3"/>
	<path class="st15" d="M332,442.2h3.1v6.1H332V442.2z"/>
	<path class="st5" d="M347.5,448.3"/>
	<path class="st15" d="M346,442.2h3.1v6.1H346V442.2z"/>
	<path class="st5" d="M361.5,448.3"/>
	<path class="st15" d="M359.9,442.2h3.1v6.1h-3.1V442.2z"/>
	<path class="st5" d="M375.4,448.3"/>
	<path class="st15" d="M373.8,442.2h3.1v6.1h-3.1V442.2z"/>
	<path class="st5" d="M389.3,448.3"/>
	<path class="st15" d="M387.8,442.2h3.1v6.1h-3.1V442.2z"/>
	<path class="st5" d="M403.3,448.3"/>
	<path class="st15" d="M401.7,442.2h3.1v6.1h-3.1V442.2z M773.3,207.8l-2.2-2.2l13.7-13.8l6.8,4.4l82.3-83.7l2.2,2.2l-84,85.5
		l-6.8-4.4L773.3,207.8L773.3,207.8z M695.3,220.5l21.5-13.9l1.7,2.6L697,223.1L695.3,220.5z"/>
	<path class="st52" d="M744.4,228.7"/>
	<path class="st15" d="M744.5,234.8c-16.2,0-29.4-13.2-29.4-29.4c0-16.2,13.2-29.4,29.4-29.4c16.2,0,29.4,13.2,29.4,29.4
		c0,7.8-3.1,15.3-8.6,20.8C759.7,231.7,752.3,234.8,744.5,234.8z M744.5,179c-14.5,0-26.3,11.8-26.3,26.3
		c0,14.5,11.8,26.3,26.3,26.3c0,0,0,0,0,0v1.6v-1.6c14.5,0,26.3-11.8,26.3-26.3C770.7,190.8,758.9,179.1,744.5,179L744.5,179z
		 M751.4,271.6h-13.9v-26.4h13.9V271.6z M740.6,268.5h7.7v-20.2h-7.7V268.5z M740.6,244.7h-3.1l0-6.9h14v6.9h-3.1v-3.8h-7.7
		L740.6,244.7z M743.3,232.1h3.1v5.9h-3.1V232.1z"/>
	<path class="st5" d="M737.6,217.4l-13.7-5.1l1.1-2.9l11.8,4.3l16.5-17.7l12.5,7.9l-1.7,2.6l-10.3-6.5L737.6,217.4L737.6,217.4z"/>
	<path class="st15" d="M691.6,178.9h6.1v3.1h-6.1V178.9z"/>
	<path class="st5" d="M691.6,194.4"/>
	<path class="st15" d="M691.6,192.9h6.1v3.1h-6.1V192.9z"/>
	<path class="st5" d="M691.6,208.4"/>
	<path class="st15" d="M691.6,206.8h6.1v3.1h-6.1V206.8z"/>
	<path class="st5" d="M691.6,222.3"/>
	<path class="st15" d="M691.6,220.7h6.1v3.1h-6.1V220.7z"/>
	<path class="st5" d="M691.6,236.2"/>
	<path class="st15" d="M691.6,234.7h6.1v3.1h-6.1V234.7z"/>
	<path class="st5" d="M691.6,250.2"/>
	<path class="st15" d="M691.6,248.6h6.1v3.1h-6.1V248.6z"/>
	<path class="st5" d="M691.6,264.1"/>
	<path class="st15" d="M691.6,262.6h6.1v3.1h-6.1V262.6z M877.9,125.3h-3.1v-12h-12v-3.1h15.1V125.3z"/>
	<path class="st53" d="M501.3,213.3c-12.2,0-22,14.7-22,32.9c0,2.3,0.2,4.5,0.5,6.7h43.1c0.3-2.2,0.5-4.5,0.5-6.7
		C523.3,228,513.4,213.3,501.3,213.3z M480.5,134.5c0,35.1-20,65.6-49.4,81.4l-2.6,2.2c-5.4,4.5-3.7,25.6-3.7,25.6h55.9V121.4
		c0,2.3-0.2,4.7-0.5,7C480.4,130.4,480.5,132.4,480.5,134.5z"/>
	<path class="st54" d="M480.8,175.4c-8.9,20.5-25.8,37.4-47.2,47.9l-2.8,2.2c-3.6,2.7-4.3,11.6-4.3,18.2h54.4V175.4z"/>
	<path class="st53" d="M522.1,134.5c0,35.1,20,65.6,49.4,81.4l2.6,2.2c5.4,4.5,3.7,25.6,3.7,25.6h-55.9V121.4c0,2.3,0.2,4.7,0.5,7
		C522.2,130.4,522.1,132.4,522.1,134.5z"/>
	<path class="st54" d="M521.8,175.4c8.9,20.5,25.8,37.4,47.2,47.9l2.8,2.2c3.6,2.7,4.3,11.6,4.3,18.2h-54.4V175.4z"/>
	<path class="st5" d="M523.2,243.6V117.3c0-11.6-9.5-49.1-21.9-55.3c-12.4,6.2-21.9,43.7-21.9,55.3v126.3H523.2z"/>
	<path class="st53" d="M485.6,87.8h31.3c-3.9-11.7-9.4-22.7-15.7-25.8C495.1,65.1,489.6,76.2,485.6,87.8z M514.8,108.8
		c-0.9,1.9-3.9,1.2-7.4,0c-4-1.4-8.4-1.4-12.5,0c-3.5,1.2-6.5,1.9-7.4,0c-0.9-1.8,1.3-6.2,5.8-7.7c5-1.8,10.5-1.8,15.6,0
		C513.5,102.6,515.7,106.9,514.8,108.8L514.8,108.8z M456.6,213.3c-5.3,0-9.6,14.7-9.6,32.9c0,2.3,0.1,4.6,0.2,6.7H466
		c0.1-2.2,0.2-4.4,0.2-6.7C466.2,228,461.9,213.3,456.6,213.3z M546,213.3c-5.3,0-9.6,14.7-9.6,32.9c0,2.3,0.1,4.6,0.2,6.7h18.9
		c0.1-2.2,0.2-4.4,0.2-6.7C555.6,228,551.3,213.3,546,213.3z"/>
	<path class="st15" d="M480.9,253h-3.1V117.3c0-5.6,2.2-17.8,6.4-30.2c3.4-10.1,9-22.9,16.4-26.5l1.4,2.8
		c-4.9,2.5-10.3,11.4-14.8,24.7c-4.1,11.9-6.2,23.9-6.2,29.1L480.9,253z"/>
	
		<linearGradient id="SVGID_34_" gradientUnits="userSpaceOnUse" x1="188.0769" y1="105.0021" x2="53.96" y2="105.0021" gradientTransform="matrix(1 0 0 -1 0 499)">
		<stop  offset="0" style="stop-color:#FFFFFF"/>
		<stop  offset="1" style="stop-color:#63BDEA"/>
	</linearGradient>
	<path class="st55" d="M186.5,392.4h1.6v3.1h-1.6V392.4z"/>
	
		<linearGradient id="SVGID_35_" gradientUnits="userSpaceOnUse" x1="188.0145" y1="92.5209" x2="55.5715" y2="92.5209" gradientTransform="matrix(1 0 0 -1 0 499)">
		<stop  offset="0" style="stop-color:#FFFFFF"/>
		<stop  offset="1" style="stop-color:#63BDEA"/>
	</linearGradient>
	<path class="st56" d="M131.5,420.5h-3.8v-3.1h3.1v1.6l1.1,1.1L131.5,420.5z M124.6,420.5h-3.1v-3.1h3.1V420.5z M118.4,420.5h-3.1
		v-3.1h3.1V420.5z M112.1,420.5H109v-3.1h3.1V420.5z M105.9,420.5h-3.1v-3.1h3.1V420.5z M99.7,420.5h-3.1v-3.1h3.1V420.5z
		 M93.4,420.5h-3.1v-3.1h3.1V420.5z M87.2,420.5h-3.1v-3.1h3.1V420.5z M80.9,420.5h-3.1v-3.1h3.1V420.5z M74.7,420.5h-3.1v-3.1h3.1
		V420.5z M68.5,420.5h-3.1v-3.1h3.1V420.5z M62.2,420.5h-3.1v-3.1h3.1V420.5z M134.7,417.8l-2.2-2.2l2.2-2.2l2.2,2.2L134.7,417.8z
		 M139.1,413.4l-2.2-2.2l1.8-2.3l2.2,2.2L139.1,413.4z M143.1,408.9l-2.2-2.2l2.2-2.2l2.2,2.2L143.1,408.9z M147.5,404.5l-2.2-2.2
		l2.2-2.2l2.2,2.2L147.5,404.5z M152,400.1l-2.2-2.2l2.2-2.2l2.2,2.2L152,400.1z M156.4,395.6L156.4,395.6l-0.6-0.1V395l-1.6-1.6
		l1-1h3v3.1L156.4,395.6L156.4,395.6z M183.4,395.6h-3.1v-3.1h3.1V395.6z M177.1,395.6H174v-3.1h3.1V395.6z M170.9,395.6h-3.1v-3.1
		h3.1V395.6z M164.6,395.6h-3.1v-3.1h3.1V395.6z"/>
	
		<linearGradient id="SVGID_36_" gradientUnits="userSpaceOnUse" x1="188.0769" y1="80.0501" x2="53.96" y2="80.0501" gradientTransform="matrix(1 0 0 -1 0 499)">
		<stop  offset="0" style="stop-color:#FFFFFF"/>
		<stop  offset="1" style="stop-color:#63BDEA"/>
	</linearGradient>
	<path class="st57" d="M54,417.4h1.6v3.1H54V417.4z"/>
	<circle class="st5" cx="193.2" cy="393.9" r="5.3"/>
	<path class="st15" d="M303.9,260.5l-2.2-2.2l12.2-12.2l12.2,12.2l-2.2,2.2l-10-10L303.9,260.5L303.9,260.5z M312.3,251.4h3.1v70.7
		h-3.1V251.4z M647,263.7l-2.2-2.2l12.2-12.2l12.2,12.2l-2.2,2.2l-10-10L647,263.7z M655.4,254.5h3.1v70.7h-3.1V254.5z M262.8,217.4
		l-2.2-2.2l12.2-12.2l12.2,12.2l-2.2,2.2l-10-10L262.8,217.4L262.8,217.4z M271.3,208.2h3.1v59.3h-3.1V208.2z"/>
	<path class="st5" d="M284.9,258.5h-3.1v-2h3.1V258.5z M284.9,253.5h-3.1v-3.1h3.1V253.5z M284.9,247.2h-3.1v-3.1h3.1V247.2z
		 M284.9,241h-3.1v-3.1h3.1V241z M284.9,234.7h-3.1v-3.1h3.1V234.7z M634.3,293h3.1v1.6h-3.1V293z M637.5,290h-3.1v-3h3.1V290z
		 M637.5,284h-3.1v-3h3.1V284z M637.5,278h-3.1v-3h3.1V278z M637.5,272h-3.1v-3h3.1V272z M637.5,266h-3.1v-3h3.1V266z M637.5,260.1
		h-3.1v-3h3.1V260.1z M637.5,254.1h-3.1v-3h3.1V254.1z M637.5,248.1h-3.1v-3h3.1V248.1z M637.5,242.1h-3.1v-3h3.1V242.1z
		 M637.5,236.1h-3.1v-3h3.1V236.1z M637.5,230.1h-3.1v-3h3.1V230.1z M637.5,224.1h-3.1v-3h3.1V224.1z M634.3,216.6h3.1v1.6h-3.1
		V216.6z"/>
</g>
<g>
	<g>
		<text transform="matrix(0.9485 0 0 1 481.8557 -43.8123)"><tspan x="0" y="0" class="st58" style="font-family:'FilsonProBold'; font-size:28.4916px; letter-spacing:-1.1;">m</tspan><tspan x="24.8" y="0" class="st58" style="font-family:'FilsonProBold'; font-size:28.4916px; letter-spacing:-1.1;">a</tspan><tspan x="42.1" y="0" class="st58" style="font-family:'FilsonProBold'; font-size:28.4916px;">r</tspan><tspan x="53.5" y="0" class="st58" style="font-family:'FilsonProBold'; font-size:28.4916px;">k</tspan><tspan x="69.5" y="0" class="st58" style="font-family:'FilsonProBold'; font-size:28.4916px;">e</tspan><tspan x="86.4" y="0" class="st58" style="font-family:'FilsonProBold'; font-size:28.4916px;">t</tspan><tspan x="98.9" y="0" class="st58" style="font-family:'FilsonProBold'; font-size:28.4916px; letter-spacing:-1.1;">p</tspan><tspan x="116.6" y="0" class="st58" style="font-family:'FilsonProBold'; font-size:28.4916px;">l</tspan><tspan x="123.8" y="0" class="st58" style="font-family:'FilsonProBold'; font-size:28.4916px; letter-spacing:-1.1;">a</tspan><tspan x="141.4" y="0" class="st58" style="font-family:'FilsonProBold'; font-size:28.4916px; letter-spacing:-1.1;">c</tspan><tspan x="156" y="0" class="st58" style="font-family:'FilsonProBold'; font-size:28.4916px; letter-spacing:-1.1;">e</tspan></text>
	</g>
	<g>
		<g>
			<rect x="664.6" y="-157.4" class="st5" width="60.9" height="90"/>
		</g>
		<g>
			<g>
				<path class="st59" d="M724.3-68.3h-58.6v-88.1h58.6v19h7v-25.4c0-5.1-4.2-9.3-9.3-9.3h-53.9c-5.2,0-9.3,4.2-9.3,9.3v109.5
					c0,5.1,4.2,9.3,9.3,9.3H722c5.1,0,9.3-4.2,9.3-9.3v-41.1h-7V-68.3z M715.8-166.3c1.3,0,2.4,1.1,2.4,2.4c0,1.3-1.1,2.4-2.4,2.4
					c-1.3,0-2.4-1.1-2.4-2.4C713.5-165.2,714.5-166.3,715.8-166.3z M682.5-165.4h25v2.7h-25V-165.4z M706.4-54h-22.8v-7h22.8V-54z"
					/>
			</g>
		</g>
		<g>
			<g>
				<path class="st60" d="M739.2-134.1h-44.1c-2.7,0-4.6,1.9-4.6,4.6v26.4c0,2.7,1.9,5,4.6,5h4.2l-5.2,14.9l18.1-14.9h27
					c2.7,0,5.3-2.3,5.3-5v-26.4C744.5-132.2,741.9-134.1,739.2-134.1z M695.2-122.5h2.3v13.2h-2.3V-122.5z M701.1-103.3v0.4v0.9h-1
					h-2h-0.7c-1.2,0-2.2-0.9-2.2-2.1v-0.4v-2.1v-0.9h1h0.4h1v0.9v1.4c0,0.6,0.5,1.1,1.1,1.1h1.4h1V-103.3z M701.1-128.8v0.4v0.9h-1
					h-1.4c-0.6,0-1.1,0.5-1.1,1.1v1.3v0.9h-1h-0.4h-1v-0.9v-0.9v-1.7c0-1.2,1-2.1,2.2-2.1h1.1h1.6h1V-128.8z M708.9-102h-5.8v-2.2
					h5.8V-102z M708.9-127.5h-5.8v-2.2h5.8V-127.5z M716.8-102H711v-2.2h5.8V-102z M716.8-127.5H711v-2.2h5.8V-127.5z M724.8-102
					h-5.8v-2.2h5.8V-102z M724.8-127.5h-5.8v-2.2h5.8V-127.5z M732.4-102h-5.8v-2.2h5.8V-102z M732.4-127.5h-5.8v-2.2h5.8V-127.5z
					 M740.2-106.6v1.6v0.9c0,1.2-1,2.1-2.2,2.1h-0.6h-2.1h-1v-0.9v-0.4v-0.9h1h1.4c0.6,0,1.1-0.5,1.1-1.1v-1.4v-0.9h1h0.4h1V-106.6z
					 M740.2-109.2h-2.3v-13.2h2.3V-109.2z M740.2-126.4v1.2v0.9h-1h-0.4h-1v-0.9v-0.3v-0.7c0-0.8-0.1-1.4-1.1-1.4h-1.4h-1v-0.9v-0.4
					v-0.9h1h2.7h0.1l0,0c1.2,0.1,2.1,1,2.1,2.1V-126.4z"/>
			</g>
		</g>
	</g>
	<g>
		<g>
			<g>
				<path class="st60" d="M502.7-152.7c0,0-0.4-0.2-1-0.6c-0.6-0.4-1.5-0.9-2.6-1.3c-1.1-0.4-2.2-0.7-3.3-0.7
					c-1.1,0-2.2,0.2-3.3,0.6c-1.1,0.4-1.9,0.8-2.6,1.2c-0.6,0.4-1,0.6-1,0.6c-0.3,0-1.1-0.6-2.4-1.9c-1.3-1.3-1.9-2.1-1.9-2.4
					c0-0.2,0.1-0.4,0.3-0.6c1.3-1.3,3-2.3,5-3c2-0.7,4-1.1,5.9-1.1s3.9,0.4,5.9,1.2c2,0.8,3.6,1.8,4.9,3.1c0.2,0.2,0.3,0.4,0.2,0.6
					c0,0.3-0.6,1.1-1.9,2.3C503.8-153.3,503-152.7,502.7-152.7z M509.7-159.6c-0.2,0-0.4-0.1-0.6-0.2c-2.3-1.8-4.4-3.1-6.3-4
					c-2-0.9-4.2-1.3-6.8-1.3c-1.4,0-2.9,0.2-4.3,0.5c-1.4,0.4-2.7,0.8-3.8,1.3s-2,1-2.9,1.5c-0.9,0.5-1.5,1-2,1.3s-0.8,0.5-0.8,0.5
					c-0.3,0-1.1-0.6-2.3-1.9c-1.3-1.3-1.9-2.1-1.9-2.4c0-0.2,0.1-0.4,0.3-0.6c2.3-2.2,5-3.9,8.2-5.1c3.2-1.2,6.4-1.8,9.7-1.8
					c3.2,0,6.5,0.7,9.6,2s5.9,3,8.1,5.3c0.2,0.2,0.3,0.4,0.2,0.6c0,0.3-0.6,1.1-1.9,2.3C510.7-160.2,509.9-159.5,509.7-159.6
					L509.7-159.6z M516.6-166.4c-0.2,0-0.4-0.1-0.6-0.2c-3-2.7-6.1-4.7-9.4-6.1c-3.2-1.4-6.8-2.1-10.6-2.1c-3.9,0-7.4,0.6-10.7,1.9
					c-3.3,1.3-6.4,3.3-9.5,5.9c-0.2,0.2-0.4,0.2-0.6,0.2c-0.3,0-1.1-0.6-2.3-1.9c-1.3-1.3-1.9-2.1-1.9-2.4c0-0.2,0.1-0.4,0.3-0.6
					c3.2-3.1,7-5.5,11.4-7.2c4.4-1.7,8.8-2.5,13.4-2.4c4.5,0,9,1,13.3,2.7c4.3,1.8,8.1,4.2,11.2,7.4c0.2,0.2,0.3,0.4,0.2,0.6
					c0,0.3-0.6,1.1-1.9,2.3C517.7-167,516.9-166.3,516.6-166.4z"/>
				<circle class="st60" cx="495.9" cy="-147" r="4.7"/>
			</g>
		</g>
		<g>
			<polygon class="st61" points="483.7,-101.9 483.7,-101.2 483.7,-71.3 508.3,-71.3 508.3,-94 508.3,-94.7 508.3,-135.6 
				483.7,-135.6 			"/>
			<path class="st61" d="M581-113.1c0-0.2,0-0.4,0-0.7c-0.1-2.9-0.4-5.5-1-7.9l-9.2,0.1c0.4-2.9,1-7.3,1.6-11.7
				c-3.5-2.4-7.9-3.7-13.2-3.7c-5,0-9.3,0.9-12.8,2.8s-7,4.9-10.4,9.2v-10.5h-22.9v43.2v0.7v20.4h24.7v-13.1v-0.7v-17.1
				c0-5.9,0.9-9.9,2.8-12.2c1.8-2.3,4.3-3.4,7.3-3.4c2.7,0,4.8,0.9,6.3,2.5c1.5,1.7,2.2,4.6,2.2,8.6v13.2v0.7v21.5h12.1
				c0.7-5.9,2.4-11.5,5.3-17.1c1.7-3.1,4.1-6.6,7.3-10.3v-13.4C581.1-112.5,581-112.8,581-113.1"/>
		</g>
		<path class="st61" d="M607.4-91.4c2.3-2.2,4.2-4,5.9-5.4c1.7-1.4,5-3.8,10-7.2c6-4.2,10.7-8.2,14-12c0.2-0.2,0.3-0.3,0.5-0.5
			c1.1-1.3,2.1-2.5,2.8-3.7c3.1-4.9,4.8-10.1,4.8-15.5c0-5.1-1.4-9.7-4.2-13.8c-2.8-4.1-6.6-7.2-11.4-9.1s-11.6-3-20.3-3
			c-8.3,0-14.8,1-19.5,3.1c-4.7,2.1-8.3,5.1-10.9,8.9c-2.6,3.9-4.3,18.8-5.3,25.7l24.7-0.1c0.7-5,2-15.9,4-17.9c2-2,4.6-3,7.7-3
			c3,0,5.5,1,7.5,2.9c2,1.9,3,4.2,3,6.9c0,2.5-1,5.1-3,7.9c-1.1,1.6-3.1,3.5-5.9,5.9c-0.3,0.2-0.5,0.4-0.8,0.7
			c-2,1.7-4.4,3.6-7.2,5.6c-11.8,8.8-19.9,16.4-24.2,22.8c-4.3,6.4-6.9,13.3-7.7,20.6h74v-20.1L607.4-91.4L607.4-91.4z"/>
	</g>
</g>
</svg>
