<svg xmlns="http://www.w3.org/2000/svg" xmlns:xlink="http://www.w3.org/1999/xlink" viewBox="0 0 1000 500"><defs><style>.a{fill:url(#a);}.b,.d,.i,.k,.m,.q{opacity:0.5;}.c{fill:#5eb4e7;}.d{fill:url(#b);}.e{fill:#cfeaf9;}.f{fill:#2e95d1;}.g,.r{fill:#fff;}.h{opacity:0.35;}.i{fill:url(#c);}.j{opacity:0.2;}.k{fill:url(#d);}.l{fill:#282d33;}.m{fill:url(#e);}.n{fill:#f8c44f;}.o{fill:url(#f);}.p{fill:#97d3f1;}.q{fill:url(#g);}.r{stroke:#282d33;stroke-width:3px;}.s{fill:url(#h);}</style><radialGradient id="a" cx="434" cy="66" r="522.3" gradientTransform="translate(0 225)" gradientUnits="userSpaceOnUse"><stop offset="0" stop-color="#22b573"/><stop offset="1" stop-color="#0071bc"/></radialGradient><linearGradient id="b" x1="580.97" y1="320.17" x2="701.82" y2="320.17" gradientUnits="userSpaceOnUse"><stop offset="0" stop-color="#63bdea"/><stop offset="1" stop-color="#fff"/></linearGradient><linearGradient id="c" x1="716.97" y1="320.17" x2="837.82" y2="320.17" xlink:href="#b"/><linearGradient id="d" x1="852.97" y1="320.17" x2="973.82" y2="320.17" xlink:href="#b"/><linearGradient id="e" x1="821.32" y1="190.57" x2="821.32" y2="51.6" xlink:href="#b"/><linearGradient id="f" x1="286.72" y1="103.87" x2="231.72" y2="165.88" xlink:href="#b"/><linearGradient id="g" x1="46.19" y1="182.2" x2="241" y2="182.2" xlink:href="#b"/><linearGradient id="h" x1="523.27" y1="437.98" x2="523.27" y2="509.33" gradientUnits="userSpaceOnUse"><stop offset="0" stop-color="#fff"/><stop offset="1" stop-color="#63bdea"/></linearGradient></defs><title>img-banner-Success-Blue</title><path class="a" d="M0 0h1000v500h-1000v-500z"/><g class="b"><path class="c" d="M580.97 292.45h120.85v70.47h-120.85z"/><path class="d" d="M701.82 302.43v-9.98h-120.85v55.45l120.85-45.47z"/><path class="e" d="M580.97 363.89h120.85v70.37h-120.85z"/><path class="f" d="M592.43 373.73h69.32v4.63h-69.32z"/><path class="c" d="M592.43 383.65h79.08v3.47h-79.08zM592.09 391.76h69.05v3.48h-69.05z"/><path class="f" d="M591.3 405.45h45.2v12.36h-45.2z"/><path class="g" d="M601.53 409.89h24.75v3.48h-24.75z"/></g><g class="h"><path class="c" d="M716.97 292.45h120.85v70.47h-120.85z"/><path class="i" d="M837.82 302.43v-9.98h-120.85v55.45l120.85-45.47z"/><path class="e" d="M716.97 363.89h120.85v70.37h-120.85z"/><path class="f" d="M728.43 373.73h69.32v4.63h-69.32z"/><path class="c" d="M728.43 383.65h79.08v3.47h-79.08zM728.1 391.76h69.05v3.48h-69.05z"/><path class="f" d="M727.3 405.45h45.2v12.36h-45.2z"/><path class="g" d="M737.53 409.89h24.75v3.48h-24.75z"/></g><g class="j"><path class="c" d="M852.97 292.45h120.85v70.47h-120.85z"/><path class="k" d="M973.82 302.43v-9.98h-120.85v55.45l120.85-45.47z"/><path class="e" d="M852.97 363.89h120.85v70.37h-120.85z"/><path class="f" d="M864.43 373.73h69.32v4.63h-69.32z"/><path class="c" d="M864.43 383.65h79.08v3.47h-79.08zM864.1 391.76h69.05v3.48h-69.05z"/><path class="f" d="M863.3 405.45h45.2v12.36h-45.2z"/><path class="g" d="M873.53 409.89h24.75v3.48h-24.75z"/></g><path class="l" d="M664.66 240.95h-4v-3h4v3zm-8 0h-4v-3h4v3zm-8 0h-4v-3h4v3zm-8 0h-4v-3h4v3zm-8 0h-4v-3h4v3zm-8 0h-4v-3h4v3zm-8 0h-4v-3h4v3zm-8 0h-4v-3h4v3zm-8 0h-4v-3h4v3zm-8 0h-4v-3h4v3zm-8 0h-4v-3h4v3zm-8 0h-4v-3h4v3zm-8 0h-4v-3h4v3zm-8 0h-4v-3h4v3zm-8 0h-4v-3h4v3zm-8 0h-4v-3h4v3zm-8 0h-4v-3h4v3zm-8 0h-4v-3h4v3zm-8 0h-4v-3h4v3zm-8 0h-4v-3h4v3zm-8 0h-4v-3h4v3zm-8 0h-4v-3h4v3zm-8 0h-4v-3h4v3zm-8 0h-4v-3h4v3zm-8 0h-4v-3h4v3zm-8 0h-4v-3h4v3zm-8 0h-4v-3h4v3zm-8 0h-4v-3h4v3zm-8 0h-4v-3h4v3zm-8 0h-4v-3h4v3zm-8 0h-4v-3h4v3zm-8 0h-4v-3h4v3zm-8 0h-4v-3h4v3zm-8 0h-4v-3h4v3zm-8 0h-4v-3h4v3zm-8 0h-4v-3h4v3zm-8 0h-4v-3h4v3zm-8 0h-4v-3h4v3zm-8 0h-4v-3h4v3zm-8 0h-4v-3h4v3zm-8 0h-4v-3h4v3zm-8 0h-4v-3h4v3zm-8 0h-4v-3h4v3zm-8 0h-4v-3h4v3zm-8 0h-4v-3h4v3zm-8 0h-4v-3h4v3zm-8 0a25 25 0 0 1-4.22-.49l.6-2.94a22 22 0 0 0 3.71.44zm371.83 0l-.1-3a22.06 22.06 0 0 0 3.71-.44l.61 2.94a25 25 0 0 1-4 .48zm-380.13-1.7a24.84 24.84 0 0 1-3.81-1.89l1.56-2.56a21.89 21.89 0 0 0 3.35 1.66zm388.41 0l-1.1-2.79a21.89 21.89 0 0 0 3.34-1.66l1.56 2.56a24.91 24.91 0 0 1-3.57 1.85zm-395.65-4.37a25.14 25.14 0 0 1-3-3l2.32-1.9a22.12 22.12 0 0 0 2.6 2.68zm402.87 0l-2-2.26a22.11 22.11 0 0 0 2.6-2.69l2.33 1.89a25.1 25.1 0 0 1-2.7 2.99zm-407.99-6.59a24.89 24.89 0 0 1-1.77-3.86l2.82-1a21.88 21.88 0 0 0 1.55 3.39zm413.57 0l-2.61-1.47a21.79 21.79 0 0 0 1.55-3.4l2.83 1a24.82 24.82 0 0 1-1.78 3.83zm-416.42-7.93a25.17 25.17 0 0 1-.37-4.23h3a22.15 22.15 0 0 0 .32 3.72zm419.25-.05l-3-.51a22.14 22.14 0 0 0 .31-3.72l3-.11v.03a25.1 25.1 0 0 1-.32 4.27zm-416.31-7.91l-3-.5a24.82 24.82 0 0 1 1.06-4.11l2.83 1a21.81 21.81 0 0 0-.9 3.57zm413.34-.14a21.78 21.78 0 0 0-1-3.61l2.82-1a24.77 24.77 0 0 1 1.09 4.11zm-410.87-6.88l-2.62-1.47a25.05 25.05 0 0 1 2.38-3.51l2.33 1.89a22.06 22.06 0 0 0-2.1 3.05zm408.35-.12a22 22 0 0 0-2.12-3.08l2.32-1.9a25 25 0 0 1 2.41 3.5zm-403.66-5.67l-2-2.26a25 25 0 0 1 3.42-2.52l1.57 2.56a22 22 0 0 0-3 2.19zm398.93-.09a22 22 0 0 0-3-2.2l1.55-2.57a25.07 25.07 0 0 1 3.44 2.5zm-392.59-3.8l-1.11-2.79a24.81 24.81 0 0 1 4.07-1.23l.62 2.94a21.77 21.77 0 0 0-3.58 1.05zm386.21-.05a21.78 21.78 0 0 0-3.58-1.05l.6-2.94a24.78 24.78 0 0 1 4.08 1.2zm-378.93-1.48l-.11-3h4.05v3h-3.94zm371.63 0h-4v-3h4zm-7.95 0h-4v-3h4v3zm-8 0h-4v-3h4v3zm-8 0h-4v-3h4v3zm-8 0h-4v-3h4v3zm-8 0h-4v-3h4v3zm-8 0h-4v-3h4v3zm-8 0h-4v-3h4v3zm-8 0h-4v-3h4v3zm-8 0h-4v-3h4v3zm-8 0h-4v-3h4v3zm-8 0h-4v-3h4v3zm-8 0h-4v-3h4v3zm-8 0h-4v-3h4v3zm-8 0h-4v-3h4v3zm-8 0h-4v-3h4v3zm-8 0h-4v-3h4v3zm-8 0h-4v-3h4v3zm-8 0h-4v-3h4v3zm-8 0h-4v-3h4v3zm-8 0h-4v-3h4v3zm-8 0h-4v-3h4v3zm-8 0h-4v-3h4v3zm-8 0h-4v-3h4v3zm-8 0h-4v-3h4v3zm-8 0h-4v-3h4v3zm-8 0h-4v-3h4v3zm-8 0h-4v-3h4v3zm-8 0h-4v-3h4v3zm-8 0h-4v-3h4v3zm-8 0h-4v-3h4v3zm-8 0h-4v-3h4v3zm-8 0h-4v-3h4v3zm-8 0h-4v-3h4v3zm-8 0h-4v-3h4v3zm-8 0h-4v-3h4v3zm-8 0h-4v-3h4v3zm-8 0h-4v-3h4v3zm-8 0h-4v-3h4v3zm-8 0h-4v-3h4v3zm-8 0h-4v-3h4v3zm-8 0h-4v-3h4v3zm-8 0h-4v-3h4v3zm-8 0h-4v-3h4v3zm-8 0h-4v-3h4v3zm-8 0h-4v-3h4v3zM669.06 221.92a7.18 7.18 0 1 1 7.18-7.18 7.19 7.19 0 0 1-7.18 7.18zm0-11.35a4.18 4.18 0 1 0 4.18 4.18 4.18 4.18 0 0 0-4.18-4.18zM667.56 202.48h3v5.37h-3zM667.56 221.64h3v5.37h-3zM657.696 209.936l1.5-2.598 4.65 2.685-1.5 2.598zM674.292 219.52l1.5-2.598 4.65 2.685-1.5 2.598zM657.682 219.614l4.65-2.685 1.5 2.598-4.65 2.685zM674.278 210.028l4.65-2.685 1.5 2.598-4.65 2.685z"/><path class="f" d="M333.94 262.92l11.57-11.57-9.43-11.15a44.32 44.32 0 0 0 6.45-14.57l15-1.25v-16.38l-14.53-1.19a44.35 44.35 0 0 0-5.76-14.81l9.76-11.53-11.61-11.57-11.14 9.43a44.28 44.28 0 0 0-14.57-6.45l-1.25-15h-16.36l-1.21 14.54a44.3 44.3 0 0 0-14.86 5.75l-11.49-9.72-11.58 11.55 9.43 11.14a44.24 44.24 0 0 0-6.45 14.57l-15 1.25v16.37l14.54 1.21a44.29 44.29 0 0 0 5.75 14.86l-9.72 11.49 11.57 11.57 11.15-9.46a44.34 44.34 0 0 0 14.57 6.45l1.25 15h16.37l1.21-14.45a44.3 44.3 0 0 0 14.86-5.75zm-47.55-34.92a18.15 18.15 0 1 1 25.67 0 18.15 18.15 0 0 1-25.67 0z"/><path class="g" d="M813.19 303.76l-.05-3c1.29 0 2.6-.1 3.87-.22l.29 3c-1.35.12-2.74.2-4.11.22zm-4.11-.08l-1.08-.08c-1-.08-2-.19-3-.32l.41-3c.93.13 1.88.23 2.81.31l1.05.07zm12.3-.7l-.52-3c1.27-.22 2.55-.5 3.79-.82l.75 2.9c-1.32.38-2.67.68-4.02.94zm-20.45-.41c-1.34-.29-2.68-.64-4-1l.86-2.87c1.23.37 2.5.7 3.76 1zm28.41-1.65l-1-2.84c1.22-.42 2.44-.89 3.62-1.41l1.2 2.75c-1.24.58-2.53 1.05-3.82 1.5zm-36.34-.73c-1.28-.5-2.55-1-3.78-1.64l1.3-2.7c1.16.56 2.36 1.08 3.56 1.55zm43.83-2.55l-1.36-2.64c1.14-.6 2.26-1.26 3.35-2l1.61 2.53c-1.15.78-2.35 1.47-3.55 2.11zm-51.24-1q-.78-.45-1.54-.93l1.6-2.54q.71.45 1.45.88zm58.18-3.39l-1.8-2.4c1-.77 2-1.6 3-2.45l2 2.25c-.97.89-2.06 1.76-3.15 2.58zm6.23-5.45l-2.15-2.09c.9-.92 1.77-1.89 2.6-2.88l2.31 1.92c-.89 1.05-1.81 2.07-2.76 3.05zm5.26-6.32l-2.45-1.73c.75-1.06 1.46-2.15 2.12-3.25l2.58 1.54c-.7 1.16-1.46 2.32-2.25 3.44zm4.22-7.06l-2.69-1.33c.57-1.15 1.1-2.35 1.58-3.54l2.79 1.12c-.51 1.26-1.08 2.52-1.68 3.75zm3.06-7.64l-2.86-.89c.38-1.23.72-2.49 1-3.75l2.92.67c-.3 1.33-.66 2.67-1.06 3.97zm1.83-8l-3-.44c.16-1.1.29-2.23.38-3.34v-.52l3 .21v.55c-.08 1.16-.21 2.35-.38 3.52zm-2.43-8.18c0-1.29-.07-2.59-.18-3.88l3-.26c.12 1.36.18 2.74.19 4.11zm-.66-7.73c-.21-1.27-.47-2.55-.78-3.8l2.91-.72c.33 1.32.61 2.68.83 4zm-1.86-7.52c-.41-1.22-.87-2.44-1.37-3.63l2.76-1.17c.53 1.26 1 2.55 1.45 3.85zm-3-7.14c-.59-1.14-1.24-2.28-1.92-3.38l2.55-1.58c.72 1.16 1.4 2.36 2 3.58zm-4.09-6.59c-.76-1-1.57-2.06-2.41-3l2.27-2c.89 1 1.75 2.12 2.56 3.22zm-5.06-5.88c-.91-.91-1.88-1.8-2.86-2.63l1.95-2.28c1 .89 2.06 1.82 3 2.79zm-5.91-5c-1-.76-2.13-1.48-3.23-2.15l1.57-2.56c1.16.71 2.32 1.48 3.42 2.28zm-6.62-4c-1.15-.59-2.34-1.13-3.53-1.62l1.15-2.77c1.26.52 2.52 1.1 3.74 1.72zm-7.17-3c-1.22-.4-2.48-.75-3.73-1l.7-2.92c1.33.32 2.66.69 4 1.11zm-7.57-1.88c-1.27-.2-2.57-.36-3.85-.46l.24-3c1.36.11 2.74.27 4.08.49zM661 232.73a18.21 18.21 0 0 1-3.79-2.13l1.77-2.42a15.2 15.2 0 0 0 3.16 1.78zm-7-5.1a18.36 18.36 0 0 1-2.39-3.63l2.68-1.34a15.33 15.33 0 0 0 2 3zm-3.86-7.72a18.25 18.25 0 0 1-.45-4v-.28h3v.24a15.22 15.22 0 0 0 .38 3.38zm3-7.88l-2.91-.75a18.15 18.15 0 0 1 1.58-4.05l2.64 1.42a15.16 15.16 0 0 0-1.2 3.35zm3.41-6.36l-2.23-2a18.41 18.41 0 0 1 3.26-2.87l1.7 2.47a15.42 15.42 0 0 0-2.62 2.4zm5.95-4.09l-1.07-2.8a18.14 18.14 0 0 1 4.22-1.05l.37 3a15.18 15.18 0 0 0-3.42.85zM818.92 201.6h-3.74v-3h3.74zm-7.74 0h-4v-3h4zm-8 0h-4v-3h4zm-8 0h-4v-3h4zm-8 0h-4v-3h4zm-8 0h-4v-3h4zm-8 0h-4v-3h4zm-8 0h-4v-3h4zm-8 0h-4v-3h4zm-8 0h-4v-3h4zm-8 0h-4v-3h4zm-8 0h-4v-3h4zm-8 0h-4v-3h4zm-8 0h-4v-3h4zm-8 0h-4v-3h4zm-8 0h-4v-3h4zm-8 0h-4v-3h4zm-8 0h-4v-3h4zm-8 0h-4v-3h4zM785.67 296.79l-3.56-1.79 1.37-2.67 3.56 1.83zm-7.11-3.66l-3.56-1.83 1.37-2.67 3.56 1.83zm-7.11-3.66l-3.56-1.83 1.37-2.67 3.56 1.83zm-7.11-3.66l-3.57-1.81 1.37-2.67 3.56 1.83zm-7.11-3.66l-3.56-1.83 1.37-2.67 3.56 1.83zm-7.11-3.66l-3.56-1.83 1.37-2.67 3.56 1.83zm-7.12-3.67l-3.56-1.82 1.37-2.67 3.56 1.83zm-7.11-3.66l-3.56-1.83 1.37-2.67 3.56 1.83zm-7.11-3.66l-3.56-1.83 1.37-2.67 3.56 1.83zm-7.11-3.66l-3.57-1.84 1.37-2.67 3.56 1.83zm-7.11-3.66l-3.56-1.85 1.37-2.67 3.56 1.83zm-7.11-3.66l-3.56-1.83 1.37-2.67 3.56 1.83zm-7.11-3.66l-3.58-1.86 1.37-2.67 3.56 1.83zm-7.11-3.66l-3.56-1.83 1.37-2.67 3.56 1.83zm-7.11-3.66l-3.56-1.83 1.37-2.67 3.56 1.83zm-7.12-3.69l-3.57-1.85 1.37-2.67 3.56 1.83zm-7.11-3.66l-3.56-1.83 1.37-2.67 3.56 1.83zm-7.11-3.66l-2.56-1.32 1.37-2.67 2.56 1.32zM307.45 283.97h2v3h-2zM411.84 353.64h-1.76v-3h1.76c.72 0 1.44 0 2.16-.07l.2 3c-.78.04-1.57.07-2.36.07zm-5.78 0h-4v-3h4v3zm-8 0h-4v-3h4v3zm-8 0h-4v-3h4v3zm-8 0h-4v-3h4v3zm-8 0h-4v-3h4v3zm-8 0h-4v-3h4v3zm-8 0h-4v-3h4v3zm-8 0h-4v-3h4v3zm-8 0h-4v-3h4v3zm-8 0h-4v-3h4v3zm-8 0h-4v-3h4v3zm-8 0h-4v-3h4v3zm-8 0h-4v-3h4v3zm-8 0h-4v-3h4v3zm-8 0h-4v-3h4v3zm-8 0h-4v-3h4v3zm-8 0h-4v-3h4v3zm-8 0h-4v-3h4v3zm-8 0h-4v-3h4v3zm-8 0h-4v-3h4v3zm-8 0h-4v-3h4v3zm-8 0h-4v-3h4v3zm-8 0h-4v-3h4v3zm-8 0h-4v-3h4v3zm-8 0h-4v-3h4v3zm-8 0h-4v-3h4v3zm-8 0h-4v-3h4v3zm-8 0h-4v-3h4v3zm-8 0h-4v-3h4v3zm-8 0h-4v-3h4v3zm-8 0h-4v-3h4v3zm-8 0h-4v-3h4v3zm-8 0h-4v-3h4v3zm268.3-.64l-.56-2.95a31.8 31.8 0 0 0 3.72-.94l.91 2.86a34.81 34.81 0 0 1-4.07 1.03zm8-2.54l-1.25-2.73a31.92 31.92 0 0 0 3.38-1.8l1.57 2.56a34.9 34.9 0 0 1-3.72 1.99zm7.13-4.38l-1.87-2.35a32.24 32.24 0 0 0 2.86-2.56l2.13 2.11a35.21 35.21 0 0 1-3.13 2.82zm5.89-5.95l-2.38-1.82a32 32 0 0 0 2.17-3.16l2.57 1.54a35.12 35.12 0 0 1-2.37 3.46zm4.31-7.18l-2.74-1.22a31.71 31.71 0 0 0 1.35-3.59l2.87.88a34.72 34.72 0 0 1-1.5 3.98zm2.46-8l-3-.53a32 32 0 0 0 .45-3.81l3 .17a35 35 0 0 1-.47 4.22zm-2.52-8.17a32 32 0 0 0-.47-3.8l3-.54a35 35 0 0 1 .51 4.16zm-1.39-7.52a31.74 31.74 0 0 0-1.37-3.58l2.73-1.24a34.74 34.74 0 0 1 1.5 3.92zm-3.16-7a32 32 0 0 0-2.18-3.15l2.36-1.85a35 35 0 0 1 2.39 3.45zm-4.73-6a32.09 32.09 0 0 0-2.87-2.54l1.85-2.36a35.14 35.14 0 0 1 3.14 2.78zm-6-4.72a31.94 31.94 0 0 0-3.39-1.79l1.23-2.73a35 35 0 0 1 3.71 2zm-7-3.15a31.71 31.71 0 0 0-3.72-.92l.54-3a34.65 34.65 0 0 1 4.07 1zm-7.54-1.39q-1-.06-2-.06h-2v-3h2q1.08 0 2.15.07zm-7.94-.06h-4v-3h4v3zm-8 0h-4v-3h4v3zm-8 0h-4v-3h4v3zm-8 0h-4v-3h4v3zm-8 0h-4v-3h4v3zm-8 0h-4v-3h4v3zm-8 0h-4v-3h4v3zm-8 0h-4v-3h4v3zm-8 0h-4v-3h4v3zm-8 0h-4v-3h4v3zm-8 0h-4v-3h4v3zm-8 0h-4v-3h4v3zM138.84 350.64h2v3h-2zM305.45 283.93h2v3h-2zM301.25 286.93h-4.25v-3h4.21v3zm-8.41 0h-4.21v-3h4.21v3zm-8.41 0h-4.21v-3h4.21v3zm-8.86-.76a11.93 11.93 0 0 1-4-2.53l2.06-2.18a9 9 0 0 0 3 1.9zm-6.8-6.43a11.94 11.94 0 0 1-1-4.67h3a9 9 0 0 0 .75 3.5zm2.66-8.22l-2.78-1.13a11.94 11.94 0 0 1 2.65-4l2.11 2.13a9 9 0 0 0-1.98 3zm5-5l-1.12-2.78a12 12 0 0 1 4.49-.87h.2v3h-.18a9 9 0 0 0-3.41.7zm12-.65h-4.21v-3h4.21v3zM292.59 262.92h2v3h-2z"/><path class="m" d="M737.17 72.14h168.3v113.05h-168.3z"/><path class="c" d="M754.25 89.23h36.02v32.12h-36.02zM803.31 89.23h36.02v32.12h-36.02zM852.36 89.23h36.02v32.12h-36.02zM754.25 136.29h36.02v32.12h-36.02zM803.31 136.29h36.02v32.12h-36.02zM852.36 136.29h36.02v32.12h-36.02zM737.17 56.19h168.3v16.23h-168.3z"/><path class="l" d="M743.15 62.67h5.28v3h-5.28zM752.29 62.67h5.28v3h-5.28zM761.43 62.67h5.29v3h-5.29z"/><path class="f" d="M271.56 121l29 21.09a34.4 34.4 0 0 0 6.88-21.09h-35.88z"/><path class="n" d="M271.56 121l35.44 5.84a38.53 38.53 0 0 0 .44-5.88h-35.88z"/><path class="o" d="M271.56 121h35.87a35.88 35.88 0 1 0-35.87 35.88 34.8 34.8 0 0 0 29-14.79z"/><path class="g" d="M271.56 121l-11.09-34.16a35.89 35.89 0 0 1 45.22 23 34.22 34.22 0 0 1 1.75 11.16h-35.88z"/><path class="f" d="M84.11 320.4v111.1a2.75 2.75 0 0 0 2.75 2.75h244.55a2.75 2.75 0 0 0 2.75-2.75v-111.1h-250.05z"/><path class="c" d="M84.11 317.4v111.1a2.75 2.75 0 0 0 2.75 2.75h244.55a2.75 2.75 0 0 0 2.75-2.75v-111.1h-250.05z"/><path class="p" d="M88.93 342.44a.83.83 0 0 1-.83-.83v-6.09a.83.83 0 0 1 .83-.83h12.78a.83.83 0 0 1 .82.83v6.09a.82.82 0 0 1-.82.83h-12.78zM106.44 342.44a.82.82 0 0 1-.83-.83v-6.09a.83.83 0 0 1 .83-.83h12.78a.83.83 0 0 1 .82.83v6.09a.83.83 0 0 1-.82.83h-12.78zM124 342.44a.82.82 0 0 1-.82-.83v-6.09a.82.82 0 0 1 .82-.83h12.78a.83.83 0 0 1 .83.83v6.09a.83.83 0 0 1-.83.83h-12.78zM141.46 342.44a.82.82 0 0 1-.82-.83v-6.09a.83.83 0 0 1 .82-.83h12.78a.83.83 0 0 1 .83.83v6.09a.83.83 0 0 1-.83.83h-12.78zM159 342.44a.83.83 0 0 1-.83-.83v-6.09a.83.83 0 0 1 .83-.83h12.79a.83.83 0 0 1 .82.83v6.09a.83.83 0 0 1-.82.83h-12.79zM176.48 342.44a.82.82 0 0 1-.83-.83v-6.09a.83.83 0 0 1 .83-.83h12.78a.83.83 0 0 1 .82.83v6.09a.82.82 0 0 1-.82.83h-12.78z"/><rect class="p" x="193.17" y="334.7" width="14.43" height="7.75" rx=".83" ry=".83"/><rect class="p" x="210.68" y="334.7" width="14.44" height="7.75" rx=".83" ry=".83"/><rect class="p" x="228.19" y="334.7" width="14.43" height="7.75" rx=".83" ry=".83"/><path class="p" d="M246.52 342.44a.83.83 0 0 1-.82-.83v-6.09a.83.83 0 0 1 .82-.83h12.79a.83.83 0 0 1 .82.83v6.09a.83.83 0 0 1-.82.83h-12.79zM264 342.44a.83.83 0 0 1-.82-.83v-6.09a.83.83 0 0 1 .82-.83h12.79a.83.83 0 0 1 .82.83v6.09a.83.83 0 0 1-.82.83h-12.79z"/><rect class="p" x="280.72" y="334.7" width="14.43" height="7.75" rx=".83" ry=".83"/><path class="p" d="M299 342.44a.82.82 0 0 1-.82-.83v-6.09a.83.83 0 0 1 .82-.83h12.79a.83.83 0 0 1 .82.83v6.09a.82.82 0 0 1-.82.83h-12.79zM316.56 342.44a.83.83 0 0 1-.82-.83v-6.09a.83.83 0 0 1 .82-.83h12.78a.83.83 0 0 1 .83.83v6.09a.83.83 0 0 1-.83.83h-12.78z"/><rect class="p" x="88.11" y="345.89" width="13.63" height="13.22" rx=".83" ry=".83"/><path class="p" d="M105.86 345.89h12a.83.83 0 0 1 .83.83v11.57a.83.83 0 0 1-.83.83h-12a.83.83 0 0 1-.83-.83v-11.58a.82.82 0 0 1 .83-.82zM122.8 345.89h12a.83.83 0 0 1 .83.83v11.57a.82.82 0 0 1-.82.82h-12a.83.83 0 0 1-.83-.83v-11.57a.83.83 0 0 1 .82-.82zM139.73 359.11a.83.83 0 0 1-.83-.83v-11.56a.83.83 0 0 1 .83-.83h12a.83.83 0 0 1 .82.83v11.57a.83.83 0 0 1-.82.83h-12z"/><rect class="p" x="155.83" y="345.89" width="13.63" height="13.22" rx=".83" ry=".83"/><rect class="p" x="172.77" y="345.89" width="13.63" height="13.22" rx=".83" ry=".83"/><rect class="p" x="189.7" y="345.89" width="13.63" height="13.22" rx=".83" ry=".83"/><path class="p" d="M207.45 359.11a.83.83 0 0 1-.82-.83v-11.56a.83.83 0 0 1 .82-.83h12a.83.83 0 0 1 .83.83v11.57a.83.83 0 0 1-.83.83h-12zM224.38 359.11a.83.83 0 0 1-.82-.83v-11.56a.83.83 0 0 1 .82-.83h12a.83.83 0 0 1 .82.83v11.57a.83.83 0 0 1-.82.83h-12zM241.31 359.11a.83.83 0 0 1-.83-.83v-11.56a.83.83 0 0 1 .83-.83h12a.83.83 0 0 1 .82.83v11.57a.83.83 0 0 1-.82.83h-12z"/><rect class="p" x="257.42" y="345.89" width="13.62" height="13.22" rx=".83" ry=".83"/><path class="p" d="M275.17 359.11a.83.83 0 0 1-.82-.83v-11.56a.83.83 0 0 1 .82-.83h12a.83.83 0 0 1 .82.83v11.57a.83.83 0 0 1-.82.83h-12zM292.1 359.11a.83.83 0 0 1-.82-.83v-11.56a.83.83 0 0 1 .82-.83h12a.83.83 0 0 1 .82.83v11.57a.82.82 0 0 1-.82.83h-12z"/><rect class="p" x="308.21" y="345.89" width="21.96" height="13.22" rx=".83" ry=".83"/><rect class="p" x="88.11" y="362.07" width="22.48" height="13.22" rx=".83" ry=".83"/><path class="p" d="M114.38 362.07h12a.83.83 0 0 1 .83.83v11.57a.82.82 0 0 1-.82.82h-12a.83.83 0 0 1-.83-.83v-11.56a.83.83 0 0 1 .82-.83zM131.28 375.29a.83.83 0 0 1-.83-.83v-11.56a.83.83 0 0 1 .83-.83h12a.83.83 0 0 1 .83.83v11.57a.83.83 0 0 1-.83.83h-12zM148.19 375.29a.83.83 0 0 1-.83-.83v-11.56a.83.83 0 0 1 .83-.83h12a.82.82 0 0 1 .82.83v11.57a.82.82 0 0 1-.82.83h-12zM165.09 375.29a.82.82 0 0 1-.82-.83v-11.56a.82.82 0 0 1 .82-.83h12a.83.83 0 0 1 .82.83v11.57a.83.83 0 0 1-.82.83h-12zM182 375.29a.83.83 0 0 1-.83-.83v-11.56a.83.83 0 0 1 .83-.83h12a.82.82 0 0 1 .82.83v11.57a.82.82 0 0 1-.82.83h-12z"/><rect class="p" x="198.06" y="362.07" width="13.63" height="13.22" rx=".83" ry=".83"/><path class="p" d="M215.79 362.07h12a.83.83 0 0 1 .83.83v11.57a.82.82 0 0 1-.82.82h-12a.82.82 0 0 1-.82-.82v-11.57a.83.83 0 0 1 .81-.83zM232.7 362.07h12a.82.82 0 0 1 .82.82v11.57a.82.82 0 0 1-.82.82h-12a.82.82 0 0 1-.82-.82v-11.56a.83.83 0 0 1 .82-.83z"/><rect class="p" x="248.78" y="362.07" width="13.63" height="13.22" rx=".83" ry=".83"/><rect class="p" x="282.57" y="362.07" width="13.63" height="13.22" rx=".83" ry=".83"/><path class="p" d="M266.51 362.07h12a.83.83 0 0 1 .83.83v11.57a.82.82 0 0 1-.82.82h-12a.83.83 0 0 1-.83-.83v-11.56a.83.83 0 0 1 .82-.83z"/><rect class="p" x="299.49" y="362.07" width="13.62" height="13.22" rx=".83" ry=".83"/><rect class="p" x="88.11" y="378.9" width="26.58" height="13.22" rx=".83" ry=".83"/><path class="p" d="M119.12 392.12a.82.82 0 0 1-.82-.82v-11.57a.83.83 0 0 1 .82-.83h12a.83.83 0 0 1 .83.83v11.57a.82.82 0 0 1-.83.82h-12zM136 392.12a.82.82 0 0 1-.82-.82v-11.57a.83.83 0 0 1 .82-.83h12a.82.82 0 0 1 .82.83v11.57a.82.82 0 0 1-.82.82h-12zM152.81 392.12a.82.82 0 0 1-.82-.82v-11.57a.83.83 0 0 1 .82-.83h12a.83.83 0 0 1 .83.83v11.57a.82.82 0 0 1-.83.82h-12zM169.65 392.12a.82.82 0 0 1-.82-.82v-11.57a.83.83 0 0 1 .82-.83h12a.83.83 0 0 1 .83.83v11.57a.83.83 0 0 1-.83.82h-12zM186.5 392.12a.82.82 0 0 1-.82-.82v-11.57a.83.83 0 0 1 .82-.83h12a.83.83 0 0 1 .82.83v11.57a.82.82 0 0 1-.82.82h-12zM203.34 392.12a.82.82 0 0 1-.82-.82v-11.57a.83.83 0 0 1 .82-.83h12a.82.82 0 0 1 .82.83v11.57a.82.82 0 0 1-.82.82h-12zM220.19 378.9h12a.83.83 0 0 1 .83.83v11.57a.82.82 0 0 1-.82.82h-12a.82.82 0 0 1-.82-.82v-11.57a.83.83 0 0 1 .81-.83zM237 392.12a.82.82 0 0 1-.82-.82v-11.57a.82.82 0 0 1 .82-.83h12a.83.83 0 0 1 .82.83v11.57a.82.82 0 0 1-.82.82h-12zM253.88 392.12a.82.82 0 0 1-.83-.82v-11.57a.83.83 0 0 1 .83-.83h12a.83.83 0 0 1 .83.83v11.57a.82.82 0 0 1-.83.82h-12zM270.72 378.9h12a.82.82 0 0 1 .82.82v11.57a.83.83 0 0 1-.83.83h-12a.82.82 0 0 1-.82-.82v-11.58a.82.82 0 0 1 .83-.82zM287.56 392.12a.82.82 0 0 1-.83-.82v-11.57a.83.83 0 0 1 .83-.83h12a.83.83 0 0 1 .82.83v11.57a.82.82 0 0 1-.82.82h-12zM304.4 392.12a.82.82 0 0 1-.82-.82v-11.57a.83.83 0 0 1 .82-.83h12a.83.83 0 0 1 .82.83v11.57a.82.82 0 0 1-.82.82h-12zM321.77 392.12a.82.82 0 0 1-.83-.82v-14.08a1.93 1.93 0 0 0-1.93-1.92h-1.78a.83.83 0 0 1-.83-.83v-11.57a.83.83 0 0 1 .83-.83h12.1a.83.83 0 0 1 .83.83v28.4a.83.83 0 0 1-.83.82h-7.57zM88.93 409a.82.82 0 0 1-.83-.83v-11.61a.83.83 0 0 1 .83-.83h15.64a.82.82 0 0 1 .82.83v11.57a.82.82 0 0 1-.82.83h-15.64z"/><rect class="p" x="109.45" y="395.73" width="13.63" height="13.22" rx=".83" ry=".83"/><path class="p" d="M127.17 395.73h12a.83.83 0 0 1 .83.83v11.57a.83.83 0 0 1-.83.83h-12a.83.83 0 0 1-.83-.83v-11.57a.82.82 0 0 1 .83-.83zM144.05 395.73h12a.83.83 0 0 1 .83.83v11.57a.83.83 0 0 1-.83.83h-12a.83.83 0 0 1-.83-.83v-11.57a.82.82 0 0 1 .83-.83zM160.95 395.73h12a.83.83 0 0 1 .83.83v11.57a.83.83 0 0 1-.83.83h-12a.83.83 0 0 1-.83-.83v-11.57a.82.82 0 0 1 .83-.83zM177.83 395.73h12a.83.83 0 0 1 .83.83v11.57a.82.82 0 0 1-.82.82h-12a.83.83 0 0 1-.83-.83v-11.56a.82.82 0 0 1 .82-.83zM194.72 409a.82.82 0 0 1-.82-.83v-11.61a.82.82 0 0 1 .82-.83h12a.83.83 0 0 1 .83.83v11.57a.83.83 0 0 1-.83.83h-12z"/><rect class="p" x="210.78" y="395.73" width="13.63" height="13.22" rx=".83" ry=".83"/><path class="p" d="M228.5 395.73h12a.82.82 0 0 1 .82.82v11.57a.83.83 0 0 1-.83.83h-12a.83.83 0 0 1-.83-.83v-11.56a.82.82 0 0 1 .84-.83z"/><rect class="p" x="244.56" y="395.73" width="13.63" height="13.22" rx=".83" ry=".83"/><path class="p" d="M262.27 395.73h12a.83.83 0 0 1 .83.83v11.57a.82.82 0 0 1-.82.82h-12a.83.83 0 0 1-.83-.83v-11.56a.83.83 0 0 1 .82-.83zM279.16 409a.83.83 0 0 1-.82-.83v-11.61a.83.83 0 0 1 .82-.83h12a.82.82 0 0 1 .82.83v11.57a.82.82 0 0 1-.82.83h-12zM296.31 395.73h33a.83.83 0 0 1 .83.83v11.57a.83.83 0 0 1-.83.83h-33a.83.83 0 0 1-.83-.83v-11.57a.82.82 0 0 1 .83-.83z"/><rect class="p" x="88.11" y="412.34" width="13.63" height="14.74" rx=".83" ry=".83"/><path class="p" d="M105.86 412.34h12a.83.83 0 0 1 .83.83v13.08a.83.83 0 0 1-.83.83h-12a.83.83 0 0 1-.83-.83v-13.08a.82.82 0 0 1 .83-.83zM122.8 412.34h12a.83.83 0 0 1 .83.83v13.08a.82.82 0 0 1-.82.82h-12a.83.83 0 0 1-.83-.83v-13.07a.83.83 0 0 1 .82-.83z"/><rect class="p" x="138.9" y="412.34" width="18.15" height="14.74" rx=".83" ry=".83"/><rect class="p" x="244.41" y="412.34" width="18.16" height="14.74" rx=".83" ry=".83"/><path class="p" d="M161.08 427.08a.83.83 0 0 1-.83-.83v-13.08a.83.83 0 0 1 .83-.83h79.51a.83.83 0 0 1 .82.83v13.08a.82.82 0 0 1-.82.83h-79.51z"/><rect class="p" x="265.62" y="412.34" width="13.63" height="14.74" rx=".83" ry=".83"/><path class="p" d="M283.48 427.08a.83.83 0 0 1-.82-.83v-5.31a.83.83 0 0 1 .82-.82h12a.83.83 0 0 1 .82.82v5.31a.83.83 0 0 1-.82.83h-12zM300.52 412.34h12a.82.82 0 0 1 .82.82v13.08a.83.83 0 0 1-.83.83h-12a.83.83 0 0 1-.83-.83v-13.08a.82.82 0 0 1 .84-.82zM317.37 427.08a.83.83 0 0 1-.83-.83v-5.31a.83.83 0 0 1 .83-.82h12a.83.83 0 0 1 .83.82v5.31a.83.83 0 0 1-.83.83h-12z"/><path class="q" d="M230.15 182.2c0-2.38-.12-4.72-.31-7l.11.62 11-2.91-2.56-14.51-11.34 1a86 86 0 0 0-4.77-13.15l.22.38 9.38-6.51-7.37-12.76-10.32 4.86a86.9 86.9 0 0 0-9-10.79l.41.35 6.59-9.33-11.27-9.45-8 8.1a86.52 86.52 0 0 0-11.9-6.94l.22.08 3-11-13.85-5-4.77 10.33a86.14 86.14 0 0 0-13.84-2.57h.48l-.95-11.38h-14.73l-.95 11.38a86.32 86.32 0 0 0-13.56 2.32l.2-.07-4.78-10.37-13.85 5 3 11a86.31 86.31 0 0 0-12.16 7l.38-.32-8-8.11-11.34 9.55 6.58 9.31a87 87 0 0 0-9.1 10.81l.29-.51-10.29-4.87-7.39 12.76 9.39 6.5a85.88 85.88 0 0 0-4.8 13.11l.07-.41-11.37-1-2.56 14.51 11 2.91c-.19 2.35-.31 4.72-.31 7.12s.12 4.72.31 7.05l-.11-.63-11 2.91 2.52 14.43 11.34-1a86 86 0 0 0 4.77 13.15l-.22-.38-9.38 6.51 7.37 12.72 10.32-4.86a86.89 86.89 0 0 0 9.05 10.86l-.4-.34-6.6 9.34 11.29 9.47 8-8.1a86.13 86.13 0 0 0 11.89 6.94l-.18-.11-3 11 13.85 5 4.77-10.33a86.27 86.27 0 0 0 13.82 2.43h-.49l.95 11.38h14.74l1-11.36a86.32 86.32 0 0 0 13.55-2.32l-.19.07 4.78 10.37 13.85-5-3-11a86.38 86.38 0 0 0 12.15-7l-.37.31 8 8.11 11.29-9.47-6.58-9.31a86.93 86.93 0 0 0 9.08-10.82l-.29.51 10.33 4.87 7.37-12.76-9.36-6.5a86.12 86.12 0 0 0 4.8-13.12l-.07.42 11.37 1 2.56-14.51-11-2.91c.09-2.26.24-4.67.24-7.06zm-86.56 65.12a65.12 65.12 0 1 1 65.12-65.12 65.12 65.12 0 0 1-65.12 65.11z"/><path class="g" d="M163.87 136.17a50.29 50.29 0 1 0 25.75 66.3 50.35 50.35 0 0 0-25.75-66.3z"/><path class="n" d="M193.38 188.64l-7 5.44-12.61 10.61-.56-10.3-8.21 1.48-.92-9.48-5.63 3-1.62-1.26-4.83-4.83-1.54 6.59 3.71 3.74-16.17 15.76-4.41.7v-8.51l3.17-12.86-5.77-2.83-.59-5.53 7.31-7.68 5.42 1 2.17 3.35 8 1.41-6-7.87-6.15-4.06.53-2.15 8-.89-.88-5.39 9.1-3 5.86 5.48 13.1 1.47s5.82-.44 12.31-.88a50.36 50.36 0 0 1 4.21 27.49zM130.43 133.73l-4.61 3.37-8.2 6.31a.79.79 0 0 0-.29.72l.95 6.51a.86.86 0 0 0 .46.6.77.77 0 0 0 .75-.08l4.63-3.24 2.53 9-14.65 4.75-6.2-2.05a.78.78 0 0 0-.81.21l-2.88 3.08a.78.78 0 0 0-.19.72l1.75 6.81-5.12-5.77-.85-3a50.17 50.17 0 0 1 32.73-27.94zM104.38 189.41l-.59-9.72 8.45-7.7 7.52 16.8-20 17v-5.85l4.58-10.17a.75.75 0 0 0 .04-.36zM134 150.64l-.42-13.14c9.18-.52 14.6.84 16.62 1.5l-6.62 9z"/><circle class="c" cx="393.84" cy="318.19" r="23.06"/><path class="l" d="M393.83 334.21a16 16 0 0 1-15.37-20.48l.75-2.59 1.8 2a4.19 4.19 0 1 0 5.2-6.43l-2.34-1.34 2.37-1.28a15.94 15.94 0 0 1 5.9-1.83 16.27 16.27 0 0 1 1.71-.09 16 16 0 0 1 1.68 32 16.21 16.21 0 0 1-1.7.04zm-12.93-17.44a13 13 0 0 0 12.93 14.44 13.22 13.22 0 0 0 1.39-.07 13 13 0 0 0-1.36-26 13.24 13.24 0 0 0-1.4.07 13 13 0 0 0-2.74.6 7.19 7.19 0 0 1-8.82 10.96zM393.84 334.86c-14.2 0-27.23-5.89-34.85-15.75l-.71-.92.71-.92c7.62-9.86 20.65-15.75 34.85-15.75s27.23 5.89 34.85 15.75l.71.92-.71.92c-7.61 9.89-20.69 15.75-34.85 15.75zm-31.74-16.67c7.15 8.58 18.91 13.67 31.74 13.67s24.6-5.09 31.74-13.67c-7.14-8.58-18.91-13.67-31.74-13.67s-24.59 5.09-31.74 13.67z"/><path class="g" d="M140.89 240.76c-1.37-.07-2.74-.18-4.09-.34l.35-3c1.28.15 2.58.26 3.88.32zm-8.14-1c-1.34-.26-2.68-.56-4-.91l.77-2.9c1.25.33 2.52.62 3.79.87zm-7.93-2.11c-1.29-.44-2.58-.94-3.84-1.48l1.18-2.76c1.19.51 2.41 1 3.63 1.4zm-7.55-3.23c-1.21-.62-2.42-1.3-3.58-2l1.56-2.56c1.1.67 2.25 1.31 3.4 1.9zm-7-4.27c-1.11-.79-2.21-1.63-3.26-2.5l1.91-2.32c1 .82 2 1.62 3.09 2.37zm-6.35-5.15c-1-.94-2-1.92-2.87-2.93l2.21-2c.87 1 1.79 1.89 2.73 2.78zm-5.54-6.06c-.85-1.07-1.66-2.18-2.43-3.3l2.48-1.69c.73 1.07 1.5 2.12 2.31 3.13zm-4.62-6.77c-.69-1.17-1.34-2.39-1.94-3.61l2.69-1.33c.57 1.16 1.19 2.31 1.84 3.43zm-3.62-7.36c-.51-1.26-1-2.56-1.41-3.85l2.85-.93c.4 1.23.85 2.46 1.33 3.65zm-2.54-7.81c-.33-1.32-.61-2.67-.84-4l3-.51c.22 1.27.49 2.55.8 3.81zm-1.4-8.08c-.14-1.35-.22-2.73-.26-4.09l3-.09c0 1.29.12 2.6.25 3.88zm2.8-8.1l-3-.12v-.4c.06-1.23.16-2.48.29-3.7l3 .33c-.13 1.16-.22 2.34-.28 3.5zm.86-7.73l-3-.54c.25-1.34.54-2.69.89-4l2.9.75c-.31 1.24-.59 2.52-.82 3.79zm1.95-7.53l-2.84-1c.43-1.29.92-2.58 1.45-3.84l2.77 1.16c-.54 1.23-1 2.46-1.42 3.68zm3-7.18l-2.71-1.38c.62-1.22 1.28-2.43 2-3.6l2.56 1.6c-.66 1.08-1.3 2.23-1.88 3.38zm4-6.68l-2.5-1.7c.78-1.12 1.61-2.22 2.47-3.28l2.33 1.89c-.81.99-1.6 2.04-2.34 3.1zm4.9-6l-2.19-2c.93-1 1.91-2 2.91-2.9l2 2.2c-.95.8-1.87 1.72-2.76 2.66zm5.7-5.29l-1.91-2.41c1.06-.85 2.17-1.68 3.29-2.46l1.71 2.46c-1.07.78-2.11 1.56-3.12 2.37zm6.39-4.43l-1.53-2.58c1.17-.69 2.38-1.36 3.6-2l1.34 2.68c-1.21.57-2.33 1.2-3.44 1.86zm55.54-.16c-1.08-.63-2.19-1.23-3.3-1.78l1.33-2.69c1.18.58 2.35 1.22 3.48 1.88zm-48.59-3.32l-1.15-2.77c1.26-.52 2.55-1 3.84-1.44l.95 2.85c-1.25.36-2.48.86-3.67 1.31zm41.74-.07c-1.19-.49-2.42-.94-3.65-1.35l.94-2.85c1.3.43 2.59.9 3.85 1.42zm-34.4-2.43l-.74-2.91c1.32-.34 2.67-.63 4-.87l.53 3c-1.26.18-2.54.46-3.79.78zm27 0c-1.25-.31-2.53-.59-3.81-.81l.52-3c1.34.24 2.7.53 4 .86zm-19.32-1.34l-.32-3c1.35-.15 2.73-.24 4.09-.29l.11 3c-1.32.01-2.65.11-3.91.24zm11.66 0c-1-.11-2.08-.19-3.11-.24h-.77l.1-3h.82c1.09.05 2.19.14 3.28.25zM303 236.45h-.89l.13-3a17.15 17.15 0 0 0 3.66-.23l.51 3a20 20 0 0 1-3.41.23zm7.6-1.45l-1.14-2.77a16.94 16.94 0 0 0 3.22-1.76l1.71 2.46a19.88 19.88 0 0 1-3.79 2.07zm7-4.9l-2.2-2a17 17 0 0 0 2.18-2.95l2.59 1.52a20 20 0 0 1-2.52 3.38zm4.33-7.41l-2.86-.92a17 17 0 0 0 .73-3.59l3 .28a19.92 19.92 0 0 1-.8 4.18zm-2.18-8.18a16.81 16.81 0 0 0-.84-3.57l2.83-1a19.83 19.83 0 0 1 1 4.2zm-2.44-6.87a17 17 0 0 0-2.27-2.88l2.14-2.1a20.05 20.05 0 0 1 2.67 3.39zm-5.1-5.21a16.83 16.83 0 0 0-3.27-1.66l1.06-2.81a19.86 19.86 0 0 1 3.85 2zM138.1 240.65l-.08-3 2.15-.06.08 3zm6.15-.16l-.08-3 4-.11.08 3zm8-.21l-.08-3 4-.11.08 3zm8-.21l-.08-3 4-.11.08 3zm8-.21l-.08-3 4-.11.08 3zm8-.21l-.08-3 4-.11.08 3zm8-.21l-.08-3 4-.11.08 3zm8-.21l-.08-3 4-.11.08 3zm8-.21l-.08-3 4-.11.08 3zm8-.21l-.08-3 4-.11.08 3zm8-.21l-.08-3 4-.11.08 3zm8-.21l-.08-3 4-.11.08 3zm8-.21l-.08-3 4-.11.08 3zm8-.21l-.08-3 4-.11.08 3zm8-.21l-.08-3 4-.11.08 3zm8-.21l-.08-3 4-.11.08 3zm8-.21l-.08-3 4-.11.08 3zm8-.21l-.08-3 4-.11.08 3zm8-.21l-.08-3 4-.11.08 3zm8-.21l-.08-3 4-.11.08 3zm8-.21l-.08-3 4-.11.08 3zM307.47 200.15l-.39-.18 1.29-2.71.39.18zm-4-1.9l-3.61-1.72 1.29-2.71 3.61 1.72zm-7.23-3.43l-3.61-1.72 1.29-2.71 3.61 1.72zm-7.24-3.44l-3.61-1.72 1.31-2.66 3.61 1.72zm-7.2-3.38l-3.61-1.72 1.29-2.71 3.61 1.72zm-7.23-3.43l-3.57-1.77 1.29-2.71 3.61 1.72zm-7.23-3.43l-3.61-1.72 1.29-2.71 3.61 1.72zm-7.23-3.43l-3.61-1.72 1.29-2.71 3.61 1.72zm-7.23-3.43l-3.61-1.72 1.29-2.71 3.61 1.72zm-7.23-3.43l-3.61-1.72 1.29-2.71 3.61 1.72zm-7.23-3.43l-3.61-1.72 1.29-2.71 3.61 1.72zm-7.23-3.43l-3.61-1.72 1.29-2.71 3.61 1.72zm-7.19-3.5l-3.61-1.72 1.29-2.71 3.61 1.72zm-7.23-3.43l-3.61-1.72 1.29-2.71 3.61 1.72zm-7.23-3.43l-3.61-1.72 1.29-2.71 3.61 1.72zm-7.23-3.43l-3.61-1.72 1.29-2.71 3.61 1.72zm-7.23-3.43l-3.61-1.77 1.29-2.71 3.61 1.72zm-7.23-3.43l-3.61-1.72 1.29-2.71 3.61 1.72zm-7.23-3.43l-3.62-1.73 1.29-2.71 3.61 1.72zm-7.23-3.43l-3.61-1.72 1.29-2.71 3.61 1.72z"/><path class="r" d="M299.3 245.47"/><path class="l" d="M299.33 251a35.29 35.29 0 1 1 .06 0h-.06zm0-67.75a32.38 32.38 0 1 0 0 64.75v1.5l.05-1.5a32.38 32.38 0 0 0-.07-64.74z"/><path class="g" d="M318.32 234.56a26.77 26.77 0 1 1 7.83-18.92 26.66 26.66 0 0 1-7.83 18.92z"/><path class="l" d="M280.72 215.65h-3a21.61 21.61 0 0 1 21.57-21.59v3a18.61 18.61 0 0 0-18.57 18.59z"/><path class="n" d="M291.34 259h15.93v39.1h-15.93z"/><path class="g" d="M302.49 292.49zM300.99 270.82h3v21.66h-3zM292.38 259h13.84v6.78h-13.84z"/><path class="l" d="M290.88 267.28v-9.78h16.84v9.78h-16.84zm3-6.78v3.78h10.84v-3.78h-10.84z"/><path class="g" d="M306.22 301.43a9.79 9.79 0 0 1-13.84 0v-3.32h13.84v3.32z"/><path class="l" d="M299.31 305.79a11.22 11.22 0 0 1-8-3.31l-.44-.44v-5.44h16.83v5.4l-.44.44a11.21 11.21 0 0 1-7.95 3.35zm-5.42-5a8.29 8.29 0 0 0 10.84 0v-1.19h-10.85v1.17zM294.22 249.51h3v9.8h-3zM301.38 249.76h3v7.5h-3zM470.9 251.34h34.48v3h-34.48zM470.9 259.23h34.48v3h-34.48z"/><path class="g" d="M459.05 250.75h7.65v7.65h-7.65z"/><path class="n" d="M459.67 297.81h71.12v24.41h-71.12z"/><path class="l" d="M477.18 308.51h36.09v3h-36.09z"/><path class="g" d="M510.71 250.59h20.87v12.38h-20.87z"/><path class="l" d="M515.85 255.28h10.59v3h-10.59zM470.9 276.82h34.48v3h-34.48zM470.9 284.71h34.48v3h-34.48z"/><path class="g" d="M459.05 276.22h7.65v7.65h-7.65zM510.71 276.07h20.87v12.38h-20.87z"/><path class="l" d="M515.85 280.76h10.59v3h-10.59zM541.61 446.08h-43.33v-16.88a23.18 23.18 0 0 1-9.31-5.39l-.1-.11-23.71-27.59v-35.11h-.09l.13-2.8h5.56a13.81 13.81 0 0 1 11 5.46v-52.52a9.84 9.84 0 0 1 19.69 0s0 20.35.06 35a9.56 9.56 0 0 1 15.79 4.37 9.56 9.56 0 0 1 15.84 3.16c1.63-1.36 4.08-2.09 7.21-2.09a9.58 9.58 0 0 1 9.56 9.57l.4 8.24v37.61a23 23 0 0 1-8.72 18.09v21zm-40.33-3h37.33v-19.46l.6-.45a20 20 0 0 0 8.12-16.17v-37.62l-.4-8.24a6.59 6.59 0 0 0-6.57-6.64c-4.36 0-6.57 1.53-6.57 4.54h-3v-2a6.56 6.56 0 1 0-13.12 0h-3v-4a6.56 6.56 0 1 0-13.13 0v4.51h-3c0-11-.07-46.44-.07-46.44a6.84 6.84 0 0 0-13.69 0v81.5l-3 .06-.17-4v-16.67a10.83 10.83 0 0 0-10.82-10.82h-2.6v13.82l.13 1.26h-.13v18.74l22.94 26.69a20.18 20.18 0 0 0 9 4.91l1.14.28v16.2z"/><path class="s" d="M491.23 436.17h64.08v63.83h-64.08z"/><path class="g" d="M378.57 157.77h6.95v7.2h-6.95zM378.76 164.96h6.57v22.7h-6.57z"/><path class="l" d="M380.54 159.49v-7.35h.19a6.81 6.81 0 0 1 4.84-4.9 5.3 5.3 0 0 1 1.22-.14 4.53 4.53 0 0 1 4.55 4.68 6.81 6.81 0 0 1-3.75 5.92v.16zm3-5.83v2l2.14-.51a3.75 3.75 0 0 0 2.63-3.42 1.57 1.57 0 0 0-2.08-1.64 3.76 3.76 0 0 0-2.71 3.37v.15zM383.55 159.49l-7-1.64v-.17a6.81 6.81 0 0 1-3.76-5.92 4.54 4.54 0 0 1 4.55-4.68 5.31 5.31 0 0 1 1.22.14 6.81 6.81 0 0 1 4.82 4.85h.2zm-4.89-4.23l1.91.45v-2.2a3.76 3.76 0 0 0-2.7-3.37 1.58 1.58 0 0 0-2.08 1.64 3.76 3.76 0 0 0 2.64 3.42zM402.91 166.46h-41.72v-10.2h41.72v10.2zm-38.72-3h35.72v-4.2h-35.72v4.2zM401.72 189.17h-39.35v-25.7h39.34v25.7zm-36.34-3h33.34v-19.7h-33.35v19.7z"/><path class="g" d="M425.57 157.77h6.95v7.2h-6.95zM425.76 164.96h6.57v22.7h-6.57z"/><path class="l" d="M427.54 159.49v-7.35h.19a6.81 6.81 0 0 1 4.84-4.9 5.3 5.3 0 0 1 1.22-.14 4.53 4.53 0 0 1 4.55 4.68 6.81 6.81 0 0 1-3.75 5.92v.16zm3-5.83v2l2.14-.51a3.75 3.75 0 0 0 2.63-3.42 1.57 1.57 0 0 0-2.08-1.64 3.76 3.76 0 0 0-2.71 3.37v.15zM430.55 159.49l-7-1.64v-.17a6.81 6.81 0 0 1-3.76-5.92 4.54 4.54 0 0 1 4.55-4.68 5.31 5.31 0 0 1 1.22.14 6.81 6.81 0 0 1 4.82 4.85h.2zm-4.89-4.23l1.91.45v-2.2a3.76 3.76 0 0 0-2.7-3.37 1.58 1.58 0 0 0-2.08 1.64 3.76 3.76 0 0 0 2.64 3.42zM449.91 166.46h-41.72v-10.2h41.72v10.2zm-38.72-3h35.72v-4.2h-35.72v4.2zM448.72 189.17h-39.35v-25.7h39.34v25.7zm-36.34-3h33.34v-19.7h-33.35v19.7z"/><path class="g" d="M472.57 157.77h6.95v7.2h-6.95zM472.76 164.96h6.57v22.7h-6.57z"/><path class="l" d="M474.54 159.49v-7.35h.19a6.81 6.81 0 0 1 4.84-4.9 5.3 5.3 0 0 1 1.22-.14 4.53 4.53 0 0 1 4.55 4.68 6.81 6.81 0 0 1-3.75 5.92v.16zm3-5.83v2l2.14-.51a3.75 3.75 0 0 0 2.63-3.42 1.57 1.57 0 0 0-2.08-1.64 3.76 3.76 0 0 0-2.71 3.37v.15zM477.55 159.49l-7-1.64v-.17a6.81 6.81 0 0 1-3.76-5.92 4.54 4.54 0 0 1 4.55-4.68 5.31 5.31 0 0 1 1.22.14 6.81 6.81 0 0 1 4.82 4.85h.2zm-4.89-4.23l1.91.45v-2.2a3.76 3.76 0 0 0-2.7-3.37 1.58 1.58 0 0 0-2.08 1.64 3.76 3.76 0 0 0 2.64 3.42zM496.91 166.46h-41.72v-10.2h41.72v10.2zm-38.72-3h35.72v-4.2h-35.72v4.2zM495.72 189.17h-39.35v-25.7h39.34v25.7zm-36.34-3h33.34v-19.7h-33.35v19.7z"/><path class="g" d="M519.57 157.77h6.95v7.2h-6.95zM519.76 164.96h6.57v22.7h-6.57z"/><path class="l" d="M521.54 159.49v-7.35h.19a6.81 6.81 0 0 1 4.84-4.9 5.3 5.3 0 0 1 1.22-.14 4.53 4.53 0 0 1 4.55 4.68 6.81 6.81 0 0 1-3.75 5.92v.16zm3-5.83v2l2.14-.51a3.75 3.75 0 0 0 2.63-3.42 1.57 1.57 0 0 0-2.08-1.64 3.76 3.76 0 0 0-2.71 3.37v.15zM524.55 159.49l-7-1.64v-.17a6.81 6.81 0 0 1-3.76-5.92 4.54 4.54 0 0 1 4.55-4.68 5.31 5.31 0 0 1 1.22.14 6.81 6.81 0 0 1 4.82 4.85h.2zm-4.89-4.23l1.91.45v-2.2a3.76 3.76 0 0 0-2.7-3.37 1.58 1.58 0 0 0-2.08 1.64 3.76 3.76 0 0 0 2.64 3.42zM543.91 166.46h-41.72v-10.2h41.72v10.2zm-38.72-3h35.72v-4.2h-35.72v4.2zM542.72 189.17h-39.35v-25.7h39.34v25.7zm-36.34-3h33.34v-19.7h-33.35v19.7z"/><path class="g" d="M566.57 157.77h6.95v7.2h-6.95zM566.76 164.96h6.57v22.7h-6.57z"/><path class="l" d="M568.54 159.49v-7.35h.19a6.81 6.81 0 0 1 4.84-4.9 5.3 5.3 0 0 1 1.22-.14 4.53 4.53 0 0 1 4.55 4.68 6.81 6.81 0 0 1-3.75 5.92v.16zm3-5.83v2l2.14-.51a3.75 3.75 0 0 0 2.63-3.42 1.57 1.57 0 0 0-2.08-1.64 3.76 3.76 0 0 0-2.71 3.37v.15zM571.55 159.49l-7-1.64v-.17a6.81 6.81 0 0 1-3.76-5.92 4.54 4.54 0 0 1 4.55-4.68 5.31 5.31 0 0 1 1.22.14 6.81 6.81 0 0 1 4.82 4.85h.2zm-4.89-4.23l1.91.45v-2.2a3.76 3.76 0 0 0-2.7-3.37 1.58 1.58 0 0 0-2.08 1.64 3.76 3.76 0 0 0 2.64 3.42zM590.91 166.46h-41.72v-10.2h41.72v10.2zm-38.72-3h35.72v-4.2h-35.72v4.2zM589.72 189.17h-39.35v-25.7h39.34v25.7zm-36.34-3h33.34v-19.7h-33.35v19.7z"/><path class="g" d="M613.57 157.77h6.95v7.2h-6.95zM613.76 164.96h6.57v22.7h-6.57z"/><path class="l" d="M615.54 159.49v-7.35h.19a6.81 6.81 0 0 1 4.84-4.9 5.3 5.3 0 0 1 1.22-.14 4.53 4.53 0 0 1 4.55 4.68 6.81 6.81 0 0 1-3.75 5.92v.16zm3-5.83v2l2.14-.51a3.75 3.75 0 0 0 2.63-3.42 1.57 1.57 0 0 0-2.08-1.64 3.76 3.76 0 0 0-2.71 3.37v.15zM618.55 159.49l-7-1.64v-.17a6.81 6.81 0 0 1-3.76-5.92 4.54 4.54 0 0 1 4.55-4.68 5.31 5.31 0 0 1 1.22.14 6.81 6.81 0 0 1 4.82 4.85h.2zm-4.89-4.23l1.91.45v-2.2a3.76 3.76 0 0 0-2.7-3.37 1.58 1.58 0 0 0-2.08 1.64 3.76 3.76 0 0 0 2.64 3.42zM637.91 166.46h-41.72v-10.2h41.72v10.2zm-38.72-3h35.72v-4.2h-35.72v4.2zM636.72 189.17h-39.35v-25.7h39.34v25.7zm-36.34-3h33.34v-19.7h-33.35v19.7z"/><path class="n" d="M424.09 186.17l1.17-13 13-1.17 16.2 16.2-7.09 7.09-7.09 7.09zm8.3-8.77a2 2 0 1 0 0 2.89 2 2 0 0 0 0-2.89z"/><path class="g" d="M435.65 190.71l3.52-1.19 2.98 2.22-.05-3.71 3.03-2.15-3.55-1.1-1.1-3.55-2.14 3.03-3.72-.04 2.22 2.97-1.19 3.52z"/><path class="f" d="M419 120l.83-.83a7.72 7.72 0 0 0 0-10.92l-.11-.12a7.72 7.72 0 0 0-10.92 0l-.83.83-.83-.83a7.72 7.72 0 0 0-10.92 0l-.11.12a7.72 7.72 0 0 0 0 10.92l.79.83 11 11z"/><path class="l" d="M405.81 89.43h3v5.45h-3zM392.836 93.893l2.598-1.5 2.725 4.72-2.598 1.5zM383.907 104.331l1.5-2.598 4.72 2.725-1.5 2.598zM381.29 114.76h5.45v3h-5.45zM384.254 128.026l4.72-2.725 1.5 2.598-4.72 2.725zM393.554 138.208l2.725-4.72 2.598 1.5-2.725 4.72zM406.62 136.83h3v5.45h-3zM417.217 134.438l2.598-1.5 2.725 4.72-2.598 1.5zM425.385 127.356l1.5-2.598 4.72 2.725-1.5 2.598zM428.7 113.95h5.45v3h-5.45zM424.897 103.621l4.72-2.725 1.5 2.598-4.72 2.725zM416.654 96.826l2.725-4.72 2.598 1.5-2.725 4.72z"/><path class="n" d="M624 164.2a22.56 22.56 0 1 1 31.9 0 22.58 22.58 0 0 1-31.9 0z"/><path class="l" d="M630.53 146.83a1.5 1.5 0 0 1-1.48-1.71l1-6.93-3.32 3.32a1.5 1.5 0 0 1-2.12-2.12l6.5-6.5a1.5 1.5 0 0 1 2.55 1.27l-1 6.93 3.32-3.32a1.5 1.5 0 0 1 2.12 2.12l-6.5 6.5a1.5 1.5 0 0 1-1.07.44zM637.91 154.21a1.5 1.5 0 0 1-1.06-.44l-4.31-4.31a1.5 1.5 0 0 1 0-2.12l6.5-6.5a1.54 1.54 0 0 1 2.12 0l4.31 4.31a1.5 1.5 0 0 1-2.12 2.12l-3.25-3.27-4.37 4.37 3.25 3.25a1.5 1.5 0 0 1-1.07 2.59zM641.16 151a1.49 1.49 0 0 1-1.06-.44l-4.31-4.31a1.5 1.5 0 0 1 2.12-2.12l4.31 4.31a1.5 1.5 0 0 1-1.06 2.56zM646.5 162.8a1.5 1.5 0 0 1-1.38-2.09l1.41-3.29-3.35 1.38a1.5 1.5 0 0 1-2-2l3.91-9.09a1.5 1.5 0 0 1 2.76 1.18l-2.45 5.7 3.35-1.38a1.5 1.5 0 0 1 2 2l-1.38 3.22 5.63-2.43a1.5 1.5 0 1 1 1.18 2.76l-9.09 3.91a1.5 1.5 0 0 1-.59.13zM658.85 128.384l4.002-4.002 2.121 2.121-4.002 4.002zM646.719 121.833l1.469-5.477 2.898.777-1.469 5.477zM631.194 116.791l2.898-.777 1.466 5.468-2.898.777zM616.756 126.029l2.121-2.121 4.002 4.002-2.121 2.121zM645.909 174.709l2.898-.777 1.466 5.468-2.898.777zM658.303 168.615l2.121-2.121 4.002 4.002-2.121 2.121zM665.878 156.914l.774-2.898 5.468 1.46-.774 2.898zM666.501 140.105l5.468-1.466.777 2.898-5.468 1.466z"/><path class="g" d="M562 128.63h15.68a9.31 9.31 0 0 1 1.32-4.63c5.78-7.45 6.15-14.54 6.15-15a15.35 15.35 0 1 0-30.71 0c0 .5.36 7.59 6.15 15a9.2 9.2 0 0 1 1.41 4.63z"/><path class="l" d="M561.095 112.145l2.952-.531 3.036 16.876-2.952.531zM572.352 128.42l3.036-16.876 2.952.531-3.036 16.876zM575.47 115.51h-1.95l-1.37-1.17-1.37 1.17h-1.95l-1.36-1.17-1.37 1.17h-1.95l-2.34-2 1.95-2.28 1.37 1.16 1.36-1.16h1.95l1.37 1.16 1.37-1.17h1.94l1.38 1.17 1.37-1.17 1.95 2.29-2.35 2zM560.95 127.31h17.73v3h-17.73zM560.95 131.97h17.73v3h-17.73zM564.02 136.64h11.6v3h-11.6zM563.8 129.01h3v4.07h-3z"/><path class="g" d="M457.5 128.28a2.52 2.52 0 0 0 2.43 2.6h4.7v9.76l11.52-9.76h17.26a2.52 2.52 0 0 0 2.43-2.6v-29.52a2.52 2.52 0 0 0-2.43-2.6h-33.48a2.52 2.52 0 0 0-2.43 2.6v29.53z"/><path class="l" d="M468.92 113.56a6.09 6.09 0 1 1 6.09-6.09 6.1 6.1 0 0 1-6.09 6.09zm0-9.19a3.09 3.09 0 1 0 3.09 3.09 3.1 3.1 0 0 0-3.09-3.09zM483.71 126a6.09 6.09 0 1 1 6.1-6.09 6.1 6.1 0 0 1-6.1 6.09zm0-9.19a3.09 3.09 0 1 0 3.1 3.09 3.1 3.1 0 0 0-3.1-3.1zM464.273 123.843l22.108-22.108 2.121 2.121-22.108 22.108z"/><path class="f" d="M855.9 251l-2-12.44-11.2.87a34.17 34.17 0 0 0-6.19-10.59l6-9.92-10.22-7.37-7.31 8.54a34.13 34.13 0 0 0-11.86-3.1l-2.8-11.24-12.44 2 .87 11.2a34.1 34.1 0 0 0-10.59 6.19l-9.92-6-7.37 10.22 8.53 7.31a34.11 34.11 0 0 0-3.1 11.86l-11.3 2.82 2 12.44 11.2-.87a34 34 0 0 0 6.19 10.59l-6 9.92 10.22 7.37 7.31-8.53a34 34 0 0 0 11.86 3.1l2.8 11.24 12.44-2-.87-11.2a34.12 34.12 0 0 0 10.59-6.19l9.92 6 7.43-10.22-8.54-7.31a34.13 34.13 0 0 0 3.11-11.86z"/><path class="l" d="M809.13 223.85h3v5.52h-3zM819.918 231.531l2.76-4.78 2.598 1.5-2.76 4.78zM828.111 238.659l4.78-2.76 1.5 2.598-4.78 2.76zM831.69 248.94h5.52v3h-5.52zM828.035 262.203l1.5-2.598 4.78 2.76-1.5 2.598zM819.816 269.316l2.598-1.5 2.76 4.78-2.598 1.5zM809.13 271.5h3v5.52h-3zM795.998 272.694l2.76-4.78 2.598 1.5-2.76 4.78zM790.004 263.529l4.802-2.76 1.5 2.61-4.802 2.76zM784.05 248.94h5.52v3h-5.52zM786.728 238.329l1.5-2.598 4.78 2.76-1.5 2.598zM795.923 227.767l2.598-1.5 2.76 4.78-2.598 1.5z"/><path class="g" d="M810.98 251.11l-10.96-6.86 1.59-2.54 8.9 5.57 11.72-12.06 2.15 2.09-13.4 13.8z"/><path class="l" d="M777.35 183.67h-51.1c-3.07 0-5.25-.89-6.49-2.65-1.72-2.46-.78-5.63-.6-6.16l1.74-6.45 2.9.78-1.8 6.62a4.36 4.36 0 0 0 .21 3.5c.8 1.12 2.63 1.36 4 1.36h51.1v3z"/><circle class="f" cx="726.84" cy="190.76" r="5.57"/><circle class="f" cx="768.34" cy="190.76" r="5.57"/><path class="l" d="M781.4 166h-63.08l-16.88-43.33-2.91-1.09 1.05-2.81 4.17 1.56 1.94 5 79.85 10.67zm-61-3h58.42l3.37-24.46-75.22-10zM710.089 139.799l.33-2.982 72.502 8.023-.33 2.982zM715.536 153.852l.174-2.994 64.98 3.776-.174 2.994zM714.243 128.914l2.874-.861 10.487 35.005-2.874.861zM723.803 130.754l2.91-.726 8.315 33.329-2.91.726zM733.993 131.553l2.949-.555 6.149 32.675-2.949.555zM743.248 132.57l2.973-.393 4.096 30.989-2.973.393zM753.234 134.457l2.994-.174 1.733 29.82-2.994.174zM763.03 164.048l.175-29.17 3 .018-.175 29.17zM770.958 164.139l2.515-27.828 2.988.27-2.515 27.828z"/><path class="g" d="M689.46 111.92a4.14 4.14 0 0 0-3.14 7.67l12.39 5.07 2.63-7.87z"/><rect class="g" x="385.68" y="216.34" width="65.04" height="40.65" rx="3.34" ry="3.34"/><path class="g" d="M390.75 239z"/><path class="l" d="M390.75 237.51h10.59v3h-10.59z"/><path class="g" d="M390.75 248.33z"/><path class="l" d="M390.75 246.83h18.61v3h-18.61z"/><path class="g" d="M405.36 239z"/><path class="l" d="M405.36 237.51h10.59v3h-10.59z"/><path class="g" d="M420 239z"/><path class="l" d="M419.98 237.51h10.59v3h-10.59z"/><path class="g" d="M434.59 239z"/><path class="l" d="M434.59 237.51h10.59v3h-10.59z"/><path class="c" d="M388.1 224.75h60.4v7.17h-60.4z"/><path class="l" d="M480.49 217.46l-2.12-2.12a21.91 21.91 0 0 1 30.94 0l-2.12 2.12a18.9 18.9 0 0 0-26.7 0zM485.43 222.42l-2.12-2.12a14.91 14.91 0 0 1 21.07 0l-2.12 2.12a11.91 11.91 0 0 0-16.83 0zM490.37 227.19l-2.12-2.12a7.86 7.86 0 0 1 5.59-2.32 7.86 7.86 0 0 1 5.59 2.32l-2.12 2.12a4.88 4.88 0 0 0-3.47-1.44 4.88 4.88 0 0 0-3.47 1.44z"/><path class="g" d="M540.38 218.81h70.46v39.73h-70.46z"/><path class="c" d="M551.08 252a6.34 6.34 0 0 0-4.19-4.08v-18.6a6.34 6.34 0 0 0 4.15-4h49.11a6.35 6.35 0 0 0 4.16 4v18.61a6.32 6.32 0 0 0-4.19 4.08h-49.04z"/><circle class="g" cx="575.61" cy="238.67" r="6.99"/><path class="g" d="M588.52 238.67z"/><path class="l" d="M588.52 237.17h11.5v3h-11.5z"/><path class="g" d="M562.7 238.67z"/><path class="l" d="M551.2 237.17h11.5v3h-11.5z"/><circle class="n" cx="722.17" cy="260.84" r="21.69"/><path class="l" d="M717.31 268.87l-6.78-6.79 2.12-2.12 4.66 4.66 14.21-14.21 2.12 2.12-16.33 16.34zM536.53 217.52h15.66v3h-15.66zM528.33 217.52h5.22v3h-5.22zM521.35 225.01h15.66v3h-15.66zM513.15 225.01h5.22v3h-5.22zM463.12 224.82l-2.12-2.12 5.51-5.51-5.51-5.51 2.12-2.12 7.63 7.63-7.63 7.63zM431.65 215.69h35.19v3h-35.19z"/><path class="g" d="M694.03 97.33l-10.75-.94.27-2.99 7.75.68.7-7.76 2.98.27-.95 10.74z"/><path class="l" d="M330.2 152.65h4.35v3h-4.35zM326.233 149.304l2.175-3.767 2.598 1.5-2.175 3.767zM319.161 147.169l2.598-1.5 2.175 3.767-2.598 1.5zM316.08 153.16h4.35v3h-4.35zM319.62 161.787l2.175-3.767 2.598 1.5-2.175 3.767zM327.981 159.838l2.61-1.5 2.175 3.784-2.61 1.5zM716.05 110.06h12.05v3h-12.05zM720.57 105.54h3v12.05h-3zM802.83 69.51h12.05v3h-12.05zM807.36 64.99h3v12.05h-3zM760.44 103.66h21.83v3h-21.83zM769.86 94.24h3v21.84h-3zM696.81 69.51h18.07v3h-18.07zM704.35 61.97h3v18.07h-3z"/><path class="g" d="M525.6 141.88l-3-.09c0-1.36.11-2.72.2-4l3 .21c-.09 1.23-.16 2.56-.2 3.88zm.54-7.86l-3-.32c.15-1.35.32-2.7.52-4l3 .44c-.21 1.26-.38 2.57-.52 3.86zm1.17-7.78l-2.95-.57c.26-1.33.55-2.67.86-4l2.92.7c-.3 1.28-.58 2.58-.83 3.87zm1.84-7.64l-2.88-.83c.38-1.3.79-2.61 1.22-3.88l2.84 1c-.42 1.19-.82 2.45-1.18 3.71zm2.54-7.42l-2.79-1.11c.5-1.26 1-2.52 1.59-3.75l2.73 1.24c-.54 1.19-1.06 2.44-1.54 3.61zm3.25-7.13l-2.66-1.38c.62-1.2 1.28-2.4 2-3.57l2.59 1.52c-.7 1.11-1.34 2.27-1.93 3.38zm4-6.76l-2.51-1.65c.74-1.13 1.53-2.25 2.33-3.34l2.42 1.78c-.81 1.03-1.57 2.12-2.28 3.2zm148.79-6.09c-.91-.94-1.85-1.87-2.79-2.78l2.06-2.17c1 .93 1.95 1.9 2.88 2.86zm-144.19-.2l-2.32-1.9c.86-1.1 1.78-2.1 2.67-3.1l2.22 2c-.88 1-1.74 2-2.57 3zm138.46-5.24c-1-.86-2-1.71-3-2.54l1.89-2.33c1 .85 2.09 1.73 3.1 2.61zm-133.21-.59l-2.08-2.17c1-1 2-1.89 3-2.8l2 2.24c-1 .91-1.96 1.82-2.89 2.73zm127.09-4.35c-1-.78-2.12-1.54-3.21-2.28l1.69-2.48c1.12.76 2.23 1.55 3.3 2.35zm-121.24-.87l-1.88-2.34c1-.85 2.14-1.68 3.23-2.48l1.77 2.43c-1.02.76-2.07 1.57-3.08 2.38zm114.73-3.56c-1.1-.69-2.24-1.37-3.38-2l1.49-2.6c1.17.67 2.34 1.37 3.48 2.08zm-108.37-1.07l-1.65-2.51c1.12-.73 2.28-1.46 3.45-2.15l1.53 2.58c-1.11.68-2.23 1.38-3.33 2.08zm101.56-2.86c-1.16-.6-2.34-1.19-3.53-1.76l1.3-2.7c1.22.58 2.44 1.19 3.63 1.81zm-94.8-1.13l-1.4-2.65c1.18-.63 2.4-1.24 3.63-1.82l1.28 2.71c-1.17.57-2.35 1.16-3.49 1.76zm87.68-2.25c-1.2-.51-2.43-1-3.65-1.48l1.08-2.8c1.26.48 2.53 1 3.76 1.52zm-80.56-1.08l-1.16-2.77c1.24-.52 2.51-1 3.78-1.49l1 2.81c-1.19.45-2.42.93-3.62 1.45zm73.22-1.72c-1.24-.42-2.5-.83-3.75-1.21l.86-2.87c1.29.39 2.58.8 3.86 1.24zm-65.85-1l-.92-2.86c1.28-.41 2.59-.8 3.88-1.16l.8 2.89c-1.26.33-2.53.71-3.77 1.11zm58.3-1.28c-1.27-.33-2.56-.64-3.83-.93l.65-2.93c1.31.29 2.64.61 3.94 1zm-50.73-.83l-.68-2.92c1.3-.31 2.64-.59 4-.84l.57 2.95c-1.33.22-2.63.5-3.89.8zm43-.88c-1.29-.24-2.6-.45-3.89-.64l.44-3c1.33.19 2.67.42 4 .66zm-35.31-.61l-.45-3c1.33-.2 2.68-.38 4-.53l.34 3c-1.25.15-2.56.32-3.86.52zm27.5-.54c-1.31-.14-2.63-.26-3.93-.36l.22-3c1.34.1 2.69.22 4 .37zm-19.68-.35l-.22-3c1.34-.1 2.7-.18 4-.23l.11 3c-1.22.05-2.56.12-3.86.22zm11.82-.22l-3.9-.07v-3c1.33 0 2.68 0 4 .07z"/></svg>