<svg xmlns="http://www.w3.org/2000/svg" xmlns:xlink="http://www.w3.org/1999/xlink" viewBox="0 0 853.21 372.89"><defs><style>.a{opacity:0.75;}.ah,.b{opacity:0.4;}.c{fill:url(#a);}.d{fill:#2e95d1;}.e{fill:#4aa7de;}.f,.h{fill:#fff;}.f{opacity:0.2;}.g{fill:#ffc400;}.i{fill:#282d33;}.j{opacity:0.5;}.k{fill:url(#b);}.l{fill:url(#c);}.m{fill:url(#d);}.n{fill:url(#e);}.o{fill:url(#f);}.p{fill:url(#g);}.q{fill:url(#h);}.r{fill:url(#i);}.s{fill:url(#j);}.t{fill:url(#k);}.u{fill:url(#l);}.v{fill:url(#m);}.w{fill:url(#n);}.x{fill:url(#o);}.y{fill:url(#p);}.z{fill:url(#q);}.aa{fill:url(#r);}.ab{fill:url(#s);}.ac{fill:url(#t);}.ad,.ae,.af,.ai,.aj{opacity:0.3;}.ad{fill:url(#u);}.ae{fill:url(#v);}.ag{fill:url(#w);}.ah{fill:url(#x);}.ai{fill:url(#y);}.aj{fill:url(#z);}.ak{fill:url(#aa);}.al{fill:none;stroke:#282d33;stroke-width:3px;}.am{fill:#136fb7;}.an{fill:#cfeaf9;}.ao{fill:url(#ab);}.ap{fill:url(#ac);}.aq{fill:url(#ad);}</style><linearGradient id="a" x1="752.94" y1="52.86" x2="806.48" y2="143.02" gradientUnits="userSpaceOnUse"><stop offset="0" stop-color="#2e95d1"/><stop offset="1" stop-color="#63bdea"/></linearGradient><linearGradient id="b" x1="-1188.99" y1="902.06" x2="-1234.76" y2="724.46" gradientTransform="matrix(.81 -.58 .58 .81 664.67 -1132.75)" gradientUnits="userSpaceOnUse"><stop offset="0" stop-color="#63bdea"/><stop offset="1" stop-color="#fff"/></linearGradient><linearGradient id="c" x1="-1216.86" y1="909.26" x2="-1262.64" y2="731.65" xlink:href="#b"/><linearGradient id="d" x1="-1244.7" y1="916.43" x2="-1290.47" y2="738.82" xlink:href="#b"/><linearGradient id="e" x1="-1268.3" y1="922.5" x2="-1314.07" y2="744.91" xlink:href="#b"/><linearGradient id="f" x1="-1284.81" y1="926.77" x2="-1330.58" y2="749.16" xlink:href="#b"/><linearGradient id="g" x1="-1292.25" y1="928.69" x2="-1338.03" y2="751.08" xlink:href="#b"/><linearGradient id="h" x1="-1289.49" y1="927.97" x2="-1335.26" y2="750.37" xlink:href="#b"/><linearGradient id="i" x1="-1277.03" y1="924.76" x2="-1322.8" y2="747.15" xlink:href="#b"/><linearGradient id="j" x1="-1256.43" y1="919.45" x2="-1302.2" y2="741.84" xlink:href="#b"/><linearGradient id="k" x1="-1230.18" y1="912.68" x2="-1275.95" y2="735.07" xlink:href="#b"/><linearGradient id="l" x1="-1202.3" y1="905.5" x2="-1248.07" y2="727.9" xlink:href="#b"/><linearGradient id="m" x1="-1174.47" y1="898.32" x2="-1220.24" y2="720.72" xlink:href="#b"/><linearGradient id="n" x1="-1150.87" y1="892.24" x2="-1196.64" y2="714.64" xlink:href="#b"/><linearGradient id="o" x1="-1134.35" y1="887.98" x2="-1180.13" y2="710.38" xlink:href="#b"/><linearGradient id="p" x1="-1126.91" y1="886.07" x2="-1172.69" y2="708.46" xlink:href="#b"/><linearGradient id="q" x1="-1129.67" y1="886.78" x2="-1175.45" y2="709.17" xlink:href="#b"/><linearGradient id="r" x1="-1142.13" y1="890" x2="-1187.91" y2="712.38" xlink:href="#b"/><linearGradient id="s" x1="-1162.74" y1="895.3" x2="-1208.51" y2="717.69" xlink:href="#b"/><linearGradient id="t" x1="-1209.58" y1="907.38" x2="-1255.36" y2="729.77" xlink:href="#b"/><linearGradient id="u" x1="-9655.82" y1="-1455.57" x2="-9477.76" y2="-1455.57" gradientTransform="matrix(0 -1 -1 0 -1195.13 -9357.62)" xlink:href="#b"/><linearGradient id="v" x1="-9583.82" y1="-1391.07" x2="-9405.76" y2="-1391.07" gradientTransform="matrix(0 -1 -1 0 -1195.13 -9357.62)" xlink:href="#b"/><linearGradient id="w" x1="-2797.58" y1="244.52" x2="-2617.85" y2="244.52" gradientTransform="matrix(-1 0 0 1 -2490.58 0)" xlink:href="#b"/><linearGradient id="x" x1="-4114.06" y1="282.33" x2="-3784.14" y2="282.33" gradientTransform="matrix(-1 0 0 1 -3617.92 0)" xlink:href="#b"/><linearGradient id="y" x1="-9655.82" y1="2210.24" x2="-9477.76" y2="2210.24" gradientTransform="translate(-1645.31 -9357.62) rotate(-90)" xlink:href="#b"/><linearGradient id="z" x1="-9583.82" y1="2274.73" x2="-9405.76" y2="2274.73" gradientTransform="translate(-1645.31 -9357.62) rotate(-90)" xlink:href="#b"/><linearGradient id="aa" x1="506.75" y1="282.02" x2="686.48" y2="282.02" xlink:href="#b"/><linearGradient id="ab" x1="129" y1="320.64" x2="0" y2="320.64" gradientUnits="userSpaceOnUse"><stop offset="0" stop-color="#fff"/><stop offset="1" stop-color="#63bdea"/></linearGradient><linearGradient id="ac" x1="128.94" y1="332.64" x2="1.55" y2="332.64" xlink:href="#ab"/><linearGradient id="ad" x1="129" y1="344.64" x2="0" y2="344.64" xlink:href="#ab"/></defs><title>img-banner-Launch-Blue</title><g class="a"><path class="c" d="M817.28 206.52v-94.84a51.55 51.55 0 1 0-88-36.41c0 .78 0 1.55.06 2.33l-7.2 12.47-9.47 16.39h12v20.35a13.9 13.9 0 0 0 13.9 13.9h22v30.67z"/><path class="d" d="M784.41 251.86l46.8 15.21a66.27 66.27 0 0 1-19.21 22.76z"/><path class="e" d="M772.83 235.21v-80.8a77.24 77.24 0 0 1 23.62 4 82.09 82.09 0 0 1 53.23 101.78z"/><path class="f" d="M771.06 303.69a67.2 67.2 0 0 1-47.5-114.74c10.58-10.59 23-17 37-19v70.05l3.79 5.13 37.24 51.25a67.42 67.42 0 0 1-30.54 7.31z"/><path class="g" d="M644.2 318.11a61.41 61.41 0 0 1-2.87-83.78l12.53 12.53a43.74 43.74 0 0 0 61.58 61.58l12.56 12.56a61.41 61.41 0 0 1-83.78-2.87z"/><path class="h" d="M646.65 228.94a60.91 60.91 0 0 1 36.67-15.52v17.73a43.4 43.4 0 0 0-24.16 10.3z"/><path class="i" d="M733.43 317.85l-14.62-14.63.9-1.05a42.24 42.24 0 0 0-28.93-69.61l-1.39-.1v-20.67l1.58.08a62.9 62.9 0 0 1 43.52 104.8zm-10.55-14.8l10.42 10.42a59.9 59.9 0 0 0-40.9-98.47v14.72a45.25 45.25 0 0 1 30.49 73.37z"/><g class="j"><path class="k" d="M104.82 185.86l-6.89-8.13-11.19 7.99 5.45 9.16 12.63-9.02z"/><path class="l" d="M83.26 203.81l-9.25-5.28-7.78 11.33 8.25 6.74 8.78-12.79z"/><path class="m" d="M69.14 228.06l-10.5-1.8-3.43 13.31 10.06 3.51 3.87-15.02z"/><path class="n" d="M64.17 255.67l-10.48 1.9 1.32 13.68 10.66-.14-1.5-15.44z"/><path class="o" d="M68.94 283.31l-9.2 5.38 5.93 12.4 9.96-3.77-6.69-14.01z"/><path class="p" d="M82.88 307.67l-6.81 8.19 9.81 9.63 8.07-6.95-11.07-10.87z"/><path class="q" d="M104.3 325.78l-3.59 10.03 12.51 5.69 5.21-9.3-14.13-6.42z"/><path class="r" d="M130.63 335.47l.06 10.65 13.7 1.07 1.71-10.51-15.47-1.21z"/><path class="s" d="M158.69 335.57l3.69 10 13.25-3.68-1.99-10.47-14.95 4.15z"/><path class="t" d="M185.09 326.08l6.89 8.12 11.18-7.99-5.44-9.15-12.63 9.02z"/><path class="u" d="M206.65 308.12l9.25 5.28 7.78-11.33-8.25-6.74-8.78 12.79z"/><path class="v" d="M220.76 283.88l10.5 1.79 3.44-13.31-10.06-3.51-3.88 15.03z"/><path class="w" d="M225.74 256.26l10.48-1.9-1.32-13.68-10.66.14 1.5 15.44z"/><path class="x" d="M220.97 228.62l9.2-5.38-5.93-12.4-9.96 3.78 6.69 14z"/><path class="y" d="M207.03 204.27l6.81-8.2-9.81-9.63-8.07 6.96 11.07 10.87z"/><path class="z" d="M185.6 186.15l3.6-10.02-12.51-5.7-5.21 9.3 14.12 6.42z"/><path class="aa" d="M159.28 176.46l-.06-10.65-13.7-1.07-1.71 10.51 15.47 1.21z"/><path class="ab" d="M131.22 176.36l-3.69-9.99-13.25 3.68 1.99 10.46 14.95-4.15z"/><path class="ac" d="M98 190.25a80.75 80.75 0 1 0 112.67 18.75 80.75 80.75 0 0 0-112.67-18.75zm82.26 115.15a60.75 60.75 0 1 1 14.13-84.74 60.75 60.75 0 0 1-14.13 84.74z"/></g><path class="ad" d="M277.05 141.78l16.61 21.63h-17.46v134.79h-31.51v-134.79h-17.46l16.61-21.63 16.6-21.64 16.61 21.64z"/><path class="ae" d="M212.55 69.78l16.61 21.64h-17.46v134.78h-31.5v-134.78h-17.46l16.6-21.64 16.61-21.63 16.6 21.63z"/><path class="ag" d="M142 268.26a33.63 33.63 0 0 1-.25-3.92 33.08 33.08 0 0 1 42.12-31.9 48.65 48.65 0 0 1 96.85 6.66v.32a29.69 29.69 0 0 1-3.4 59.19h-133.57v-.07l-1.28.07a15.17 15.17 0 0 1-.46-30.34z"/><path class="ah" d="M166.71 344.65a33.74 33.74 0 0 1 44.29-37.26 70.66 70.66 0 0 1 85.24-58.82 86.59 86.59 0 0 1 148.41 37.43h.17a50.86 50.86 0 0 1 50.72 58.65z"/><path class="ai" d="M548.32 141.78l-16.6 21.63h17.46v134.79h31.5v-134.79h17.46l-16.6-21.63-16.61-21.64-16.61 21.64z"/><path class="aj" d="M612.82 69.78l-16.61 21.64h17.46v134.78h31.51v-134.78h17.46l-16.61-21.64-16.61-21.63-16.6 21.63z"/><path class="ak" d="M671.76 305.76a33.6 33.6 0 0 0 .25-3.92 33.08 33.08 0 0 0-42.12-31.9 48.65 48.65 0 0 0-96.89 6.65v.32a29.69 29.69 0 0 0 3.4 59.19h133.6v-.07l1.28.07a15.17 15.17 0 0 0 .46-30.34z"/><path class="h" d="M540.97 276.75h72.78v15.55h-72.78z"/><path class="i" d="M613.22 337.67h-71.73v-45.35h3v42.35h65.73v-42.35h3v45.35zM553.32 270.65h3v13.5h-3zM598.4 270.65h3v13.5h-3zM553.54 300.58h3.87v3h-3.87zM560.84 300.58h3.87v3h-3.87zM568.13 300.58h3.87v3h-3.87zM575.42 300.58h3.87v3h-3.87zM582.71 300.58h3.87v3h-3.87zM590 300.58h3.87v3h-3.87zM597.29 300.58h3.87v3h-3.87zM553.54 308.08h3.87v3h-3.87zM560.84 308.08h3.87v3h-3.87zM568.13 308.08h3.87v3h-3.87zM575.42 308.08h3.87v3h-3.87zM582.71 308.08h3.87v3h-3.87zM590 308.08h3.87v3h-3.87zM597.29 308.08h3.87v3h-3.87zM553.54 315.58h3.87v3h-3.87zM560.84 315.58h3.87v3h-3.87zM568.13 315.58h3.87v3h-3.87zM575.42 315.58h3.87v3h-3.87zM582.71 315.58h3.87v3h-3.87zM590 315.58h3.87v3h-3.87zM597.29 315.58h3.87v3h-3.87zM553.54 323.08h3.87v3h-3.87zM560.84 323.08h3.87v3h-3.87zM568.13 323.08h3.87v3h-3.87zM575.42 323.08h3.87v3h-3.87zM582.71 323.08h3.87v3h-3.87zM590 323.08h3.87v3h-3.87zM597.29 323.08h3.87v3h-3.87z"/><path class="d" d="M149.25 117.33l-2.34-14.43-13 1a39.62 39.62 0 0 0-7.18-12.29l6.93-11.51-11.86-8.55-8.48 9.9a39.6 39.6 0 0 0-13.77-3.6l-3.25-13-14.41 2.31 1 13a39.56 39.56 0 0 0-12.28 7.18l-11.5-6.93-8.56 11.85 9.9 8.48a39.58 39.58 0 0 0-3.6 13.77l-13 3.24 2.34 14.43 13-1a39.48 39.48 0 0 0 7.18 12.28l-6.97 11.54 11.85 8.55 8.48-9.9a39.5 39.5 0 0 0 13.76 3.6l3.24 13 14.43-2.34-1-13a39.6 39.6 0 0 0 12.28-7.18l11.56 6.95 8.55-11.86-9.9-8.48a39.61 39.61 0 0 0 3.6-13.76z"/><path class="i" d="M95.23 89.32h3v5.69h-3zM106.276 97.179l2.84-4.919 2.598 1.5-2.84 4.919zM114.758 104.552l4.919-2.84 1.5 2.598-4.919 2.84zM118.41 115.19h5.68v3h-5.68zM114.748 128.827l1.5-2.598 4.928 2.845-1.5 2.598zM106.266 136.194l2.598-1.5 2.84 4.919-2.598 1.5zM95.23 138.37h3v5.69h-3zM81.745 139.618l2.84-4.919 2.598 1.5-2.84 4.919zM72.31 129.017l4.919-2.84 1.5 2.598-4.919 2.84zM69.37 115.19h5.69v3h-5.69zM72.273 104.285l1.5-2.598 4.919 2.84-1.5 2.598zM81.767 93.675l2.598-1.5 2.84 4.919-2.598 1.5z"/><path class="h" d="M97.08 117.32l-11.25-7.03 1.59-2.55 9.19 5.76 12.09-12.45 2.16 2.09-13.78 14.18z"/><path class="g" d="M152.38 274.58c0 9.39-17 35.13-17 35.13s-17-25.74-17-35.13a17 17 0 0 1 34 0z"/><circle class="e" cx="135.38" cy="275.52" r="5.03"/><path class="e" d="M246.51 332.86a30.52 30.52 0 0 1-.22-3.54 29.84 29.84 0 0 1 38-28.77 43.89 43.89 0 0 1 87.36 6v.29a26.78 26.78 0 0 1-3.07 53.39h-120.48v-.06l-1.16.06a13.69 13.69 0 0 1-.42-27.37zM585 360.23a23.72 23.72 0 0 0-24-27.81 24.11 24.11 0 0 0-7.54 1.31 50.38 50.38 0 0 0-49.81-43 50.9 50.9 0 0 0-10.81 1.19 61.58 61.58 0 0 0-105.51 26.62h-.12a36.17 36.17 0 0 0-36.07 41.71z"/><circle class="e" cx="365.07" cy="295.91" r="64.32"/><circle class="e" cx="458.48" cy="318.96" r="39.88"/><circle class="e" cx="487.41" cy="251.91" r="12.82"/><circle class="e" cx="502.53" cy="301.9" r="22.82"/><path class="h" d="M475.61 89.49h2.47v3h-2.47zM536.72 64.34h2.47v3h-2.47zM532.72 106.34h2.47v3h-2.47zM358.72 47.34h2.47v3h-2.47zM299.72 106.34h2.47v3h-2.47zM686.72 56.34h2.47v3h-2.47zM480.89 37.03h2.47v3h-2.47zM383.39 86.53h2.47v3h-2.47zM292.72 9.34h2.47v3h-2.47zM354.56 121.04h3.6v3h-3.6zM354.13 206.24h2.21v3h-2.21zM293.03 233.06h3.6v3h-3.6z"/><path class="i" d="M432.121 193.813l3-.024.216 26.96-3 .024zM462.08 201.93h3v73.64h-3zM391.81 213.036l3-.021.3 42.87-3 .021zM364.8 351.87a57.25 57.25 0 0 1-57.18-57.2h3a54.15 54.15 0 1 0 108.3 0v-72.44h3v72.44a57.23 57.23 0 0 1-57.12 57.2z"/><path class="h" d="M395.42 286.21a17.92 17.92 0 0 1-17.92-17.92h3a14.92 14.92 0 1 0 29.84 0v-77h3v77a17.94 17.94 0 0 1-17.92 17.92z"/><path class="i" d="M364.55 336.93a45.92 45.92 0 0 1-5.7-.36 45.16 45.16 0 0 1 11.22-89.57l-.37 3a42.16 42.16 0 1 0 36.6 47l3 .37a45.18 45.18 0 0 1-44.72 39.56zM364.14 321.79a27.54 27.54 0 0 1-3.42-.21 27.39 27.39 0 0 1-23.72-30.58l3 .37a24.39 24.39 0 1 0 48.4 6.06l3 .37a27.43 27.43 0 0 1-27.26 23.99zM462.64 333.44a15.85 15.85 0 0 1-15.83-15.84v-126.32h3v126.33a12.83 12.83 0 1 0 25.67 0h3a15.83 15.83 0 0 1-15.84 15.84zM432.38 234.14h3v76.6h-3z"/><path class="h" d="M462.07 347.28a28.89 28.89 0 0 1-25.68-15.71l2.67-1.37a25.81 25.81 0 1 0 21.24-37.52l-.2-3a28.83 28.83 0 1 1 2 57.59z"/><path class="i" d="M522.77 270.58h-3v-50.14h16.02l-27.55-30.63-27.55 30.63h14.53v3h-21.26l34.28-38.12 34.29 38.12h-19.76v47.14z"/><path class="h" d="M310.76 179.76l-2.13-2.12 17.54-17.52 17.52 17.52-2.12 2.12-15.4-15.39-15.41 15.39zM324.66 162.24h3v69.16h-3z"/><path class="g" d="M249.28 97.62h22.78c.16-2.15.64-5 2-6.76 8.41-10.86 8.94-21.14 8.94-21.86a22.32 22.32 0 1 0-44.63 0c0 .73.52 11 8.94 21.87 1.36 1.79 1.83 4.6 1.97 6.75z"/><path class="i" d="M248.804 73.369l2.952-.531 4.411 24.521-2.952.531zM265.118 97.335l4.413-24.531 2.952.531-4.413 24.531zM268.26 77.73h-1.52l-2.65-1.55-2.65 1.55h-1.52l-2.64-1.55-2.64 1.55h-1.52l-3.4-2 1.52-2.58 2.64 1.55 2.64-1.55h1.52l2.64 1.55 2.65-1.55h1.52l2.65 1.55 2.65-1.55 1.52 2.58-3.41 2zM247.81 96.38h25.77v3h-25.77zM247.81 103.16h25.77v3h-25.77zM252.26 109.95h16.86v3h-16.86zM252.63 98.18h3v5.92h-3z"/><path class="h" d="M255.56 372.89z"/><path class="i" d="M254.06 367.02h3v5.87h-3z"/><path class="h" d="M269 372.89z"/><path class="i" d="M267.47 367.02h3v5.87h-3z"/><path class="h" d="M282.37 372.89z"/><path class="i" d="M280.87 367.02h3v5.87h-3z"/><path class="h" d="M295.78 372.89z"/><path class="i" d="M294.28 367.02h3v5.87h-3z"/><path class="h" d="M309.18 372.89z"/><path class="i" d="M307.68 367.02h3v5.87h-3z"/><path class="h" d="M322.59 372.89z"/><path class="i" d="M321.09 367.02h3v5.87h-3z"/><path class="h" d="M336 372.89z"/><path class="i" d="M334.5 367.02h3v5.87h-3zM691.92 141.55l-2.13-2.11 13.21-13.31 6.51 4.21 79.13-80.5 2.14 2.1-80.84 82.25-6.52-4.22-11.5 11.58zM616.828 153.757l20.69-13.415 1.632 2.517-20.69 13.415z"/><path class="al" d="M664.13 161.69"/><path class="i" d="M664.15 167.47a28.27 28.27 0 1 1 20-8.28 28.13 28.13 0 0 1-20 8.28zm0-53.58a25.29 25.29 0 1 0 0 50.58v1.53-1.5a25.29 25.29 0 0 0-.05-50.58zM670.82 202.93h-13.38v-25.43h13.38zm-10.38-3h7.38v-19.43h-7.38zM660.4 177.03h-3l.01-6.62h13.44v6.62h-3v-3.62h-7.44l-.01 3.62zM663.03 164.94h3v5.66h-3z"/><path class="h" d="M657.57 150.78l-13.21-4.86 1.03-2.81 11.35 4.17 15.89-17 12.03 7.63-1.61 2.53-9.93-6.3-15.55 16.64zM613.35 115.28z"/><path class="i" d="M613.35 113.78h5.87v3h-5.87z"/><path class="h" d="M613.35 128.69z"/><path class="i" d="M613.35 127.19h5.87v3h-5.87z"/><path class="h" d="M613.35 142.1z"/><path class="i" d="M613.35 140.6h5.87v3h-5.87z"/><path class="h" d="M613.35 155.5z"/><path class="i" d="M613.35 154h5.87v3h-5.87z"/><path class="h" d="M613.35 168.91z"/><path class="i" d="M613.35 167.41h5.87v3h-5.87z"/><path class="h" d="M613.35 182.31z"/><path class="i" d="M613.35 180.81h5.87v3h-5.87z"/><path class="h" d="M613.35 195.72z"/><path class="i" d="M613.35 194.22h5.87v3h-5.87zM792.54 62.22h-3v-11.5h-11.5v-3h14.5v14.5z"/><path class="am" d="M430.25 146.87c-11.69 0-21.17 14.17-21.17 31.65a47 47 0 0 0 .44 6.47h41.48a47 47 0 0 0 .44-6.47c-.02-17.52-9.5-31.65-21.19-31.65zM410.27 71c0 33.73-19.19 63.07-47.5 78.28l-2.5 2.08c-5.23 4.3-3.53 24.62-3.53 24.62h53.8v-117.52a59.55 59.55 0 0 1-.49 6.75c.13 1.93.22 3.86.22 5.79z"/><path class="an" d="M410.54 110.38c-8.58 19.68-24.78 36-45.4 46.07l-2.74 2.08c-3.5 2.62-4.17 11.18-4.16 17.47h52.3z"/><path class="am" d="M450.24 71c0 33.73 19.19 63.07 47.5 78.28l2.5 2.08c5.23 4.3 3.53 24.62 3.53 24.62h-53.77v-117.52a59.55 59.55 0 0 0 .49 6.75c-.16 1.93-.25 3.86-.25 5.79z"/><path class="an" d="M450 110.38c8.58 19.68 24.78 36 45.4 46.07l2.74 2.08c3.5 2.62 4.17 11.18 4.16 17.47h-52.3z"/><path class="h" d="M451.34 176v-121.51c0-11.12-9.18-47.21-21.08-53.15-11.9 5.94-21.08 42-21.08 53.15v121.51z"/><path class="am" d="M415.19 26.16h30.13c-3.79-11.22-9.08-21.83-15.07-24.81-5.98 2.98-11.25 13.58-15.06 24.81zM443.23 46.28c-.87 1.78-3.73 1.11-7.1 0a18.15 18.15 0 0 0-12 0c-3.36 1.13-6.23 1.8-7.1 0-.89-1.73 1.21-5.93 5.59-7.45a22.75 22.75 0 0 1 15 0c4.38 1.51 6.47 5.71 5.58 7.45zM387.26 146.87c-5.12 0-9.26 14.17-9.26 31.65 0 2.22.07 4.38.19 6.47h18.13c.13-2.09.19-4.25.19-6.47.01-17.52-4.14-31.65-9.25-31.65zM473.25 146.87c-5.11 0-9.26 14.17-9.26 31.65 0 2.22.07 4.38.19 6.47h18.14c.13-2.09.19-4.25.19-6.47 0-17.52-4.15-31.65-9.26-31.65z"/><path class="i" d="M410.67 185h-3v-130.51c0-5.39 2.11-17.08 6.16-29 3.28-9.68 8.68-22 15.76-25.49l1.34 2.68c-4.74 2.36-9.93 11-14.25 23.77-3.9 11.49-6 23-6 28z"/><path class="ao" d="M127.5 319.14h1.5v3h-1.5z"/><path class="ap" d="M74.62 346.14h-3.62v-3h3v1.5l1.06 1.06zm-6.66 0h-3v-3h3zm-6 0h-3v-3h3zm-6 0h-3v-3h3zm-6 0h-3v-3h3zm-6 0h-3v-3h3zm-6 0h-3v-3h3zm-6 0h-3v-3h3zm-6 0h-3v-3h3zm-6 0h-3v-3h3zm-6 0h-3v-3h3zm-6 0h-3v-3h3zm69.66-2.58l-2.12-2.12 2.14-2.14 2.12 2.12zm4.27-4.27l-2.12-2.12 1.72-2.17 2.12 2.12zm3.85-4.29l-2.12-2.12 2.14-2.14 2.12 2.12zm4.26-4.25l-2.12-2.12 2.12-2.14 2.12 2.12zm4.27-4.27l-2.12-2.12 2.14-2.14 2.12 2.12zm4.27-4.27l-.06-.06h-.48v-.5l-1.56-1.56.94-.94h2.93v3h-1.69zm25.92-.06h-3v-3h3zm-6 0h-3v-3h3zm-6 0h-3v-3h3zm-6 0h-3v-3h3z"/><path class="aq" d="M0 343.14h1.5v3h-1.5z"/><circle class="h" cx="133.88" cy="320.52" r="5.12"/><path class="i" d="M240.42 192.27l-2.12-2.12 11.71-11.7 11.7 11.7-2.12 2.12-9.58-9.58-9.59 9.58zM248.51 183.46h3v68.02h-3zM570.4 195.27l-2.12-2.12 11.71-11.7 11.71 11.7-2.12 2.12-9.59-9.58-9.59 9.58zM578.49 186.46h3v68.02h-3zM200.92 150.77l-2.12-2.12 11.71-11.7 11.71 11.7-2.13 2.12-9.58-9.58-9.59 9.58zM209.01 141.97h3v57.02h-3z"/><path class="h" d="M222.09 190.34h-3v-1.88h3zm0-4.88h-3v-3h3zm0-6h-3v-3h3zm0-6h-3v-3h3zm0-6h-3v-3h3zM558.23 223.49h3v1.5h-3zM561.23 220.61h-3v-2.88h3zm0-5.76h-3v-2.85h3zm0-5.76h-3v-2.88h3zm0-5.76h-3v-2.88h3zm0-5.76h-3v-2.88h3zm0-5.76h-3v-2.88h3zm0-5.76h-3v-2.88h3zm0-5.76h-3v-2.88h3zm0-5.76h-3v-2.88h3zm0-5.76h-3v-2.88h3zm0-5.76h-3v-2.88h3zm0-5.76h-3v-2.88h3zM558.23 149.99h3v1.5h-3z"/></g></svg>