<svg xmlns="http://www.w3.org/2000/svg" xmlns:xlink="http://www.w3.org/1999/xlink" viewBox="0 0 1400 980"><defs><style>.a{opacity:0.25;}.b{fill:url(#a);}.c,.d,.e,.f,.g,.h,.i{opacity:0.74;}.c{fill:url(#b);}.d{fill:url(#c);}.e{fill:url(#d);}.f{fill:url(#e);}.g{fill:url(#f);}.h{fill:url(#g);}.i{fill:url(#h);}.j{fill:url(#i);}.k{fill:url(#j);}.l{fill:url(#k);}.m{fill:url(#l);}.n{fill:url(#m);}</style><linearGradient id="a" x1="134.98" y1="1058.91" x2="1298.98" y2="-113.09" gradientUnits="userSpaceOnUse"><stop offset="0" stop-color="#2e3a87"/><stop offset="0.29" stop-color="#1972a4"/><stop offset="0.71" stop-color="#2cc4cb"/><stop offset="1" stop-color="#73f7dd"/></linearGradient><linearGradient id="b" x1="104.73" y1="1094.65" x2="1268.73" y2="-77.35" gradientUnits="userSpaceOnUse"><stop offset="0" stop-color="#fff" stop-opacity="0.8"/><stop offset="1" stop-color="#fff" stop-opacity="0"/></linearGradient><linearGradient id="c" x1="437.18" y1="-335.29" x2="916.01" y2="410.43" xlink:href="#b"/><linearGradient id="d" x1="382.37" y1="-309.56" x2="898.39" y2="494.09" xlink:href="#b"/><linearGradient id="e" x1="331.85" y1="-281.54" x2="883.46" y2="577.52" xlink:href="#b"/><linearGradient id="f" x1="96.17" y1="980.02" x2="1208.29" y2="-139.74" xlink:href="#b"/><linearGradient id="g" x1="1384.95" y1="567.56" x2="660.21" y2="868.12" xlink:href="#b"/><linearGradient id="h" x1="1375.28" y1="637.82" x2="463.19" y2="1016.08" xlink:href="#b"/><linearGradient id="i" x1="0" y1="555.34" x2="832.56" y2="555.34" xlink:href="#b"/><linearGradient id="j" x1="180.56" y1="756.4" x2="1319.47" y2="756.4" xlink:href="#b"/><linearGradient id="k" x1="243.68" y1="785.51" x2="1234.5" y2="785.51" xlink:href="#b"/><linearGradient id="l" x1="298.58" y1="132.75" x2="975.35" y2="132.75" xlink:href="#b"/><linearGradient id="m" x1="463.12" y1="119.74" x2="1073.69" y2="119.74" xlink:href="#b"/></defs><title>img-banner-geo-triangles-blue-25</title><g class="a"><rect class="b" width="1400" height="980"/><polygon class="c" points="1384.02 0 0 608.68 0 980 40 980 1400 381.88 1400 0 1384.02 0"/><polygon class="d" points="989.33 0 7.55 0 1400 541.78 1400 159.79 989.33 0"/><polygon class="e" points="1400 266.48 715.12 0 0 0 0 103.75 1400 648.48 1400 266.48"/><polygon class="f" points="1400 373.17 440.92 0 0 0 0 210.44 1400 755.16 1400 373.17"/><polygon class="g" points="1400 0 1103.78 0 0 485.44 0 874.35 1400 258.63 1400 0"/><polygon class="h" points="650.18 828.37 689.84 918.55 1400 606.23 1400 498.6 650.18 828.37"/><polygon class="i" points="1400 672.62 1400 564.99 456.35 980 701.08 980 1400 672.62"/><polygon class="j" points="832.56 717.15 0 389.81 0 394.11 831.1 720.87 832.56 717.15"/><polygon class="k" points="182.02 532.79 180.56 536.52 1308.54 980 1319.47 980 182.02 532.79"/><polygon class="l" points="245.14 591.02 243.68 594.74 1223.57 980 1234.5 980 245.14 591.02"/><polygon class="m" points="964.42 0 298.58 261.78 300.05 265.5 975.35 0 964.42 0"/><polygon class="n" points="1062.76 0 463.12 235.76 464.58 239.48 1073.69 0 1062.76 0"/></g></svg>