<?xml version="1.0" encoding="utf-8"?>
<!-- Generator: Adobe Illustrator 19.2.1, SVG Export Plug-In . SVG Version: 6.00 Build 0)  -->
<svg version="1.1" id="Layer_1" xmlns="http://www.w3.org/2000/svg" xmlns:xlink="http://www.w3.org/1999/xlink" x="0px" y="0px"
	 viewBox="0 0 1000 500" style="enable-background:new 0 0 1000 500;" xml:space="preserve">
<style type="text/css">
	.st0{fill:url(#SVGID_1_);}
	.st1{opacity:0.75;}
	.st2{fill:url(#SVGID_2_);}
	.st3{fill:#2E95D1;}
	.st4{fill:#4AA7DE;}
	.st5{opacity:0.2;fill:#FFFFFF;enable-background:new    ;}
	.st6{fill:#FFC400;}
	.st7{fill:#FFFFFF;}
	.st8{fill:#282D33;}
	.st9{opacity:0.5;}
	.st10{fill:url(#SVGID_3_);}
	.st11{fill:url(#SVGID_4_);}
	.st12{fill:url(#SVGID_5_);}
	.st13{fill:url(#SVGID_6_);}
	.st14{fill:url(#SVGID_7_);}
	.st15{fill:url(#SVGID_8_);}
	.st16{fill:url(#SVGID_9_);}
	.st17{fill:url(#SVGID_10_);}
	.st18{fill:url(#SVGID_11_);}
	.st19{fill:url(#SVGID_12_);}
	.st20{fill:url(#SVGID_13_);}
	.st21{fill:url(#SVGID_14_);}
	.st22{fill:url(#SVGID_15_);}
	.st23{fill:url(#SVGID_16_);}
	.st24{fill:url(#SVGID_17_);}
	.st25{fill:url(#SVGID_18_);}
	.st26{fill:url(#SVGID_19_);}
	.st27{fill:url(#SVGID_20_);}
	.st28{fill:url(#SVGID_21_);}
	.st29{opacity:0.3;fill:url(#SVGID_22_);enable-background:new    ;}
	.st30{opacity:0.3;fill:url(#SVGID_23_);enable-background:new    ;}
	.st31{fill:url(#SVGID_24_);}
	.st32{opacity:0.4;fill:url(#SVGID_25_);enable-background:new    ;}
	.st33{opacity:0.3;fill:url(#SVGID_26_);enable-background:new    ;}
	.st34{opacity:0.3;fill:url(#SVGID_27_);enable-background:new    ;}
	.st35{fill:url(#SVGID_28_);}
	.st36{fill:none;stroke:#282D33;stroke-width:3.12;}
	.st37{fill:#136FB7;}
	.st38{fill:#CFEAF9;}
	.st39{fill:url(#SVGID_29_);}
	.st40{fill:url(#SVGID_30_);}
	.st41{fill:url(#SVGID_31_);}
</style>
<title>img-email-banner-welcome</title>
<radialGradient id="SVGID_1_" cx="434" cy="66" r="522.3" gradientTransform="matrix(1 0 0 1 0 225)" gradientUnits="userSpaceOnUse">
	<stop  offset="0" style="stop-color:#8366DE"/>
	<stop  offset="1" style="stop-color:#533C7A"/>
</radialGradient>
<path class="st0" d="M0,0h1000v500H0V0z"/>
<g class="st1">
	
		<linearGradient id="SVGID_2_" gradientUnits="userSpaceOnUse" x1="836.8585" y1="382.4588" x2="892.5285" y2="288.7288" gradientTransform="matrix(1 0 0 -1 0 498)">
		<stop  offset="0" style="stop-color:#2E95D1"/>
		<stop  offset="1" style="stop-color:#63BDEA"/>
	</linearGradient>
	<path class="st2" d="M903.7,275.4v-98.6c20.9-20.9,20.9-54.9,0-75.8s-54.9-20.9-75.8,0c-10.1,10.1-15.7,23.7-15.7,37.9
		c0,0.8,0,1.6,0.1,2.4l-7.5,13l-9.8,17h12.5v21.2c0,8,6.5,14.4,14.5,14.4l0,0h22.9v31.9L903.7,275.4z"/>
	<path class="st3" d="M869.5,322.5l48.7,15.8c-4.8,9.3-11.6,17.4-20,23.7L869.5,322.5z"/>
	<path class="st4" d="M857.4,305.2v-84c8.4,0.1,16.6,1.5,24.6,4.2c44.2,14.3,68.7,61.4,55.3,105.8L857.4,305.2z"/>
	<path class="st5" d="M855.6,376.4c-38.6,0-69.9-31.3-69.9-69.9c0-18.5,7.4-36.3,20.5-49.4c11-11,23.9-17.7,38.5-19.8v72.8l3.9,5.3
		l38.7,53.3C877.5,373.8,866.6,376.4,855.6,376.4L855.6,376.4L855.6,376.4z"/>
	<path class="st6" d="M723.7,391.4c-23.7-23.7-25.1-61.8-3-87.1l13,13c-15.9,19.4-13.2,48.1,6.2,64c16.8,13.8,41,13.8,57.8,0
		l13.1,13.1C785.5,416.4,747.4,415.1,723.7,391.4L723.7,391.4z"/>
	<path class="st7" d="M726.3,298.7c10.5-9.5,24-15.2,38.1-16.1V301c-9.3,0.9-18.1,4.6-25.1,10.7L726.3,298.7z"/>
	<path class="st8" d="M816.5,391.1l-15.2-15.2l0.9-1.1c15.8-18.4,13.6-46.1-4.8-61.9c-7.1-6.1-16-9.7-25.3-10.4l-1.5-0.1v-21.5
		l1.6,0.1c36.1,1.9,63.8,32.6,61.9,68.7c-0.8,14.9-6.7,29.2-16.7,40.3L816.5,391.1z M805.5,375.7l10.8,10.8
		c22.3-26.2,19-65.5-7.2-87.8c-10-8.4-22.3-13.6-35.3-14.6v15.3c25.8,2.7,44.6,25.8,41.9,51.6C814.7,360.1,811.2,368.7,805.5,375.7
		L805.5,375.7L805.5,375.7z"/>
	<g class="st9">
		
			<linearGradient id="SVGID_3_" gradientUnits="userSpaceOnUse" x1="-1238.1949" y1="-1125.4996" x2="-1285.785" y2="-940.8596" gradientTransform="matrix(0.81 -0.58 -0.58 -0.81 633.97 -1265.65)">
			<stop  offset="0" style="stop-color:#63BDEA"/>
			<stop  offset="1" style="stop-color:#FFFFFF"/>
		</linearGradient>
		<path class="st10" d="M162.9,253.9l-7.2-8.4l-11.6,8.3l5.7,9.5L162.9,253.9z"/>
		
			<linearGradient id="SVGID_4_" gradientUnits="userSpaceOnUse" x1="-1267.197" y1="-1132.9895" x2="-1314.787" y2="-948.3395" gradientTransform="matrix(0.81 -0.58 -0.58 -0.81 633.97 -1265.65)">
			<stop  offset="0" style="stop-color:#63BDEA"/>
			<stop  offset="1" style="stop-color:#FFFFFF"/>
		</linearGradient>
		<path class="st11" d="M140.5,272.5l-9.6-5.5l-8.1,11.8l8.6,7L140.5,272.5L140.5,272.5L140.5,272.5z"/>
		
			<linearGradient id="SVGID_5_" gradientUnits="userSpaceOnUse" x1="-1296.3236" y1="-1140.4941" x2="-1343.9037" y2="-955.8341" gradientTransform="matrix(0.81 -0.58 -0.58 -0.81 633.97 -1265.65)">
			<stop  offset="0" style="stop-color:#63BDEA"/>
			<stop  offset="1" style="stop-color:#FFFFFF"/>
		</linearGradient>
		<path class="st12" d="M125.8,297.8l-10.9-1.9l-3.6,13.8l10.5,3.6L125.8,297.8L125.8,297.8L125.8,297.8z"/>
		
			<linearGradient id="SVGID_6_" gradientUnits="userSpaceOnUse" x1="-1320.9268" y1="-1146.8246" x2="-1368.5167" y2="-962.1846" gradientTransform="matrix(0.81 -0.58 -0.58 -0.81 633.97 -1265.65)">
			<stop  offset="0" style="stop-color:#63BDEA"/>
			<stop  offset="1" style="stop-color:#FFFFFF"/>
		</linearGradient>
		<path class="st13" d="M120.7,326.5l-10.9,2l1.4,14.2l11.1-0.1L120.7,326.5L120.7,326.5L120.7,326.5z"/>
		
			<linearGradient id="SVGID_7_" gradientUnits="userSpaceOnUse" x1="-1338.2094" y1="-1151.2904" x2="-1385.7993" y2="-966.6404" gradientTransform="matrix(0.81 -0.58 -0.58 -0.81 633.97 -1265.65)">
			<stop  offset="0" style="stop-color:#63BDEA"/>
			<stop  offset="1" style="stop-color:#FFFFFF"/>
		</linearGradient>
		<path class="st14" d="M125.6,355.2l-9.6,5.6l6.2,12.9l10.4-3.9L125.6,355.2z"/>
		
			<linearGradient id="SVGID_8_" gradientUnits="userSpaceOnUse" x1="-1345.986" y1="-1153.3018" x2="-1393.5759" y2="-968.6418" gradientTransform="matrix(0.81 -0.58 -0.58 -0.81 633.97 -1265.65)">
			<stop  offset="0" style="stop-color:#63BDEA"/>
			<stop  offset="1" style="stop-color:#FFFFFF"/>
		</linearGradient>
		<path class="st15" d="M140.1,380.5L133,389l10.2,10l8.4-7.2L140.1,380.5z"/>
		
			<linearGradient id="SVGID_9_" gradientUnits="userSpaceOnUse" x1="-1343.0594" y1="-1152.5396" x2="-1390.6395" y2="-967.8895" gradientTransform="matrix(0.81 -0.58 -0.58 -0.81 633.97 -1265.65)">
			<stop  offset="0" style="stop-color:#63BDEA"/>
			<stop  offset="1" style="stop-color:#FFFFFF"/>
		</linearGradient>
		<path class="st16" d="M162.4,399.3l-3.7,10.4l13,5.9l5.4-9.7L162.4,399.3z"/>
		
			<linearGradient id="SVGID_10_" gradientUnits="userSpaceOnUse" x1="-1330.1487" y1="-1149.2074" x2="-1377.7386" y2="-964.5574" gradientTransform="matrix(0.81 -0.58 -0.58 -0.81 633.97 -1265.65)">
			<stop  offset="0" style="stop-color:#63BDEA"/>
			<stop  offset="1" style="stop-color:#FFFFFF"/>
		</linearGradient>
		<path class="st17" d="M189.8,409.4l0.1,11.1l14.2,1.1l1.8-10.9L189.8,409.4z"/>
		
			<linearGradient id="SVGID_11_" gradientUnits="userSpaceOnUse" x1="-1308.7489" y1="-1143.6929" x2="-1356.3289" y2="-959.0428" gradientTransform="matrix(0.81 -0.58 -0.58 -0.81 633.97 -1265.65)">
			<stop  offset="0" style="stop-color:#63BDEA"/>
			<stop  offset="1" style="stop-color:#FFFFFF"/>
		</linearGradient>
		<path class="st18" d="M218.9,409.5l3.8,10.4l13.8-3.8l-2.1-10.9L218.9,409.5z"/>
		
			<linearGradient id="SVGID_12_" gradientUnits="userSpaceOnUse" x1="-1281.2523" y1="-1136.6029" x2="-1328.8323" y2="-951.9428" gradientTransform="matrix(0.81 -0.58 -0.58 -0.81 633.97 -1265.65)">
			<stop  offset="0" style="stop-color:#63BDEA"/>
			<stop  offset="1" style="stop-color:#FFFFFF"/>
		</linearGradient>
		<path class="st19" d="M246.4,399.6l7.2,8.4l11.6-8.3l-5.7-9.5L246.4,399.6z"/>
		
			<linearGradient id="SVGID_13_" gradientUnits="userSpaceOnUse" x1="-1252.2469" y1="-1129.1346" x2="-1299.8269" y2="-944.4847" gradientTransform="matrix(0.81 -0.58 -0.58 -0.81 633.97 -1265.65)">
			<stop  offset="0" style="stop-color:#63BDEA"/>
			<stop  offset="1" style="stop-color:#FFFFFF"/>
		</linearGradient>
		<path class="st20" d="M268.8,381l9.6,5.5l8.1-11.8l-8.6-7L268.8,381L268.8,381z"/>
		
			<linearGradient id="SVGID_14_" gradientUnits="userSpaceOnUse" x1="-1223.2091" y1="-1121.6377" x2="-1270.7891" y2="-936.9977" gradientTransform="matrix(0.81 -0.58 -0.58 -0.81 633.97 -1265.65)">
			<stop  offset="0" style="stop-color:#63BDEA"/>
			<stop  offset="1" style="stop-color:#FFFFFF"/>
		</linearGradient>
		<path class="st21" d="M283.5,355.8l10.9,1.9l3.6-13.8l-10.5-3.6L283.5,355.8z"/>
		
			<linearGradient id="SVGID_15_" gradientUnits="userSpaceOnUse" x1="-1198.5946" y1="-1115.2996" x2="-1246.1847" y2="-930.6595" gradientTransform="matrix(0.81 -0.58 -0.58 -0.81 633.97 -1265.65)">
			<stop  offset="0" style="stop-color:#63BDEA"/>
			<stop  offset="1" style="stop-color:#FFFFFF"/>
		</linearGradient>
		<path class="st22" d="M288.6,327.1l10.9-2l-1.4-14.2L287,311L288.6,327.1L288.6,327.1L288.6,327.1z"/>
		
			<linearGradient id="SVGID_16_" gradientUnits="userSpaceOnUse" x1="-1181.2349" y1="-1110.8237" x2="-1228.835" y2="-926.1737" gradientTransform="matrix(0.81 -0.58 -0.58 -0.81 633.97 -1265.65)">
			<stop  offset="0" style="stop-color:#63BDEA"/>
			<stop  offset="1" style="stop-color:#FFFFFF"/>
		</linearGradient>
		<path class="st23" d="M283.7,298.3l9.6-5.6l-6.2-12.9l-10.4,3.9L283.7,298.3z"/>
		
			<linearGradient id="SVGID_17_" gradientUnits="userSpaceOnUse" x1="-1173.4556" y1="-1108.8217" x2="-1221.0555" y2="-924.1716" gradientTransform="matrix(0.81 -0.58 -0.58 -0.81 633.97 -1265.65)">
			<stop  offset="0" style="stop-color:#63BDEA"/>
			<stop  offset="1" style="stop-color:#FFFFFF"/>
		</linearGradient>
		<path class="st24" d="M269.2,273l7.1-8.5l-10.2-10l-8.4,7.2L269.2,273z"/>
		
			<linearGradient id="SVGID_18_" gradientUnits="userSpaceOnUse" x1="-1176.3837" y1="-1109.5845" x2="-1223.9836" y2="-924.9244" gradientTransform="matrix(0.81 -0.58 -0.58 -0.81 633.97 -1265.65)">
			<stop  offset="0" style="stop-color:#63BDEA"/>
			<stop  offset="1" style="stop-color:#FFFFFF"/>
		</linearGradient>
		<path class="st25" d="M246.9,254.2l3.7-10.4l-13-5.9l-5.4,9.7L246.9,254.2z"/>
		
			<linearGradient id="SVGID_19_" gradientUnits="userSpaceOnUse" x1="-1189.229" y1="-1112.9023" x2="-1236.8291" y2="-928.2323" gradientTransform="matrix(0.81 -0.58 -0.58 -0.81 633.97 -1265.65)">
			<stop  offset="0" style="stop-color:#63BDEA"/>
			<stop  offset="1" style="stop-color:#FFFFFF"/>
		</linearGradient>
		<path class="st26" d="M219.6,244.1l-0.1-11.1l-14.2-1.1l-1.8,10.9L219.6,244.1z"/>
		
			<linearGradient id="SVGID_20_" gradientUnits="userSpaceOnUse" x1="-1210.7086" y1="-1118.4221" x2="-1258.2887" y2="-933.7623" gradientTransform="matrix(0.81 -0.58 -0.58 -0.81 633.97 -1265.65)">
			<stop  offset="0" style="stop-color:#63BDEA"/>
			<stop  offset="1" style="stop-color:#FFFFFF"/>
		</linearGradient>
		<path class="st27" d="M190.4,244l-3.8-10.4l-13.8,3.8l2.1,10.9L190.4,244z"/>
		
			<linearGradient id="SVGID_21_" gradientUnits="userSpaceOnUse" x1="-1259.7288" y1="-1131.0602" x2="-1307.3187" y2="-946.4102" gradientTransform="matrix(0.81 -0.58 -0.58 -0.81 633.97 -1265.65)">
			<stop  offset="0" style="stop-color:#63BDEA"/>
			<stop  offset="1" style="stop-color:#FFFFFF"/>
		</linearGradient>
		<path class="st28" d="M155.9,258.4c-37.8,27-46.5,79.4-19.5,117.2s79.4,46.5,117.2,19.5S300,315.7,273,278l0,0
			C246,240.2,193.6,231.5,155.9,258.4L155.9,258.4z M241.4,378.2c-28.4,20.3-67.8,13.7-88.1-14.7s-13.7-67.8,14.7-88.1
			c28.4-20.2,67.8-13.7,88.1,14.7l0,0C276.3,318.4,269.8,357.8,241.4,378.2C241.4,378.1,241.4,378.1,241.4,378.2L241.4,378.2z"/>
	</g>
	
		<linearGradient id="SVGID_22_" gradientUnits="userSpaceOnUse" x1="-10502.3203" y1="2791.8799" x2="-10317.1201" y2="2791.8799" gradientTransform="matrix(6.123234e-17 -1 1 6.123234e-17 -2467.1299 -10131.6201)">
		<stop  offset="0" style="stop-color:#63BDEA"/>
		<stop  offset="1" style="stop-color:#FFFFFF"/>
	</linearGradient>
	<path class="st29" d="M342,208l17.3,22.5h-18.1v140.2h-32.8V230.5h-18.2l17.3-22.5l17.3-22.5L342,208L342,208z"/>
	
		<linearGradient id="SVGID_23_" gradientUnits="userSpaceOnUse" x1="-10427.4199" y1="2724.8298" x2="-10242.3203" y2="2724.8298" gradientTransform="matrix(6.123234e-17 -1 1 6.123234e-17 -2467.1299 -10131.6201)">
		<stop  offset="0" style="stop-color:#63BDEA"/>
		<stop  offset="1" style="stop-color:#FFFFFF"/>
	</linearGradient>
	<path class="st30" d="M274.9,133.2l17.3,22.5h-18.1v140.1h-32.8V155.7h-18.1l17.3-22.5l17.3-22.5L274.9,133.2L274.9,133.2
		L274.9,133.2z"/>
	
		<linearGradient id="SVGID_24_" gradientUnits="userSpaceOnUse" x1="-4859.7749" y1="183.1882" x2="-4672.915" y2="183.1882" gradientTransform="matrix(-1 0 0 -1 -4486.5801 498)">
		<stop  offset="0" style="stop-color:#63BDEA"/>
		<stop  offset="1" style="stop-color:#FFFFFF"/>
	</linearGradient>
	<path class="st31" d="M201.6,339.5c-0.2-1.4-0.3-2.7-0.3-4.1c0-19,15.3-34.4,34.3-34.5c3.2,0,6.4,0.4,9.5,1.3
		c3.8-27.7,29.3-47,57-43.2c25.1,3.4,43.7,24.9,43.7,50.2v0.3c16.9,1.9,29.1,17.2,27.2,34.2c-1.8,15.6-15,27.4-30.7,27.4H203.4V371
		l-1.3,0.1c-8.7,0.1-15.9-6.8-16-15.5C185.9,346.8,192.9,339.7,201.6,339.5L201.6,339.5L201.6,339.5z"/>
	
		<linearGradient id="SVGID_25_" gradientUnits="userSpaceOnUse" x1="-6183.8198" y1="143.869" x2="-5840.7656" y2="143.869" gradientTransform="matrix(-1 0 0 -1 -5613.9199 498)">
		<stop  offset="0" style="stop-color:#63BDEA"/>
		<stop  offset="1" style="stop-color:#FFFFFF"/>
	</linearGradient>
	<path class="st32" d="M227.3,419c-3.1-19.1,10-37.1,29.1-40.2c5.7-0.9,11.5-0.4,16.9,1.4c5.8-40.1,43.1-68,83.3-62.1l0,0
		c1.8,0.3,3.6,0.6,5.4,1c33.2-37,90.1-40,127.1-6.7c13.5,12.1,23,28,27.2,45.6h0.2c29.2-0.3,53.1,23.2,53.4,52.4
		c0,2.9-0.2,5.8-0.6,8.6L227.3,419L227.3,419z"/>
	
		<linearGradient id="SVGID_26_" gradientUnits="userSpaceOnUse" x1="-10502.3203" y1="-3010.6101" x2="-10317.1201" y2="-3010.6101" gradientTransform="matrix(0 -1 -1 0 -2369.3101 -10131.6201)">
		<stop  offset="0" style="stop-color:#63BDEA"/>
		<stop  offset="1" style="stop-color:#FFFFFF"/>
	</linearGradient>
	<path class="st33" d="M624,208l-17.3,22.5h18.2v140.2h32.8V230.5h18.2L658.6,208l-17.3-22.5L624,208L624,208z"/>
	
		<linearGradient id="SVGID_27_" gradientUnits="userSpaceOnUse" x1="-10427.4199" y1="-3077.71" x2="-10242.3203" y2="-3077.71" gradientTransform="matrix(0 -1 -1 0 -2369.3101 -10131.6201)">
		<stop  offset="0" style="stop-color:#63BDEA"/>
		<stop  offset="1" style="stop-color:#FFFFFF"/>
	</linearGradient>
	<path class="st34" d="M691.1,133.2l-17.3,22.5H692v140.1h32.8V155.7H743l-17.3-22.5l-17.3-22.5L691.1,133.2L691.1,133.2
		L691.1,133.2z"/>
	
		<linearGradient id="SVGID_28_" gradientUnits="userSpaceOnUse" x1="530.6152" y1="-1359.9496" x2="717.4752" y2="-1359.9496" gradientTransform="matrix(0.81 -0.58 -0.58 -0.81 633.97 -1265.65)">
		<stop  offset="0" style="stop-color:#63BDEA"/>
		<stop  offset="1" style="stop-color:#FFFFFF"/>
	</linearGradient>
	<path class="st35" d="M752.4,378.5c0.2-1.4,0.3-2.7,0.3-4.1c0-19-15.3-34.4-34.3-34.5c-3.2,0-6.4,0.4-9.5,1.3
		c-3.6-27.7-28.9-47.3-56.7-43.7c-25.4,3.3-44.3,25-44.1,50.6v0.3c-16.9,1.9-29.1,17.2-27.2,34.2c1.8,15.6,15,27.4,30.7,27.4h138.9
		v0l1.3,0.1c8.7,0.1,15.9-6.8,16-15.5C768,385.8,761,378.7,752.4,378.5L752.4,378.5L752.4,378.5z"/>
	<path class="st7" d="M616.4,348.4h75.7v16.2h-75.7V348.4z"/>
	<path class="st8" d="M691.5,411.7h-74.6v-47.2h3.1v44h68.3v-44h3.1L691.5,411.7L691.5,411.7z M629.2,342h3.1v14h-3.1V342z
		 M676.1,342h3.1v14h-3.1V342z M629.5,373.1h4v3.1h-4V373.1z M637,373.1h4v3.1h-4V373.1z M644.6,373.1h4v3.1h-4V373.1z M652.2,373.1
		h4v3.1h-4V373.1z M659.8,373.1h4v3.1h-4V373.1z M667.4,373.1h4v3.1h-4V373.1z M675,373.1h4v3.1h-4V373.1z M629.5,380.9h4v3.1h-4
		V380.9z M637.1,380.9h4v3.1h-4V380.9z M644.6,380.9h4v3.1h-4V380.9z M652.2,380.9h4v3.1h-4V380.9z M659.8,380.9h4v3.1h-4V380.9z
		 M667.4,380.9h4v3.1h-4V380.9z M675,380.9h4v3.1h-4V380.9z M629.5,388.7h4v3.1h-4V388.7z M637.1,388.7h4v3.1h-4V388.7z
		 M644.6,388.7h4v3.1h-4V388.7z M652.2,388.7h4v3.1h-4V388.7z M659.8,388.7h4v3.1h-4V388.7z M667.4,388.7h4v3.1h-4V388.7z
		 M675,388.7h4v3.1h-4V388.7z M629.5,396.5h4v3.1h-4V396.5z M637.1,396.5h4v3.1h-4V396.5z M644.6,396.5h4v3.1h-4V396.5z
		 M652.2,396.5h4v3.1h-4V396.5z M659.8,396.5h4v3.1h-4V396.5z M667.4,396.5h4v3.1h-4V396.5z M675,396.5h4v3.1h-4V396.5z"/>
	<path class="st3" d="M209.1,182.6l-2.4-15l-13.5,1c-1.7-4.7-4.2-9-7.5-12.8l7.2-12l-12.3-8.8l-8.8,10.3c-4.5-2.1-9.4-3.4-14.3-3.7
		l-3.4-13.5l-15,2.4l1,13.5c-4.7,1.7-9,4.2-12.8,7.5l-12-7.2l-8.9,12.3l10.3,8.8c-2.1,4.5-3.4,9.4-3.7,14.3L99.4,183l2.4,15l13.5-1
		c1.7,4.7,4.3,9,7.6,12.7l-7.2,12l12.2,8.9l8.8-10.3c4.5,2.1,9.4,3.4,14.3,3.7l3.4,13.5l15-2.4l-1-13.5c4.7-1.7,9-4.2,12.8-7.5
		l12,7.2l8.9-12.3l-10.3-8.8c2.1-4.5,3.4-9.4,3.7-14.3L209.1,182.6z"/>
	<path class="st8" d="M153,153.5h3.1v5.9H153V153.5z M164.5,161.7l3-5.1l2.7,1.6l-3,5.1L164.5,161.7z M173.3,169.3l5.1-3l1.6,2.7
		l-5.1,3L173.3,169.3z M177.1,180.4h5.9v3.1h-5.9V180.4L177.1,180.4z M173.3,194.6l1.6-2.7l5.1,3l-1.6,2.7L173.3,194.6z
		 M164.5,202.2l2.7-1.6l3,5.1l-2.7,1.6L164.5,202.2z M153,204.5h3.1v5.9H153V204.5z M139,205.8l3-5.1l2.7,1.6l-3,5.1L139,205.8z
		 M129.2,194.8l5.1-3l1.6,2.7l-5.1,3L129.2,194.8z M126.1,180.4h5.9v3.1h-5.9V180.4L126.1,180.4z M129.1,169.1l1.6-2.7l5.1,3
		l-1.6,2.7L129.1,169.1z M139,158l2.7-1.6l3,5.1l-2.7,1.6L139,158z"/>
	<path class="st7" d="M154.9,182.6l-11.7-7.3l1.6-2.6l9.6,6l12.6-13l2.2,2.2L154.9,182.6z"/>
	<path class="st6" d="M212.4,346.1c0,9.8-17.7,36.5-17.7,36.5S177,355.9,177,346.1s7.9-17.7,17.7-17.7S212.4,336.3,212.4,346.1z"/>
	<circle class="st4" cx="194.7" cy="347.1" r="5.2"/>
	<path class="st4" d="M310.2,406.7c-0.2-1.2-0.2-2.5-0.2-3.7c-0.1-17.1,13.8-31,30.9-31.1c2.9,0,5.8,0.4,8.6,1.2
		c3.5-25,26.5-42.4,51.4-39c22.6,3.1,39.4,22.4,39.4,45.2v0.3c15.3,1.7,26.3,15.5,24.6,30.7c-1.6,14.1-13.6,24.8-27.8,24.8H311.9
		l0,0l-1.2,0.1c-7.9,0.1-14.3-6.2-14.4-14C296.1,413.3,302.4,406.8,310.2,406.7L310.2,406.7z M662.2,435.2
		c2.4-13.4-6.6-26.2-20-28.5c-1.6-0.3-3.3-0.4-5-0.4c-2.7,0-5.3,0.5-7.8,1.4c-3.8-25.7-25.8-44.7-51.8-44.7c-3.8,0-7.5,0.4-11.2,1.2
		c-23.7-26.2-64.1-28.3-90.4-4.7c-9.5,8.6-16.3,19.9-19.3,32.3h-0.1c-20.8-0.2-37.7,16.5-37.9,37.3c0,2,0.1,4.1,0.4,6.1L662.2,435.2
		z"/>
	<circle class="st4" cx="433.5" cy="368.3" r="66.9"/>
	<circle class="st4" cx="530.6" cy="392.2" r="41.5"/>
	<circle class="st4" cx="560.7" cy="322.5" r="13.3"/>
	<circle class="st4" cx="576.4" cy="374.5" r="23.7"/>
	<path class="st7" d="M548.4,153.7h2.6v3.1h-2.6V153.7L548.4,153.7z M612,127.5h2.6v3.1H612V127.5z M607.8,171.2h2.6v3.1h-2.6V171.2
		z M426.9,109.9h2.6v3.1h-2.6V109.9L426.9,109.9z M365.6,171.2h2.6v3.1h-2.6V171.2z M767.9,119.2h2.6v3.1h-2.6V119.2z M553.9,99.1
		h2.6v3.1h-2.6V99.1L553.9,99.1z M452.6,150.6h2.6v3.1h-2.6V150.6z M358.3,70.3h2.6v3.1h-2.6V70.3z M422.6,186.5h3.7v3.1h-3.7V186.5
		z M422.1,275.1h2.3v3.1h-2.3V275.1z M358.6,302.9h3.7v3.1h-3.7V302.9z"/>
	<path class="st8" d="M503.2,262.1h3.1l0.2,28h-3.1L503.2,262.1z M534.4,270.6h3.1v76.6h-3.1V270.6L534.4,270.6z M461.3,282.1h3.1
		l0.3,44.6h-3.1L461.3,282.1z M433.2,426.5c-32.8,0-59.4-26.6-59.5-59.5h3.1c0,31.1,25.2,56.3,56.3,56.3s56.3-25.2,56.3-56.3v-75.4
		h3.1V367C492.6,399.8,466,426.4,433.2,426.5z"/>
	<path class="st7" d="M465.1,358.2c-10.3,0-18.6-8.3-18.6-18.6l0,0h3.1c-0.3,8.6,6.4,15.7,14.9,16.1c8.6,0.3,15.7-6.4,16.1-14.9
		c0-0.4,0-0.7,0-1.1v-80.1h3.1v80.1C483.7,349.9,475.3,358.2,465.1,358.2L465.1,358.2L465.1,358.2z"/>
	<path class="st8" d="M433,410.9c-2,0-4-0.1-5.9-0.4c-25.5-4.7-42.4-29.2-37.7-54.7c4.3-23.5,25.6-40,49.4-38.4l-0.4,3.1
		c-24-3-45.9,14-49,38s14,45.9,38,49c24,3,45.9-14,49-38l0,0v-0.1l3.1,0.4C476.5,393.2,456.6,410.9,433,410.9L433,410.9z
		 M432.6,395.2c-15.7,0-28.4-12.7-28.4-28.4c0-1.2,0.1-2.4,0.2-3.6l3.1,0.4c-1.7,13.9,8.3,26.5,22.2,28.2c13.6,1.6,26-7.9,28.1-21.4
		c0-0.2,0-0.3,0.1-0.5l3.1,0.4C459.1,384.5,447,395.2,432.6,395.2L432.6,395.2z M535,407.3c-9.1,0-16.5-7.4-16.5-16.5V259.5h3.1
		v131.3c0,7.4,6,13.3,13.3,13.3c7.4,0,13.3-6,13.3-13.3h3.1C551.5,399.9,544.1,407.3,535,407.3L535,407.3L535,407.3L535,407.3z
		 M503.5,304.1h3.1v79.6h-3.1V304.1z"/>
	<path class="st7" d="M534.4,421.7c-11.3,0-21.6-6.3-26.7-16.3l2.8-1.4c6.8,13.2,22.9,18.4,36.1,11.6s18.4-22.9,11.6-36.1
		c-4.9-9.5-15-15.3-25.7-14.5l-0.2-3.1c16.6-0.4,30.4,12.6,30.8,29.2c0.4,15.6-11.1,28.9-26.6,30.6
		C535.8,421.7,535.1,421.7,534.4,421.7L534.4,421.7L534.4,421.7z"/>
	<path class="st8" d="M597.5,342h-3.1v-52.2H611L582.4,258l-28.6,31.8h15.1v3.1h-22.1l35.6-39.6l35.6,39.6h-20.5V342L597.5,342z"/>
	<path class="st7" d="M377,247.5l-2.2-2.2l18.2-18.2l18.2,18.2l-2.2,2.2l-16-16L377,247.5z M391.5,229.3h3.1v71.9h-3.1V229.3
		L391.5,229.3z"/>
	<path class="st6" d="M313.1,162.1h23.7c0.2-2.2,0.7-5.2,2.1-7c8.7-11.3,9.3-22,9.3-22.7c0-12.8-10.4-23.2-23.2-23.2
		c-12.5,0-22.7,9.8-23.2,22.2c0,0.3,0,0.7,0,1c0,0.8,0.5,11.4,9.3,22.7C312.5,157,313,159.9,313.1,162.1z"/>
	<path class="st8" d="M312.6,136.9l3.1-0.6l4.6,25.5l-3.1,0.6L312.6,136.9z M329.6,161.8l4.6-25.5l3.1,0.6l-4.6,25.5L329.6,161.8z
		 M332.9,141.5h-1.6l-2.8-1.6l-2.8,1.6h-1.6l-2.7-1.6l-2.7,1.6h-1.6l-3.5-2.1l1.6-2.7l2.7,1.6l2.7-1.6h1.6l2.7,1.6l2.8-1.6h1.6
		l2.8,1.6l2.8-1.6l1.6,2.7L332.9,141.5z M311.6,160.8h26.8v3.2h-26.8V160.8L311.6,160.8z M311.6,167.8h26.8v3.2h-26.8V167.8
		L311.6,167.8z M316.2,174.9h17.5v3.1h-17.5v-3V174.9z M316.6,162.7h3.1v6.1h-3.1V162.7z"/>
	<path class="st7" d="M319.7,448.3"/>
	<path class="st8" d="M318.1,442.2h3.1v6.1h-3.1V442.2z"/>
	<path class="st7" d="M333.6,448.3"/>
	<path class="st8" d="M332,442.2h3.1v6.1H332V442.2z"/>
	<path class="st7" d="M347.5,448.3"/>
	<path class="st8" d="M346,442.2h3.1v6.1H346V442.2z"/>
	<path class="st7" d="M361.5,448.3"/>
	<path class="st8" d="M359.9,442.2h3.1v6.1h-3.1V442.2L359.9,442.2z"/>
	<path class="st7" d="M375.4,448.3"/>
	<path class="st8" d="M373.8,442.2h3.2v6.1h-3.1L373.8,442.2L373.8,442.2z"/>
	<path class="st7" d="M389.4,448.3"/>
	<path class="st8" d="M387.8,442.2h3.1v6.1h-3.1V442.2z"/>
	<path class="st7" d="M403.3,448.3"/>
	<path class="st8" d="M401.7,442.2h3.1v6.1h-3.1V442.2z M773.3,207.8l-2.2-2.2l13.7-13.8l6.8,4.4l82.3-83.7l2.2,2.2l-84,85.5
		l-6.8-4.4L773.3,207.8L773.3,207.8L773.3,207.8z M695.2,220.5l21.5-13.9l1.7,2.6L697,223.1L695.2,220.5z"/>
	<path class="st36" d="M744.4,228.7"/>
	<path class="st8" d="M744.5,234.8c-16.2,0-29.4-13.2-29.4-29.4s13.2-29.4,29.4-29.4s29.4,13.2,29.4,29.4c0,7.8-3.1,15.3-8.6,20.8
		C759.7,231.7,752.2,234.8,744.5,234.8z M744.5,179c-14.5,0-26.3,11.8-26.3,26.3s11.8,26.3,26.3,26.3l0,0l0,0
		c14.5,0,26.3-11.8,26.3-26.3S758.9,179,744.5,179L744.5,179z M751.4,271.6h-13.9v-26.4h13.9V271.6L751.4,271.6z M740.6,268.5h7.7
		v-20.2h-7.7V268.5z M740.6,244.7h-3.1v-6.9h14v6.9h-3.2v-3.8h-7.7V244.7L740.6,244.7z M743.3,232.1h3.1v5.9h-3.1V232.1z"/>
	<path class="st7" d="M737.6,217.4l-13.7-5.1l1.1-2.9l11.8,4.3l16.5-17.7l12.5,7.9l-1.7,2.6l-10.3-6.6L737.6,217.4L737.6,217.4
		L737.6,217.4z"/>
	<path class="st8" d="M691.6,178.9h6.1v3.1h-6.1V178.9z"/>
	<path class="st7" d="M691.6,194.4"/>
	<path class="st8" d="M691.6,192.9h6.1v3.1h-6.1V192.9L691.6,192.9z"/>
	<path class="st7" d="M691.6,208.4"/>
	<path class="st8" d="M691.6,206.8h6.1v3.1h-6.1V206.8z"/>
	<path class="st7" d="M691.6,222.3"/>
	<path class="st8" d="M691.6,220.8h6.1v3.1h-6.1V220.8z"/>
	<path class="st7" d="M691.6,236.2"/>
	<path class="st8" d="M691.6,234.7h6.1v3.1h-6.1V234.7z"/>
	<path class="st7" d="M691.6,250.2"/>
	<path class="st8" d="M691.6,248.6h6.1v3.1h-6.1V248.6z"/>
	<path class="st7" d="M691.6,264.1"/>
	<path class="st8" d="M691.6,262.6h6.1v3.1h-6.1V262.6z M877.9,125.3h-3.1v-12h-12v-3.1h15.1V125.3L877.9,125.3z"/>
	<path class="st37" d="M501.3,213.3c-12.1,0-22,14.7-22,32.9c0,2.3,0.2,4.5,0.5,6.7h43.1c0.3-2.2,0.5-4.5,0.5-6.7
		C523.3,228,513.4,213.3,501.3,213.3z M480.5,134.5c0,35.1-20,65.6-49.4,81.4l-2.6,2.2c-5.4,4.5-3.7,25.6-3.7,25.6h55.9V121.4
		c0,2.3-0.2,4.7-0.5,7C480.4,130.4,480.5,132.4,480.5,134.5z"/>
	<path class="st38" d="M480.8,175.4c-8.9,20.5-25.8,37.4-47.2,47.9l-2.9,2.2c-3.6,2.7-4.3,11.6-4.3,18.2h54.4V175.4L480.8,175.4z"/>
	<path class="st37" d="M522.1,134.5c0,35.1,20,65.6,49.4,81.4l2.6,2.1c5.4,4.5,3.7,25.6,3.7,25.6h-55.9V121.4c0,2.3,0.2,4.7,0.5,7
		C522.2,130.4,522.1,132.4,522.1,134.5z"/>
	<path class="st38" d="M521.8,175.4c8.9,20.5,25.8,37.4,47.2,47.9l2.8,2.2c3.6,2.7,4.3,11.6,4.3,18.2h-54.4v-68.3H521.8z"/>
	<path class="st7" d="M523.2,243.6V117.3c0-11.6-9.5-49.1-21.9-55.3c-12.4,6.2-21.9,43.7-21.9,55.3v126.3H523.2z"/>
	<path class="st37" d="M485.6,87.8H517c-4-11.7-9.5-22.7-15.7-25.8C495.1,65.1,489.6,76.2,485.6,87.8z M514.8,108.8
		c-0.9,1.8-3.9,1.2-7.4,0c-4-1.4-8.4-1.4-12.5,0c-3.5,1.2-6.5,1.9-7.4,0s1.3-6.2,5.8-7.8c5-1.8,10.5-1.8,15.6,0
		C513.5,102.6,515.7,106.9,514.8,108.8L514.8,108.8L514.8,108.8z M456.6,213.3c-5.3,0-9.6,14.7-9.6,32.9c0,2.3,0.1,4.6,0.2,6.7H466
		c0.1-2.2,0.2-4.4,0.2-6.7C466.2,228,461.9,213.3,456.6,213.3z M546,213.3c-5.3,0-9.6,14.7-9.6,32.9c0,2.3,0.1,4.6,0.2,6.7h18.9
		c0.1-2.2,0.2-4.4,0.2-6.7C555.6,228,551.3,213.3,546,213.3L546,213.3z"/>
	<path class="st8" d="M480.9,253h-3.1V117.3c0-5.6,2.2-17.8,6.4-30.2c3.4-10.1,9-22.9,16.4-26.5l1.4,2.8
		c-4.9,2.4-10.3,11.4-14.8,24.7c-4,11.9-6.2,23.9-6.2,29.1L480.9,253L480.9,253z"/>
	
		<linearGradient id="SVGID_29_" gradientUnits="userSpaceOnUse" x1="188.08" y1="104.05" x2="53.96" y2="104.05" gradientTransform="matrix(1 0 0 -1 0 498)">
		<stop  offset="0" style="stop-color:#FFFFFF"/>
		<stop  offset="1" style="stop-color:#63BDEA"/>
	</linearGradient>
	<path class="st39" d="M186.5,392.4h1.6v3.1h-1.6V392.4z"/>
	
		<linearGradient id="SVGID_30_" gradientUnits="userSpaceOnUse" x1="188.01" y1="91.55" x2="55.57" y2="91.55" gradientTransform="matrix(1 0 0 -1 0 498)">
		<stop  offset="0" style="stop-color:#FFFFFF"/>
		<stop  offset="1" style="stop-color:#63BDEA"/>
	</linearGradient>
	<path class="st40" d="M131.5,420.5h-3.8v-3.1h3.1v1.6l1.1,1.1L131.5,420.5z M124.6,420.5h-3.1v-3.1h3.1V420.5z M118.4,420.5h-3.1
		v-3.1h3.1V420.5z M112.1,420.5H109v-3.1h3.1V420.5L112.1,420.5z M105.9,420.5h-3.1v-3.1h3.1V420.5z M99.7,420.5h-3.1v-3.1h3.1
		V420.5z M93.4,420.5h-3.1v-3.1h3.1V420.5L93.4,420.5z M87.2,420.5h-3.1v-3.1h3.1V420.5L87.2,420.5z M80.9,420.5h-3.1v-3.1H81
		L80.9,420.5L80.9,420.5z M74.7,420.5h-3.1v-3.1h3.1V420.5L74.7,420.5z M68.5,420.5h-3.1v-3.1h3.1V420.5L68.5,420.5z M62.2,420.5
		h-3.1v-3.1h3.1V420.5L62.2,420.5z M134.6,417.8l-2.2-2.2l2.2-2.2l2.2,2.2L134.6,417.8z M139.1,413.4l-2.2-2.2l1.8-2.3l2.2,2.2
		L139.1,413.4z M143.1,408.9l-2.2-2.2l2.2-2.2l2.2,2.2L143.1,408.9z M147.5,404.5l-2.2-2.2l2.2-2.2l2.2,2.2L147.5,404.5z M152,400.1
		l-2.2-2.2l2.2-2.2l2.2,2.2L152,400.1z M156.4,395.6L156.4,395.6l-0.6-0.1V395l-1.6-1.6l1-1h3v3.1h-1.8L156.4,395.6z M183.3,395.6
		h-3.1v-3.1h3.1V395.6z M177.1,395.6H174v-3.1h3.1V395.6L177.1,395.6z M170.9,395.6h-3.1v-3.1h3.1V395.6z M164.6,395.6h-3.1v-3.1
		h3.1V395.6z"/>
	
		<linearGradient id="SVGID_31_" gradientUnits="userSpaceOnUse" x1="188.08" y1="79.05" x2="53.96" y2="79.05" gradientTransform="matrix(1 0 0 -1 0 498)">
		<stop  offset="0" style="stop-color:#FFFFFF"/>
		<stop  offset="1" style="stop-color:#63BDEA"/>
	</linearGradient>
	<path class="st41" d="M54,417.4h1.6v3.1H54V417.4z"/>
	<circle class="st7" cx="193.1" cy="393.9" r="5.3"/>
	<path class="st8" d="M303.9,260.5l-2.2-2.2l12.2-12.2l12.2,12.2l-2.2,2.2l-10-10L303.9,260.5L303.9,260.5L303.9,260.5z
		 M312.3,251.4h3.1v70.7h-3.1V251.4z M647,263.7l-2.2-2.2l12.2-12.2l12.2,12.2l-2.2,2.2l-10-10L647,263.7z M655.4,254.5h3.1v70.7
		h-3.1V254.5L655.4,254.5z M262.9,217.4l-2.2-2.2l12.2-12.2l12.2,12.2l-2.2,2.2l-10-10L262.9,217.4L262.9,217.4L262.9,217.4z
		 M271.3,208.2h3.1v59.3h-3.1V208.2z"/>
	<path class="st7" d="M284.9,258.5h-3.1v-2h3.1V258.5z M284.9,253.5h-3.1v-3.1h3.1V253.5z M284.9,247.2h-3.1v-3.1h3.1V247.2
		L284.9,247.2z M284.9,241h-3.1v-3.1h3.1V241L284.9,241z M284.9,234.7h-3.1v-3.1h3.1V234.7z M634.3,293h3.1v1.6h-3.1V293z
		 M637.5,290h-3.1v-3h3.1V290z M637.5,284h-3.1v-3h3.1V284z M637.5,278h-3.1v-3h3.1V278z M637.5,272h-3.1v-3h3.1V272z M637.5,266
		h-3.1v-3h3.1V266z M637.5,260h-3.1v-3h3.1V260z M637.5,254h-3.1v-3h3.1V254z M637.5,248h-3.1v-3h3.1V248z M637.5,242h-3.1v-3h3.1
		V242z M637.5,236h-3.1v-3h3.1V236z M637.5,230h-3.1v-3h3.1V230z M637.5,224h-3.1v-3h3.1V224z M634.3,216.4h3.1v1.6h-3.1V216.4z"/>
</g>
</svg>
