<svg xmlns="http://www.w3.org/2000/svg" xmlns:xlink="http://www.w3.org/1999/xlink" viewBox="0 0 901.4 298.24"><defs><style>.a,.c{opacity:0.5;}.b{fill:#4aa7de;}.c,.g{fill:#fff;}.d,.l,.m{opacity:0.2;}.e{fill:url(#a);}.f{opacity:0.3;}.h{fill:#282d33;}.i{fill:#2e95d1;}.j{fill:#f8c44f;}.k{opacity:0.8;}.l{fill:url(#b);}.m{fill:url(#c);}</style><linearGradient id="a" x1="678.59" y1="139.91" x2="726.38" y2="220.41" gradientUnits="userSpaceOnUse"><stop offset="0" stop-color="#fff"/><stop offset="1" stop-color="#63bdea"/></linearGradient><linearGradient id="b" x1="-9402.34" y1="-4303.86" x2="-9312.83" y2="-4303.86" gradientTransform="translate(-9167.48 -4098.85) rotate(180)" xlink:href="#a"/><linearGradient id="c" x1="53.2" y1="168.31" x2="123.05" y2="168.31" gradientUnits="userSpaceOnUse"><stop offset="0" stop-color="#63bdea"/><stop offset="1" stop-color="#fff"/></linearGradient></defs><title>img-banner-Setup-Blue</title><g class="a"><path class="b" d="M90.19 154.53a50.28 50.28 0 0 0-6.67-68.31l-8.83 11.52a35.82 35.82 0 0 1-43.37 56.59l-8.83 11.52a50.28 50.28 0 0 0 67.7-11.32zM78.63 82.41a49.87 49.87 0 0 0-31.44-8.66l1.9 14.39a35.55 35.55 0 0 1 20.72 5.77z"/><path class="c" d="M26.36 150.61a35.87 35.87 0 0 1-4.52-48.46 35.48 35.48 0 0 1 21.1-13.27l-1.94-14.36a50.28 50.28 0 0 0-23.5 87.61z"/></g><path class="e" d="M751.28 268v-60.16a56.71 56.71 0 1 0-96.85-40.05c0 .86 0 1.71.07 2.56l-7.92 13.72-10.42 18h13.17v22.43a15.29 15.29 0 0 0 15.29 15.29h24.22v28.21z"/><g class="f"><path class="b" d="M509.36 106l39.59 12.86a56.06 56.06 0 0 1-16.25 19.25zM499.56 91.95v-68.34a65.35 65.35 0 0 1 20 3.38 69.43 69.43 0 0 1 45 86.09z"/><path class="g" d="M498.07 149.87a56.84 56.84 0 0 1-40.17-97.05 54.76 54.76 0 0 1 31.3-16.09v59.27l3.21 4.34 31.5 43.35a57 57 0 0 1-25.83 6.19z"/></g><path class="b" d="M132.65 47.1l-12.44 12.43 10.13 12a47.59 47.59 0 0 0-6.94 15.65l-16.1 1.32v17.58l15.62 1.3a47.69 47.69 0 0 0 6.17 16l-10.44 12.34 12.43 12.43 12-10.13a47.61 47.61 0 0 0 15.65 6.93l1.32 16.05h17.59l1.3-15.63a47.63 47.63 0 0 0 16-6.17l12.34 10.44 12.44-12.43-10.13-12a47.55 47.55 0 0 0 6.93-15.65l16.11-1.34v-17.53l-15.63-1.3a47.59 47.59 0 0 0-6.17-16l10.44-12.34-12.47-12.4-12 10.13a47.56 47.56 0 0 0-15.65-6.93l-1.34-16.11h-17.56l-1.25 15.63a47.67 47.67 0 0 0-16 6.17zm51.09 37.5a19.5 19.5 0 1 1-27.58 0 19.5 19.5 0 0 1 27.58 0zM62.82 6.77l-7.42 7.41 6 7.14a28.39 28.39 0 0 0-4.14 9.33l-9.61.8v10.5l9.32.78a28.4 28.4 0 0 0 3.68 9.52l-6.23 7.36 7.48 7.39 7.1-6a28.4 28.4 0 0 0 9.33 4.13l.8 9.61h10.53l.78-9.32a28.39 28.39 0 0 0 9.56-3.7l7.36 6.23 7.42-7.41-6-7.14a28.34 28.34 0 0 0 4.13-9.33l9.61-.8v-10.5l-9.41-.77a28.41 28.41 0 0 0-3.68-9.52l6.23-7.36-7.42-7.42-7.14 6a28.39 28.39 0 0 0-9.33-4.13l-.77-9.57h-10.52l-.78 9.32a28.38 28.38 0 0 0-9.52 3.68zm30.47 22.37a11.63 11.63 0 1 1-16.45 0 11.63 11.63 0 0 1 16.45 0z"/><path class="h" d="M691.27 236.41h-3v-11.62h-14.11a11.37 11.37 0 0 1-11.35-11.36v-12.92h-9.59l12.9-22.33v-1.28c0-.93 0-1.85.1-2.74l3 .21c-.06.82-.09 1.67-.09 2.52v2.0300000000000002l-10.73 18.59h7.39v15.93a8.36 8.36 0 0 0 8.35 8.36h17.11z"/><path class="g" d="M886.9 85.25a49.49 49.49 0 1 0 0 70 49.54 49.54 0 0 0 0-70zm-11 59a34 34 0 1 1 0-48 34 34 0 0 1 .02 48zM862.82 109.33a15.44 15.44 0 1 0 0 21.82 15.45 15.45 0 0 0 0-21.82z"/><path class="i" d="M366.89 136.53h-58.15v115.51h77v-96.65l-18.85-18.86z"/><path class="g" d="M366.88 156.17h19.64l-19.64-19.64v19.64z"/><path class="h" d="M299.85 161.55h21.38v3h-21.38zM299.46 170.83h50.77v3h-50.77zM299.46 180.12h50.77v3h-50.77zM299.46 189.4h50.77v3h-50.77zM299.46 198.69h32.86v3h-32.86z"/><path class="j" d="M299.89 298.24l-170.67-170.67 11.32-11.32 159.35 159.36 112.21-112.21 83.05 83.06 129.82-129.81 109.45 109.46 101.05-101.05 11.32 11.31-112.37 112.36-109.45-109.45-129.82 129.8-83.05-83.05-112.21 112.21zM852.98 174.17h-16v-39.31h-39.3v-16h55.3v55.31z"/><path class="h" d="M493.82 212.73h3v8.59h-3zM510.374 224.936l4.3-7.448 2.598 1.5-4.3 7.448zM522.936 236.35l7.439-4.295 1.5 2.598-7.439 4.295zM528.1 252.61h8.59v3h-8.59zM522.986 271.86l1.5-2.598 7.448 4.3-1.5 2.598zM510.395 283.298l2.598-1.5 4.295 7.439-2.598 1.5zM493.82 286.89h3v8.59h-3zM473.228 289.022l4.295-7.439 2.598 1.5-4.295 7.439zM458.726 273.432l7.439-4.295 1.5 2.598-7.439 4.295zM453.94 252.61h8.6v3h-8.6zM458.7 234.693l1.5-2.598 7.439 4.295-1.5 2.598zM473.302 218.798l2.598-1.5 4.3 7.448-2.598 1.5zM495.31 258.19a4.09 4.09 0 1 1 3-1.36 4.09 4.09 0 0 1-3 1.36zm0-5.17a1.08 1.08 0 0 0-.81.36 1.09 1.09 0 0 0 .81 1.81 1.09 1.09 0 1 0 0-2.17zM496.009 251.455l18.016-20.122 2.235 2.001-18.016 20.122zM475.561 238.638l2.001-2.235 17.724 15.868-2.001 2.235z"/><path class="g" d="M167.83 200.14h80.06v17.1h-80.06z"/><path class="h" d="M247.17 267.01h-78.61v-49.74h3v46.74h72.61v-46.74h3v49.74zM181.57 193.43h3v14.85h-3zM231.16 193.43h3v14.85h-3zM181.67 226.51h4.26v3h-4.26zM189.69 226.51h4.26v3h-4.26zM197.71 226.51h4.26v3h-4.26zM205.73 226.51h4.26v3h-4.26zM213.75 226.51h4.26v3h-4.26zM221.77 226.51h4.26v3h-4.26zM229.79 226.51h4.26v3h-4.26zM181.67 234.76h4.26v3h-4.26zM189.69 234.76h4.26v3h-4.26zM197.71 234.76h4.26v3h-4.26zM205.73 234.76h4.26v3h-4.26zM213.75 234.76h4.26v3h-4.26zM221.77 234.76h4.26v3h-4.26zM229.79 234.76h4.26v3h-4.26zM181.67 243.01h4.26v3h-4.26zM189.69 243.01h4.26v3h-4.26zM197.71 243.01h4.26v3h-4.26zM205.73 243.01h4.26v3h-4.26zM213.75 243.01h4.26v3h-4.26zM221.77 243.01h4.26v3h-4.26zM229.79 243.01h4.26v3h-4.26zM181.67 251.26h4.26v3h-4.26zM189.69 251.26h4.26v3h-4.26zM197.71 251.26h4.26v3h-4.26zM205.73 251.26h4.26v3h-4.26zM213.75 251.26h4.26v3h-4.26zM221.77 251.26h4.26v3h-4.26zM229.79 251.26h4.26v3h-4.26z"/><path class="g" d="M100.42 202.57h44.26c.3-4.19 1.24-9.63 3.88-13.14 16.33-21 17.38-41.07 17.38-42.48a43.35 43.35 0 0 0-86.71 0c0 1.42 1 21.44 17.37 42.48 2.63 3.51 3.54 8.95 3.82 13.14z"/><path class="h" d="M100.936 155.077l2.952-.531 8.57 47.645-2.952.531zM132.569 202.137l8.57-47.645 2.952.531-8.57 47.645zM136.25 161.91h-.87l-6.19-1.86-6.17 1.86h-.87l-6.18-1.86-6.18 1.86h-.87l-6.61-2 .87-2.87 6.18 1.87 6.18-1.87h.87l6.17 1.87 6.18-1.87h.87l6.18 1.87 6.19-1.87.87 2.87-6.62 2zM94.4 201.58h56.38v3h-56.38zM94.4 212.53h56.38v3h-56.38zM94.4 223.49h56.38v3h-56.38zM102.07 234.44h41.05v3h-41.05zM99.44 203.66h3v20.81h-3zM121.09 87.01h3v8.6h-3zM105.726 89.399l2.898-.777 2.225 8.298-2.898.777zM91.421 95.811l2.598-1.5 4.3 7.448-2.598 1.5zM79.301 105.536l2.121-2.121 6.073 6.073-2.121 2.121zM70.14 118.158l1.5-2.598 7.448 4.3-1.5 2.598zM64.559 132.705l.777-2.898 8.308 2.227-.777 2.898zM62.9 145.2h8.6v3h-8.6zM64.459 160.732l8.298-2.216.774 2.898-8.298 2.216zM70.438 175.923l7.482-4.3 1.5 2.61-7.482 4.3zM79.297 187.812l6.08-6.08 2.121 2.121-6.08 6.08zM157.631 183.763l2.121-2.121 6.08 6.08-2.121 2.121zM166.087 173.574l1.5-2.598 7.448 4.3-1.5 2.598zM171.58 161.382l.777-2.898 8.308 2.227-.777 2.898zM173.69 145.2h8.6v3h-8.6zM171.493 132.116l8.298-2.216.774 2.898-8.298 2.216zM166.095 119.839l7.448-4.3 1.5 2.598-7.448 4.3zM157.627 109.519l6.08-6.08 2.121 2.121-6.08 6.08zM146.856 101.738l4.3-7.448 2.598 1.5-4.3 7.448zM134.413 96.98l2.225-8.298 2.898.777-2.225 8.298z"/><path class="g" d="M272.78 141.22h-43.08a5.44 5.44 0 0 0-5.44 5.44v2.27a5.44 5.44 0 0 0 5.44 5.44h43.08zM317.22 142.8h-52.83c-3 0-5.44 1.85-5.44 4.13v1.72c0 2.28 2.44 4.13 5.44 4.13h52.83z"/><path class="h" d="M265.52 162.19h-25.66a7 7 0 0 1-6.94-6.94v-14h3v14a4 4 0 0 0 3.94 3.94h25.66zM271.5 140.99h3v13.38h-3zM315.63 140.99h3v13.38h-3zM326.3 153.15h-7.92v-3h5.82c1.85-2.66 7.35-4 10.39-4v3c-3.61 0-7.75 1.84-8 2.87zM334.6 149.15c-3 0-8.55-1.33-10.39-4h-5.82v-3h7.91l.29 1.13c.26 1 4.4 2.87 8 2.87z"/><path class="g" d="M484.36 140.55a2.67 2.67 0 0 1-2.66 2.66h-88.34a2.67 2.67 0 0 1-2.66-2.66v-21.77l-3.7-4.16 3.66-4.83v-3.5a2.67 2.67 0 0 1 2.66-2.66h88.34a2.67 2.67 0 0 1 2.66 2.66zM399 114.48z"/><path class="h" d="M399.04 112.98h27.5v3h-27.5z"/><path class="g" d="M430.94 114.48z"/><path class="h" d="M430.94 112.98h26.4v3h-26.4z"/><path class="g" d="M447.17 114.48z"/><path class="h" d="M447.17 112.98h23.1v3h-23.1z"/><path class="g" d="M399 123z"/><path class="h" d="M399.04 121.51h11.83v3h-11.83z"/><path class="g" d="M415.82 123z"/><path class="h" d="M415.82 121.51h40.43v3h-40.43z"/><path class="g" d="M460.64 123z"/><path class="h" d="M460.64 121.51h13.75v3h-13.75z"/><path class="g" d="M399 131.54z"/><path class="h" d="M399.04 130.04h27.5v3h-27.5z"/><path class="g" d="M430.94 131.54z"/><path class="h" d="M430.94 130.04h18.43v3h-18.43z"/><path class="i" d="M452.65 181.54a2.67 2.67 0 0 0 2.66 2.66h87.8a2.67 2.67 0 0 0 2.66-2.66v-4.16l3.66-4.16-3.66-4.83v-3.5a2.67 2.67 0 0 0-2.66-2.66h-87.8a2.67 2.67 0 0 0-2.66 2.66z"/><path class="g" d="M460.5 173.07z"/><path class="h" d="M460.5 171.57h25.3v3h-25.3z"/><path class="g" d="M491.3 173.07z"/><path class="h" d="M491.3 171.57h32.18v3h-32.18z"/><path class="g" d="M528.25 173.07z"/><path class="h" d="M528.25 171.57h7.61v3h-7.61z"/><path class="i" d="M754.17 157.41l21.84 7.1a31 31 0 0 1-9 10.62z"/><path class="h" d="M785.62 163.2l-38.35-12.46v-40.32h1.53a37.82 37.82 0 0 1 11.46 1.94 39.8 39.8 0 0 1 25.81 49.35zm-35.35-14.64l33.33 10.83a36.8 36.8 0 0 0-24.28-44.15 34.38 34.38 0 0 0-9.06-1.74z"/><path class="g" d="M747.95 181.6a31.36 31.36 0 0 1-22.16-53.54 30.22 30.22 0 0 1 17.27-8.88v32.69l1.77 2.39 17.38 23.92a31.48 31.48 0 0 1-14.25 3.41zM408.76 259.33a5.24 5.24 0 0 1 2-4.16 1.55 1.55 0 0 0-.8-2.75h-11.96v-32.05h32v12.45l-.1.19-.12.17a1.51 1.51 0 0 1-.27.26h-.05l-.11.06-.12.06h-.62a1.55 1.55 0 0 1-1.21-.6 5.25 5.25 0 1 0 0 6.42 1.55 1.55 0 0 1 1.21-.59h.62l.12.06.11.06h.05a1.57 1.57 0 0 1 .27.26l.12.17a2 2 0 0 1 .1.19v12.45h-12a1.54 1.54 0 0 0-.8 2.75 5.25 5.25 0 1 1-8.46 4.16z"/><path class="h" d="M732.6 245.21h-3v-43.13l.44-.44a35 35 0 0 0-24.8-59.79 35.18 35.18 0 0 0-31.82 20.33l-2.72-1.26a38 38 0 0 1 72.58 16 37.78 37.78 0 0 1-10.68 26.42zM688.65 203.91l-11.79-11.79 11.79-11.8 2.12 2.13-9.66 9.67 9.66 9.66-2.12 2.13zM681.9 190.62h38.89v3h-38.89zM694.22 179.63l-2.12-2.12 9.66-9.67-9.66-9.67 2.12-2.12 11.78 11.79-11.78 11.79zM629.36 166.34h71.6v3h-71.6z"/><path class="g" d="M562.28 251v-38.8a36.56 36.56 0 1 1 62.44-25.82v1.65l5.1 8.85 6.71 11.63h-8.53v14.49a9.86 9.86 0 0 1-9.86 9.86h-15.61v18.14z"/><path class="h" d="M592.24 213.49h-10.29l-.6-7.22a21.79 21.79 0 0 1-5.17-2.28l-5.33 4.51-7.28-7.28 4.68-5.53a21.72 21.72 0 0 1-2-5.27l-7-.58v-10.29l7.22-.6a21.77 21.77 0 0 1 2.28-5.17l-4.51-5.33 7.28-7.28 5.53 4.68a21.79 21.79 0 0 1 5.27-2l.58-7h10.29l.6 7.23a21.83 21.83 0 0 1 5.17 2.28l5.33-4.51 7.27 7.28-4.68 5.53a21.78 21.78 0 0 1 2 5.27l7 .58v10.29l-7.22.6a21.77 21.77 0 0 1-2.28 5.17l4.51 5.33-7.28 7.28-5.53-4.68a21.78 21.78 0 0 1-5.27 2zm-7.53-3h4.77l.52-6.49 1.12-.21a18.85 18.85 0 0 0 6.33-2.45l.93-.57 5.06 4.28 3.37-3.37-4.18-4.94.64-.94a18.8 18.8 0 0 0 2.75-6.21l.25-1.05 6.6-.55v-4.77l-6.45-.54-.21-1.12a18.83 18.83 0 0 0-2.45-6.34l-.57-.92 4.28-5.06-3.37-3.37-4.94 4.18-.94-.64a18.89 18.89 0 0 0-6.22-2.71l-1.05-.25-.55-6.61h-4.77l-.54 6.45-1.12.21a18.82 18.82 0 0 0-6.33 2.44l-.93.57-5.06-4.28-3.37 3.37 4.18 4.94-.64.94a18.83 18.83 0 0 0-2.75 6.21l-.25 1.05-6.6.55v4.77l6.45.54.21 1.12a18.78 18.78 0 0 0 2.44 6.33l.57.92-4.28 5.06 3.37 3.37 4.94-4.18.94.64a18.84 18.84 0 0 0 6.21 2.75l1.05.25zM587.56 195a9.85 9.85 0 1 1 9.85-9.85 9.86 9.86 0 0 1-9.85 9.85zm0-16.7a6.85 6.85 0 1 0 6.85 6.85 6.86 6.86 0 0 0-6.85-6.83zM579.68 122h21.6v3h-21.6zM568.36 122h7.2v3h-7.2zM548.72 132.83h33.09v3h-33.09zM377.26 266.11h21.61v3h-21.61zM365.95 266.11h7.2v3h-7.2zM346.3 276.94h33.09v3h-33.09z"/><g class="k"><path class="i" d="M759.03 244.52h18.18v8.96h-18.18zM784.6 234.42h18.18v19.06h-18.18zM810.18 217.88h18.18v35.6h-18.18zM835.75 192.36h18.18v61.13h-18.18z"/></g><path class="g" d="M865.68 252.35z"/><path class="h" d="M865.68 250.85h12.14v3h-12.14z"/><path class="g" d="M865.68 242.54z"/><path class="h" d="M865.68 241.04h7.77v3h-7.77z"/><path class="g" d="M865.68 232.72z"/><path class="h" d="M865.68 231.22h7.77v3h-7.77z"/><path class="g" d="M865.68 222.91z"/><path class="h" d="M865.68 221.41h7.77v3h-7.77z"/><path class="g" d="M865.68 213.09z"/><path class="h" d="M865.68 211.59h7.77v3h-7.77z"/><path class="g" d="M865.68 203.28z"/><path class="h" d="M865.68 201.78h12.14v3h-12.14z"/><path class="g" d="M865.68 193.46z"/><path class="h" d="M865.68 191.96h7.77v3h-7.77z"/><path class="g" d="M865.68 183.65z"/><path class="h" d="M865.68 182.15h7.77v3h-7.77z"/><path class="g" d="M865.68 173.83z"/><path class="h" d="M865.68 172.33h7.77v3h-7.77z"/><path class="g" d="M865.68 164z"/><path class="h" d="M865.68 162.52h7.77v3h-7.77z"/><path class="g" d="M865.68 154.21z"/><path class="h" d="M865.68 152.71h12.14v3h-12.14z"/><path class="l" d="M210.22 249.76v-24.22s1.47-2.93 3.14-2.93a3.14 3.14 0 0 1 2.45 1.2 10.63 10.63 0 1 0 0-13 3.13 3.13 0 0 1-2.45 1.21c-1.67 0-3.14-2.93-3.14-2.93v-24.2h-24.32a3.13 3.13 0 0 1-1.63-5.58 10.63 10.63 0 1 0-13 0 3.13 3.13 0 0 1-1.62 5.58h-24.3v64.87z"/><path class="m" d="M76.67 205a11.43 11.43 0 0 1 4.46-9 3.37 3.37 0 0 0-1.75-6h-26.18v-69.88h69.86v27.13a3.5 3.5 0 0 1-.21.42.19.19 0 0 0 0 .05c-.08.13-.17.26-.27.38a3.34 3.34 0 0 1-.6.56l-.11.09a2.47 2.47 0 0 1-.24.14l-.27.14-.23.09-.36.11h-.2a3.83 3.83 0 0 1-.6.06 3.38 3.38 0 0 1-2.64-1.3 11.46 11.46 0 1 0 0 14 3.38 3.38 0 0 1 2.64-1.29 3.12 3.12 0 0 1 .6.06h.2l.36.1.23.09a2 2 0 0 1 .27.14l.24.14.11.09a3.44 3.44 0 0 1 .6.56 2.61 2.61 0 0 1 .26.37v.05a4.31 4.31 0 0 1 .21.42v27.28h-26.19a3.36 3.36 0 0 0-1.74 6 11.45 11.45 0 1 1-18.45 9z"/></svg>