<svg xmlns="http://www.w3.org/2000/svg" viewBox="-22764.027 -8018.068 122.695 69.016"><defs><style>.a{fill:#2a8dc1;}</style></defs><path class="a" d="M231.248,2151.6c-40.259,0-61.348,29.523-61.348,34.508,0,4.6,21.088,34.508,61.348,34.508s61.348-29.523,61.348-34.508C292.6,2181.506,271.507,2151.6,231.248,2151.6Zm0,60.964c-14.954,0-27.223-11.886-27.223-26.456s12.269-26.456,27.223-26.456,27.223,11.887,27.223,26.456S246.2,2212.564,231.248,2212.564Zm0-26.456c-2.684-2.684,4.218-13.036,0-13.036-7.668,0-13.8,5.751-13.8,13.036s6.135,13.036,13.8,13.036,13.8-5.751,13.8-13.036C244.667,2182.657,233.165,2188.408,231.248,2186.108Z" transform="translate(-22933.928 -10169.668)"/></svg>