<svg xmlns="http://www.w3.org/2000/svg" viewBox="0 0 100.95 98.3"><defs><style>.a{fill:#c1272d;}</style></defs><title>icon-alarm-red</title><path class="a" d="M50.66,98.3a10.09,10.09,0,0,1-10.21-9.83h20A9.76,9.76,0,0,1,50.66,98.3ZM80.91,42.72v25L91.12,77.89V82.8H10.21V77.89L20.42,67.68v-25c0-15.5,8.32-28.36,22.69-31.76V7.56a7.56,7.56,0,1,1,15.12,0V11c14.37,3.4,22.69,16.64,22.69,31.76Zm9.83-2.27A43,43,0,0,0,73,7.94L80.15.76a52.4,52.4,0,0,1,20.79,39.32H90.74ZM28.36,7.94A41.64,41.64,0,0,0,10.21,40.45H0A52.4,52.4,0,0,1,20.79,1.13Z"/></svg>