<svg xmlns="http://www.w3.org/2000/svg" viewBox="0 0 26 26"><defs><style>.a{fill:#fff;}</style></defs><title>icon-close-cir-white</title><path class="a" d="M699,837a13,13,0,1,1,13-13A13,13,0,0,1,699,837Zm0-23a10,10,0,1,0,10,10A10,10,0,0,0,699,814Zm4.5,13.5-1,1a0.48,0.48,0,0,1-.7,0l-2.9-2.9-2.9,2.9a0.48,0.48,0,0,1-.7,0l-1-1a0.48,0.48,0,0,1,0-.7l2.9-2.9-2.9-2.9a0.48,0.48,0,0,1,0-.7l1-1a0.48,0.48,0,0,1,.7,0l2.9,2.9,2.9-2.9a0.48,0.48,0,0,1,.7,0l1,1a0.48,0.48,0,0,1,0,.7l-2.9,2.9,2.9,2.9A0.48,0.48,0,0,1,703.5,827.5Z" transform="translate(-686 -811)"/></svg>