<svg xmlns="http://www.w3.org/2000/svg" viewBox="-23027 -6722 72.988 73"><defs><style>.a{fill:#9e9e9e;}</style></defs><path class="a" d="M36.494.008A35.279,35.279,0,0,1,62.269,10.726,35.279,35.279,0,0,1,72.987,36.5,35.279,35.279,0,0,1,62.269,62.277,35.279,35.279,0,0,1,36.494,73,35.279,35.279,0,0,1,10.718,62.277,35.279,35.279,0,0,1,0,36.5c0-9.953,3.573-18.374,10.718-25.775S26.286-.247,36.494.008Zm-5.87,53.337L58.951,25.017l-6.38-6.38L30.624,40.585,20.416,30.377l-6.38,6.38Z" transform="translate(-23027 -6721.995)"/></svg>