<svg xmlns="http://www.w3.org/2000/svg" viewBox="-22743.998 -6960 66.697 52.284"><defs><style>.a{fill:#2a8dc1;}</style></defs><path class="a" d="M61.986,46.243V17.706l-2.5,2.5c-6.666,5-11.873,9.165-15.831,12.5q-1.875,1.562-3.125,2.5a20.576,20.576,0,0,1-3.125,1.875,8.17,8.17,0,0,1-3.749.833h-.208a8.17,8.17,0,0,1-3.749-.833A10.185,10.185,0,0,1,26.575,35.2q-1.25-.937-3.125-2.5c-3.958-3.333-9.165-7.5-15.831-12.5a28.281,28.281,0,0,1-2.5-2.5V46.243a1.082,1.082,0,0,0,.417.833,1.579,1.579,0,0,0,.833.417H61.153a1.579,1.579,0,0,0,.833-.417C61.778,47.076,61.986,46.66,61.986,46.243Zm0-38.953V5.624a.645.645,0,0,0-.208-.417C61.57,5,61.57,5,61.362,5s-.208,0-.625-.208H5.953A1.473,1.473,0,0,0,4.7,6.041c0,4.166,1.875,7.707,5.416,10.623q7.186,5.624,15,11.873c.208,0,.625.417,1.25,1.042s1.25,1.042,1.666,1.458a6.828,6.828,0,0,1,1.666,1.25,8.444,8.444,0,0,0,1.875,1.042c.625.208,1.042.208,1.666.417h.208a6.439,6.439,0,0,0,1.666-.417,8.442,8.442,0,0,0,1.875-1.042,11.554,11.554,0,0,0,1.666-1.25c.417-.417,1.042-.833,1.666-1.458a15.336,15.336,0,0,1,1.25-1.042q7.811-6.249,15-11.873A20.369,20.369,0,0,0,60.32,12.29,8.874,8.874,0,0,0,61.986,7.291Zm4.791-1.458V46.243a5.816,5.816,0,0,1-1.666,4.166,7.027,7.027,0,0,1-4.166,1.875H5.953a5.551,5.551,0,0,1-4.166-1.875A4.729,4.729,0,0,1,.121,46.243V5.832A5.816,5.816,0,0,1,1.787,1.666,5.349,5.349,0,0,1,5.953,0H60.737A5.816,5.816,0,0,1,64.9,1.666,5.991,5.991,0,0,1,66.777,5.832Z" transform="translate(-22744.078 -6960)"/></svg>