<svg xmlns="http://www.w3.org/2000/svg" viewBox="-22737 -8011 62.408 61.947">
  <defs>
    <style>
      .cls-1 {
        fill: #2a8dc1;
      }
    </style>
  </defs>
  <path id="path-54" class="cls-1" d="M27.176,34.76,32.5,24.394,52.671,4.222c1.121.84,1.681,1.121,3.082,2.241a12.44,12.44,0,0,1,2.241,3.082L37.822,29.717,27.176,34.76ZM0,61.936,10.086,22.153,31.378.861a32.5,32.5,0,0,1,14.849,0L27.736,19.351l-13.448,7L11.207,42.325c3.642,3.642,5.6,5.883,8.685,8.685l15.689-3.082,7-13.448L61.356,15.709a25.021,25.021,0,0,1-.28,15.129L39.783,52.131,0,61.936Z" transform="translate(-22737 -8010.988)"/>
</svg>
