<svg xmlns="http://www.w3.org/2000/svg" viewBox="-23030 -8019 78.086 78.086"><defs><style>.a{fill:#444;}</style></defs><path class="a" d="M39.043,7.321a32.186,32.186,0,0,0-22.45,9.273,31.164,31.164,0,0,0-9.273,22.45,32.186,32.186,0,0,0,9.273,22.45,31.164,31.164,0,0,0,22.45,9.273,32.186,32.186,0,0,0,22.45-9.273,31.164,31.164,0,0,0,9.273-22.45A31.659,31.659,0,0,0,39.043,7.321Zm0-7.321h0A39.043,39.043,0,1,1,0,39.043,39.158,39.158,0,0,1,39.043,0Zm-4.88,53.684h9.761v9.761H34.163Zm0-39.043h9.761V43.923H34.163Z" transform="translate(-23030 -8019)"/></svg>