<svg xmlns="http://www.w3.org/2000/svg" viewBox="-22475 -7763 79.547 77.55"><defs><style>.a{fill:#2a8dc1;}</style></defs><path class="a" d="M122.464,47.6s10.983-4.327,10.983-4.66V34.282c0-.666-10.983-4.327-10.983-4.327l-2-4.66s4.66-10.318,4.327-10.983L118.8,8.321c-1-.666-11.316,4.327-11.316,4.327l-4.993-2S98.167,0,97.5,0H88.847c-.666,0-4.66,10.651-4.66,10.651l-4.66,2S68.877,7.988,68.545,8.654l-5.991,5.991C62.221,14.977,66.88,25.3,66.88,25.3l-2,4.66S53.9,34.282,53.9,34.615v8.654c0,.666,10.984,4.327,10.984,4.327l2,4.66s-4.66,10.318-4.327,10.983l5.991,5.991c.333.333,10.983-4.327,10.983-4.327l4.992,2S88.847,77.55,89.513,77.55h8.654c.666,0,4.66-10.651,4.66-10.651l4.993-2S118.47,69.562,118.8,68.9l5.991-5.991c.333-.333-4.327-10.651-4.327-10.651ZM93.507,50.923A12.576,12.576,0,0,1,80.859,38.609,12.362,12.362,0,0,1,93.507,26.294a12.576,12.576,0,0,1,12.648,12.315A12.362,12.362,0,0,1,93.507,50.923Z" transform="translate(-22528.9 -7763)"/></svg>