<svg xmlns="http://www.w3.org/2000/svg" viewBox="-22468 -6960 66.656 52.492">
  <defs>
    <style>
      .cls-1 {
        fill: #2a8dc1;
      }
    </style>
  </defs>
  <path id="path" class="cls-1" d="M198.757,16.873V46.452a5.816,5.816,0,0,1-1.666,4.166,7.027,7.027,0,0,1-4.166,1.875H138.141a5.551,5.551,0,0,1-4.166-1.875,4.729,4.729,0,0,1-1.666-4.166V16.873a19.459,19.459,0,0,0,3.749,3.333c8.957,6.041,15.206,10.415,18.539,12.706,1.458,1.042,2.5,1.875,3.333,2.5a18.163,18.163,0,0,0,3.541,1.875,10.593,10.593,0,0,0,4.166.833h.208a11.332,11.332,0,0,0,4.166-.833,18.165,18.165,0,0,0,3.541-1.875c.833-.625,2.083-1.458,3.333-2.5,4.166-3.125,10.415-7.291,18.539-12.706Zm0-11.04a10.079,10.079,0,0,1-1.875,5.624,16.008,16.008,0,0,1-4.583,4.583c-9.374,6.457-15.206,10.415-17.5,12.082a14.183,14.183,0,0,1-1.458,1.042c-.625.417-1.458,1.042-2.083,1.458l-1.875,1.25a11.166,11.166,0,0,1-2.291,1.042,6.082,6.082,0,0,1-1.875.417h.208a7.731,7.731,0,0,1-1.875-.417,20.3,20.3,0,0,1-2.291-1.042,7.27,7.27,0,0,1-1.875-1.25c-.417-.417-1.25-.833-2.083-1.458s-1.458-1.042-1.458-1.042c-2.291-1.458-5.624-3.749-9.79-6.666s-6.874-4.791-7.5-5.416a26.888,26.888,0,0,1-4.374-4.166C132.933,10,132.1,8.332,132.1,6.666a7.3,7.3,0,0,1,1.458-4.791A5.38,5.38,0,0,1,137.932,0h54.784a6.193,6.193,0,0,1,4.166,1.666A5.244,5.244,0,0,1,198.757,5.832Z" transform="translate(-22600.1 -6960)"/>
</svg>
