<svg xmlns="http://www.w3.org/2000/svg" viewBox="-22468 -6817.766 67 63.371">
  <defs>
    <style>
      .cls-1 {
        fill: none;
      }

      .cls-2 {
        fill: #2a8dc1;
      }
    </style>
  </defs>
  <g id="Group_86" data-name="Group 86" transform="translate(0 7)">
    <rect id="Rectangle_7" data-name="Rectangle 7" class="cls-1" width="67" height="54" transform="translate(-22468 -6820)"/>
    <path id="path-69" class="cls-2" d="M0,31.686A30.661,30.661,0,0,1,9.308,9.308,30.661,30.661,0,0,1,31.686,0,30.661,30.661,0,0,1,54.063,9.308a29.909,29.909,0,0,1,9.308,22.378,30.661,30.661,0,0,1-9.308,22.378,30.342,30.342,0,0,1-22.378,9.308A29.608,29.608,0,0,1,9.308,54.063,31.8,31.8,0,0,1,0,31.686Zm12.674-10.3c-.2,2.178.792,5.149,2.574,8.912,2.971,5.545,7.921,10.892,14.457,15.645C34.26,48.915,38.221,50.5,41.983,50.5a4.864,4.864,0,0,0,2.971-.99L50.3,43.964a2.139,2.139,0,0,0,.594-1.386c0-.594-.4-.99-.99-1.584l-7.723-4.555c-.792-.594-1.782-.4-2.772.4l-2.178,2.376c-.2.2-.594.2-1.188.2a3.16,3.16,0,0,1-1.584-.594c-.594-.4-.99-.594-1.584-.99s-.99-.792-1.386-.99A8.939,8.939,0,0,1,30.1,35.448c-.594-.594-.99-.99-1.188-.99a18.291,18.291,0,0,1-5.149-7.525.728.728,0,0,1,.2-.594l1.98-1.98a2.384,2.384,0,0,0,.594-2.772L22.18,13.466c-.594-.792-1.188-1.188-1.782-.99a1.712,1.712,0,0,0-1.188.594l-5.347,5.545A3.323,3.323,0,0,0,12.674,21.388Z" transform="translate(-22466.551 -6824.766)"/>
  </g>
</svg>
