<?xml version="1.0" encoding="utf-8"?>
<!-- Generator: Adobe Illustrator 21.0.0, SVG Export Plug-In . SVG Version: 6.00 Build 0)  -->
<svg version="1.1" id="Layer_1" xmlns="http://www.w3.org/2000/svg" xmlns:xlink="http://www.w3.org/1999/xlink" x="0px" y="0px"
	 viewBox="0 0 97.2 72.9" style="enable-background:new 0 0 97.2 72.9;" xml:space="preserve">
<style type="text/css">
	.st0{fill:#444444;}
</style>
<path id="path" class="st0" d="M88.7,11.4H82V1.7L68.7,1.3v10H28.2l0.3-10L15.2,1.7v10l-6.7-0.3c-3.7,0-6.7,3-6.7,6.7v46.8
	c0,3.7,3,6.7,6.7,6.7h80.3c3.7,0,6.7-3,6.7-6.7V18.1C95.4,14.4,92.4,11.4,88.7,11.4z M72,4.7h6.7v13.4H72V4.7z M28.5,27.4
	c4,0,7.4,4.3,7.4,9.7s-3.3,9.7-7.4,9.7s-7.4-4.3-7.4-9.7S24.5,27.4,28.5,27.4L28.5,27.4z M18.5,4.7h6.7v13.4h-6.7V4.7z M14.2,57.9
	c0,0,0.7-6.4,2.7-7.7c1.7-1.3,7-2,7-2s3.3,3.7,4.7,3.7s4.7-3.7,4.7-3.7s5.4,0.7,7,2c2,1.3,2.7,7.7,2.7,7.7H14.2z M82,54.8H51.9v-3.3
	H82V54.8z M82,48.2H51.9v-3.3H82V48.2z M82,41.5H51.9v-3.3H82V41.5z M82,34.8H51.9v-3.3H82V34.8z"/>
</svg>
