<svg xmlns="http://www.w3.org/2000/svg" viewBox="-21104 -6031 72.994 78.646"><defs><style>.a{fill:#2a8dc1;}</style></defs><path class="a" d="M5.653,72.748H67.341V27.772H5.653ZM22.365,19.416V6.882a1.277,1.277,0,0,0-.492-.983,1.277,1.277,0,0,0-.983-.492h-2.7A1.277,1.277,0,0,0,17.2,5.9a1.277,1.277,0,0,0-.492.983V19.416a1.277,1.277,0,0,0,.492.983,1.277,1.277,0,0,0,.983.492h2.7a1.277,1.277,0,0,0,.983-.492C22.365,20.153,22.365,19.907,22.365,19.416Zm33.916,0V6.882a1.277,1.277,0,0,0-.492-.983,1.277,1.277,0,0,0-.983-.492H52.1a1.277,1.277,0,0,0-.983.492,1.277,1.277,0,0,0-.492.983V19.416a1.277,1.277,0,0,0,.492.983,1.277,1.277,0,0,0,.983.492h2.7a1.277,1.277,0,0,0,.983-.492A1.277,1.277,0,0,0,56.281,19.416Zm16.712-2.7V72.993a4.89,4.89,0,0,1-1.72,3.932,5.235,5.235,0,0,1-3.932,1.72H5.653a4.89,4.89,0,0,1-3.932-1.72A6.328,6.328,0,0,1,0,72.993V16.712A4.89,4.89,0,0,1,1.72,12.78a6.328,6.328,0,0,1,3.932-1.72h5.653V6.882a6.862,6.862,0,0,1,1.966-4.915A6.862,6.862,0,0,1,18.187,0h2.7a6.862,6.862,0,0,1,4.915,1.966,6.862,6.862,0,0,1,1.966,4.915V11.06H44.73V6.882A6.862,6.862,0,0,1,46.7,1.966,6.862,6.862,0,0,1,51.611,0h2.7A6.862,6.862,0,0,1,59.23,1.966,6.862,6.862,0,0,1,61.2,6.882V11.06h5.653a4.89,4.89,0,0,1,3.932,1.72A3.992,3.992,0,0,1,72.993,16.712Z" transform="translate(-21104 -6031)"/></svg>