<svg xmlns="http://www.w3.org/2000/svg" viewBox="0 0 93.65 70.23"><defs><style>.a{fill:#e58d23;}</style></defs><title>icon-id-card-orange</title><path class="a" d="M87,10H80.27V.33L66.89,0V10H26.42l.33-10L13.38.33v10L6.69,10A6.71,6.71,0,0,0,0,16.72V63.54a6.71,6.71,0,0,0,6.69,6.69H87a6.71,6.71,0,0,0,6.69-6.69V16.72A6.71,6.71,0,0,0,87,10ZM70.24,3.34h6.69V16.72H70.24ZM26.76,26.09c4,0,7.36,4.35,7.36,9.7s-3.34,9.7-7.36,9.7-7.36-4.35-7.36-9.7,3.34-9.7,7.36-9.7Zm-10-22.74h6.69V16.72H16.72ZM12.38,56.52s.67-6.35,2.68-7.69c1.67-1.34,7-2,7-2s3.35,3.68,4.68,3.68,4.68-3.68,4.68-3.68,5.35.67,7,2c2,1.34,2.68,7.69,2.68,7.69Zm67.89-3H50.17V50.17h30.1Zm0-6.69H50.17V43.48h30.1Zm0-6.69H50.17V36.79h30.1Zm0-6.69H50.17V30.1h30.1Z"/></svg>