<svg xmlns="http://www.w3.org/2000/svg" viewBox="0 0 102.47 102.47"><defs><style>.a{fill:#c1272d;}.b{fill:#fff;}</style></defs><title>icon-alarm-red-cir</title><path class="a" d="M51.23,0a51,51,0,0,1,51.23,51.23,51,51,0,0,1-51.23,51.23A51.23,51.23,0,0,1,51.23,0Z"/><path class="b" d="M51.16,80.95A6.12,6.12,0,0,1,45,75H57.11A5.92,5.92,0,0,1,51.16,80.95ZM69.49,47.25V62.38l6.19,6.19v3H26.63v-3l6.19-6.19V47.25c0-9.4,5-17.19,13.75-19.25V25.94a4.58,4.58,0,0,1,9.17,0V28c8.71,2.06,13.75,10.09,13.75,19.25Zm6-1.38A26.05,26.05,0,0,0,64.68,26.17L69,21.81A31.77,31.77,0,0,1,81.64,45.65H75.45ZM37.63,26.17a25.24,25.24,0,0,0-11,19.71H20.44A31.77,31.77,0,0,1,33,22Z"/></svg>